<svg viewBox="0 0 252 311" fill="none" xmlns="http://www.w3.org/2000/svg">
<path d="M36.16 87H37.252V78.3H36.508C36.028 79.248 35.392 79.404 34.144 79.452V80.196H36.16V87ZM44.802 80.424C44.802 78.96 43.65 78.144 42.042 78.144C40.194 78.144 38.994 79.284 39.018 81.012H40.146C40.17 79.572 41.082 79.056 42.018 79.056C43.05 79.056 43.65 79.668 43.65 80.568C43.65 82.104 41.85 83.748 38.778 86.016V87H45.042V85.98H40.266C42.702 84.228 44.802 82.44 44.802 80.424ZM46.2761 78.3V79.68H46.8641L46.2281 81.348H46.9241L47.6561 79.776V78.3H46.2761ZM50.1415 82.416C50.2015 80.4 50.9335 79.056 52.2775 79.056C53.1655 79.056 53.7655 79.536 53.9095 80.316H55.0975C54.9175 79.212 54.1135 78.144 52.4095 78.144C49.8895 78.144 49.0135 80.496 49.0135 82.956C49.0135 85.644 50.0095 87.156 52.1815 87.156C54.0415 87.156 55.2415 85.776 55.2415 84.156C55.2415 82.416 54.0535 81.204 52.4335 81.204C51.2815 81.204 50.5375 81.732 50.1415 82.416ZM52.1695 86.244C51.0175 86.244 50.2735 85.416 50.2735 84.216C50.2735 83.028 51.0415 82.152 52.1815 82.152C53.2975 82.152 54.0775 83.028 54.0775 84.216C54.0775 85.404 53.2855 86.244 52.1695 86.244ZM61.1723 84.564C61.1723 85.644 60.3563 86.244 59.2043 86.244C57.9803 86.244 57.3443 85.5 57.2243 84.432H56.0963C56.2163 85.884 57.1523 87.156 59.1923 87.156C60.8483 87.156 62.3363 86.304 62.3363 84.552C62.3363 83.64 61.9763 82.776 60.6803 82.368C61.5923 81.996 62.0963 81.24 62.0963 80.352C62.0963 78.744 60.7883 78.144 59.2763 78.144C57.4523 78.144 56.3603 79.212 56.2283 80.748H57.3563C57.4523 79.764 58.0883 79.056 59.2523 79.056C60.1763 79.056 60.9443 79.536 60.9443 80.472C60.9443 81.492 60.1403 81.912 58.6283 81.912H58.4843V82.908H58.6643C60.0563 82.908 61.1723 83.316 61.1723 84.564ZM62.9953 78.3V79.32H67.7473C65.5873 81.192 64.2073 83.88 64.0153 87H65.3353C65.5393 83.748 66.8713 81.06 69.0193 79.32V78.3H62.9953Z" fill="black"/>
<path d="M171.132 78.3V79.32H175.884C173.724 81.192 172.344 83.88 172.152 87H173.472C173.676 83.748 175.008 81.06 177.156 79.32V78.3H171.132ZM177.648 78.3V79.32H182.4C180.24 81.192 178.86 83.88 178.668 87H179.988C180.192 83.748 181.524 81.06 183.672 79.32V78.3H177.648ZM190.328 80.364C190.328 79.08 189.2 78.144 187.424 78.144C185.636 78.144 184.52 79.08 184.52 80.364C184.52 81.072 184.856 81.9 185.72 82.368C184.58 82.824 184.244 83.76 184.244 84.552C184.244 86.208 185.624 87.156 187.424 87.156C189.212 87.156 190.592 86.208 190.592 84.552C190.592 83.76 190.256 82.824 189.128 82.368C189.992 81.9 190.328 81.072 190.328 80.364ZM187.424 79.056C188.504 79.056 189.224 79.632 189.224 80.496C189.224 81.372 188.504 82.02 187.424 82.02C186.332 82.02 185.612 81.372 185.612 80.496C185.612 79.632 186.332 79.056 187.424 79.056ZM185.408 84.552C185.408 83.532 186.188 82.824 187.424 82.824C188.648 82.824 189.44 83.532 189.44 84.552C189.44 85.572 188.648 86.244 187.424 86.244C186.188 86.244 185.408 85.572 185.408 84.552ZM191.725 78.3V79.68H192.313L191.677 81.348H192.373L193.105 79.776V78.3H191.725ZM199.091 84.144C199.091 85.488 198.191 86.244 197.147 86.244C195.935 86.244 195.347 85.572 195.179 84.48H194.051C194.219 85.884 195.131 87.156 197.147 87.156C198.767 87.156 200.243 86.124 200.243 84.132C200.243 82.212 198.911 81.132 197.387 81.132C196.667 81.132 195.971 81.348 195.515 81.792L195.815 79.32H199.919V78.3H194.927L194.363 82.98L195.455 83.04C195.647 82.608 196.235 82.08 197.135 82.08C198.083 82.08 199.091 82.704 199.091 84.144ZM206.417 82.884C206.357 84.9 205.613 86.244 204.269 86.244C203.381 86.244 202.793 85.764 202.649 84.984H201.461C201.641 86.088 202.445 87.156 204.149 87.156C206.657 87.156 207.545 84.804 207.545 82.344C207.545 79.656 206.549 78.144 204.377 78.144C202.517 78.144 201.317 79.524 201.317 81.132C201.317 82.884 202.505 84.096 204.113 84.096C205.265 84.096 206.021 83.568 206.417 82.884ZM204.389 79.056C205.541 79.056 206.273 79.884 206.273 81.084C206.273 82.272 205.517 83.136 204.377 83.136C203.249 83.136 202.481 82.272 202.481 81.084C202.481 79.896 203.261 79.056 204.389 79.056ZM213.741 82.884C213.681 84.9 212.937 86.244 211.593 86.244C210.705 86.244 210.117 85.764 209.973 84.984H208.785C208.965 86.088 209.769 87.156 211.473 87.156C213.981 87.156 214.869 84.804 214.869 82.344C214.869 79.656 213.873 78.144 211.701 78.144C209.841 78.144 208.641 79.524 208.641 81.132C208.641 82.884 209.829 84.096 211.437 84.096C212.589 84.096 213.345 83.568 213.741 82.884ZM211.713 79.056C212.865 79.056 213.597 79.884 213.597 81.084C213.597 82.272 212.841 83.136 211.701 83.136C210.573 83.136 209.805 82.272 209.805 81.084C209.805 79.896 210.585 79.056 211.713 79.056Z" fill="black"/>
<path d="M15 95.5C6.97508 95.5 0.5 89.2168 0.5 81.5C0.5 73.7832 6.97508 67.5 15 67.5C23.0249 67.5 29.5 73.7832 29.5 81.5C29.5 89.2168 23.0249 95.5 15 95.5Z" stroke="#ABABAB"/>
<path d="M55.24 209H57.028V200.3H55.804V207.704L51.832 200.3H50.032V209H51.256V201.572L55.24 209ZM62.9186 208.076V209H64.0106V202.544H62.9186V206.096C62.9186 207.476 62.3066 208.208 61.2746 208.208C60.0866 208.208 59.9186 207.344 59.9186 206.348V202.544H58.8266V206.672C58.8266 208.148 59.3906 209.156 60.8906 209.156C61.9586 209.156 62.5466 208.688 62.9186 208.076ZM66.8349 209V205.496C66.8349 204.116 67.4589 203.384 68.3949 203.384C69.5829 203.384 69.7749 204.248 69.7749 205.244V209H70.8669V205.496C70.8669 204.116 71.4909 203.384 72.4269 203.384C73.6149 203.384 73.8069 204.248 73.8069 205.244V209H74.8989V204.92C74.8989 203.444 74.3109 202.436 72.8109 202.436C71.9109 202.436 71.1549 202.784 70.6389 203.576C70.3509 202.868 69.7629 202.436 68.7789 202.436C67.8069 202.436 67.2069 202.904 66.8349 203.516V202.544H65.7429V209H66.8349ZM77.6279 200.3H76.5359V209H77.6279V208.028C78.0239 208.712 78.7079 209.156 79.7399 209.156C81.2159 209.156 82.4999 207.932 82.4999 205.796C82.4999 203.672 81.2159 202.436 79.7399 202.436C78.7079 202.436 78.0239 202.88 77.6279 203.564V200.3ZM79.4639 208.22C78.4919 208.22 77.5799 207.5 77.5799 205.796C77.5799 204.092 78.4919 203.372 79.4639 203.372C80.5799 203.372 81.3119 204.26 81.3119 205.796C81.3119 207.332 80.5799 208.22 79.4639 208.22ZM84.5687 206.132H89.5367C89.6807 204.092 88.4927 202.436 86.5247 202.436C84.7607 202.436 83.3927 203.744 83.3927 205.784C83.3927 207.692 84.5207 209.156 86.5607 209.156C88.1327 209.156 89.1527 208.244 89.4527 207.128H88.3247C88.0487 207.764 87.5207 208.196 86.5607 208.196C85.6007 208.196 84.6167 207.524 84.5687 206.132ZM84.5807 205.196C84.6767 203.9 85.5527 203.372 86.5247 203.372C87.6767 203.372 88.3607 204.284 88.3847 205.196H84.5807ZM94.0253 203.684V202.52C93.9053 202.508 93.8093 202.508 93.7013 202.508C92.8613 202.532 92.2013 202.94 91.8773 203.672V202.544H90.8093V209H91.9013V205.616C91.9013 204.2 92.4053 203.636 93.4133 203.636C93.5933 203.636 93.7973 203.66 94.0253 203.684ZM103.695 205.796C103.695 203.456 102.099 202.436 100.599 202.436C99.0986 202.436 97.5026 203.456 97.5026 205.796C97.5026 208.136 99.0986 209.156 100.599 209.156C102.099 209.156 103.695 208.136 103.695 205.796ZM100.599 208.196C99.6146 208.196 98.6666 207.512 98.6666 205.796C98.6666 204.032 99.6146 203.396 100.599 203.396C101.583 203.396 102.531 204.08 102.531 205.796C102.531 207.452 101.583 208.196 100.599 208.196ZM105.335 202.076V202.544H104.435V203.42H105.335V209H106.427V203.42H107.639V202.544H106.427V202.016C106.427 201.344 106.523 201.212 107.099 201.212H107.639V200.3H107.075C105.611 200.3 105.335 200.732 105.335 202.076ZM115.365 204.428H116.505C116.301 203.204 115.353 202.424 113.961 202.424C112.533 202.424 111.381 203.084 111.381 204.224C111.381 205.424 112.341 205.832 113.217 206.012L114.177 206.204C114.873 206.348 115.485 206.624 115.485 207.272C115.485 207.872 114.813 208.232 113.985 208.232C113.025 208.232 112.509 207.74 112.341 206.912H111.189C111.309 208.04 112.269 209.156 113.961 209.156C115.437 209.156 116.589 208.424 116.589 207.152C116.589 205.904 115.557 205.46 114.381 205.232L113.469 205.052C112.845 204.932 112.485 204.692 112.485 204.176C112.485 203.588 113.205 203.36 113.841 203.36C114.597 203.36 115.197 203.66 115.365 204.428ZM117.589 207.296C117.589 208.484 118.597 209.156 119.809 209.156C120.949 209.156 121.621 208.772 122.017 208.112C122.029 208.496 122.065 208.76 122.101 209H123.205C123.085 208.388 123.025 207.644 123.037 206.564L123.049 205.076C123.061 203.264 122.257 202.412 120.481 202.412C119.221 202.412 117.997 203.192 117.889 204.584H119.017C119.065 203.792 119.593 203.3 120.493 203.3C121.297 203.3 121.957 203.696 121.957 204.872V205.028C119.305 205.328 117.589 205.772 117.589 207.296ZM122.041 205.892V206.3C122.041 207.824 121.069 208.292 120.049 208.292C119.269 208.292 118.801 207.884 118.801 207.272C118.801 206.384 120.061 206.096 122.041 205.892ZM125.769 209V205.496C125.769 204.116 126.393 203.384 127.329 203.384C128.517 203.384 128.709 204.248 128.709 205.244V209H129.801V205.496C129.801 204.116 130.424 203.384 131.361 203.384C132.549 203.384 132.741 204.248 132.741 205.244V209H133.833V204.92C133.833 203.444 133.245 202.436 131.745 202.436C130.845 202.436 130.089 202.784 129.573 203.576C129.285 202.868 128.697 202.436 127.713 202.436C126.741 202.436 126.141 202.904 125.769 203.516V202.544H124.677V209H125.769ZM136.561 202.544H135.469V211.1H136.561V208.028C136.957 208.712 137.641 209.156 138.673 209.156C140.149 209.156 141.433 207.932 141.433 205.796C141.433 203.672 140.149 202.436 138.673 202.436C137.641 202.436 136.957 202.88 136.561 203.564V202.544ZM138.397 208.22C137.425 208.22 136.513 207.5 136.513 205.796C136.513 204.092 137.425 203.372 138.397 203.372C139.513 203.372 140.245 204.26 140.245 205.796C140.245 207.332 139.513 208.22 138.397 208.22ZM143.804 209V200.3H142.712V209H143.804ZM146.268 206.132H151.236C151.38 204.092 150.192 202.436 148.224 202.436C146.46 202.436 145.092 203.744 145.092 205.784C145.092 207.692 146.22 209.156 148.26 209.156C149.832 209.156 150.852 208.244 151.152 207.128H150.024C149.748 207.764 149.22 208.196 148.26 208.196C147.3 208.196 146.316 207.524 146.268 206.132ZM146.28 205.196C146.376 203.9 147.252 203.372 148.224 203.372C149.376 203.372 150.06 204.284 150.084 205.196H146.28ZM156.228 204.428H157.368C157.164 203.204 156.216 202.424 154.824 202.424C153.396 202.424 152.244 203.084 152.244 204.224C152.244 205.424 153.204 205.832 154.08 206.012L155.04 206.204C155.736 206.348 156.348 206.624 156.348 207.272C156.348 207.872 155.676 208.232 154.848 208.232C153.888 208.232 153.372 207.74 153.204 206.912H152.052C152.172 208.04 153.132 209.156 154.824 209.156C156.3 209.156 157.452 208.424 157.452 207.152C157.452 205.904 156.42 205.46 155.244 205.232L154.332 205.052C153.708 204.932 153.348 204.692 153.348 204.176C153.348 203.588 154.068 203.36 154.704 203.36C155.46 203.36 156.06 203.66 156.228 204.428ZM166.028 202.544V203.564C165.632 202.88 165.008 202.436 163.976 202.436C162.548 202.436 161.24 203.6 161.24 205.664C161.24 207.74 162.548 208.892 163.976 208.892C165.008 208.892 165.632 208.46 166.028 207.776V208.388C166.028 209.264 165.848 209.564 165.608 209.816C165.32 210.128 164.876 210.296 164.288 210.296C163.28 210.296 162.932 209.852 162.788 209.276H161.624C161.828 210.584 162.812 211.256 164.276 211.256C165.236 211.256 166.04 210.944 166.508 210.404C166.88 209.996 167.12 209.456 167.12 208.136V202.544H166.028ZM164.252 203.372C165.224 203.372 166.076 204.032 166.076 205.664C166.076 207.308 165.224 207.968 164.252 207.968C163.184 207.968 162.428 207.14 162.428 205.664C162.428 204.2 163.184 203.372 164.252 203.372ZM168.46 207.296C168.46 208.484 169.468 209.156 170.68 209.156C171.82 209.156 172.492 208.772 172.888 208.112C172.9 208.496 172.936 208.76 172.972 209H174.076C173.956 208.388 173.896 207.644 173.908 206.564L173.92 205.076C173.932 203.264 173.128 202.412 171.352 202.412C170.092 202.412 168.868 203.192 168.76 204.584H169.888C169.936 203.792 170.464 203.3 171.364 203.3C172.168 203.3 172.828 203.696 172.828 204.872V205.028C170.176 205.328 168.46 205.772 168.46 207.296ZM172.912 205.892V206.3C172.912 207.824 171.94 208.292 170.92 208.292C170.14 208.292 169.672 207.884 169.672 207.272C169.672 206.384 170.932 206.096 172.912 205.892ZM175.86 200.924V202.544H174.84V203.42H175.86V207.38C175.86 208.724 176.148 209 177.384 209H178.176V208.088H177.624C177 208.088 176.952 207.92 176.952 207.248V203.42H178.176V202.544H176.952V200.924H175.86ZM180.659 203.516V200.3H179.567V209H180.659V205.496C180.659 204.116 181.307 203.384 182.363 203.384C183.611 203.384 183.779 204.248 183.779 205.244V209H184.871V204.92C184.871 203.444 184.307 202.436 182.747 202.436C181.655 202.436 181.031 202.904 180.659 203.516ZM187.237 206.132H192.205C192.349 204.092 191.161 202.436 189.193 202.436C187.429 202.436 186.061 203.744 186.061 205.784C186.061 207.692 187.189 209.156 189.229 209.156C190.801 209.156 191.821 208.244 192.121 207.128H190.993C190.717 207.764 190.189 208.196 189.229 208.196C188.269 208.196 187.285 207.524 187.237 206.132ZM187.249 205.196C187.345 203.9 188.221 203.372 189.193 203.372C190.345 203.372 191.029 204.284 191.053 205.196H187.249ZM196.693 203.684V202.52C196.573 202.508 196.477 202.508 196.369 202.508C195.529 202.532 194.869 202.94 194.545 203.672V202.544H193.477V209H194.569V205.616C194.569 204.2 195.073 203.636 196.081 203.636C196.261 203.636 196.465 203.66 196.693 203.684ZM198.358 206.132H203.326C203.47 204.092 202.282 202.436 200.314 202.436C198.55 202.436 197.182 203.744 197.182 205.784C197.182 207.692 198.31 209.156 200.35 209.156C201.922 209.156 202.942 208.244 203.242 207.128H202.114C201.838 207.764 201.31 208.196 200.35 208.196C199.39 208.196 198.406 207.524 198.358 206.132ZM198.37 205.196C198.466 203.9 199.342 203.372 200.314 203.372C201.466 203.372 202.15 204.284 202.174 205.196H198.37ZM209.085 200.3V203.564C208.689 202.88 208.005 202.436 206.973 202.436C205.497 202.436 204.213 203.672 204.213 205.796C204.213 207.932 205.497 209.156 206.973 209.156C208.005 209.156 208.689 208.712 209.085 208.028V209H210.177V200.3H209.085ZM207.249 203.372C208.221 203.372 209.133 204.092 209.133 205.796C209.133 207.5 208.221 208.22 207.249 208.22C206.133 208.22 205.401 207.332 205.401 205.796C205.401 204.26 206.133 203.372 207.249 203.372Z" fill="black"/>
<path d="M14.5 216.5C7.30409 216.5 1.5 210.884 1.5 204C1.5 197.116 7.30409 191.5 14.5 191.5C21.6959 191.5 27.5 197.116 27.5 204C27.5 210.884 21.6959 216.5 14.5 216.5Z" stroke="#3D13CB"/>
<path d="M55.24 252H57.028V243.3H55.804V250.704L51.832 243.3H50.032V252H51.256V244.572L55.24 252ZM62.9186 251.076V252H64.0106V245.544H62.9186V249.096C62.9186 250.476 62.3066 251.208 61.2746 251.208C60.0866 251.208 59.9186 250.344 59.9186 249.348V245.544H58.8266V249.672C58.8266 251.148 59.3906 252.156 60.8906 252.156C61.9586 252.156 62.5466 251.688 62.9186 251.076ZM66.8349 252V248.496C66.8349 247.116 67.4589 246.384 68.3949 246.384C69.5829 246.384 69.7749 247.248 69.7749 248.244V252H70.8669V248.496C70.8669 247.116 71.4909 246.384 72.4269 246.384C73.6149 246.384 73.8069 247.248 73.8069 248.244V252H74.8989V247.92C74.8989 246.444 74.3109 245.436 72.8109 245.436C71.9109 245.436 71.1549 245.784 70.6389 246.576C70.3509 245.868 69.7629 245.436 68.7789 245.436C67.8069 245.436 67.2069 245.904 66.8349 246.516V245.544H65.7429V252H66.8349ZM77.6279 243.3H76.5359V252H77.6279V251.028C78.0239 251.712 78.7079 252.156 79.7399 252.156C81.2159 252.156 82.4999 250.932 82.4999 248.796C82.4999 246.672 81.2159 245.436 79.7399 245.436C78.7079 245.436 78.0239 245.88 77.6279 246.564V243.3ZM79.4639 251.22C78.4919 251.22 77.5799 250.5 77.5799 248.796C77.5799 247.092 78.4919 246.372 79.4639 246.372C80.5799 246.372 81.3119 247.26 81.3119 248.796C81.3119 250.332 80.5799 251.22 79.4639 251.22ZM84.5687 249.132H89.5367C89.6807 247.092 88.4927 245.436 86.5247 245.436C84.7607 245.436 83.3927 246.744 83.3927 248.784C83.3927 250.692 84.5207 252.156 86.5607 252.156C88.1327 252.156 89.1527 251.244 89.4527 250.128H88.3247C88.0487 250.764 87.5207 251.196 86.5607 251.196C85.6007 251.196 84.6167 250.524 84.5687 249.132ZM84.5807 248.196C84.6767 246.9 85.5527 246.372 86.5247 246.372C87.6767 246.372 88.3607 247.284 88.3847 248.196H84.5807ZM94.0253 246.684V245.52C93.9053 245.508 93.8093 245.508 93.7013 245.508C92.8613 245.532 92.2013 245.94 91.8773 246.672V245.544H90.8093V252H91.9013V248.616C91.9013 247.2 92.4053 246.636 93.4133 246.636C93.5933 246.636 93.7973 246.66 94.0253 246.684ZM103.695 248.796C103.695 246.456 102.099 245.436 100.599 245.436C99.0986 245.436 97.5026 246.456 97.5026 248.796C97.5026 251.136 99.0986 252.156 100.599 252.156C102.099 252.156 103.695 251.136 103.695 248.796ZM100.599 251.196C99.6146 251.196 98.6666 250.512 98.6666 248.796C98.6666 247.032 99.6146 246.396 100.599 246.396C101.583 246.396 102.531 247.08 102.531 248.796C102.531 250.452 101.583 251.196 100.599 251.196ZM105.335 245.076V245.544H104.435V246.42H105.335V252H106.427V246.42H107.639V245.544H106.427V245.016C106.427 244.344 106.523 244.212 107.099 244.212H107.639V243.3H107.075C105.611 243.3 105.335 243.732 105.335 245.076ZM111.285 250.296C111.285 251.484 112.293 252.156 113.505 252.156C114.645 252.156 115.317 251.772 115.713 251.112C115.725 251.496 115.761 251.76 115.797 252H116.901C116.781 251.388 116.721 250.644 116.733 249.564L116.745 248.076C116.757 246.264 115.953 245.412 114.177 245.412C112.917 245.412 111.693 246.192 111.585 247.584H112.713C112.761 246.792 113.289 246.3 114.189 246.3C114.993 246.3 115.653 246.696 115.653 247.872V248.028C113.001 248.328 111.285 248.772 111.285 250.296ZM115.737 248.892V249.3C115.737 250.824 114.765 251.292 113.745 251.292C112.965 251.292 112.497 250.884 112.497 250.272C112.497 249.384 113.757 249.096 115.737 248.892ZM119.464 246.516V245.544H118.372V252H119.464V248.496C119.464 247.116 120.112 246.384 121.168 246.384C122.416 246.384 122.584 247.248 122.584 248.244V252H123.676V247.92C123.676 246.444 123.112 245.436 121.552 245.436C120.46 245.436 119.836 245.904 119.464 246.516ZM125.621 243.924V245.544H124.601V246.42H125.621V250.38C125.621 251.724 125.909 252 127.145 252H127.937V251.088H127.385C126.761 251.088 126.713 250.92 126.713 250.248V246.42H127.937V245.544H126.713V243.924H125.621ZM130.421 243.3H129.329V244.62H130.421V243.3ZM130.421 245.544H129.329V252H130.421V245.544ZM133.245 252V248.496C133.245 247.116 133.869 246.384 134.805 246.384C135.993 246.384 136.185 247.248 136.185 248.244V252H137.277V248.496C137.277 247.116 137.901 246.384 138.837 246.384C140.025 246.384 140.217 247.248 140.217 248.244V252H141.309V247.92C141.309 246.444 140.721 245.436 139.221 245.436C138.321 245.436 137.565 245.784 137.049 246.576C136.761 245.868 136.173 245.436 135.189 245.436C134.217 245.436 133.617 245.904 133.245 246.516V245.544H132.153V252H133.245ZM144.038 243.3H142.946V244.62H144.038V243.3ZM144.038 245.544H142.946V252H144.038V245.544ZM151.146 247.704C151.002 246.612 150.006 245.436 148.446 245.436C146.538 245.436 145.326 246.864 145.326 248.784C145.326 250.752 146.49 252.156 148.338 252.156C149.838 252.156 151.002 251.112 151.218 249.9H150.09C149.934 250.584 149.286 251.196 148.374 251.196C147.414 251.196 146.514 250.416 146.514 248.772C146.514 247.152 147.402 246.396 148.374 246.396C149.214 246.396 149.886 246.936 150.042 247.704H151.146ZM155.666 246.684V245.52C155.546 245.508 155.45 245.508 155.342 245.508C154.502 245.532 153.842 245.94 153.518 246.672V245.544H152.45V252H153.542V248.616C153.542 247.2 154.046 246.636 155.054 246.636C155.234 246.636 155.438 246.66 155.666 246.684ZM162.37 248.796C162.37 246.456 160.774 245.436 159.274 245.436C157.774 245.436 156.178 246.456 156.178 248.796C156.178 251.136 157.774 252.156 159.274 252.156C160.774 252.156 162.37 251.136 162.37 248.796ZM159.274 251.196C158.29 251.196 157.342 250.512 157.342 248.796C157.342 247.032 158.29 246.396 159.274 246.396C160.258 246.396 161.206 247.08 161.206 248.796C161.206 250.452 160.258 251.196 159.274 251.196ZM164.769 243.3H163.677V252H164.769V251.028C165.165 251.712 165.849 252.156 166.881 252.156C168.357 252.156 169.641 250.932 169.641 248.796C169.641 246.672 168.357 245.436 166.881 245.436C165.849 245.436 165.165 245.88 164.769 246.564V243.3ZM166.605 251.22C165.633 251.22 164.721 250.5 164.721 248.796C164.721 247.092 165.633 246.372 166.605 246.372C167.721 246.372 168.453 247.26 168.453 248.796C168.453 250.332 167.721 251.22 166.605 251.22ZM171.976 243.3H170.884V244.62H171.976V243.3ZM171.976 245.544H170.884V252H171.976V245.544ZM173.324 250.296C173.324 251.484 174.332 252.156 175.544 252.156C176.684 252.156 177.356 251.772 177.752 251.112C177.764 251.496 177.8 251.76 177.836 252H178.94C178.82 251.388 178.76 250.644 178.772 249.564L178.784 248.076C178.796 246.264 177.992 245.412 176.216 245.412C174.956 245.412 173.732 246.192 173.624 247.584H174.752C174.8 246.792 175.328 246.3 176.228 246.3C177.032 246.3 177.692 246.696 177.692 247.872V248.028C175.04 248.328 173.324 248.772 173.324 250.296ZM177.776 248.892V249.3C177.776 250.824 176.804 251.292 175.784 251.292C175.004 251.292 174.536 250.884 174.536 250.272C174.536 249.384 175.796 249.096 177.776 248.892ZM181.503 252V243.3H180.411V252H181.503ZM53.08 262.684V261.52C52.96 261.508 52.864 261.508 52.756 261.508C51.916 261.532 51.256 261.94 50.932 262.672V261.544H49.864V268H50.956V264.616C50.956 263.2 51.46 262.636 52.468 262.636C52.648 262.636 52.852 262.66 53.08 262.684ZM54.7444 265.132H59.7124C59.8564 263.092 58.6684 261.436 56.7004 261.436C54.9364 261.436 53.5684 262.744 53.5684 264.784C53.5684 266.692 54.6964 268.156 56.7364 268.156C58.3084 268.156 59.3284 267.244 59.6284 266.128H58.5004C58.2244 266.764 57.6964 267.196 56.7364 267.196C55.7764 267.196 54.7924 266.524 54.7444 265.132ZM54.7564 264.196C54.8524 262.9 55.7284 262.372 56.7004 262.372C57.8524 262.372 58.5364 263.284 58.5604 264.196H54.7564ZM64.7045 263.428H65.8445C65.6405 262.204 64.6925 261.424 63.3005 261.424C61.8725 261.424 60.7205 262.084 60.7205 263.224C60.7205 264.424 61.6805 264.832 62.5565 265.012L63.5165 265.204C64.2125 265.348 64.8245 265.624 64.8245 266.272C64.8245 266.872 64.1525 267.232 63.3245 267.232C62.3645 267.232 61.8485 266.74 61.6805 265.912H60.5285C60.6485 267.04 61.6085 268.156 63.3005 268.156C64.7765 268.156 65.9285 267.424 65.9285 266.152C65.9285 264.904 64.8965 264.46 63.7205 264.232L62.8085 264.052C62.1845 263.932 61.8245 263.692 61.8245 263.176C61.8245 262.588 62.5445 262.36 63.1805 262.36C63.9365 262.36 64.5365 262.66 64.7045 263.428ZM68.4052 259.3H67.3132V260.62H68.4052V259.3ZM68.4052 261.544H67.3132V268H68.4052V261.544ZM73.8334 263.428H74.9734C74.7694 262.204 73.8214 261.424 72.4294 261.424C71.0014 261.424 69.8494 262.084 69.8494 263.224C69.8494 264.424 70.8094 264.832 71.6854 265.012L72.6454 265.204C73.3414 265.348 73.9534 265.624 73.9534 266.272C73.9534 266.872 73.2814 267.232 72.4534 267.232C71.4934 267.232 70.9774 266.74 70.8094 265.912H69.6574C69.7774 267.04 70.7374 268.156 72.4294 268.156C73.9054 268.156 75.0574 267.424 75.0574 266.152C75.0574 264.904 74.0254 264.46 72.8494 264.232L71.9374 264.052C71.3134 263.932 70.9534 263.692 70.9534 263.176C70.9534 262.588 71.6734 262.36 72.3094 262.36C73.0654 262.36 73.6654 262.66 73.8334 263.428ZM76.7541 259.924V261.544H75.7341V262.42H76.7541V266.38C76.7541 267.724 77.0421 268 78.2781 268H79.0701V267.088H78.5181C77.8941 267.088 77.8461 266.92 77.8461 266.248V262.42H79.0701V261.544H77.8461V259.924H76.7541ZM79.9605 266.296C79.9605 267.484 80.9685 268.156 82.1805 268.156C83.3205 268.156 83.9925 267.772 84.3885 267.112C84.4005 267.496 84.4365 267.76 84.4725 268H85.5765C85.4565 267.388 85.3965 266.644 85.4085 265.564L85.4205 264.076C85.4325 262.264 84.6285 261.412 82.8525 261.412C81.5925 261.412 80.3685 262.192 80.2605 263.584H81.3885C81.4365 262.792 81.9645 262.3 82.8645 262.3C83.6685 262.3 84.3285 262.696 84.3285 263.872V264.028C81.6765 264.328 79.9605 264.772 79.9605 266.296ZM84.4125 264.892V265.3C84.4125 266.824 83.4405 267.292 82.4205 267.292C81.6405 267.292 81.1725 266.884 81.1725 266.272C81.1725 265.384 82.4325 265.096 84.4125 264.892ZM88.1396 262.516V261.544H87.0476V268H88.1396V264.496C88.1396 263.116 88.7876 262.384 89.8436 262.384C91.0916 262.384 91.2596 263.248 91.2596 264.244V268H92.3516V263.92C92.3516 262.444 91.7876 261.436 90.2276 261.436C89.1356 261.436 88.5116 261.904 88.1396 262.516ZM94.2971 259.924V261.544H93.2771V262.42H94.2971V266.38C94.2971 267.724 94.5851 268 95.8211 268H96.6131V267.088H96.0611C95.4371 267.088 95.3891 266.92 95.3891 266.248V262.42H96.6131V261.544H95.3891V259.924H94.2971ZM101.827 259.3H100.735V268H101.827V267.028C102.223 267.712 102.907 268.156 103.939 268.156C105.415 268.156 106.699 266.932 106.699 264.796C106.699 262.672 105.415 261.436 103.939 261.436C102.907 261.436 102.223 261.88 101.827 262.564V259.3ZM103.663 267.22C102.691 267.22 101.779 266.5 101.779 264.796C101.779 263.092 102.691 262.372 103.663 262.372C104.779 262.372 105.511 263.26 105.511 264.796C105.511 266.332 104.779 267.22 103.663 267.22ZM107.558 266.296C107.558 267.484 108.566 268.156 109.778 268.156C110.918 268.156 111.59 267.772 111.986 267.112C111.998 267.496 112.034 267.76 112.07 268H113.174C113.054 267.388 112.994 266.644 113.006 265.564L113.018 264.076C113.03 262.264 112.226 261.412 110.45 261.412C109.19 261.412 107.966 262.192 107.858 263.584H108.986C109.034 262.792 109.562 262.3 110.462 262.3C111.266 262.3 111.926 262.696 111.926 263.872V264.028C109.274 264.328 107.558 264.772 107.558 266.296ZM112.01 264.892V265.3C112.01 266.824 111.038 267.292 110.018 267.292C109.238 267.292 108.77 266.884 108.77 266.272C108.77 265.384 110.03 265.096 112.01 264.892ZM120.021 263.704C119.877 262.612 118.881 261.436 117.321 261.436C115.413 261.436 114.201 262.864 114.201 264.784C114.201 266.752 115.365 268.156 117.213 268.156C118.713 268.156 119.877 267.112 120.093 265.9H118.965C118.809 266.584 118.161 267.196 117.249 267.196C116.289 267.196 115.389 266.416 115.389 264.772C115.389 263.152 116.277 262.396 117.249 262.396C118.089 262.396 118.761 262.936 118.917 263.704H120.021ZM121.637 259.924V261.544H120.617V262.42H121.637V266.38C121.637 267.724 121.925 268 123.161 268H123.953V267.088H123.401C122.777 267.088 122.729 266.92 122.729 266.248V262.42H123.953V261.544H122.729V259.924H121.637ZM125.901 265.132H130.869C131.013 263.092 129.825 261.436 127.857 261.436C126.093 261.436 124.725 262.744 124.725 264.784C124.725 266.692 125.853 268.156 127.893 268.156C129.465 268.156 130.485 267.244 130.785 266.128H129.657C129.381 266.764 128.853 267.196 127.893 267.196C126.933 267.196 125.949 266.524 125.901 265.132ZM125.913 264.196C126.009 262.9 126.885 262.372 127.857 262.372C129.009 262.372 129.693 263.284 129.717 264.196H125.913ZM135.357 262.684V261.52C135.237 261.508 135.141 261.508 135.033 261.508C134.193 261.532 133.533 261.94 133.209 262.672V261.544H132.141V268H133.233V264.616C133.233 263.2 133.737 262.636 134.745 262.636C134.925 262.636 135.129 262.66 135.357 262.684ZM137.499 259.3H136.407V260.62H137.499V259.3ZM137.499 261.544H136.407V268H137.499V261.544ZM138.847 266.296C138.847 267.484 139.855 268.156 141.067 268.156C142.207 268.156 142.879 267.772 143.275 267.112C143.287 267.496 143.323 267.76 143.359 268H144.463C144.343 267.388 144.283 266.644 144.295 265.564L144.307 264.076C144.319 262.264 143.515 261.412 141.739 261.412C140.479 261.412 139.255 262.192 139.147 263.584H140.275C140.323 262.792 140.851 262.3 141.751 262.3C142.555 262.3 143.215 262.696 143.215 263.872V264.028C140.563 264.328 138.847 264.772 138.847 266.296ZM143.299 264.892V265.3C143.299 266.824 142.327 267.292 141.307 267.292C140.527 267.292 140.059 266.884 140.059 266.272C140.059 265.384 141.319 265.096 143.299 264.892ZM149.874 259.3H148.782V260.62H149.874V259.3ZM149.874 261.544H148.782V268H149.874V261.544ZM156.034 259.3V262.564C155.638 261.88 154.954 261.436 153.922 261.436C152.446 261.436 151.162 262.672 151.162 264.796C151.162 266.932 152.446 268.156 153.922 268.156C154.954 268.156 155.638 267.712 156.034 267.028V268H157.126V259.3H156.034ZM154.198 262.372C155.17 262.372 156.082 263.092 156.082 264.796C156.082 266.5 155.17 267.22 154.198 267.22C153.082 267.22 152.35 266.332 152.35 264.796C152.35 263.26 153.082 262.372 154.198 262.372ZM159.58 265.132H164.548C164.692 263.092 163.504 261.436 161.536 261.436C159.772 261.436 158.404 262.744 158.404 264.784C158.404 266.692 159.532 268.156 161.572 268.156C163.144 268.156 164.164 267.244 164.464 266.128H163.336C163.06 266.764 162.532 267.196 161.572 267.196C160.612 267.196 159.628 266.524 159.58 265.132ZM159.592 264.196C159.688 262.9 160.564 262.372 161.536 262.372C162.688 262.372 163.372 263.284 163.396 264.196H159.592ZM166.913 262.516V261.544H165.821V268H166.913V264.496C166.913 263.116 167.561 262.384 168.617 262.384C169.865 262.384 170.033 263.248 170.033 264.244V268H171.125V263.92C171.125 262.444 170.561 261.436 169.001 261.436C167.909 261.436 167.285 261.904 166.913 262.516ZM173.071 259.924V261.544H172.051V262.42H173.071V266.38C173.071 267.724 173.359 268 174.595 268H175.387V267.088H174.835C174.211 267.088 174.163 266.92 174.163 266.248V262.42H175.387V261.544H174.163V259.924H173.071ZM177.87 259.3H176.778V260.62H177.87V259.3ZM177.87 261.544H176.778V268H177.87V261.544ZM179.878 261.076V261.544H178.978V262.42H179.878V268H180.97V262.42H182.182V261.544H180.97V261.016C180.97 260.344 181.066 260.212 181.642 260.212H182.182V259.3H181.618C180.154 259.3 179.878 259.732 179.878 261.076ZM184.456 259.3H183.364V260.62H184.456V259.3ZM184.456 261.544H183.364V268H184.456V261.544ZM186.92 265.132H191.888C192.032 263.092 190.844 261.436 188.876 261.436C187.112 261.436 185.744 262.744 185.744 264.784C185.744 266.692 186.872 268.156 188.912 268.156C190.484 268.156 191.504 267.244 191.804 266.128H190.676C190.4 266.764 189.872 267.196 188.912 267.196C187.952 267.196 186.968 266.524 186.92 265.132ZM186.932 264.196C187.028 262.9 187.904 262.372 188.876 262.372C190.028 262.372 190.712 263.284 190.736 264.196H186.932ZM197.647 259.3V262.564C197.251 261.88 196.567 261.436 195.535 261.436C194.059 261.436 192.775 262.672 192.775 264.796C192.775 266.932 194.059 268.156 195.535 268.156C196.567 268.156 197.251 267.712 197.647 267.028V268H198.739V259.3H197.647ZM195.811 262.372C196.783 262.372 197.695 263.092 197.695 264.796C197.695 266.5 196.783 267.22 195.811 267.22C194.695 267.22 193.963 266.332 193.963 264.796C193.963 263.26 194.695 262.372 195.811 262.372Z" fill="black"/>
<path d="M14.5 260.5C7.30409 260.5 1.5 254.884 1.5 248C1.5 241.116 7.30409 235.5 14.5 235.5C21.6959 235.5 27.5 241.116 27.5 248C27.5 254.884 21.6959 260.5 14.5 260.5Z" fill="#DA291C" stroke="#00EAE6"/>
<path d="M83.5 163.5C37.648 163.5 0.5 127.006 0.5 82C0.5 36.9936 37.648 0.5 83.5 0.5C129.352 0.5 166.5 36.9936 166.5 82C166.5 127.006 129.352 163.5 83.5 163.5Z" stroke="#ABABAB"/>
<path d="M83.5 163.5C37.648 163.5 0.5 127.006 0.5 82C0.5 36.9936 37.648 0.5 83.5 0.5C129.352 0.5 166.5 36.9936 166.5 82C166.5 127.006 129.352 163.5 83.5 163.5Z" stroke="#ABABAB"/>
</svg>
