<svg viewBox="0 0 145 144" fill="none" xmlns="http://www.w3.org/2000/svg">
<circle cx="73" cy="72" r="71" stroke="#ABABAB" stroke-linejoin="round"/>
<circle r="7.5" transform="matrix(-1 0 0 1 81.5 30.5)" fill="#DA291C"/>
<circle r="7.5" transform="matrix(-1 0 0 1 124.5 65.5)" fill="#DA291C"/>
<circle r="7.5" transform="matrix(-1 0 0 1 109.5 111.5)" fill="#DA291C"/>
<circle r="7.5" transform="matrix(-1 0 0 1 29.5 102.5)" fill="#DA291C"/>
<circle r="12.5" transform="matrix(-1 0 0 1 40.5 39.5)" fill="#DA291C"/>
<circle r="12.5" transform="matrix(-1 0 0 1 83.5 79.5)" fill="#DA291C"/>
<circle r="12.5" transform="matrix(-1 0 0 1 63.5 111.5)" fill="#DA291C"/>
<circle r="3" transform="matrix(-1 0 0 1 22 61)" fill="#DA291C"/>
<circle r="3" transform="matrix(-1 0 0 1 107 49)" fill="#DA291C"/>
</svg>
