<svg viewBox="0 0 1105 766" fill="none" xmlns="http://www.w3.org/2000/svg">
<path d="M1085 2H1073C1067.48 2 1063 6.47715 1063 12V73C1063 78.5229 1067.48 83 1073 83H1085C1090.52 83 1095 78.5229 1095 73V12C1095 6.47715 1090.52 2 1085 2Z" fill="#E0DFDF" stroke="#DA291C" stroke-miterlimit="10"/>
<path d="M1040 2H571C562.716 2 556 8.71573 556 17V68C556 76.2843 562.716 83 571 83H1040C1048.28 83 1055 76.2843 1055 68V17C1055 8.71573 1048.28 2 1040 2Z" fill="#E0DFDF" stroke="#DA291C" stroke-miterlimit="10"/>
<path d="M1080 89H571C562.716 89 556 95.7157 556 104V745C556 753.284 562.716 760 571 760H1080C1088.28 760 1095 753.284 1095 745V104C1095 95.7157 1088.28 89 1080 89Z" fill="#00EAE6" stroke="#DA291C" stroke-miterlimit="10"/>
<path d="M536 2H409C403.477 2 399 6.47715 399 12V22C399 27.5228 403.477 32 409 32H536C541.523 32 546 27.5228 546 22V12C546 6.47715 541.523 2 536 2Z" fill="#E0DFDF" stroke="#DA291C" stroke-miterlimit="10"/>
<path d="M536 729H409C403.477 729 399 733.477 399 739V750C399 755.523 403.477 760 409 760H536C541.523 760 546 755.523 546 750V739C546 733.477 541.523 729 536 729Z" fill="#E0DFDF" stroke="#DA291C" stroke-miterlimit="10"/>
<path d="M531 396H414C405.716 396 399 402.716 399 411V711C399 719.284 405.716 726 414 726H531C539.284 726 546 719.284 546 711V411C546 402.716 539.284 396 531 396Z" fill="#E0DFDF" stroke="#DA291C" stroke-miterlimit="10"/>
<path d="M531 35H414C405.716 35 399 41.7157 399 50V377C399 385.284 405.716 392 414 392H531C539.284 392 546 385.284 546 377V50C546 41.7157 539.284 35 531 35Z" fill="#E0DFDF" stroke="#DA291C" stroke-miterlimit="10"/>
<path d="M374 2H17C8.71573 2 2 8.71575 2 17V744C2 752.284 8.71574 759 17 759H374C382.284 759 389 752.284 389 744V17C389 8.71573 382.284 2 374 2Z" fill="#E0DFDF" stroke="#DA291C" stroke-miterlimit="10"/>
<path d="M571.7 101.75L569 109H570.46L570.97 107.53H573.79L574.3 109H575.85L573.14 101.75H571.7ZM571.38 106.36L572.38 103.5L573.38 106.36H571.38ZM577.846 104.33V103.62H576.466V109H577.846V106.2C577.846 105.35 578.046 104.61 578.956 104.61C579.736 104.61 579.886 105.21 579.886 105.91V109H581.266V105.61C581.266 104.29 580.696 103.5 579.406 103.5C578.746 103.5 578.156 103.79 577.846 104.33ZM582.613 102.16V103.62H581.853V104.57H582.613V107.55C582.613 108.62 582.853 109 584.083 109H585.093V108.01H584.673C584.183 108.01 583.993 107.9 583.993 107.35V104.57H585.113V103.62H583.993V102.16H582.613ZM587.377 101.75H585.997V103.03H587.377V101.75ZM587.377 103.62H585.997V109H587.377V103.62ZM594.374 104.61C595.184 104.61 595.234 105.28 595.234 105.87V109H596.614V105.61C596.614 104.34 596.144 103.5 594.794 103.5C593.984 103.5 593.444 103.78 593.024 104.38C592.814 103.99 592.414 103.5 591.494 103.5C590.844 103.5 590.294 103.8 589.994 104.33V103.62H588.614V109H589.994V106.2C589.994 105.38 590.144 104.61 591.064 104.61C591.874 104.61 591.924 105.28 591.924 105.87V109H593.304V106.2C593.304 105.38 593.454 104.61 594.374 104.61ZM599.154 101.75H597.774V103.03H599.154V101.75ZM599.154 103.62H597.774V109H599.154V103.62ZM605.181 105.46C605.001 104.12 603.861 103.5 602.741 103.5C601.131 103.5 600.041 104.68 600.041 106.32C600.041 107.94 601.071 109.13 602.681 109.13C603.791 109.13 604.911 108.64 605.231 107.17H603.911C603.731 107.82 603.221 108.06 602.751 108.06C601.991 108.06 601.451 107.43 601.451 106.3C601.451 105.18 602.021 104.57 602.741 104.57C603.261 104.57 603.761 104.95 603.861 105.46H605.181ZM609.136 104.95V103.65C609.046 103.64 608.926 103.63 608.836 103.63C608.216 103.63 607.726 103.9 607.416 104.56V103.62H606.056V109H607.436V106.18C607.436 105.17 607.886 104.92 608.566 104.92C608.766 104.92 608.936 104.93 609.136 104.95ZM609.485 106.32C609.485 108.21 610.825 109.13 612.185 109.13C613.545 109.13 614.885 108.21 614.885 106.32C614.885 104.43 613.545 103.5 612.185 103.5C610.825 103.5 609.485 104.43 609.485 106.32ZM610.885 106.32C610.885 105.19 611.425 104.58 612.185 104.58C612.945 104.58 613.485 105.19 613.485 106.32C613.485 107.44 612.945 108.05 612.185 108.05C611.425 108.05 610.885 107.44 610.885 106.32ZM615.763 109H617.143V108.32C617.483 108.91 618.133 109.13 618.693 109.13C619.973 109.13 621.033 108.03 621.033 106.31C621.033 104.62 619.993 103.5 618.693 103.5C618.013 103.5 617.433 103.81 617.143 104.31V101.75H615.763V109ZM619.583 106.32C619.583 107.37 619.063 108.07 618.353 108.07C617.593 108.07 617.093 107.41 617.093 106.31C617.093 105.23 617.593 104.56 618.353 104.56C619.063 104.56 619.583 105.27 619.583 106.32ZM623.305 101.75H621.925V103.03H623.305V101.75ZM623.305 103.62H621.925V109H623.305V103.62ZM626.262 109.13C627.072 109.13 627.642 108.89 628.022 108.33C628.042 108.59 628.072 108.83 628.112 109H629.382C629.282 108.55 629.222 108.07 629.222 107.22C629.222 106.73 629.242 106.02 629.242 105.85C629.242 104.03 628.202 103.48 626.922 103.48C625.542 103.48 624.662 104.26 624.562 105.32H625.852C625.882 104.73 626.322 104.45 626.852 104.45C627.412 104.45 627.862 104.74 627.862 105.57V105.66C625.752 105.9 624.322 106.28 624.322 107.55C624.322 108.53 625.232 109.13 626.262 109.13ZM627.902 106.54V106.94C627.902 107.72 627.532 108.19 626.672 108.19C626.052 108.19 625.742 107.87 625.742 107.48C625.742 106.88 626.362 106.7 627.902 106.54ZM631.771 109V101.75H630.391V109H631.771ZM638.245 106.16L639.685 109H641.275L639.665 105.86C640.565 105.48 640.975 104.78 640.975 103.95C640.975 102.43 640.065 101.75 637.675 101.75H635.295V109H636.725V106.16H638.245ZM636.725 102.87H637.835C638.805 102.87 639.505 103.12 639.505 103.96C639.505 104.67 639.015 105.05 637.905 105.05H636.725V102.87ZM642.945 106.69H646.915C646.975 104.79 645.935 103.5 644.275 103.5C642.685 103.5 641.575 104.69 641.575 106.29C641.575 107.84 642.585 109.13 644.315 109.13C645.775 109.13 646.565 108.24 646.855 107.44H645.435C645.155 107.91 644.725 108.06 644.305 108.06C643.655 108.06 643.015 107.61 642.945 106.69ZM642.965 105.74C643.075 104.84 643.745 104.51 644.265 104.51C644.845 104.51 645.485 104.83 645.515 105.74H642.965ZM650.882 105.24H652.172C651.992 104 650.922 103.48 649.802 103.48C648.642 103.48 647.602 104.11 647.602 105.08C647.602 106.06 648.272 106.48 649.282 106.69L650.082 106.86C650.542 106.96 650.962 107.12 650.962 107.52C650.962 107.91 650.582 108.13 649.992 108.13C649.282 108.13 648.912 107.74 648.832 107.22H647.502C647.632 108.45 648.632 109.13 649.952 109.13C651.172 109.13 652.282 108.47 652.282 107.39C652.282 106.28 651.372 106.01 650.302 105.77L649.582 105.61C649.072 105.5 648.862 105.28 648.862 104.99C648.862 104.66 649.222 104.47 649.732 104.47C650.362 104.47 650.782 104.79 650.882 105.24ZM654.525 101.75H653.145V103.03H654.525V101.75ZM654.525 103.62H653.145V109H654.525V103.62ZM658.793 105.24H660.083C659.903 104 658.833 103.48 657.713 103.48C656.553 103.48 655.513 104.11 655.513 105.08C655.513 106.06 656.183 106.48 657.193 106.69L657.993 106.86C658.453 106.96 658.873 107.12 658.873 107.52C658.873 107.91 658.493 108.13 657.903 108.13C657.193 108.13 656.823 107.74 656.743 107.22H655.413C655.543 108.45 656.543 109.13 657.863 109.13C659.083 109.13 660.193 108.47 660.193 107.39C660.193 106.28 659.283 106.01 658.213 105.77L657.493 105.61C656.983 105.5 656.773 105.28 656.773 104.99C656.773 104.66 657.133 104.47 657.643 104.47C658.273 104.47 658.693 104.79 658.793 105.24ZM661.314 102.16V103.62H660.554V104.57H661.314V107.55C661.314 108.62 661.554 109 662.784 109H663.794V108.01H663.374C662.884 108.01 662.694 107.9 662.694 107.35V104.57H663.814V103.62H662.694V102.16H661.314ZM666.418 109.13C667.228 109.13 667.798 108.89 668.178 108.33C668.198 108.59 668.228 108.83 668.268 109H669.538C669.438 108.55 669.378 108.07 669.378 107.22C669.378 106.73 669.398 106.02 669.398 105.85C669.398 104.03 668.358 103.48 667.078 103.48C665.698 103.48 664.818 104.26 664.718 105.32H666.008C666.038 104.73 666.478 104.45 667.008 104.45C667.568 104.45 668.018 104.74 668.018 105.57V105.66C665.908 105.9 664.478 106.28 664.478 107.55C664.478 108.53 665.388 109.13 666.418 109.13ZM668.058 106.54V106.94C668.058 107.72 667.688 108.19 666.828 108.19C666.208 108.19 665.898 107.87 665.898 107.48C665.898 106.88 666.518 106.7 668.058 106.54ZM671.928 104.33V103.62H670.548V109H671.928V106.2C671.928 105.35 672.128 104.61 673.038 104.61C673.818 104.61 673.968 105.21 673.968 105.91V109H675.348V105.61C675.348 104.29 674.778 103.5 673.488 103.5C672.828 103.5 672.238 103.79 671.928 104.33ZM681.295 105.46C681.115 104.12 679.975 103.5 678.855 103.5C677.245 103.5 676.155 104.68 676.155 106.32C676.155 107.94 677.185 109.13 678.795 109.13C679.905 109.13 681.025 108.64 681.345 107.17H680.025C679.845 107.82 679.335 108.06 678.865 108.06C678.105 108.06 677.565 107.43 677.565 106.3C677.565 105.18 678.135 104.57 678.855 104.57C679.375 104.57 679.875 104.95 679.975 105.46H681.295ZM683.238 106.69H687.208C687.268 104.79 686.228 103.5 684.568 103.5C682.978 103.5 681.868 104.69 681.868 106.29C681.868 107.84 682.878 109.13 684.608 109.13C686.068 109.13 686.858 108.24 687.148 107.44H685.728C685.448 107.91 685.018 108.06 684.598 108.06C683.948 108.06 683.308 107.61 683.238 106.69ZM683.258 105.74C683.368 104.84 684.038 104.51 684.558 104.51C685.138 104.51 685.778 104.83 685.808 105.74H683.258Z" fill="black"/>
<path d="M570.8 126H571.71V118.75H571.09C570.69 119.54 570.16 119.67 569.12 119.71V120.33H570.8V126ZM575.982 126.13C577.912 126.13 578.802 124.67 578.802 122.37C578.802 120.08 577.912 118.62 575.982 118.62C574.052 118.62 573.162 120.08 573.162 122.37C573.162 124.67 574.052 126.13 575.982 126.13ZM575.982 119.38C577.122 119.38 577.832 120.36 577.832 122.37C577.832 124.39 577.122 125.37 575.982 125.37C574.842 125.37 574.132 124.39 574.132 122.37C574.132 120.36 574.842 119.38 575.982 119.38ZM579.943 118.75V119.9H580.433L579.903 121.29H580.483L581.093 119.98V118.75H579.943ZM585.044 126.13C586.974 126.13 587.864 124.67 587.864 122.37C587.864 120.08 586.974 118.62 585.044 118.62C583.114 118.62 582.224 120.08 582.224 122.37C582.224 124.67 583.114 126.13 585.044 126.13ZM585.044 119.38C586.184 119.38 586.894 120.36 586.894 122.37C586.894 124.39 586.184 125.37 585.044 125.37C583.904 125.37 583.194 124.39 583.194 122.37C583.194 120.36 583.904 119.38 585.044 119.38ZM591.655 126.13C593.585 126.13 594.475 124.67 594.475 122.37C594.475 120.08 593.585 118.62 591.655 118.62C589.725 118.62 588.835 120.08 588.835 122.37C588.835 124.67 589.725 126.13 591.655 126.13ZM591.655 119.38C592.795 119.38 593.505 120.36 593.505 122.37C593.505 124.39 592.795 125.37 591.655 125.37C590.515 125.37 589.805 124.39 589.805 122.37C589.805 120.36 590.515 119.38 591.655 119.38ZM596.767 126H597.677V118.75H597.057C596.657 119.54 596.127 119.67 595.087 119.71V120.33H596.767V126ZM599.298 118.75V119.9H599.788L599.258 121.29H599.838L600.448 119.98V118.75H599.298ZM604.4 126.13C606.33 126.13 607.22 124.67 607.22 122.37C607.22 120.08 606.33 118.62 604.4 118.62C602.47 118.62 601.58 120.08 601.58 122.37C601.58 124.67 602.47 126.13 604.4 126.13ZM604.4 119.38C605.54 119.38 606.25 120.36 606.25 122.37C606.25 124.39 605.54 125.37 604.4 125.37C603.26 125.37 602.55 124.39 602.55 122.37C602.55 120.36 603.26 119.38 604.4 119.38ZM611.011 126.13C612.941 126.13 613.831 124.67 613.831 122.37C613.831 120.08 612.941 118.62 611.011 118.62C609.081 118.62 608.191 120.08 608.191 122.37C608.191 124.67 609.081 126.13 611.011 126.13ZM611.011 119.38C612.151 119.38 612.861 120.36 612.861 122.37C612.861 124.39 612.151 125.37 611.011 125.37C609.871 125.37 609.161 124.39 609.161 122.37C609.161 120.36 609.871 119.38 611.011 119.38ZM617.622 126.13C619.552 126.13 620.442 124.67 620.442 122.37C620.442 120.08 619.552 118.62 617.622 118.62C615.692 118.62 614.802 120.08 614.802 122.37C614.802 124.67 615.692 126.13 617.622 126.13ZM617.622 119.38C618.762 119.38 619.472 120.36 619.472 122.37C619.472 124.39 618.762 125.37 617.622 125.37C616.482 125.37 615.772 124.39 615.772 122.37C615.772 120.36 616.482 119.38 617.622 119.38Z" fill="black"/>
<path d="M571.8 36H572.71V28.75H572.09C571.69 29.54 571.16 29.67 570.12 29.71V30.33H571.8V36ZM574.332 28.75V29.9H574.822L574.292 31.29H574.872L575.482 29.98V28.75H574.332ZM581.453 30.52C581.453 29.3 580.493 28.62 579.153 28.62C577.613 28.62 576.613 29.57 576.633 31.01H577.573C577.593 29.81 578.353 29.38 579.133 29.38C579.993 29.38 580.493 29.89 580.493 30.64C580.493 31.92 578.993 33.29 576.433 35.18V36H581.653V35.15H577.673C579.703 33.69 581.453 32.2 581.453 30.52ZM585.331 36.13C587.261 36.13 588.151 34.67 588.151 32.37C588.151 30.08 587.261 28.62 585.331 28.62C583.401 28.62 582.511 30.08 582.511 32.37C582.511 34.67 583.401 36.13 585.331 36.13ZM585.331 29.38C586.471 29.38 587.181 30.36 587.181 32.37C587.181 34.39 586.471 35.37 585.331 35.37C584.191 35.37 583.481 34.39 583.481 32.37C583.481 30.36 584.191 29.38 585.331 29.38ZM591.943 36.13C593.873 36.13 594.763 34.67 594.763 32.37C594.763 30.08 593.873 28.62 591.943 28.62C590.013 28.62 589.123 30.08 589.123 32.37C589.123 34.67 590.013 36.13 591.943 36.13ZM591.943 29.38C593.083 29.38 593.793 30.36 593.793 32.37C593.793 34.39 593.083 35.37 591.943 35.37C590.803 35.37 590.093 34.39 590.093 32.37C590.093 30.36 590.803 29.38 591.943 29.38ZM595.904 28.75V29.9H596.394L595.864 31.29H596.444L597.054 29.98V28.75H595.904ZM601.005 36.13C602.935 36.13 603.825 34.67 603.825 32.37C603.825 30.08 602.935 28.62 601.005 28.62C599.075 28.62 598.185 30.08 598.185 32.37C598.185 34.67 599.075 36.13 601.005 36.13ZM601.005 29.38C602.145 29.38 602.855 30.36 602.855 32.37C602.855 34.39 602.145 35.37 601.005 35.37C599.865 35.37 599.155 34.39 599.155 32.37C599.155 30.36 599.865 29.38 601.005 29.38ZM607.616 36.13C609.546 36.13 610.436 34.67 610.436 32.37C610.436 30.08 609.546 28.62 607.616 28.62C605.686 28.62 604.796 30.08 604.796 32.37C604.796 34.67 605.686 36.13 607.616 36.13ZM607.616 29.38C608.756 29.38 609.466 30.36 609.466 32.37C609.466 34.39 608.756 35.37 607.616 35.37C606.476 35.37 605.766 34.39 605.766 32.37C605.766 30.36 606.476 29.38 607.616 29.38ZM614.228 36.13C616.158 36.13 617.048 34.67 617.048 32.37C617.048 30.08 616.158 28.62 614.228 28.62C612.298 28.62 611.408 30.08 611.408 32.37C611.408 34.67 612.298 36.13 614.228 36.13ZM614.228 29.38C615.368 29.38 616.078 30.36 616.078 32.37C616.078 34.39 615.368 35.37 614.228 35.37C613.088 35.37 612.378 34.39 612.378 32.37C612.378 30.36 613.088 29.38 614.228 29.38Z" fill="black"/>
<path d="M419.93 16.62H418.57C418.34 17.6 417.63 17.99 416.77 17.99C415.72 17.99 414.88 17.07 414.88 15.34C414.88 13.66 415.72 12.76 416.82 12.76C417.62 12.76 418.3 13.09 418.57 14.1H419.93C419.69 12.59 418.53 11.62 416.83 11.62C414.72 11.62 413.4 13.05 413.4 15.34C413.4 17.65 414.64 19.13 416.79 19.13C418.53 19.13 419.74 18.08 419.93 16.62ZM422.188 14.33V11.75H420.808V19H422.188V16.2C422.188 15.35 422.388 14.61 423.298 14.61C424.078 14.61 424.228 15.21 424.228 15.91V19H425.608V15.61C425.608 14.29 425.038 13.5 423.748 13.5C423.088 13.5 422.498 13.79 422.188 14.33ZM426.405 16.32C426.405 18.21 427.745 19.13 429.105 19.13C430.465 19.13 431.805 18.21 431.805 16.32C431.805 14.43 430.465 13.5 429.105 13.5C427.745 13.5 426.405 14.43 426.405 16.32ZM427.805 16.32C427.805 15.19 428.345 14.58 429.105 14.58C429.865 14.58 430.405 15.19 430.405 16.32C430.405 17.44 429.865 18.05 429.105 18.05C428.345 18.05 427.805 17.44 427.805 16.32ZM434.063 19V11.75H432.683V19H434.063ZM436.32 16.69H440.29C440.35 14.79 439.31 13.5 437.65 13.5C436.06 13.5 434.95 14.69 434.95 16.29C434.95 17.84 435.96 19.13 437.69 19.13C439.15 19.13 439.94 18.24 440.23 17.44H438.81C438.53 17.91 438.1 18.06 437.68 18.06C437.03 18.06 436.39 17.61 436.32 16.69ZM436.34 15.74C436.45 14.84 437.12 14.51 437.64 14.51C438.22 14.51 438.86 14.83 438.89 15.74H436.34ZM444.259 14.95V13.65C444.169 13.64 444.049 13.63 443.959 13.63C443.339 13.63 442.849 13.9 442.539 14.56V13.62H441.179V19H442.559V16.18C442.559 15.17 443.009 14.92 443.689 14.92C443.889 14.92 444.059 14.93 444.259 14.95ZM446.492 19.13C447.302 19.13 447.872 18.89 448.252 18.33C448.272 18.59 448.302 18.83 448.342 19H449.612C449.512 18.55 449.452 18.07 449.452 17.22C449.452 16.73 449.472 16.02 449.472 15.85C449.472 14.03 448.432 13.48 447.152 13.48C445.772 13.48 444.892 14.26 444.792 15.32H446.082C446.112 14.73 446.552 14.45 447.082 14.45C447.642 14.45 448.092 14.74 448.092 15.57V15.66C445.982 15.9 444.552 16.28 444.552 17.55C444.552 18.53 445.462 19.13 446.492 19.13ZM448.132 16.54V16.94C448.132 17.72 447.762 18.19 446.902 18.19C446.282 18.19 445.972 17.87 445.972 17.48C445.972 16.88 446.592 16.7 448.132 16.54Z" fill="black"/>
<path d="M573.6 16.16L575.04 19H576.63L575.02 15.86C575.92 15.48 576.33 14.78 576.33 13.95C576.33 12.43 575.42 11.75 573.03 11.75H570.65V19H572.08V16.16H573.6ZM572.08 12.87H573.19C574.16 12.87 574.86 13.12 574.86 13.96C574.86 14.67 574.37 15.05 573.26 15.05H572.08V12.87ZM576.92 16.32C576.92 18.21 578.26 19.13 579.62 19.13C580.98 19.13 582.32 18.21 582.32 16.32C582.32 14.43 580.98 13.5 579.62 13.5C578.26 13.5 576.92 14.43 576.92 16.32ZM578.32 16.32C578.32 15.19 578.86 14.58 579.62 14.58C580.38 14.58 580.92 15.19 580.92 16.32C580.92 17.44 580.38 18.05 579.62 18.05C578.86 18.05 578.32 17.44 578.32 16.32ZM584.869 19.13C585.679 19.13 586.249 18.89 586.629 18.33C586.649 18.59 586.679 18.83 586.719 19H587.989C587.889 18.55 587.829 18.07 587.829 17.22C587.829 16.73 587.849 16.02 587.849 15.85C587.849 14.03 586.809 13.48 585.529 13.48C584.149 13.48 583.269 14.26 583.169 15.32H584.459C584.489 14.73 584.929 14.45 585.459 14.45C586.019 14.45 586.469 14.74 586.469 15.57V15.66C584.359 15.9 582.929 16.28 582.929 17.55C582.929 18.53 583.839 19.13 584.869 19.13ZM586.509 16.54V16.94C586.509 17.72 586.139 18.19 585.279 18.19C584.659 18.19 584.349 17.87 584.349 17.48C584.349 16.88 584.969 16.7 586.509 16.54ZM592.539 19H593.919V11.75H592.539V14.31C592.249 13.81 591.669 13.5 590.989 13.5C589.689 13.5 588.649 14.62 588.649 16.31C588.649 18.03 589.709 19.13 590.989 19.13C591.549 19.13 592.199 18.91 592.539 18.32V19ZM592.589 16.31C592.589 17.41 592.089 18.07 591.329 18.07C590.619 18.07 590.099 17.37 590.099 16.32C590.099 15.27 590.619 14.56 591.329 14.56C592.089 14.56 592.589 15.23 592.589 16.31ZM599.077 12.91V19H600.507V12.91H602.747V11.75H596.847V12.91H599.077ZM605.741 14.95V13.65C605.651 13.64 605.531 13.63 605.441 13.63C604.821 13.63 604.331 13.9 604.021 14.56V13.62H602.661V19H604.041V16.18C604.041 15.17 604.491 14.92 605.171 14.92C605.371 14.92 605.541 14.93 605.741 14.95ZM607.975 19.13C608.785 19.13 609.355 18.89 609.735 18.33C609.755 18.59 609.785 18.83 609.825 19H611.095C610.995 18.55 610.935 18.07 610.935 17.22C610.935 16.73 610.955 16.02 610.955 15.85C610.955 14.03 609.915 13.48 608.635 13.48C607.255 13.48 606.375 14.26 606.275 15.32H607.565C607.595 14.73 608.035 14.45 608.565 14.45C609.125 14.45 609.575 14.74 609.575 15.57V15.66C607.465 15.9 606.035 16.28 606.035 17.55C606.035 18.53 606.945 19.13 607.975 19.13ZM609.615 16.54V16.94C609.615 17.72 609.245 18.19 608.385 18.19C607.765 18.19 607.455 17.87 607.455 17.48C607.455 16.88 608.075 16.7 609.615 16.54ZM612.234 13.32V13.62H611.474V14.57H612.234V19H613.614V14.57H614.694V13.62H613.614V13.36C613.614 12.85 613.744 12.77 614.424 12.77H614.694V11.75H614.224C612.874 11.75 612.234 11.96 612.234 13.32ZM615.525 13.32V13.62H614.765V14.57H615.525V19H616.905V14.57H617.985V13.62H616.905V13.36C616.905 12.85 617.035 12.77 617.715 12.77H617.985V11.75H617.515C616.165 11.75 615.525 11.96 615.525 13.32ZM620.066 11.75H618.686V13.03H620.066V11.75ZM620.066 13.62H618.686V19H620.066V13.62ZM626.094 15.46C625.914 14.12 624.774 13.5 623.654 13.5C622.044 13.5 620.954 14.68 620.954 16.32C620.954 17.94 621.984 19.13 623.594 19.13C624.704 19.13 625.824 18.64 626.144 17.17H624.824C624.644 17.82 624.134 18.06 623.664 18.06C622.904 18.06 622.364 17.43 622.364 16.3C622.364 15.18 622.934 14.57 623.654 14.57C624.174 14.57 624.674 14.95 624.774 15.46H626.094ZM631.304 11.75L628.604 19H630.064L630.574 17.53H633.394L633.904 19H635.454L632.744 11.75H631.304ZM630.984 16.36L631.984 13.5L632.984 16.36H630.984ZM640.859 15.46C640.679 14.12 639.539 13.5 638.419 13.5C636.809 13.5 635.719 14.68 635.719 16.32C635.719 17.94 636.749 19.13 638.359 19.13C639.469 19.13 640.589 18.64 640.909 17.17H639.589C639.409 17.82 638.899 18.06 638.429 18.06C637.669 18.06 637.129 17.43 637.129 16.3C637.129 15.18 637.699 14.57 638.419 14.57C638.939 14.57 639.439 14.95 639.539 15.46H640.859ZM646.572 15.46C646.392 14.12 645.252 13.5 644.132 13.5C642.522 13.5 641.432 14.68 641.432 16.32C641.432 17.94 642.462 19.13 644.072 19.13C645.182 19.13 646.302 18.64 646.622 17.17H645.302C645.122 17.82 644.612 18.06 644.142 18.06C643.382 18.06 642.842 17.43 642.842 16.3C642.842 15.18 643.412 14.57 644.132 14.57C644.652 14.57 645.152 14.95 645.252 15.46H646.572ZM648.826 11.75H647.446V13.03H648.826V11.75ZM648.826 13.62H647.446V19H648.826V13.62ZM653.603 19H654.983V11.75H653.603V14.31C653.313 13.81 652.733 13.5 652.053 13.5C650.753 13.5 649.713 14.62 649.713 16.31C649.713 18.03 650.773 19.13 652.053 19.13C652.613 19.13 653.263 18.91 653.603 18.32V19ZM653.653 16.31C653.653 17.41 653.153 18.07 652.393 18.07C651.683 18.07 651.163 17.37 651.163 16.32C651.163 15.27 651.683 14.56 652.393 14.56C653.153 14.56 653.653 15.23 653.653 16.31ZM657.245 16.69H661.215C661.275 14.79 660.235 13.5 658.575 13.5C656.985 13.5 655.875 14.69 655.875 16.29C655.875 17.84 656.885 19.13 658.615 19.13C660.075 19.13 660.865 18.24 661.155 17.44H659.735C659.455 17.91 659.025 18.06 658.605 18.06C657.955 18.06 657.315 17.61 657.245 16.69ZM657.265 15.74C657.375 14.84 658.045 14.51 658.565 14.51C659.145 14.51 659.785 14.83 659.815 15.74H657.265ZM663.484 14.33V13.62H662.104V19H663.484V16.2C663.484 15.35 663.684 14.61 664.594 14.61C665.374 14.61 665.524 15.21 665.524 15.91V19H666.904V15.61C666.904 14.29 666.334 13.5 665.044 13.5C664.384 13.5 663.794 13.79 663.484 14.33ZM668.251 12.16V13.62H667.491V14.57H668.251V17.55C668.251 18.62 668.491 19 669.721 19H670.731V18.01H670.311C669.821 18.01 669.631 17.9 669.631 17.35V14.57H670.751V13.62H669.631V12.16H668.251ZM674.666 15.24H675.956C675.776 14 674.706 13.48 673.586 13.48C672.426 13.48 671.386 14.11 671.386 15.08C671.386 16.06 672.056 16.48 673.066 16.69L673.866 16.86C674.326 16.96 674.746 17.12 674.746 17.52C674.746 17.91 674.366 18.13 673.776 18.13C673.066 18.13 672.696 17.74 672.616 17.22H671.286C671.416 18.45 672.416 19.13 673.736 19.13C674.956 19.13 676.066 18.47 676.066 17.39C676.066 16.28 675.156 16.01 674.086 15.77L673.366 15.61C672.856 15.5 672.646 15.28 672.646 14.99C672.646 14.66 673.006 14.47 673.516 14.47C674.146 14.47 674.566 14.79 674.666 15.24Z" fill="black"/>
<path d="M457.8 19H458.71V11.75H458.09C457.69 12.54 457.16 12.67 456.12 12.71V13.33H457.8V19ZM465.002 13.52C465.002 12.3 464.042 11.62 462.702 11.62C461.162 11.62 460.162 12.57 460.182 14.01H461.122C461.142 12.81 461.902 12.38 462.682 12.38C463.542 12.38 464.042 12.89 464.042 13.64C464.042 14.92 462.542 16.29 459.982 18.18V19H465.202V18.15H461.222C463.252 16.69 465.002 15.2 465.002 13.52ZM468.88 19.13C470.81 19.13 471.7 17.67 471.7 15.37C471.7 13.08 470.81 11.62 468.88 11.62C466.95 11.62 466.06 13.08 466.06 15.37C466.06 17.67 466.95 19.13 468.88 19.13ZM468.88 12.38C470.02 12.38 470.73 13.36 470.73 15.37C470.73 17.39 470.02 18.37 468.88 18.37C467.74 18.37 467.03 17.39 467.03 15.37C467.03 13.36 467.74 12.38 468.88 12.38ZM472.841 11.75V12.9H473.331L472.801 14.29H473.381L473.991 12.98V11.75H472.841ZM477.943 19.13C479.873 19.13 480.763 17.67 480.763 15.37C480.763 13.08 479.873 11.62 477.943 11.62C476.013 11.62 475.123 13.08 475.123 15.37C475.123 17.67 476.013 19.13 477.943 19.13ZM477.943 12.38C479.083 12.38 479.793 13.36 479.793 15.37C479.793 17.39 479.083 18.37 477.943 18.37C476.803 18.37 476.093 17.39 476.093 15.37C476.093 13.36 476.803 12.38 477.943 12.38ZM484.554 19.13C486.484 19.13 487.374 17.67 487.374 15.37C487.374 13.08 486.484 11.62 484.554 11.62C482.624 11.62 481.734 13.08 481.734 15.37C481.734 17.67 482.624 19.13 484.554 19.13ZM484.554 12.38C485.694 12.38 486.404 13.36 486.404 15.37C486.404 17.39 485.694 18.37 484.554 18.37C483.414 18.37 482.704 17.39 482.704 15.37C482.704 13.36 483.414 12.38 484.554 12.38ZM491.165 19.13C493.095 19.13 493.985 17.67 493.985 15.37C493.985 13.08 493.095 11.62 491.165 11.62C489.235 11.62 488.345 13.08 488.345 15.37C488.345 17.67 489.235 19.13 491.165 19.13ZM491.165 12.38C492.305 12.38 493.015 13.36 493.015 15.37C493.015 17.39 492.305 18.37 491.165 18.37C490.025 18.37 489.315 17.39 489.315 15.37C489.315 13.36 490.025 12.38 491.165 12.38Z" fill="black"/>
<path d="M415.8 47.75H413.65V55H415.8C418.1 55 419.83 54.25 419.83 51.37C419.83 48.5 418.1 47.75 415.8 47.75ZM415.74 48.87C417.06 48.87 418.35 49.2 418.35 51.37C418.35 53.55 417.06 53.88 415.74 53.88H415.08V48.87H415.74ZM422.188 47.75H420.808V49.03H422.188V47.75ZM422.188 49.62H420.808V55H422.188V49.62ZM425.145 55.13C425.955 55.13 426.525 54.89 426.905 54.33C426.925 54.59 426.955 54.83 426.995 55H428.265C428.165 54.55 428.105 54.07 428.105 53.22C428.105 52.73 428.125 52.02 428.125 51.85C428.125 50.03 427.085 49.48 425.805 49.48C424.425 49.48 423.545 50.26 423.445 51.32H424.735C424.765 50.73 425.205 50.45 425.735 50.45C426.295 50.45 426.745 50.74 426.745 51.57V51.66C424.635 51.9 423.205 52.28 423.205 53.55C423.205 54.53 424.115 55.13 425.145 55.13ZM426.785 52.54V52.94C426.785 53.72 426.415 54.19 425.555 54.19C424.935 54.19 424.625 53.87 424.625 53.48C424.625 52.88 425.245 52.7 426.785 52.54ZM429.274 55H430.654V54.32C430.994 54.91 431.644 55.13 432.204 55.13C433.484 55.13 434.544 54.03 434.544 52.31C434.544 50.62 433.504 49.5 432.204 49.5C431.524 49.5 430.944 49.81 430.654 50.31V47.75H429.274V55ZM433.094 52.32C433.094 53.37 432.574 54.07 431.864 54.07C431.104 54.07 430.604 53.41 430.604 52.31C430.604 51.23 431.104 50.56 431.864 50.56C432.574 50.56 433.094 51.27 433.094 52.32ZM436.535 52.69H440.505C440.565 50.79 439.525 49.5 437.865 49.5C436.275 49.5 435.165 50.69 435.165 52.29C435.165 53.84 436.175 55.13 437.905 55.13C439.365 55.13 440.155 54.24 440.445 53.44H439.025C438.745 53.91 438.315 54.06 437.895 54.06C437.245 54.06 436.605 53.61 436.535 52.69ZM436.555 51.74C436.665 50.84 437.335 50.51 437.855 50.51C438.435 50.51 439.075 50.83 439.105 51.74H436.555ZM441.583 48.16V49.62H440.823V50.57H441.583V53.55C441.583 54.62 441.823 55 443.053 55H444.063V54.01H443.643C443.153 54.01 442.963 53.9 442.963 53.35V50.57H444.083V49.62H442.963V48.16H441.583ZM445.988 52.69H449.958C450.018 50.79 448.978 49.5 447.318 49.5C445.728 49.5 444.618 50.69 444.618 52.29C444.618 53.84 445.628 55.13 447.358 55.13C448.818 55.13 449.608 54.24 449.898 53.44H448.478C448.198 53.91 447.768 54.06 447.348 54.06C446.698 54.06 446.058 53.61 445.988 52.69ZM446.008 51.74C446.118 50.84 446.788 50.51 447.308 50.51C447.888 50.51 448.528 50.83 448.558 51.74H446.008ZM453.925 51.24H455.215C455.035 50 453.965 49.48 452.845 49.48C451.685 49.48 450.645 50.11 450.645 51.08C450.645 52.06 451.315 52.48 452.325 52.69L453.125 52.86C453.585 52.96 454.005 53.12 454.005 53.52C454.005 53.91 453.625 54.13 453.035 54.13C452.325 54.13 451.955 53.74 451.875 53.22H450.545C450.675 54.45 451.675 55.13 452.995 55.13C454.215 55.13 455.325 54.47 455.325 53.39C455.325 52.28 454.415 52.01 453.345 51.77L452.625 51.61C452.115 51.5 451.905 51.28 451.905 50.99C451.905 50.66 452.265 50.47 452.775 50.47C453.405 50.47 453.825 50.79 453.925 51.24Z" fill="black"/>
<path d="M415.8 73H416.71V65.75H416.09C415.69 66.54 415.16 66.67 414.12 66.71V67.33H415.8V73ZM418.332 65.75V66.9H418.822L418.292 68.29H418.872L419.482 66.98V65.75H418.332ZM424.47 70.62C424.47 71.74 423.72 72.37 422.85 72.37C421.84 72.37 421.35 71.81 421.21 70.9H420.27C420.41 72.07 421.17 73.13 422.85 73.13C424.2 73.13 425.43 72.27 425.43 70.61C425.43 69.01 424.32 68.11 423.05 68.11C422.45 68.11 421.87 68.29 421.49 68.66L421.74 66.6H425.16V65.75H421L420.53 69.65L421.44 69.7C421.6 69.34 422.09 68.9 422.84 68.9C423.63 68.9 424.47 69.42 424.47 70.62ZM429.204 73.13C431.134 73.13 432.024 71.67 432.024 69.37C432.024 67.08 431.134 65.62 429.204 65.62C427.274 65.62 426.384 67.08 426.384 69.37C426.384 71.67 427.274 73.13 429.204 73.13ZM429.204 66.38C430.344 66.38 431.054 67.36 431.054 69.37C431.054 71.39 430.344 72.37 429.204 72.37C428.064 72.37 427.354 71.39 427.354 69.37C427.354 67.36 428.064 66.38 429.204 66.38ZM435.816 73.13C437.746 73.13 438.636 71.67 438.636 69.37C438.636 67.08 437.746 65.62 435.816 65.62C433.886 65.62 432.996 67.08 432.996 69.37C432.996 71.67 433.886 73.13 435.816 73.13ZM435.816 66.38C436.956 66.38 437.666 67.36 437.666 69.37C437.666 71.39 436.956 72.37 435.816 72.37C434.676 72.37 433.966 71.39 433.966 69.37C433.966 67.36 434.676 66.38 435.816 66.38ZM439.777 65.75V66.9H440.267L439.737 68.29H440.317L440.927 66.98V65.75H439.777ZM444.878 73.13C446.808 73.13 447.698 71.67 447.698 69.37C447.698 67.08 446.808 65.62 444.878 65.62C442.948 65.62 442.058 67.08 442.058 69.37C442.058 71.67 442.948 73.13 444.878 73.13ZM444.878 66.38C446.018 66.38 446.728 67.36 446.728 69.37C446.728 71.39 446.018 72.37 444.878 72.37C443.738 72.37 443.028 71.39 443.028 69.37C443.028 67.36 443.738 66.38 444.878 66.38ZM451.489 73.13C453.419 73.13 454.309 71.67 454.309 69.37C454.309 67.08 453.419 65.62 451.489 65.62C449.559 65.62 448.669 67.08 448.669 69.37C448.669 71.67 449.559 73.13 451.489 73.13ZM451.489 66.38C452.629 66.38 453.339 67.36 453.339 69.37C453.339 71.39 452.629 72.37 451.489 72.37C450.349 72.37 449.639 71.39 449.639 69.37C449.639 67.36 450.349 66.38 451.489 66.38ZM458.101 73.13C460.031 73.13 460.921 71.67 460.921 69.37C460.921 67.08 460.031 65.62 458.101 65.62C456.171 65.62 455.281 67.08 455.281 69.37C455.281 71.67 456.171 73.13 458.101 73.13ZM458.101 66.38C459.241 66.38 459.951 67.36 459.951 69.37C459.951 71.39 459.241 72.37 458.101 72.37C456.961 72.37 456.251 71.39 456.251 69.37C456.251 67.36 456.961 66.38 458.101 66.38Z" fill="black"/>
<path d="M22.93 18.62L21.57 18.62C21.34 19.6 20.63 19.99 19.77 19.99C18.72 19.99 17.88 19.07 17.88 17.34C17.88 15.66 18.72 14.76 19.82 14.76C20.62 14.76 21.3 15.09 21.57 16.1L22.93 16.1C22.69 14.59 21.53 13.62 19.83 13.62C17.72 13.62 16.4 15.05 16.4 17.34C16.4 19.65 17.64 21.13 19.79 21.13C21.53 21.13 22.74 20.08 22.93 18.62ZM25.4787 21.13C26.2887 21.13 26.8587 20.89 27.2387 20.33C27.2587 20.59 27.2887 20.83 27.3287 21L28.5987 21C28.4987 20.55 28.4387 20.07 28.4387 19.22C28.4387 18.73 28.4587 18.02 28.4587 17.85C28.4587 16.03 27.4187 15.48 26.1387 15.48C24.7587 15.48 23.8787 16.26 23.7787 17.32H25.0687C25.0987 16.73 25.5387 16.45 26.0687 16.45C26.6287 16.45 27.0787 16.74 27.0787 17.57V17.66C24.9687 17.9 23.5387 18.28 23.5387 19.55C23.5387 20.53 24.4487 21.13 25.4787 21.13ZM27.1187 18.54V18.94C27.1187 19.72 26.7487 20.19 25.8887 20.19C25.2687 20.19 24.9587 19.87 24.9587 19.48C24.9587 18.88 25.5787 18.7 27.1187 18.54ZM30.9883 16.33L30.9883 15.62L29.6083 15.62L29.6083 21H30.9883L30.9883 18.2C30.9883 17.35 31.1883 16.61 32.0983 16.61C32.8783 16.61 33.0283 17.21 33.0283 17.91V21H34.4083V17.61C34.4083 16.29 33.8383 15.5 32.5483 15.5C31.8883 15.5 31.2983 15.79 30.9883 16.33ZM40.3553 17.46C40.1753 16.12 39.0353 15.5 37.9153 15.5C36.3053 15.5 35.2153 16.68 35.2153 18.32C35.2153 19.94 36.2453 21.13 37.8553 21.13C38.9653 21.13 40.0853 20.64 40.4053 19.17L39.0853 19.17C38.9053 19.82 38.3953 20.06 37.9253 20.06C37.1653 20.06 36.6253 19.43 36.6253 18.3C36.6253 17.18 37.1953 16.57 37.9153 16.57C38.4353 16.57 38.9353 16.95 39.0353 17.46L40.3553 17.46ZM42.2982 18.69L46.2682 18.69C46.3282 16.79 45.2882 15.5 43.6282 15.5C42.0382 15.5 40.9282 16.69 40.9282 18.29C40.9282 19.84 41.9382 21.13 43.6682 21.13C45.1282 21.13 45.9182 20.24 46.2082 19.44L44.7882 19.44C44.5082 19.91 44.0782 20.06 43.6582 20.06C43.0082 20.06 42.3682 19.61 42.2982 18.69ZM42.3182 17.74C42.4282 16.84 43.0982 16.51 43.6182 16.51C44.1982 16.51 44.8382 16.83 44.8682 17.74L42.3182 17.74ZM50.2371 16.95L50.2371 15.65C50.1471 15.64 50.0271 15.63 49.9371 15.63C49.3171 15.63 48.8271 15.9 48.5171 16.56V15.62L47.1571 15.62L47.1571 21H48.5371L48.5371 18.18C48.5371 17.17 48.9871 16.92 49.6671 16.92C49.8671 16.92 50.0371 16.93 50.2371 16.95Z" fill="black"/>
<path d="M21.55 32.47C21.55 31.4 20.61 30.62 19.13 30.62C17.64 30.62 16.71 31.4 16.71 32.47C16.71 33.06 16.99 33.75 17.71 34.14C16.76 34.52 16.48 35.3 16.48 35.96C16.48 37.34 17.63 38.13 19.13 38.13C20.62 38.13 21.77 37.34 21.77 35.96C21.77 35.3 21.49 34.52 20.55 34.14C21.27 33.75 21.55 33.06 21.55 32.47ZM19.13 31.38C20.03 31.38 20.63 31.86 20.63 32.58C20.63 33.31 20.03 33.85 19.13 33.85C18.22 33.85 17.62 33.31 17.62 32.58C17.62 31.86 18.22 31.38 19.13 31.38ZM17.45 35.96C17.45 35.11 18.1 34.52 19.13 34.52C20.15 34.52 20.81 35.11 20.81 35.96C20.81 36.81 20.15 37.37 19.13 37.37C18.1 37.37 17.45 36.81 17.45 35.96ZM22.7145 30.75V31.9H23.2045L22.6745 33.29H23.2545L23.8645 31.98V30.75L22.7145 30.75ZM29.8356 32.52C29.8356 31.3 28.8756 30.62 27.5356 30.62C25.9956 30.62 24.9956 31.57 25.0156 33.01H25.9556C25.9756 31.81 26.7356 31.38 27.5156 31.38C28.3756 31.38 28.8756 31.89 28.8756 32.64C28.8756 33.92 27.3756 35.29 24.8156 37.18V38L30.0356 38V37.15L26.0556 37.15C28.0856 35.69 29.8356 34.2 29.8356 32.52ZM33.7141 38.13C35.6441 38.13 36.5341 36.67 36.5341 34.37C36.5341 32.08 35.6441 30.62 33.7141 30.62C31.7841 30.62 30.8941 32.08 30.8941 34.37C30.8941 36.67 31.7841 38.13 33.7141 38.13ZM33.7141 31.38C34.8541 31.38 35.5641 32.36 35.5641 34.37C35.5641 36.39 34.8541 37.37 33.7141 37.37C32.5741 37.37 31.8641 36.39 31.8641 34.37C31.8641 32.36 32.5741 31.38 33.7141 31.38ZM40.3254 38.13C42.2554 38.13 43.1454 36.67 43.1454 34.37C43.1454 32.08 42.2554 30.62 40.3254 30.62C38.3954 30.62 37.5054 32.08 37.5054 34.37C37.5054 36.67 38.3954 38.13 40.3254 38.13ZM40.3254 31.38C41.4654 31.38 42.1754 32.36 42.1754 34.37C42.1754 36.39 41.4654 37.37 40.3254 37.37C39.1854 37.37 38.4754 36.39 38.4754 34.37C38.4754 32.36 39.1854 31.38 40.3254 31.38ZM44.2867 30.75L44.2867 31.9H44.7767L44.2467 33.29H44.8267L45.4367 31.98L45.4367 30.75H44.2867ZM49.3879 38.13C51.3179 38.13 52.2079 36.67 52.2079 34.37C52.2079 32.08 51.3179 30.62 49.3879 30.62C47.4579 30.62 46.5679 32.08 46.5679 34.37C46.5679 36.67 47.4579 38.13 49.3879 38.13ZM49.3879 31.38C50.5279 31.38 51.2379 32.36 51.2379 34.37C51.2379 36.39 50.5279 37.37 49.3879 37.37C48.2479 37.37 47.5379 36.39 47.5379 34.37C47.5379 32.36 48.2479 31.38 49.3879 31.38ZM55.9992 38.13C57.9292 38.13 58.8192 36.67 58.8192 34.37C58.8192 32.08 57.9292 30.62 55.9992 30.62C54.0692 30.62 53.1792 32.08 53.1792 34.37C53.1792 36.67 54.0692 38.13 55.9992 38.13ZM55.9992 31.38C57.1392 31.38 57.8492 32.36 57.8492 34.37C57.8492 36.39 57.1392 37.37 55.9992 37.37C54.8592 37.37 54.1492 36.39 54.1492 34.37C54.1492 32.36 54.8592 31.38 55.9992 31.38ZM62.6105 38.13C64.5405 38.13 65.4305 36.67 65.4305 34.37C65.4305 32.08 64.5405 30.62 62.6105 30.62C60.6805 30.62 59.7905 32.08 59.7905 34.37C59.7905 36.67 60.6805 38.13 62.6105 38.13ZM62.6105 31.38C63.7505 31.38 64.4605 32.36 64.4605 34.37C64.4605 36.39 63.7505 37.37 62.6105 37.37C61.4705 37.37 60.7605 36.39 60.7605 34.37C60.7605 32.36 61.4705 31.38 62.6105 31.38Z" fill="black"/>
<path d="M416.77 748H418.19L419.97 742.55V748H421.3V740.75H419.2L417.49 746.4L415.73 740.75H413.65V748H414.98V742.55L416.77 748ZM423.585 745.69H427.555C427.615 743.79 426.575 742.5 424.915 742.5C423.325 742.5 422.215 743.69 422.215 745.29C422.215 746.84 423.225 748.13 424.955 748.13C426.415 748.13 427.205 747.24 427.495 746.44H426.075C425.795 746.91 425.365 747.06 424.945 747.06C424.295 747.06 423.655 746.61 423.585 745.69ZM423.605 744.74C423.715 743.84 424.385 743.51 424.905 743.51C425.485 743.51 426.125 743.83 426.155 744.74H423.605ZM430.164 748.13C430.974 748.13 431.544 747.89 431.924 747.33C431.944 747.59 431.974 747.83 432.014 748H433.284C433.184 747.55 433.124 747.07 433.124 746.22C433.124 745.73 433.144 745.02 433.144 744.85C433.144 743.03 432.104 742.48 430.824 742.48C429.444 742.48 428.564 743.26 428.464 744.32H429.754C429.784 743.73 430.224 743.45 430.754 743.45C431.314 743.45 431.764 743.74 431.764 744.57V744.66C429.654 744.9 428.224 745.28 428.224 746.55C428.224 747.53 429.134 748.13 430.164 748.13ZM431.804 745.54V745.94C431.804 746.72 431.434 747.19 430.574 747.19C429.954 747.19 429.644 746.87 429.644 746.48C429.644 745.88 430.264 745.7 431.804 745.54ZM437.324 744.24H438.614C438.434 743 437.364 742.48 436.244 742.48C435.084 742.48 434.044 743.11 434.044 744.08C434.044 745.06 434.714 745.48 435.724 745.69L436.524 745.86C436.984 745.96 437.404 746.12 437.404 746.52C437.404 746.91 437.024 747.13 436.434 747.13C435.724 747.13 435.354 746.74 435.274 746.22H433.944C434.074 747.45 435.074 748.13 436.394 748.13C437.614 748.13 438.724 747.47 438.724 746.39C438.724 745.28 437.814 745.01 436.744 744.77L436.024 744.61C435.514 744.5 435.304 744.28 435.304 743.99C435.304 743.66 435.664 743.47 436.174 743.47C436.804 743.47 437.224 743.79 437.324 744.24ZM440.967 748V740.75H439.587V748H440.967ZM443.224 745.69H447.194C447.254 743.79 446.214 742.5 444.554 742.5C442.964 742.5 441.854 743.69 441.854 745.29C441.854 746.84 442.864 748.13 444.594 748.13C446.054 748.13 446.844 747.24 447.134 746.44H445.714C445.434 746.91 445.004 747.06 444.584 747.06C443.934 747.06 443.294 746.61 443.224 745.69ZM443.244 744.74C443.354 743.84 444.024 743.51 444.544 743.51C445.124 743.51 445.764 743.83 445.794 744.74H443.244ZM451.162 744.24H452.452C452.272 743 451.202 742.48 450.082 742.48C448.922 742.48 447.882 743.11 447.882 744.08C447.882 745.06 448.552 745.48 449.562 745.69L450.362 745.86C450.822 745.96 451.242 746.12 451.242 746.52C451.242 746.91 450.862 747.13 450.272 747.13C449.562 747.13 449.192 746.74 449.112 746.22H447.782C447.912 747.45 448.912 748.13 450.232 748.13C451.452 748.13 452.562 747.47 452.562 746.39C452.562 745.28 451.652 745.01 450.582 744.77L449.862 744.61C449.352 744.5 449.142 744.28 449.142 743.99C449.142 743.66 449.502 743.47 450.012 743.47C450.642 743.47 451.062 743.79 451.162 744.24Z" fill="black"/>
<path d="M463.8 748H464.71V740.75H464.09C463.69 741.54 463.16 741.67 462.12 741.71V742.33H463.8V748ZM470.142 745.97C470.142 746.87 469.462 747.37 468.502 747.37C467.482 747.37 466.952 746.75 466.852 745.86H465.912C466.012 747.07 466.792 748.13 468.492 748.13C469.872 748.13 471.112 747.42 471.112 745.96C471.112 745.2 470.812 744.48 469.732 744.14C470.492 743.83 470.912 743.2 470.912 742.46C470.912 741.12 469.822 740.62 468.562 740.62C467.042 740.62 466.132 741.51 466.022 742.79H466.962C467.042 741.97 467.572 741.38 468.542 741.38C469.312 741.38 469.952 741.78 469.952 742.56C469.952 743.41 469.282 743.76 468.022 743.76H467.902V744.59H468.052C469.212 744.59 470.142 744.93 470.142 745.97ZM474.851 748.13C476.781 748.13 477.671 746.67 477.671 744.37C477.671 742.08 476.781 740.62 474.851 740.62C472.921 740.62 472.031 742.08 472.031 744.37C472.031 746.67 472.921 748.13 474.851 748.13ZM474.851 741.38C475.991 741.38 476.701 742.36 476.701 744.37C476.701 746.39 475.991 747.37 474.851 747.37C473.711 747.37 473.001 746.39 473.001 744.37C473.001 742.36 473.711 741.38 474.851 741.38ZM478.812 740.75V741.9H479.302L478.772 743.29H479.352L479.962 741.98V740.75H478.812ZM483.913 748.13C485.843 748.13 486.733 746.67 486.733 744.37C486.733 742.08 485.843 740.62 483.913 740.62C481.983 740.62 481.093 742.08 481.093 744.37C481.093 746.67 481.983 748.13 483.913 748.13ZM483.913 741.38C485.053 741.38 485.763 742.36 485.763 744.37C485.763 746.39 485.053 747.37 483.913 747.37C482.773 747.37 482.063 746.39 482.063 744.37C482.063 742.36 482.773 741.38 483.913 741.38ZM490.525 748.13C492.455 748.13 493.345 746.67 493.345 744.37C493.345 742.08 492.455 740.62 490.525 740.62C488.595 740.62 487.705 742.08 487.705 744.37C487.705 746.67 488.595 748.13 490.525 748.13ZM490.525 741.38C491.665 741.38 492.375 742.36 492.375 744.37C492.375 746.39 491.665 747.37 490.525 747.37C489.385 747.37 488.675 746.39 488.675 744.37C488.675 742.36 489.385 741.38 490.525 741.38ZM497.136 748.13C499.066 748.13 499.956 746.67 499.956 744.37C499.956 742.08 499.066 740.62 497.136 740.62C495.206 740.62 494.316 742.08 494.316 744.37C494.316 746.67 495.206 748.13 497.136 748.13ZM497.136 741.38C498.276 741.38 498.986 742.36 498.986 744.37C498.986 746.39 498.276 747.37 497.136 747.37C495.996 747.37 495.286 746.39 495.286 744.37C495.286 742.36 495.996 741.38 497.136 741.38Z" fill="black"/>
<path d="M415.8 407.75H413.65V415H415.8C418.1 415 419.83 414.25 419.83 411.37C419.83 408.5 418.1 407.75 415.8 407.75ZM415.74 408.87C417.06 408.87 418.35 409.2 418.35 411.37C418.35 413.55 417.06 413.88 415.74 413.88H415.08V408.87H415.74ZM422.188 407.75H420.808V409.03H422.188V407.75ZM422.188 409.62H420.808V415H422.188V409.62ZM425.145 415.13C425.955 415.13 426.525 414.89 426.905 414.33C426.925 414.59 426.955 414.83 426.995 415H428.265C428.165 414.55 428.105 414.07 428.105 413.22C428.105 412.73 428.125 412.02 428.125 411.85C428.125 410.03 427.085 409.48 425.805 409.48C424.425 409.48 423.545 410.26 423.445 411.32H424.735C424.765 410.73 425.205 410.45 425.735 410.45C426.295 410.45 426.745 410.74 426.745 411.57V411.66C424.635 411.9 423.205 412.28 423.205 413.55C423.205 414.53 424.115 415.13 425.145 415.13ZM426.785 412.54V412.94C426.785 413.72 426.415 414.19 425.555 414.19C424.935 414.19 424.625 413.87 424.625 413.48C424.625 412.88 425.245 412.7 426.785 412.54ZM432.354 410.95V409.65C432.264 409.64 432.144 409.63 432.054 409.63C431.434 409.63 430.944 409.9 430.634 410.56V409.62H429.274V415H430.654V412.18C430.654 411.17 431.104 410.92 431.784 410.92C431.984 410.92 432.154 410.93 432.354 410.95ZM436.143 410.95V409.65C436.053 409.64 435.933 409.63 435.843 409.63C435.223 409.63 434.733 409.9 434.423 410.56V409.62H433.063V415H434.443V412.18C434.443 411.17 434.893 410.92 435.573 410.92C435.773 410.92 435.943 410.93 436.143 410.95ZM438.232 410.33V407.75H436.852V415H438.232V412.2C438.232 411.35 438.432 410.61 439.342 410.61C440.122 410.61 440.272 411.21 440.272 411.91V415H441.652V411.61C441.652 410.29 441.082 409.5 439.792 409.5C439.132 409.5 438.542 409.79 438.232 410.33ZM443.829 412.69H447.799C447.859 410.79 446.819 409.5 445.159 409.5C443.569 409.5 442.459 410.69 442.459 412.29C442.459 413.84 443.469 415.13 445.199 415.13C446.659 415.13 447.449 414.24 447.739 413.44H446.319C446.039 413.91 445.609 414.06 445.189 414.06C444.539 414.06 443.899 413.61 443.829 412.69ZM443.849 411.74C443.959 410.84 444.629 410.51 445.149 410.51C445.729 410.51 446.369 410.83 446.399 411.74H443.849ZM450.408 415.13C451.218 415.13 451.788 414.89 452.168 414.33C452.188 414.59 452.218 414.83 452.258 415H453.528C453.428 414.55 453.368 414.07 453.368 413.22C453.368 412.73 453.388 412.02 453.388 411.85C453.388 410.03 452.348 409.48 451.068 409.48C449.688 409.48 448.808 410.26 448.708 411.32H449.998C450.028 410.73 450.468 410.45 450.998 410.45C451.558 410.45 452.008 410.74 452.008 411.57V411.66C449.898 411.9 448.468 412.28 448.468 413.55C448.468 414.53 449.378 415.13 450.408 415.13ZM452.048 412.54V412.94C452.048 413.72 451.678 414.19 450.818 414.19C450.198 414.19 449.888 413.87 449.888 413.48C449.888 412.88 450.508 412.7 452.048 412.54ZM455.918 415V407.75H454.538V415H455.918ZM461.591 407.75H459.441V415H461.591C463.891 415 465.621 414.25 465.621 411.37C465.621 408.5 463.891 407.75 461.591 407.75ZM461.531 408.87C462.851 408.87 464.141 409.2 464.141 411.37C464.141 413.55 462.851 413.88 461.531 413.88H460.871V408.87H461.531ZM467.979 407.75H466.599V409.03H467.979V407.75ZM467.979 409.62H466.599V415H467.979V409.62ZM472.246 411.24H473.536C473.356 410 472.286 409.48 471.166 409.48C470.006 409.48 468.966 410.11 468.966 411.08C468.966 412.06 469.636 412.48 470.646 412.69L471.446 412.86C471.906 412.96 472.326 413.12 472.326 413.52C472.326 413.91 471.946 414.13 471.356 414.13C470.646 414.13 470.276 413.74 470.196 413.22H468.866C468.996 414.45 469.996 415.13 471.316 415.13C472.536 415.13 473.646 414.47 473.646 413.39C473.646 412.28 472.736 412.01 471.666 411.77L470.946 411.61C470.436 411.5 470.226 411.28 470.226 410.99C470.226 410.66 470.586 410.47 471.096 410.47C471.726 410.47 472.146 410.79 472.246 411.24ZM475.578 412.69H479.548C479.608 410.79 478.568 409.5 476.908 409.5C475.318 409.5 474.208 410.69 474.208 412.29C474.208 413.84 475.218 415.13 476.948 415.13C478.408 415.13 479.198 414.24 479.488 413.44H478.068C477.788 413.91 477.358 414.06 476.938 414.06C476.288 414.06 475.648 413.61 475.578 412.69ZM475.598 411.74C475.708 410.84 476.378 410.51 476.898 410.51C477.478 410.51 478.118 410.83 478.148 411.74H475.598ZM482.156 415.13C482.966 415.13 483.536 414.89 483.916 414.33C483.936 414.59 483.966 414.83 484.006 415H485.276C485.176 414.55 485.116 414.07 485.116 413.22C485.116 412.73 485.136 412.02 485.136 411.85C485.136 410.03 484.096 409.48 482.816 409.48C481.436 409.48 480.556 410.26 480.456 411.32H481.746C481.776 410.73 482.216 410.45 482.746 410.45C483.306 410.45 483.756 410.74 483.756 411.57V411.66C481.646 411.9 480.216 412.28 480.216 413.55C480.216 414.53 481.126 415.13 482.156 415.13ZM483.796 412.54V412.94C483.796 413.72 483.426 414.19 482.566 414.19C481.946 414.19 481.636 413.87 481.636 413.48C481.636 412.88 482.256 412.7 483.796 412.54ZM489.316 411.24H490.606C490.426 410 489.356 409.48 488.236 409.48C487.076 409.48 486.036 410.11 486.036 411.08C486.036 412.06 486.706 412.48 487.716 412.69L488.516 412.86C488.976 412.96 489.396 413.12 489.396 413.52C489.396 413.91 489.016 414.13 488.426 414.13C487.716 414.13 487.346 413.74 487.266 413.22H485.936C486.066 414.45 487.066 415.13 488.386 415.13C489.606 415.13 490.716 414.47 490.716 413.39C490.716 412.28 489.806 412.01 488.736 411.77L488.016 411.61C487.506 411.5 487.296 411.28 487.296 410.99C487.296 410.66 487.656 410.47 488.166 410.47C488.796 410.47 489.216 410.79 489.316 411.24ZM492.648 412.69H496.618C496.678 410.79 495.638 409.5 493.978 409.5C492.388 409.5 491.278 410.69 491.278 412.29C491.278 413.84 492.288 415.13 494.018 415.13C495.478 415.13 496.268 414.24 496.558 413.44H495.138C494.858 413.91 494.428 414.06 494.008 414.06C493.358 414.06 492.718 413.61 492.648 412.69ZM492.668 411.74C492.778 410.84 493.448 410.51 493.968 410.51C494.548 410.51 495.188 410.83 495.218 411.74H492.668Z" fill="black"/>
<path d="M414.8 433H415.71V425.75H415.09C414.69 426.54 414.16 426.67 413.12 426.71V427.33H414.8V433ZM417.332 425.75V426.9H417.822L417.292 428.29H417.872L418.482 426.98V425.75H417.332ZM424.254 431.21V430.35H422.924V425.75H421.994L418.404 430.35V431.21H422.004V433H422.924V431.21H424.254ZM419.414 430.35L422.004 427V430.35H419.414ZM427.775 433.13C429.705 433.13 430.595 431.67 430.595 429.37C430.595 427.08 429.705 425.62 427.775 425.62C425.845 425.62 424.955 427.08 424.955 429.37C424.955 431.67 425.845 433.13 427.775 433.13ZM427.775 426.38C428.915 426.38 429.625 427.36 429.625 429.37C429.625 431.39 428.915 432.37 427.775 432.37C426.635 432.37 425.925 431.39 425.925 429.37C425.925 427.36 426.635 426.38 427.775 426.38ZM434.386 433.13C436.316 433.13 437.206 431.67 437.206 429.37C437.206 427.08 436.316 425.62 434.386 425.62C432.456 425.62 431.566 427.08 431.566 429.37C431.566 431.67 432.456 433.13 434.386 433.13ZM434.386 426.38C435.526 426.38 436.236 427.36 436.236 429.37C436.236 431.39 435.526 432.37 434.386 432.37C433.246 432.37 432.536 431.39 432.536 429.37C432.536 427.36 433.246 426.38 434.386 426.38ZM438.347 425.75V426.9H438.837L438.307 428.29H438.887L439.497 426.98V425.75H438.347ZM443.448 433.13C445.378 433.13 446.268 431.67 446.268 429.37C446.268 427.08 445.378 425.62 443.448 425.62C441.518 425.62 440.628 427.08 440.628 429.37C440.628 431.67 441.518 433.13 443.448 433.13ZM443.448 426.38C444.588 426.38 445.298 427.36 445.298 429.37C445.298 431.39 444.588 432.37 443.448 432.37C442.308 432.37 441.598 431.39 441.598 429.37C441.598 427.36 442.308 426.38 443.448 426.38ZM450.06 433.13C451.99 433.13 452.88 431.67 452.88 429.37C452.88 427.08 451.99 425.62 450.06 425.62C448.13 425.62 447.24 427.08 447.24 429.37C447.24 431.67 448.13 433.13 450.06 433.13ZM450.06 426.38C451.2 426.38 451.91 427.36 451.91 429.37C451.91 431.39 451.2 432.37 450.06 432.37C448.92 432.37 448.21 431.39 448.21 429.37C448.21 427.36 448.92 426.38 450.06 426.38ZM456.671 433.13C458.601 433.13 459.491 431.67 459.491 429.37C459.491 427.08 458.601 425.62 456.671 425.62C454.741 425.62 453.851 427.08 453.851 429.37C453.851 431.67 454.741 433.13 456.671 433.13ZM456.671 426.38C457.811 426.38 458.521 427.36 458.521 429.37C458.521 431.39 457.811 432.37 456.671 432.37C455.531 432.37 454.821 431.39 454.821 429.37C454.821 427.36 455.531 426.38 456.671 426.38Z" fill="black"/>
<path d="M1070.91 44.72H1077V43.29H1070.91V41.05H1069.75V46.95H1070.91V44.72ZM1074.69 40.4186V36.4486C1072.79 36.3886 1071.5 37.4286 1071.5 39.0886C1071.5 40.6786 1072.69 41.7886 1074.29 41.7886C1075.84 41.7886 1077.13 40.7786 1077.13 39.0486C1077.13 37.5886 1076.24 36.7986 1075.44 36.5086V37.9286C1075.91 38.2086 1076.06 38.6386 1076.06 39.0586C1076.06 39.7086 1075.61 40.3486 1074.69 40.4186ZM1073.74 40.3986C1072.84 40.2886 1072.51 39.6186 1072.51 39.0986C1072.51 38.5186 1072.83 37.8786 1073.74 37.8486V40.3986ZM1070.16 35.3697H1071.62V36.1297H1072.57V35.3697H1075.55C1076.62 35.3697 1077 35.1297 1077 33.8997V32.8897H1076.01V33.3097C1076.01 33.7997 1075.9 33.9897 1075.35 33.9897H1072.57V32.8697H1071.62V33.9897H1070.16V35.3697ZM1077.13 30.2655C1077.13 29.4555 1076.89 28.8855 1076.33 28.5055C1076.59 28.4855 1076.83 28.4555 1077 28.4155V27.1455C1076.55 27.2455 1076.07 27.3055 1075.22 27.3055C1074.73 27.3055 1074.02 27.2855 1073.85 27.2855C1072.03 27.2855 1071.48 28.3255 1071.48 29.6055C1071.48 30.9855 1072.26 31.8655 1073.32 31.9655V30.6755C1072.73 30.6455 1072.45 30.2055 1072.45 29.6755C1072.45 29.1155 1072.74 28.6655 1073.57 28.6655H1073.66C1073.9 30.7755 1074.28 32.2055 1075.55 32.2055C1076.53 32.2055 1077.13 31.2955 1077.13 30.2655ZM1074.54 28.6255H1074.94C1075.72 28.6255 1076.19 28.9955 1076.19 29.8555C1076.19 30.4755 1075.87 30.7855 1075.48 30.7855C1074.88 30.7855 1074.7 30.1655 1074.54 28.6255ZM1072.33 24.7559H1071.62V26.1359H1077V24.7559H1074.2C1073.35 24.7559 1072.61 24.5559 1072.61 23.6459C1072.61 22.8659 1073.21 22.7159 1073.91 22.7159H1077V21.3359H1073.61C1072.29 21.3359 1071.5 21.9059 1071.5 23.1959C1071.5 23.8559 1071.79 24.4459 1072.33 24.7559ZM1076.29 16.8688H1077V15.4888H1071.62V16.8688H1074.42C1075.27 16.8688 1076.02 17.0788 1076.02 17.9888C1076.02 18.7688 1075.44 18.8688 1074.72 18.8688H1071.62V20.2488H1075.02C1076.34 20.2488 1077.13 19.7288 1077.13 18.4388C1077.13 17.7788 1076.83 17.1788 1076.29 16.8688ZM1073.24 11.2211V9.93109C1072 10.1111 1071.48 11.1811 1071.48 12.3011C1071.48 13.4611 1072.11 14.5011 1073.08 14.5011C1074.06 14.5011 1074.48 13.8311 1074.69 12.8211L1074.86 12.0211C1074.96 11.5611 1075.12 11.1411 1075.52 11.1411C1075.91 11.1411 1076.13 11.5211 1076.13 12.1111C1076.13 12.8211 1075.74 13.1911 1075.22 13.2711V14.6011C1076.45 14.4711 1077.13 13.4711 1077.13 12.1511C1077.13 10.9311 1076.47 9.82109 1075.39 9.82109C1074.28 9.82109 1074.01 10.7311 1073.77 11.8011L1073.61 12.5211C1073.5 13.0311 1073.28 13.2411 1072.99 13.2411C1072.66 13.2411 1072.47 12.8811 1072.47 12.3711C1072.47 11.7411 1072.79 11.3211 1073.24 11.2211Z" fill="black"/>
<path d="M1086.18 43.58C1084.5 43.53 1083.38 42.92 1083.38 41.8C1083.38 41.06 1083.78 40.56 1084.43 40.44V39.45C1083.51 39.6 1082.62 40.27 1082.62 41.69C1082.62 43.79 1084.58 44.52 1086.63 44.52C1088.87 44.52 1090.13 43.69 1090.13 41.88C1090.13 40.33 1088.98 39.33 1087.63 39.33C1086.18 39.33 1085.17 40.32 1085.17 41.67C1085.17 42.63 1085.61 43.25 1086.18 43.58ZM1089.37 41.89C1089.37 42.85 1088.68 43.47 1087.68 43.47C1086.69 43.47 1085.96 42.83 1085.96 41.88C1085.96 40.95 1086.69 40.3 1087.68 40.3C1088.67 40.3 1089.37 40.96 1089.37 41.89ZM1090.13 35.5477C1090.13 33.6177 1088.67 32.7277 1086.37 32.7277C1084.08 32.7277 1082.62 33.6177 1082.62 35.5477C1082.62 37.4777 1084.08 38.3677 1086.37 38.3677C1088.67 38.3677 1090.13 37.4777 1090.13 35.5477ZM1083.38 35.5477C1083.38 34.4077 1084.36 33.6977 1086.37 33.6977C1088.39 33.6977 1089.37 34.4077 1089.37 35.5477C1089.37 36.6877 1088.39 37.3977 1086.37 37.3977C1084.36 37.3977 1083.38 36.6877 1083.38 35.5477ZM1082.75 31.5863H1083.9V31.0963L1085.29 31.6263V31.0463L1083.98 30.4363H1082.75V31.5863ZM1090.13 26.4852C1090.13 24.5552 1088.67 23.6652 1086.37 23.6652C1084.08 23.6652 1082.62 24.5552 1082.62 26.4852C1082.62 28.4152 1084.08 29.3052 1086.37 29.3052C1088.67 29.3052 1090.13 28.4152 1090.13 26.4852ZM1083.38 26.4852C1083.38 25.3452 1084.36 24.6352 1086.37 24.6352C1088.39 24.6352 1089.37 25.3452 1089.37 26.4852C1089.37 27.6252 1088.39 28.3352 1086.37 28.3352C1084.36 28.3352 1083.38 27.6252 1083.38 26.4852ZM1090.13 19.8738C1090.13 17.9438 1088.67 17.0538 1086.37 17.0538C1084.08 17.0538 1082.62 17.9438 1082.62 19.8738C1082.62 21.8038 1084.08 22.6938 1086.37 22.6938C1088.67 22.6938 1090.13 21.8038 1090.13 19.8738ZM1083.38 19.8738C1083.38 18.7338 1084.36 18.0238 1086.37 18.0238C1088.39 18.0238 1089.37 18.7338 1089.37 19.8738C1089.37 21.0138 1088.39 21.7238 1086.37 21.7238C1084.36 21.7238 1083.38 21.0138 1083.38 19.8738ZM1090.13 13.2625C1090.13 11.3325 1088.67 10.4425 1086.37 10.4425C1084.08 10.4425 1082.62 11.3325 1082.62 13.2625C1082.62 15.1925 1084.08 16.0825 1086.37 16.0825C1088.67 16.0825 1090.13 15.1925 1090.13 13.2625ZM1083.38 13.2625C1083.38 12.1225 1084.36 11.4125 1086.37 11.4125C1088.39 11.4125 1089.37 12.1225 1089.37 13.2625C1089.37 14.4025 1088.39 15.1125 1086.37 15.1125C1084.36 15.1125 1083.38 14.4025 1083.38 13.2625Z" fill="black"/>
</svg>
