<svg viewBox="0 0 1118 749" fill="none" xmlns="http://www.w3.org/2000/svg">
<path d="M43.4101 14H45.4961V3.85H44.0681V12.488L39.4341 3.85H37.3341V14H38.7621V5.334L43.4101 14ZM54.4405 10.262C54.4405 7.532 52.5785 6.342 50.8285 6.342C49.0785 6.342 47.2165 7.532 47.2165 10.262C47.2165 12.992 49.0785 14.182 50.8285 14.182C52.5785 14.182 54.4405 12.992 54.4405 10.262ZM50.8285 13.062C49.6805 13.062 48.5745 12.264 48.5745 10.262C48.5745 8.204 49.6805 7.462 50.8285 7.462C51.9765 7.462 53.0825 8.26 53.0825 10.262C53.0825 12.194 51.9765 13.062 50.8285 13.062ZM59.7163 7.798V6.44C59.5763 6.426 59.4643 6.426 59.3383 6.426C58.3583 6.454 57.5883 6.93 57.2103 7.784V6.468H55.9643V14H57.2383V10.052C57.2383 8.4 57.8263 7.742 59.0023 7.742C59.2123 7.742 59.4503 7.77 59.7163 7.798ZM61.3048 4.578V6.468H60.1148V7.49H61.3048V12.11C61.3048 13.678 61.6408 14 63.0828 14H64.0068V12.936H63.3628C62.6348 12.936 62.5788 12.74 62.5788 11.956V7.49H64.0068V6.468H62.5788V4.578H61.3048ZM66.9043 7.602V3.85H65.6303V14H66.9043V9.912C66.9043 8.302 67.6603 7.448 68.8923 7.448C70.3483 7.448 70.5443 8.456 70.5443 9.618V14H71.8183V9.24C71.8183 7.518 71.1603 6.342 69.3403 6.342C68.0663 6.342 67.3383 6.888 66.9043 7.602ZM73.318 10.766H77.77V9.562H73.318V10.766ZM87.4264 12.376L85.4244 3.85H83.7444L81.8684 12.376L79.9084 3.85H78.3404L80.9164 14H82.6524L84.5704 5.656L86.5304 14H88.2664L90.8004 3.85H89.3024L87.4264 12.376ZM92.4609 10.654H98.2569C98.4249 8.274 97.0389 6.342 94.7429 6.342C92.6849 6.342 91.0889 7.868 91.0889 10.248C91.0889 12.474 92.4049 14.182 94.7849 14.182C96.6189 14.182 97.8089 13.118 98.1589 11.816H96.8429C96.5209 12.558 95.9049 13.062 94.7849 13.062C93.6649 13.062 92.5169 12.278 92.4609 10.654ZM92.4749 9.562C92.5869 8.05 93.6089 7.434 94.7429 7.434C96.0869 7.434 96.8849 8.498 96.9129 9.562H92.4749ZM104.081 8.666H105.411C105.173 7.238 104.067 6.328 102.443 6.328C100.777 6.328 99.433 7.098 99.433 8.428C99.433 9.828 100.553 10.304 101.575 10.514L102.695 10.738C103.507 10.906 104.221 11.228 104.221 11.984C104.221 12.684 103.437 13.104 102.471 13.104C101.351 13.104 100.749 12.53 100.553 11.564H99.209C99.349 12.88 100.469 14.182 102.443 14.182C104.165 14.182 105.509 13.328 105.509 11.844C105.509 10.388 104.305 9.87 102.933 9.604L101.869 9.394C101.141 9.254 100.721 8.974 100.721 8.372C100.721 7.686 101.561 7.42 102.303 7.42C103.185 7.42 103.885 7.77 104.081 8.666ZM107.488 4.578V6.468H106.298V7.49H107.488V12.11C107.488 13.678 107.824 14 109.266 14H110.19V12.936H109.546C108.818 12.936 108.762 12.74 108.762 11.956V7.49H110.19V6.468H108.762V4.578H107.488Z" fill="black"/>
<path d="M214.468 12.376L212.466 3.85H210.786L208.91 12.376L206.95 3.85H205.382L207.958 14H209.694L211.612 5.656L213.572 14H215.308L217.842 3.85H216.344L214.468 12.376ZM219.502 10.654H225.298C225.466 8.274 224.08 6.342 221.784 6.342C219.726 6.342 218.13 7.868 218.13 10.248C218.13 12.474 219.446 14.182 221.826 14.182C223.66 14.182 224.85 13.118 225.2 11.816H223.884C223.562 12.558 222.946 13.062 221.826 13.062C220.706 13.062 219.558 12.278 219.502 10.654ZM219.516 9.562C219.628 8.05 220.65 7.434 221.784 7.434C223.128 7.434 223.926 8.498 223.954 9.562H219.516ZM231.123 8.666H232.453C232.215 7.238 231.109 6.328 229.485 6.328C227.819 6.328 226.475 7.098 226.475 8.428C226.475 9.828 227.595 10.304 228.617 10.514L229.737 10.738C230.549 10.906 231.263 11.228 231.263 11.984C231.263 12.684 230.479 13.104 229.513 13.104C228.393 13.104 227.791 12.53 227.595 11.564H226.251C226.391 12.88 227.511 14.182 229.485 14.182C231.207 14.182 232.551 13.328 232.551 11.844C232.551 10.388 231.347 9.87 229.975 9.604L228.911 9.394C228.183 9.254 227.763 8.974 227.763 8.372C227.763 7.686 228.603 7.42 229.345 7.42C230.227 7.42 230.927 7.77 231.123 8.666ZM234.53 4.578V6.468H233.34V7.49H234.53V12.11C234.53 13.678 234.866 14 236.308 14H237.232V12.936H236.588C235.86 12.936 235.804 12.74 235.804 11.956V7.49H237.232V6.468H235.804V4.578H234.53Z" fill="black"/>
<path d="M350.264 10.766H348.878C348.556 12.068 347.562 12.978 345.952 12.978C344.062 12.978 342.718 11.466 342.718 8.904C342.718 6.272 344.118 4.872 345.91 4.872C347.534 4.872 348.514 5.824 348.822 7.084H350.208C349.774 4.914 348.08 3.668 345.98 3.668C343.11 3.668 341.262 5.754 341.262 8.904C341.262 11.998 342.956 14.182 345.868 14.182C348.066 14.182 349.816 13.006 350.264 10.766ZM352.705 10.654H358.501C358.669 8.274 357.283 6.342 354.987 6.342C352.929 6.342 351.333 7.868 351.333 10.248C351.333 12.474 352.649 14.182 355.029 14.182C356.863 14.182 358.053 13.118 358.403 11.816H357.087C356.765 12.558 356.149 13.062 355.029 13.062C353.909 13.062 352.761 12.278 352.705 10.654ZM352.719 9.562C352.831 8.05 353.853 7.434 354.987 7.434C356.331 7.434 357.129 8.498 357.157 9.562H352.719ZM361.26 7.602V6.468H359.986V14H361.26V9.912C361.26 8.302 362.016 7.448 363.248 7.448C364.704 7.448 364.9 8.456 364.9 9.618V14H366.174V9.24C366.174 7.518 365.516 6.342 363.696 6.342C362.422 6.342 361.694 6.888 361.26 7.602ZM368.443 4.578V6.468H367.253V7.49H368.443V12.11C368.443 13.678 368.779 14 370.221 14H371.145V12.936H370.501C369.773 12.936 369.717 12.74 369.717 11.956V7.49H371.145V6.468H369.717V4.578H368.443ZM376.384 7.798V6.44C376.244 6.426 376.132 6.426 376.006 6.426C375.026 6.454 374.256 6.93 373.878 7.784V6.468H372.632V14H373.906V10.052C373.906 8.4 374.494 7.742 375.67 7.742C375.88 7.742 376.118 7.77 376.384 7.798ZM376.887 12.012C376.887 13.398 378.063 14.182 379.477 14.182C380.807 14.182 381.591 13.734 382.053 12.964C382.067 13.412 382.109 13.72 382.151 14H383.439C383.299 13.286 383.229 12.418 383.243 11.158L383.257 9.422C383.271 7.308 382.333 6.314 380.261 6.314C378.791 6.314 377.363 7.224 377.237 8.848H378.553C378.609 7.924 379.225 7.35 380.275 7.35C381.213 7.35 381.983 7.812 381.983 9.184V9.366C378.889 9.716 376.887 10.234 376.887 12.012ZM382.081 10.374V10.85C382.081 12.628 380.947 13.174 379.757 13.174C378.847 13.174 378.301 12.698 378.301 11.984C378.301 10.948 379.771 10.612 382.081 10.374ZM386.43 14V3.85H385.156V14H386.43ZM388.045 10.766H392.497V9.562H388.045V10.766ZM402.153 12.376L400.151 3.85H398.471L396.595 12.376L394.635 3.85H393.067L395.643 14H397.379L399.297 5.656L401.257 14H402.993L405.527 3.85H404.029L402.153 12.376ZM407.187 10.654H412.983C413.151 8.274 411.765 6.342 409.469 6.342C407.411 6.342 405.815 7.868 405.815 10.248C405.815 12.474 407.131 14.182 409.511 14.182C411.345 14.182 412.535 13.118 412.885 11.816H411.569C411.247 12.558 410.631 13.062 409.511 13.062C408.391 13.062 407.243 12.278 407.187 10.654ZM407.201 9.562C407.313 8.05 408.335 7.434 409.469 7.434C410.813 7.434 411.611 8.498 411.639 9.562H407.201ZM418.808 8.666H420.138C419.9 7.238 418.794 6.328 417.17 6.328C415.504 6.328 414.16 7.098 414.16 8.428C414.16 9.828 415.28 10.304 416.302 10.514L417.422 10.738C418.234 10.906 418.948 11.228 418.948 11.984C418.948 12.684 418.164 13.104 417.198 13.104C416.078 13.104 415.476 12.53 415.28 11.564H413.936C414.076 12.88 415.196 14.182 417.17 14.182C418.892 14.182 420.236 13.328 420.236 11.844C420.236 10.388 419.032 9.87 417.66 9.604L416.596 9.394C415.868 9.254 415.448 8.974 415.448 8.372C415.448 7.686 416.288 7.42 417.03 7.42C417.912 7.42 418.612 7.77 418.808 8.666ZM422.215 4.578V6.468H421.025V7.49H422.215V12.11C422.215 13.678 422.551 14 423.993 14H424.917V12.936H424.273C423.545 12.936 423.489 12.74 423.489 11.956V7.49H424.917V6.468H423.489V4.578H422.215Z" fill="black"/>
<path d="M493.315 6.804C492.895 4.844 491.215 3.668 489.115 3.668C486.259 3.668 484.397 5.754 484.397 8.904C484.397 11.998 486.063 14.182 488.989 14.182C490.347 14.182 491.537 13.762 492.195 12.726L492.265 14H493.385V8.82H489.353V10.052H492.041V10.318C492.041 12.418 490.403 12.978 489.045 12.978C487.169 12.978 485.853 11.466 485.853 8.904C485.853 6.272 487.253 4.872 489.045 4.872C490.669 4.872 491.593 5.67 491.929 6.804H493.315ZM496.318 10.654H502.114C502.282 8.274 500.896 6.342 498.6 6.342C496.542 6.342 494.946 7.868 494.946 10.248C494.946 12.474 496.262 14.182 498.642 14.182C500.476 14.182 501.666 13.118 502.016 11.816H500.7C500.378 12.558 499.762 13.062 498.642 13.062C497.522 13.062 496.374 12.278 496.318 10.654ZM496.332 9.562C496.444 8.05 497.466 7.434 498.6 7.434C499.944 7.434 500.742 8.498 500.77 9.562H496.332ZM504.873 7.602V6.468H503.599V14H504.873V9.912C504.873 8.302 505.629 7.448 506.861 7.448C508.317 7.448 508.513 8.456 508.513 9.618V14H509.787V9.24C509.787 7.518 509.129 6.342 507.309 6.342C506.035 6.342 505.307 6.888 504.873 7.602ZM512.547 10.654H518.343C518.511 8.274 517.125 6.342 514.829 6.342C512.771 6.342 511.175 7.868 511.175 10.248C511.175 12.474 512.491 14.182 514.871 14.182C516.705 14.182 517.895 13.118 518.245 11.816H516.929C516.607 12.558 515.991 13.062 514.871 13.062C513.751 13.062 512.603 12.278 512.547 10.654ZM512.561 9.562C512.673 8.05 513.695 7.434 514.829 7.434C516.173 7.434 516.971 8.498 516.999 9.562H512.561ZM522.209 12.236L520.165 6.468H518.751L521.593 14H522.727L525.569 6.468H524.253L522.209 12.236ZM527.299 10.654H533.095C533.263 8.274 531.877 6.342 529.581 6.342C527.523 6.342 525.927 7.868 525.927 10.248C525.927 12.474 527.243 14.182 529.623 14.182C531.457 14.182 532.647 13.118 532.997 11.816H531.681C531.359 12.558 530.743 13.062 529.623 13.062C528.503 13.062 527.355 12.278 527.299 10.654ZM527.313 9.562C527.425 8.05 528.447 7.434 529.581 7.434C530.925 7.434 531.723 8.498 531.751 9.562H527.313ZM534.447 10.766H538.899V9.562H534.447V10.766ZM540.079 12.012C540.079 13.398 541.255 14.182 542.669 14.182C543.999 14.182 544.783 13.734 545.245 12.964C545.259 13.412 545.301 13.72 545.343 14H546.631C546.491 13.286 546.421 12.418 546.435 11.158L546.449 9.422C546.463 7.308 545.525 6.314 543.453 6.314C541.983 6.314 540.555 7.224 540.429 8.848H541.745C541.801 7.924 542.417 7.35 543.467 7.35C544.405 7.35 545.175 7.812 545.175 9.184V9.366C542.081 9.716 540.079 10.234 540.079 12.012ZM545.273 10.374V10.85C545.273 12.628 544.139 13.174 542.949 13.174C542.039 13.174 541.493 12.698 541.493 11.984C541.493 10.948 542.963 10.612 545.273 10.374ZM552.099 7.798V6.44C551.959 6.426 551.847 6.426 551.721 6.426C550.741 6.454 549.971 6.93 549.593 7.784V6.468H548.347V14H549.621V10.052C549.621 8.4 550.209 7.742 551.385 7.742C551.595 7.742 551.833 7.77 552.099 7.798ZM554.041 10.654H559.837C560.005 8.274 558.619 6.342 556.323 6.342C554.265 6.342 552.669 7.868 552.669 10.248C552.669 12.474 553.985 14.182 556.365 14.182C558.199 14.182 559.389 13.118 559.739 11.816H558.423C558.101 12.558 557.485 13.062 556.365 13.062C555.245 13.062 554.097 12.278 554.041 10.654ZM554.055 9.562C554.167 8.05 555.189 7.434 556.323 7.434C557.667 7.434 558.465 8.498 558.493 9.562H554.055ZM560.805 12.012C560.805 13.398 561.981 14.182 563.395 14.182C564.725 14.182 565.509 13.734 565.971 12.964C565.985 13.412 566.027 13.72 566.069 14H567.357C567.217 13.286 567.147 12.418 567.161 11.158L567.175 9.422C567.189 7.308 566.251 6.314 564.179 6.314C562.709 6.314 561.281 7.224 561.155 8.848H562.471C562.527 7.924 563.143 7.35 564.193 7.35C565.131 7.35 565.901 7.812 565.901 9.184V9.366C562.807 9.716 560.805 10.234 560.805 12.012ZM565.999 10.374V10.85C565.999 12.628 564.865 13.174 563.675 13.174C562.765 13.174 562.219 12.698 562.219 11.984C562.219 10.948 563.689 10.612 565.999 10.374Z" fill="black"/>
<path d="M609.115 10.766H607.729C607.407 12.068 606.413 12.978 604.803 12.978C602.913 12.978 601.569 11.466 601.569 8.904C601.569 6.272 602.969 4.872 604.761 4.872C606.385 4.872 607.365 5.824 607.673 7.084H609.059C608.625 4.914 606.931 3.668 604.831 3.668C601.961 3.668 600.113 5.754 600.113 8.904C600.113 11.998 601.807 14.182 604.719 14.182C606.917 14.182 608.667 13.006 609.115 10.766ZM611.556 10.654H617.352C617.52 8.274 616.134 6.342 613.838 6.342C611.78 6.342 610.184 7.868 610.184 10.248C610.184 12.474 611.5 14.182 613.88 14.182C615.714 14.182 616.904 13.118 617.254 11.816H615.938C615.616 12.558 615 13.062 613.88 13.062C612.76 13.062 611.612 12.278 611.556 10.654ZM611.57 9.562C611.682 8.05 612.704 7.434 613.838 7.434C615.182 7.434 615.98 8.498 616.008 9.562H611.57ZM620.11 7.602V6.468H618.836V14H620.11V9.912C620.11 8.302 620.866 7.448 622.098 7.448C623.554 7.448 623.75 8.456 623.75 9.618V14H625.024V9.24C625.024 7.518 624.366 6.342 622.546 6.342C621.272 6.342 620.544 6.888 620.11 7.602ZM627.294 4.578V6.468H626.104V7.49H627.294V12.11C627.294 13.678 627.63 14 629.072 14H629.996V12.936H629.352C628.624 12.936 628.568 12.74 628.568 11.956V7.49H629.996V6.468H628.568V4.578H627.294ZM635.235 7.798V6.44C635.095 6.426 634.983 6.426 634.857 6.426C633.877 6.454 633.107 6.93 632.729 7.784V6.468H631.483V14H632.757V10.052C632.757 8.4 633.345 7.742 634.521 7.742C634.731 7.742 634.969 7.77 635.235 7.798ZM635.738 12.012C635.738 13.398 636.914 14.182 638.328 14.182C639.658 14.182 640.442 13.734 640.904 12.964C640.918 13.412 640.96 13.72 641.002 14H642.29C642.15 13.286 642.08 12.418 642.094 11.158L642.108 9.422C642.122 7.308 641.184 6.314 639.112 6.314C637.642 6.314 636.214 7.224 636.088 8.848H637.404C637.46 7.924 638.076 7.35 639.126 7.35C640.064 7.35 640.834 7.812 640.834 9.184V9.366C637.74 9.716 635.738 10.234 635.738 12.012ZM640.932 10.374V10.85C640.932 12.628 639.798 13.174 638.608 13.174C637.698 13.174 637.152 12.698 637.152 11.984C637.152 10.948 638.622 10.612 640.932 10.374ZM645.28 14V3.85H644.006V14H645.28ZM646.895 10.766H651.347V9.562H646.895V10.766ZM653.171 3.85V14H660.059V12.768H654.599V9.394H659.737V8.162H654.599V5.082H660.059V3.85H653.171ZM661.181 12.012C661.181 13.398 662.357 14.182 663.771 14.182C665.101 14.182 665.885 13.734 666.347 12.964C666.361 13.412 666.403 13.72 666.445 14H667.733C667.593 13.286 667.523 12.418 667.537 11.158L667.551 9.422C667.565 7.308 666.627 6.314 664.555 6.314C663.085 6.314 661.657 7.224 661.531 8.848H662.847C662.903 7.924 663.519 7.35 664.569 7.35C665.507 7.35 666.277 7.812 666.277 9.184V9.366C663.183 9.716 661.181 10.234 661.181 12.012ZM666.375 10.374V10.85C666.375 12.628 665.241 13.174 664.051 13.174C663.141 13.174 662.595 12.698 662.595 11.984C662.595 10.948 664.065 10.612 666.375 10.374ZM673.762 8.666H675.092C674.854 7.238 673.748 6.328 672.124 6.328C670.458 6.328 669.114 7.098 669.114 8.428C669.114 9.828 670.234 10.304 671.256 10.514L672.376 10.738C673.188 10.906 673.902 11.228 673.902 11.984C673.902 12.684 673.118 13.104 672.152 13.104C671.032 13.104 670.43 12.53 670.234 11.564H668.89C669.03 12.88 670.15 14.182 672.124 14.182C673.846 14.182 675.19 13.328 675.19 11.844C675.19 10.388 673.986 9.87 672.614 9.604L671.55 9.394C670.822 9.254 670.402 8.974 670.402 8.372C670.402 7.686 671.242 7.42 671.984 7.42C672.866 7.42 673.566 7.77 673.762 8.666ZM677.169 4.578V6.468H675.979V7.49H677.169V12.11C677.169 13.678 677.505 14 678.947 14H679.871V12.936H679.227C678.499 12.936 678.443 12.74 678.443 11.956V7.49H679.871V6.468H678.443V4.578H677.169Z" fill="black"/>
<path d="M719.24 3.668C717.602 3.668 715.572 4.508 715.572 6.44C715.572 8.134 716.972 8.904 718.358 9.212L719.618 9.478C720.892 9.758 721.802 10.206 721.802 11.27C721.802 12.264 720.934 12.978 719.436 12.978C717.882 12.978 716.902 12.25 716.636 10.85H715.236C715.502 12.88 717.014 14.182 719.408 14.182C721.424 14.182 723.272 13.132 723.272 11.144C723.272 9.1 721.41 8.512 719.856 8.176L718.68 7.91C717.742 7.7 717.028 7.252 717.028 6.356C717.028 5.222 718.4 4.872 719.184 4.872C720.206 4.872 721.354 5.264 721.704 6.44H723.09C722.698 4.48 721.06 3.668 719.24 3.668ZM731.704 10.262C731.704 7.532 729.842 6.342 728.092 6.342C726.342 6.342 724.48 7.532 724.48 10.262C724.48 12.992 726.342 14.182 728.092 14.182C729.842 14.182 731.704 12.992 731.704 10.262ZM728.092 13.062C726.944 13.062 725.838 12.264 725.838 10.262C725.838 8.204 726.944 7.462 728.092 7.462C729.24 7.462 730.346 8.26 730.346 10.262C730.346 12.194 729.24 13.062 728.092 13.062ZM737.89 12.922V14H739.164V6.468H737.89V10.612C737.89 12.222 737.176 13.076 735.972 13.076C734.586 13.076 734.39 12.068 734.39 10.906V6.468H733.116V11.284C733.116 13.006 733.774 14.182 735.524 14.182C736.77 14.182 737.456 13.636 737.89 12.922ZM741.549 4.578V6.468H740.359V7.49H741.549V12.11C741.549 13.678 741.885 14 743.327 14H744.251V12.936H743.607C742.879 12.936 742.823 12.74 742.823 11.956V7.49H744.251V6.468H742.823V4.578H741.549ZM747.148 7.602V3.85H745.874V14H747.148V9.912C747.148 8.302 747.904 7.448 749.136 7.448C750.592 7.448 750.788 8.456 750.788 9.618V14H752.062V9.24C752.062 7.518 751.404 6.342 749.584 6.342C748.31 6.342 747.582 6.888 747.148 7.602Z" fill="black"/>
<path d="M845.887 3.85V14H852.775V12.768H847.315V9.394H852.453V8.162H847.315V5.082H852.775V3.85H845.887ZM853.897 12.012C853.897 13.398 855.073 14.182 856.487 14.182C857.817 14.182 858.601 13.734 859.063 12.964C859.077 13.412 859.119 13.72 859.161 14H860.449C860.309 13.286 860.239 12.418 860.253 11.158L860.267 9.422C860.281 7.308 859.343 6.314 857.271 6.314C855.801 6.314 854.373 7.224 854.247 8.848H855.563C855.619 7.924 856.235 7.35 857.285 7.35C858.223 7.35 858.993 7.812 858.993 9.184V9.366C855.899 9.716 853.897 10.234 853.897 12.012ZM859.091 10.374V10.85C859.091 12.628 857.957 13.174 856.767 13.174C855.857 13.174 855.311 12.698 855.311 11.984C855.311 10.948 856.781 10.612 859.091 10.374ZM866.477 8.666H867.807C867.569 7.238 866.463 6.328 864.839 6.328C863.173 6.328 861.829 7.098 861.829 8.428C861.829 9.828 862.949 10.304 863.971 10.514L865.091 10.738C865.903 10.906 866.617 11.228 866.617 11.984C866.617 12.684 865.833 13.104 864.867 13.104C863.747 13.104 863.145 12.53 862.949 11.564H861.605C861.745 12.88 862.865 14.182 864.839 14.182C866.561 14.182 867.905 13.328 867.905 11.844C867.905 10.388 866.701 9.87 865.329 9.604L864.265 9.394C863.537 9.254 863.117 8.974 863.117 8.372C863.117 7.686 863.957 7.42 864.699 7.42C865.581 7.42 866.281 7.77 866.477 8.666ZM869.885 4.578V6.468H868.695V7.49H869.885V12.11C869.885 13.678 870.221 14 871.663 14H872.587V12.936H871.943C871.215 12.936 871.159 12.74 871.159 11.956V7.49H872.587V6.468H871.159V4.578H869.885Z" fill="black"/>
<path d="M1006.83 14H1008.92V3.85H1007.49V12.488L1002.86 3.85H1000.76V14H1002.18V5.334L1006.83 14ZM1017.86 10.262C1017.86 7.532 1016 6.342 1014.25 6.342C1012.5 6.342 1010.64 7.532 1010.64 10.262C1010.64 12.992 1012.5 14.182 1014.25 14.182C1016 14.182 1017.86 12.992 1017.86 10.262ZM1014.25 13.062C1013.1 13.062 1012 12.264 1012 10.262C1012 8.204 1013.1 7.462 1014.25 7.462C1015.4 7.462 1016.51 8.26 1016.51 10.262C1016.51 12.194 1015.4 13.062 1014.25 13.062ZM1023.14 7.798V6.44C1023 6.426 1022.89 6.426 1022.76 6.426C1021.78 6.454 1021.01 6.93 1020.63 7.784V6.468H1019.39V14H1020.66V10.052C1020.66 8.4 1021.25 7.742 1022.43 7.742C1022.64 7.742 1022.87 7.77 1023.14 7.798ZM1024.73 4.578V6.468H1023.54V7.49H1024.73V12.11C1024.73 13.678 1025.06 14 1026.51 14H1027.43V12.936H1026.79C1026.06 12.936 1026 12.74 1026 11.956V7.49H1027.43V6.468H1026V4.578H1024.73ZM1030.33 7.602V3.85H1029.05V14H1030.33V9.912C1030.33 8.302 1031.08 7.448 1032.32 7.448C1033.77 7.448 1033.97 8.456 1033.97 9.618V14H1035.24V9.24C1035.24 7.518 1034.58 6.342 1032.76 6.342C1031.49 6.342 1030.76 6.888 1030.33 7.602ZM1036.74 10.766H1041.19V9.562H1036.74V10.766ZM1043.02 3.85V14H1049.9V12.768H1044.44V9.394H1049.58V8.162H1044.44V5.082H1049.9V3.85H1043.02ZM1051.03 12.012C1051.03 13.398 1052.2 14.182 1053.62 14.182C1054.95 14.182 1055.73 13.734 1056.19 12.964C1056.21 13.412 1056.25 13.72 1056.29 14H1057.58C1057.44 13.286 1057.37 12.418 1057.38 11.158L1057.4 9.422C1057.41 7.308 1056.47 6.314 1054.4 6.314C1052.93 6.314 1051.5 7.224 1051.38 8.848H1052.69C1052.75 7.924 1053.36 7.35 1054.41 7.35C1055.35 7.35 1056.12 7.812 1056.12 9.184V9.366C1053.03 9.716 1051.03 10.234 1051.03 12.012ZM1056.22 10.374V10.85C1056.22 12.628 1055.09 13.174 1053.9 13.174C1052.99 13.174 1052.44 12.698 1052.44 11.984C1052.44 10.948 1053.91 10.612 1056.22 10.374ZM1063.61 8.666H1064.94C1064.7 7.238 1063.59 6.328 1061.97 6.328C1060.3 6.328 1058.96 7.098 1058.96 8.428C1058.96 9.828 1060.08 10.304 1061.1 10.514L1062.22 10.738C1063.03 10.906 1063.75 11.228 1063.75 11.984C1063.75 12.684 1062.96 13.104 1062 13.104C1060.88 13.104 1060.28 12.53 1060.08 11.564H1058.74C1058.88 12.88 1060 14.182 1061.97 14.182C1063.69 14.182 1065.04 13.328 1065.04 11.844C1065.04 10.388 1063.83 9.87 1062.46 9.604L1061.4 9.394C1060.67 9.254 1060.25 8.974 1060.25 8.372C1060.25 7.686 1061.09 7.42 1061.83 7.42C1062.71 7.42 1063.41 7.77 1063.61 8.666ZM1067.01 4.578V6.468H1065.82V7.49H1067.01V12.11C1067.01 13.678 1067.35 14 1068.79 14H1069.72V12.936H1069.07C1068.34 12.936 1068.29 12.74 1068.29 11.956V7.49H1069.72V6.468H1068.29V4.578H1067.01Z" fill="black"/>
<path d="M7.448 73.8866C7.448 72.1786 6.104 71.2266 4.228 71.2266C2.072 71.2266 0.672 72.5566 0.7 74.5726H2.016C2.044 72.8926 3.108 72.2906 4.2 72.2906C5.404 72.2906 6.104 73.0046 6.104 74.0546C6.104 75.8466 4.004 77.7646 0.42 80.4106V81.5586H7.728V80.3686H2.156C4.998 78.3246 7.448 76.2386 7.448 73.8866ZM12.8778 81.7406C15.5798 81.7406 16.8258 79.6966 16.8258 76.4766C16.8258 73.2706 15.5798 71.2266 12.8778 71.2266C10.1758 71.2266 8.92981 73.2706 8.92981 76.4766C8.92981 79.6966 10.1758 81.7406 12.8778 81.7406ZM12.8778 72.2906C14.4738 72.2906 15.4678 73.6626 15.4678 76.4766C15.4678 79.3046 14.4738 80.6766 12.8778 80.6766C11.2818 80.6766 10.2878 79.3046 10.2878 76.4766C10.2878 73.6626 11.2818 72.2906 12.8778 72.2906ZM24.9617 73.8866C24.9617 72.1786 23.6177 71.2266 21.7417 71.2266C19.5857 71.2266 18.1857 72.5566 18.2137 74.5726H19.5297C19.5577 72.8926 20.6217 72.2906 21.7137 72.2906C22.9177 72.2906 23.6177 73.0046 23.6177 74.0546C23.6177 75.8466 21.5177 77.7646 17.9337 80.4106V81.5586H25.2417V80.3686H19.6697C22.5117 78.3246 24.9617 76.2386 24.9617 73.8866ZM28.2915 81.5586H29.5655V71.4086H28.6975C28.1375 72.5146 27.3955 72.6966 25.9395 72.7526V73.6206H28.2915V81.5586Z" fill="black"/>
<path d="M1035.46 143.861C1021.94 143.861 1010.92 132.816 1010.92 119.251C1010.92 105.685 1021.94 94.6406 1035.46 94.6406C1048.99 94.6406 1060 105.685 1060 119.251C1060 132.817 1049.05 143.861 1035.46 143.861Z" fill="#3D13CB" stroke="#00EAE6"/>
<path d="M401.626 119.26L401.626 119.262C401.685 130.704 392.417 140 380.946 140C369.537 140 360.266 130.695 360.266 119.26C360.266 107.824 369.546 98.5195 380.946 98.5195C392.356 98.5195 401.626 107.824 401.626 119.26Z" fill="#3D13CB" stroke="#00EAE6"/>
<path d="M75.9597 136.58C66.4148 136.58 58.6797 128.825 58.6797 119.25C58.6797 109.675 66.4148 101.92 75.9597 101.92C85.5046 101.92 93.2397 109.675 93.2397 119.25C93.2397 128.825 85.5046 136.58 75.9597 136.58Z" fill="#3D13CB" stroke="#00EAE6"/>
<path d="M222.53 136.129C213.245 136.129 205.699 128.564 205.699 119.249C205.699 109.934 213.245 102.369 222.53 102.369C231.816 102.369 239.362 109.934 239.362 119.249C239.362 128.564 231.816 136.129 222.53 136.129Z" fill="#3D13CB" stroke="#00EAE6"/>
<path d="M525.968 131.879C518.996 131.879 513.375 126.244 513.375 119.249C513.375 112.254 518.996 106.619 525.968 106.619C532.94 106.619 538.561 112.254 538.561 119.249C538.561 126.244 532.94 131.879 525.968 131.879Z" fill="#3D13CB" stroke="#00EAE6"/>
<path d="M639.507 131.299C632.854 131.299 627.492 125.924 627.492 119.249C627.492 112.574 632.854 107.199 639.507 107.199C646.16 107.199 651.522 112.574 651.522 119.249C651.522 125.866 646.159 131.299 639.507 131.299Z" fill="#3D13CB" stroke="#00EAE6"/>
<path d="M868.849 119.25L868.849 119.255C868.906 124.511 864.649 128.729 859.397 128.729C854.153 128.729 849.945 124.447 849.945 119.25C849.945 114.054 854.22 109.77 859.397 109.77C864.642 109.77 868.849 114.052 868.849 119.25Z" fill="#3D13CB" stroke="#00EAE6"/>
<mask id="path-17-inside-1_621_70" fill="white">
<path fill-rule="evenodd" clip-rule="evenodd" d="M1033.5 180.51C1014.14 180.51 996.88 171.49 985.684 157.42C947.054 110.717 894.087 123.022 873.941 139.54V139.537C869.438 143.234 863.678 145.451 857.398 145.451C850.097 145.451 843.499 142.454 838.76 137.619V137.621C820.452 118.931 766.224 119.551 749.152 136.381V136.375C744.832 140.633 738.907 143.26 732.37 143.26C726.072 143.26 720.341 140.821 716.067 136.834V136.841C698.536 120.491 681.065 117.671 660.074 140.301V140.285C654.447 146.353 646.417 150.15 637.507 150.15C629.201 150.15 621.661 146.851 616.118 141.489V141.49C593.94 120.03 573.269 118.371 549.057 143.531V143.53C542.718 150.115 533.822 154.209 523.965 154.209C514.966 154.209 506.764 150.793 500.579 145.181C477.354 125.29 453.427 118.562 421.256 155.91V155.899C411.002 167.793 395.848 175.32 378.944 175.32C362.872 175.32 348.385 168.519 338.187 157.632V157.639C306.025 123.302 280.801 126.096 252.662 152.306C244.368 160.415 233.032 165.41 220.529 165.41C207.712 165.41 196.118 160.157 187.771 151.68C159.021 122.949 135.192 123.036 106.449 151.849V151.833C98.129 160.176 86.6394 165.34 73.9607 165.34C48.6021 165.34 28 144.68 28 119.25C28 93.8201 48.6021 73.1602 73.9607 73.1602C86.6394 73.1602 98.129 78.3246 106.449 86.6675V86.6492C135.154 115.425 158.958 115.549 187.657 86.9323C196.01 78.389 207.65 73.0898 220.529 73.0898C233.022 73.0898 244.35 78.0768 252.642 86.1745C280.789 112.401 306.017 115.204 338.187 80.8594V80.8707C348.387 69.9819 362.875 63.1797 378.944 63.1797C395.848 63.1797 411.002 70.7068 421.256 82.6V82.5898C453.386 119.88 477.294 113.216 500.492 93.3927C506.685 87.7361 514.921 84.2891 523.965 84.2891C534.016 84.2891 543.072 88.5497 549.434 95.3705C573.32 119.955 593.793 118.39 615.696 97.4266C621.275 91.8197 628.988 88.3496 637.507 88.3496C646.417 88.3496 654.447 92.1466 660.074 98.2145V98.2109C680.962 120.74 698.37 118.046 715.832 101.889C720.131 97.7698 725.956 95.2402 732.37 95.2402C739.01 95.2402 745.018 97.9504 749.355 102.328C766.572 118.882 819.986 119.502 838.484 101.169C843.241 96.166 849.954 93.0508 857.398 93.0508C863.814 93.0508 869.687 95.3651 874.233 99.2075C894.673 115.677 947.699 127.674 986.186 80.4805V80.499C997.383 66.7723 1014.39 58 1033.43 58C1067.2 58 1094.55 85.42 1094.55 119.22C1094.61 153.08 1067.27 180.51 1033.5 180.51Z"/>
</mask>
<path d="M985.684 157.42L986.466 156.797L986.46 156.79L986.454 156.782L985.684 157.42ZM873.941 139.54H872.941V141.654L874.575 140.314L873.941 139.54ZM873.941 139.537H874.941V137.422L873.307 138.764L873.941 139.537ZM838.76 137.619L839.474 136.919L837.76 135.17V137.619H838.76ZM838.76 137.621L838.046 138.32L839.76 140.07V137.621H838.76ZM749.152 136.381H748.152V138.771L749.854 137.093L749.152 136.381ZM749.152 136.375H750.152V133.985L748.45 135.663L749.152 136.375ZM716.067 136.834L716.749 136.102L715.067 134.533V136.834H716.067ZM716.067 136.841L715.385 137.572L717.067 139.141V136.841H716.067ZM660.074 140.301H659.074V142.849L660.807 140.981L660.074 140.301ZM660.074 140.285H661.074V137.736L659.341 139.605L660.074 140.285ZM616.118 141.489L616.813 140.77L615.118 139.13V141.489H616.118ZM616.118 141.49L615.423 142.209L617.118 143.85V141.49H616.118ZM549.057 143.531H548.057V146.012L549.777 144.224L549.057 143.531ZM549.057 143.53H550.057V141.048L548.336 142.836L549.057 143.53ZM500.579 145.181L501.251 144.441L501.241 144.431L501.23 144.422L500.579 145.181ZM421.256 155.91H420.256V158.603L422.014 156.562L421.256 155.91ZM421.256 155.899H422.256V153.208L420.498 155.246L421.256 155.899ZM338.187 157.632L338.917 156.949L337.187 155.102V157.632H338.187ZM338.187 157.639L337.457 158.323L339.187 160.17V157.639H338.187ZM252.662 152.306L251.98 151.574L251.971 151.583L251.963 151.591L252.662 152.306ZM187.771 151.68L188.484 150.979L188.478 150.973L187.771 151.68ZM106.449 151.849H105.449V154.268L107.157 152.555L106.449 151.849ZM106.449 151.833H107.449V149.414L105.741 151.127L106.449 151.833ZM106.449 86.6675L105.741 87.3737L107.449 89.0864V86.6675H106.449ZM106.449 86.6492L107.157 85.9429L105.449 84.2307V86.6492H106.449ZM187.657 86.9323L188.363 87.6404L188.372 87.6314L187.657 86.9323ZM252.642 86.1745L251.944 86.89L251.952 86.8982L251.96 86.9062L252.642 86.1745ZM338.187 80.8594H339.187V78.3289L337.457 80.1758L338.187 80.8594ZM338.187 80.8707H337.187V83.401L338.917 81.5544L338.187 80.8707ZM421.256 82.6L420.498 83.253L422.256 85.2914V82.6H421.256ZM421.256 82.5898L422.013 81.9371L420.256 79.8973V82.5898H421.256ZM500.492 93.3927L501.142 94.153L501.154 94.1422L501.166 94.1311L500.492 93.3927ZM549.434 95.3705L548.703 96.0526L548.71 96.0601L548.717 96.0674L549.434 95.3705ZM615.696 97.4266L616.387 98.1491L616.396 98.1406L616.405 98.1319L615.696 97.4266ZM660.074 98.2145L659.341 98.8945L661.074 100.764V98.2145H660.074ZM660.074 98.2109L660.808 97.5311L659.074 95.6615V98.2109H660.074ZM715.832 101.889L716.512 102.623L716.518 102.617L716.524 102.611L715.832 101.889ZM749.355 102.328L748.645 103.032L748.653 103.04L748.662 103.049L749.355 102.328ZM838.484 101.169L839.188 101.879L839.198 101.868L839.209 101.858L838.484 101.169ZM874.233 99.2075L873.587 99.9712L873.596 99.9788L873.605 99.9862L874.233 99.2075ZM986.186 80.4805H987.186V77.6719L985.411 79.8485L986.186 80.4805ZM986.186 80.499H985.186V83.3069L986.961 81.1311L986.186 80.499ZM1094.55 119.22L1093.55 119.22L1093.55 119.222L1094.55 119.22ZM984.901 158.042C996.279 172.34 1013.82 181.51 1033.5 181.51V179.51C1014.45 179.51 997.481 170.639 986.466 156.797L984.901 158.042ZM874.575 140.314C884.449 132.218 902.486 125.083 922.847 125.772C943.162 126.459 965.789 134.935 984.913 158.057L986.454 156.782C966.95 133.201 943.778 124.479 922.915 123.773C902.099 123.068 883.579 130.345 873.307 138.767L874.575 140.314ZM872.941 139.537V139.54H874.941V139.537H872.941ZM857.398 146.451C863.918 146.451 869.9 144.148 874.576 140.31L873.307 138.764C868.975 142.319 863.438 144.451 857.398 144.451V146.451ZM838.046 138.319C842.965 143.338 849.817 146.451 857.398 146.451V144.451C850.376 144.451 844.033 141.57 839.474 136.919L838.046 138.319ZM839.76 137.621V137.619H837.76V137.621H839.76ZM749.854 137.093C753.952 133.053 760.358 129.92 768.046 127.81C775.716 125.705 784.575 124.642 793.488 124.681C802.401 124.719 811.335 125.859 819.156 128.135C826.99 130.416 833.633 133.816 838.046 138.32L839.475 136.921C834.733 132.081 827.732 128.549 819.715 126.215C811.686 123.878 802.563 122.72 793.497 122.681C784.431 122.642 775.387 123.721 767.517 125.882C759.663 128.037 752.889 131.293 748.45 135.668L749.854 137.093ZM748.152 136.375V136.381H750.152V136.375H748.152ZM748.45 135.663C744.309 139.744 738.633 142.26 732.37 142.26V144.26C739.18 144.26 745.355 141.522 749.854 137.087L748.45 135.663ZM732.37 142.26C726.335 142.26 720.846 139.924 716.749 136.102L715.385 137.565C719.837 141.718 725.808 144.26 732.37 144.26V142.26ZM715.067 136.834V136.841H717.067V136.834H715.067ZM716.749 136.11C707.903 127.86 698.915 122.87 689.359 122.953C679.79 123.037 669.932 128.203 659.341 139.621L660.807 140.981C671.208 129.768 680.58 125.03 689.377 124.953C698.187 124.877 706.7 129.472 715.385 137.572L716.749 136.11ZM661.074 140.301V140.285H659.074V140.301H661.074ZM659.341 139.605C653.895 145.478 646.127 149.15 637.507 149.15V151.15C646.708 151.15 655 147.228 660.807 140.965L659.341 139.605ZM637.507 149.15C629.471 149.15 622.177 145.959 616.813 140.77L615.423 142.207C621.144 147.742 628.931 151.15 637.507 151.15V149.15ZM615.118 141.489V141.49H617.118V141.489H615.118ZM616.813 140.772C605.641 129.961 594.689 123.979 583.346 124.028C571.996 124.077 560.533 130.163 548.336 142.837L549.777 144.224C561.792 131.738 572.771 126.074 583.355 126.028C593.944 125.982 604.417 131.56 615.423 142.209L616.813 140.772ZM550.057 143.531V143.53H548.057V143.531H550.057ZM548.336 142.836C542.178 149.234 533.539 153.209 523.965 153.209V155.209C534.105 155.209 543.258 150.997 549.777 144.223L548.336 142.836ZM523.965 153.209C515.224 153.209 507.259 149.892 501.251 144.441L499.907 145.922C506.269 151.694 514.708 155.209 523.965 155.209V153.209ZM501.23 144.422C489.558 134.426 477.524 127.567 464.234 128.082C450.928 128.597 436.665 136.488 420.498 155.257L422.014 156.562C438.017 137.984 451.804 130.565 464.311 130.08C476.833 129.595 488.375 136.046 499.929 145.941L501.23 144.422ZM422.256 155.91V155.899H420.256V155.91H422.256ZM420.498 155.246C410.426 166.929 395.544 174.32 378.944 174.32V176.32C396.151 176.32 411.578 168.656 422.013 156.552L420.498 155.246ZM378.944 174.32C363.16 174.32 348.934 167.642 338.917 156.949L337.457 158.316C347.836 169.396 362.584 176.32 378.944 176.32V174.32ZM337.187 157.632V157.639H339.187V157.632H337.187ZM338.917 156.956C322.757 139.703 308.173 131.594 293.939 131.268C279.708 130.942 266.122 138.402 251.98 151.574L253.343 153.038C267.34 140.001 280.436 132.959 293.893 133.267C307.346 133.576 321.455 141.238 337.457 158.323L338.917 156.956ZM251.963 151.591C243.848 159.525 232.76 164.41 220.529 164.41V166.41C233.304 166.41 244.888 161.305 253.361 153.021L251.963 151.591ZM220.529 164.41C207.991 164.41 196.65 159.273 188.484 150.979L187.059 152.382C195.585 161.042 207.433 166.41 220.529 166.41V164.41ZM188.478 150.973C174.027 136.531 160.64 129.153 147.105 129.186C133.572 129.218 120.188 136.661 105.741 151.143L107.157 152.555C121.453 138.224 134.356 131.216 147.11 131.186C159.863 131.155 172.766 138.098 187.064 152.388L188.478 150.973ZM107.449 151.849V151.833H105.449V151.849H107.449ZM105.741 151.127C97.6002 159.29 86.3621 164.34 73.9607 164.34V166.34C86.9167 166.34 98.6578 161.062 107.157 152.539L105.741 151.127ZM73.9607 164.34C49.157 164.34 29 144.13 29 119.25H27C27 145.23 48.0471 166.34 73.9607 166.34V164.34ZM29 119.25C29 94.3698 49.157 74.1602 73.9607 74.1602V72.1602C48.0471 72.1602 27 93.2705 27 119.25H29ZM73.9607 74.1602C86.3621 74.1602 97.6002 79.2105 105.741 87.3737L107.157 85.9614C98.6578 77.4387 86.9167 72.1602 73.9607 72.1602V74.1602ZM107.449 86.6675V86.6492H105.449V86.6675H107.449ZM105.741 87.3554C120.169 101.818 133.536 109.26 147.051 109.313C160.568 109.365 173.937 102.025 188.363 87.6404L186.951 86.2241C172.678 100.456 159.795 107.362 147.059 107.313C134.321 107.263 121.434 100.255 107.157 85.9429L105.741 87.3554ZM188.372 87.6314C196.545 79.2724 207.931 74.0898 220.529 74.0898V72.0898C207.37 72.0898 195.475 77.5056 186.942 86.2331L188.372 87.6314ZM220.529 74.0898C232.75 74.0898 243.83 78.9671 251.944 86.89L253.341 85.4591C244.87 77.1865 233.294 72.0898 220.529 72.0898V74.0898ZM251.96 86.9062C266.107 100.087 279.695 107.554 293.929 107.231C308.166 106.908 322.753 98.7993 338.917 81.543L337.457 80.1758C321.451 97.2643 307.339 104.926 293.883 105.232C280.424 105.537 267.325 98.4886 253.324 85.4429L251.96 86.9062ZM337.187 80.8594V80.8707H339.187V80.8594H337.187ZM338.917 81.5544C348.936 70.8585 363.164 64.1797 378.944 64.1797V62.1797C362.587 62.1797 347.838 69.1053 337.457 80.1871L338.917 81.5544ZM378.944 64.1797C395.544 64.1797 410.426 71.5702 420.498 83.253L422.013 81.9471C411.578 69.8434 396.151 62.1797 378.944 62.1797V64.1797ZM422.256 82.6V82.5898H420.256V82.6H422.256ZM420.498 83.2426C436.645 101.983 450.892 109.875 464.184 110.408C477.46 110.941 489.483 104.116 501.142 94.153L499.842 92.6325C488.303 102.493 476.773 108.912 464.264 108.41C451.769 107.909 437.997 100.487 422.013 81.9371L420.498 83.2426ZM501.166 94.1311C507.182 88.6362 515.18 85.2891 523.965 85.2891V83.2891C514.662 83.2891 506.188 86.836 499.817 92.6544L501.166 94.1311ZM523.965 85.2891C533.727 85.2891 542.522 89.4259 548.703 96.0526L550.165 94.6885C543.622 87.6736 534.305 83.2891 523.965 83.2891V85.2891ZM548.717 96.0674C560.752 108.455 572.082 114.415 583.303 114.479C594.518 114.543 605.35 108.713 616.387 98.1491L615.005 96.7042C604.139 107.104 593.784 112.538 583.314 112.479C572.851 112.42 562.002 106.871 550.151 94.6737L548.717 96.0674ZM616.405 98.1319C621.804 92.7055 629.266 89.3496 637.507 89.3496V87.3496C628.711 87.3496 620.745 90.9339 614.987 96.7213L616.405 98.1319ZM637.507 89.3496C646.127 89.3496 653.895 93.0216 659.341 98.8945L660.807 97.5346C655 91.2716 646.708 87.3496 637.507 87.3496V89.3496ZM661.074 98.2145V98.2109H659.074V98.2145H661.074ZM659.341 98.8908C669.879 110.257 679.695 115.429 689.224 115.557C698.742 115.685 707.699 110.777 716.512 102.623L715.153 101.155C706.504 109.157 698.025 113.675 689.251 113.557C680.489 113.439 671.157 108.694 660.808 97.5311L659.341 98.8908ZM716.524 102.611C720.644 98.6628 726.224 96.2402 732.37 96.2402V94.2402C725.688 94.2402 719.617 96.8769 715.141 101.166L716.524 102.611ZM732.37 96.2402C738.732 96.2402 744.487 98.8357 748.645 103.032L750.065 101.624C745.548 97.0651 739.288 94.2402 732.37 94.2402V96.2402ZM837.78 100.458C833.318 104.88 826.686 108.215 818.899 110.451C811.124 112.683 802.268 113.797 793.435 113.831C784.603 113.864 775.825 112.816 768.206 110.744C760.571 108.667 754.184 105.583 750.048 101.607L748.662 103.049C753.135 107.349 759.881 110.551 767.681 112.673C775.498 114.8 784.458 115.865 793.443 115.831C802.428 115.797 811.47 114.664 819.451 112.373C827.419 110.086 834.401 106.623 839.188 101.879L837.78 100.458ZM857.398 92.0508C849.668 92.0508 842.697 95.2867 837.759 100.479L839.209 101.858C843.785 97.0453 850.239 94.0508 857.398 94.0508V92.0508ZM874.878 98.4438C870.159 94.4545 864.059 92.0508 857.398 92.0508V94.0508C863.569 94.0508 869.216 96.2757 873.587 99.9712L874.878 98.4438ZM985.411 79.8485C966.355 103.215 943.748 111.889 923.401 112.719C903.008 113.55 884.882 106.504 874.86 98.4288L873.605 99.9862C884.024 108.381 902.631 115.567 923.482 114.717C944.38 113.864 967.53 104.94 986.961 81.1125L985.411 79.8485ZM987.186 80.499V80.4805H985.186V80.499H987.186ZM1033.43 57C1014.08 57 996.789 65.9186 985.411 79.8669L986.961 81.1311C997.977 67.6261 1014.71 59 1033.43 59V57ZM1095.55 119.22C1095.55 84.8695 1067.75 57 1033.43 57V59C1066.64 59 1093.55 85.9705 1093.55 119.22H1095.55ZM1033.5 181.51C1067.82 181.51 1095.61 153.629 1095.55 119.218L1093.55 119.222C1093.61 152.531 1066.71 179.51 1033.5 179.51V181.51Z" fill="#00EAE6" mask="url(#path-17-inside-1_621_70)"/>
<path d="M734.369 128.021C729.569 128.021 725.625 124.124 725.625 119.25C725.625 114.375 729.511 110.48 734.369 110.48C739.227 110.48 743.113 114.375 743.113 119.25C743.113 124.124 739.169 128.021 734.369 128.021Z" fill="#3D13CB" stroke="#00EAE6"/>
<path d="M7.448 207.107C7.448 205.399 6.104 204.447 4.228 204.447C2.072 204.447 0.672 205.777 0.7 207.793H2.016C2.044 206.113 3.108 205.511 4.2 205.511C5.404 205.511 6.104 206.225 6.104 207.275C6.104 209.067 4.004 210.985 0.42 213.631V214.779H7.728V213.589H2.156C4.998 211.545 7.448 209.459 7.448 207.107ZM12.8778 214.961C15.5798 214.961 16.8258 212.917 16.8258 209.697C16.8258 206.491 15.5798 204.447 12.8778 204.447C10.1758 204.447 8.92981 206.491 8.92981 209.697C8.92981 212.917 10.1758 214.961 12.8778 214.961ZM12.8778 205.511C14.4738 205.511 15.4678 206.883 15.4678 209.697C15.4678 212.525 14.4738 213.897 12.8778 213.897C11.2818 213.897 10.2878 212.525 10.2878 209.697C10.2878 206.883 11.2818 205.511 12.8778 205.511ZM24.9617 207.107C24.9617 205.399 23.6177 204.447 21.7417 204.447C19.5857 204.447 18.1857 205.777 18.2137 207.793H19.5297C19.5577 206.113 20.6217 205.511 21.7137 205.511C22.9177 205.511 23.6177 206.225 23.6177 207.275C23.6177 209.067 21.5177 210.985 17.9337 213.631V214.779H25.2417V213.589H19.6697C22.5117 211.545 24.9617 209.459 24.9617 207.107ZM30.3915 214.961C33.0935 214.961 34.3395 212.917 34.3395 209.697C34.3395 206.491 33.0935 204.447 30.3915 204.447C27.6895 204.447 26.4435 206.491 26.4435 209.697C26.4435 212.917 27.6895 214.961 30.3915 214.961ZM30.3915 205.511C31.9875 205.511 32.9815 206.883 32.9815 209.697C32.9815 212.525 31.9875 213.897 30.3915 213.897C28.7955 213.897 27.8015 212.525 27.8015 209.697C27.8015 206.883 28.7955 205.511 30.3915 205.511Z" fill="black"/>
<path d="M1034.14 305.009C1016.01 305.009 1001.23 290.293 1001.23 272.099C1001.23 253.906 1015.95 239.189 1034.14 239.189C1052.27 239.189 1067.05 253.906 1067.05 272.099C1067.05 290.293 1052.33 305.009 1034.14 305.009Z" fill="#3D13CB" stroke="#00EAE6"/>
<path d="M406.543 272.101L406.543 272.103C406.601 286.955 394.467 299.091 379.552 299.091C364.639 299.091 352.562 287.015 352.562 272.101C352.562 257.187 364.639 245.111 379.552 245.111C394.466 245.111 406.543 257.187 406.543 272.101Z" fill="#3D13CB" stroke="#00EAE6"/>
<path d="M73.7095 295.29C60.8565 295.29 50.5195 284.895 50.5195 272.1C50.5195 259.306 60.9157 248.91 73.7095 248.91C86.5034 248.91 96.8995 259.306 96.8995 272.1C96.8995 284.894 86.5034 295.29 73.7095 295.29Z" fill="#3D13CB" stroke="#00EAE6"/>
<path d="M220.688 294.78C208.154 294.78 198.008 284.644 198.008 272.1C198.008 259.556 208.144 249.42 220.688 249.42C233.222 249.42 243.368 259.556 243.368 272.1C243.368 284.644 233.232 294.78 220.688 294.78Z" fill="#3D13CB" stroke="#00EAE6"/>
<path d="M523.983 289.95C514.148 289.95 506.133 281.993 506.133 272.1C506.133 262.206 514.089 254.25 523.983 254.25C533.877 254.25 541.833 262.206 541.833 272.1C541.833 281.994 533.877 289.95 523.983 289.95Z" fill="#3D13CB" stroke="#00EAE6"/>
<path d="M638.842 288.341C629.848 288.341 622.602 281.095 622.602 272.101C622.602 263.107 629.848 255.861 638.842 255.861C647.835 255.861 655.082 263.107 655.082 272.101C655.082 281.095 647.835 288.341 638.842 288.341Z" fill="#3D13CB" stroke="#00EAE6"/>
<path d="M858.352 286.22C850.579 286.22 844.242 279.874 844.242 272.11C844.242 264.346 850.588 258 858.352 258C866.126 258 872.462 264.346 872.462 272.11C872.462 279.874 866.116 286.22 858.352 286.22Z" fill="#3D13CB" stroke="#00EAE6"/>
<path d="M732.97 283.581C726.616 283.581 721.5 278.464 721.5 272.111C721.5 265.757 726.616 260.641 732.97 260.641C739.324 260.641 744.44 265.757 744.44 272.111C744.44 278.464 739.324 283.581 732.97 283.581Z" fill="#3D13CB" stroke="#00EAE6"/>
<mask id="path-29-inside-2_621_70" fill="white">
<path fill-rule="evenodd" clip-rule="evenodd" d="M1035.91 353.22C1012.43 353.22 991.283 343.247 976.474 327.307C951.551 301.25 931.535 301.93 908.322 323.881V323.88C895.55 335.964 878.311 343.37 859.352 343.37C835.157 343.37 813.763 331.309 800.879 312.856C780.329 284.556 765.15 287.957 752.574 296.713C747.402 300.62 740.957 302.94 733.973 302.94C725.744 302.94 718.278 299.734 712.754 294.5C698.992 282.425 686.229 281.015 669.833 298.968C662.315 307.633 651.222 313.11 638.842 313.11C627.677 313.11 617.558 308.655 610.165 301.424C592.644 284.901 577.466 284.263 558.521 304.111V304.086C550.075 312.938 538.163 318.45 524.983 318.45C513.532 318.45 503.058 314.309 494.975 307.441C477.055 292.665 459.426 290.226 436.186 317.543C422.888 334.096 402.471 344.69 379.581 344.69C358.523 344.69 339.578 335.728 326.323 321.421V321.45C302.715 295.979 283.984 296.519 262.805 315.685C251.902 326.209 237.051 332.68 220.691 332.68C203.685 332.68 188.324 325.687 177.326 314.418C156.296 293.687 138.723 293.489 117.738 313.887C106.69 325.52 91.0666 332.77 73.7413 332.77V332.78C40.2013 332.78 13.0312 305.61 13.0312 272.13C13.0312 238.65 40.2012 211.42 73.6712 211.42C90.6032 211.42 105.912 218.344 116.921 229.508C138.278 250.721 156.04 250.78 177.354 229.752C188.351 218.5 203.699 211.52 220.691 211.52C236.964 211.52 251.729 217.921 262.608 228.346C283.868 247.687 302.642 248.3 326.323 222.76V222.787C339.583 208.508 358.52 199.556 379.511 199.52C401.956 199.52 421.999 209.7 435.312 225.682V225.651V225.641C458.77 253.796 476.515 251.78 494.48 237.186C502.628 230.063 513.297 225.75 524.983 225.75C538.523 225.75 550.697 231.54 559.167 240.781C577.655 259.791 592.596 259.145 609.754 243.183C617.181 235.713 627.469 231.09 638.842 231.09C651.217 231.09 662.306 236.562 669.823 245.221C686.225 263.195 699.001 261.776 712.758 249.696C718.282 244.464 725.746 241.26 733.973 241.26C741.07 241.26 747.599 243.645 752.805 247.658C765.279 256.253 780.341 259.449 800.65 231.67C813.498 213.044 834.986 200.85 859.352 200.85C878.519 200.85 895.906 208.396 908.706 220.683C931.913 242.426 951.97 242.816 976.982 216.361V216.375C991.766 200.748 1012.7 191 1035.91 191C1080.72 191 1117.02 227.31 1117.02 272.11C1117.02 316.85 1080.71 353.22 1035.91 353.22Z"/>
</mask>
<path d="M976.474 327.307L977.206 326.626L977.201 326.621L977.196 326.616L976.474 327.307ZM908.322 323.881H907.322V326.203L909.009 324.608L908.322 323.881ZM908.322 323.88H909.322V321.557L907.635 323.154L908.322 323.88ZM800.879 312.856L801.699 312.283L801.694 312.276L801.689 312.268L800.879 312.856ZM752.574 296.713L752.003 295.893L751.987 295.904L751.972 295.915L752.574 296.713ZM712.754 294.5L713.442 293.774L713.428 293.761L713.414 293.749L712.754 294.5ZM669.833 298.968L669.095 298.294L669.086 298.303L669.078 298.313L669.833 298.968ZM610.165 301.424L610.864 300.709L610.858 300.703L610.851 300.697L610.165 301.424ZM558.521 304.111H557.521V306.607L559.245 304.802L558.521 304.111ZM558.521 304.086H559.521V301.589L557.798 303.395L558.521 304.086ZM494.975 307.441L495.623 306.679L495.617 306.674L495.612 306.67L494.975 307.441ZM436.186 317.543L435.424 316.896L435.415 316.906L435.406 316.917L436.186 317.543ZM326.323 321.421L327.056 320.742L325.323 318.87V321.421H326.323ZM326.323 321.45L325.589 322.13L327.323 324V321.45H326.323ZM262.805 315.685L262.134 314.944L262.122 314.955L262.11 314.966L262.805 315.685ZM177.326 314.418L178.041 313.719L178.035 313.712L178.028 313.705L177.326 314.418ZM117.738 313.887L117.041 313.17L117.026 313.184L117.013 313.199L117.738 313.887ZM73.7413 332.77V331.77H72.7413V332.77H73.7413ZM73.7413 332.78V333.78H74.7413V332.78H73.7413ZM116.921 229.508L116.209 230.21L116.216 230.217L116.921 229.508ZM177.354 229.752L178.057 230.464L178.063 230.458L178.07 230.451L177.354 229.752ZM262.608 228.346L261.916 229.068L261.925 229.077L261.935 229.085L262.608 228.346ZM326.323 222.76H327.323V220.211L325.59 222.08L326.323 222.76ZM326.323 222.787H325.323V225.334L327.056 223.468L326.323 222.787ZM379.511 199.52L379.511 198.52L379.509 198.52L379.511 199.52ZM435.312 225.682L434.544 226.322L436.312 228.445V225.682H435.312ZM435.312 225.641L436.081 225.001L434.312 222.878V225.641H435.312ZM494.48 237.186L495.11 237.962L495.124 237.951L495.138 237.939L494.48 237.186ZM559.167 240.781L558.43 241.457L558.44 241.468L558.45 241.479L559.167 240.781ZM609.754 243.183L610.435 243.915L610.45 243.902L610.464 243.888L609.754 243.183ZM669.823 245.221L669.068 245.876L669.076 245.886L669.085 245.895L669.823 245.221ZM712.758 249.696L713.418 250.447L713.432 250.435L713.446 250.422L712.758 249.696ZM752.805 247.658L752.194 248.45L752.216 248.466L752.238 248.482L752.805 247.658ZM800.65 231.67L801.457 232.26L801.466 232.249L801.473 232.238L800.65 231.67ZM908.706 220.683L908.013 221.404L908.022 221.412L908.706 220.683ZM976.982 216.361H977.982V213.848L976.256 215.674L976.982 216.361ZM976.982 216.375H975.982V218.887L977.709 217.062L976.982 216.375ZM975.741 327.987C990.732 344.123 1012.14 354.22 1035.91 354.22V352.22C1012.72 352.22 991.834 342.372 977.206 326.626L975.741 327.987ZM909.009 324.608C920.536 313.708 931.094 308.26 941.725 308.591C952.362 308.922 963.363 315.047 975.751 327.998L977.196 326.616C964.661 313.51 953.193 306.947 941.788 306.591C930.377 306.236 919.321 312.104 907.635 323.155L909.009 324.608ZM907.322 323.88V323.881H909.322V323.88H907.322ZM859.352 344.37C878.576 344.37 896.059 336.859 909.01 324.607L907.635 323.154C895.041 335.069 878.045 342.37 859.352 342.37V344.37ZM800.06 313.428C813.122 332.138 834.817 344.37 859.352 344.37V342.37C835.497 342.37 814.403 330.48 801.699 312.283L800.06 313.428ZM801.689 312.268C791.353 298.035 782.229 291.573 773.933 289.908C765.604 288.236 758.381 291.452 752.003 295.893L753.146 297.534C759.343 293.218 765.997 290.355 773.539 291.869C781.114 293.389 789.855 299.376 800.07 313.443L801.689 312.268ZM751.972 295.915C746.967 299.695 740.732 301.94 733.973 301.94V303.94C741.182 303.94 747.837 301.544 753.177 297.511L751.972 295.915ZM733.973 301.94C726.009 301.94 718.787 298.838 713.442 293.774L712.066 295.226C717.77 300.629 725.479 303.94 733.973 303.94V301.94ZM713.414 293.749C706.452 287.64 699.57 284.072 692.226 284.475C684.887 284.878 677.369 289.233 669.095 298.294L670.571 299.642C678.692 290.75 685.755 286.834 692.336 286.472C698.913 286.111 705.294 289.285 712.095 295.252L713.414 293.749ZM669.078 298.313C661.742 306.768 650.92 312.11 638.842 312.11V314.11C651.524 314.11 662.889 308.498 670.588 299.623L669.078 298.313ZM638.842 312.11C627.948 312.11 618.078 307.764 610.864 300.709L609.466 302.139C617.038 309.545 627.405 314.11 638.842 314.11V312.11ZM610.851 300.697C602.012 292.361 593.589 287.861 584.847 288.129C576.109 288.397 567.345 293.419 557.798 303.421L559.245 304.802C568.643 294.956 576.94 290.373 584.908 290.128C592.871 289.884 600.798 293.965 609.479 302.152L610.851 300.697ZM559.521 304.111V304.086H557.521V304.111H559.521ZM557.798 303.395C549.532 312.058 537.878 317.45 524.983 317.45V319.45C538.447 319.45 550.617 313.818 559.245 304.776L557.798 303.395ZM524.983 317.45C513.778 317.45 503.532 313.399 495.623 306.679L494.328 308.203C502.585 315.219 513.287 319.45 524.983 319.45V317.45ZM495.612 306.67C486.568 299.213 477.418 294.715 467.476 295.712C457.548 296.708 447.114 303.154 435.424 316.896L436.947 318.191C448.497 304.615 458.498 298.622 467.675 297.702C476.838 296.783 485.463 300.894 494.339 308.213L495.612 306.67ZM435.406 316.917C422.29 333.244 402.155 343.69 379.581 343.69V345.69C402.787 345.69 423.486 334.949 436.965 318.17L435.406 316.917ZM379.581 343.69C358.813 343.69 340.131 334.853 327.056 320.742L325.589 322.101C339.026 336.604 358.233 345.69 379.581 345.69V343.69ZM325.323 321.421V321.45H327.323V321.421H325.323ZM327.056 320.77C315.182 307.959 304.374 301.507 293.717 300.83C283.044 300.152 272.81 305.282 262.134 314.944L263.476 316.427C273.979 306.922 283.7 302.198 293.59 302.826C303.495 303.456 313.856 309.47 325.589 322.13L327.056 320.77ZM262.11 314.966C251.386 325.316 236.782 331.68 220.691 331.68V333.68C237.32 333.68 252.417 327.101 263.499 316.405L262.11 314.966ZM220.691 331.68C203.965 331.68 188.859 324.803 178.041 313.719L176.61 315.116C187.789 326.571 203.405 333.68 220.691 333.68V331.68ZM178.028 313.705C167.435 303.263 157.548 297.824 147.525 297.729C137.497 297.634 127.615 302.891 117.041 313.17L118.435 314.604C128.845 304.485 138.243 299.641 147.506 299.729C156.773 299.816 166.187 304.841 176.624 315.13L178.028 313.705ZM117.013 313.199C106.146 324.641 90.7816 331.77 73.7413 331.77V333.77C91.3516 333.77 107.233 326.4 118.463 314.576L117.013 313.199ZM72.7413 332.77V332.78H74.7413V332.77H72.7413ZM73.7413 331.78C40.7529 331.78 14.0312 305.057 14.0312 272.13H12.0312C12.0312 306.163 39.6496 333.78 73.7413 333.78V331.78ZM14.0312 272.13C14.0312 239.201 40.7549 212.42 73.6712 212.42V210.42C39.6476 210.42 12.0312 238.099 12.0312 272.13H14.0312ZM73.6712 212.42C90.3248 212.42 105.38 219.229 116.209 230.21L117.633 228.806C106.443 217.459 90.8815 210.42 73.6712 210.42V212.42ZM116.216 230.217C126.972 240.9 136.991 246.431 147.15 246.47C157.31 246.509 167.321 241.055 178.057 230.464L176.652 229.04C166.074 239.476 156.546 244.506 147.157 244.47C137.767 244.434 128.227 239.328 117.625 228.798L116.216 230.217ZM178.07 230.451C188.885 219.384 203.979 212.52 220.691 212.52V210.52C203.42 210.52 187.816 217.616 176.639 229.053L178.07 230.451ZM220.691 212.52C236.696 212.52 251.216 218.815 261.916 229.068L263.3 227.624C252.242 217.028 237.231 210.52 220.691 210.52V212.52ZM261.935 229.085C272.651 238.834 282.915 244.027 293.618 243.381C304.307 242.737 315.145 236.286 327.056 223.44L325.59 222.08C313.819 234.774 303.431 240.786 293.497 241.385C283.578 241.983 273.826 237.199 263.281 227.606L261.935 229.085ZM325.323 222.76V222.787H327.323V222.76H325.323ZM327.056 223.468C340.135 209.384 358.811 200.556 379.513 200.52L379.509 198.52C358.229 198.557 339.031 207.633 325.59 222.107L327.056 223.468ZM379.511 200.52C401.646 200.52 421.412 210.558 434.544 226.322L436.081 225.042C422.586 208.841 402.266 198.52 379.511 198.52V200.52ZM436.312 225.682V225.651H434.312V225.682H436.312ZM436.312 225.651V225.641H434.312V225.651H436.312ZM434.544 226.281C446.339 240.437 456.849 247.2 466.833 248.437C476.841 249.677 486.038 245.332 495.11 237.962L493.849 236.41C484.957 243.634 476.3 247.594 467.079 246.452C457.835 245.306 447.744 238.999 436.081 225.001L434.544 226.281ZM495.138 237.939C503.11 230.969 513.547 226.75 524.983 226.75V224.75C513.046 224.75 502.145 229.157 493.821 236.433L495.138 237.939ZM524.983 226.75C538.231 226.75 550.141 232.414 558.43 241.457L559.904 240.106C551.252 230.666 538.814 224.75 524.983 224.75V226.75ZM558.45 241.479C567.772 251.064 576.363 255.867 584.933 256.096C593.505 256.326 601.775 251.972 610.435 243.915L609.073 242.451C600.576 250.356 592.796 254.306 584.986 254.097C577.173 253.888 569.049 249.508 559.884 240.084L558.45 241.479ZM610.464 243.888C617.71 236.599 627.745 232.09 638.842 232.09V230.09C627.192 230.09 616.652 234.826 609.045 242.478L610.464 243.888ZM638.842 232.09C650.915 232.09 661.733 237.428 669.068 245.876L670.579 244.565C662.879 235.697 651.518 230.09 638.842 230.09V232.09ZM669.085 245.895C677.363 254.966 684.885 259.325 692.228 259.727C699.575 260.131 706.459 256.558 713.418 250.447L712.098 248.944C705.3 254.914 698.918 258.091 692.337 257.73C685.753 257.369 678.686 253.45 670.562 244.547L669.085 245.895ZM713.446 250.422C718.791 245.36 726.011 242.26 733.973 242.26V240.26C725.481 240.26 717.773 243.569 712.07 248.97L713.446 250.422ZM733.973 242.26C740.842 242.26 747.158 244.567 752.194 248.45L753.416 246.866C748.04 242.722 741.298 240.26 733.973 240.26V242.26ZM752.238 248.482C758.569 252.844 765.737 255.962 773.989 254.284C782.209 252.613 791.242 246.233 801.457 232.26L799.843 231.08C789.75 244.886 781.097 250.798 773.59 252.324C766.116 253.844 759.516 251.068 753.372 246.835L752.238 248.482ZM859.352 199.85C834.644 199.85 812.853 212.217 799.827 231.102L801.473 232.238C814.142 213.872 835.328 201.85 859.352 201.85V199.85ZM909.398 219.961C896.419 207.502 878.787 199.85 859.352 199.85V201.85C878.251 201.85 895.392 209.289 908.014 221.404L909.398 219.961ZM976.256 215.674C963.821 228.826 952.783 235.123 942.123 235.597C931.474 236.071 920.911 230.747 909.39 219.953L908.022 221.412C919.708 232.362 930.777 238.104 942.212 237.595C953.635 237.087 965.132 230.351 977.709 217.048L976.256 215.674ZM977.982 216.375V216.361H975.982V216.375H977.982ZM1035.91 190C1012.41 190 991.221 199.87 976.256 215.687L977.709 217.062C992.312 201.627 1012.99 192 1035.91 192V190ZM1118.02 272.11C1118.02 226.758 1081.28 190 1035.91 190V192C1080.17 192 1116.02 227.862 1116.02 272.11H1118.02ZM1035.91 354.22C1081.27 354.22 1118.02 317.402 1118.02 272.11H1116.02C1116.02 316.298 1080.16 352.22 1035.91 352.22V354.22Z" fill="#00EAE6" mask="url(#path-29-inside-2_621_70)"/>
<path d="M8.448 382.148C8.448 380.44 7.104 379.488 5.228 379.488C3.072 379.488 1.672 380.818 1.7 382.834H3.016C3.044 381.154 4.108 380.552 5.2 380.552C6.404 380.552 7.104 381.266 7.104 382.316C7.104 384.108 5.004 386.026 1.42 388.672V389.82H8.728V388.63H3.156C5.998 386.586 8.448 384.5 8.448 382.148ZM13.8778 390.002C16.5798 390.002 17.8258 387.958 17.8258 384.738C17.8258 381.532 16.5798 379.488 13.8778 379.488C11.1758 379.488 9.92981 381.532 9.92981 384.738C9.92981 387.958 11.1758 390.002 13.8778 390.002ZM13.8778 380.552C15.4738 380.552 16.4678 381.924 16.4678 384.738C16.4678 387.566 15.4738 388.938 13.8778 388.938C12.2818 388.938 11.2878 387.566 11.2878 384.738C11.2878 381.924 12.2818 380.552 13.8778 380.552ZM21.0337 389.82H22.3077V379.67H21.4397C20.8797 380.776 20.1377 380.958 18.6817 381.014V381.882H21.0337V389.82ZM30.206 385.018C30.136 387.37 29.268 388.938 27.7 388.938C26.664 388.938 25.978 388.378 25.81 387.468H24.424C24.634 388.756 25.572 390.002 27.56 390.002C30.486 390.002 31.522 387.258 31.522 384.388C31.522 381.252 30.36 379.488 27.826 379.488C25.656 379.488 24.256 381.098 24.256 382.974C24.256 385.018 25.642 386.432 27.518 386.432C28.862 386.432 29.744 385.816 30.206 385.018ZM27.84 380.552C29.184 380.552 30.038 381.518 30.038 382.918C30.038 384.304 29.156 385.312 27.826 385.312C26.51 385.312 25.614 384.304 25.614 382.918C25.614 381.532 26.524 380.552 27.84 380.552Z" fill="black"/>
<mask id="path-32-inside-3_621_70" fill="white">
<path fill-rule="evenodd" clip-rule="evenodd" d="M1034.91 528.04C1008.68 528.04 985.332 515.723 970.321 496.57L970.257 496.488C970.211 496.429 970.165 496.37 970.119 496.311C970.042 496.211 969.964 496.111 969.887 496.011L969.783 495.875C932.748 448.969 905.58 459.257 882.711 477.16V477.153C875.997 482.414 867.54 485.55 858.35 485.55C846.668 485.55 836.164 480.477 828.925 472.412C802.623 443.836 773.402 447.795 752.684 466.214C747.611 471.169 740.665 474.22 732.969 474.22C725.575 474.22 718.847 471.377 713.819 466.725C699.378 454.151 685.608 451.996 667.58 472.349V472.337C660.296 480.559 649.659 485.741 637.839 485.741C627.169 485.741 617.487 481.542 610.354 474.705C593.428 459.138 578.406 458.015 559.495 477.98C550.753 487.688 538.085 493.79 523.981 493.79C512.039 493.79 501.122 489.414 492.749 482.175C474.815 467.293 457.41 465.334 434.536 492.23C421.234 508.343 401.115 518.609 378.581 518.609C357.522 518.609 338.577 509.647 325.321 495.339V495.37C301.541 469.714 282.711 470.448 261.341 490.025C250.488 500.301 235.83 506.599 219.689 506.599C202.678 506.599 187.313 499.603 176.314 488.328C155.152 467.487 137.491 467.444 116.311 488.274C105.277 499.658 89.8227 506.731 72.71 506.731C39.17 506.731 12 479.561 12 446.021C12 412.481 39.17 385.311 72.71 385.311C89.8999 385.311 105.417 392.447 116.46 403.921C137.503 424.545 155.083 424.523 176.102 403.929C187.116 392.526 202.568 385.439 219.689 385.439C235.962 385.439 250.728 391.842 261.607 402.267C282.867 421.607 301.64 422.219 325.321 396.68V396.707C338.575 382.421 357.507 373.476 378.511 373.439C400.826 373.439 420.766 383.502 434.08 399.325V399.289V399.279C457.073 426.593 474.52 424.872 492.477 410.098C500.884 402.72 511.906 398.25 523.981 398.25C538.097 398.25 550.78 404.365 559.524 414.093C578.427 434.021 593.439 432.896 610.34 417.349C617.475 410.505 627.163 406.301 637.839 406.301C649.875 406.301 660.655 411.644 667.937 420.09C685.803 440.029 699.493 437.802 713.851 425.286C718.876 420.651 725.591 417.82 732.969 417.82C740.404 417.82 747.164 420.694 752.201 425.391C772.928 444.174 802.367 448.418 828.856 419.702C836.096 411.594 846.627 406.49 858.35 406.49C867.813 406.49 876.5 409.816 883.305 415.362C906.073 432.984 933.12 442.704 969.888 396.051C984.891 376.566 1008.45 364 1034.91 364C1080.17 364 1116.93 400.76 1116.93 446.02C1116.93 491.28 1080.24 528.04 1034.91 528.04Z"/>
</mask>
<path d="M970.321 496.57L969.533 497.186L969.534 497.186L970.321 496.57ZM970.257 496.488L969.469 497.104L969.469 497.104L970.257 496.488ZM970.119 496.311L969.33 496.925L969.33 496.925L970.119 496.311ZM969.887 496.011L969.094 496.62L969.095 496.621L969.887 496.011ZM969.783 495.875L970.576 495.266L970.568 495.256L969.783 495.875ZM882.711 477.16H881.711V479.213L883.327 477.947L882.711 477.16ZM882.711 477.153H883.711V475.099L882.094 476.366L882.711 477.153ZM828.925 472.412L829.669 471.744L829.661 471.735L828.925 472.412ZM752.684 466.214L752.019 465.467L752.002 465.483L751.985 465.499L752.684 466.214ZM713.819 466.725L714.498 465.991L714.487 465.98L714.476 465.97L713.819 466.725ZM667.58 472.349H666.58V474.987L668.329 473.013L667.58 472.349ZM667.58 472.337H668.58V469.7L666.832 471.673L667.58 472.337ZM610.354 474.705L611.046 473.983L611.038 473.976L611.031 473.969L610.354 474.705ZM559.495 477.98L558.769 477.292L558.76 477.301L558.751 477.31L559.495 477.98ZM492.749 482.175L493.403 481.419L493.395 481.412L493.387 481.406L492.749 482.175ZM434.536 492.23L433.774 491.583L433.769 491.588L433.765 491.594L434.536 492.23ZM325.321 495.339L326.054 494.659L324.321 492.788V495.339H325.321ZM325.321 495.37L324.587 496.049L326.321 497.92V495.37H325.321ZM261.341 490.025L260.666 489.288L260.66 489.294L260.654 489.299L261.341 490.025ZM176.314 488.328L177.03 487.63L177.023 487.622L177.016 487.615L176.314 488.328ZM116.311 488.274L115.61 487.561L115.601 487.57L115.593 487.578L116.311 488.274ZM116.46 403.921L115.739 404.615L115.749 404.625L115.76 404.635L116.46 403.921ZM176.102 403.929L176.802 404.644L176.812 404.634L176.822 404.624L176.102 403.929ZM261.607 402.267L260.915 402.989L260.924 402.998L260.934 403.006L261.607 402.267ZM325.321 396.68H326.321V394.13L324.588 396L325.321 396.68ZM325.321 396.707H324.321V399.255L326.054 397.387L325.321 396.707ZM378.511 373.439L378.511 372.439L378.509 372.439L378.511 373.439ZM434.08 399.325L433.315 399.969L435.08 402.066V399.325H434.08ZM434.08 399.279L434.845 398.635L433.08 396.539V399.279H434.08ZM492.477 410.098L493.113 410.87L493.125 410.86L493.137 410.849L492.477 410.098ZM559.524 414.093L558.78 414.762L558.789 414.772L558.799 414.781L559.524 414.093ZM610.34 417.349L611.017 418.085L611.025 418.078L611.033 418.071L610.34 417.349ZM667.937 420.09L667.179 420.743L667.185 420.75L667.192 420.757L667.937 420.09ZM713.851 425.286L714.508 426.04L714.519 426.031L714.529 426.021L713.851 425.286ZM752.201 425.391L751.519 426.122L751.524 426.127L751.529 426.132L752.201 425.391ZM828.856 419.702L829.591 420.38L829.597 420.374L829.602 420.368L828.856 419.702ZM883.305 415.362L882.673 416.138L882.683 416.146L882.693 416.153L883.305 415.362ZM969.888 396.051L970.674 396.67L970.681 396.661L969.888 396.051ZM969.534 497.186C984.726 516.571 1008.36 529.04 1034.91 529.04V527.04C1009 527.04 985.937 514.875 971.108 495.953L969.534 497.186ZM969.469 497.104L969.533 497.186L971.108 495.953L971.044 495.871L969.469 497.104ZM969.33 496.925C969.376 496.984 969.422 497.044 969.469 497.104L971.045 495.872C970.999 495.814 970.954 495.756 970.909 495.697L969.33 496.925ZM969.095 496.621C969.173 496.722 969.251 496.824 969.33 496.925L970.909 495.697C970.832 495.599 970.756 495.5 970.679 495.401L969.095 496.621ZM968.99 496.484L969.094 496.62L970.68 495.402L970.576 495.266L968.99 496.484ZM883.327 477.947C894.713 469.034 906.967 462.186 920.861 463.211C934.739 464.235 950.559 473.142 968.998 496.495L970.568 495.256C951.972 471.703 935.691 462.3 921.008 461.217C906.342 460.135 893.578 467.382 882.095 476.373L883.327 477.947ZM881.711 477.153V477.16H883.711V477.153H881.711ZM858.35 486.55C867.771 486.55 876.445 483.334 883.328 477.94L882.094 476.366C875.55 481.494 867.308 484.55 858.35 484.55V486.55ZM828.181 473.08C835.601 481.347 846.372 486.55 858.35 486.55V484.55C846.964 484.55 836.727 479.606 829.669 471.744L828.181 473.08ZM829.661 471.735C816.364 457.288 802.238 450.977 788.732 450.69C775.242 450.404 762.522 456.13 752.019 465.467L753.348 466.962C763.564 457.879 775.814 452.416 788.689 452.69C801.549 452.963 815.185 458.96 828.189 473.089L829.661 471.735ZM751.985 465.499C747.093 470.277 740.395 473.22 732.969 473.22V475.22C740.935 475.22 748.13 472.06 753.383 466.93L751.985 465.499ZM732.969 473.22C725.836 473.22 719.349 470.479 714.498 465.991L713.14 467.459C718.346 472.276 725.313 475.22 732.969 475.22V473.22ZM714.476 465.97C707.18 459.619 699.875 455.735 691.987 456.191C684.1 456.647 675.921 461.424 666.832 471.686L668.329 473.013C677.267 462.921 684.988 458.599 692.102 458.188C699.216 457.776 706.016 461.257 713.162 467.479L714.476 465.97ZM668.58 472.349V472.337H666.58V472.349H668.58ZM666.832 471.673C659.729 479.691 649.361 484.741 637.839 484.741V486.741C649.958 486.741 660.863 481.427 668.329 473L666.832 471.673ZM637.839 484.741C627.437 484.741 618 480.648 611.046 473.983L609.662 475.427C616.974 482.435 626.902 486.741 637.839 486.741V484.741ZM611.031 473.969C602.489 466.113 594.256 461.737 585.636 462.019C577.019 462.3 568.302 467.227 558.769 477.292L560.221 478.667C569.599 468.767 577.849 464.274 585.702 464.017C593.553 463.761 601.293 467.73 609.677 475.441L611.031 473.969ZM558.751 477.31C550.192 486.817 537.79 492.79 523.981 492.79V494.79C538.38 494.79 551.315 488.559 560.238 478.649L558.751 477.31ZM523.981 492.79C512.287 492.79 501.601 488.506 493.403 481.419L492.095 482.932C500.643 490.321 511.79 494.79 523.981 494.79V492.79ZM493.387 481.406C484.333 473.892 475.233 469.487 465.388 470.541C455.563 471.593 445.279 478.054 433.774 491.583L435.298 492.878C446.667 479.51 456.523 473.502 465.601 472.53C474.661 471.56 483.23 475.576 492.11 482.945L493.387 481.406ZM433.765 491.594C420.645 507.486 400.805 517.609 378.581 517.609V519.609C401.426 519.609 421.824 509.2 435.307 492.867L433.765 491.594ZM378.581 517.609C357.812 517.609 339.129 508.772 326.054 494.659L324.587 496.019C338.024 510.523 357.231 519.609 378.581 519.609V517.609ZM324.321 495.339V495.37H326.321V495.339H324.321ZM326.054 494.69C314.094 481.786 303.215 475.334 292.483 474.737C281.739 474.138 271.434 479.423 260.666 489.288L262.017 490.763C272.618 481.05 282.413 476.179 292.372 476.733C302.343 477.289 312.768 483.298 324.587 496.049L326.054 494.69ZM260.654 489.299C249.979 499.406 235.565 505.599 219.689 505.599V507.599C236.095 507.599 250.997 501.196 262.029 490.752L260.654 489.299ZM219.689 505.599C202.958 505.599 187.849 498.719 177.03 487.63L175.599 489.026C186.778 500.486 202.398 507.599 219.689 507.599V505.599ZM177.016 487.615C166.356 477.117 156.411 471.687 146.32 471.674C136.229 471.662 126.279 477.068 115.61 487.561L117.012 488.987C127.523 478.65 136.993 473.663 146.318 473.674C155.644 473.686 165.11 478.697 175.613 489.04L177.016 487.615ZM115.593 487.578C104.74 498.775 89.5413 505.731 72.71 505.731V507.731C90.1042 507.731 105.815 500.54 117.029 488.97L115.593 487.578ZM72.71 505.731C39.7223 505.731 13 479.008 13 446.021H11C11 480.113 38.6177 507.731 72.71 507.731V505.731ZM13 446.021C13 413.033 39.7223 386.311 72.71 386.311V384.311C38.6177 384.311 11 411.928 11 446.021H13ZM72.71 386.311C89.6172 386.311 104.877 393.329 115.739 404.615L117.18 403.228C105.956 391.566 90.1827 384.311 72.71 384.311V386.311ZM115.76 404.635C126.361 415.026 136.257 420.384 146.29 420.382C156.324 420.38 166.213 415.019 176.802 404.644L175.403 403.215C164.973 413.434 155.562 418.38 146.29 418.382C137.018 418.384 127.601 413.441 117.16 403.207L115.76 404.635ZM176.822 404.624C187.654 393.408 202.85 386.439 219.689 386.439V384.439C202.286 384.439 186.577 391.644 175.383 403.235L176.822 404.624ZM219.689 386.439C235.694 386.439 250.215 392.735 260.915 402.989L262.299 401.544C251.241 390.948 236.23 384.439 219.689 384.439V386.439ZM260.934 403.006C271.649 412.754 281.914 417.947 292.616 417.301C303.305 416.657 314.143 410.205 326.054 397.36L324.588 396C312.818 408.694 302.429 414.706 292.496 415.305C282.577 415.903 272.825 411.119 262.28 401.527L260.934 403.006ZM324.321 396.68V396.707H326.321V396.68H324.321ZM326.054 397.387C339.127 383.296 357.797 374.476 378.513 374.439L378.509 372.439C357.216 372.477 338.023 381.545 324.588 396.027L326.054 397.387ZM378.511 374.439C400.518 374.439 420.183 384.361 433.315 399.969L434.845 398.681C421.35 382.642 401.133 372.439 378.511 372.439V374.439ZM435.08 399.325V399.289H433.08V399.325H435.08ZM435.08 399.289V399.279H433.08V399.289H435.08ZM433.315 399.923C444.877 413.658 455.197 420.283 465.048 421.464C474.923 422.649 484.044 418.332 493.113 410.87L491.842 409.325C482.954 416.638 474.372 420.569 465.286 419.479C456.176 418.386 446.276 412.214 434.845 398.635L433.315 399.923ZM493.137 410.849C501.368 403.626 512.158 399.25 523.981 399.25V397.25C511.655 397.25 500.4 401.815 491.818 409.346L493.137 410.849ZM523.981 399.25C537.802 399.25 550.218 405.235 558.78 414.762L560.268 413.425C551.342 403.494 538.393 397.25 523.981 397.25V399.25ZM558.799 414.781C568.328 424.827 577.04 429.745 585.65 430.023C594.263 430.302 602.488 425.931 611.017 418.085L609.663 416.613C601.292 424.314 593.56 428.278 585.715 428.025C577.869 427.77 569.623 423.287 560.25 413.405L558.799 414.781ZM611.033 418.071C617.989 411.398 627.431 407.301 637.839 407.301V405.301C626.895 405.301 616.962 409.612 609.648 416.628L611.033 418.071ZM637.839 407.301C649.573 407.301 660.079 412.508 667.179 420.743L668.694 419.437C661.23 410.78 650.178 405.301 637.839 405.301V407.301ZM667.192 420.757C676.204 430.814 684.324 435.467 692.16 435.857C699.994 436.247 707.256 432.362 714.508 426.04L713.194 424.533C706.089 430.726 699.326 434.212 692.259 433.86C685.195 433.508 677.536 429.304 668.681 419.422L667.192 420.757ZM714.529 426.021C719.376 421.55 725.851 418.82 732.969 418.82V416.82C725.33 416.82 718.375 419.752 713.173 424.551L714.529 426.021ZM732.969 418.82C740.141 418.82 746.66 421.591 751.519 426.122L752.883 424.66C747.668 419.796 740.667 416.82 732.969 416.82V418.82ZM751.529 426.132C762.035 435.652 774.811 441.543 788.382 441.358C801.969 441.173 816.199 434.898 829.591 420.38L828.121 419.024C815.024 433.221 801.29 439.182 788.354 439.359C775.401 439.535 763.095 433.913 752.872 424.65L751.529 426.132ZM858.35 405.49C846.331 405.49 835.531 410.725 828.11 419.036L829.602 420.368C836.66 412.464 846.924 407.49 858.35 407.49V405.49ZM883.937 414.587C876.96 408.901 868.052 405.49 858.35 405.49V407.49C867.575 407.49 876.04 410.731 882.673 416.138L883.937 414.587ZM969.103 395.432C950.797 418.66 935.069 427.648 921.262 428.813C907.444 429.98 895.247 423.341 883.917 414.572L882.693 416.153C894.131 425.006 906.841 432.038 921.431 430.806C936.032 429.573 952.212 420.095 970.674 396.67L969.103 395.432ZM1034.91 363C1008.12 363 984.28 375.721 969.096 395.441L970.681 396.661C985.503 377.411 1008.77 365 1034.91 365V363ZM1117.93 446.02C1117.93 400.208 1080.72 363 1034.91 363V365C1079.62 365 1115.93 401.312 1115.93 446.02H1117.93ZM1034.91 529.04C1080.79 529.04 1117.93 491.832 1117.93 446.02H1115.93C1115.93 490.728 1079.69 527.04 1034.91 527.04V529.04Z" fill="#00EAE6" mask="url(#path-32-inside-3_621_70)"/>
<path d="M1032.91 479.64C1014.33 479.64 999.289 464.604 999.289 446.02C999.289 427.437 1014.33 412.4 1032.91 412.4C1051.49 412.4 1066.53 427.437 1066.53 446.02C1066.53 464.604 1051.43 479.64 1032.91 479.64Z" fill="#3D13CB" stroke="#00EAE6"/>
<path d="M378.549 474.109C363.055 474.109 350.469 461.523 350.469 446.029C350.469 430.535 363.055 417.949 378.549 417.949C394.043 417.949 406.629 430.535 406.629 446.029C406.629 461.523 394.043 474.109 378.549 474.109Z" fill="#3D13CB" stroke="#00EAE6"/>
<path d="M72.7088 469.731C59.6547 469.73 49 459.133 49 446.021C49 432.907 59.5961 422.311 72.71 422.311C85.7647 422.311 96.42 432.907 96.42 446.021C96.42 459.072 85.7665 469.661 72.7088 469.731Z" fill="#3D13CB" stroke="#00EAE6"/>
<path d="M219.688 469.02C207.023 469.02 196.688 458.752 196.688 446.02C196.688 433.286 206.954 423.02 219.688 423.02C232.421 423.02 242.688 433.286 242.688 446.02C242.688 458.752 232.352 469.02 219.688 469.02Z" fill="#3D13CB" stroke="#00EAE6"/>
<path d="M522.981 464.45C512.827 464.45 504.551 456.174 504.551 446.02C504.551 435.866 512.827 427.59 522.981 427.59C533.135 427.59 541.411 435.866 541.411 446.02C541.411 456.174 533.135 464.45 522.981 464.45Z" fill="#3D13CB" stroke="#00EAE6"/>
<path d="M638.549 460.07C630.004 460.07 623.02 453.142 623.02 444.54C623.02 435.936 629.946 429.01 638.549 429.01C647.095 429.01 654.08 435.937 654.08 444.54C654.08 453.142 647.095 460.07 638.549 460.07Z" fill="#3D13CB" stroke="#00EAE6"/>
<path d="M856.351 460.839C848.197 460.839 841.531 454.173 841.531 446.019C841.531 437.865 848.197 431.199 856.351 431.199C864.505 431.199 871.171 437.865 871.171 446.019C871.171 454.175 864.574 460.839 856.351 460.839Z" fill="#3D13CB" stroke="#00EAE6"/>
<path d="M730.968 456.659C725.066 456.659 720.328 451.865 720.328 446.019C720.328 440.175 725.124 435.379 730.968 435.379C736.87 435.379 741.608 440.173 741.608 446.019C741.608 451.865 736.87 456.659 730.968 456.659Z" fill="#3D13CB" stroke="#00EAE6"/>
<path d="M7.448 558.328C7.448 556.62 6.104 555.668 4.228 555.668C2.072 555.668 0.672 556.998 0.7 559.014H2.016C2.044 557.334 3.108 556.732 4.2 556.732C5.404 556.732 6.104 557.446 6.104 558.496C6.104 560.288 4.004 562.206 0.42 564.852V566H7.728V564.81H2.156C4.998 562.766 7.448 560.68 7.448 558.328ZM12.8778 566.182C15.5798 566.182 16.8258 564.138 16.8258 560.918C16.8258 557.712 15.5798 555.668 12.8778 555.668C10.1758 555.668 8.92981 557.712 8.92981 560.918C8.92981 564.138 10.1758 566.182 12.8778 566.182ZM12.8778 556.732C14.4738 556.732 15.4678 558.104 15.4678 560.918C15.4678 563.746 14.4738 565.118 12.8778 565.118C11.2818 565.118 10.2878 563.746 10.2878 560.918C10.2878 558.104 11.2818 556.732 12.8778 556.732ZM20.0337 566H21.3077V555.85H20.4397C19.8797 556.956 19.1377 557.138 17.6817 557.194V558.062H20.0337V566ZM30.438 558.258C30.438 556.76 29.122 555.668 27.05 555.668C24.964 555.668 23.662 556.76 23.662 558.258C23.662 559.084 24.054 560.05 25.062 560.596C23.732 561.128 23.34 562.22 23.34 563.144C23.34 565.076 24.95 566.182 27.05 566.182C29.136 566.182 30.746 565.076 30.746 563.144C30.746 562.22 30.354 561.128 29.038 560.596C30.046 560.05 30.438 559.084 30.438 558.258ZM27.05 556.732C28.31 556.732 29.15 557.404 29.15 558.412C29.15 559.434 28.31 560.19 27.05 560.19C25.776 560.19 24.936 559.434 24.936 558.412C24.936 557.404 25.776 556.732 27.05 556.732ZM24.698 563.144C24.698 561.954 25.608 561.128 27.05 561.128C28.478 561.128 29.402 561.954 29.402 563.144C29.402 564.334 28.478 565.118 27.05 565.118C25.608 565.118 24.698 564.334 24.698 563.144Z" fill="black"/>
<mask id="path-43-inside-4_621_70" fill="white">
<path fill-rule="evenodd" clip-rule="evenodd" d="M973.89 664.546C988.162 683.171 1010.63 695.18 1035.91 695.18C1079.04 695.18 1114 660.22 1114 617.09C1114 573.96 1079.04 539 1035.91 539C1010.62 539 988.142 551.02 973.871 569.658C934.326 619.38 905.489 606.936 881.922 588.401V588.408C875.71 583.512 867.87 580.59 859.352 580.59C848.756 580.59 839.211 585.111 832.542 592.328V592.32C807.839 619.057 771.739 615.619 752.172 597.708C747.414 593.238 741.012 590.5 733.973 590.5C727.31 590.5 721.219 592.953 716.552 597.005V597C702.247 609.401 688.179 612.525 669.583 591.412C662.243 582.63 651.203 577.051 638.843 577.051C628.038 577.051 618.243 581.314 611.045 588.253C594.737 602.899 580.088 603.791 561.473 583.539V583.552C552.411 573.698 539.413 567.52 524.982 567.52C512.41 567.52 500.925 572.209 492.183 579.934V579.93C472.532 597.268 454.329 599.319 430.76 572.955C418.365 558.585 400.022 549.49 379.551 549.49C360.228 549.49 342.801 557.591 330.482 570.583C306.757 594.682 287.406 594.08 264.582 571.91V571.93C253.225 560.897 237.726 554.1 220.661 554.1C202.597 554.1 186.305 561.731 174.822 573.941V573.92C151.341 598.869 132.637 598.034 111.262 578.169C101.535 568.783 88.299 563.01 73.7128 563.01C43.8428 563.01 19.6328 587.22 19.6328 617.09C19.6328 646.96 43.8428 671.17 73.7128 671.17C88.2944 671.17 101.527 665.4 111.253 656.019C132.632 636.146 151.338 635.307 174.822 660.26V660.24C186.322 672.451 202.643 680.08 220.721 680.08C238.43 680.08 254.422 672.792 265.858 661.05C288.316 639.913 307.517 639.958 331.062 664.19V664.186C343.345 676.827 360.529 684.68 379.551 684.68V684.69C400.476 684.69 419.161 675.223 431.555 660.344C454.749 634.908 472.753 637.097 492.183 654.25V654.246C500.925 661.97 512.41 666.66 524.982 666.66C539.413 666.66 552.411 660.481 561.473 650.627V650.649C580.363 630.109 595.153 631.319 611.743 646.569V646.564C618.878 653.127 628.4 657.131 638.843 657.131C651.297 657.131 662.41 651.467 669.749 642.57C688.145 621.807 702.096 624.763 716.256 636.915C720.96 641.122 727.169 643.68 733.973 643.68C741.332 643.68 747.987 640.711 752.798 635.91C772.501 618.492 808.1 615.406 832.542 641.86V641.852C839.211 649.069 848.756 653.59 859.352 653.59C868.137 653.59 876.182 650.5 882.47 645.351C905.94 627.053 934.651 615.182 973.89 664.546Z"/>
</mask>
<path d="M973.89 664.546L974.684 663.938L974.679 663.931L974.673 663.924L973.89 664.546ZM973.871 569.658L974.654 570.281L974.66 570.273L974.665 570.266L973.871 569.658ZM881.922 588.401L882.54 587.615L880.922 586.342V588.401H881.922ZM881.922 588.408L881.303 589.194L882.922 590.47V588.408H881.922ZM832.542 592.328H831.542V594.883L833.276 593.006L832.542 592.328ZM832.542 592.32H833.542V589.764L831.807 591.642L832.542 592.32ZM752.172 597.708L751.487 598.437L751.497 598.445L752.172 597.708ZM716.552 597.005H715.552V599.197L717.207 597.76L716.552 597.005ZM716.552 597H717.552V594.809L715.897 596.244L716.552 597ZM669.583 591.412L668.816 592.053L668.824 592.063L668.833 592.073L669.583 591.412ZM611.045 588.253L611.714 588.997L611.727 588.985L611.739 588.973L611.045 588.253ZM561.473 583.539L562.209 582.862L560.473 580.973V583.539H561.473ZM561.473 583.552L560.737 584.229L562.473 586.116V583.552H561.473ZM492.183 579.934H491.183V582.151L492.845 580.683L492.183 579.934ZM492.183 579.93H493.183V577.714L491.521 579.18L492.183 579.93ZM430.76 572.955L430.003 573.608L430.009 573.615L430.015 573.621L430.76 572.955ZM330.482 570.583L331.195 571.285L331.201 571.278L331.208 571.271L330.482 570.583ZM264.582 571.91L265.279 571.193L263.582 569.545V571.91H264.582ZM264.582 571.93L263.885 572.647L265.582 574.296V571.93H264.582ZM174.822 573.941H173.822V576.464L175.55 574.627L174.822 573.941ZM174.822 573.92H175.822V571.398L174.093 573.235L174.822 573.92ZM111.262 578.169L110.568 578.889L110.575 578.895L110.582 578.901L111.262 578.169ZM111.253 656.019L110.572 655.287L110.566 655.293L110.559 655.3L111.253 656.019ZM174.822 660.26L174.093 660.945L175.822 662.782V660.26H174.822ZM174.822 660.24L175.549 659.554L173.822 657.719V660.24H174.822ZM265.858 661.05L265.172 660.322L265.156 660.337L265.141 660.353L265.858 661.05ZM331.062 664.19L330.345 664.887L332.062 666.654V664.19H331.062ZM331.062 664.186L331.779 663.489L330.062 661.722V664.186H331.062ZM379.551 684.68H380.551V683.68H379.551V684.68ZM379.551 684.69H378.551V685.69H379.551V684.69ZM431.555 660.344L430.816 659.671L430.801 659.687L430.787 659.704L431.555 660.344ZM492.183 654.25L491.521 654.999L493.183 656.466V654.25H492.183ZM492.183 654.246L492.845 653.496L491.183 652.028V654.246H492.183ZM561.473 650.627H562.473V648.063L560.737 649.95L561.473 650.627ZM561.473 650.649H560.473V653.214L562.209 651.326L561.473 650.649ZM611.743 646.569L611.066 647.305L612.743 648.847V646.569H611.743ZM611.743 646.564L612.42 645.828L610.743 644.285V646.564H611.743ZM669.749 642.57L669.001 641.907L668.989 641.92L668.978 641.933L669.749 642.57ZM716.256 636.915L716.923 636.169L716.915 636.163L716.908 636.156L716.256 636.915ZM752.798 635.91L752.135 635.161L752.113 635.181L752.091 635.202L752.798 635.91ZM832.542 641.86L831.807 642.539L833.542 644.416V641.86H832.542ZM832.542 641.852L833.276 641.173L831.542 639.297V641.852H832.542ZM882.47 645.351L881.855 644.563L881.846 644.57L881.836 644.578L882.47 645.351ZM973.097 665.155C987.549 684.016 1010.31 696.18 1035.91 696.18V694.18C1010.96 694.18 988.775 682.326 974.684 663.938L973.097 665.155ZM1035.91 696.18C1079.59 696.18 1115 660.772 1115 617.09H1113C1113 659.668 1078.49 694.18 1035.91 694.18V696.18ZM1115 617.09C1115 573.408 1079.59 538 1035.91 538V540C1078.49 540 1113 574.512 1113 617.09H1115ZM1035.91 538C1010.3 538 987.529 550.175 973.077 569.05L974.665 570.266C988.755 551.864 1010.95 540 1035.91 540V538ZM881.304 589.187C893.126 598.485 906.477 606.432 921.957 605.625C937.465 604.816 954.798 595.246 974.654 570.281L973.089 569.036C953.399 593.792 936.541 602.861 921.853 603.627C907.136 604.395 894.284 596.851 882.54 587.615L881.304 589.187ZM882.922 588.408V588.401H880.922V588.408H882.922ZM882.541 587.623C876.159 582.593 868.103 579.59 859.352 579.59V581.59C867.638 581.59 875.261 584.431 881.303 589.194L882.541 587.623ZM859.352 579.59C848.465 579.59 838.658 584.236 831.807 591.649L833.276 593.006C839.764 585.985 849.047 581.59 859.352 581.59V579.59ZM833.542 592.328V592.32H831.542V592.328H833.542ZM831.807 591.642C807.51 617.94 772.044 614.542 752.847 596.97L751.497 598.445C771.435 616.696 808.169 620.174 833.276 592.999L831.807 591.642ZM752.857 596.979C747.921 592.342 741.276 589.5 733.973 589.5V591.5C740.747 591.5 746.907 594.134 751.487 598.437L752.857 596.979ZM733.973 589.5C727.06 589.5 720.738 592.046 715.896 596.25L717.207 597.76C721.699 593.86 727.561 591.5 733.973 591.5V589.5ZM717.552 597.005V597H715.552V597.005H717.552ZM715.897 596.244C708.81 602.388 701.964 606.067 694.717 605.775C687.481 605.483 679.55 601.216 670.333 590.751L668.833 592.073C678.212 602.721 686.613 607.449 694.636 607.773C702.649 608.096 709.989 604.013 717.207 597.755L715.897 596.244ZM670.35 590.77C662.827 581.771 651.511 576.051 638.843 576.051V578.051C650.895 578.051 661.658 583.49 668.816 592.053L670.35 590.77ZM638.843 576.051C627.769 576.051 617.728 580.421 610.351 587.533L611.739 588.973C618.758 582.207 628.306 578.051 638.843 578.051V576.051ZM610.377 587.509C602.306 594.757 594.822 598.439 587.183 597.984C579.534 597.529 571.444 592.909 562.209 582.862L560.736 584.216C570.116 594.42 578.658 599.481 587.064 599.981C595.482 600.482 603.476 596.395 611.714 588.997L610.377 587.509ZM560.473 583.539V583.552H562.473V583.539H560.473ZM562.209 582.875C552.965 572.824 539.704 566.52 524.982 566.52V568.52C539.121 568.52 551.856 574.572 560.737 584.229L562.209 582.875ZM524.982 566.52C512.156 566.52 500.438 571.305 491.521 579.184L492.845 580.683C501.411 573.114 512.663 568.52 524.982 568.52V566.52ZM493.183 579.934V579.93H491.183V579.934H493.183ZM491.521 579.18C481.774 587.78 472.565 592.424 463.002 591.833C453.433 591.241 443.217 585.389 431.506 572.288L430.015 573.621C441.872 586.886 452.542 593.19 462.879 593.829C473.222 594.468 482.94 589.418 492.844 580.679L491.521 579.18ZM431.517 572.302C418.94 557.721 400.325 548.49 379.551 548.49V550.49C399.719 550.49 417.789 559.449 430.003 573.608L431.517 572.302ZM379.551 548.49C359.943 548.49 342.256 556.712 329.757 569.895L331.208 571.271C343.346 558.47 360.514 550.49 379.551 550.49V548.49ZM329.77 569.882C317.985 581.852 307.455 587.51 297.186 587.597C286.916 587.685 276.614 582.203 265.279 571.193L263.885 572.628C275.374 583.787 286.16 589.691 297.203 589.597C308.247 589.503 319.255 583.413 331.195 571.285L329.77 569.882ZM263.582 571.91V571.93H265.582V571.91H263.582ZM265.279 571.213C253.743 560.006 237.997 553.1 220.661 553.1V555.1C237.456 555.1 252.707 561.788 263.885 572.647L265.279 571.213ZM220.661 553.1C202.31 553.1 185.757 560.854 174.093 573.256L175.55 574.627C186.853 562.609 202.885 555.1 220.661 555.1V553.1ZM175.822 573.941V573.92H173.822V573.941H175.822ZM174.093 573.235C162.426 585.631 152.111 591.44 142.211 591.851C132.318 592.261 122.55 587.294 111.943 577.436L110.582 578.901C121.35 588.909 131.62 594.292 142.294 593.849C152.96 593.406 163.736 587.158 175.55 574.605L174.093 573.235ZM111.957 577.449C102.051 567.891 88.5682 562.01 73.7128 562.01V564.01C88.0297 564.01 101.02 569.675 110.568 578.889L111.957 577.449ZM73.7128 562.01C43.2905 562.01 18.6328 586.667 18.6328 617.09H20.6328C20.6328 587.772 44.3951 564.01 73.7128 564.01V562.01ZM18.6328 617.09C18.6328 647.512 43.2905 672.17 73.7128 672.17V670.17C44.3951 670.17 20.6328 646.407 20.6328 617.09H18.6328ZM73.7128 672.17C88.5636 672.17 102.043 666.293 111.947 656.739L110.559 655.3C101.012 664.508 88.0253 670.17 73.7128 670.17V672.17ZM111.934 656.752C122.543 646.89 132.313 641.92 142.207 642.329C152.108 642.738 162.425 648.547 174.093 660.945L175.55 659.575C163.735 647.02 152.957 640.772 142.289 640.331C131.615 639.889 121.342 645.275 110.572 655.287L111.934 656.752ZM175.822 660.26V660.24H173.822V660.26H175.822ZM174.094 660.925C185.775 673.329 202.355 681.08 220.721 681.08V679.08C202.93 679.08 186.869 671.574 175.549 659.554L174.094 660.925ZM220.721 681.08C238.71 681.08 254.958 673.676 266.574 661.748L265.141 660.353C253.887 671.909 238.15 679.08 220.721 679.08V681.08ZM266.543 661.779C277.687 651.29 287.851 646.223 298.014 646.606C308.188 646.99 318.645 652.846 330.345 664.887L331.779 663.493C319.933 651.302 309.017 645.02 298.09 644.607C287.151 644.195 276.486 649.673 265.172 660.322L266.543 661.779ZM332.062 664.19V664.186H330.062V664.19H332.062ZM330.345 664.883C342.808 677.71 360.248 685.68 379.551 685.68V683.68C360.81 683.68 343.881 675.945 331.779 663.489L330.345 664.883ZM378.551 684.68V684.69H380.551V684.68H378.551ZM379.551 685.69C400.785 685.69 419.747 676.082 432.323 660.985L430.787 659.704C418.575 674.364 400.168 683.69 379.551 683.69V685.69ZM432.294 661.018C443.813 648.385 453.883 642.794 463.33 642.325C472.775 641.855 481.884 646.491 491.521 654.999L492.844 653.5C483.052 644.855 473.444 639.82 463.231 640.327C453.019 640.834 442.49 646.867 430.816 659.671L432.294 661.018ZM493.183 654.25V654.246H491.183V654.25H493.183ZM491.521 654.995C500.438 662.874 512.156 667.66 524.982 667.66V665.66C512.663 665.66 501.411 661.065 492.845 653.496L491.521 654.995ZM524.982 667.66C539.704 667.66 552.965 661.355 562.209 651.304L560.737 649.95C551.856 659.607 539.121 665.66 524.982 665.66V667.66ZM560.473 650.627V650.649H562.473V650.627H560.473ZM562.209 651.326C571.581 641.136 579.769 636.528 587.514 636.187C595.255 635.845 602.848 639.751 611.066 647.305L612.419 645.833C604.047 638.137 595.951 633.813 587.426 634.189C578.906 634.565 570.255 639.623 560.737 649.972L562.209 651.326ZM612.743 646.569V646.564H610.743V646.569H612.743ZM611.066 647.3C618.379 654.026 628.139 658.131 638.843 658.131V656.131C628.66 656.131 619.378 652.228 612.42 645.828L611.066 647.3ZM638.843 658.131C651.607 658.131 662.999 652.324 670.521 643.206L668.978 641.933C661.821 650.609 650.987 656.131 638.843 656.131V658.131ZM670.498 643.233C679.614 632.943 687.467 628.718 694.636 628.398C701.812 628.078 708.594 631.657 715.605 637.674L716.908 636.156C709.759 630.021 702.484 626.046 694.546 626.4C686.6 626.755 678.28 631.433 669.001 641.907L670.498 643.233ZM715.59 637.66C720.47 642.024 726.913 644.68 733.973 644.68V642.68C727.424 642.68 721.451 640.219 716.923 636.169L715.59 637.66ZM733.973 644.68C741.607 644.68 748.512 641.599 753.504 636.618L752.091 635.202C747.461 639.823 741.058 642.68 733.973 642.68V644.68ZM753.46 636.659C772.792 619.569 807.767 616.519 831.807 642.539L833.276 641.182C808.434 614.293 772.209 617.415 752.135 635.161L753.46 636.659ZM833.542 641.86V641.852H831.542V641.86H833.542ZM831.807 642.531C838.658 649.944 848.465 654.59 859.352 654.59V652.59C849.047 652.59 839.764 648.194 833.276 641.173L831.807 642.531ZM859.352 654.59C868.376 654.59 876.643 651.415 883.103 646.125L881.836 644.578C875.721 649.585 867.898 652.59 859.352 652.59V654.59ZM974.673 663.924C954.971 639.138 937.749 629.517 922.327 628.577C906.929 627.639 893.634 635.38 881.855 644.563L883.085 646.14C894.776 637.025 907.571 629.681 922.206 630.574C936.817 631.464 953.57 640.59 973.107 665.169L974.673 663.924Z" fill="#00EAE6" mask="url(#path-43-inside-4_621_70)"/>
<path d="M1033.91 648.84C1016.36 648.84 1002.16 634.644 1002.16 617.09C1002.16 599.536 1016.36 585.34 1033.91 585.34C1051.46 585.34 1065.66 599.536 1065.66 617.09C1065.66 634.644 1051.46 648.84 1033.91 648.84Z" fill="#3D13CB" stroke="#00EAE6"/>
<path d="M405.901 617.08L405.901 617.082C405.96 631.614 394.156 643.43 379.551 643.43C365.017 643.43 353.211 631.615 353.211 617.08C353.211 602.546 365.027 590.73 379.551 590.73C394.085 590.73 405.901 602.547 405.901 617.08Z" fill="#3D13CB" stroke="#00EAE6"/>
<path d="M73.7106 638.15C62.0768 638.15 52.6406 628.714 52.6406 617.08C52.6406 605.446 62.0768 596.01 73.7106 596.01C85.3445 596.01 94.7806 605.446 94.7806 617.08C94.7806 628.714 85.3445 638.15 73.7106 638.15Z" fill="#3D13CB" stroke="#00EAE6"/>
<path d="M220.689 641.311C207.315 641.311 196.469 630.465 196.469 617.091C196.469 603.717 207.315 592.871 220.689 592.871C234.063 592.871 244.909 603.717 244.909 617.091C244.909 630.465 234.063 641.311 220.689 641.311Z" fill="#3D13CB" stroke="#00EAE6"/>
<path d="M523.983 637.19C512.869 637.19 503.883 628.204 503.883 617.09C503.883 605.976 512.869 596.99 523.983 596.99C535.097 596.99 544.083 605.976 544.083 617.09C544.083 628.204 535.097 637.19 523.983 637.19Z" fill="#3D13CB" stroke="#00EAE6"/>
<path d="M638.84 632.68C630.236 632.68 623.25 625.694 623.25 617.09C623.25 608.486 630.236 601.5 638.84 601.5C647.443 601.5 654.429 608.485 654.43 617.088C654.371 625.696 647.381 632.68 638.84 632.68Z" fill="#3D13CB" stroke="#00EAE6"/>
<path d="M857.352 630.941C849.708 630.941 843.492 624.725 843.492 617.081C843.492 609.437 849.708 603.221 857.352 603.221C864.995 603.221 871.211 609.436 871.212 617.079C871.153 624.728 864.992 630.941 857.352 630.941Z" fill="#3D13CB" stroke="#00EAE6"/>
<path d="M731.97 627.08C726.457 627.08 721.98 622.603 721.98 617.09C721.98 611.576 726.457 607.1 731.97 607.1C737.484 607.1 741.961 611.576 741.961 617.09C741.961 622.603 737.484 627.08 731.97 627.08Z" fill="#3D13CB" stroke="#00EAE6"/>
</svg>
