<svg viewBox="0 0 742 1072" fill="none" xmlns="http://www.w3.org/2000/svg">
<g clip-path="url(#clip0_905_240)">
<path d="M11.4 106H14.38L14.38 91.5H12.34L12.34 103.84L5.72 91.5H2.72L2.72 106H4.76L4.76 93.62L11.4 106ZM27.1577 100.66C27.1577 96.76 24.4977 95.06 21.9977 95.06C19.4977 95.06 16.8377 96.76 16.8377 100.66C16.8377 104.56 19.4977 106.26 21.9977 106.26C24.4977 106.26 27.1577 104.56 27.1577 100.66ZM21.9977 104.66C20.3577 104.66 18.7777 103.52 18.7777 100.66C18.7777 97.72 20.3577 96.66 21.9977 96.66C23.6377 96.66 25.2177 97.8 25.2177 100.66C25.2177 103.42 23.6377 104.66 21.9977 104.66ZM34.6945 97.14V95.2C34.4945 95.18 34.3345 95.18 34.1545 95.18C32.7545 95.22 31.6545 95.9 31.1145 97.12L31.1145 95.24H29.3345L29.3345 106H31.1545V100.36C31.1545 98 31.9945 97.06 33.6745 97.06C33.9745 97.06 34.3145 97.1 34.6945 97.14ZM36.9639 92.54V95.24H35.2639V96.7H36.9639V103.3C36.9639 105.54 37.4439 106 39.5039 106H40.8239V104.48H39.9039C38.8639 104.48 38.7839 104.2 38.7839 103.08V96.7H40.8239V95.24H38.7839V92.54H36.9639ZM44.9631 96.86V91.5H43.1431V106H44.9631V100.16C44.9631 97.86 46.0431 96.64 47.8031 96.64C49.8831 96.64 50.1631 98.08 50.1631 99.74V106H51.9831V99.2C51.9831 96.74 51.0431 95.06 48.4431 95.06C46.6231 95.06 45.5831 95.84 44.9631 96.86ZM54.1256 101.38H60.4856V99.66H54.1256V101.38ZM14.3 130.68L11.44 118.5H9.04L6.36 130.68L3.56 118.5H1.32L5 133H7.48L10.22 121.08L13.02 133H15.5L19.12 118.5H16.98L14.3 130.68ZM21.492 128.22H29.772C30.012 124.82 28.032 122.06 24.752 122.06C21.812 122.06 19.532 124.24 19.532 127.64C19.532 130.82 21.412 133.26 24.812 133.26C27.432 133.26 29.132 131.74 29.632 129.88H27.752C27.292 130.94 26.412 131.66 24.812 131.66C23.212 131.66 21.572 130.54 21.492 128.22ZM21.512 126.66C21.672 124.5 23.132 123.62 24.752 123.62C26.672 123.62 27.812 125.14 27.852 126.66H21.512ZM38.0922 125.38H39.9922C39.6522 123.34 38.0722 122.04 35.7522 122.04C33.3722 122.04 31.4522 123.14 31.4522 125.04C31.4522 127.04 33.0522 127.72 34.5122 128.02L36.1122 128.34C37.2722 128.58 38.2922 129.04 38.2922 130.12C38.2922 131.12 37.1722 131.72 35.7922 131.72C34.1922 131.72 33.3322 130.9 33.0522 129.52H31.1322C31.3322 131.4 32.9322 133.26 35.7522 133.26C38.2122 133.26 40.1322 132.04 40.1322 129.92C40.1322 127.84 38.4122 127.1 36.4522 126.72L34.9322 126.42C33.8922 126.22 33.2922 125.82 33.2922 124.96C33.2922 123.98 34.4922 123.6 35.5522 123.6C36.8122 123.6 37.8122 124.1 38.0922 125.38ZM42.96 119.54V122.24H41.26V123.7H42.96V130.3C42.96 132.54 43.44 133 45.5 133H46.82V131.48H45.9C44.86 131.48 44.78 131.2 44.78 130.08V123.7H46.82V122.24H44.78V119.54H42.96Z" fill="black"/>
<path d="M14.3 238.68L11.44 226.5H9.04L6.36 238.68L3.56 226.5H1.32L5 241H7.48L10.22 229.08L13.02 241H15.5L19.12 226.5H16.98L14.3 238.68ZM21.492 236.22H29.772C30.012 232.82 28.032 230.06 24.752 230.06C21.812 230.06 19.532 232.24 19.532 235.64C19.532 238.82 21.412 241.26 24.812 241.26C27.432 241.26 29.132 239.74 29.632 237.88H27.752C27.292 238.94 26.412 239.66 24.812 239.66C23.212 239.66 21.572 238.54 21.492 236.22ZM21.512 234.66C21.672 232.5 23.132 231.62 24.752 231.62C26.672 231.62 27.812 233.14 27.852 234.66H21.512ZM38.0922 233.38H39.9922C39.6522 231.34 38.0722 230.04 35.7522 230.04C33.3722 230.04 31.4522 231.14 31.4522 233.04C31.4522 235.04 33.0522 235.72 34.5122 236.02L36.1122 236.34C37.2722 236.58 38.2922 237.04 38.2922 238.12C38.2922 239.12 37.1722 239.72 35.7922 239.72C34.1922 239.72 33.3322 238.9 33.0522 237.52H31.1322C31.3322 239.4 32.9322 241.26 35.7522 241.26C38.2122 241.26 40.1322 240.04 40.1322 237.92C40.1322 235.84 38.4122 235.1 36.4522 234.72L34.9322 234.42C33.8922 234.22 33.2922 233.82 33.2922 232.96C33.2922 231.98 34.4922 231.6 35.5522 231.6C36.8122 231.6 37.8122 232.1 38.0922 233.38ZM42.96 227.54V230.24H41.26V231.7H42.96V238.3C42.96 240.54 43.44 241 45.5 241H46.82V239.48H45.9C44.86 239.48 44.78 239.2 44.78 238.08V231.7H46.82V230.24H44.78V227.54H42.96Z" fill="black"/>
<path d="M14.88 384.38H12.9C12.44 386.24 11.02 387.54 8.72 387.54C6.02 387.54 4.1 385.38 4.1 381.72C4.1 377.96 6.1 375.96 8.66 375.96C10.98 375.96 12.38 377.32 12.82 379.12H14.8C14.18 376.02 11.76 374.24 8.76 374.24C4.66 374.24 2.02 377.22 2.02 381.72C2.02 386.14 4.44 389.26 8.6 389.26C11.74 389.26 14.24 387.58 14.88 384.38ZM18.367 384.22H26.647C26.887 380.82 24.907 378.06 21.627 378.06C18.687 378.06 16.407 380.24 16.407 383.64C16.407 386.82 18.287 389.26 21.687 389.26C24.307 389.26 26.007 387.74 26.507 385.88H24.627C24.167 386.94 23.287 387.66 21.687 387.66C20.087 387.66 18.447 386.54 18.367 384.22ZM18.387 382.66C18.547 380.5 20.007 379.62 21.627 379.62C23.547 379.62 24.687 381.14 24.727 382.66H18.387ZM30.5881 379.86V378.24H28.7681L28.7681 389H30.5881V383.16C30.5881 380.86 31.6681 379.64 33.4281 379.64C35.5081 379.64 35.7881 381.08 35.7881 382.74V389H37.6081V382.2C37.6081 379.74 36.6681 378.06 34.0681 378.06C32.2481 378.06 31.2081 378.84 30.5881 379.86ZM40.8506 375.54V378.24H39.1506V379.7H40.8506V386.3C40.8506 388.54 41.3306 389 43.3906 389H44.7106V387.48H43.7906C42.7506 387.48 42.6706 387.2 42.6706 386.08V379.7H44.7106V378.24H42.6706V375.54H40.8506ZM52.1945 380.14V378.2C51.9945 378.18 51.8345 378.18 51.6545 378.18C50.2545 378.22 49.1545 378.9 48.6145 380.12V378.24H46.8345V389H48.6545V383.36C48.6545 381 49.4945 380.06 51.1745 380.06C51.4745 380.06 51.8145 380.1 52.1945 380.14ZM52.9133 386.16C52.9133 388.14 54.5933 389.26 56.6133 389.26C58.5133 389.26 59.6333 388.62 60.2933 387.52C60.3133 388.16 60.3733 388.6 60.4333 389H62.2733C62.0733 387.98 61.9733 386.74 61.9933 384.94L62.0133 382.46C62.0333 379.44 60.6933 378.02 57.7333 378.02C55.6333 378.02 53.5933 379.32 53.4133 381.64H55.2933C55.3733 380.32 56.2533 379.5 57.7533 379.5C59.0933 379.5 60.1933 380.16 60.1933 382.12V382.38C55.7733 382.88 52.9133 383.62 52.9133 386.16ZM60.3333 383.82V384.5C60.3333 387.04 58.7133 387.82 57.0133 387.82C55.7133 387.82 54.9333 387.14 54.9333 386.12C54.9333 384.64 57.0333 384.16 60.3333 383.82ZM66.5452 389V374.5H64.7252V389H66.5452ZM68.8522 384.38H75.2122V382.66H68.8522V384.38ZM14.3 413.68L11.44 401.5H9.04L6.36 413.68L3.56 401.5H1.32L5 416H7.48L10.22 404.08L13.02 416H15.5L19.12 401.5H16.98L14.3 413.68ZM21.492 411.22H29.772C30.012 407.82 28.032 405.06 24.752 405.06C21.812 405.06 19.532 407.24 19.532 410.64C19.532 413.82 21.412 416.26 24.812 416.26C27.432 416.26 29.132 414.74 29.632 412.88H27.752C27.292 413.94 26.412 414.66 24.812 414.66C23.212 414.66 21.572 413.54 21.492 411.22ZM21.512 409.66C21.672 407.5 23.132 406.62 24.752 406.62C26.672 406.62 27.812 408.14 27.852 409.66H21.512ZM38.0922 408.38H39.9922C39.6522 406.34 38.0722 405.04 35.7522 405.04C33.3722 405.04 31.4522 406.14 31.4522 408.04C31.4522 410.04 33.0522 410.72 34.5122 411.02L36.1122 411.34C37.2722 411.58 38.2922 412.04 38.2922 413.12C38.2922 414.12 37.1722 414.72 35.7922 414.72C34.1922 414.72 33.3322 413.9 33.0522 412.52H31.1322C31.3322 414.4 32.9322 416.26 35.7522 416.26C38.2122 416.26 40.1322 415.04 40.1322 412.92C40.1322 410.84 38.4122 410.1 36.4522 409.72L34.9322 409.42C33.8922 409.22 33.2922 408.82 33.2922 407.96C33.2922 406.98 34.4922 406.6 35.5522 406.6C36.8122 406.6 37.8122 407.1 38.0922 408.38ZM42.96 402.54V405.24H41.26V406.7H42.96V413.3C42.96 415.54 43.44 416 45.5 416H46.82V414.48H45.9C44.86 414.48 44.78 414.2 44.78 413.08V406.7H46.82V405.24H44.78V402.54H42.96Z" fill="black"/>
<path d="M14.76 513.72C14.16 510.92 11.76 509.24 8.76 509.24C4.68 509.24 2.02 512.22 2.02 516.72C2.02 521.14 4.4 524.26 8.58 524.26C10.52 524.26 12.22 523.66 13.16 522.18L13.26 524H14.86L14.86 516.6H9.1V518.36H12.94V518.74C12.94 521.74 10.6 522.54 8.66 522.54C5.98 522.54 4.1 520.38 4.1 516.72C4.1 512.96 6.1 510.96 8.66 510.96C10.98 510.96 12.3 512.1 12.78 513.72H14.76ZM19.0506 519.22H27.3306C27.5706 515.82 25.5906 513.06 22.3106 513.06C19.3706 513.06 17.0906 515.24 17.0906 518.64C17.0906 521.82 18.9706 524.26 22.3706 524.26C24.9906 524.26 26.6906 522.74 27.1906 520.88H25.3106C24.8506 521.94 23.9706 522.66 22.3706 522.66C20.7706 522.66 19.1306 521.54 19.0506 519.22ZM19.0706 517.66C19.2306 515.5 20.6906 514.62 22.3106 514.62C24.2306 514.62 25.3706 516.14 25.4106 517.66H19.0706ZM31.2717 514.86V513.24H29.4517L29.4517 524H31.2717V518.16C31.2717 515.86 32.3517 514.64 34.1117 514.64C36.1917 514.64 36.4717 516.08 36.4717 517.74V524H38.2917V517.2C38.2917 514.74 37.3517 513.06 34.7517 513.06C32.9317 513.06 31.8917 513.84 31.2717 514.86ZM42.2342 519.22H50.5142C50.7542 515.82 48.7742 513.06 45.4942 513.06C42.5542 513.06 40.2742 515.24 40.2742 518.64C40.2742 521.82 42.1542 524.26 45.5542 524.26C48.1742 524.26 49.8742 522.74 50.3742 520.88H48.4942C48.0342 521.94 47.1542 522.66 45.5542 522.66C43.9542 522.66 42.3142 521.54 42.2342 519.22ZM42.2542 517.66C42.4142 515.5 43.8742 514.62 45.4942 514.62C47.4142 514.62 48.5542 516.14 48.5942 517.66H42.2542ZM56.0377 521.48L53.1177 513.24H51.0977L55.1577 524H56.7777L60.8377 513.24H58.9577L56.0377 521.48ZM63.3084 519.22H71.5884C71.8284 515.82 69.8484 513.06 66.5684 513.06C63.6284 513.06 61.3484 515.24 61.3484 518.64C61.3484 521.82 63.2284 524.26 66.6284 524.26C69.2484 524.26 70.9484 522.74 71.4484 520.88H69.5684C69.1084 521.94 68.2284 522.66 66.6284 522.66C65.0284 522.66 63.3884 521.54 63.3084 519.22ZM63.3284 517.66C63.4884 515.5 64.9484 514.62 66.5684 514.62C68.4884 514.62 69.6284 516.14 69.6684 517.66H63.3284ZM73.5202 519.38H79.8802V517.66H73.5202V519.38ZM1.8 548.16C1.8 550.14 3.48 551.26 5.5 551.26C7.4 551.26 8.52 550.62 9.18 549.52C9.2 550.16 9.26 550.6 9.32 551H11.16C10.96 549.98 10.86 548.74 10.88 546.94L10.9 544.46C10.92 541.44 9.58 540.02 6.62 540.02C4.52 540.02 2.48 541.32 2.3 543.64H4.18C4.26 542.32 5.14 541.5 6.64 541.5C7.98 541.5 9.08 542.16 9.08 544.12V544.38C4.66 544.88 1.8 545.62 1.8 548.16ZM9.22 545.82V546.5C9.22 549.04 7.6 549.82 5.9 549.82C4.6 549.82 3.82 549.14 3.82 548.12C3.82 546.64 5.92 546.16 9.22 545.82ZM18.9719 542.14V540.2C18.7719 540.18 18.6119 540.18 18.4319 540.18C17.0319 540.22 15.9319 540.9 15.3919 542.12V540.24H13.6119L13.6119 551H15.4319V545.36C15.4319 543 16.2719 542.06 17.9519 542.06C18.2519 542.06 18.5919 542.1 18.9719 542.14ZM21.7459 546.22H30.0259C30.2659 542.82 28.2859 540.06 25.0059 540.06C22.0659 540.06 19.7859 542.24 19.7859 545.64C19.7859 548.82 21.6659 551.26 25.0659 551.26C27.6859 551.26 29.3859 549.74 29.8859 547.88H28.0059C27.5459 548.94 26.6659 549.66 25.0659 549.66C23.4659 549.66 21.8259 548.54 21.7459 546.22ZM21.7659 544.66C21.9259 542.5 23.3859 541.62 25.0059 541.62C26.9259 541.62 28.0659 543.14 28.1059 544.66H21.7659ZM31.4094 548.16C31.4094 550.14 33.0894 551.26 35.1094 551.26C37.0094 551.26 38.1294 550.62 38.7894 549.52C38.8094 550.16 38.8694 550.6 38.9294 551H40.7694C40.5694 549.98 40.4694 548.74 40.4894 546.94L40.5094 544.46C40.5294 541.44 39.1894 540.02 36.2294 540.02C34.1294 540.02 32.0894 541.32 31.9094 543.64H33.7894C33.8694 542.32 34.7494 541.5 36.2494 541.5C37.5894 541.5 38.6894 542.16 38.6894 544.12V544.38C34.2694 544.88 31.4094 545.62 31.4094 548.16ZM38.8294 545.82V546.5C38.8294 549.04 37.2094 549.82 35.5094 549.82C34.2094 549.82 33.4294 549.14 33.4294 548.12C33.4294 546.64 35.5294 546.16 38.8294 545.82Z" fill="black"/>
<path d="M14.88 627.38H12.9C12.44 629.24 11.02 630.54 8.72 630.54C6.02 630.54 4.1 628.38 4.1 624.72C4.1 620.96 6.1 618.96 8.66 618.96C10.98 618.96 12.38 620.32 12.82 622.12H14.8C14.18 619.02 11.76 617.24 8.76 617.24C4.66 617.24 2.02 620.22 2.02 624.72C2.02 629.14 4.44 632.26 8.6 632.26C11.74 632.26 14.24 630.58 14.88 627.38ZM18.367 627.22H26.647C26.887 623.82 24.907 621.06 21.627 621.06C18.687 621.06 16.407 623.24 16.407 626.64C16.407 629.82 18.287 632.26 21.687 632.26C24.307 632.26 26.007 630.74 26.507 628.88H24.627C24.167 629.94 23.287 630.66 21.687 630.66C20.087 630.66 18.447 629.54 18.367 627.22ZM18.387 625.66C18.547 623.5 20.007 622.62 21.627 622.62C23.547 622.62 24.687 624.14 24.727 625.66H18.387ZM30.5881 622.86V621.24H28.7681L28.7681 632H30.5881V626.16C30.5881 623.86 31.6681 622.64 33.4281 622.64C35.5081 622.64 35.7881 624.08 35.7881 625.74V632H37.6081V625.2C37.6081 622.74 36.6681 621.06 34.0681 621.06C32.2481 621.06 31.2081 621.84 30.5881 622.86ZM40.8506 618.54V621.24H39.1506V622.7H40.8506V629.3C40.8506 631.54 41.3306 632 43.3906 632H44.7106V630.48H43.7906C42.7506 630.48 42.6706 630.2 42.6706 629.08V622.7H44.7106V621.24H42.6706V618.54H40.8506ZM52.1945 623.14V621.2C51.9945 621.18 51.8345 621.18 51.6545 621.18C50.2545 621.22 49.1545 621.9 48.6145 623.12V621.24H46.8345V632H48.6545V626.36C48.6545 624 49.4945 623.06 51.1745 623.06C51.4745 623.06 51.8145 623.1 52.1945 623.14ZM52.9133 629.16C52.9133 631.14 54.5933 632.26 56.6133 632.26C58.5133 632.26 59.6333 631.62 60.2933 630.52C60.3133 631.16 60.3733 631.6 60.4333 632H62.2733C62.0733 630.98 61.9733 629.74 61.9933 627.94L62.0133 625.46C62.0333 622.44 60.6933 621.02 57.7333 621.02C55.6333 621.02 53.5933 622.32 53.4133 624.64H55.2933C55.3733 623.32 56.2533 622.5 57.7533 622.5C59.0933 622.5 60.1933 623.16 60.1933 625.12V625.38C55.7733 625.88 52.9133 626.62 52.9133 629.16ZM60.3333 626.82V627.5C60.3333 630.04 58.7133 630.82 57.0133 630.82C55.7133 630.82 54.9333 630.14 54.9333 629.12C54.9333 627.64 57.0333 627.16 60.3333 626.82ZM66.5452 632V617.5H64.7252V632H66.5452ZM68.8522 627.38H75.2122V625.66H68.8522V627.38ZM2.72 644.5L2.72 659H12.56V657.24H4.76V652.42H12.1L12.1 650.66H4.76L4.76 646.26H12.56V644.5H2.72ZM14.1633 656.16C14.1633 658.14 15.8433 659.26 17.8633 659.26C19.7633 659.26 20.8833 658.62 21.5433 657.52C21.5633 658.16 21.6233 658.6 21.6833 659H23.5233C23.3233 657.98 23.2233 656.74 23.2433 654.94L23.2633 652.46C23.2833 649.44 21.9433 648.02 18.9833 648.02C16.8833 648.02 14.8433 649.32 14.6633 651.64H16.5433C16.6233 650.32 17.5033 649.5 19.0033 649.5C20.3433 649.5 21.4433 650.16 21.4433 652.12V652.38C17.0233 652.88 14.1633 653.62 14.1633 656.16ZM21.5833 653.82V654.5C21.5833 657.04 19.9633 657.82 18.2633 657.82C16.9633 657.82 16.1833 657.14 16.1833 656.12C16.1833 654.64 18.2833 654.16 21.5833 653.82ZM32.1352 651.38H34.0352C33.6952 649.34 32.1152 648.04 29.7952 648.04C27.4152 648.04 25.4952 649.14 25.4952 651.04C25.4952 653.04 27.0952 653.72 28.5552 654.02L30.1552 654.34C31.3152 654.58 32.3352 655.04 32.3352 656.12C32.3352 657.12 31.2152 657.72 29.8352 657.72C28.2352 657.72 27.3752 656.9 27.0952 655.52H25.1752C25.3752 657.4 26.9752 659.26 29.7952 659.26C32.2552 659.26 34.1752 658.04 34.1752 655.92C34.1752 653.84 32.4552 653.1 30.4952 652.72L28.9752 652.42C27.9352 652.22 27.3352 651.82 27.3352 650.96C27.3352 649.98 28.5352 649.6 29.5952 649.6C30.8552 649.6 31.8552 650.1 32.1352 651.38ZM37.003 645.54V648.24H35.303V649.7H37.003V656.3C37.003 658.54 37.483 659 39.543 659H40.863V657.48H39.943C38.903 657.48 38.823 657.2 38.823 656.08V649.7H40.863V648.24H38.823V645.54H37.003Z" fill="black"/>
<path d="M7.36 707.24C5.02 707.24 2.12 708.44 2.12 711.2C2.12 713.62 4.12 714.72 6.1 715.16L7.9 715.54C9.72 715.94 11.02 716.58 11.02 718.1C11.02 719.52 9.78 720.54 7.64 720.54C5.42 720.54 4.02 719.5 3.64 717.5H1.64C2.02 720.4 4.18 722.26 7.6 722.26C10.48 722.26 13.12 720.76 13.12 717.92C13.12 715 10.46 714.16 8.24 713.68L6.56 713.3C5.22 713 4.2 712.36 4.2 711.08C4.2 709.46 6.16 708.96 7.28 708.96C8.74 708.96 10.38 709.52 10.88 711.2H12.86C12.3 708.4 9.96 707.24 7.36 707.24ZM25.1655 716.66C25.1655 712.76 22.5055 711.06 20.0055 711.06C17.5055 711.06 14.8455 712.76 14.8455 716.66C14.8455 720.56 17.5055 722.26 20.0055 722.26C22.5055 722.26 25.1655 720.56 25.1655 716.66ZM20.0055 720.66C18.3655 720.66 16.7855 719.52 16.7855 716.66C16.7855 713.72 18.3655 712.66 20.0055 712.66C21.6455 712.66 23.2255 713.8 23.2255 716.66C23.2255 719.42 21.6455 720.66 20.0055 720.66ZM34.0023 720.46V722H35.8223V711.24H34.0023V717.16C34.0023 719.46 32.9823 720.68 31.2623 720.68C29.2823 720.68 29.0023 719.24 29.0023 717.58L29.0023 711.24H27.1823L27.1823 718.12C27.1823 720.58 28.1223 722.26 30.6223 722.26C32.4023 722.26 33.3823 721.48 34.0023 720.46ZM39.2295 708.54V711.24H37.5295V712.7H39.2295V719.3C39.2295 721.54 39.7095 722 41.7695 722H43.0895V720.48H42.1695C41.1295 720.48 41.0495 720.2 41.0495 719.08V712.7H43.0895V711.24H41.0495V708.54H39.2295ZM47.2288 712.86V707.5H45.4088V722H47.2288V716.16C47.2288 713.86 48.3088 712.64 50.0688 712.64C52.1488 712.64 52.4288 714.08 52.4288 715.74V722H54.2487V715.2C54.2487 712.74 53.3088 711.06 50.7088 711.06C48.8888 711.06 47.8488 711.84 47.2288 712.86Z" fill="black"/>
<path d="M2.72 823.5L2.72 838H12.56V836.24H4.76L4.76 831.42H12.1V829.66H4.76V825.26H12.56L12.56 823.5H2.72ZM14.1633 835.16C14.1633 837.14 15.8433 838.26 17.8633 838.26C19.7633 838.26 20.8833 837.62 21.5433 836.52C21.5633 837.16 21.6233 837.6 21.6833 838H23.5233C23.3233 836.98 23.2233 835.74 23.2433 833.94L23.2633 831.46C23.2833 828.44 21.9433 827.02 18.9833 827.02C16.8833 827.02 14.8433 828.32 14.6633 830.64H16.5433C16.6233 829.32 17.5033 828.5 19.0033 828.5C20.3433 828.5 21.4433 829.16 21.4433 831.12V831.38C17.0233 831.88 14.1633 832.62 14.1633 835.16ZM21.5833 832.82V833.5C21.5833 836.04 19.9633 836.82 18.2633 836.82C16.9633 836.82 16.1833 836.14 16.1833 835.12C16.1833 833.64 18.2833 833.16 21.5833 832.82ZM32.1352 830.38H34.0352C33.6952 828.34 32.1152 827.04 29.7952 827.04C27.4152 827.04 25.4952 828.14 25.4952 830.04C25.4952 832.04 27.0952 832.72 28.5552 833.02L30.1552 833.34C31.3152 833.58 32.3352 834.04 32.3352 835.12C32.3352 836.12 31.2152 836.72 29.8352 836.72C28.2352 836.72 27.3752 835.9 27.0952 834.52H25.1752C25.3752 836.4 26.9752 838.26 29.7952 838.26C32.2552 838.26 34.1752 837.04 34.1752 834.92C34.1752 832.84 32.4552 832.1 30.4952 831.72L28.9752 831.42C27.9352 831.22 27.3352 830.82 27.3352 829.96C27.3352 828.98 28.5352 828.6 29.5952 828.6C30.8552 828.6 31.8552 829.1 32.1352 830.38ZM37.003 824.54V827.24H35.303V828.7H37.003V835.3C37.003 837.54 37.483 838 39.543 838H40.863V836.48H39.943C38.903 836.48 38.823 836.2 38.823 835.08V828.7H40.863V827.24H38.823V824.54H37.003Z" fill="black"/>
<path d="M11.4 1001H14.38L14.38 986.5H12.34L12.34 998.84L5.72 986.5H2.72L2.72 1001H4.76L4.76 988.62L11.4 1001ZM27.1577 995.66C27.1577 991.76 24.4977 990.06 21.9977 990.06C19.4977 990.06 16.8377 991.76 16.8377 995.66C16.8377 999.56 19.4977 1001.26 21.9977 1001.26C24.4977 1001.26 27.1577 999.56 27.1577 995.66ZM21.9977 999.66C20.3577 999.66 18.7777 998.52 18.7777 995.66C18.7777 992.72 20.3577 991.66 21.9977 991.66C23.6377 991.66 25.2177 992.8 25.2177 995.66C25.2177 998.42 23.6377 999.66 21.9977 999.66ZM34.6945 992.14V990.2C34.4945 990.18 34.3345 990.18 34.1545 990.18C32.7545 990.22 31.6545 990.9 31.1145 992.12L31.1145 990.24H29.3345L29.3345 1001H31.1545V995.36C31.1545 993 31.9945 992.06 33.6745 992.06C33.9745 992.06 34.3145 992.1 34.6945 992.14ZM36.9639 987.54V990.24H35.2639V991.7H36.9639V998.3C36.9639 1000.54 37.4439 1001 39.5039 1001H40.8239V999.48H39.9039C38.8639 999.48 38.7839 999.2 38.7839 998.08V991.7H40.8239V990.24H38.7839V987.54H36.9639ZM44.9631 991.86V986.5H43.1431V1001H44.9631V995.16C44.9631 992.86 46.0431 991.64 47.8031 991.64C49.8831 991.64 50.1631 993.08 50.1631 994.74V1001H51.9831V994.2C51.9831 991.74 51.0431 990.06 48.4431 990.06C46.6231 990.06 45.5831 990.84 44.9631 991.86ZM54.1256 996.38H60.4856V994.66H54.1256V996.38ZM2.72 1013.5L2.72 1028H12.56V1026.24H4.76V1021.42H12.1L12.1 1019.66H4.76L4.76 1015.26H12.56V1013.5H2.72ZM14.1633 1025.16C14.1633 1027.14 15.8433 1028.26 17.8633 1028.26C19.7633 1028.26 20.8833 1027.62 21.5433 1026.52C21.5633 1027.16 21.6233 1027.6 21.6833 1028H23.5233C23.3233 1026.98 23.2233 1025.74 23.2433 1023.94L23.2633 1021.46C23.2833 1018.44 21.9433 1017.02 18.9833 1017.02C16.8833 1017.02 14.8433 1018.32 14.6633 1020.64H16.5433C16.6233 1019.32 17.5033 1018.5 19.0033 1018.5C20.3433 1018.5 21.4433 1019.16 21.4433 1021.12V1021.38C17.0233 1021.88 14.1633 1022.62 14.1633 1025.16ZM21.5833 1022.82V1023.5C21.5833 1026.04 19.9633 1026.82 18.2633 1026.82C16.9633 1026.82 16.1833 1026.14 16.1833 1025.12C16.1833 1023.64 18.2833 1023.16 21.5833 1022.82ZM32.1352 1020.38H34.0352C33.6952 1018.34 32.1152 1017.04 29.7952 1017.04C27.4152 1017.04 25.4952 1018.14 25.4952 1020.04C25.4952 1022.04 27.0952 1022.72 28.5552 1023.02L30.1552 1023.34C31.3152 1023.58 32.3352 1024.04 32.3352 1025.12C32.3352 1026.12 31.2152 1026.72 29.8352 1026.72C28.2352 1026.72 27.3752 1025.9 27.0952 1024.52H25.1752C25.3752 1026.4 26.9752 1028.26 29.7952 1028.26C32.2552 1028.26 34.1752 1027.04 34.1752 1024.92C34.1752 1022.84 32.4552 1022.1 30.4952 1021.72L28.9752 1021.42C27.9352 1021.22 27.3352 1020.82 27.3352 1019.96C27.3352 1018.98 28.5352 1018.6 29.5952 1018.6C30.8552 1018.6 31.8552 1019.1 32.1352 1020.38ZM37.003 1014.54V1017.24H35.303V1018.7H37.003V1025.3C37.003 1027.54 37.483 1028 39.543 1028H40.863V1026.48H39.943C38.903 1026.48 38.823 1026.2 38.823 1025.08V1018.7H40.863V1017.24H38.823V1014.54H37.003Z" fill="black"/>
<path d="M510.12 7.04C510.12 4.6 508.2 3.24 505.52 3.24C502.44 3.24 500.44 5.14 500.48 8.02H502.36C502.4 5.62 503.92 4.76 505.48 4.76C507.2 4.76 508.2 5.78 508.2 7.28C508.2 9.84 505.2 12.58 500.08 16.36V18H510.52V16.3H502.56C506.62 13.38 510.12 10.4 510.12 7.04ZM517.877 18.26C521.737 18.26 523.517 15.34 523.517 10.74C523.517 6.16 521.737 3.24 517.877 3.24C514.017 3.24 512.237 6.16 512.237 10.74C512.237 15.34 514.017 18.26 517.877 18.26ZM517.877 4.76C520.157 4.76 521.577 6.72 521.577 10.74C521.577 14.78 520.157 16.74 517.877 16.74C515.597 16.74 514.177 14.78 514.177 10.74C514.177 6.72 515.597 4.76 517.877 4.76ZM535.14 7.04C535.14 4.6 533.22 3.24 530.54 3.24C527.46 3.24 525.46 5.14 525.5 8.02L527.38 8.02C527.42 5.62 528.94 4.76 530.5 4.76C532.22 4.76 533.22 5.78 533.22 7.28C533.22 9.84 530.22 12.58 525.1 16.36V18H535.54V16.3H527.58C531.64 13.38 535.14 10.4 535.14 7.04ZM542.897 18.26C546.757 18.26 548.537 15.34 548.537 10.74C548.537 6.16 546.757 3.24 542.897 3.24C539.037 3.24 537.257 6.16 537.257 10.74C537.257 15.34 539.037 18.26 542.897 18.26ZM542.897 4.76C545.177 4.76 546.597 6.72 546.597 10.74C546.597 14.78 545.177 16.74 542.897 16.74C540.617 16.74 539.197 14.78 539.197 10.74C539.197 6.72 540.617 4.76 542.897 4.76Z" fill="black"/>
<path d="M671.05 7.04C671.05 4.6 669.13 3.24 666.45 3.24C663.37 3.24 661.37 5.14 661.41 8.02L663.29 8.02C663.33 5.62 664.85 4.76 666.41 4.76C668.13 4.76 669.13 5.78 669.13 7.28C669.13 9.84 666.13 12.58 661.01 16.36V18H671.45V16.3H663.49C667.55 13.38 671.05 10.4 671.05 7.04ZM678.807 18.26C682.667 18.26 684.447 15.34 684.447 10.74C684.447 6.16 682.667 3.24 678.807 3.24C674.947 3.24 673.167 6.16 673.167 10.74C673.167 15.34 674.947 18.26 678.807 18.26ZM678.807 4.76C681.087 4.76 682.507 6.72 682.507 10.74C682.507 14.78 681.087 16.74 678.807 16.74C676.527 16.74 675.107 14.78 675.107 10.74C675.107 6.72 676.527 4.76 678.807 4.76ZM696.07 7.04C696.07 4.6 694.15 3.24 691.47 3.24C688.39 3.24 686.39 5.14 686.43 8.02H688.31C688.35 5.62 689.87 4.76 691.43 4.76C693.15 4.76 694.15 5.78 694.15 7.28C694.15 9.84 691.15 12.58 686.03 16.36V18H696.47V16.3H688.51C692.57 13.38 696.07 10.4 696.07 7.04ZM700.827 18H702.647V3.5H701.407C700.607 5.08 699.547 5.34 697.467 5.42V6.66H700.827V18Z" fill="black"/>
<path d="M342.845 7.04C342.845 4.6 340.925 3.24 338.245 3.24C335.165 3.24 333.165 5.14 333.205 8.02L335.085 8.02C335.125 5.62 336.645 4.76 338.205 4.76C339.925 4.76 340.925 5.78 340.925 7.28C340.925 9.84 337.925 12.58 332.805 16.36V18H343.245V16.3H335.285C339.345 13.38 342.845 10.4 342.845 7.04ZM350.602 18.26C354.462 18.26 356.242 15.34 356.242 10.74C356.242 6.16 354.462 3.24 350.602 3.24C346.742 3.24 344.962 6.16 344.962 10.74C344.962 15.34 346.742 18.26 350.602 18.26ZM350.602 4.76C352.882 4.76 354.302 6.72 354.302 10.74C354.302 14.78 352.882 16.74 350.602 16.74C348.322 16.74 346.902 14.78 346.902 10.74C346.902 6.72 348.322 4.76 350.602 4.76ZM360.825 18H362.645V3.5H361.405C360.605 5.08 359.545 5.34 357.465 5.42V6.66H360.825V18ZM373.928 11.14C373.828 14.5 372.588 16.74 370.348 16.74C368.868 16.74 367.888 15.94 367.648 14.64H365.668C365.968 16.48 367.308 18.26 370.148 18.26C374.328 18.26 375.808 14.34 375.808 10.24C375.808 5.76 374.148 3.24 370.528 3.24C367.428 3.24 365.428 5.54 365.428 8.22C365.428 11.14 367.408 13.16 370.088 13.16C372.008 13.16 373.268 12.28 373.928 11.14ZM370.548 4.76C372.468 4.76 373.688 6.14 373.688 8.14C373.688 10.12 372.428 11.56 370.528 11.56C368.648 11.56 367.368 10.12 367.368 8.14C367.368 6.16 368.668 4.76 370.548 4.76Z" fill="black"/>
<path d="M182.689 7.04C182.689 4.6 180.769 3.24 178.089 3.24C175.009 3.24 173.009 5.14 173.049 8.02L174.929 8.02C174.969 5.62 176.489 4.76 178.049 4.76C179.769 4.76 180.769 5.78 180.769 7.28C180.769 9.84 177.769 12.58 172.649 16.36V18H183.089V16.3H175.129C179.189 13.38 182.689 10.4 182.689 7.04ZM190.446 18.26C194.306 18.26 196.086 15.34 196.086 10.74C196.086 6.16 194.306 3.24 190.446 3.24C186.586 3.24 184.806 6.16 184.806 10.74C184.806 15.34 186.586 18.26 190.446 18.26ZM190.446 4.76C192.726 4.76 194.146 6.72 194.146 10.74C194.146 14.78 192.726 16.74 190.446 16.74C188.166 16.74 186.746 14.78 186.746 10.74C186.746 6.72 188.166 4.76 190.446 4.76ZM200.668 18H202.488V3.5H201.248C200.448 5.08 199.388 5.34 197.308 5.42V6.66H200.668V18ZM215.532 6.94C215.532 4.8 213.652 3.24 210.692 3.24C207.712 3.24 205.852 4.8 205.852 6.94C205.852 8.12 206.412 9.5 207.852 10.28C205.952 11.04 205.392 12.6 205.392 13.92C205.392 16.68 207.692 18.26 210.692 18.26C213.672 18.26 215.972 16.68 215.972 13.92C215.972 12.6 215.412 11.04 213.532 10.28C214.972 9.5 215.532 8.12 215.532 6.94ZM210.692 4.76C212.492 4.76 213.692 5.72 213.692 7.16C213.692 8.62 212.492 9.7 210.692 9.7C208.872 9.7 207.672 8.62 207.672 7.16C207.672 5.72 208.872 4.76 210.692 4.76ZM207.332 13.92C207.332 12.22 208.632 11.04 210.692 11.04C212.732 11.04 214.052 12.22 214.052 13.92C214.052 15.62 212.732 16.74 210.692 16.74C208.632 16.74 207.332 15.62 207.332 13.92Z" fill="black"/>
<path d="M659.621 993C659.621 980.048 670.169 969.5 683.121 969.5C696.073 969.5 706.621 980.048 706.621 993C706.621 1005.95 696.073 1016.5 683.121 1016.5C670.168 1016.5 659.621 1006.02 659.621 993Z" fill="#FF3A17" stroke="#FF46EC"/>
<path d="M683.621 400.5L683.619 400.5C672.563 400.554 663.621 392.017 663.621 381.5C663.621 371.04 672.571 362.5 683.621 362.5C694.671 362.5 703.621 371.049 703.621 381.5C703.621 391.96 694.671 400.5 683.621 400.5Z" fill="#FF3A17" stroke="#FF46EC"/>
<path d="M666.621 97C666.621 87.8847 674.006 80.5 683.121 80.5C692.236 80.5 699.621 87.8847 699.621 97C699.621 106.115 692.236 113.5 683.121 113.5C674.006 113.5 666.621 106.115 666.621 97Z" fill="#FF3A17" stroke="#FF46EC"/>
<path d="M667.621 234C667.621 225.462 674.778 218.5 683.621 218.5C692.464 218.5 699.621 225.462 699.621 234C699.621 242.538 692.464 249.5 683.621 249.5C674.778 249.5 667.621 242.538 667.621 234Z" fill="#FF3A17" stroke="#FF46EC"/>
<path d="M671.621 517C671.621 510.651 676.957 505.5 683.621 505.5C690.286 505.5 695.621 510.651 695.621 517C695.621 523.349 690.286 528.5 683.621 528.5C676.957 528.5 671.621 523.349 671.621 517Z" fill="#FF3A17" stroke="#FF46EC"/>
<path d="M672.621 623C672.621 616.61 677.549 611.5 683.621 611.5C689.694 611.5 694.621 616.61 694.621 623C694.621 629.39 689.694 634.5 683.621 634.5C677.602 634.5 672.621 629.388 672.621 623Z" fill="#FF3A17" stroke="#FF46EC"/>
<path d="M683.621 837.499L683.616 837.499C678.627 837.553 674.621 833.502 674.621 828.5C674.621 823.505 678.688 819.5 683.621 819.5C688.552 819.5 692.621 823.569 692.621 828.5C692.621 833.495 688.554 837.499 683.621 837.499Z" fill="#FF3A17" stroke="#FF46EC"/>
<mask id="path-20-inside-1_905_240" fill="white">
<path fill-rule="evenodd" clip-rule="evenodd" d="M626 992.867C626 974.768 634.435 958.642 647.592 948.186C691.176 912.112 679.686 862.661 664.262 843.85L664.269 843.85C660.816 839.644 658.745 834.264 658.745 828.398C658.745 821.58 661.544 815.418 666.059 810.993L666.053 810.993C683.508 793.894 682.929 743.25 667.211 727.306L667.218 727.306C663.241 723.271 660.788 717.738 660.788 711.633C660.788 705.751 663.066 700.398 666.791 696.406L666.781 696.406C682.051 680.034 684.685 663.718 663.55 644.114L663.562 644.114C657.896 638.859 654.35 631.36 654.35 623.039C654.35 615.201 657.496 608.093 662.596 602.902C682.49 582.251 683.972 562.987 660.535 540.433L660.537 540.433C654.386 534.514 650.563 526.205 650.563 517C650.563 508.576 653.768 500.9 659.029 495.12C677.58 473.442 683.835 451.104 648.977 421.077L648.987 421.077C637.879 411.501 630.849 397.347 630.849 381.56C630.849 366.551 637.2 353.022 647.366 343.498L647.357 343.498C679.443 313.445 676.813 289.878 652.297 263.581C644.749 255.839 640.102 245.27 640.102 233.615C640.102 221.74 644.931 210.987 652.739 203.206L652.738 203.206C679.756 176.273 679.738 153.978 652.766 127.073L652.779 127.073C644.988 119.302 640.165 108.572 640.165 96.7322C640.165 73.0492 659.46 53.8086 683.209 53.8086C706.959 53.8086 726.253 73.0492 726.253 96.7322C726.253 108.572 721.431 119.302 713.64 127.073L713.658 127.073C686.77 153.894 686.668 176.134 713.433 202.954C721.389 210.753 726.322 221.608 726.322 233.615C726.322 245.313 721.64 255.918 714.043 263.667C689.602 289.929 687.013 313.478 719.063 343.498L719.059 343.498C729.227 353.024 735.579 366.554 735.579 381.56C735.579 397.347 728.549 411.501 717.441 421.077L717.451 421.077C682.606 451.101 688.856 473.437 707.393 495.113C712.656 500.892 715.862 508.57 715.862 517C715.862 526.382 711.886 534.837 705.52 540.778C682.517 563.124 684.017 582.27 703.683 602.763C708.864 607.966 712.066 615.131 712.066 623.039C712.066 631.36 708.521 638.859 702.855 644.114L702.859 644.114C681.828 663.612 684.332 679.864 699.402 696.164C703.263 700.18 705.635 705.631 705.635 711.633C705.635 717.854 703.087 723.481 698.976 727.535C683.575 743.632 682.99 793.326 700.021 810.658C704.74 815.105 707.682 821.406 707.682 828.398C707.682 834.404 705.512 839.9 701.909 844.149C686.539 863.257 675.364 912.75 719.42 948.677L719.402 948.677C732.222 959.135 740.414 975.02 740.414 992.802C740.414 1024.34 714.806 1049.88 683.24 1049.88C651.617 1049.94 626 1024.4 626 992.867Z"/>
</mask>
<path d="M647.592 948.186L648.214 948.969L648.222 948.963L648.229 948.957L647.592 948.186ZM664.262 843.85L664.262 842.85L662.149 842.85L663.489 844.484L664.262 843.85ZM664.269 843.85L664.269 844.85L666.384 844.85L665.042 843.216L664.269 843.85ZM666.059 810.993L666.759 811.707L668.508 809.993L666.059 809.993L666.059 810.993ZM666.053 810.993L665.353 810.278L663.603 811.993L666.053 811.993L666.053 810.993ZM667.211 727.306L667.211 726.306L664.821 726.306L666.499 728.008L667.211 727.306ZM667.218 727.306L667.218 728.306L669.608 728.306L667.93 726.604L667.218 727.306ZM666.791 696.406L667.522 697.088L669.091 695.406L666.791 695.406L666.791 696.406ZM666.781 696.406L666.05 695.724L664.481 697.406L666.781 697.406L666.781 696.406ZM663.55 644.114L663.55 643.114L661.001 643.114L662.87 644.847L663.55 644.114ZM663.562 644.114L663.562 645.114L666.111 645.114L664.242 643.38L663.562 644.114ZM662.596 602.902L663.309 603.603L663.316 603.596L662.596 602.902ZM660.535 540.433L660.535 539.433L658.054 539.433L659.842 541.154L660.535 540.433ZM660.537 540.433L660.537 541.433L663.018 541.433L661.231 539.713L660.537 540.433ZM659.029 495.12L659.769 495.793L659.779 495.782L659.789 495.77L659.029 495.12ZM648.977 421.077L648.977 420.077L646.283 420.077L648.324 421.835L648.977 421.077ZM648.987 421.077L648.987 422.077L651.679 422.077L649.64 420.32L648.987 421.077ZM647.366 343.498L648.05 344.228L649.896 342.498L647.366 342.498L647.366 343.498ZM647.357 343.498L646.673 342.768L644.826 344.498L647.357 344.498L647.357 343.498ZM652.297 263.581L653.028 262.899L653.021 262.891L653.013 262.883L652.297 263.581ZM652.739 203.206L653.445 203.915L655.159 202.206L652.739 202.206L652.739 203.206ZM652.738 203.206L652.032 202.498L650.319 204.206L652.738 204.206L652.738 203.206ZM652.766 127.073L652.766 126.073L650.348 126.073L652.06 127.781L652.766 127.073ZM652.779 127.073L652.779 128.073L655.197 128.073L653.485 126.365L652.779 127.073ZM713.64 127.073L712.934 126.365L711.221 128.073L713.64 128.073L713.64 127.073ZM713.658 127.073L714.364 127.781L716.076 126.073L713.658 126.073L713.658 127.073ZM713.433 202.954L712.725 203.661L712.733 203.668L713.433 202.954ZM714.043 263.667L713.328 262.967L713.319 262.976L713.311 262.986L714.043 263.667ZM719.063 343.498L719.063 344.498L721.594 344.498L719.747 342.768L719.063 343.498ZM719.059 343.498L719.059 342.498L716.529 342.498L718.375 344.228L719.059 343.498ZM717.441 421.077L716.788 420.32L714.749 422.077L717.441 422.077L717.441 421.077ZM717.451 421.077L718.104 421.835L720.144 420.077L717.451 420.077L717.451 421.077ZM707.393 495.113L706.633 495.763L706.643 495.775L706.654 495.786L707.393 495.113ZM705.52 540.778L704.838 540.047L704.831 540.054L704.824 540.061L705.52 540.778ZM703.683 602.763L702.962 603.456L702.968 603.462L702.975 603.469L703.683 602.763ZM702.855 644.114L702.175 643.38L700.306 645.114L702.855 645.114L702.855 644.114ZM702.859 644.114L703.538 644.847L705.408 643.114L702.859 643.114L702.859 644.114ZM699.402 696.164L698.668 696.843L698.675 696.85L698.681 696.857L699.402 696.164ZM698.976 727.535L698.274 726.823L698.263 726.833L698.253 726.843L698.976 727.535ZM700.021 810.658L699.307 811.359L699.321 811.373L699.335 811.386L700.021 810.658ZM701.909 844.149L701.146 843.502L701.138 843.512L701.13 843.522L701.909 844.149ZM719.42 948.677L719.42 949.677L722.228 949.677L720.052 947.902L719.42 948.677ZM719.402 948.677L719.402 947.677L716.594 947.677L718.77 949.452L719.402 948.677ZM683.24 1049.88L683.24 1048.88L683.238 1048.88L683.24 1049.88ZM646.969 947.404C633.585 958.041 625 974.45 625 992.867L627 992.867C627 975.087 635.286 959.244 648.214 948.969L646.969 947.404ZM663.489 844.484C671.038 853.69 677.696 870.515 677.056 889.511C676.417 908.46 668.517 929.569 646.954 947.416L648.229 948.957C670.251 930.729 678.398 909.075 679.055 889.578C679.71 870.127 672.911 852.821 665.036 843.216L663.489 844.484ZM664.269 842.85L664.262 842.85L664.262 844.85L664.269 844.85L664.269 842.85ZM657.745 828.398C657.745 834.504 659.902 840.106 663.497 844.485L665.042 843.216C661.73 839.182 659.745 834.024 659.745 828.398L657.745 828.398ZM665.359 810.278C660.66 814.884 657.745 821.3 657.745 828.398L659.745 828.398C659.745 821.859 662.428 815.952 666.759 811.707L665.359 810.278ZM666.053 811.993L666.059 811.993L666.059 809.993L666.053 809.993L666.053 811.993ZM666.499 728.008C670.26 731.824 673.182 737.795 675.151 744.969C677.115 752.125 678.107 760.393 678.072 768.712C678.036 777.031 676.972 785.368 674.848 792.666C672.72 799.976 669.549 806.168 665.353 810.278L666.753 811.707C671.284 807.268 674.587 800.718 676.768 793.225C678.953 785.719 680.035 777.193 680.072 768.721C680.108 760.248 679.099 751.797 677.08 744.439C675.065 737.099 672.021 730.761 667.923 726.604L666.499 728.008ZM667.218 726.306L667.211 726.306L667.211 728.306L667.218 728.306L667.218 726.306ZM667.93 726.604C664.13 722.748 661.788 717.464 661.788 711.633L659.788 711.633C659.788 718.011 662.352 723.794 666.506 728.008L667.93 726.604ZM661.788 711.633C661.788 706.014 663.963 700.903 667.522 697.088L666.059 695.724C662.169 699.894 659.788 705.487 659.788 711.633L661.788 711.633ZM666.791 695.406L666.781 695.406L666.781 697.406L666.791 697.406L666.791 695.406ZM667.513 697.088C675.222 688.822 679.895 680.412 679.817 671.463C679.739 662.501 674.9 653.277 664.23 643.381L662.87 644.847C673.335 654.554 677.746 663.291 677.817 671.48C677.889 679.684 673.61 687.618 666.05 695.724L667.513 697.088ZM663.55 645.114L663.562 645.114L663.562 643.114L663.55 643.114L663.55 645.114ZM664.242 643.38C658.771 638.306 655.35 631.07 655.35 623.039L653.35 623.039C653.35 631.65 657.021 639.411 662.882 644.847L664.242 643.38ZM655.35 623.039C655.35 615.474 658.385 608.615 663.309 603.603L661.883 602.201C656.607 607.571 653.35 614.928 653.35 623.039L655.35 623.039ZM663.316 603.596C673.345 593.186 678.89 582.967 678.815 572.374C678.74 561.775 673.041 551.08 661.229 539.713L659.842 541.154C671.466 552.34 676.745 562.553 676.815 572.388C676.885 582.228 671.742 591.967 661.876 602.208L663.316 603.596ZM660.535 541.433L660.537 541.433L660.537 539.433L660.535 539.433L660.535 541.433ZM661.231 539.713C655.267 533.974 651.563 525.922 651.563 517L649.563 517C649.563 526.488 653.505 535.053 659.844 541.154L661.231 539.713ZM651.563 517C651.563 508.835 654.668 501.397 659.769 495.793L658.29 494.447C652.867 500.404 649.563 508.317 649.563 517L651.563 517ZM659.789 495.77C669.115 484.872 675.521 473.621 675.031 461.19C674.54 448.743 667.153 435.415 649.629 420.319L648.324 421.835C665.658 436.766 672.573 449.62 673.032 461.269C673.492 472.932 667.494 483.69 658.269 494.47L659.789 495.77ZM648.977 422.077L648.987 422.077L648.987 420.077L648.977 420.077L648.977 422.077ZM649.64 420.32C638.743 410.925 631.849 397.043 631.849 381.56L629.849 381.56C629.849 397.651 637.016 412.077 648.334 421.834L649.64 420.32ZM631.849 381.56C631.849 366.84 638.076 353.571 648.05 344.228L646.682 342.768C636.323 352.474 629.849 366.263 629.849 381.56L631.849 381.56ZM647.366 342.498L647.357 342.498L647.357 344.498L647.366 344.498L647.366 342.498ZM648.041 344.228C664.167 329.123 671.755 315.48 672.052 302.153C672.35 288.831 665.354 276.12 653.028 262.899L651.566 264.263C663.756 277.339 670.333 289.56 670.053 302.108C669.773 314.653 662.632 327.82 646.673 342.768L648.041 344.228ZM653.013 262.883C645.64 255.32 641.102 244.998 641.102 233.615L639.102 233.615C639.102 245.541 643.859 256.358 651.581 264.279L653.013 262.883ZM641.102 233.615C641.102 222.016 645.817 211.516 653.445 203.915L652.033 202.498C644.045 210.459 639.102 221.463 639.102 233.615L641.102 233.615ZM652.739 202.206L652.738 202.206L652.738 204.206L652.739 204.206L652.739 202.206ZM653.444 203.915C667.029 190.373 673.997 177.824 673.998 165.129C674 152.435 667.034 139.893 653.472 126.365L652.06 127.781C665.47 141.158 671.999 153.216 671.998 165.129C671.997 177.042 665.466 189.107 652.032 202.498L653.444 203.915ZM652.766 128.073L652.779 128.073L652.779 126.073L652.766 126.073L652.766 128.073ZM653.485 126.365C645.873 118.774 641.165 108.295 641.165 96.7322L639.165 96.7322C639.165 108.85 644.102 119.831 652.072 127.781L653.485 126.365ZM641.165 96.7322C641.165 73.6042 660.009 54.8086 683.209 54.8086L683.209 52.8086C658.91 52.8086 639.165 72.4943 639.165 96.7322L641.165 96.7322ZM683.209 54.8086C706.409 54.8086 725.253 73.6042 725.253 96.7322L727.253 96.7322C727.253 72.4943 707.508 52.8086 683.209 52.8086L683.209 54.8086ZM725.253 96.7322C725.253 108.295 720.545 118.774 712.934 126.365L714.346 127.781C722.317 119.831 727.253 108.85 727.253 96.7322L725.253 96.7322ZM713.64 128.073L713.658 128.073L713.658 126.073L713.64 126.073L713.64 128.073ZM712.951 126.365C699.432 139.85 692.468 152.356 692.426 165.01C692.383 177.666 699.266 190.174 712.725 203.66L714.141 202.248C700.835 188.914 694.386 176.892 694.426 165.017C694.465 153.141 700.996 141.116 714.364 127.781L712.951 126.365ZM712.733 203.668C720.505 211.287 725.322 221.888 725.322 233.615L727.322 233.615C727.322 221.328 722.273 210.219 714.133 202.24L712.733 203.668ZM725.322 233.615C725.322 245.041 720.75 255.397 713.328 262.967L714.757 264.367C722.53 256.438 727.322 245.586 727.322 233.615L725.322 233.615ZM713.311 262.986C701.022 276.19 694.056 288.888 694.369 302.197C694.682 315.51 702.27 329.139 718.38 344.228L719.747 342.768C703.805 327.836 696.663 314.682 696.368 302.15C696.073 289.614 702.622 277.407 714.775 264.348L713.311 262.986ZM719.063 342.498L719.059 342.498L719.059 344.498L719.063 344.498L719.063 342.498ZM718.375 344.228C728.35 353.573 734.579 366.843 734.579 381.56L736.579 381.56C736.579 366.266 730.103 352.475 719.742 342.768L718.375 344.228ZM734.579 381.56C734.579 397.043 727.685 410.925 716.788 420.32L718.093 421.834C729.412 412.077 736.579 397.651 736.579 381.56L734.579 381.56ZM717.441 422.077L717.451 422.077L717.451 420.077L717.441 420.077L717.441 422.077ZM716.799 420.319C699.281 435.413 691.896 448.74 691.404 461.186C690.913 473.616 697.314 484.865 706.633 495.763L708.153 494.463C698.935 483.684 692.942 472.928 693.403 461.265C693.863 449.617 700.776 436.765 718.104 421.835L716.799 420.319ZM706.654 495.786C711.756 501.389 714.862 508.829 714.862 517L716.862 517C716.862 508.311 713.557 500.396 708.132 494.439L706.654 495.786ZM714.862 517C714.862 526.093 711.01 534.287 704.838 540.047L706.203 541.509C712.763 535.387 716.862 526.671 716.862 517L714.862 517ZM704.824 540.061C693.227 551.326 687.645 561.94 687.601 572.461C687.557 582.975 693.047 593.124 702.962 603.456L704.405 602.071C694.653 591.909 689.56 582.238 689.601 572.469C689.641 562.708 694.811 552.576 706.217 541.496L704.824 540.061ZM702.975 603.469C707.977 608.492 711.066 615.406 711.066 623.039L713.066 623.039C713.066 614.855 709.751 607.44 704.392 602.058L702.975 603.469ZM711.066 623.039C711.066 631.07 707.646 638.306 702.175 643.38L703.535 644.847C709.396 639.411 713.066 631.65 713.066 623.039L711.066 623.039ZM702.855 645.114L702.859 645.114L702.859 643.114L702.855 643.114L702.855 645.114ZM702.179 643.38C691.562 653.224 686.717 662.402 686.593 671.324C686.469 680.233 691.057 688.611 698.668 696.843L700.136 695.485C692.677 687.417 688.479 679.518 688.593 671.352C688.706 663.198 693.125 654.501 703.538 644.847L702.179 643.38ZM698.681 696.857C702.37 700.695 704.635 705.9 704.635 711.633L706.635 711.633C706.635 705.362 704.155 699.666 700.123 695.471L698.681 696.857ZM704.635 711.633C704.635 717.575 702.202 722.949 698.274 726.823L699.678 728.247C703.972 724.013 706.635 718.133 706.635 711.633L704.635 711.633ZM700.734 809.957C696.635 805.786 693.542 799.604 691.468 792.347C689.398 785.102 688.365 776.855 688.336 768.63C688.308 760.405 689.284 752.233 691.212 745.139C693.144 738.028 696.009 732.082 699.698 728.226L698.253 726.843C694.242 731.036 691.259 737.338 689.282 744.614C687.301 751.907 686.307 760.26 686.336 768.637C686.365 777.014 687.417 785.447 689.545 792.896C691.671 800.335 694.89 806.864 699.307 811.359L700.734 809.957ZM708.682 828.398C708.682 821.119 705.618 814.558 700.706 809.93L699.335 811.386C703.862 815.652 706.682 821.693 706.682 828.398L708.682 828.398ZM702.672 844.795C706.422 840.372 708.682 834.649 708.682 828.398L706.682 828.398C706.682 834.158 704.601 839.427 701.146 843.502L702.672 844.795ZM720.052 947.902C698.254 930.126 690.16 909.042 689.379 890.065C688.596 871.041 695.163 854.131 702.688 844.775L701.13 843.522C693.285 853.274 686.579 870.665 687.381 890.147C688.184 909.675 696.53 931.301 718.788 949.452L720.052 947.902ZM719.402 949.677L719.42 949.677L719.42 947.677L719.402 947.677L719.402 949.677ZM741.414 992.802C741.414 974.706 733.075 958.541 720.034 947.902L718.77 949.452C731.368 959.729 739.414 975.335 739.414 992.802L741.414 992.802ZM683.24 1050.88C715.356 1050.88 741.414 1024.89 741.414 992.802L739.414 992.802C739.414 1023.78 714.255 1048.88 683.24 1048.88L683.24 1050.88ZM625 992.867C625 1024.96 651.068 1050.94 683.241 1050.88L683.238 1048.88C652.166 1048.94 627 1023.85 627 992.867L625 992.867Z" fill="#FF46EC" mask="url(#path-20-inside-1_905_240)"/>
<path d="M674.621 711.5C674.621 707.133 678.372 703.5 683.121 703.5C687.872 703.5 691.621 707.08 691.621 711.5C691.621 715.92 687.872 719.5 683.121 719.5C678.372 719.5 674.621 715.867 674.621 711.5Z" fill="#FF3A17" stroke="#FF46EC"/>
<path d="M494.258 994.5C494.258 977.418 508.12 963.5 525.258 963.5C542.396 963.5 556.258 977.362 556.258 994.5C556.258 1011.58 542.395 1025.5 525.258 1025.5C508.12 1025.5 494.258 1011.64 494.258 994.5Z" fill="#FF3A17" stroke="#FF46EC"/>
<path d="M524.758 405.5L524.756 405.5C510.725 405.555 499.258 394.091 499.258 380C499.258 365.909 510.667 354.5 524.758 354.5C538.848 354.5 550.258 365.909 550.258 380C550.258 394.09 538.848 405.5 524.758 405.5Z" fill="#FF3A17" stroke="#FF46EC"/>
<path d="M502.258 95C502.258 83.0942 512.109 73.5 524.258 73.5C536.406 73.5 546.258 83.1491 546.258 95C546.258 106.851 536.406 116.5 524.258 116.5C512.11 116.5 502.258 106.851 502.258 95Z" fill="#FF3A17" stroke="#FF46EC"/>
<path d="M503.258 232C503.258 220.692 512.845 211.5 524.758 211.5C536.671 211.5 546.258 220.683 546.258 232C546.258 243.308 536.671 252.5 524.758 252.5C512.844 252.5 503.258 243.317 503.258 232Z" fill="#FF3A17" stroke="#FF46EC"/>
<path d="M507.258 516C507.258 506.922 514.822 499.5 524.258 499.5C533.694 499.5 541.258 506.868 541.258 516C541.258 525.132 533.694 532.5 524.258 532.5C514.821 532.5 507.258 525.132 507.258 516Z" fill="#FF3A17" stroke="#FF46EC"/>
<path d="M509.258 622.5C509.258 614.208 516.159 607.5 524.758 607.5C533.357 607.5 540.258 614.208 540.258 622.5C540.258 630.792 533.357 637.5 524.758 637.5C516.159 637.5 509.258 630.792 509.258 622.5Z" fill="#FF3A17" stroke="#FF46EC"/>
<path d="M511.258 828.5C511.258 821.355 517.312 815.5 524.758 815.5C532.203 815.5 538.258 821.364 538.258 828.5C538.258 835.645 532.204 841.5 524.758 841.5C517.312 841.5 511.258 835.636 511.258 828.5Z" fill="#FF3A17" stroke="#FF46EC"/>
<path d="M514.258 711C514.258 705.183 518.941 700.5 524.758 700.5C530.574 700.5 535.258 705.183 535.258 711C535.258 716.817 530.574 721.5 524.758 721.5C518.941 721.5 514.258 716.817 514.258 711Z" fill="#FF3A17" stroke="#FF46EC"/>
<mask id="path-31-inside-2_905_240" fill="white">
<path fill-rule="evenodd" clip-rule="evenodd" d="M449 993.25C449 971.387 458.255 951.694 473.06 937.87C497.537 914.532 496.938 895.809 476.398 874.089L476.399 874.089C465.114 862.161 458.198 846.06 458.198 828.354C458.198 805.739 469.481 785.743 486.74 773.715C513.112 754.545 509.947 740.382 501.78 728.646C498.125 723.814 495.954 717.789 495.954 711.26C495.954 703.546 498.972 696.549 503.893 691.384C515.123 678.552 516.406 666.643 499.653 651.349C491.568 644.329 486.458 633.973 486.458 622.418C486.458 611.992 490.618 602.543 497.368 595.639C512.802 579.275 513.398 565.099 494.861 547.406L494.891 547.406C486.623 539.517 481.475 528.392 481.475 516.083C481.475 505.536 485.236 495.877 491.492 488.372L491.492 488.372C505.526 471.523 507.992 454.985 482.298 433.135C466.851 420.716 456.967 401.656 456.967 380.288C456.967 360.622 465.335 342.93 478.697 330.55L478.668 330.55C502.487 308.473 501.95 290.964 483.981 271.152C474.196 260.976 468.184 247.138 468.184 231.898C468.184 216.046 474.688 201.726 485.177 191.459C504.599 171.79 504.802 155.363 485.725 135.742C474.865 125.424 468.097 110.836 468.097 94.6591L468.088 94.6591C468.088 63.3355 493.463 37.9609 524.73 37.9609C555.998 37.9609 581.428 63.3355 581.428 94.5938C581.428 110.426 574.946 124.738 564.498 135.022C544.75 154.925 544.681 171.487 564.228 191.346C574.785 201.621 581.337 215.988 581.337 231.898C581.337 247.121 575.338 260.931 565.573 271.097C547.555 290.931 547.004 308.453 570.836 330.55L570.814 330.55C584.149 342.934 592.509 360.62 592.544 380.223C592.544 401.185 583.036 419.903 568.11 432.337L568.138 432.337L568.148 432.337C541.876 454.225 543.732 470.788 557.329 487.55C564.005 495.166 568.049 505.147 568.049 516.083C568.049 528.761 562.613 540.157 553.943 548.07C536.265 565.296 536.873 579.23 551.734 595.222C558.728 602.16 563.058 611.78 563.058 622.418C563.058 633.96 557.96 644.305 549.892 651.325C533.073 666.657 534.393 678.595 545.683 691.451C550.567 696.609 553.558 703.579 553.558 711.26C553.558 717.873 551.342 723.957 547.61 728.814C539.566 740.467 536.548 754.539 562.495 773.518C579.902 785.514 591.3 805.59 591.3 828.354C591.3 846.26 584.249 862.501 572.769 874.456C552.47 896.126 552.11 914.856 576.813 938.212L576.8 938.212C591.395 952.019 600.5 971.57 600.5 993.25C600.5 1035.1 566.589 1069 524.75 1069C482.966 1069 449 1035.09 449 993.25Z"/>
</mask>
<path d="M473.06 937.87L473.742 938.601L473.75 938.594L473.06 937.87ZM476.398 874.089L476.398 873.089L474.076 873.089L475.672 874.776L476.398 874.089ZM476.399 874.089L476.399 875.089L478.722 875.089L477.125 873.402L476.399 874.089ZM486.74 773.715L487.312 774.535L487.32 774.529L487.328 774.524L486.74 773.715ZM501.78 728.646L502.6 728.075L502.589 728.059L502.577 728.043L501.78 728.646ZM503.893 691.384L504.617 692.074L504.632 692.059L504.646 692.043L503.893 691.384ZM499.653 651.349L500.327 650.611L500.318 650.602L500.308 650.594L499.653 651.349ZM497.368 595.639L498.083 596.338L498.09 596.332L498.096 596.325L497.368 595.639ZM494.861 547.406L494.861 546.406L492.365 546.406L494.17 548.129L494.861 547.406ZM494.891 547.406L494.891 548.406L497.387 548.406L495.581 546.682L494.891 547.406ZM491.492 488.372L492.26 489.012L493.627 487.372L491.492 487.372L491.492 488.372ZM491.492 488.372L490.723 487.732L489.357 489.372L491.492 489.372L491.492 488.372ZM482.298 433.135L482.945 432.373L482.935 432.365L482.924 432.356L482.298 433.135ZM478.697 330.55L479.376 331.284L481.248 329.55L478.697 329.55L478.697 330.55ZM478.668 330.55L477.988 329.817L476.118 331.55L478.668 331.55L478.668 330.55ZM483.981 271.152L484.722 270.48L484.712 270.469L484.702 270.459L483.981 271.152ZM485.177 191.459L485.876 192.173L485.882 192.168L485.888 192.161L485.177 191.459ZM485.725 135.742L486.442 135.045L486.428 135.031L486.414 135.017L485.725 135.742ZM468.097 94.6591L469.097 94.6591L469.097 93.6591L468.097 93.6591L468.097 94.6591ZM468.088 94.6591L467.088 94.6591L467.088 95.6591L468.088 95.6591L468.088 94.6591ZM564.498 135.022L563.796 134.31L563.788 134.318L564.498 135.022ZM564.228 191.346L563.516 192.047L563.523 192.055L563.531 192.062L564.228 191.346ZM565.573 271.097L564.852 270.404L564.842 270.414L564.833 270.424L565.573 271.097ZM570.836 330.55L570.836 331.55L573.386 331.55L571.516 329.817L570.836 330.55ZM570.814 330.55L570.814 329.55L568.268 329.55L570.134 331.283L570.814 330.55ZM592.544 380.223L593.544 380.223L593.544 380.221L592.544 380.223ZM568.11 432.337L567.47 431.569L565.347 433.337L568.11 433.337L568.11 432.337ZM568.148 432.337L568.788 433.105L570.91 431.337L568.148 431.337L568.148 432.337ZM557.329 487.55L556.553 488.18L556.565 488.195L556.578 488.21L557.329 487.55ZM553.943 548.07L553.269 547.331L553.257 547.342L553.245 547.354L553.943 548.07ZM551.734 595.222L551.001 595.902L551.015 595.917L551.03 595.932L551.734 595.222ZM549.892 651.325L549.235 650.571L549.227 650.578L549.218 650.586L549.892 651.325ZM545.683 691.451L544.931 692.11L544.944 692.125L544.957 692.138L545.683 691.451ZM547.61 728.814L546.817 728.204L546.801 728.224L546.787 728.245L547.61 728.814ZM562.495 773.518L561.904 774.325L561.916 774.333L561.927 774.341L562.495 773.518ZM572.769 874.456L572.047 873.764L572.039 873.773L572.769 874.456ZM576.813 938.212L576.813 939.212L579.326 939.212L577.5 937.485L576.813 938.212ZM576.8 938.212L576.8 937.212L574.288 937.212L576.113 938.938L576.8 938.212ZM472.377 937.139C457.378 951.144 448 971.099 448 993.25L450 993.25C450 971.676 459.131 952.243 473.742 938.601L472.377 937.139ZM475.672 874.776C485.866 885.556 490.94 895.417 490.611 905.339C490.281 915.268 484.531 925.55 472.37 937.146L473.75 938.594C486.065 926.851 492.254 916.103 492.61 905.406C492.965 894.701 487.47 884.341 477.125 873.402L475.672 874.776ZM476.399 873.089L476.398 873.089L476.398 875.089L476.399 875.089L476.399 873.089ZM457.198 828.354C457.198 846.326 464.219 862.67 475.673 874.776L477.125 873.402C466.009 861.652 459.198 845.795 459.198 828.354L457.198 828.354ZM486.168 772.894C468.653 785.102 457.198 805.398 457.198 828.354L459.198 828.354C459.198 806.079 470.31 786.384 487.312 774.535L486.168 772.894ZM487.328 774.524C500.597 764.878 506.636 756.354 508.193 748.589C509.755 740.793 506.747 734.033 502.6 728.075L500.959 729.217C504.979 734.995 507.637 741.185 506.232 748.196C504.82 755.239 499.255 763.381 486.152 772.906L487.328 774.524ZM502.577 728.043C499.049 723.378 496.954 717.564 496.954 711.26L494.954 711.26C494.954 718.015 497.201 724.249 500.982 729.249L502.577 728.043ZM496.954 711.26C496.954 703.812 499.866 697.06 504.617 692.074L503.169 690.694C498.077 696.039 494.954 703.28 494.954 711.26L496.954 711.26ZM504.646 692.043C510.332 685.545 513.657 679.109 513.265 672.233C512.874 665.362 508.788 658.334 500.327 650.611L498.978 652.088C507.271 659.658 510.92 666.232 511.268 672.346C511.616 678.456 508.685 684.39 503.141 690.726L504.646 692.043ZM500.308 650.594C492.433 643.756 487.458 633.672 487.458 622.418L485.458 622.418C485.458 634.275 490.703 644.902 498.997 652.104L500.308 650.594ZM487.458 622.418C487.458 612.263 491.508 603.063 498.083 596.338L496.653 594.94C489.727 602.023 485.458 611.72 485.458 622.418L487.458 622.418ZM498.096 596.325C505.887 588.064 510.104 580.181 509.853 571.99C509.602 563.805 504.898 555.604 495.551 546.683L494.17 548.129C503.361 556.901 507.627 564.635 507.854 572.052C508.081 579.463 504.283 586.85 496.641 594.953L498.096 596.325ZM494.861 548.406L494.891 548.406L494.891 546.406L494.861 546.406L494.861 548.406ZM495.581 546.682C487.503 538.974 482.475 528.108 482.475 516.083L480.475 516.083C480.475 528.677 485.743 540.06 494.2 548.129L495.581 546.682ZM482.475 516.083C482.475 505.778 486.149 496.344 492.26 489.012L490.724 487.732C484.323 495.41 480.475 505.294 480.475 516.083L482.475 516.083ZM491.492 487.372L491.492 487.372L491.492 489.372L491.492 489.372L491.492 487.372ZM492.26 489.012C499.344 480.507 503.666 471.898 502.788 462.536C501.912 453.184 495.875 443.369 482.945 432.373L481.65 433.897C494.414 444.751 499.992 454.13 500.797 462.722C501.602 471.303 497.673 479.388 490.723 487.732L492.26 489.012ZM482.924 432.356C467.703 420.118 457.967 401.34 457.967 380.288L455.967 380.288C455.967 401.971 465.998 421.314 481.671 433.915L482.924 432.356ZM457.967 380.288C457.967 360.912 466.211 343.482 479.376 331.284L478.017 329.817C464.46 342.377 455.967 360.332 455.967 380.288L457.967 380.288ZM478.697 329.55L478.668 329.55L478.668 331.55L478.697 331.55L478.697 329.55ZM479.348 331.284C491.333 320.175 497.373 310.054 497.993 300.064C498.615 290.059 493.785 280.472 484.722 270.48L483.241 271.824C492.147 281.643 496.57 290.718 495.997 299.94C495.423 309.176 489.822 318.849 477.988 329.817L479.348 331.284ZM484.702 270.459C475.09 260.462 469.184 246.87 469.184 231.898L467.184 231.898C467.184 247.406 473.303 261.49 483.26 271.845L484.702 270.459ZM469.184 231.898C469.184 216.326 475.573 202.26 485.876 192.173L484.477 190.744C473.804 201.192 467.184 215.767 467.184 231.898L469.184 231.898ZM485.888 192.161C495.676 182.25 500.79 172.99 500.888 163.593C500.986 154.192 496.061 144.938 486.442 135.045L485.008 136.439C494.466 146.167 498.978 154.937 498.888 163.572C498.798 172.212 494.1 180.999 484.465 190.756L485.888 192.161ZM486.414 135.017C475.745 124.88 469.097 110.551 469.097 94.6591L467.097 94.6591C467.097 111.121 473.986 125.968 485.037 136.467L486.414 135.017ZM468.097 93.6591L468.088 93.6591L468.088 95.6591L468.097 95.6591L468.097 93.6591ZM469.088 94.6591C469.088 63.8871 494.015 38.9609 524.73 38.9609L524.73 36.9609C492.91 36.9609 467.088 62.7839 467.088 94.6591L469.088 94.6591ZM524.73 38.9609C555.447 38.9609 580.428 63.8892 580.428 94.5938L582.428 94.5938C582.428 62.7818 556.549 36.9609 524.73 36.9609L524.73 38.9609ZM580.428 94.5938C580.428 110.147 574.061 124.206 563.797 134.31L565.2 135.735C575.831 125.271 582.428 110.705 582.428 94.5938L580.428 94.5938ZM563.788 134.318C553.838 144.347 548.672 153.702 548.628 163.196C548.584 172.692 553.664 182.039 563.516 192.047L564.941 190.644C555.245 180.794 550.587 171.931 550.628 163.205C550.668 154.478 555.411 145.601 565.208 135.727L563.788 134.318ZM563.531 192.062C573.901 202.157 580.337 216.268 580.337 231.898L582.337 231.898C582.337 215.708 575.668 201.085 564.926 190.629L563.531 192.062ZM580.337 231.898C580.337 246.853 574.445 260.418 564.852 270.404L566.294 271.789C576.231 261.445 582.337 247.389 582.337 231.898L580.337 231.898ZM564.833 270.424C555.746 280.427 550.9 290.022 551.513 300.036C552.125 310.035 558.165 320.164 570.156 331.283L571.516 329.817C559.676 318.838 554.075 309.158 553.509 299.914C552.944 290.683 557.382 281.601 566.313 271.769L564.833 270.424ZM570.836 329.55L570.814 329.55L570.814 331.55L570.836 331.55L570.836 329.55ZM570.134 331.283C583.274 343.486 591.51 360.91 591.544 380.225L593.544 380.221C593.509 360.329 585.024 342.382 571.495 329.817L570.134 331.283ZM591.544 380.223C591.544 400.875 582.178 419.317 567.47 431.569L568.75 433.105C583.894 420.49 593.544 401.494 593.544 380.223L591.544 380.223ZM568.11 433.337L568.138 433.337L568.138 431.337L568.11 431.337L568.11 433.337ZM568.138 433.337L568.148 433.337L568.148 431.337L568.138 431.337L568.138 433.337ZM567.507 431.569C554.293 442.579 547.962 452.401 546.795 461.742C545.626 471.108 549.681 479.709 556.553 488.18L558.106 486.92C551.381 478.63 547.709 470.569 548.78 461.99C549.854 453.388 555.731 443.984 568.788 433.105L567.507 431.569ZM556.578 488.21C563.099 495.649 567.049 505.399 567.049 516.083L569.049 516.083C569.049 504.896 564.911 494.682 558.081 486.891L556.578 488.21ZM567.049 516.083C567.049 528.469 561.74 539.6 553.269 547.331L554.617 548.808C563.487 540.714 569.049 529.053 569.049 516.083L567.049 516.083ZM553.245 547.354C544.325 556.046 539.847 564.069 539.637 572.082C539.426 580.099 543.495 587.825 551.001 595.902L552.466 594.541C545.112 586.627 541.446 579.39 541.636 572.135C541.826 564.877 545.883 557.32 554.641 548.786L553.245 547.354ZM551.03 595.932C557.842 602.69 562.058 612.057 562.058 622.418L564.058 622.418C564.058 611.503 559.614 601.63 552.438 594.512L551.03 595.932ZM562.058 622.418C562.058 633.659 557.095 643.733 549.235 650.571L550.548 652.08C558.826 644.877 564.058 634.261 564.058 622.418L562.058 622.418ZM549.218 650.586C540.724 658.329 536.63 665.373 536.248 672.261C535.866 679.153 539.216 685.602 544.931 692.11L546.434 690.791C540.86 684.443 537.905 678.496 538.245 672.372C538.585 666.243 542.24 659.653 550.565 652.064L549.218 650.586ZM544.957 692.138C549.671 697.118 552.558 703.844 552.558 711.26L554.558 711.26C554.558 703.314 551.462 696.1 546.409 690.763L544.957 692.138ZM552.558 711.26C552.558 717.645 550.419 723.517 546.817 728.204L548.403 729.423C552.265 724.398 554.558 718.1 554.558 711.26L552.558 711.26ZM546.787 728.245C542.701 734.166 539.764 740.881 541.326 748.617C542.881 756.321 548.847 764.774 561.904 774.325L563.085 772.71C550.196 763.282 544.697 755.21 543.286 748.221C541.881 741.263 544.475 735.115 548.433 729.382L546.787 728.245ZM592.3 828.354C592.3 805.248 580.729 784.87 563.062 772.694L561.927 774.341C579.075 786.159 590.3 805.932 590.3 828.354L592.3 828.354ZM573.49 875.149C585.142 863.015 592.3 846.528 592.3 828.354L590.3 828.354C590.3 845.992 583.355 861.987 572.047 873.764L573.49 875.149ZM577.5 937.485C565.224 925.878 559.358 915.586 558.914 905.657C558.471 895.739 563.427 885.892 573.499 875.14L572.039 873.773C561.812 884.69 556.438 895.043 556.916 905.746C557.394 916.438 563.7 927.189 576.126 938.938L577.5 937.485ZM576.8 939.212L576.813 939.212L576.813 937.212L576.8 937.212L576.8 939.212ZM601.5 993.25C601.5 971.284 592.274 951.474 577.487 937.485L576.113 938.938C590.516 952.564 599.5 971.856 599.5 993.25L601.5 993.25ZM524.75 1070C567.142 1070 601.5 1035.65 601.5 993.25L599.5 993.25C599.5 1034.55 566.037 1068 524.75 1068L524.75 1070ZM448 993.25C448 1035.64 482.415 1070 524.75 1070L524.75 1068C483.518 1068 450 1034.54 450 993.25L448 993.25Z" fill="#FF46EC" mask="url(#path-31-inside-2_905_240)"/>
<mask id="path-33-inside-3_905_240" fill="white">
<path fill-rule="evenodd" clip-rule="evenodd" d="M277.999 992.316C277.999 967.815 289.503 946.012 307.391 931.994C307.562 931.86 307.733 931.727 307.904 931.595C351.861 896.954 342.252 871.552 325.514 850.173L325.523 850.173C320.61 843.903 317.681 836.004 317.681 827.422C317.681 816.503 322.426 806.687 329.968 799.926C356.641 775.362 352.937 748.075 335.732 728.73C331.109 723.993 328.263 717.509 328.263 710.326C328.263 703.411 330.924 697.12 335.28 692.422C347.009 678.942 349.011 666.086 330.011 649.257L330.021 649.257C322.342 642.454 317.504 632.521 317.504 621.483C317.504 611.557 321.394 602.547 327.734 595.893C342.339 580.057 343.426 566.012 324.761 548.325C315.688 540.162 309.984 528.326 309.984 515.149C309.984 504.032 314.045 493.868 320.765 486.058C334.746 469.254 336.603 452.956 311.315 431.508C296.34 419.085 286.805 400.342 286.805 379.356C286.805 359.689 295.174 341.997 308.535 329.618L308.51 329.618C332.479 307.402 331.785 289.811 313.482 269.845C303.897 259.711 298.022 246.03 298.022 230.965C298.022 215.059 304.572 200.695 315.124 190.42C334.523 170.701 334.58 154.234 315.223 134.504C304.539 124.194 297.897 109.725 297.897 93.6982C297.897 62.3746 323.271 37 354.595 37C385.919 37 411.293 62.3746 411.293 93.6982C411.293 109.707 404.665 124.162 394.003 134.47C374.643 154.174 374.648 170.621 393.948 190.298C404.574 200.581 411.176 214.996 411.176 230.965C411.176 246.151 405.206 259.931 395.484 270.089C377.399 289.954 376.816 307.492 400.678 329.618L400.655 329.618C413.995 341.996 422.348 359.675 422.382 379.29C422.382 400.131 412.984 418.755 398.206 431.188L398.238 431.188L398.248 431.188C372.753 452.651 374.344 468.939 388.122 485.7C395.026 493.555 399.211 503.859 399.211 515.149C399.211 528.343 393.491 540.196 384.393 548.362C365.828 565.984 366.857 579.986 381.318 595.74C387.744 602.409 391.694 611.481 391.694 621.483C391.694 632.731 386.698 642.804 378.801 649.605C360.185 666.295 362.282 679.082 373.987 692.496C378.302 697.186 380.936 703.447 380.936 710.326C380.936 717.253 378.264 723.553 373.895 728.254C356.32 747.623 352.341 775.151 379.218 799.912C386.766 806.672 391.516 816.493 391.516 827.422C391.516 836.281 388.395 844.412 383.193 850.774C366.765 872.018 357.734 897.253 401.205 931.543C419.437 945.552 431.199 967.574 431.199 992.316C431.199 1034.58 396.868 1068.92 354.599 1068.92C312.33 1068.92 277.999 1034.65 277.999 992.316Z"/>
</mask>
<path d="M307.391 931.994L306.774 931.206L306.774 931.206L307.391 931.994ZM307.904 931.595L308.514 932.387L308.523 932.38L307.904 931.595ZM325.514 850.173L325.514 849.173L323.462 849.173L324.727 850.789L325.514 850.173ZM325.523 850.173L325.523 851.173L327.577 851.173L326.31 849.556L325.523 850.173ZM329.968 799.926L330.636 800.67L330.646 800.661L329.968 799.926ZM335.732 728.73L336.479 728.065L336.464 728.048L336.448 728.031L335.732 728.73ZM335.28 692.422L336.013 693.102L336.024 693.09L336.034 693.079L335.28 692.422ZM330.011 649.257L330.011 648.257L327.374 648.257L329.348 650.006L330.011 649.257ZM330.021 649.257L330.021 650.257L332.658 650.257L330.684 648.509L330.021 649.257ZM327.734 595.893L328.458 596.583L328.464 596.577L328.47 596.571L327.734 595.893ZM324.761 548.325L325.449 547.6L325.439 547.591L325.43 547.582L324.761 548.325ZM320.765 486.058L321.523 486.71L321.528 486.704L321.534 486.698L320.765 486.058ZM311.315 431.508L311.961 430.746L311.953 430.739L311.315 431.508ZM308.535 329.618L309.215 330.351L311.086 328.618L308.535 328.618L308.535 329.618ZM308.51 329.618L307.83 328.884L305.96 330.618L308.51 330.618L308.51 329.618ZM313.482 269.845L314.219 269.169L314.214 269.163L314.209 269.158L313.482 269.845ZM315.124 190.42L315.821 191.137L315.829 191.129L315.837 191.122L315.124 190.42ZM315.223 134.504L315.937 133.804L315.927 133.794L315.917 133.785L315.223 134.504ZM394.003 134.47L393.308 133.751L393.299 133.76L393.29 133.769L394.003 134.47ZM393.948 190.298L393.234 190.998L393.243 191.007L393.253 191.016L393.948 190.298ZM395.484 270.089L394.761 269.397L394.753 269.406L394.744 269.415L395.484 270.089ZM400.678 329.618L400.678 330.618L403.228 330.618L401.358 328.884L400.678 329.618ZM400.655 329.618L400.655 328.618L398.106 328.618L399.974 330.351L400.655 329.618ZM422.382 379.29L423.382 379.29L423.382 379.289L422.382 379.29ZM398.206 431.188L397.562 430.423L395.464 432.188L398.206 432.188L398.206 431.188ZM398.238 431.188L398.238 432.188L398.238 431.188ZM398.248 431.188L398.892 431.953L400.988 430.188L398.248 430.188L398.248 431.188ZM388.122 485.7L387.35 486.335L387.36 486.348L387.371 486.36L388.122 485.7ZM384.393 548.362L383.725 547.618L383.715 547.628L383.705 547.637L384.393 548.362ZM381.318 595.74L380.581 596.416L380.589 596.425L380.598 596.434L381.318 595.74ZM378.801 649.605L378.148 648.847L378.141 648.854L378.133 648.86L378.801 649.605ZM373.987 692.496L373.233 693.154L373.242 693.164L373.251 693.173L373.987 692.496ZM373.895 728.254L373.162 727.573L373.154 727.582L373.895 728.254ZM379.218 799.912L378.54 800.648L378.55 800.657L379.218 799.912ZM383.193 850.774L382.418 850.141L382.41 850.152L382.402 850.162L383.193 850.774ZM401.205 931.543L400.585 932.328L400.595 932.336L401.205 931.543ZM306.774 931.206C288.655 945.406 276.999 967.495 276.999 992.316L278.999 992.316C278.999 968.136 290.351 946.618 308.008 932.781L306.774 931.206ZM307.294 930.803C307.12 930.936 306.947 931.071 306.774 931.206L308.008 932.781C308.176 932.649 308.345 932.518 308.514 932.387L307.294 930.803ZM324.727 850.789C333.057 861.43 339.444 872.87 338.473 885.836C337.503 898.786 329.165 913.567 307.285 930.809L308.523 932.38C330.601 914.982 339.437 899.741 340.467 885.986C341.496 872.246 334.709 860.296 326.302 849.556L324.727 850.789ZM325.523 849.173L325.514 849.173L325.514 851.173L325.523 851.173L325.523 849.173ZM316.681 827.422C316.681 836.236 319.69 844.35 324.736 850.79L326.31 849.556C321.53 843.456 318.681 835.773 318.681 827.422L316.681 827.422ZM329.301 799.181C321.556 806.124 316.681 816.207 316.681 827.422L318.681 827.422C318.681 816.799 323.296 807.25 330.636 800.67L329.301 799.181ZM330.646 800.661C344.141 788.233 350.04 775.026 350.304 762.392C350.568 749.775 345.209 737.881 336.479 728.065L334.985 729.394C343.46 738.924 348.556 750.347 348.305 762.35C348.054 774.337 342.468 787.055 329.291 799.19L330.646 800.661ZM336.448 728.031C332.001 723.475 329.263 717.239 329.263 710.326L327.263 710.326C327.263 717.779 330.218 724.511 335.017 729.428L336.448 728.031ZM329.263 710.326C329.263 703.672 331.823 697.622 336.013 693.102L334.547 691.742C330.026 696.618 327.263 703.149 327.263 710.326L329.263 710.326ZM336.034 693.079C341.964 686.264 345.598 679.427 345.167 672.037C344.736 664.649 340.26 656.999 330.674 648.508L329.348 650.006C338.762 658.344 342.785 665.537 343.17 672.154C343.556 678.769 340.325 685.1 334.525 691.766L336.034 693.079ZM330.011 650.257L330.021 650.257L330.021 648.257L330.011 648.257L330.011 650.257ZM330.684 648.509C323.21 641.887 318.504 632.222 318.504 621.483L316.504 621.483C316.504 632.819 321.474 643.021 329.358 650.005L330.684 648.509ZM318.504 621.483C318.504 611.824 322.289 603.058 328.458 596.583L327.01 595.203C320.5 602.036 316.504 611.291 316.504 621.483L318.504 621.483ZM328.47 596.571C335.844 588.575 339.971 580.858 339.723 572.773C339.476 564.687 334.863 556.521 325.449 547.6L324.073 549.051C333.323 557.817 337.5 565.516 337.724 572.834C337.948 580.151 334.23 587.375 326.999 595.215L328.47 596.571ZM325.43 547.582C316.559 539.6 310.984 528.031 310.984 515.149L308.984 515.149C308.984 528.621 314.817 540.723 324.092 549.069L325.43 547.582ZM310.984 515.149C310.984 504.281 314.953 494.345 321.523 486.71L320.007 485.406C313.136 493.39 308.984 503.784 308.984 515.149L310.984 515.149ZM321.534 486.698C328.596 478.209 332.751 469.667 331.76 460.418C330.771 451.188 324.685 441.537 311.961 430.746L310.668 432.271C323.233 442.928 328.863 452.15 329.771 460.631C330.678 469.093 326.915 477.103 319.996 485.418L321.534 486.698ZM311.953 430.739C297.197 418.497 287.805 400.032 287.805 379.356L285.805 379.356C285.805 400.652 295.482 419.673 310.676 432.278L311.953 430.739ZM287.805 379.356C287.805 359.979 296.049 342.549 309.215 330.351L307.855 328.884C294.299 341.445 285.805 359.399 285.805 379.356L287.805 379.356ZM308.535 328.618L308.51 328.618L308.51 330.618L308.535 330.618L308.535 328.618ZM309.19 330.351C321.251 319.172 327.291 308.994 327.846 298.943C328.403 288.88 323.447 279.235 314.219 269.169L312.745 270.521C321.82 280.421 326.362 289.555 325.849 298.832C325.336 308.122 319.738 317.847 307.83 328.884L309.19 330.351ZM314.209 269.158C304.792 259.202 299.022 245.764 299.022 230.965L297.022 230.965C297.022 246.295 303.001 260.219 312.756 270.532L314.209 269.158ZM299.022 230.965C299.022 215.34 305.455 201.231 315.821 191.137L314.426 189.704C303.689 200.159 297.022 214.779 297.022 230.965L299.022 230.965ZM315.837 191.122C325.614 181.183 330.687 171.898 330.707 162.468C330.727 153.038 325.694 143.749 315.937 133.804L314.509 135.205C324.109 144.99 328.726 153.799 328.707 162.464C328.688 171.13 324.033 179.938 314.411 189.719L315.837 191.122ZM315.917 133.785C305.421 123.655 298.897 109.443 298.897 93.6982L296.897 93.6982C296.897 110.007 303.658 124.733 314.528 135.224L315.917 133.785ZM298.897 93.6982C298.897 62.9268 323.824 38 354.595 38L354.595 36C322.719 36 296.897 61.8223 296.897 93.6982L298.897 93.6982ZM354.595 38C385.366 38 410.293 62.9268 410.293 93.6982L412.293 93.6982C412.293 61.8223 386.471 36 354.595 36L354.595 38ZM410.293 93.6982C410.293 109.425 403.783 123.624 393.308 133.751L394.698 135.189C405.547 124.7 412.293 109.989 412.293 93.6982L410.293 93.6982ZM393.29 133.769C383.532 143.7 378.485 152.978 378.478 162.394C378.472 171.81 383.506 181.08 393.234 190.998L394.662 189.598C385.09 179.839 380.472 171.048 380.478 162.395C380.484 153.742 385.114 144.943 394.716 135.17L393.29 133.769ZM393.253 191.016C403.691 201.119 410.176 215.278 410.176 230.965L412.176 230.965C412.176 214.714 405.456 200.043 394.643 189.579L393.253 191.016ZM410.176 230.965C410.176 245.883 404.313 259.418 394.761 269.397L396.206 270.78C406.1 260.443 412.176 246.418 412.176 230.965L410.176 230.965ZM394.744 269.415C385.624 279.433 380.753 289.04 381.353 299.065C381.952 309.077 387.992 319.218 399.999 330.351L401.358 328.884C389.503 317.892 383.903 308.201 383.349 298.946C382.796 289.704 387.258 280.609 396.223 270.762L394.744 269.415ZM400.678 328.618L400.655 328.618L400.655 330.618L400.678 330.618L400.678 328.618ZM399.974 330.351C413.12 342.547 421.348 359.966 421.382 379.292L423.382 379.289C423.347 359.385 414.871 341.444 401.335 328.885L399.974 330.351ZM421.382 379.29C421.382 399.823 412.124 418.171 397.562 430.423L398.85 431.954C413.844 419.338 423.382 400.439 423.382 379.29L421.382 379.29ZM398.206 432.188L398.238 432.188L398.238 430.188L398.206 430.188L398.206 432.188ZM398.238 432.188L398.248 432.188L398.248 430.188L398.238 430.188L398.238 432.188ZM397.604 430.423C384.779 441.22 378.576 450.867 377.465 460.087C376.35 469.332 380.386 477.864 387.35 486.335L388.895 485.065C382.08 476.775 378.431 468.782 379.45 460.327C380.472 451.847 386.222 442.619 398.892 431.953L397.604 430.423ZM387.371 486.36C394.121 494.039 398.211 504.111 398.211 515.149L400.211 515.149C400.211 503.607 395.932 493.07 388.873 485.04L387.371 486.36ZM398.211 515.149C398.211 528.047 392.621 539.634 383.725 547.618L385.061 549.107C394.362 540.758 400.211 528.638 400.211 515.149L398.211 515.149ZM383.705 547.637C374.34 556.526 369.74 564.664 369.471 572.718C369.203 580.774 373.278 588.46 380.581 596.416L382.054 595.064C374.897 587.266 371.227 580.074 371.47 572.785C371.713 565.494 375.881 557.821 385.082 549.088L383.705 547.637ZM380.598 596.434C386.852 602.924 390.694 611.75 390.694 621.483L392.694 621.483C392.694 611.212 388.637 601.894 382.038 595.046L380.598 596.434ZM390.694 621.483C390.694 632.428 385.834 642.229 378.148 648.847L379.453 650.363C387.562 643.38 392.694 633.034 392.694 621.483L390.694 621.483ZM378.133 648.86C368.738 657.284 364.383 664.884 364.025 672.23C363.666 679.574 367.317 686.373 373.233 693.154L374.74 691.839C368.952 685.205 365.702 678.904 366.022 672.328C366.343 665.754 370.248 658.616 379.468 650.35L378.133 648.86ZM373.251 693.173C377.402 697.686 379.936 703.707 379.936 710.326L381.936 710.326C381.936 703.187 379.201 696.687 374.723 691.819L373.251 693.173ZM379.936 710.326C379.936 716.991 377.366 723.05 373.163 727.573L374.627 728.935C379.162 724.056 381.936 717.515 381.936 710.326L379.936 710.326ZM373.154 727.582C364.238 737.408 358.715 749.367 358.887 762.074C359.059 774.799 364.941 788.119 378.54 800.648L379.895 799.177C366.617 786.944 361.05 774.119 360.887 762.047C360.723 749.958 365.976 738.469 374.636 728.926L373.154 727.582ZM392.516 827.422C392.516 816.197 387.636 806.109 379.885 799.168L378.55 800.657C385.896 807.236 390.516 816.789 390.516 827.422L392.516 827.422ZM383.967 851.407C389.31 844.872 392.516 836.52 392.516 827.422L390.516 827.422C390.516 836.042 387.48 843.951 382.418 850.141L383.967 851.407ZM401.824 930.758C380.187 913.691 371.822 899.035 370.733 886.182C369.643 873.317 375.812 861.953 383.984 851.386L382.402 850.162C374.146 860.839 367.585 872.715 368.74 886.351C369.897 899.998 378.751 915.105 400.585 932.328L401.824 930.758ZM432.199 992.316C432.199 967.25 420.281 944.94 401.814 930.75L400.595 932.336C418.592 946.164 430.199 967.898 430.199 992.316L432.199 992.316ZM354.599 1069.92C397.421 1069.92 432.199 1035.14 432.199 992.316L430.199 992.316C430.199 1034.03 396.316 1067.92 354.599 1067.92L354.599 1069.92ZM276.999 992.316C276.999 1035.2 311.778 1069.92 354.599 1069.92L354.599 1067.92C312.882 1067.92 278.999 1034.1 278.999 992.316L276.999 992.316Z" fill="#FF46EC" mask="url(#path-33-inside-3_905_240)"/>
<path d="M323.004 992C323.004 974.588 337.092 960.5 354.504 960.5C371.916 960.5 386.004 974.588 386.004 992C386.004 1009.41 371.916 1023.5 354.504 1023.5C337.092 1023.5 323.004 1009.36 323.004 992Z" fill="#FF3A17" stroke="#FF46EC"/>
<path d="M328.004 379.5C328.004 365.154 339.658 353.5 354.004 353.5C368.35 353.5 380.004 365.154 380.004 379.5C380.004 393.846 368.35 405.5 354.004 405.5C339.658 405.5 328.004 393.846 328.004 379.5Z" fill="#FF3A17" stroke="#FF46EC"/>
<path d="M333.004 94.4988C333.005 82.3862 342.837 72.5 355.004 72.5C367.172 72.5 377.004 82.3319 377.004 94.5C377.004 106.613 367.171 116.5 355.004 116.5C342.894 116.5 333.068 106.615 333.004 94.4988Z" fill="#FF3A17" stroke="#FF46EC"/>
<path d="M333.004 231.5C333.004 219.947 342.591 210.5 354.504 210.5C366.418 210.5 376.004 219.884 376.004 231.5C376.004 243.116 366.418 252.5 354.504 252.5C342.591 252.5 333.004 243.053 333.004 231.5Z" fill="#FF3A17" stroke="#FF46EC"/>
<path d="M338.004 515C338.004 505.923 345.624 498.5 355.004 498.5C364.384 498.5 372.004 505.923 372.004 515C372.004 524.077 364.384 531.5 355.004 531.5C345.624 531.5 338.004 524.077 338.004 515Z" fill="#FF3A17" stroke="#FF46EC"/>
<path d="M342.004 622C342.004 614.005 348.265 607.5 356.004 607.5C363.744 607.5 370.004 613.951 370.004 622C370.004 629.994 363.743 636.5 356.004 636.5C348.265 636.5 342.004 629.994 342.004 622Z" fill="#FF3A17" stroke="#FF46EC"/>
<path d="M341.004 827.5C341.004 819.781 347.093 813.5 354.504 813.5C361.915 813.5 368.004 819.781 368.004 827.5C368.004 835.219 361.915 841.5 354.504 841.5C347.091 841.5 341.004 835.284 341.004 827.5Z" fill="#FF3A17" stroke="#FF46EC"/>
<path d="M345.004 710.5C345.004 704.93 349.307 700.5 354.504 700.5C359.699 700.5 364.004 704.984 364.004 710.5C364.004 716.07 359.7 720.5 354.504 720.5C349.307 720.5 345.004 716.07 345.004 710.5Z" fill="#FF3A17" stroke="#FF46EC"/>
<mask id="path-43-inside-4_905_240" fill="white">
<path fill-rule="evenodd" clip-rule="evenodd" d="M146.647 935.291C129.229 948.619 117.996 969.62 117.996 993.247C117.996 1033.53 150.646 1066.18 190.926 1066.18C231.206 1066.18 263.855 1033.53 263.855 993.247C263.855 969.636 252.638 948.648 235.241 935.319C188.785 898.38 200.408 871.445 217.72 849.433L217.712 849.433C222.285 843.631 225.014 836.309 225.014 828.354C225.014 818.458 220.792 809.544 214.052 803.315L214.058 803.315C189.103 780.258 192.295 746.57 208.998 728.288C213.188 723.842 215.757 717.85 215.757 711.262C215.757 705.039 213.466 699.349 209.681 694.991L209.688 694.991C198.099 681.624 195.184 668.477 214.942 651.094C223.122 644.239 228.317 633.943 228.317 622.416C228.317 612.318 224.33 603.164 217.842 596.441C204.176 581.216 203.35 567.538 222.257 550.159L222.244 550.159C231.447 541.695 237.218 529.556 237.218 516.078C237.218 504.305 232.815 493.553 225.566 485.38C209.443 467.07 207.551 450.099 232.075 428.143C245.534 416.566 254.056 399.41 254.056 380.26C254.056 362.245 246.516 345.994 234.419 334.493C211.851 312.309 212.396 294.223 233.119 272.888L233.098 272.888C243.403 262.281 249.752 247.806 249.752 231.868C249.752 214.999 242.625 199.784 231.224 189.06L231.241 189.06C207.977 167.165 208.718 149.718 227.186 129.794C236.006 120.702 241.435 108.301 241.435 94.6313C241.435 66.7352 218.825 44.125 190.929 44.125C163.033 44.125 140.423 66.7352 140.423 94.6313C140.423 108.149 145.732 120.425 154.379 129.49C173.122 149.54 173.989 167.054 150.607 189.06L150.623 189.06C139.22 199.8 132.097 215.041 132.097 231.924C132.097 248.458 138.899 263.391 149.861 274.07C169.61 295.048 169.572 312.982 146.937 334.975L146.94 334.975C135.134 346.446 127.8 362.495 127.8 380.26L127.79 380.26C127.79 399.794 136.624 417.238 150.509 428.812C174.282 450.481 172.24 467.299 156.217 485.449L156.221 485.449C149.008 493.613 144.629 504.338 144.629 516.078C144.629 529.556 150.4 541.695 159.604 550.159L159.582 550.159C178.765 567.8 177.635 581.613 163.392 597.107L163.398 597.107C157.269 603.771 153.529 612.663 153.529 622.416C153.529 634.044 158.816 644.419 167.121 651.274C186.528 668.464 183.758 681.499 172.397 694.73C168.476 699.122 166.091 704.914 166.091 711.262C166.091 718.147 168.875 724.372 173.372 728.867C189.619 747.274 192.486 780.499 167.792 803.315L167.801 803.315C161.061 809.544 156.838 818.458 156.838 828.354C156.838 836.564 159.728 844.082 164.542 849.956C181.621 871.867 192.694 898.669 146.647 935.291Z"/>
</mask>
<path d="M146.647 935.291L147.254 936.086L147.262 936.08L147.269 936.074L146.647 935.291ZM235.241 935.319L234.619 936.102L234.626 936.108L234.633 936.113L235.241 935.319ZM217.72 849.433L218.506 850.051L219.779 848.433L217.72 848.433L217.72 849.433ZM217.712 849.433L216.927 848.814L215.651 850.433L217.712 850.433L217.712 849.433ZM214.052 803.315L214.052 802.315L211.496 802.315L213.373 804.049L214.052 803.315ZM214.058 803.315L214.058 804.315L216.614 804.315L214.737 802.58L214.058 803.315ZM208.998 728.288L208.27 727.602L208.265 727.608L208.259 727.614L208.998 728.288ZM209.681 694.991L209.681 693.991L207.489 693.991L208.926 695.646L209.681 694.991ZM209.688 694.991L209.688 695.991L211.878 695.991L210.443 694.336L209.688 694.991ZM214.942 651.094L214.3 650.328L214.29 650.336L214.281 650.343L214.942 651.094ZM217.842 596.441L217.098 597.109L217.11 597.122L217.123 597.135L217.842 596.441ZM222.257 550.159L222.934 550.895L224.823 549.159L222.257 549.159L222.257 550.159ZM222.244 550.159L221.567 549.423L219.679 551.159L222.244 551.159L222.244 550.159ZM225.566 485.38L224.816 486.041L224.818 486.044L225.566 485.38ZM232.075 428.143L231.423 427.385L231.415 427.392L231.408 427.398L232.075 428.143ZM234.419 334.493L233.718 335.206L233.724 335.212L233.73 335.218L234.419 334.493ZM233.119 272.888L233.837 273.585L235.485 271.888L233.119 271.888L233.119 272.888ZM233.098 272.888L232.381 272.191L230.732 273.888L233.098 273.888L233.098 272.888ZM231.224 189.06L231.224 188.06L228.701 188.06L230.539 189.788L231.224 189.06ZM231.241 189.06L231.241 190.06L233.763 190.06L231.927 188.331L231.241 189.06ZM227.186 129.794L226.468 129.098L226.46 129.106L226.453 129.115L227.186 129.794ZM154.379 129.49L155.109 128.807L155.102 128.799L154.379 129.49ZM150.607 189.06L149.921 188.331L148.085 190.06L150.607 190.06L150.607 189.06ZM150.623 189.06L151.309 189.787L153.143 188.06L150.623 188.06L150.623 189.06ZM149.861 274.07L150.589 273.384L150.574 273.369L150.559 273.354L149.861 274.07ZM146.937 334.975L146.24 334.258L144.473 335.975L146.937 335.975L146.937 334.975ZM146.94 334.975L147.637 335.692L149.404 333.975L146.94 333.975L146.94 334.975ZM127.8 380.26L127.8 381.26L128.8 381.26L128.8 380.26L127.8 380.26ZM127.79 380.26L127.79 379.26L126.79 379.26L126.79 380.26L127.79 380.26ZM150.509 428.812L151.182 428.073L151.166 428.058L151.149 428.044L150.509 428.812ZM156.217 485.449L155.468 484.787L154.001 486.449L156.217 486.449L156.217 485.449ZM156.221 485.449L156.971 486.111L158.439 484.449L156.221 484.449L156.221 485.449ZM159.604 550.159L159.604 551.159L162.168 551.159L160.28 549.423L159.604 550.159ZM159.582 550.159L159.582 549.159L157.017 549.159L158.905 550.895L159.582 550.159ZM163.392 597.107L162.656 596.43L161.115 598.107L163.392 598.107L163.392 597.107ZM163.398 597.107L164.134 597.784L165.676 596.107L163.398 596.107L163.398 597.107ZM167.121 651.274L167.784 650.525L167.771 650.514L167.757 650.503L167.121 651.274ZM172.397 694.73L173.142 695.396L173.149 695.389L173.155 695.382L172.397 694.73ZM173.372 728.867L174.122 728.205L174.101 728.182L174.079 728.16L173.372 728.867ZM167.792 803.315L167.113 802.58L165.236 804.315L167.792 804.315L167.792 803.315ZM167.801 803.315L168.48 804.049L170.357 802.315L167.801 802.315L167.801 803.315ZM164.542 849.956L165.331 849.342L165.324 849.332L165.316 849.323L164.542 849.956ZM146.039 934.497C128.385 948.005 116.996 969.296 116.996 993.247L118.996 993.247C118.996 969.945 130.074 949.232 147.254 936.086L146.039 934.497ZM116.996 993.247C116.996 1034.08 150.094 1067.18 190.926 1067.18L190.926 1065.18C151.198 1065.18 118.996 1032.97 118.996 993.247L116.996 993.247ZM190.926 1067.18C231.758 1067.18 264.855 1034.08 264.855 993.247L262.855 993.247C262.855 1032.97 230.653 1065.18 190.926 1065.18L190.926 1067.18ZM264.855 993.247C264.855 969.312 253.482 948.035 235.849 934.525L234.633 936.113C251.793 949.26 262.855 969.961 262.855 993.247L264.855 993.247ZM216.934 848.814C208.247 859.86 200.812 872.346 201.569 886.831C202.328 901.343 211.286 917.549 234.619 936.102L235.863 934.536C212.74 916.15 204.282 900.419 203.566 886.726C202.849 873.005 209.881 861.018 218.506 850.051L216.934 848.814ZM217.712 850.433L217.72 850.433L217.72 848.433L217.712 848.433L217.712 850.433ZM218.498 850.052C223.204 844.08 226.014 836.542 226.014 828.354L224.014 828.354C224.014 836.077 221.366 843.182 216.927 848.814L218.498 850.052ZM226.014 828.354C226.014 818.167 221.667 808.99 214.73 802.58L213.373 804.049C219.917 810.097 224.014 818.749 224.014 828.354L226.014 828.354ZM214.052 804.315L214.058 804.315L214.058 802.315L214.052 802.315L214.052 804.315ZM214.737 802.58C190.22 779.929 193.372 746.874 209.736 728.963L208.259 727.614C191.218 746.266 187.986 780.588 213.38 804.049L214.737 802.58ZM209.725 728.974C214.084 724.35 216.757 718.116 216.757 711.262L214.757 711.262C214.757 717.585 212.293 723.334 208.27 727.602L209.725 728.974ZM216.757 711.262C216.757 704.789 214.373 698.869 210.436 694.335L208.926 695.646C212.559 699.83 214.757 705.289 214.757 711.262L216.757 711.262ZM209.681 695.991L209.688 695.991L209.688 693.991L209.681 693.991L209.681 695.991ZM210.443 694.336C204.706 687.718 201.282 681.336 201.559 674.589C201.835 667.853 205.815 660.456 215.602 651.845L214.281 650.343C204.311 659.116 199.869 666.983 199.561 674.507C199.253 682.021 203.081 688.896 208.932 695.646L210.443 694.336ZM215.584 651.861C223.982 644.823 229.317 634.25 229.317 622.416L227.317 622.416C227.317 633.635 222.262 643.655 214.3 650.328L215.584 651.861ZM229.317 622.416C229.317 612.049 225.223 602.649 218.562 595.747L217.123 597.135C223.438 603.679 227.317 612.586 227.317 622.416L229.317 622.416ZM218.586 595.773C211.829 588.244 208.408 581.273 208.833 574.167C209.259 567.051 213.559 559.512 222.934 550.895L221.581 549.423C212.048 558.185 207.308 566.174 206.837 574.048C206.365 581.932 210.19 589.413 217.098 597.109L218.586 595.773ZM222.257 549.159L222.244 549.159L222.244 551.159L222.257 551.159L222.257 549.159ZM222.921 550.895C232.321 542.25 238.218 529.848 238.218 516.078L236.218 516.078C236.218 529.264 230.573 541.14 221.567 549.423L222.921 550.895ZM238.218 516.078C238.218 504.051 233.719 493.065 226.314 484.717L224.818 486.044C231.911 494.041 236.218 504.559 236.218 516.078L238.218 516.078ZM226.317 484.72C218.325 475.643 214.023 467.078 214.576 458.191C215.129 449.298 220.562 439.793 232.742 428.888L231.408 427.398C219.064 438.45 213.181 448.408 212.58 458.067C211.979 467.732 216.684 476.807 224.816 486.041L226.317 484.72ZM232.727 428.901C246.398 417.142 255.056 399.714 255.056 380.26L253.056 380.26C253.056 399.107 244.67 415.99 231.423 427.385L232.727 428.901ZM255.056 380.26C255.056 361.96 247.396 345.45 235.108 333.768L233.73 335.218C245.637 346.538 253.056 362.53 253.056 380.26L255.056 380.26ZM235.12 333.78C223.915 322.765 218.626 312.937 218.535 303.363C218.444 293.788 223.549 284.176 233.837 273.585L232.402 272.191C221.966 282.935 216.437 293.033 216.535 303.382C216.633 313.73 222.356 324.037 233.718 335.206L235.12 333.78ZM233.119 271.888L233.098 271.888L233.098 273.888L233.119 273.888L233.119 271.888ZM233.815 273.585C244.294 262.799 250.752 248.077 250.752 231.868L248.752 231.868C248.752 247.535 242.512 261.763 232.381 272.191L233.815 273.585ZM250.752 231.868C250.752 214.711 243.502 199.236 231.909 188.331L230.539 189.788C241.748 200.332 248.752 215.287 248.752 231.868L250.752 231.868ZM231.224 190.06L231.241 190.06L231.241 188.06L231.224 188.06L231.224 190.06ZM231.927 188.331C220.372 177.457 214.961 167.852 214.563 158.645C214.166 149.446 218.761 140.354 227.919 130.474L226.453 129.115C217.143 139.158 212.134 148.752 212.565 158.731C212.996 168.702 218.846 178.767 230.556 189.788L231.927 188.331ZM227.904 130.491C236.897 121.219 242.435 108.571 242.435 94.6313L240.435 94.6313C240.435 108.031 235.114 120.184 226.468 129.098L227.904 130.491ZM242.435 94.6313C242.435 66.1829 219.377 43.125 190.929 43.125L190.929 45.125C218.273 45.125 240.435 67.2874 240.435 94.6313L242.435 94.6313ZM190.929 43.125C162.48 43.125 139.423 66.1829 139.423 94.6313L141.423 94.6313C141.423 67.2874 163.585 45.125 190.929 45.125L190.929 43.125ZM139.423 94.6313C139.423 108.416 144.838 120.937 153.655 130.18L155.102 128.799C146.626 119.914 141.423 107.882 141.423 94.6313L139.423 94.6313ZM153.648 130.172C162.946 140.118 167.639 149.259 167.291 158.504C166.942 167.754 161.535 177.402 149.921 188.331L151.292 189.788C163.061 178.711 168.912 168.599 169.289 158.579C169.667 148.552 164.555 138.911 155.109 128.807L153.648 130.172ZM150.607 190.06L150.623 190.06L150.623 188.06L150.607 188.06L150.607 190.06ZM149.937 188.332C138.342 199.253 131.097 214.754 131.097 231.924L133.097 231.924C133.097 215.328 140.097 200.347 151.309 189.787L149.937 188.332ZM131.097 231.924C131.097 248.738 138.016 263.926 149.163 274.786L150.559 273.354C139.783 262.855 133.097 248.178 133.097 231.924L131.097 231.924ZM149.133 274.755C158.927 285.159 163.649 294.637 163.294 304.104C162.938 313.582 157.482 323.334 146.24 334.258L147.634 335.692C159.027 324.623 164.908 314.411 165.292 304.179C165.677 293.937 160.544 283.959 150.589 273.384L149.133 274.755ZM146.937 335.975L146.94 335.975L146.94 333.975L146.937 333.975L146.937 335.975ZM146.243 334.258C134.251 345.909 126.8 362.214 126.8 380.26L128.8 380.26C128.8 362.776 136.016 346.983 147.637 335.692L146.243 334.258ZM127.8 379.26L127.79 379.26L127.79 381.26L127.8 381.26L127.8 379.26ZM126.79 380.26C126.79 400.103 135.765 417.823 149.868 429.58L151.149 428.044C137.483 416.652 128.79 399.486 128.79 380.26L126.79 380.26ZM149.835 429.551C161.637 440.308 166.849 449.7 167.288 458.5C167.727 467.297 163.411 475.789 155.468 484.787L156.967 486.11C165.047 476.958 169.763 467.966 169.285 458.4C168.808 448.836 163.154 438.985 151.182 428.073L149.835 429.551ZM156.217 486.449L156.221 486.449L156.221 484.449L156.217 484.449L156.217 486.449ZM155.472 484.786C148.104 493.126 143.629 504.084 143.629 516.078L145.629 516.078C145.629 504.591 149.913 494.099 156.971 486.111L155.472 484.786ZM143.629 516.078C143.629 529.848 149.526 542.25 158.927 550.895L160.28 549.423C151.274 541.14 145.629 529.264 145.629 516.078L143.629 516.078ZM159.604 549.159L159.582 549.159L159.582 551.159L159.604 551.159L159.604 549.159ZM158.905 550.895C168.417 559.642 172.705 567.275 173.023 574.482C173.34 581.685 169.707 588.76 162.656 596.43L164.129 597.784C171.321 589.96 175.373 582.382 175.021 574.394C174.669 566.412 169.93 558.317 160.259 549.423L158.905 550.895ZM163.392 598.107L163.398 598.107L163.398 596.107L163.392 596.107L163.392 598.107ZM162.662 596.43C156.37 603.271 152.529 612.402 152.529 622.416L154.529 622.416C154.529 612.923 158.168 604.271 164.134 597.784L162.662 596.43ZM152.529 622.416C152.529 634.354 157.959 645.008 166.484 652.045L167.757 650.503C159.674 643.83 154.529 633.733 154.529 622.416L152.529 622.416ZM166.458 652.022C176.069 660.536 180.002 667.859 180.298 674.531C180.594 681.212 177.26 687.532 171.638 694.079L173.155 695.382C178.895 688.698 182.626 681.884 182.296 674.442C181.965 666.991 177.579 659.202 167.784 650.525L166.458 652.022ZM171.651 694.064C167.572 698.632 165.091 704.659 165.091 711.262L167.091 711.262C167.091 705.17 169.379 699.612 173.142 695.396L171.651 694.064ZM165.091 711.262C165.091 718.422 167.987 724.899 172.666 729.574L174.079 728.16C169.762 723.845 167.091 717.872 167.091 711.262L165.091 711.262ZM172.623 729.529C188.542 747.564 191.374 780.166 167.113 802.58L168.471 804.049C193.599 780.833 190.696 746.983 174.122 728.205L172.623 729.529ZM167.792 804.315L167.801 804.315L167.801 802.315L167.792 802.315L167.792 804.315ZM167.122 802.58C160.186 808.99 155.838 818.167 155.838 828.354L157.838 828.354C157.838 818.749 161.935 810.097 168.48 804.049L167.122 802.58ZM155.838 828.354C155.838 836.803 158.813 844.544 163.769 850.59L165.316 849.323C160.643 843.621 157.838 836.325 157.838 828.354L155.838 828.354ZM147.269 936.074C170.397 917.68 179.387 901.589 180.265 887.167C181.141 872.769 173.904 860.341 165.331 849.342L163.754 850.571C172.259 861.483 179.098 873.41 178.269 887.046C177.44 900.658 168.944 916.28 146.024 934.509L147.269 936.074Z" fill="#FF46EC" mask="url(#path-43-inside-4_905_240)"/>
<path d="M161.5 993C161.5 976.698 174.906 963.5 191.5 963.5C208.094 963.5 221.5 976.698 221.5 993C221.5 1009.3 208.094 1022.5 191.5 1022.5C174.906 1022.5 161.5 1009.3 161.5 993Z" fill="#FF3A17" stroke="#FF46EC"/>
<path d="M191 404.5L190.998 404.5C177.487 404.555 166.5 393.577 166.5 379.995C166.5 366.479 177.486 355.5 191 355.5C204.513 355.5 215.5 366.489 215.5 379.995C215.5 393.511 204.513 404.5 191 404.5Z" fill="#FF3A17" stroke="#FF46EC"/>
<path d="M170.5 94.5C170.5 83.4569 179.457 74.5 190.5 74.5C201.543 74.5 210.5 83.4569 210.5 94.5C210.5 105.543 201.543 114.5 190.5 114.5C179.457 114.5 170.5 105.543 170.5 94.5Z" fill="#FF3A17" stroke="#FF46EC"/>
<path d="M168.5 231.5C168.5 219.362 178.565 209.5 191 209.5C203.435 209.5 213.5 219.362 213.5 231.5C213.5 243.638 203.435 253.5 191 253.5C178.565 253.5 168.5 243.638 168.5 231.5Z" fill="#FF3A17" stroke="#FF46EC"/>
<path d="M171.5 516C171.5 505.783 179.982 497.5 190.5 497.5C201.018 497.5 209.5 505.783 209.5 516C209.5 526.217 201.018 534.5 190.5 534.5C179.982 534.5 171.5 526.217 171.5 516Z" fill="#FF3A17" stroke="#FF46EC"/>
<path d="M175.5 622.5C175.5 614.222 182.222 607.5 190.5 607.5C198.778 607.5 205.5 614.222 205.5 622.5C205.5 630.778 198.779 637.499 190.502 637.5C182.22 637.443 175.5 630.718 175.5 622.5Z" fill="#FF3A17" stroke="#FF46EC"/>
<path d="M177.5 828.5C177.5 821.33 183.33 815.5 190.5 815.5C197.67 815.5 203.5 821.33 203.5 828.5C203.5 835.669 197.671 841.499 190.502 841.5C183.327 841.445 177.5 835.665 177.5 828.5Z" fill="#FF3A17" stroke="#FF46EC"/>
<path d="M181.5 711C181.5 705.757 185.757 701.5 191 701.5C196.243 701.5 200.5 705.757 200.5 711C200.5 716.243 196.243 720.5 191 720.5C185.757 720.5 181.5 716.243 181.5 711Z" fill="#FF3A17" stroke="#FF46EC"/>
</g>
<defs>
<clipPath id="clip0_905_240">
<rect width="742" height="1072" fill="white"/>
</clipPath>
</defs>
</svg>
