<svg viewBox="0 0 741 131" fill="none" xmlns="http://www.w3.org/2000/svg">
<path d="M66 130.5C48.8935 130.5 32.4877 123.704 20.3916 111.608C8.29552 99.5123 1.5 83.1065 1.5 66C1.5 48.8935 8.29552 32.4877 20.3916 20.3916C32.4877 8.29552 48.8935 1.5 66 1.5C83.1065 1.5 99.5123 8.29552 111.608 20.3916C123.704 32.4877 130.5 48.8935 130.5 66C130.5 83.1065 123.704 99.5123 111.608 111.608C99.5123 123.704 83.1065 130.5 66 130.5Z" stroke="#ABABAB"/>
<path d="M10.4271 75.3541C8.05946 75.3541 5.78882 74.4136 4.11468 72.7394C2.44053 71.0653 1.5 68.7947 1.5 66.4271C1.5 64.0595 2.44053 61.7888 4.11468 60.1147C5.78882 58.4405 8.05946 57.5 10.4271 57.5C12.7947 57.5 15.0653 58.4405 16.7394 60.1147C18.4136 61.7888 19.3541 64.0595 19.3541 66.4271C19.3541 68.7947 18.4136 71.0653 16.7394 72.7394C15.0653 74.4136 12.7947 75.3541 10.4271 75.3541Z" stroke="#ABABAB"/>
<path d="M26.06 73H27.607V60.675H26.553C25.873 62.018 24.972 62.239 23.204 62.307V63.361H26.06V73ZM38.3028 63.684C38.3028 61.61 36.6708 60.454 34.3928 60.454C31.7748 60.454 30.0748 62.069 30.1088 64.517H31.7068C31.7408 62.477 33.0328 61.746 34.3588 61.746C35.8208 61.746 36.6708 62.613 36.6708 63.888C36.6708 66.064 34.1208 68.393 29.7688 71.606V73H38.6428V71.555H31.8768C35.3278 69.073 38.3028 66.54 38.3028 63.684ZM40.3911 60.675V62.63H41.2241L40.3231 64.993H41.3091L42.3461 62.766V60.675H40.3911ZM45.8671 66.506C45.9521 63.65 46.9891 61.746 48.8931 61.746C50.1511 61.746 51.0011 62.426 51.2051 63.531H52.8881C52.6331 61.967 51.4941 60.454 49.0801 60.454C45.5101 60.454 44.2691 63.786 44.2691 67.271C44.2691 71.079 45.6801 73.221 48.7571 73.221C51.3921 73.221 53.0921 71.266 53.0921 68.971C53.0921 66.506 51.4091 64.789 49.1141 64.789C47.4821 64.789 46.4281 65.537 45.8671 66.506ZM48.7401 71.929C47.1081 71.929 46.0541 70.756 46.0541 69.056C46.0541 67.373 47.1421 66.132 48.7571 66.132C50.3381 66.132 51.4431 67.373 51.4431 69.056C51.4431 70.739 50.3211 71.929 48.7401 71.929ZM61.4941 69.549C61.4941 71.079 60.3381 71.929 58.7061 71.929C56.9721 71.929 56.0711 70.875 55.9011 69.362H54.3031C54.4731 71.419 55.7991 73.221 58.6891 73.221C61.0351 73.221 63.1431 72.014 63.1431 69.532C63.1431 68.24 62.6331 67.016 60.7971 66.438C62.0891 65.911 62.8031 64.84 62.8031 63.582C62.8031 61.304 60.9501 60.454 58.8081 60.454C56.2241 60.454 54.6771 61.967 54.4901 64.143H56.0881C56.2241 62.749 57.1251 61.746 58.7741 61.746C60.0831 61.746 61.1711 62.426 61.1711 63.752C61.1711 65.197 60.0321 65.792 57.8901 65.792H57.6861V67.203H57.9411C59.9131 67.203 61.4941 67.781 61.4941 69.549ZM64.0766 60.675V62.12H70.8086C67.7486 64.772 65.7936 68.58 65.5216 73H67.3916C67.6806 68.393 69.5676 64.585 72.6106 62.12V60.675H64.0766Z" fill="black"/>
<path d="M152.187 60.675V62.12H158.919C155.859 64.772 153.904 68.58 153.632 73H155.502C155.791 68.393 157.678 64.585 160.721 62.12V60.675H152.187ZM161.417 60.675V62.12H168.149C165.089 64.772 163.134 68.58 162.862 73H164.732C165.021 68.393 166.908 64.585 169.951 62.12V60.675H161.417ZM179.381 63.599C179.381 61.78 177.783 60.454 175.267 60.454C172.734 60.454 171.153 61.78 171.153 63.599C171.153 64.602 171.629 65.775 172.853 66.438C171.238 67.084 170.762 68.41 170.762 69.532C170.762 71.878 172.717 73.221 175.267 73.221C177.8 73.221 179.755 71.878 179.755 69.532C179.755 68.41 179.279 67.084 177.681 66.438C178.905 65.775 179.381 64.602 179.381 63.599ZM175.267 61.746C176.797 61.746 177.817 62.562 177.817 63.786C177.817 65.027 176.797 65.945 175.267 65.945C173.72 65.945 172.7 65.027 172.7 63.786C172.7 62.562 173.72 61.746 175.267 61.746ZM172.411 69.532C172.411 68.087 173.516 67.084 175.267 67.084C177.001 67.084 178.123 68.087 178.123 69.532C178.123 70.977 177.001 71.929 175.267 71.929C173.516 71.929 172.411 70.977 172.411 69.532ZM181.361 60.675V62.63H182.194L181.293 64.993H182.279L183.316 62.766V60.675H181.361ZM191.796 68.954C191.796 70.858 190.521 71.929 189.042 71.929C187.325 71.929 186.492 70.977 186.254 69.43H184.656C184.894 71.419 186.186 73.221 189.042 73.221C191.337 73.221 193.428 71.759 193.428 68.937C193.428 66.217 191.541 64.687 189.382 64.687C188.362 64.687 187.376 64.993 186.73 65.622L187.155 62.12H192.969V60.675H185.897L185.098 67.305L186.645 67.39C186.917 66.778 187.75 66.03 189.025 66.03C190.368 66.03 191.796 66.914 191.796 68.954ZM202.173 67.169C202.088 70.025 201.034 71.929 199.13 71.929C197.872 71.929 197.039 71.249 196.835 70.144H195.152C195.407 71.708 196.546 73.221 198.96 73.221C202.513 73.221 203.771 69.889 203.771 66.404C203.771 62.596 202.36 60.454 199.283 60.454C196.648 60.454 194.948 62.409 194.948 64.687C194.948 67.169 196.631 68.886 198.909 68.886C200.541 68.886 201.612 68.138 202.173 67.169ZM199.3 61.746C200.932 61.746 201.969 62.919 201.969 64.619C201.969 66.302 200.898 67.526 199.283 67.526C197.685 67.526 196.597 66.302 196.597 64.619C196.597 62.936 197.702 61.746 199.3 61.746ZM212.549 67.169C212.464 70.025 211.41 71.929 209.506 71.929C208.248 71.929 207.415 71.249 207.211 70.144H205.528C205.783 71.708 206.922 73.221 209.336 73.221C212.889 73.221 214.147 69.889 214.147 66.404C214.147 62.596 212.736 60.454 209.659 60.454C207.024 60.454 205.324 62.409 205.324 64.687C205.324 67.169 207.007 68.886 209.285 68.886C210.917 68.886 211.988 68.138 212.549 67.169ZM209.676 61.746C211.308 61.746 212.345 62.919 212.345 64.619C212.345 66.302 211.274 67.526 209.659 67.526C208.061 67.526 206.973 66.302 206.973 64.619C206.973 62.936 208.078 61.746 209.676 61.746Z" fill="black"/>
<path d="M345.84 16H348.373V3.675H346.639V14.164L341.012 3.675H338.462V16H340.196V5.477L345.84 16ZM356.718 14.691V16H358.265V6.854H356.718V11.886C356.718 13.841 355.851 14.878 354.389 14.878C352.706 14.878 352.468 13.654 352.468 12.243V6.854H350.921V12.702C350.921 14.793 351.72 16.221 353.845 16.221C355.358 16.221 356.191 15.558 356.718 14.691ZM362.266 16V11.036C362.266 9.081 363.15 8.044 364.476 8.044C366.159 8.044 366.431 9.268 366.431 10.679V16H367.978V11.036C367.978 9.081 368.862 8.044 370.188 8.044C371.871 8.044 372.143 9.268 372.143 10.679V16H373.69V10.22C373.69 8.129 372.857 6.701 370.732 6.701C369.457 6.701 368.386 7.194 367.655 8.316C367.247 7.313 366.414 6.701 365.02 6.701C363.643 6.701 362.793 7.364 362.266 8.231V6.854H360.719V16H362.266ZM377.556 3.675H376.009V16H377.556V14.623C378.117 15.592 379.086 16.221 380.548 16.221C382.639 16.221 384.458 14.487 384.458 11.461C384.458 8.452 382.639 6.701 380.548 6.701C379.086 6.701 378.117 7.33 377.556 8.299V3.675ZM380.157 14.895C378.78 14.895 377.488 13.875 377.488 11.461C377.488 9.047 378.78 8.027 380.157 8.027C381.738 8.027 382.775 9.285 382.775 11.461C382.775 13.637 381.738 14.895 380.157 14.895ZM387.389 11.937H394.427C394.631 9.047 392.948 6.701 390.16 6.701C387.661 6.701 385.723 8.554 385.723 11.444C385.723 14.147 387.321 16.221 390.211 16.221C392.438 16.221 393.883 14.929 394.308 13.348H392.71C392.319 14.249 391.571 14.861 390.211 14.861C388.851 14.861 387.457 13.909 387.389 11.937ZM387.406 10.611C387.542 8.775 388.783 8.027 390.16 8.027C391.792 8.027 392.761 9.319 392.795 10.611H387.406ZM400.786 8.469V6.82C400.616 6.803 400.48 6.803 400.327 6.803C399.137 6.837 398.202 7.415 397.743 8.452V6.854H396.23V16H397.777V11.206C397.777 9.2 398.491 8.401 399.919 8.401C400.174 8.401 400.463 8.435 400.786 8.469ZM414.484 11.461C414.484 8.146 412.223 6.701 410.098 6.701C407.973 6.701 405.712 8.146 405.712 11.461C405.712 14.776 407.973 16.221 410.098 16.221C412.223 16.221 414.484 14.776 414.484 11.461ZM410.098 14.861C408.704 14.861 407.361 13.892 407.361 11.461C407.361 8.962 408.704 8.061 410.098 8.061C411.492 8.061 412.835 9.03 412.835 11.461C412.835 13.807 411.492 14.861 410.098 14.861ZM416.808 6.191V6.854H415.533V8.095H416.808V16H418.355V8.095H420.072V6.854H418.355V6.106C418.355 5.154 418.491 4.967 419.307 4.967H420.072V3.675H419.273C417.199 3.675 416.808 4.287 416.808 6.191ZM431.017 9.523H432.632C432.343 7.789 431 6.684 429.028 6.684C427.005 6.684 425.373 7.619 425.373 9.234C425.373 10.934 426.733 11.512 427.974 11.767L429.334 12.039C430.32 12.243 431.187 12.634 431.187 13.552C431.187 14.402 430.235 14.912 429.062 14.912C427.702 14.912 426.971 14.215 426.733 13.042H425.101C425.271 14.64 426.631 16.221 429.028 16.221C431.119 16.221 432.751 15.184 432.751 13.382C432.751 11.614 431.289 10.985 429.623 10.662L428.331 10.407C427.447 10.237 426.937 9.897 426.937 9.166C426.937 8.333 427.957 8.01 428.858 8.01C429.929 8.01 430.779 8.435 431.017 9.523ZM434.168 13.586C434.168 15.269 435.596 16.221 437.313 16.221C438.928 16.221 439.88 15.677 440.441 14.742C440.458 15.286 440.509 15.66 440.56 16H442.124C441.954 15.133 441.869 14.079 441.886 12.549L441.903 10.441C441.92 7.874 440.781 6.667 438.265 6.667C436.48 6.667 434.746 7.772 434.593 9.744H436.191C436.259 8.622 437.007 7.925 438.282 7.925C439.421 7.925 440.356 8.486 440.356 10.152V10.373C436.599 10.798 434.168 11.427 434.168 13.586ZM440.475 11.597V12.175C440.475 14.334 439.098 14.997 437.653 14.997C436.548 14.997 435.885 14.419 435.885 13.552C435.885 12.294 437.67 11.886 440.475 11.597ZM445.755 16V11.036C445.755 9.081 446.639 8.044 447.965 8.044C449.648 8.044 449.92 9.268 449.92 10.679V16H451.467V11.036C451.467 9.081 452.351 8.044 453.677 8.044C455.36 8.044 455.632 9.268 455.632 10.679V16H457.179V10.22C457.179 8.129 456.346 6.701 454.221 6.701C452.946 6.701 451.875 7.194 451.144 8.316C450.736 7.313 449.903 6.701 448.509 6.701C447.132 6.701 446.282 7.364 445.755 8.231V6.854H444.208V16H445.755ZM461.045 6.854H459.498V18.975H461.045V14.623C461.606 15.592 462.575 16.221 464.037 16.221C466.128 16.221 467.947 14.487 467.947 11.461C467.947 8.452 466.128 6.701 464.037 6.701C462.575 6.701 461.606 7.33 461.045 8.299V6.854ZM463.646 14.895C462.269 14.895 460.977 13.875 460.977 11.461C460.977 9.047 462.269 8.027 463.646 8.027C465.227 8.027 466.264 9.285 466.264 11.461C466.264 13.637 465.227 14.895 463.646 14.895ZM471.305 16V3.675H469.758V16H471.305ZM474.796 11.937H481.834C482.038 9.047 480.355 6.701 477.567 6.701C475.068 6.701 473.13 8.554 473.13 11.444C473.13 14.147 474.728 16.221 477.618 16.221C479.845 16.221 481.29 14.929 481.715 13.348H480.117C479.726 14.249 478.978 14.861 477.618 14.861C476.258 14.861 474.864 13.909 474.796 11.937ZM474.813 10.611C474.949 8.775 476.19 8.027 477.567 8.027C479.199 8.027 480.168 9.319 480.202 10.611H474.813ZM488.906 9.523H490.521C490.232 7.789 488.889 6.684 486.917 6.684C484.894 6.684 483.262 7.619 483.262 9.234C483.262 10.934 484.622 11.512 485.863 11.767L487.223 12.039C488.209 12.243 489.076 12.634 489.076 13.552C489.076 14.402 488.124 14.912 486.951 14.912C485.591 14.912 484.86 14.215 484.622 13.042H482.99C483.16 14.64 484.52 16.221 486.917 16.221C489.008 16.221 490.64 15.184 490.64 13.382C490.64 11.614 489.178 10.985 487.512 10.662L486.22 10.407C485.336 10.237 484.826 9.897 484.826 9.166C484.826 8.333 485.846 8.01 486.747 8.01C487.818 8.01 488.668 8.435 488.906 9.523ZM344.378 25.854V27.299C343.817 26.33 342.933 25.701 341.471 25.701C339.448 25.701 337.595 27.35 337.595 30.274C337.595 33.215 339.448 34.847 341.471 34.847C342.933 34.847 343.817 34.235 344.378 33.266V34.133C344.378 35.374 344.123 35.799 343.783 36.156C343.375 36.598 342.746 36.836 341.913 36.836C340.485 36.836 339.992 36.207 339.788 35.391H338.139C338.428 37.244 339.822 38.196 341.896 38.196C343.256 38.196 344.395 37.754 345.058 36.989C345.585 36.411 345.925 35.646 345.925 33.776V25.854H344.378ZM341.862 27.027C343.239 27.027 344.446 27.962 344.446 30.274C344.446 32.603 343.239 33.538 341.862 33.538C340.349 33.538 339.278 32.365 339.278 30.274C339.278 28.2 340.349 27.027 341.862 27.027ZM347.824 32.586C347.824 34.269 349.252 35.221 350.969 35.221C352.584 35.221 353.536 34.677 354.097 33.742C354.114 34.286 354.165 34.66 354.216 35H355.78C355.61 34.133 355.525 33.079 355.542 31.549L355.559 29.441C355.576 26.874 354.437 25.667 351.921 25.667C350.136 25.667 348.402 26.772 348.249 28.744H349.847C349.915 27.622 350.663 26.925 351.938 26.925C353.077 26.925 354.012 27.486 354.012 29.152V29.373C350.255 29.798 347.824 30.427 347.824 32.586ZM354.131 30.597V31.175C354.131 33.334 352.754 33.997 351.309 33.997C350.204 33.997 349.541 33.419 349.541 32.552C349.541 31.294 351.326 30.886 354.131 30.597ZM358.306 23.559V25.854H356.861V27.095H358.306V32.705C358.306 34.609 358.714 35 360.465 35H361.587V33.708H360.805C359.921 33.708 359.853 33.47 359.853 32.518V27.095H361.587V25.854H359.853V23.559H358.306ZM365.105 27.231V22.675H363.558V35H365.105V30.036C365.105 28.081 366.023 27.044 367.519 27.044C369.287 27.044 369.525 28.268 369.525 29.679V35H371.072V29.22C371.072 27.129 370.273 25.701 368.063 25.701C366.516 25.701 365.632 26.364 365.105 27.231ZM374.423 30.937H381.461C381.665 28.047 379.982 25.701 377.194 25.701C374.695 25.701 372.757 27.554 372.757 30.444C372.757 33.147 374.355 35.221 377.245 35.221C379.472 35.221 380.917 33.929 381.342 32.348H379.744C379.353 33.249 378.605 33.861 377.245 33.861C375.885 33.861 374.491 32.909 374.423 30.937ZM374.44 29.611C374.576 27.775 375.817 27.027 377.194 27.027C378.826 27.027 379.795 28.319 379.829 29.611H374.44ZM387.82 27.469V25.82C387.65 25.803 387.514 25.803 387.361 25.803C386.171 25.837 385.236 26.415 384.777 27.452V25.854H383.264V35H384.811V30.206C384.811 28.2 385.525 27.401 386.953 27.401C387.208 27.401 387.497 27.435 387.82 27.469ZM390.178 30.937H397.216C397.42 28.047 395.737 25.701 392.949 25.701C390.45 25.701 388.512 27.554 388.512 30.444C388.512 33.147 390.11 35.221 393 35.221C395.227 35.221 396.672 33.929 397.097 32.348H395.499C395.108 33.249 394.36 33.861 393 33.861C391.64 33.861 390.246 32.909 390.178 30.937ZM390.195 29.611C390.331 27.775 391.572 27.027 392.949 27.027C394.581 27.027 395.55 28.319 395.584 29.611H390.195ZM405.375 22.675V27.299C404.814 26.33 403.845 25.701 402.383 25.701C400.292 25.701 398.473 27.452 398.473 30.461C398.473 33.487 400.292 35.221 402.383 35.221C403.845 35.221 404.814 34.592 405.375 33.623V35H406.922V22.675H405.375ZM402.774 27.027C404.151 27.027 405.443 28.047 405.443 30.461C405.443 32.875 404.151 33.895 402.774 33.895C401.193 33.895 400.156 32.637 400.156 30.461C400.156 28.285 401.193 27.027 402.774 27.027Z" fill="black"/>
<path d="M302.5 26.5C295.304 26.5 289.5 20.8843 289.5 14C289.5 7.11574 295.304 1.5 302.5 1.5C309.696 1.5 315.5 7.11574 315.5 14C315.5 20.8843 309.696 26.5 302.5 26.5Z" stroke="#FF46EC"/>
<path d="M345.84 73H348.373V60.675H346.639V71.164L341.012 60.675H338.462V73H340.196V62.477L345.84 73ZM356.718 71.691V73H358.265V63.854H356.718V68.886C356.718 70.841 355.851 71.878 354.389 71.878C352.706 71.878 352.468 70.654 352.468 69.243V63.854H350.921V69.702C350.921 71.793 351.72 73.221 353.845 73.221C355.358 73.221 356.191 72.558 356.718 71.691ZM362.266 73V68.036C362.266 66.081 363.15 65.044 364.476 65.044C366.159 65.044 366.431 66.268 366.431 67.679V73H367.978V68.036C367.978 66.081 368.862 65.044 370.188 65.044C371.871 65.044 372.143 66.268 372.143 67.679V73H373.69V67.22C373.69 65.129 372.857 63.701 370.732 63.701C369.457 63.701 368.386 64.194 367.655 65.316C367.247 64.313 366.414 63.701 365.02 63.701C363.643 63.701 362.793 64.364 362.266 65.231V63.854H360.719V73H362.266ZM377.556 60.675H376.009V73H377.556V71.623C378.117 72.592 379.086 73.221 380.548 73.221C382.639 73.221 384.458 71.487 384.458 68.461C384.458 65.452 382.639 63.701 380.548 63.701C379.086 63.701 378.117 64.33 377.556 65.299V60.675ZM380.157 71.895C378.78 71.895 377.488 70.875 377.488 68.461C377.488 66.047 378.78 65.027 380.157 65.027C381.738 65.027 382.775 66.285 382.775 68.461C382.775 70.637 381.738 71.895 380.157 71.895ZM387.389 68.937H394.427C394.631 66.047 392.948 63.701 390.16 63.701C387.661 63.701 385.723 65.554 385.723 68.444C385.723 71.147 387.321 73.221 390.211 73.221C392.438 73.221 393.883 71.929 394.308 70.348H392.71C392.319 71.249 391.571 71.861 390.211 71.861C388.851 71.861 387.457 70.909 387.389 68.937ZM387.406 67.611C387.542 65.775 388.783 65.027 390.16 65.027C391.792 65.027 392.761 66.319 392.795 67.611H387.406ZM400.786 65.469V63.82C400.616 63.803 400.48 63.803 400.327 63.803C399.137 63.837 398.202 64.415 397.743 65.452V63.854H396.23V73H397.777V68.206C397.777 66.2 398.491 65.401 399.919 65.401C400.174 65.401 400.463 65.435 400.786 65.469ZM414.484 68.461C414.484 65.146 412.223 63.701 410.098 63.701C407.973 63.701 405.712 65.146 405.712 68.461C405.712 71.776 407.973 73.221 410.098 73.221C412.223 73.221 414.484 71.776 414.484 68.461ZM410.098 71.861C408.704 71.861 407.361 70.892 407.361 68.461C407.361 65.962 408.704 65.061 410.098 65.061C411.492 65.061 412.835 66.03 412.835 68.461C412.835 70.807 411.492 71.861 410.098 71.861ZM416.808 63.191V63.854H415.533V65.095H416.808V73H418.355V65.095H420.072V63.854H418.355V63.106C418.355 62.154 418.491 61.967 419.307 61.967H420.072V60.675H419.273C417.199 60.675 416.808 61.287 416.808 63.191ZM337.68 89.586C337.68 91.269 339.108 92.221 340.825 92.221C342.44 92.221 343.392 91.677 343.953 90.742C343.97 91.286 344.021 91.66 344.072 92H345.636C345.466 91.133 345.381 90.079 345.398 88.549L345.415 86.441C345.432 83.874 344.293 82.667 341.777 82.667C339.992 82.667 338.258 83.772 338.105 85.744H339.703C339.771 84.622 340.519 83.925 341.794 83.925C342.933 83.925 343.868 84.486 343.868 86.152V86.373C340.111 86.798 337.68 87.427 337.68 89.586ZM343.987 87.597V88.175C343.987 90.334 342.61 90.997 341.165 90.997C340.06 90.997 339.397 90.419 339.397 89.552C339.397 88.294 341.182 87.886 343.987 87.597ZM349.267 84.231V82.854H347.72V92H349.267V87.036C349.267 85.081 350.185 84.044 351.681 84.044C353.449 84.044 353.687 85.268 353.687 86.679V92H355.234V86.22C355.234 84.129 354.435 82.701 352.225 82.701C350.678 82.701 349.794 83.364 349.267 84.231ZM357.99 80.559V82.854H356.545V84.095H357.99V89.705C357.99 91.609 358.398 92 360.149 92H361.271V90.708H360.489C359.605 90.708 359.537 90.47 359.537 89.518V84.095H361.271V82.854H359.537V80.559H357.99ZM364.79 79.675H363.243V81.545H364.79V79.675ZM364.79 82.854H363.243V92H364.79V82.854ZM368.791 92V87.036C368.791 85.081 369.675 84.044 371.001 84.044C372.684 84.044 372.956 85.268 372.956 86.679V92H374.503V87.036C374.503 85.081 375.387 84.044 376.713 84.044C378.396 84.044 378.668 85.268 378.668 86.679V92H380.215V86.22C380.215 84.129 379.382 82.701 377.257 82.701C375.982 82.701 374.911 83.194 374.18 84.316C373.772 83.313 372.939 82.701 371.545 82.701C370.168 82.701 369.318 83.364 368.791 84.231V82.854H367.244V92H368.791ZM384.081 79.675H382.534V81.545H384.081V79.675ZM384.081 82.854H382.534V92H384.081V82.854ZM394.151 85.914C393.947 84.367 392.536 82.701 390.326 82.701C387.623 82.701 385.906 84.724 385.906 87.444C385.906 90.232 387.555 92.221 390.173 92.221C392.298 92.221 393.947 90.742 394.253 89.025H392.655C392.434 89.994 391.516 90.861 390.224 90.861C388.864 90.861 387.589 89.756 387.589 87.427C387.589 85.132 388.847 84.061 390.224 84.061C391.414 84.061 392.366 84.826 392.587 85.914H394.151ZM400.553 84.469V82.82C400.383 82.803 400.247 82.803 400.094 82.803C398.904 82.837 397.969 83.415 397.51 84.452V82.854H395.997V92H397.544V87.206C397.544 85.2 398.258 84.401 399.686 84.401C399.941 84.401 400.23 84.435 400.553 84.469ZM410.051 87.461C410.051 84.146 407.79 82.701 405.665 82.701C403.54 82.701 401.279 84.146 401.279 87.461C401.279 90.776 403.54 92.221 405.665 92.221C407.79 92.221 410.051 90.776 410.051 87.461ZM405.665 90.861C404.271 90.861 402.928 89.892 402.928 87.461C402.928 84.962 404.271 84.061 405.665 84.061C407.059 84.061 408.402 85.03 408.402 87.461C408.402 89.807 407.059 90.861 405.665 90.861ZM413.449 79.675H411.902V92H413.449V90.623C414.01 91.592 414.979 92.221 416.441 92.221C418.532 92.221 420.351 90.487 420.351 87.461C420.351 84.452 418.532 82.701 416.441 82.701C414.979 82.701 414.01 83.33 413.449 84.299V79.675ZM416.05 90.895C414.673 90.895 413.381 89.875 413.381 87.461C413.381 85.047 414.673 84.027 416.05 84.027C417.631 84.027 418.668 85.285 418.668 87.461C418.668 89.637 417.631 90.895 416.05 90.895ZM423.659 79.675H422.112V81.545H423.659V79.675ZM423.659 82.854H422.112V92H423.659V82.854ZM425.569 89.586C425.569 91.269 426.997 92.221 428.714 92.221C430.329 92.221 431.281 91.677 431.842 90.742C431.859 91.286 431.91 91.66 431.961 92H433.525C433.355 91.133 433.27 90.079 433.287 88.549L433.304 86.441C433.321 83.874 432.182 82.667 429.666 82.667C427.881 82.667 426.147 83.772 425.994 85.744H427.592C427.66 84.622 428.408 83.925 429.683 83.925C430.822 83.925 431.757 84.486 431.757 86.152V86.373C428 86.798 425.569 87.427 425.569 89.586ZM431.876 87.597V88.175C431.876 90.334 430.499 90.997 429.054 90.997C427.949 90.997 427.286 90.419 427.286 89.552C427.286 88.294 429.071 87.886 431.876 87.597ZM437.156 92V79.675H435.609V92H437.156ZM448.2 84.469V82.82C448.03 82.803 447.894 82.803 447.741 82.803C446.551 82.837 445.616 83.415 445.157 84.452V82.854H443.644V92H445.191V87.206C445.191 85.2 445.905 84.401 447.333 84.401C447.588 84.401 447.877 84.435 448.2 84.469ZM450.558 87.937H457.596C457.8 85.047 456.117 82.701 453.329 82.701C450.83 82.701 448.892 84.554 448.892 87.444C448.892 90.147 450.49 92.221 453.38 92.221C455.607 92.221 457.052 90.929 457.477 89.348H455.879C455.488 90.249 454.74 90.861 453.38 90.861C452.02 90.861 450.626 89.909 450.558 87.937ZM450.575 86.611C450.711 84.775 451.952 84.027 453.329 84.027C454.961 84.027 455.93 85.319 455.964 86.611H450.575ZM464.668 85.523H466.283C465.994 83.789 464.651 82.684 462.679 82.684C460.656 82.684 459.024 83.619 459.024 85.234C459.024 86.934 460.384 87.512 461.625 87.767L462.985 88.039C463.971 88.243 464.838 88.634 464.838 89.552C464.838 90.402 463.886 90.912 462.713 90.912C461.353 90.912 460.622 90.215 460.384 89.042H458.752C458.922 90.64 460.282 92.221 462.679 92.221C464.77 92.221 466.402 91.184 466.402 89.382C466.402 87.614 464.94 86.985 463.274 86.662L461.982 86.407C461.098 86.237 460.588 85.897 460.588 85.166C460.588 84.333 461.608 84.01 462.509 84.01C463.58 84.01 464.43 84.435 464.668 85.523ZM469.911 79.675H468.364V81.545H469.911V79.675ZM469.911 82.854H468.364V92H469.911V82.854ZM477.601 85.523H479.216C478.927 83.789 477.584 82.684 475.612 82.684C473.589 82.684 471.957 83.619 471.957 85.234C471.957 86.934 473.317 87.512 474.558 87.767L475.918 88.039C476.904 88.243 477.771 88.634 477.771 89.552C477.771 90.402 476.819 90.912 475.646 90.912C474.286 90.912 473.555 90.215 473.317 89.042H471.685C471.855 90.64 473.215 92.221 475.612 92.221C477.703 92.221 479.335 91.184 479.335 89.382C479.335 87.614 477.873 86.985 476.207 86.662L474.915 86.407C474.031 86.237 473.521 85.897 473.521 85.166C473.521 84.333 474.541 84.01 475.442 84.01C476.513 84.01 477.363 84.435 477.601 85.523ZM481.738 80.559V82.854H480.293V84.095H481.738V89.705C481.738 91.609 482.146 92 483.897 92H485.019V90.708H484.237C483.353 90.708 483.285 90.47 483.285 89.518V84.095H485.019V82.854H483.285V80.559H481.738ZM486.281 89.586C486.281 91.269 487.709 92.221 489.426 92.221C491.041 92.221 491.993 91.677 492.554 90.742C492.571 91.286 492.622 91.66 492.673 92H494.237C494.067 91.133 493.982 90.079 493.999 88.549L494.016 86.441C494.033 83.874 492.894 82.667 490.378 82.667C488.593 82.667 486.859 83.772 486.706 85.744H488.304C488.372 84.622 489.12 83.925 490.395 83.925C491.534 83.925 492.469 84.486 492.469 86.152V86.373C488.712 86.798 486.281 87.427 486.281 89.586ZM492.588 87.597V88.175C492.588 90.334 491.211 90.997 489.766 90.997C488.661 90.997 487.998 90.419 487.998 89.552C487.998 88.294 489.783 87.886 492.588 87.597ZM497.868 84.231V82.854H496.321V92H497.868V87.036C497.868 85.081 498.786 84.044 500.282 84.044C502.05 84.044 502.288 85.268 502.288 86.679V92H503.835V86.22C503.835 84.129 503.036 82.701 500.826 82.701C499.279 82.701 498.395 83.364 497.868 84.231ZM506.591 80.559V82.854H505.146V84.095H506.591V89.705C506.591 91.609 506.999 92 508.75 92H509.872V90.708H509.09C508.206 90.708 508.138 90.47 508.138 89.518V84.095H509.872V82.854H508.138V80.559H506.591ZM339.771 98.675H338.224V111H339.771V109.623C340.332 110.592 341.301 111.221 342.763 111.221C344.854 111.221 346.673 109.487 346.673 106.461C346.673 103.452 344.854 101.701 342.763 101.701C341.301 101.701 340.332 102.33 339.771 103.299V98.675ZM342.372 109.895C340.995 109.895 339.703 108.875 339.703 106.461C339.703 104.047 340.995 103.027 342.372 103.027C343.953 103.027 344.99 104.285 344.99 106.461C344.99 108.637 343.953 109.895 342.372 109.895ZM347.89 108.586C347.89 110.269 349.318 111.221 351.035 111.221C352.65 111.221 353.602 110.677 354.163 109.742C354.18 110.286 354.231 110.66 354.282 111H355.846C355.676 110.133 355.591 109.079 355.608 107.549L355.625 105.441C355.642 102.874 354.503 101.667 351.987 101.667C350.202 101.667 348.468 102.772 348.315 104.744H349.913C349.981 103.622 350.729 102.925 352.004 102.925C353.143 102.925 354.078 103.486 354.078 105.152V105.373C350.321 105.798 347.89 106.427 347.89 108.586ZM354.197 106.597V107.175C354.197 109.334 352.82 109.997 351.375 109.997C350.27 109.997 349.607 109.419 349.607 108.552C349.607 107.294 351.392 106.886 354.197 106.597ZM365.546 104.914C365.342 103.367 363.931 101.701 361.721 101.701C359.018 101.701 357.301 103.724 357.301 106.444C357.301 109.232 358.95 111.221 361.568 111.221C363.693 111.221 365.342 109.742 365.648 108.025H364.05C363.829 108.994 362.911 109.861 361.619 109.861C360.259 109.861 358.984 108.756 358.984 106.427C358.984 104.132 360.242 103.061 361.619 103.061C362.809 103.061 363.761 103.826 363.982 104.914H365.546ZM367.835 99.559V101.854H366.39V103.095H367.835V108.705C367.835 110.609 368.243 111 369.994 111H371.116V109.708H370.334C369.45 109.708 369.382 109.47 369.382 108.518V103.095H371.116V101.854H369.382V99.559H367.835ZM373.875 106.937H380.913C381.117 104.047 379.434 101.701 376.646 101.701C374.147 101.701 372.209 103.554 372.209 106.444C372.209 109.147 373.807 111.221 376.697 111.221C378.924 111.221 380.369 109.929 380.794 108.348H379.196C378.805 109.249 378.057 109.861 376.697 109.861C375.337 109.861 373.943 108.909 373.875 106.937ZM373.892 105.611C374.028 103.775 375.269 103.027 376.646 103.027C378.278 103.027 379.247 104.319 379.281 105.611H373.892ZM387.272 103.469V101.82C387.102 101.803 386.966 101.803 386.813 101.803C385.623 101.837 384.688 102.415 384.229 103.452V101.854H382.716V111H384.263V106.206C384.263 104.2 384.977 103.401 386.405 103.401C386.66 103.401 386.949 103.435 387.272 103.469ZM390.306 98.675H388.759V100.545H390.306V98.675ZM390.306 101.854H388.759V111H390.306V101.854ZM392.216 108.586C392.216 110.269 393.644 111.221 395.361 111.221C396.976 111.221 397.928 110.677 398.489 109.742C398.506 110.286 398.557 110.66 398.608 111H400.172C400.002 110.133 399.917 109.079 399.934 107.549L399.951 105.441C399.968 102.874 398.829 101.667 396.313 101.667C394.528 101.667 392.794 102.772 392.641 104.744H394.239C394.307 103.622 395.055 102.925 396.33 102.925C397.469 102.925 398.404 103.486 398.404 105.152V105.373C394.647 105.798 392.216 106.427 392.216 108.586ZM398.523 106.597V107.175C398.523 109.334 397.146 109.997 395.701 109.997C394.596 109.997 393.933 109.419 393.933 108.552C393.933 107.294 395.718 106.886 398.523 106.597ZM407.837 98.675H406.29V100.545H407.837V98.675ZM407.837 101.854H406.29V111H407.837V101.854ZM416.564 98.675V103.299C416.003 102.33 415.034 101.701 413.572 101.701C411.481 101.701 409.662 103.452 409.662 106.461C409.662 109.487 411.481 111.221 413.572 111.221C415.034 111.221 416.003 110.592 416.564 109.623V111H418.111V98.675H416.564ZM413.963 103.027C415.34 103.027 416.632 104.047 416.632 106.461C416.632 108.875 415.34 109.895 413.963 109.895C412.382 109.895 411.345 108.637 411.345 106.461C411.345 104.285 412.382 103.027 413.963 103.027ZM421.588 106.937H428.626C428.83 104.047 427.147 101.701 424.359 101.701C421.86 101.701 419.922 103.554 419.922 106.444C419.922 109.147 421.52 111.221 424.41 111.221C426.637 111.221 428.082 109.929 428.507 108.348H426.909C426.518 109.249 425.77 109.861 424.41 109.861C423.05 109.861 421.656 108.909 421.588 106.937ZM421.605 105.611C421.741 103.775 422.982 103.027 424.359 103.027C425.991 103.027 426.96 104.319 426.994 105.611H421.605ZM431.976 103.231V101.854H430.429V111H431.976V106.036C431.976 104.081 432.894 103.044 434.39 103.044C436.158 103.044 436.396 104.268 436.396 105.679V111H437.943V105.22C437.943 103.129 437.144 101.701 434.934 101.701C433.387 101.701 432.503 102.364 431.976 103.231ZM440.699 99.559V101.854H439.254V103.095H440.699V108.705C440.699 110.609 441.107 111 442.858 111H443.98V109.708H443.198C442.314 109.708 442.246 109.47 442.246 108.518V103.095H443.98V101.854H442.246V99.559H440.699ZM447.499 98.675H445.952V100.545H447.499V98.675ZM447.499 101.854H445.952V111H447.499V101.854ZM450.344 101.191V101.854H449.069V103.095H450.344V111H451.891V103.095H453.608V101.854H451.891V101.106C451.891 100.154 452.027 99.967 452.843 99.967H453.608V98.675H452.809C450.735 98.675 450.344 99.287 450.344 101.191ZM456.829 98.675H455.282V100.545H456.829V98.675ZM456.829 101.854H455.282V111H456.829V101.854ZM460.32 106.937H467.358C467.562 104.047 465.879 101.701 463.091 101.701C460.592 101.701 458.654 103.554 458.654 106.444C458.654 109.147 460.252 111.221 463.142 111.221C465.369 111.221 466.814 109.929 467.239 108.348H465.641C465.25 109.249 464.502 109.861 463.142 109.861C461.782 109.861 460.388 108.909 460.32 106.937ZM460.337 105.611C460.473 103.775 461.714 103.027 463.091 103.027C464.723 103.027 465.692 104.319 465.726 105.611H460.337ZM475.517 98.675V103.299C474.956 102.33 473.987 101.701 472.525 101.701C470.434 101.701 468.615 103.452 468.615 106.461C468.615 109.487 470.434 111.221 472.525 111.221C473.987 111.221 474.956 110.592 475.517 109.623V111H477.064V98.675H475.517ZM472.916 103.027C474.293 103.027 475.585 104.047 475.585 106.461C475.585 108.875 474.293 109.895 472.916 109.895C471.335 109.895 470.298 108.637 470.298 106.461C470.298 104.285 471.335 103.027 472.916 103.027Z" fill="black"/>
<path d="M302.5 81.5C295.304 81.5 289.5 75.8843 289.5 69C289.5 62.1157 295.304 56.5 302.5 56.5C309.696 56.5 315.5 62.1157 315.5 69C315.5 75.8843 309.696 81.5 302.5 81.5Z" fill="#FF3A17" stroke="#FF46EC"/>
</svg>
