<svg viewBox="0 0 741 194" fill="none" xmlns="http://www.w3.org/2000/svg">
<path d="M304.4 18H307.38V3.5H305.34V15.84L298.72 3.5H295.72V18H297.76V5.62L304.4 18ZM317.198 16.46V18H319.018V7.24H317.198V13.16C317.198 15.46 316.178 16.68 314.458 16.68C312.478 16.68 312.198 15.24 312.198 13.58V7.24H310.378V14.12C310.378 16.58 311.318 18.26 313.818 18.26C315.598 18.26 316.578 17.48 317.198 16.46ZM323.725 18V12.16C323.725 9.86 324.765 8.64 326.325 8.64C328.305 8.64 328.625 10.08 328.625 11.74V18H330.445V12.16C330.445 9.86 331.485 8.64 333.045 8.64C335.025 8.64 335.345 10.08 335.345 11.74V18H337.165V11.2C337.165 8.74 336.185 7.06 333.685 7.06C332.185 7.06 330.925 7.64 330.065 8.96C329.585 7.78 328.605 7.06 326.965 7.06C325.345 7.06 324.345 7.84 323.725 8.86V7.24H321.905V18H323.725ZM341.713 3.5H339.893V18H341.713V16.38C342.373 17.52 343.513 18.26 345.233 18.26C347.693 18.26 349.833 16.22 349.833 12.66C349.833 9.12 347.693 7.06 345.233 7.06C343.513 7.06 342.373 7.8 341.713 8.94V3.5ZM344.773 16.7C343.153 16.7 341.633 15.5 341.633 12.66C341.633 9.82 343.153 8.62 344.773 8.62C346.633 8.62 347.853 10.1 347.853 12.66C347.853 15.22 346.633 16.7 344.773 16.7ZM353.281 13.22H361.561C361.801 9.82 359.821 7.06 356.541 7.06C353.601 7.06 351.321 9.24 351.321 12.64C351.321 15.82 353.201 18.26 356.601 18.26C359.221 18.26 360.921 16.74 361.421 14.88H359.541C359.081 15.94 358.201 16.66 356.601 16.66C355.001 16.66 353.361 15.54 353.281 13.22ZM353.301 11.66C353.461 9.5 354.921 8.62 356.541 8.62C358.461 8.62 359.601 10.14 359.641 11.66H353.301ZM369.042 9.14V7.2C368.842 7.18 368.682 7.18 368.502 7.18C367.102 7.22 366.002 7.9 365.462 9.12V7.24H363.682V18H365.502V12.36C365.502 10 366.342 9.06 368.022 9.06C368.322 9.06 368.662 9.1 369.042 9.14ZM385.158 12.66C385.158 8.76 382.498 7.06 379.998 7.06C377.498 7.06 374.838 8.76 374.838 12.66C374.838 16.56 377.498 18.26 379.998 18.26C382.498 18.26 385.158 16.56 385.158 12.66ZM379.998 16.66C378.358 16.66 376.778 15.52 376.778 12.66C376.778 9.72 378.358 8.66 379.998 8.66C381.638 8.66 383.218 9.8 383.218 12.66C383.218 15.42 381.638 16.66 379.998 16.66ZM387.892 6.46V7.24H386.392V8.7H387.892V18H389.712V8.7H391.732V7.24H389.712V6.36C389.712 5.24 389.872 5.02 390.832 5.02H391.732V3.5H390.792C388.352 3.5 387.892 4.22 387.892 6.46ZM404.608 10.38H406.508C406.168 8.34 404.588 7.04 402.268 7.04C399.888 7.04 397.968 8.14 397.968 10.04C397.968 12.04 399.568 12.72 401.028 13.02L402.628 13.34C403.788 13.58 404.808 14.04 404.808 15.12C404.808 16.12 403.688 16.72 402.308 16.72C400.708 16.72 399.848 15.9 399.568 14.52H397.648C397.848 16.4 399.448 18.26 402.268 18.26C404.728 18.26 406.648 17.04 406.648 14.92C406.648 12.84 404.928 12.1 402.968 11.72L401.448 11.42C400.408 11.22 399.808 10.82 399.808 9.96C399.808 8.98 401.008 8.6 402.068 8.6C403.328 8.6 404.328 9.1 404.608 10.38ZM408.316 15.16C408.316 17.14 409.996 18.26 412.016 18.26C413.916 18.26 415.036 17.62 415.696 16.52C415.716 17.16 415.776 17.6 415.836 18H417.676C417.476 16.98 417.376 15.74 417.396 13.94L417.416 11.46C417.436 8.44 416.096 7.02 413.136 7.02C411.036 7.02 408.996 8.32 408.816 10.64H410.696C410.776 9.32 411.656 8.5 413.156 8.5C414.496 8.5 415.596 9.16 415.596 11.12V11.38C411.176 11.88 408.316 12.62 408.316 15.16ZM415.736 12.82V13.5C415.736 16.04 414.116 16.82 412.416 16.82C411.116 16.82 410.336 16.14 410.336 15.12C410.336 13.64 412.436 13.16 415.736 12.82ZM421.948 18V12.16C421.948 9.86 422.988 8.64 424.548 8.64C426.528 8.64 426.848 10.08 426.848 11.74V18H428.668V12.16C428.668 9.86 429.707 8.64 431.268 8.64C433.248 8.64 433.568 10.08 433.568 11.74V18H435.388V11.2C435.388 8.74 434.408 7.06 431.908 7.06C430.408 7.06 429.148 7.64 428.288 8.96C427.808 7.78 426.828 7.06 425.188 7.06C423.568 7.06 422.568 7.84 421.948 8.86V7.24H420.128V18H421.948ZM439.936 7.24H438.116V21.5H439.936V16.38C440.596 17.52 441.736 18.26 443.456 18.26C445.916 18.26 448.056 16.22 448.056 12.66C448.056 9.12 445.916 7.06 443.456 7.06C441.736 7.06 440.596 7.8 439.936 8.94V7.24ZM442.996 16.7C441.376 16.7 439.856 15.5 439.856 12.66C439.856 9.82 441.376 8.62 442.996 8.62C444.856 8.62 446.076 10.1 446.076 12.66C446.076 15.22 444.856 16.7 442.996 16.7ZM452.006 18V3.5H450.186V18H452.006ZM456.113 13.22H464.393C464.633 9.82 462.653 7.06 459.373 7.06C456.433 7.06 454.153 9.24 454.153 12.64C454.153 15.82 456.033 18.26 459.433 18.26C462.053 18.26 463.753 16.74 464.253 14.88H462.373C461.913 15.94 461.033 16.66 459.433 16.66C457.833 16.66 456.193 15.54 456.113 13.22ZM456.133 11.66C456.293 9.5 457.753 8.62 459.373 8.62C461.293 8.62 462.433 10.14 462.473 11.66H456.133ZM472.713 10.38H474.613C474.273 8.34 472.693 7.04 470.373 7.04C467.993 7.04 466.073 8.14 466.073 10.04C466.073 12.04 467.673 12.72 469.133 13.02L470.733 13.34C471.893 13.58 472.913 14.04 472.913 15.12C472.913 16.12 471.793 16.72 470.413 16.72C468.813 16.72 467.953 15.9 467.673 14.52H465.753C465.953 16.4 467.553 18.26 470.373 18.26C472.833 18.26 474.753 17.04 474.753 14.92C474.753 12.84 473.033 12.1 471.073 11.72L469.553 11.42C468.513 11.22 467.913 10.82 467.913 9.96C467.913 8.98 469.113 8.6 470.173 8.6C471.433 8.6 472.433 9.1 472.713 10.38ZM295.96 26.54V29.24H294.26V30.7H295.96V37.3C295.96 39.54 296.44 40 298.5 40H299.82V38.48H298.9C297.86 38.48 297.78 38.2 297.78 37.08V30.7H299.82V29.24H297.78V26.54H295.96ZM301.304 37.16C301.304 39.14 302.984 40.26 305.004 40.26C306.904 40.26 308.024 39.62 308.684 38.52C308.704 39.16 308.764 39.6 308.824 40H310.664C310.464 38.98 310.364 37.74 310.384 35.94L310.404 33.46C310.424 30.44 309.084 29.02 306.124 29.02C304.024 29.02 301.984 30.32 301.804 32.64H303.684C303.764 31.32 304.644 30.5 306.144 30.5C307.484 30.5 308.584 31.16 308.584 33.12V33.38C304.164 33.88 301.304 34.62 301.304 37.16ZM308.724 34.82V35.5C308.724 38.04 307.104 38.82 305.404 38.82C304.104 38.82 303.324 38.14 303.324 37.12C303.324 35.64 305.424 35.16 308.724 34.82ZM314.936 25.5H313.116V40H314.936V36.4L316.196 35.04L319.856 40H322.076L317.416 33.7L321.516 29.24H319.276L314.936 34.08V25.5ZM324.14 35.22H332.42C332.66 31.82 330.68 29.06 327.4 29.06C324.46 29.06 322.18 31.24 322.18 34.64C322.18 37.82 324.06 40.26 327.46 40.26C330.08 40.26 331.78 38.74 332.28 36.88H330.4C329.94 37.94 329.06 38.66 327.46 38.66C325.86 38.66 324.22 37.54 324.14 35.22ZM324.16 33.66C324.32 31.5 325.78 30.62 327.4 30.62C329.32 30.62 330.46 32.14 330.5 33.66H324.16ZM336.362 30.86V29.24H334.542V40H336.362V34.16C336.362 31.86 337.442 30.64 339.202 30.64C341.282 30.64 341.562 32.08 341.562 33.74V40H343.382V33.2C343.382 30.74 342.442 29.06 339.842 29.06C338.022 29.06 336.982 29.84 336.362 30.86ZM345.964 31.54H348.264V29.24H345.964V31.54ZM345.964 40H348.264V37.7H345.964V40Z" fill="black"/>
<path d="M71 193.5C53.8935 193.5 37.4877 186.704 25.3916 174.608C13.2955 162.512 6.5 146.106 6.5 129C6.5 111.894 13.2955 95.4877 25.3916 83.3916C37.4877 71.2955 53.8935 64.5 71 64.5C88.1065 64.5 104.512 71.2955 116.608 83.3916C128.704 95.4877 135.5 111.894 135.5 129C135.5 146.106 128.704 162.512 116.608 174.608C104.512 186.704 88.1065 193.5 71 193.5Z" stroke="#FF46EC"/>
<path d="M15.4271 138.354C13.0595 138.354 10.7888 137.414 9.11468 135.739C7.44053 134.065 6.5 131.795 6.5 129.427C6.5 127.059 7.44053 124.789 9.11468 123.115C10.7888 121.441 13.0595 120.5 15.4271 120.5C17.7947 120.5 20.0653 121.441 21.7394 123.115C23.4136 124.789 24.3541 127.059 24.3541 129.427C24.3541 131.795 23.4136 134.065 21.7394 135.739C20.0653 137.414 17.7947 138.354 15.4271 138.354Z" stroke="#FF46EC"/>
<path d="M35.582 132.549C35.582 134.079 34.426 134.929 32.794 134.929C31.06 134.929 30.159 133.875 29.989 132.362H28.391C28.561 134.419 29.887 136.221 32.777 136.221C35.123 136.221 37.231 135.014 37.231 132.532C37.231 131.24 36.721 130.016 34.885 129.438C36.177 128.911 36.891 127.84 36.891 126.582C36.891 124.304 35.038 123.454 32.896 123.454C30.312 123.454 28.765 124.967 28.578 127.143H30.176C30.312 125.749 31.213 124.746 32.862 124.746C34.171 124.746 35.259 125.426 35.259 126.752C35.259 128.197 34.12 128.792 31.978 128.792H31.774V130.203H32.029C34.001 130.203 35.582 130.781 35.582 132.549ZM48.2115 132.957V131.495H45.9505V123.675H44.3695L38.2665 131.495V132.957H44.3865V136H45.9505V132.957H48.2115ZM39.9835 131.495L44.3865 125.8V131.495H39.9835Z" fill="black"/>
<path d="M13.4 18H16.38V3.5H14.34V15.84L7.72 3.5H4.72V18H6.76V5.62L13.4 18ZM26.1977 16.46V18H28.0177V7.24H26.1977V13.16C26.1977 15.46 25.1777 16.68 23.4577 16.68C21.4777 16.68 21.1977 15.24 21.1977 13.58V7.24H19.3777V14.12C19.3777 16.58 20.3177 18.26 22.8177 18.26C24.5977 18.26 25.5777 17.48 26.1977 16.46ZM32.7248 18V12.16C32.7248 9.86 33.7648 8.64 35.3248 8.64C37.3048 8.64 37.6248 10.08 37.6248 11.74V18H39.4448V12.16C39.4448 9.86 40.4848 8.64 42.0448 8.64C44.0248 8.64 44.3448 10.08 44.3448 11.74V18H46.1648V11.2C46.1648 8.74 45.1848 7.06 42.6848 7.06C41.1848 7.06 39.9248 7.64 39.0648 8.96C38.5848 7.78 37.6048 7.06 35.9648 7.06C34.3448 7.06 33.3448 7.84 32.7248 8.86V7.24H30.9048V18H32.7248ZM50.7131 3.5H48.8931V18H50.7131V16.38C51.3731 17.52 52.5131 18.26 54.2331 18.26C56.6931 18.26 58.8331 16.22 58.8331 12.66C58.8331 9.12 56.6931 7.06 54.2331 7.06C52.5131 7.06 51.3731 7.8 50.7131 8.94V3.5ZM53.7731 16.7C52.1531 16.7 50.6331 15.5 50.6331 12.66C50.6331 9.82 52.1531 8.62 53.7731 8.62C55.6331 8.62 56.8531 10.1 56.8531 12.66C56.8531 15.22 55.6331 16.7 53.7731 16.7ZM62.2811 13.22H70.5611C70.8011 9.82 68.8211 7.06 65.5411 7.06C62.6011 7.06 60.3211 9.24 60.3211 12.64C60.3211 15.82 62.2011 18.26 65.6011 18.26C68.2211 18.26 69.9211 16.74 70.4211 14.88H68.5411C68.0811 15.94 67.2011 16.66 65.6011 16.66C64.0011 16.66 62.3611 15.54 62.2811 13.22ZM62.3011 11.66C62.4611 9.5 63.9211 8.62 65.5411 8.62C67.4611 8.62 68.6011 10.14 68.6411 11.66H62.3011ZM78.0422 9.14V7.2C77.8422 7.18 77.6822 7.18 77.5022 7.18C76.1022 7.22 75.0022 7.9 74.4622 9.12V7.24H72.6822V18H74.5022V12.36C74.5022 10 75.3422 9.06 77.0222 9.06C77.3222 9.06 77.6622 9.1 78.0422 9.14ZM94.1577 12.66C94.1577 8.76 91.4977 7.06 88.9977 7.06C86.4977 7.06 83.8377 8.76 83.8377 12.66C83.8377 16.56 86.4977 18.26 88.9977 18.26C91.4977 18.26 94.1577 16.56 94.1577 12.66ZM88.9977 16.66C87.3577 16.66 85.7777 15.52 85.7777 12.66C85.7777 9.72 87.3577 8.66 88.9977 8.66C90.6377 8.66 92.2177 9.8 92.2177 12.66C92.2177 15.42 90.6377 16.66 88.9977 16.66ZM96.8922 6.46V7.24H95.3922V8.7H96.8922V18H98.7122V8.7H100.732V7.24H98.7122V6.36C98.7122 5.24 98.8722 5.02 99.8322 5.02H100.732V3.5H99.7922C97.3522 3.5 96.8922 4.22 96.8922 6.46ZM106.808 15.16C106.808 17.14 108.488 18.26 110.508 18.26C112.408 18.26 113.528 17.62 114.188 16.52C114.208 17.16 114.268 17.6 114.328 18H116.168C115.968 16.98 115.868 15.74 115.888 13.94L115.908 11.46C115.928 8.44 114.588 7.02 111.628 7.02C109.528 7.02 107.488 8.32 107.308 10.64H109.188C109.268 9.32 110.148 8.5 111.648 8.5C112.988 8.5 114.088 9.16 114.088 11.12V11.38C109.668 11.88 106.808 12.62 106.808 15.16ZM114.228 12.82V13.5C114.228 16.04 112.608 16.82 110.908 16.82C109.608 16.82 108.828 16.14 108.828 15.12C108.828 13.64 110.928 13.16 114.228 12.82ZM120.44 8.86V7.24H118.62V18H120.44V12.16C120.44 9.86 121.52 8.64 123.28 8.64C125.36 8.64 125.64 10.08 125.64 11.74V18H127.46V11.2C127.46 8.74 126.52 7.06 123.92 7.06C122.1 7.06 121.06 7.84 120.44 8.86ZM130.702 4.54V7.24H129.002V8.7H130.702V15.3C130.702 17.54 131.182 18 133.242 18H134.562V16.48H133.642C132.602 16.48 132.522 16.2 132.522 15.08V8.7H134.562V7.24H132.522V4.54H130.702ZM138.701 3.5H136.881V5.7H138.701V3.5ZM138.701 7.24H136.881V18H138.701V7.24ZM143.408 18V12.16C143.408 9.86 144.448 8.64 146.008 8.64C147.988 8.64 148.308 10.08 148.308 11.74V18H150.128V12.16C150.128 9.86 151.168 8.64 152.728 8.64C154.708 8.64 155.028 10.08 155.028 11.74V18H156.848V11.2C156.848 8.74 155.868 7.06 153.368 7.06C151.868 7.06 150.608 7.64 149.748 8.96C149.268 7.78 148.288 7.06 146.648 7.06C145.028 7.06 144.028 7.84 143.408 8.86V7.24H141.588V18H143.408ZM161.397 3.5H159.577V5.7H161.397V3.5ZM161.397 7.24H159.577V18H161.397V7.24ZM173.244 10.84C173.004 9.02 171.344 7.06 168.744 7.06C165.564 7.06 163.544 9.44 163.544 12.64C163.544 15.92 165.484 18.26 168.564 18.26C171.064 18.26 173.004 16.52 173.364 14.5H171.484C171.224 15.64 170.144 16.66 168.624 16.66C167.024 16.66 165.524 15.36 165.524 12.62C165.524 9.92 167.004 8.66 168.624 8.66C170.024 8.66 171.144 9.56 171.404 10.84H173.244ZM180.777 9.14V7.2C180.577 7.18 180.417 7.18 180.237 7.18C178.837 7.22 177.737 7.9 177.197 9.12V7.24H175.417V18H177.237V12.36C177.237 10 178.077 9.06 179.757 9.06C180.057 9.06 180.397 9.1 180.777 9.14ZM191.951 12.66C191.951 8.76 189.291 7.06 186.791 7.06C184.291 7.06 181.631 8.76 181.631 12.66C181.631 16.56 184.291 18.26 186.791 18.26C189.291 18.26 191.951 16.56 191.951 12.66ZM186.791 16.66C185.151 16.66 183.571 15.52 183.571 12.66C183.571 9.72 185.151 8.66 186.791 8.66C188.431 8.66 190.011 9.8 190.011 12.66C190.011 15.42 188.431 16.66 186.791 16.66ZM195.948 3.5H194.128V18H195.948V16.38C196.608 17.52 197.748 18.26 199.468 18.26C201.928 18.26 204.068 16.22 204.068 12.66C204.068 9.12 201.928 7.06 199.468 7.06C197.748 7.06 196.608 7.8 195.948 8.94V3.5ZM199.008 16.7C197.388 16.7 195.868 15.5 195.868 12.66C195.868 9.82 197.388 8.62 199.008 8.62C200.868 8.62 202.088 10.1 202.088 12.66C202.088 15.22 200.868 16.7 199.008 16.7ZM207.959 3.5H206.139V5.7H207.959V3.5ZM207.959 7.24H206.139V18H207.959V7.24ZM210.206 15.16C210.206 17.14 211.886 18.26 213.906 18.26C215.806 18.26 216.926 17.62 217.586 16.52C217.606 17.16 217.666 17.6 217.726 18H219.566C219.366 16.98 219.266 15.74 219.286 13.94L219.306 11.46C219.326 8.44 217.986 7.02 215.026 7.02C212.926 7.02 210.886 8.32 210.706 10.64H212.586C212.666 9.32 213.546 8.5 215.046 8.5C216.386 8.5 217.486 9.16 217.486 11.12V11.38C213.066 11.88 210.206 12.62 210.206 15.16ZM217.626 12.82V13.5C217.626 16.04 216.006 16.82 214.306 16.82C213.006 16.82 212.226 16.14 212.226 15.12C212.226 13.64 214.326 13.16 217.626 12.82ZM223.838 18V3.5H222.018V18H223.838ZM9.8 31.14V29.2C9.6 29.18 9.44 29.18 9.26 29.18C7.86 29.22 6.76 29.9 6.22 31.12V29.24H4.44V40H6.26V34.36C6.26 32 7.1 31.06 8.78 31.06C9.08 31.06 9.42 31.1 9.8 31.14ZM12.5741 35.22H20.8541C21.0941 31.82 19.1141 29.06 15.8341 29.06C12.8941 29.06 10.6141 31.24 10.6141 34.64C10.6141 37.82 12.4941 40.26 15.8941 40.26C18.5141 40.26 20.2141 38.74 20.7141 36.88H18.8341C18.3741 37.94 17.4941 38.66 15.8941 38.66C14.2941 38.66 12.6541 37.54 12.5741 35.22ZM12.5941 33.66C12.7541 31.5 14.2141 30.62 15.8341 30.62C17.7541 30.62 18.8941 32.14 18.9341 33.66H12.5941ZM29.1742 32.38H31.0742C30.7342 30.34 29.1542 29.04 26.8342 29.04C24.4542 29.04 22.5342 30.14 22.5342 32.04C22.5342 34.04 24.1342 34.72 25.5942 35.02L27.1942 35.34C28.3542 35.58 29.3742 36.04 29.3742 37.12C29.3742 38.12 28.2542 38.72 26.8742 38.72C25.2742 38.72 24.4142 37.9 24.1342 36.52H22.2142C22.4142 38.4 24.0142 40.26 26.8342 40.26C29.2942 40.26 31.2142 39.04 31.2142 36.92C31.2142 34.84 29.4942 34.1 27.5342 33.72L26.0142 33.42C24.9742 33.22 24.3742 32.82 24.3742 31.96C24.3742 30.98 25.5742 30.6 26.6342 30.6C27.8942 30.6 28.8942 31.1 29.1742 32.38ZM35.342 25.5H33.522V27.7H35.342V25.5ZM35.342 29.24H33.522V40H35.342V29.24ZM44.3891 32.38H46.2891C45.9491 30.34 44.3691 29.04 42.0491 29.04C39.6691 29.04 37.7491 30.14 37.7491 32.04C37.7491 34.04 39.3491 34.72 40.8091 35.02L42.4091 35.34C43.5691 35.58 44.5891 36.04 44.5891 37.12C44.5891 38.12 43.4691 38.72 42.0891 38.72C40.4891 38.72 39.6291 37.9 39.3491 36.52H37.4291C37.6291 38.4 39.2291 40.26 42.0491 40.26C44.5091 40.26 46.4291 39.04 46.4291 36.92C46.4291 34.84 44.7091 34.1 42.7491 33.72L41.2291 33.42C40.1891 33.22 39.5891 32.82 39.5891 31.96C39.5891 30.98 40.7891 30.6 41.8491 30.6C43.1091 30.6 44.1091 31.1 44.3891 32.38ZM49.2569 26.54V29.24H47.5569V30.7H49.2569V37.3C49.2569 39.54 49.7369 40 51.7969 40H53.1169V38.48H52.1969C51.1569 38.48 51.0769 38.2 51.0769 37.08V30.7H53.1169V29.24H51.0769V26.54H49.2569ZM54.6008 37.16C54.6008 39.14 56.2808 40.26 58.3008 40.26C60.2008 40.26 61.3208 39.62 61.9808 38.52C62.0008 39.16 62.0608 39.6 62.1208 40H63.9608C63.7608 38.98 63.6608 37.74 63.6808 35.94L63.7008 33.46C63.7208 30.44 62.3808 29.02 59.4208 29.02C57.3208 29.02 55.2808 30.32 55.1008 32.64H56.9808C57.0608 31.32 57.9408 30.5 59.4408 30.5C60.7808 30.5 61.8808 31.16 61.8808 33.12V33.38C57.4608 33.88 54.6008 34.62 54.6008 37.16ZM62.0208 34.82V35.5C62.0208 38.04 60.4008 38.82 58.7008 38.82C57.4008 38.82 56.6208 38.14 56.6208 37.12C56.6208 35.64 58.7208 35.16 62.0208 34.82ZM68.2327 30.86V29.24H66.4127V40H68.2327V34.16C68.2327 31.86 69.3127 30.64 71.0727 30.64C73.1527 30.64 73.4327 32.08 73.4327 33.74V40H75.2527V33.2C75.2527 30.74 74.3127 29.06 71.7127 29.06C69.8927 29.06 68.8527 29.84 68.2327 30.86ZM78.4952 26.54V29.24H76.7952V30.7H78.4952V37.3C78.4952 39.54 78.9752 40 81.0352 40H82.3552V38.48H81.4352C80.3952 38.48 80.3152 38.2 80.3152 37.08V30.7H82.3552V29.24H80.3152V26.54H78.4952ZM91.0452 25.5H89.2252V40H91.0452V38.38C91.7052 39.52 92.8452 40.26 94.5652 40.26C97.0252 40.26 99.1652 38.22 99.1652 34.66C99.1652 31.12 97.0252 29.06 94.5652 29.06C92.8452 29.06 91.7052 29.8 91.0452 30.94V25.5ZM94.1052 38.7C92.4852 38.7 90.9652 37.5 90.9652 34.66C90.9652 31.82 92.4852 30.62 94.1052 30.62C95.9652 30.62 97.1852 32.1 97.1852 34.66C97.1852 37.22 95.9652 38.7 94.1052 38.7ZM100.597 37.16C100.597 39.14 102.277 40.26 104.297 40.26C106.197 40.26 107.317 39.62 107.977 38.52C107.997 39.16 108.057 39.6 108.117 40H109.957C109.757 38.98 109.657 37.74 109.677 35.94L109.697 33.46C109.717 30.44 108.377 29.02 105.417 29.02C103.317 29.02 101.277 30.32 101.097 32.64H102.977C103.057 31.32 103.937 30.5 105.437 30.5C106.777 30.5 107.877 31.16 107.877 33.12V33.38C103.457 33.88 100.597 34.62 100.597 37.16ZM108.017 34.82V35.5C108.017 38.04 106.397 38.82 104.697 38.82C103.397 38.82 102.617 38.14 102.617 37.12C102.617 35.64 104.717 35.16 108.017 34.82ZM121.369 32.84C121.129 31.02 119.469 29.06 116.869 29.06C113.689 29.06 111.669 31.44 111.669 34.64C111.669 37.92 113.609 40.26 116.689 40.26C119.189 40.26 121.129 38.52 121.489 36.5H119.609C119.349 37.64 118.269 38.66 116.749 38.66C115.149 38.66 113.649 37.36 113.649 34.62C113.649 31.92 115.129 30.66 116.749 30.66C118.149 30.66 119.269 31.56 119.529 32.84H121.369ZM124.062 26.54V29.24H122.362V30.7H124.062V37.3C124.062 39.54 124.542 40 126.602 40H127.922V38.48H127.002C125.962 38.48 125.882 38.2 125.882 37.08V30.7H127.922V29.24H125.882V26.54H124.062ZM131.168 35.22H139.448C139.688 31.82 137.708 29.06 134.428 29.06C131.488 29.06 129.208 31.24 129.208 34.64C129.208 37.82 131.088 40.26 134.488 40.26C137.108 40.26 138.808 38.74 139.308 36.88H137.428C136.968 37.94 136.088 38.66 134.488 38.66C132.888 38.66 131.248 37.54 131.168 35.22ZM131.188 33.66C131.348 31.5 132.808 30.62 134.428 30.62C136.348 30.62 137.488 32.14 137.528 33.66H131.188ZM146.929 31.14V29.2C146.729 29.18 146.569 29.18 146.389 29.18C144.989 29.22 143.889 29.9 143.349 31.12V29.24H141.569V40H143.389V34.36C143.389 32 144.229 31.06 145.909 31.06C146.209 31.06 146.549 31.1 146.929 31.14ZM150.498 25.5H148.678V27.7H150.498V25.5ZM150.498 29.24H148.678V40H150.498V29.24ZM152.745 37.16C152.745 39.14 154.425 40.26 156.445 40.26C158.345 40.26 159.465 39.62 160.125 38.52C160.145 39.16 160.205 39.6 160.265 40H162.105C161.905 38.98 161.805 37.74 161.825 35.94L161.845 33.46C161.865 30.44 160.525 29.02 157.565 29.02C155.465 29.02 153.425 30.32 153.245 32.64H155.125C155.205 31.32 156.085 30.5 157.585 30.5C158.925 30.5 160.025 31.16 160.025 33.12V33.38C155.605 33.88 152.745 34.62 152.745 37.16ZM160.165 34.82V35.5C160.165 38.04 158.545 38.82 156.845 38.82C155.545 38.82 154.765 38.14 154.765 37.12C154.765 35.64 156.865 35.16 160.165 34.82ZM176.683 25.5V30.94C176.023 29.8 174.883 29.06 173.163 29.06C170.703 29.06 168.563 31.12 168.563 34.66C168.563 38.22 170.703 40.26 173.163 40.26C174.883 40.26 176.023 39.52 176.683 38.38V40H178.503V25.5H176.683ZM173.623 30.62C175.243 30.62 176.763 31.82 176.763 34.66C176.763 37.5 175.243 38.7 173.623 38.7C171.763 38.7 170.543 37.22 170.543 34.66C170.543 32.1 171.763 30.62 173.623 30.62ZM182.594 35.22H190.874C191.114 31.82 189.134 29.06 185.854 29.06C182.914 29.06 180.634 31.24 180.634 34.64C180.634 37.82 182.514 40.26 185.914 40.26C188.534 40.26 190.234 38.74 190.734 36.88H188.854C188.394 37.94 187.514 38.66 185.914 38.66C184.314 38.66 182.674 37.54 182.594 35.22ZM182.614 33.66C182.774 31.5 184.234 30.62 185.854 30.62C187.774 30.62 188.914 32.14 188.954 33.66H182.614ZM193.515 26.54V29.24H191.815V30.7H193.515V37.3C193.515 39.54 193.995 40 196.055 40H197.375V38.48H196.455C195.415 38.48 195.335 38.2 195.335 37.08V30.7H197.375V29.24H195.335V26.54H193.515ZM200.621 35.22H208.901C209.141 31.82 207.161 29.06 203.881 29.06C200.941 29.06 198.661 31.24 198.661 34.64C198.661 37.82 200.541 40.26 203.941 40.26C206.561 40.26 208.261 38.74 208.761 36.88H206.881C206.421 37.94 205.541 38.66 203.941 38.66C202.341 38.66 200.701 37.54 200.621 35.22ZM200.641 33.66C200.801 31.5 202.261 30.62 203.881 30.62C205.801 30.62 206.941 32.14 206.981 33.66H200.641ZM220.08 32.84C219.84 31.02 218.18 29.06 215.58 29.06C212.4 29.06 210.38 31.44 210.38 34.64C210.38 37.92 212.32 40.26 215.4 40.26C217.9 40.26 219.84 38.52 220.2 36.5H218.32C218.06 37.64 216.98 38.66 215.46 38.66C213.86 38.66 212.36 37.36 212.36 34.62C212.36 31.92 213.84 30.66 215.46 30.66C216.86 30.66 217.98 31.56 218.24 32.84H220.08ZM222.773 26.54V29.24H221.073V30.7H222.773V37.3C222.773 39.54 223.253 40 225.313 40H226.633V38.48H225.713C224.673 38.48 224.593 38.2 224.593 37.08V30.7H226.633V29.24H224.593V26.54H222.773ZM229.879 35.22H238.159C238.399 31.82 236.419 29.06 233.139 29.06C230.199 29.06 227.919 31.24 227.919 34.64C227.919 37.82 229.799 40.26 233.199 40.26C235.819 40.26 237.519 38.74 238.019 36.88H236.139C235.679 37.94 234.799 38.66 233.199 38.66C231.599 38.66 229.959 37.54 229.879 35.22ZM229.899 33.66C230.059 31.5 231.519 30.62 233.139 30.62C235.059 30.62 236.199 32.14 236.239 33.66H229.899ZM247.758 25.5V30.94C247.098 29.8 245.958 29.06 244.238 29.06C241.778 29.06 239.638 31.12 239.638 34.66C239.638 38.22 241.778 40.26 244.238 40.26C245.958 40.26 247.098 39.52 247.758 38.38V40H249.578V25.5H247.758ZM244.698 30.62C246.318 30.62 247.838 31.82 247.838 34.66C247.838 37.5 246.318 38.7 244.698 38.7C242.838 38.7 241.618 37.22 241.618 34.66C241.618 32.1 242.838 30.62 244.698 30.62ZM252.308 31.54H254.608V29.24H252.308V31.54ZM252.308 40H254.608V37.7H252.308V40Z" fill="black"/>
<path d="M296.414 130.506C296.499 127.65 297.536 125.746 299.44 125.746C300.698 125.746 301.548 126.426 301.752 127.531H303.435C303.18 125.967 302.041 124.454 299.627 124.454C296.057 124.454 294.816 127.786 294.816 131.271C294.816 135.079 296.227 137.221 299.304 137.221C301.939 137.221 303.639 135.266 303.639 132.971C303.639 130.506 301.956 128.789 299.661 128.789C298.029 128.789 296.975 129.537 296.414 130.506ZM299.287 135.929C297.655 135.929 296.601 134.756 296.601 133.056C296.601 131.373 297.689 130.132 299.304 130.132C300.885 130.132 301.99 131.373 301.99 133.056C301.99 134.739 300.868 135.929 299.287 135.929ZM313.503 127.684C313.503 125.61 311.871 124.454 309.593 124.454C306.975 124.454 305.275 126.069 305.309 128.517H306.907C306.941 126.477 308.233 125.746 309.559 125.746C311.021 125.746 311.871 126.613 311.871 127.888C311.871 130.064 309.321 132.393 304.969 135.606V137H313.843V135.555H307.077C310.528 133.073 313.503 130.54 313.503 127.684ZM314.673 124.675V126.12H321.405C318.345 128.772 316.39 132.58 316.118 137H317.988C318.277 132.393 320.164 128.585 323.207 126.12V124.675H314.673Z" fill="black"/>
<path d="M164.888 131.954C164.888 133.858 163.613 134.929 162.134 134.929C160.417 134.929 159.584 133.977 159.346 132.43H157.748C157.986 134.419 159.278 136.221 162.134 136.221C164.429 136.221 166.52 134.759 166.52 131.937C166.52 129.217 164.633 127.687 162.474 127.687C161.454 127.687 160.468 127.993 159.822 128.622L160.247 125.12H166.061V123.675H158.989L158.19 130.305L159.737 130.39C160.009 129.778 160.842 129.03 162.117 129.03C163.46 129.03 164.888 129.914 164.888 131.954ZM168.431 123.675V125.63H169.264L168.363 127.993H169.349L170.386 125.766V123.675H168.431ZM180.2 132.957V131.495H177.939V123.675H176.358L170.255 131.495V132.957H176.375V136H177.939V132.957H180.2ZM171.972 131.495L176.375 125.8V131.495H171.972ZM180.761 123.675V125.12H187.493C184.433 127.772 182.478 131.58 182.206 136H184.076C184.365 131.393 186.252 127.585 189.295 125.12V123.675H180.761ZM197.831 132.957V131.495H195.57V123.675H193.989L187.886 131.495V132.957H194.006V136H195.57V132.957H197.831ZM189.603 131.495L194.006 125.8V131.495H189.603Z" fill="black"/>
<path d="M443.044 126.684C443.044 124.61 441.412 123.454 439.134 123.454C436.516 123.454 434.816 125.069 434.85 127.517H436.448C436.482 125.477 437.774 124.746 439.1 124.746C440.562 124.746 441.412 125.613 441.412 126.888C441.412 129.064 438.862 131.393 434.51 134.606V136H443.384V134.555H436.618C440.069 132.073 443.044 129.54 443.044 126.684ZM444.214 123.675V125.12H450.946C447.886 127.772 445.931 131.58 445.659 136H447.529C447.818 131.393 449.705 127.585 452.748 125.12V123.675H444.214ZM454.363 123.675V125.63H455.196L454.295 127.993H455.281L456.318 125.766V123.675H454.363ZM464.798 131.954C464.798 133.858 463.523 134.929 462.044 134.929C460.327 134.929 459.494 133.977 459.256 132.43H457.658C457.896 134.419 459.188 136.221 462.044 136.221C464.339 136.221 466.43 134.759 466.43 131.937C466.43 129.217 464.543 127.687 462.384 127.687C461.364 127.687 460.378 127.993 459.732 128.622L460.157 125.12H465.971V123.675H458.899L458.1 130.305L459.647 130.39C459.919 129.778 460.752 129.03 462.027 129.03C463.37 129.03 464.798 129.914 464.798 131.954ZM467.423 123.675V125.12H474.155C471.095 127.772 469.14 131.58 468.868 136H470.738C471.027 131.393 472.914 127.585 475.957 125.12V123.675H467.423ZM476.654 123.675V125.12H483.386C480.326 127.772 478.371 131.58 478.099 136H479.969C480.258 131.393 482.145 127.585 485.188 125.12V123.675H476.654Z" fill="black"/>
<rect x="294.5" y="105.5" width="189" height="9" rx="4.5" fill="url(#paint0_linear_937_373)" stroke="#FF46EC"/>
<defs>
<linearGradient id="paint0_linear_937_373" x1="477.949" y1="115" x2="294" y2="115" gradientUnits="userSpaceOnUse">
<stop stop-color="#FF46EC"/>
<stop offset="1" stop-color="white"/>
</linearGradient>
</defs>
</svg>
