<svg viewBox="0 0 741 85" fill="none" xmlns="http://www.w3.org/2000/svg">
<path d="M53.828 9.675H50.462V22H53.828C57.738 22 60.543 20.538 60.543 15.829C60.543 11.137 57.738 9.675 53.828 9.675ZM53.777 11.137C56.327 11.137 58.775 11.647 58.775 15.829C58.775 20.028 56.327 20.538 53.777 20.538H52.196V11.137H53.777ZM64.189 9.675H62.642V11.545H64.189V9.675ZM64.189 12.854H62.642V22H64.189V12.854ZM71.8789 15.523H73.4939C73.2049 13.789 71.8619 12.684 69.8899 12.684C67.8669 12.684 66.2349 13.619 66.2349 15.234C66.2349 16.934 67.5949 17.512 68.8359 17.767L70.1959 18.039C71.1819 18.243 72.0489 18.634 72.0489 19.552C72.0489 20.402 71.0969 20.912 69.9239 20.912C68.5639 20.912 67.8329 20.215 67.5949 19.042H65.9629C66.1329 20.64 67.4929 22.221 69.8899 22.221C71.9809 22.221 73.6129 21.184 73.6129 19.382C73.6129 17.614 72.1509 16.985 70.4849 16.662L69.1929 16.407C68.3089 16.237 67.7989 15.897 67.7989 15.166C67.7989 14.333 68.8189 14.01 69.7199 14.01C70.7909 14.01 71.6409 14.435 71.8789 15.523ZM83.1906 15.914C82.9866 14.367 81.5756 12.701 79.3656 12.701C76.6626 12.701 74.9456 14.724 74.9456 17.444C74.9456 20.232 76.5946 22.221 79.2126 22.221C81.3376 22.221 82.9866 20.742 83.2926 19.025H81.6946C81.4736 19.994 80.5556 20.861 79.2636 20.861C77.9036 20.861 76.6286 19.756 76.6286 17.427C76.6286 15.132 77.8866 14.061 79.2636 14.061C80.4536 14.061 81.4056 14.826 81.6266 15.914H83.1906ZM93.2975 17.461C93.2975 14.146 91.0365 12.701 88.9115 12.701C86.7865 12.701 84.5255 14.146 84.5255 17.461C84.5255 20.776 86.7865 22.221 88.9115 22.221C91.0365 22.221 93.2975 20.776 93.2975 17.461ZM88.9115 20.861C87.5175 20.861 86.1745 19.892 86.1745 17.461C86.1745 14.962 87.5175 14.061 88.9115 14.061C90.3055 14.061 91.6485 15.03 91.6485 17.461C91.6485 19.807 90.3055 20.861 88.9115 20.861ZM97.9568 19.858L95.4748 12.854H93.7578L97.2088 22H98.5858L102.037 12.854H100.439L97.9568 19.858ZM104.137 17.937H111.175C111.379 15.047 109.696 12.701 106.908 12.701C104.409 12.701 102.471 14.554 102.471 17.444C102.471 20.147 104.069 22.221 106.959 22.221C109.186 22.221 110.631 20.929 111.056 19.348H109.458C109.067 20.249 108.319 20.861 106.959 20.861C105.599 20.861 104.205 19.909 104.137 17.937ZM104.154 16.611C104.29 14.775 105.531 14.027 106.908 14.027C108.54 14.027 109.509 15.319 109.543 16.611H104.154ZM117.534 14.469V12.82C117.364 12.803 117.228 12.803 117.075 12.803C115.885 12.837 114.95 13.415 114.491 14.452V12.854H112.978V22H114.525V17.206C114.525 15.2 115.239 14.401 116.667 14.401C116.922 14.401 117.211 14.435 117.534 14.469ZM125.719 12.854H124.104L121.843 19.909L119.514 12.854H117.797L121.095 22L121.027 22.187C120.619 23.615 120.126 23.683 119.106 23.683H118.477V24.975H119.276C121.316 24.975 121.792 24.38 122.455 22.391L125.719 12.854ZM135.53 14.469V12.82C135.36 12.803 135.224 12.803 135.071 12.803C133.881 12.837 132.946 13.415 132.487 14.452V12.854H130.974V22H132.521V17.206C132.521 15.2 133.235 14.401 134.663 14.401C134.918 14.401 135.207 14.435 135.53 14.469ZM137.888 17.937H144.926C145.13 15.047 143.447 12.701 140.659 12.701C138.16 12.701 136.222 14.554 136.222 17.444C136.222 20.147 137.82 22.221 140.71 22.221C142.937 22.221 144.382 20.929 144.807 19.348H143.209C142.818 20.249 142.07 20.861 140.71 20.861C139.35 20.861 137.956 19.909 137.888 17.937ZM137.905 16.611C138.041 14.775 139.282 14.027 140.659 14.027C142.291 14.027 143.26 15.319 143.294 16.611H137.905ZM148.276 12.854H146.729V24.975H148.276V20.623C148.837 21.592 149.806 22.221 151.268 22.221C153.359 22.221 155.178 20.487 155.178 17.461C155.178 14.452 153.359 12.701 151.268 12.701C149.806 12.701 148.837 13.33 148.276 14.299V12.854ZM150.877 20.895C149.5 20.895 148.208 19.875 148.208 17.461C148.208 15.047 149.5 14.027 150.877 14.027C152.458 14.027 153.495 15.285 153.495 17.461C153.495 19.637 152.458 20.895 150.877 20.895ZM165.298 17.461C165.298 14.146 163.037 12.701 160.912 12.701C158.787 12.701 156.526 14.146 156.526 17.461C156.526 20.776 158.787 22.221 160.912 22.221C163.037 22.221 165.298 20.776 165.298 17.461ZM160.912 20.861C159.518 20.861 158.175 19.892 158.175 17.461C158.175 14.962 159.518 14.061 160.912 14.061C162.306 14.061 163.649 15.03 163.649 17.461C163.649 19.807 162.306 20.861 160.912 20.861ZM171.705 14.469V12.82C171.535 12.803 171.399 12.803 171.246 12.803C170.056 12.837 169.121 13.415 168.662 14.452V12.854H167.149V22H168.696V17.206C168.696 15.2 169.41 14.401 170.838 14.401C171.093 14.401 171.382 14.435 171.705 14.469ZM173.634 10.559V12.854H172.189V14.095H173.634V19.705C173.634 21.609 174.042 22 175.793 22H176.915V20.708H176.133C175.249 20.708 175.181 20.47 175.181 19.518V14.095H176.915V12.854H175.181V10.559H173.634ZM179.674 17.937H186.712C186.916 15.047 185.233 12.701 182.445 12.701C179.946 12.701 178.008 14.554 178.008 17.444C178.008 20.147 179.606 22.221 182.496 22.221C184.723 22.221 186.168 20.929 186.593 19.348H184.995C184.604 20.249 183.856 20.861 182.496 20.861C181.136 20.861 179.742 19.909 179.674 17.937ZM179.691 16.611C179.827 14.775 181.068 14.027 182.445 14.027C184.077 14.027 185.046 15.319 185.08 16.611H179.691ZM194.871 9.675V14.299C194.31 13.33 193.341 12.701 191.879 12.701C189.788 12.701 187.969 14.452 187.969 17.461C187.969 20.487 189.788 22.221 191.879 22.221C193.341 22.221 194.31 21.592 194.871 20.623V22H196.418V9.675H194.871ZM192.27 14.027C193.647 14.027 194.939 15.047 194.939 17.461C194.939 19.875 193.647 20.895 192.27 20.895C190.689 20.895 189.652 19.637 189.652 17.461C189.652 15.285 190.689 14.027 192.27 14.027Z" fill="black"/>
<path d="M14.5 27C7.0459 27 1 21.178 1 14C1 6.82198 7.0459 1 14.5 1C21.9541 1 28 6.82198 28 14C28 21.178 21.9541 27 14.5 27Z" fill="#FF46EC"/>
<path d="M52.196 75V62.675H50.462V75H52.196ZM56.436 67.231V65.854H54.889V75H56.436V70.036C56.436 68.081 57.354 67.044 58.85 67.044C60.618 67.044 60.856 68.268 60.856 69.679V75H62.403V69.22C62.403 67.129 61.604 65.701 59.394 65.701C57.847 65.701 56.963 66.364 56.436 67.231ZM65.1592 63.559V65.854H63.7142V67.095H65.1592V72.705C65.1592 74.609 65.5672 75 67.3182 75H68.4402V73.708H67.6582C66.7742 73.708 66.7062 73.47 66.7062 72.518V67.095H68.4402V65.854H66.7062V63.559H65.1592ZM74.8015 67.469V65.82C74.6315 65.803 74.4955 65.803 74.3425 65.803C73.1525 65.837 72.2175 66.415 71.7585 67.452V65.854H70.2455V75H71.7925V70.206C71.7925 68.2 72.5065 67.401 73.9345 67.401C74.1895 67.401 74.4785 67.435 74.8015 67.469ZM84.2994 70.461C84.2994 67.146 82.0384 65.701 79.9134 65.701C77.7884 65.701 75.5274 67.146 75.5274 70.461C75.5274 73.776 77.7884 75.221 79.9134 75.221C82.0384 75.221 84.2994 73.776 84.2994 70.461ZM79.9134 73.861C78.5194 73.861 77.1764 72.892 77.1764 70.461C77.1764 67.962 78.5194 67.061 79.9134 67.061C81.3074 67.061 82.6504 68.03 82.6504 70.461C82.6504 72.807 81.3074 73.861 79.9134 73.861ZM92.5556 62.675V67.299C91.9946 66.33 91.0256 65.701 89.5636 65.701C87.4726 65.701 85.6536 67.452 85.6536 70.461C85.6536 73.487 87.4726 75.221 89.5636 75.221C91.0256 75.221 91.9946 74.592 92.5556 73.623V75H94.1026V62.675H92.5556ZM89.9546 67.027C91.3316 67.027 92.6236 68.047 92.6236 70.461C92.6236 72.875 91.3316 73.895 89.9546 73.895C88.3736 73.895 87.3366 72.637 87.3366 70.461C87.3366 68.285 88.3736 67.027 89.9546 67.027ZM102.203 73.691V75H103.75V65.854H102.203V70.886C102.203 72.841 101.336 73.878 99.8744 73.878C98.1914 73.878 97.9534 72.654 97.9534 71.243V65.854H96.4064V71.702C96.4064 73.793 97.2054 75.221 99.3304 75.221C100.843 75.221 101.676 74.558 102.203 73.691ZM113.82 68.914C113.616 67.367 112.205 65.701 109.995 65.701C107.292 65.701 105.575 67.724 105.575 70.444C105.575 73.232 107.224 75.221 109.842 75.221C111.967 75.221 113.616 73.742 113.922 72.025H112.324C112.103 72.994 111.185 73.861 109.893 73.861C108.533 73.861 107.258 72.756 107.258 70.427C107.258 68.132 108.516 67.061 109.893 67.061C111.083 67.061 112.035 67.826 112.256 68.914H113.82ZM116.787 70.937H123.825C124.029 68.047 122.346 65.701 119.558 65.701C117.059 65.701 115.121 67.554 115.121 70.444C115.121 73.147 116.719 75.221 119.609 75.221C121.836 75.221 123.281 73.929 123.706 72.348H122.108C121.717 73.249 120.969 73.861 119.609 73.861C118.249 73.861 116.855 72.909 116.787 70.937ZM116.804 69.611C116.94 67.775 118.181 67.027 119.558 67.027C121.19 67.027 122.159 68.319 122.193 69.611H116.804ZM131.984 62.675V67.299C131.423 66.33 130.454 65.701 128.992 65.701C126.901 65.701 125.082 67.452 125.082 70.461C125.082 73.487 126.901 75.221 128.992 75.221C130.454 75.221 131.423 74.592 131.984 73.623V75H133.531V62.675H131.984ZM129.383 67.027C130.76 67.027 132.052 68.047 132.052 70.461C132.052 72.875 130.76 73.895 129.383 73.895C127.802 73.895 126.765 72.637 126.765 70.461C126.765 68.285 127.802 67.027 129.383 67.027ZM147.621 68.914C147.417 67.367 146.006 65.701 143.796 65.701C141.093 65.701 139.376 67.724 139.376 70.444C139.376 73.232 141.025 75.221 143.643 75.221C145.768 75.221 147.417 73.742 147.723 72.025H146.125C145.904 72.994 144.986 73.861 143.694 73.861C142.334 73.861 141.059 72.756 141.059 70.427C141.059 68.132 142.317 67.061 143.694 67.061C144.884 67.061 145.836 67.826 146.057 68.914H147.621ZM151.015 75V62.675H149.468V75H151.015ZM155.016 62.675H153.469V64.545H155.016V62.675ZM155.016 65.854H153.469V75H155.016V65.854ZM159.017 67.231V65.854H157.47V75H159.017V70.036C159.017 68.081 159.935 67.044 161.431 67.044C163.199 67.044 163.437 68.268 163.437 69.679V75H164.984V69.22C164.984 67.129 164.185 65.701 161.975 65.701C160.428 65.701 159.544 66.364 159.017 67.231ZM168.845 62.675H167.298V64.545H168.845V62.675ZM168.845 65.854H167.298V75H168.845V65.854ZM178.915 68.914C178.711 67.367 177.3 65.701 175.09 65.701C172.387 65.701 170.67 67.724 170.67 70.444C170.67 73.232 172.319 75.221 174.937 75.221C177.062 75.221 178.711 73.742 179.017 72.025H177.419C177.198 72.994 176.28 73.861 174.988 73.861C173.628 73.861 172.353 72.756 172.353 70.427C172.353 68.132 173.611 67.061 174.988 67.061C176.178 67.061 177.13 67.826 177.351 68.914H178.915ZM180.218 72.586C180.218 74.269 181.646 75.221 183.363 75.221C184.978 75.221 185.93 74.677 186.491 73.742C186.508 74.286 186.559 74.66 186.61 75H188.174C188.004 74.133 187.919 73.079 187.936 71.549L187.953 69.441C187.97 66.874 186.831 65.667 184.315 65.667C182.53 65.667 180.796 66.772 180.643 68.744H182.241C182.309 67.622 183.057 66.925 184.332 66.925C185.471 66.925 186.406 67.486 186.406 69.152V69.373C182.649 69.798 180.218 70.427 180.218 72.586ZM186.525 70.597V71.175C186.525 73.334 185.148 73.997 183.703 73.997C182.598 73.997 181.935 73.419 181.935 72.552C181.935 71.294 183.72 70.886 186.525 70.597ZM191.805 75V62.675H190.258V75H191.805ZM195.806 75V62.675H194.259V75H195.806ZM204.958 65.854H203.343L201.082 72.909L198.753 65.854H197.036L200.334 75L200.266 75.187C199.858 76.615 199.365 76.683 198.345 76.683H197.716V77.975H198.515C200.555 77.975 201.031 77.38 201.694 75.391L204.958 65.854Z" fill="black"/>
<path d="M14.5 82C7.0459 82 1 76.178 1 69C1 61.822 7.0459 56 14.5 56C21.9541 56 28 61.822 28 69C28 76.178 21.9541 82 14.5 82Z" fill="#FF2600"/>
</svg>
