<svg viewBox="0 0 742 1110" fill="none" xmlns="http://www.w3.org/2000/svg">
<g clip-path="url(#clip0_1295_862)">
<line x1="32" y1="646" x2="164" y2="646" stroke="#FFC5CD" stroke-width="12"/>
<path d="M24 115C20.6871 115 18 112.313 18 109C18 105.687 20.6871 103 24 103C27.3129 103 30 105.687 30 109C30 112.313 27.3129 115 24 115Z" fill="#FF2600"/>
<path d="M303 82C299.687 82 297 79.3129 297 76C297 72.6871 299.687 70 303 70C306.313 70 309 72.6871 309 76C309 79.3129 306.313 82 303 82Z" fill="#FF46EC"/>
<path d="M303 36C299.687 36 297 33.3129 297 30C297 26.6871 299.687 24 303 24C306.313 24 309 26.6871 309 30C309 33.3129 306.313 36 303 36Z" fill="#FF46EC"/>
<path d="M303 94C299.687 94 297 91.3129 297 88C297 84.6871 299.687 82 303 82C306.313 82 309 84.6871 309 88C309 91.3129 306.313 94 303 94Z" fill="#FF46EC"/>
<path d="M303 279C299.687 279 297 276.313 297 273C297 269.687 299.687 267 303 267C306.313 267 309 269.687 309 273C309 276.313 306.313 279 303 279Z" fill="#FF46EC"/>
<path d="M303 317C299.687 317 297 314.313 297 311C297 307.687 299.687 305 303 305C306.313 305 309 307.687 309 311C309 314.313 306.313 317 303 317Z" fill="#FF46EC"/>
<path d="M303 377C299.687 377 297 374.313 297 371C297 367.687 299.687 365 303 365C306.313 365 309 367.687 309 371C309 374.313 306.313 377 303 377Z" fill="#FF46EC"/>
<path d="M303 567C299.687 567 297 564.313 297 561C297 557.687 299.687 555 303 555C306.313 555 309 557.687 309 561C309 564.313 306.313 567 303 567Z" fill="#FF46EC"/>
<path d="M315 567C311.687 567 309 564.313 309 561C309 557.687 311.687 555 315 555C318.313 555 321 557.687 321 561C321 564.313 318.313 567 315 567Z" fill="#FF46EC"/>
<path d="M303 588C299.687 588 297 585.313 297 582C297 578.687 299.687 576 303 576C306.313 576 309 578.687 309 582C309 585.313 306.313 588 303 588Z" fill="#FF46EC"/>
<path d="M315 588C311.687 588 309 585.313 309 582C309 578.687 311.687 576 315 576C318.313 576 321 578.687 321 582C321 585.313 318.313 588 315 588Z" fill="#FF46EC"/>
<path d="M327 588C323.687 588 321 585.313 321 582C321 578.687 323.687 576 327 576C330.313 576 333 578.687 333 582C333 585.313 330.313 588 327 588Z" fill="#FF46EC"/>
<path d="M303 419C299.687 419 297 416.313 297 413C297 409.687 299.687 407 303 407C306.313 407 309 409.687 309 413C309 416.313 306.313 419 303 419Z" fill="#FF46EC"/>
<path d="M303 448C299.687 448 297 445.313 297 442C297 438.687 299.687 436 303 436C306.313 436 309 438.687 309 442C309 445.313 306.313 448 303 448Z" fill="#FF46EC"/>
<path d="M303 478C299.687 478 297 475.313 297 472C297 468.687 299.687 466 303 466C306.313 466 309 468.687 309 472C309 475.313 306.313 478 303 478Z" fill="#FF46EC"/>
<path d="M303 502C299.687 502 297 499.313 297 496C297 492.687 299.687 490 303 490C306.313 490 309 492.687 309 496C309 499.313 306.313 502 303 502Z" fill="#FF46EC"/>
<path d="M315 431C311.687 431 309 428.313 309 425C309 421.687 311.687 419 315 419C318.313 419 321 421.687 321 425C321 428.313 318.313 431 315 431Z" fill="#FF46EC"/>
<path d="M303 431C299.687 431 297 428.313 297 425C297 421.687 299.687 419 303 419C306.313 419 309 421.687 309 425C309 428.313 306.313 431 303 431Z" fill="#FF46EC"/>
<path d="M315 460C311.687 460 309 457.313 309 454C309 450.687 311.687 448 315 448C318.313 448 321 450.687 321 454C321 457.313 318.313 460 315 460Z" fill="#FF46EC"/>
<path d="M303 649C299.687 649 297 646.313 297 643C297 639.687 299.687 637 303 637C306.313 637 309 639.687 309 643C309 646.313 306.313 649 303 649Z" fill="#FF46EC"/>
<path d="M303 668C299.687 668 297 665.313 297 662C297 658.687 299.687 656 303 656C306.313 656 309 658.687 309 662C309 665.313 306.313 668 303 668Z" fill="#FF46EC"/>
<path d="M303 698C299.687 698 297 695.313 297 692C297 688.687 299.687 686 303 686C306.313 686 309 688.687 309 692C309 695.313 306.313 698 303 698Z" fill="#FF46EC"/>
<path d="M303 710C299.687 710 297 707.313 297 704C297 700.687 299.687 698 303 698C306.313 698 309 700.687 309 704C309 707.313 306.313 710 303 710Z" fill="#FF46EC"/>
<path d="M303 757C299.687 757 297 754.313 297 751C297 747.687 299.687 745 303 745C306.313 745 309 747.687 309 751C309 754.313 306.313 757 303 757Z" fill="#FF46EC"/>
<path d="M303 964C299.687 964 297 961.313 297 958C297 954.687 299.687 952 303 952C306.313 952 309 954.687 309 958C309 961.313 306.313 964 303 964Z" fill="#FF46EC"/>
<path d="M315 822C311.687 822 309 819.313 309 816C309 812.687 311.687 810 315 810C318.313 810 321 812.687 321 816C321 819.313 318.313 822 315 822Z" fill="#FF46EC"/>
<path d="M303 822C299.687 822 297 819.313 297 816C297 812.687 299.687 810 303 810C306.313 810 309 812.687 309 816C309 819.313 306.313 822 303 822Z" fill="#FF46EC"/>
<path d="M303 555C299.687 555 297 552.313 297 549C297 545.687 299.687 543 303 543C306.313 543 309 545.687 309 549C309 552.313 306.313 555 303 555Z" fill="#FF46EC"/>
<path d="M303 543C299.687 543 297 540.313 297 537C297 533.687 299.687 531 303 531C306.313 531 309 533.687 309 537C309 540.313 306.313 543 303 543Z" fill="#FF46EC"/>
<path d="M303 531C299.687 531 297 528.313 297 525C297 521.687 299.687 519 303 519C306.313 519 309 521.687 309 525C309 528.313 306.313 531 303 531Z" fill="#FF46EC"/>
<path d="M315 478C311.687 478 309 475.313 309 472C309 468.687 311.687 466 315 466C318.313 466 321 468.687 321 472C321 475.313 318.313 478 315 478Z" fill="#FF46EC"/>
<path d="M315 502C311.687 502 309 499.313 309 496C309 492.687 311.687 490 315 490C318.313 490 321 492.687 321 496C321 499.313 318.313 502 315 502Z" fill="#FF46EC"/>
<path d="M315 490C311.687 490 309 487.313 309 484C309 480.687 311.687 478 315 478C318.313 478 321 480.687 321 484C321 487.313 318.313 490 315 490Z" fill="#FF46EC"/>
<path d="M315 514C311.687 514 309 511.313 309 508C309 504.687 311.687 502 315 502C318.313 502 321 504.687 321 508C321 511.313 318.313 514 315 514Z" fill="#FF46EC"/>
<path d="M303 460C299.687 460 297 457.313 297 454C297 450.687 299.687 448 303 448C306.313 448 309 450.687 309 454C309 457.313 306.313 460 303 460Z" fill="#FF46EC"/>
<path d="M303 490C299.687 490 297 487.313 297 484C297 480.687 299.687 478 303 478C306.313 478 309 480.687 309 484C309 487.313 306.313 490 303 490Z" fill="#FF46EC"/>
<path d="M303 514C299.687 514 297 511.313 297 508C297 504.687 299.687 502 303 502C306.313 502 309 504.687 309 508C309 511.313 306.313 514 303 514Z" fill="#FF46EC"/>
<path d="M32 357C28.6871 357 26 354.313 26 351C26 347.687 28.6871 345 32 345C35.3129 345 38 347.687 38 351C38 354.313 35.3129 357 32 357Z" fill="#FF2600"/>
<path d="M32 397C28.6871 397 26 394.313 26 391C26 387.687 28.6871 385 32 385C35.3129 385 38 387.687 38 391C38 394.313 35.3129 397 32 397Z" fill="#FF2600"/>
<path d="M32 415C28.6871 415 26 412.313 26 409C26 405.687 28.6871 403 32 403C35.3129 403 38 405.687 38 409C38 412.313 35.3129 415 32 415Z" fill="#FF2600"/>
<path d="M32 427C28.6871 427 26 424.313 26 421C26 417.687 28.6871 415 32 415C35.3129 415 38 417.687 38 421C38 424.313 35.3129 427 32 427Z" fill="#FF2600"/>
<path d="M32 439C28.6871 439 26 436.313 26 433C26 429.687 28.6871 427 32 427C35.3129 427 38 429.687 38 433C38 436.313 35.3129 439 32 439Z" fill="#FF2600"/>
<path d="M32 487C28.6871 487 26 484.313 26 481C26 477.687 28.6871 475 32 475C35.3129 475 38 477.687 38 481C38 484.313 35.3129 487 32 487Z" fill="#FF2600"/>
<path d="M32 624C28.6871 624 26 621.313 26 618C26 614.687 28.6871 612 32 612C35.3129 612 38 614.687 38 618C38 621.313 35.3129 624 32 624Z" fill="#FF2600"/>
<path d="M20 624C16.6871 624 14 621.313 14 618C14 614.687 16.6871 612 20 612C23.3129 612 26 614.687 26 618C26 621.313 23.3129 624 20 624Z" fill="#FF2600"/>
<path d="M32 588C28.6871 588 26 585.313 26 582C26 578.687 28.6871 576 32 576C35.3129 576 38 578.687 38 582C38 585.313 35.3129 588 32 588Z" fill="#FF2600"/>
<path d="M32 499C28.6871 499 26 496.313 26 493C26 489.687 28.6871 487 32 487C35.3129 487 38 489.687 38 493C38 496.313 35.3129 499 32 499Z" fill="#FF2600"/>
<path d="M32 558C28.6871 558 26 555.313 26 552C26 548.687 28.6871 546 32 546C35.3129 546 38 548.687 38 552C38 555.313 35.3129 558 32 558Z" fill="#FF2600"/>
<path d="M32 546C28.6871 546 26 543.313 26 540C26 536.687 28.6871 534 32 534C35.3129 534 38 536.687 38 540C38 543.313 35.3129 546 32 546Z" fill="#FF2600"/>
<path d="M32 961C28.6871 961 26 958.313 26 955C26 951.687 28.6871 949 32 949C35.3129 949 38 951.687 38 955C38 958.313 35.3129 961 32 961Z" fill="#FF2600"/>
<path d="M32 994C28.6871 994 26 991.313 26 988C26 984.687 28.6871 982 32 982C35.3129 982 38 984.687 38 988C38 991.313 35.3129 994 32 994Z" fill="#FF2600"/>
<path d="M32 1032C28.6871 1032 26 1029.31 26 1026C26 1022.69 28.6871 1020 32 1020C35.3129 1020 38 1022.69 38 1026C38 1029.31 35.3129 1032 32 1032Z" fill="#FF2600"/>
<path d="M32 1044C28.6871 1044 26 1041.31 26 1038C26 1034.69 28.6871 1032 32 1032C35.3129 1032 38 1034.69 38 1038C38 1041.31 35.3129 1044 32 1044Z" fill="#FF2600"/>
<path d="M32 623C28.6871 623 26 620.313 26 617C26 613.687 28.6871 611 32 611C35.3129 611 38 613.687 38 617C38 620.313 35.3129 623 32 623Z" fill="#FF2600"/>
<path d="M32 652C28.6871 652 26 649.313 26 646C26 642.687 28.6871 640 32 640C35.3129 640 38 642.687 38 646C38 649.313 35.3129 652 32 652Z" fill="#FF2600"/>
<path d="M32 789C28.6871 789 26 786.313 26 783C26 779.687 28.6871 777 32 777C35.3129 777 38 779.687 38 783C38 786.313 35.3129 789 32 789Z" fill="#FF2600"/>
<path d="M32 670C28.6871 670 26 667.313 26 664C26 660.687 28.6871 658 32 658C35.3129 658 38 660.687 38 664C38 667.313 35.3129 670 32 670Z" fill="#FF2600"/>
<path d="M20 789C16.6871 789 14 786.313 14 783C14 779.687 16.6871 777 20 777C23.3129 777 26 779.687 26 783C26 786.313 23.3129 789 20 789Z" fill="#FF2600"/>
<path d="M32 801C28.6871 801 26 798.313 26 795C26 791.687 28.6871 789 32 789C35.3129 789 38 791.687 38 795C38 798.313 35.3129 801 32 801Z" fill="#FF2600"/>
<path d="M32 600C28.6871 600 26 597.313 26 594C26 590.687 28.6871 588 32 588C35.3129 588 38 590.687 38 594C38 597.313 35.3129 600 32 600Z" fill="#FF2600"/>
<path d="M32 511C28.6871 511 26 508.313 26 505C26 501.687 28.6871 499 32 499C35.3129 499 38 501.687 38 505C38 508.313 35.3129 511 32 511Z" fill="#FF2600"/>
<path d="M32 511C28.6871 511 26 508.313 26 505C26 501.687 28.6871 499 32 499C35.3129 499 38 501.687 38 505C38 508.313 35.3129 511 32 511Z" fill="#FF2600"/>
<path d="M32 570C28.6871 570 26 567.313 26 564C26 560.687 28.6871 558 32 558C35.3129 558 38 560.687 38 564C38 567.313 35.3129 570 32 570Z" fill="#FF2600"/>
<path d="M20 600C16.6871 600 14 597.313 14 594C14 590.687 16.6871 588 20 588C23.3129 588 26 590.687 26 594C26 597.313 23.3129 600 20 600Z" fill="#FF2600"/>
<path d="M8 588C4.68707 588 2 585.313 2 582C2 578.687 4.68707 576 8 576C11.3129 576 14 578.687 14 582C14 585.313 11.3129 588 8 588Z" fill="#FF2600"/>
<path d="M8 612C4.68707 612 2 609.313 2 606C2 602.687 4.68707 600 8 600C11.3129 600 14 602.687 14 606C14 609.313 11.3129 612 8 612Z" fill="#FF2600"/>
<path d="M20 588C16.6871 588 14 585.313 14 582C14 578.687 16.6871 576 20 576C23.3129 576 26 578.687 26 582C26 585.313 23.3129 588 20 588Z" fill="#FF2600"/>
<path d="M20 612C16.6871 612 14 609.313 14 606C14 602.687 16.6871 600 20 600C23.3129 600 26 602.687 26 606C26 609.313 23.3129 612 20 612Z" fill="#FF2600"/>
<path d="M32 612C28.6871 612 26 609.313 26 606C26 602.687 28.6871 600 32 600C35.3129 600 38 602.687 38 606C38 609.313 35.3129 612 32 612Z" fill="#FF2600"/>
<path d="M32 458C28.6871 458 26 455.313 26 452C26 448.687 28.6871 446 32 446C35.3129 446 38 448.687 38 452C38 455.313 35.3129 458 32 458Z" fill="#FF2600"/>
<path d="M32 470C28.6871 470 26 467.313 26 464C26 460.687 28.6871 458 32 458C35.3129 458 38 460.687 38 464C38 467.313 35.3129 470 32 470Z" fill="#FF2600"/>
<path d="M20 416C16.6871 416 14 413.313 14 410C14 406.687 16.6871 404 20 404C23.3129 404 26 406.687 26 410C26 413.313 23.3129 416 20 416Z" fill="#FF2600"/>
<path d="M302.789 484C272.713 484 201.105 484 174.197 484C168.398 484 163.736 488.701 163.736 494.5V494.5C163.736 500.299 159.035 505 153.236 505L32.5639 505" stroke="url(#paint0_linear_1295_862)" stroke-opacity="0.3" stroke-width="12"/>
<path d="M303.5 484C273.77 484 200.371 484 174.792 484C169.822 484 165.828 488.029 165.828 493L165.827 979C165.827 983.971 161.798 988 156.827 988L25.1738 988" stroke="url(#paint1_linear_1295_862)" stroke-opacity="0.3" stroke-width="12"/>
<path d="M302.789 442C272.136 442 198.345 442 172.699 442C167.729 442 163.736 446.029 163.736 451L163.736 454.068C163.736 459.012 159.748 463.03 154.804 463.068L31.5 464" stroke="url(#paint2_linear_1295_862)" stroke-opacity="0.3" stroke-width="12"/>
<path d="M303 425C272.68 425 199.59 425 174.08 425C169.109 425 165.113 429.029 165.113 434L165.113 496C165.113 500.971 161.084 505 156.113 505L19 505" stroke="url(#paint3_linear_1295_862)" stroke-opacity="0.3" stroke-width="12"/>
<path d="M315.5 472C283.762 472 199.962 472 172.703 472C167.828 472 163.894 475.882 163.762 480.755L161.221 574.245C161.088 579.118 157.099 583 152.224 583L27.2129 583" stroke="url(#paint4_linear_1295_862)" stroke-opacity="0.3" stroke-width="12"/>
<path d="M315.5 484L166.803 484C166.032 484 165.573 483.141 166 482.5V482.5C166.427 481.859 165.968 481 165.197 481L32.5626 481" stroke="url(#paint5_linear_1295_862)" stroke-opacity="0.3" stroke-width="12"/>
<path d="M302.997 454C308.935 454 205.389 454 173.771 454C168.777 454 164.773 458.066 164.806 463.059L165.687 596.941C165.72 601.934 161.681 606 156.687 606L6.50001 606" stroke="url(#paint6_linear_1295_862)" stroke-opacity="0.3" stroke-width="12"/>
<path d="M303 472C272.34 472 198.377 472 172.698 472C167.727 472 163.735 476.029 163.735 481L163.735 543C163.735 547.971 159.706 552 154.735 552L32.5628 552" stroke="url(#paint7_linear_1295_862)" stroke-opacity="0.3" stroke-width="12"/>
<path d="M303 472C272.34 472 198.377 472 172.698 472C167.727 472 163.735 476.029 163.735 481L163.735 543C163.735 547.971 159.706 552 154.735 552L32.5628 552" stroke="url(#paint8_linear_1295_862)" stroke-opacity="0.3" stroke-width="12"/>
<path d="M303.5 643C273.408 643 198.622 643 172.772 643C167.802 643 163.814 647.029 163.814 652L163.814 655C163.814 659.971 159.785 664 154.814 664L30 664" stroke="url(#paint9_linear_1295_862)" stroke-opacity="0.3" stroke-width="12"/>
<path d="M303.5 662C273.444 662 198.799 662 172.864 662C167.859 662 163.854 666.083 163.903 671.088L164.911 773.912C164.96 778.917 160.916 783 155.911 783L18.5 783" stroke="url(#paint10_linear_1295_862)" stroke-opacity="0.3" stroke-width="12"/>
<path d="M302.5 692C272.443 692 198.466 692 172.776 692C167.805 692 163.814 696.029 163.814 701L163.814 1017C163.814 1021.97 159.785 1026 154.814 1026L28.5503 1026" stroke="url(#paint11_linear_1295_862)" stroke-opacity="0.3" stroke-width="12"/>
<path d="M303 704.003C272.926 704.003 198.544 704.001 172.774 704C167.804 704 163.814 708.03 163.814 713L163.814 774.003C163.814 778.973 159.785 783.003 154.814 783.003L30.5 783.003" stroke="url(#paint12_linear_1295_862)" stroke-opacity="0.3" stroke-width="12"/>
<path d="M303.5 704C273.37 704 199.474 704 174.088 704C169.206 704 165.259 707.892 165.135 712.772L163.357 783L163.357 781.5" stroke="url(#paint13_linear_1295_862)" stroke-opacity="0.3" stroke-width="12"/>
<path d="M302.5 751C272.443 751 198.466 751 172.776 751C167.805 751 163.814 755.029 163.814 760L163.814 786C163.814 790.971 159.785 795 154.814 795L28.5503 795" stroke="url(#paint14_linear_1295_862)" stroke-opacity="0.3" stroke-width="12"/>
<path d="M304 751C273.991 751 199.697 751 173.944 751C168.973 751 164.983 755.029 164.983 760L164.983 786C164.983 790.971 160.954 795 155.983 795L33.5 795" stroke="url(#paint15_linear_1295_862)" stroke-opacity="0.3" stroke-width="12"/>
<path d="M302.789 75.998C271.274 75.998 198.417 75.998 172.969 75.998C167.998 75.998 164 80.0275 164 84.998L164 99.998C164 104.969 159.971 108.998 155 108.998L24.5374 108.998" stroke="url(#paint16_linear_1295_862)" stroke-opacity="0.3" stroke-width="12"/>
<path d="M302.789 88C272.136 88 198.345 88 172.699 88C167.729 88 163.736 92.0294 163.736 97L163.736 412C163.736 416.971 159.707 421 154.736 421L32.5639 421" stroke="url(#paint17_linear_1295_862)" stroke-opacity="0.3" stroke-width="12"/>
<path d="M301 508C273.398 508 209.432 508 179.493 508C170.734 508 163.726 515.245 164 524V524C164.274 532.755 157.251 540 148.492 540L32.5633 540" stroke="url(#paint18_linear_1295_862)" stroke-opacity="0.3" stroke-width="12"/>
<path d="M304 561C276.687 561 210.358 561 179.202 561C170.101 561 162.852 568.592 163.255 577.684V577.684C163.66 586.821 156.328 594.432 147.183 594.368L94.0325 594L30.5 594" stroke="url(#paint19_linear_1295_862)" stroke-opacity="0.3" stroke-width="12"/>
<path d="M326.5 582C299.414 582 221.78 582 184.13 582C172.532 582 163.152 591.402 163.152 603V603" stroke="url(#paint20_linear_1295_862)" stroke-opacity="0.3" stroke-width="12"/>
<path d="M302.789 413C272.136 413 198.345 413 172.699 413C167.729 413 163.736 417.029 163.736 422L163.736 424C163.736 428.971 159.707 433 154.736 433L32.5639 433" stroke="url(#paint21_linear_1295_862)" stroke-opacity="0.3" stroke-width="12"/>
<path d="M303 508C273.162 508 198.443 508 172.8 508C167.89 508 163.932 511.935 163.847 516.845L162.668 585.155C162.583 590.065 158.579 594 153.669 594L19.5 594" stroke="url(#paint22_linear_1295_862)" stroke-opacity="0.3" stroke-width="12"/>
<path d="M303.5 537C273.678 537 198.113 537 172.107 537C167.136 537 163.152 541.029 163.152 546L163.152 609C163.152 613.971 159.122 618 154.152 618L18.5 618" stroke="url(#paint23_linear_1295_862)" stroke-opacity="0.3" stroke-width="12"/>
<path d="M303 549C273.174 549 197.498 549 171.47 549C166.499 549 162.515 553.029 162.515 558L162.515 573C162.515 577.971 158.486 582 153.515 582L5.80835 582" stroke="url(#paint24_linear_1295_862)" stroke-opacity="0.3" stroke-width="12"/>
<path d="M316 561C281.412 561 177.49 561 163.908 561C163.08 561 162.438 561.672 162.438 562.5V562.5C162.438 563.328 161.767 564 160.938 564L32.5646 564" stroke="url(#paint25_linear_1295_862)" stroke-opacity="0.3" stroke-width="12"/>
<path d="M303.5 525C274.625 525 199.914 525 173.731 525C168.658 525 164.621 529.19 164.767 534.26L166.572 596.74C166.719 601.81 162.648 606 157.576 606L19 606" stroke="url(#paint26_linear_1295_862)" stroke-opacity="0.3" stroke-width="12"/>
<path d="M326.867 582L9 582" stroke="url(#paint27_linear_1295_862)" stroke-opacity="0.3" stroke-width="12"/>
<path d="M300.113 582L166.338 582" stroke="url(#paint28_linear_1295_862)" stroke-opacity="0.3" stroke-width="12"/>
<path d="M168 493L32.5639 493" stroke="url(#paint29_linear_1295_862)" stroke-opacity="0.3" stroke-width="12"/>
<path d="M305 496L167.5 496" stroke="url(#paint30_linear_1295_862)" stroke-opacity="0.3" stroke-width="12"/>
<path d="M304 273C272.981 273 198.847 273 173.317 273C168.401 273 164.438 276.944 164.361 281.858L162.499 400.142C162.422 405.056 158.415 409 153.5 409L29.8884 409" stroke="url(#paint31_linear_1295_862)" stroke-opacity="0.3" stroke-width="12"/>
<path d="M302.789 371C272.532 371 200.242 371 173.716 371C168.193 371 163.736 375.477 163.736 381V381C163.736 386.523 159.259 391 153.736 391L32.5639 391" stroke="url(#paint32_linear_1295_862)" stroke-opacity="0.3" stroke-width="12"/>
<path d="M302.789 30C272.136 30 198.345 30 172.699 30C167.729 30 163.736 34.0294 163.736 39L163.736 400C163.736 404.971 159.707 409 154.736 409L32.5639 409" stroke="url(#paint33_linear_1295_862)" stroke-opacity="0.3" stroke-width="12"/>
<path d="M302.789 311C271.855 311 198.517 311 172.966 311C167.995 311 164 315.029 164 320L164 342C164 346.971 159.971 351 155 351L29.8884 351" stroke="url(#paint34_linear_1295_862)" stroke-opacity="0.3" stroke-width="12"/>
<path d="M314.501 424.5C325.225 424.5 207.208 424.5 173.373 424.5C168.402 424.5 164.456 428.529 164.456 433.5L164.456 442.288C164.456 447.239 160.457 451.26 155.507 451.288L29.845 452" stroke="url(#paint35_linear_1295_862)" stroke-opacity="0.3" stroke-width="12"/>
<path d="M316 496C285.618 496 203.368 496 176.069 496C171.098 496 167.127 500.029 167.127 505L167.127 600.148C167.127 602.363 163.926 602.674 163.5 600.5V600.5" stroke="url(#paint36_linear_1295_862)" stroke-opacity="0.3" stroke-width="12"/>
<path d="M300.113 958C270.142 958 198.093 958 172.786 958C167.816 958 163.814 962.029 163.814 967L163.814 1029C163.814 1033.97 159.785 1038 154.814 1038L27.2126 1038" stroke="url(#paint37_linear_1295_862)" stroke-opacity="0.3" stroke-width="12"/>
<path d="M314.5 816C284.066 816 200.337 816 172.754 816C167.784 816 163.813 820.029 163.813 825L163.813 946C163.813 950.971 159.784 955 154.813 955L29.887 955" stroke="url(#paint38_linear_1295_862)" stroke-opacity="0.3" stroke-width="12"/>
<path d="M19 452H165" stroke="#FA99BC" stroke-opacity="0.3" stroke-width="12"/>
<line x1="710.5" y1="17.5" x2="165.5" y2="17.5" stroke="#ABABAB" stroke-linecap="round" stroke-dasharray="2 4"/>
<line x1="717.5" y1="403.5" x2="165.5" y2="403.5" stroke="#ABABAB" stroke-linecap="round" stroke-dasharray="2 4"/>
<line x1="717.5" y1="617.5" x2="165.5" y2="617.5" stroke="#ABABAB" stroke-linecap="round" stroke-dasharray="2 4"/>
<line x1="717.5" y1="924.5" x2="165.5" y2="924.5" stroke="#ABABAB" stroke-linecap="round" stroke-dasharray="2 4"/>
<path d="M445.34 428.04C444.66 424.88 442.06 423.26 438.84 423.26C434.44 423.26 431.44 426.12 431.44 430.7C431.44 435.34 434.06 438.26 438.34 438.26C440.42 438.26 441.84 437.66 442.78 436.4L442.88 438H445.5V429.92H438.58V432.72H442.08V433C442.08 434.84 440.44 435.44 438.86 435.44C436.58 435.44 435.06 433.76 435.06 430.7C435.06 427.64 436.7 426.08 438.8 426.08C440.66 426.08 441.68 427.04 441.98 428.04H445.34ZM454.244 438.26C458.684 438.26 461.764 435.28 461.764 430.76C461.764 426.24 458.684 423.26 454.244 423.26C449.784 423.26 446.724 426.24 446.724 430.76C446.724 435.28 449.784 438.26 454.244 438.26ZM454.244 435.44C452.124 435.44 450.344 433.84 450.344 430.76C450.344 427.68 452.124 426.08 454.244 426.08C456.364 426.08 458.144 427.68 458.144 430.76C458.144 433.84 456.364 435.44 454.244 435.44ZM466.562 434.98V423.5H463.142V438H473.522V434.98H466.562ZM479.222 423.5H474.442V438H479.222C483.962 438 487.702 436.28 487.702 430.74C487.702 425.22 483.962 423.5 479.222 423.5ZM479.282 426.38C481.802 426.38 484.082 426.92 484.082 430.74C484.082 434.58 481.802 435.12 479.282 435.12H477.862V426.38H479.282ZM489.062 423.5V438H500.182V434.98H492.482V432.06H499.762V429.04H492.482V426.5H500.182V423.5H489.062ZM511.063 438H515.223V423.5H511.923V433.5L506.103 423.5H501.943V438H505.243V428L511.063 438ZM525.419 423.5L519.959 438H523.599L524.459 435.42H530.059L530.939 438H534.659L529.179 423.5H525.419ZM525.399 432.64L527.279 427.12L529.139 432.64H525.399ZM547.964 428.04C547.284 424.88 544.684 423.26 541.464 423.26C537.064 423.26 534.064 426.12 534.064 430.7C534.064 435.34 536.684 438.26 540.964 438.26C543.044 438.26 544.464 437.66 545.404 436.4L545.504 438H548.124V429.92H541.204V432.72H544.704V433C544.704 434.84 543.064 435.44 541.484 435.44C539.204 435.44 537.684 433.76 537.684 430.7C537.684 427.64 539.324 426.08 541.424 426.08C543.284 426.08 544.304 427.04 544.604 428.04H547.964ZM550.228 423.5V438H561.348V434.98H553.648V432.06H560.928V429.04H553.648V426.5H561.348V423.5H550.228Z" fill="#261F26"/>
<path d="M435.66 643.2V639.66H434.22L435.96 636.5H434L431.96 639.46V643.2H435.66ZM440.48 643.2V639.66H439.04L440.78 636.5H438.82L436.78 639.46V643.2H440.48ZM442.389 636.5V651H445.809V645.06H452.629V642.04H445.809V639.5H453.069V636.5H442.389ZM460.934 651.26C465.374 651.26 468.454 648.28 468.454 643.76C468.454 639.24 465.374 636.26 460.934 636.26C456.474 636.26 453.414 639.24 453.414 643.76C453.414 648.28 456.474 651.26 460.934 651.26ZM460.934 648.44C458.814 648.44 457.034 646.84 457.034 643.76C457.034 640.68 458.814 639.08 460.934 639.08C463.054 639.08 464.834 640.68 464.834 643.76C464.834 646.84 463.054 648.44 460.934 648.44ZM473.252 647.98V636.5H469.832V651H480.212V647.98H473.252ZM484.552 647.98V636.5H481.132V651H491.512V647.98H484.552ZM498.369 651.26C502.809 651.26 505.889 648.28 505.889 643.76C505.889 639.24 502.809 636.26 498.369 636.26C493.909 636.26 490.849 639.24 490.849 643.76C490.849 648.28 493.909 651.26 498.369 651.26ZM498.369 648.44C496.249 648.44 494.469 646.84 494.469 643.76C494.469 640.68 496.249 639.08 498.369 639.08C500.489 639.08 502.269 640.68 502.269 643.76C502.269 646.84 500.489 648.44 498.369 648.44ZM518.87 646.56L516.73 636.5H513.19L511.23 646.52L509.25 636.5H505.79L509.11 651H512.77L514.95 640.78L517.15 651H520.83L524.11 636.5H520.69L518.87 646.56ZM524.102 647.08H531.162V644.3H524.102V647.08ZM540.1 651.26C544.54 651.26 547.62 648.28 547.62 643.76C547.62 639.24 544.54 636.26 540.1 636.26C535.64 636.26 532.58 639.24 532.58 643.76C532.58 648.28 535.64 651.26 540.1 651.26ZM540.1 648.44C537.98 648.44 536.2 646.84 536.2 643.76C536.2 640.68 537.98 639.08 540.1 639.08C542.22 639.08 544 640.68 544 643.76C544 646.84 542.22 648.44 540.1 648.44ZM558.118 651H562.278V636.5H558.978V646.5L553.158 636.5H548.998V651H552.298V641L558.118 651ZM564.156 636.5V640.06H565.596L563.856 643.22H565.816L567.856 640.26V636.5H564.156ZM568.976 636.5V640.06H570.416L568.676 643.22H570.636L572.676 640.26V636.5H568.976ZM583.302 636.5H578.522V651H583.302C588.042 651 591.782 649.28 591.782 643.74C591.782 638.22 588.042 636.5 583.302 636.5ZM583.362 639.38C585.882 639.38 588.162 639.92 588.162 643.74C588.162 647.58 585.882 648.12 583.362 648.12H581.942V639.38H583.362ZM598.882 645.54L602.022 651H606.042L602.462 644.98C604.122 644.34 605.302 643.12 605.302 640.98C605.302 637.38 602.482 636.5 598.722 636.5H593.142V651H596.562V645.54H598.882ZM596.562 639.38H598.822C600.442 639.38 601.682 639.68 601.682 641.02C601.682 642.38 600.442 642.66 598.822 642.66H596.562V639.38ZM610.239 636.5H606.819V644.8C606.819 649.58 608.779 651.26 613.119 651.26C617.639 651.26 619.359 649.14 619.359 644.68V636.5H615.939V644.96C615.939 647.1 615.519 648.46 613.119 648.46C610.739 648.46 610.239 647.28 610.239 645.16V636.5ZM634.288 641.04C633.608 637.88 631.008 636.26 627.788 636.26C623.388 636.26 620.388 639.12 620.388 643.7C620.388 648.34 623.008 651.26 627.288 651.26C629.368 651.26 630.788 650.66 631.728 649.4L631.828 651H634.448V642.92H627.528V645.72H631.028V646C631.028 647.84 629.388 648.44 627.808 648.44C625.528 648.44 624.008 646.76 624.008 643.7C624.008 640.64 625.648 639.08 627.748 639.08C629.608 639.08 630.628 640.04 630.928 641.04H634.288ZM646.049 636.5H640.469V651H643.889V645.98H646.049C649.809 645.98 652.629 645.04 652.629 641.22C652.629 637.42 649.809 636.5 646.049 636.5ZM643.889 639.38H646.149C647.749 639.38 649.009 639.7 649.009 641.22C649.009 642.76 647.749 643.1 646.149 643.1H643.889V639.38ZM653.625 636.5V651H664.745V647.98H657.045V645.06H664.325V642.04H657.045V639.5H664.745V636.5H653.625ZM672.246 645.54L675.386 651H679.406L675.826 644.98C677.486 644.34 678.666 643.12 678.666 640.98C678.666 637.38 675.846 636.5 672.086 636.5H666.506V651H669.926V645.54H672.246ZM669.926 639.38H672.186C673.806 639.38 675.046 639.68 675.046 641.02C675.046 642.38 673.806 642.66 672.186 642.66H669.926V639.38ZM683.96 651V636.5H680.54V651H683.96ZM692.835 651.26C697.275 651.26 700.355 648.28 700.355 643.76C700.355 639.24 697.275 636.26 692.835 636.26C688.375 636.26 685.315 639.24 685.315 643.76C685.315 648.28 688.375 651.26 692.835 651.26ZM692.835 648.44C690.715 648.44 688.935 646.84 688.935 643.76C688.935 640.68 690.715 639.08 692.835 639.08C694.955 639.08 696.735 640.68 696.735 643.76C696.735 646.84 694.955 648.44 692.835 648.44ZM706.513 636.5H701.733V651H706.513C711.253 651 714.993 649.28 714.993 643.74C714.993 638.22 711.253 636.5 706.513 636.5ZM706.573 639.38C709.093 639.38 711.373 639.92 711.373 643.74C711.373 647.58 709.093 648.12 706.573 648.12H705.153V639.38H706.573Z" fill="#261F26"/>
<path d="M437.1 943.5H432.32L432.32 958H437.1C441.84 958 445.58 956.28 445.58 950.74C445.58 945.22 441.84 943.5 437.1 943.5ZM437.16 946.38C439.68 946.38 441.96 946.92 441.96 950.74C441.96 954.58 439.68 955.12 437.16 955.12H435.74L435.74 946.38H437.16ZM450.36 958L450.36 943.5H446.94L446.94 958H450.36ZM457.675 946C459.135 946 460.195 946.62 460.535 947.7H463.915C463.415 944.5 460.715 943.26 457.875 943.26C455.035 943.26 451.855 944.64 451.855 947.6C451.855 950.2 453.995 951.32 456.355 951.82L458.115 952.18C459.695 952.52 460.815 952.98 460.815 953.92C460.815 955.12 459.495 955.5 458.335 955.5C456.555 955.5 455.355 954.8 454.975 953.28H451.575C452.095 956.4 454.535 958.26 458.255 958.26C461.275 958.26 464.335 956.54 464.335 953.5C464.335 950.46 461.375 949.74 459.035 949.26L457.055 948.86C456.055 948.64 455.375 948.12 455.375 947.4C455.375 946.5 456.355 946 457.675 946ZM479.03 952.6H475.67C475.27 954.8 473.63 955.44 472.15 955.44C470.07 955.44 468.49 953.8 468.49 950.74C468.49 947.78 470.07 946.08 472.11 946.08C473.73 946.08 475.19 946.94 475.57 948.92H478.93C478.43 945.62 475.87 943.26 472.23 943.26C467.71 943.26 464.87 946.16 464.87 950.74C464.87 955.38 467.61 958.26 472.13 958.26C475.79 958.26 478.51 955.96 479.03 952.6ZM487.245 958.26C491.685 958.26 494.765 955.28 494.765 950.76C494.765 946.24 491.685 943.26 487.245 943.26C482.785 943.26 479.725 946.24 479.725 950.76C479.725 955.28 482.785 958.26 487.245 958.26ZM487.245 955.44C485.125 955.44 483.345 953.84 483.345 950.76C483.345 947.68 485.125 946.08 487.245 946.08C489.365 946.08 491.145 947.68 491.145 950.76C491.145 953.84 489.365 955.44 487.245 955.44ZM497.972 943.5H494.332L499.212 958H503.212L508.132 943.5H504.652L501.312 954.16L497.972 943.5ZM508.946 943.5L508.946 958H520.066V954.98H512.366V952.06H519.646V949.04H512.366V946.5H520.066V943.5H508.946ZM527.568 952.54L530.708 958H534.728L531.148 951.98C532.808 951.34 533.988 950.12 533.988 947.98C533.988 944.38 531.168 943.5 527.408 943.5H521.828V958H525.248V952.54H527.568ZM525.248 946.38H527.508C529.128 946.38 530.368 946.68 530.368 948.02C530.368 949.38 529.128 949.66 527.508 949.66H525.248V946.38ZM537.617 943.5H533.617L539.077 952.36V958H542.497V952.4L548.097 943.5H544.137L540.857 949.06L537.617 943.5ZM554.861 943.5H551.221L556.101 958H560.101L565.021 943.5H561.541L558.201 954.16L554.861 943.5ZM572.085 958.26C576.525 958.26 579.605 955.28 579.605 950.76C579.605 946.24 576.525 943.26 572.085 943.26C567.625 943.26 564.565 946.24 564.565 950.76C564.565 955.28 567.625 958.26 572.085 958.26ZM572.085 955.44C569.965 955.44 568.185 953.84 568.185 950.76C568.185 947.68 569.965 946.08 572.085 946.08C574.205 946.08 575.985 947.68 575.985 950.76C575.985 953.84 574.205 955.44 572.085 955.44ZM584.403 958V943.5H580.983V958H584.403ZM591.418 943.5H586.638V958H591.418C596.158 958 599.898 956.28 599.898 950.74C599.898 945.22 596.158 943.5 591.418 943.5ZM591.478 946.38C593.998 946.38 596.278 946.92 596.278 950.74C596.278 954.58 593.998 955.12 591.478 955.12H590.058V946.38H591.478Z" fill="#261F26"/>
<path d="M431 983H432.82L438.54 968.5H436.7L431 983ZM444.419 968.5H439.879L439.879 983H441.919L441.919 977.26H444.419C447.959 977.26 450.439 976.48 450.439 972.88C450.439 969.3 447.959 968.5 444.419 968.5ZM441.919 970.22H444.579C446.699 970.22 448.359 970.52 448.359 972.88C448.359 975.26 446.699 975.48 444.579 975.48H441.919V970.22ZM458.314 983.26C462.494 983.26 465.114 980.12 465.114 975.74C465.114 971.36 462.494 968.24 458.314 968.24C454.134 968.24 451.514 971.36 451.514 975.74C451.514 980.12 454.134 983.26 458.314 983.26ZM458.314 981.54C455.674 981.54 453.594 979.48 453.594 975.74C453.594 972 455.674 969.96 458.314 969.96C460.954 969.96 463.034 972 463.034 975.74C463.034 979.48 460.954 981.54 458.314 981.54ZM472.021 968.24C469.681 968.24 466.781 969.44 466.781 972.2C466.781 974.62 468.781 975.72 470.761 976.16L472.561 976.54C474.381 976.94 475.681 977.58 475.681 979.1C475.681 980.52 474.441 981.54 472.301 981.54C470.081 981.54 468.681 980.5 468.301 978.5H466.301C466.681 981.4 468.841 983.26 472.261 983.26C475.141 983.26 477.781 981.76 477.781 978.92C477.781 976 475.121 975.16 472.901 974.68L471.221 974.3C469.881 974 468.861 973.36 468.861 972.08C468.861 970.46 470.821 969.96 471.941 969.96C473.401 969.96 475.041 970.52 475.541 972.2H477.521C476.961 969.4 474.621 968.24 472.021 968.24ZM482.618 970.26L482.618 983H484.658L484.658 970.26H489.378V968.5H477.898V970.26H482.618ZM498.748 968.5L493.368 983H495.448L496.568 979.86H503.228L504.368 983H506.568L501.108 968.5H498.748ZM497.188 978.12L499.868 970.56L502.588 978.12H497.188ZM516.592 983H519.572V968.5H517.532V980.84L510.912 968.5H507.912L507.912 983H509.952L509.952 970.62L516.592 983ZM525.629 970.26V983H527.669V970.26L532.389 970.26V968.5L520.909 968.5V970.26H525.629ZM535.774 983V968.5H533.734V983H535.774ZM538.842 968.5V983H544.562C547.462 983 549.762 981.8 549.762 978.72C549.762 976.94 548.942 975.86 547.562 975.28C548.562 974.7 549.162 973.46 549.162 972.08C549.162 969.2 546.762 968.5 544.062 968.5H538.842ZM540.882 974.7V970.22H544.382C546.002 970.22 547.102 970.88 547.102 972.36C547.102 974.06 546.042 974.7 544.382 974.7H540.882ZM540.882 981.28V976.32H544.462C546.642 976.32 547.662 977.04 547.662 978.74C547.662 980.38 546.642 981.28 544.582 981.28H540.882ZM553.939 983V968.5H551.899V983H553.939ZM563.108 983.26C567.288 983.26 569.908 980.12 569.908 975.74C569.908 971.36 567.288 968.24 563.108 968.24C558.928 968.24 556.308 971.36 556.308 975.74C556.308 980.12 558.928 983.26 563.108 983.26ZM563.108 981.54C560.468 981.54 558.388 979.48 558.388 975.74C558.388 972 560.468 969.96 563.108 969.96C565.748 969.96 567.828 972 567.828 975.74C567.828 979.48 565.748 981.54 563.108 981.54ZM574.51 970.26V983H576.55V970.26H581.27V968.5H569.79V970.26H574.51ZM584.655 983V968.5H582.615V983H584.655ZM599.883 978.38H597.903C597.443 980.24 596.023 981.54 593.723 981.54C591.023 981.54 589.103 979.38 589.103 975.72C589.103 971.96 591.103 969.96 593.663 969.96C595.983 969.96 597.383 971.32 597.823 973.12H599.803C599.183 970.02 596.763 968.24 593.763 968.24C589.663 968.24 587.023 971.22 587.023 975.72C587.023 980.14 589.443 983.26 593.603 983.26C596.743 983.26 599.243 981.58 599.883 978.38ZM606.221 968.5V983H616.061V981.24H608.261V976.42H615.601V974.66H608.261V970.26H616.061V968.5H606.221ZM623.807 976.88L626.947 983H629.227L625.867 976.56C627.647 976.08 628.747 974.98 628.747 972.68C628.747 969.2 626.247 968.5 622.707 968.5H618.107V983H620.147V976.9H622.707C623.087 976.9 623.447 976.9 623.807 976.88ZM620.147 970.22H622.867C624.987 970.22 626.647 970.48 626.647 972.72C626.647 974.96 624.987 975.18 622.867 975.18H620.147V970.22ZM635.156 968.5L629.776 983H631.856L632.976 979.86H639.636L640.776 983H642.976L637.516 968.5H635.156ZM633.596 978.12L636.276 970.56L638.996 978.12H633.596Z" fill="#261F26"/>
<path d="M437.9 38.5H432.32V53H435.74V47.98H437.9C441.66 47.98 444.48 47.04 444.48 43.22C444.48 39.42 441.66 38.5 437.9 38.5ZM435.74 41.38H438C439.6 41.38 440.86 41.7 440.86 43.22C440.86 44.76 439.6 45.1 438 45.1H435.74V41.38ZM451.215 47.54L454.355 53H458.375L454.795 46.98C456.455 46.34 457.635 45.12 457.635 42.98C457.635 39.38 454.815 38.5 451.055 38.5H445.475V53H448.895V47.54H451.215ZM448.895 41.38H451.155C452.775 41.38 454.015 41.68 454.015 43.02C454.015 44.38 452.775 44.66 451.155 44.66H448.895V41.38ZM459.509 38.5V53L470.629 53V49.98L462.929 49.98V47.06L470.209 47.06V44.04H462.929V41.5H470.629V38.5H459.509ZM472.419 49.08H479.479V46.3H472.419V49.08ZM484.606 38.5L479.146 53H482.786L483.646 50.42L489.246 50.42L490.126 53H493.846L488.366 38.5H484.606ZM484.586 47.64L486.466 42.12L488.326 47.64L484.586 47.64ZM503.798 53H507.958V38.5H504.658V48.5L498.838 38.5H494.678V53H497.978V43L503.798 53ZM513.616 41.5V53H517.056V41.5H521.716V38.5H508.976V41.5H513.616ZM526.185 53V38.5H522.765V53H526.185ZM528.421 38.5V53H535.001C538.521 53 540.861 51.78 540.861 48.54C540.861 46.78 539.901 45.76 538.561 45.28C539.661 44.6 540.281 43.58 540.281 42.26C540.281 39.24 537.921 38.5 534.741 38.5H528.421ZM531.841 44.3V41.38H534.861C536.041 41.38 536.721 41.92 536.721 42.82C536.721 43.72 536.041 44.3 534.861 44.3H531.841ZM531.841 50.12V46.84H535.041C536.501 46.84 537.241 47.46 537.241 48.48C537.241 49.5 536.501 50.12 535.041 50.12H531.841ZM545.738 53V38.5L542.318 38.5V53H545.738ZM554.613 53.26C559.053 53.26 562.133 50.28 562.133 45.76C562.133 41.24 559.053 38.26 554.613 38.26C550.153 38.26 547.093 41.24 547.093 45.76C547.093 50.28 550.153 53.26 554.613 53.26ZM554.613 50.44C552.493 50.44 550.713 48.84 550.713 45.76C550.713 42.68 552.493 41.08 554.613 41.08C556.733 41.08 558.513 42.68 558.513 45.76C558.513 48.84 556.733 50.44 554.613 50.44ZM566.443 41.5V53H569.883V41.5H574.543V38.5H561.803V41.5H566.443ZM579.012 53V38.5H575.592V53H579.012ZM594.527 47.6H591.167C590.767 49.8 589.127 50.44 587.647 50.44C585.567 50.44 583.987 48.8 583.987 45.74C583.987 42.78 585.567 41.08 587.607 41.08C589.227 41.08 590.687 41.94 591.067 43.92H594.427C593.927 40.62 591.367 38.26 587.727 38.26C583.207 38.26 580.367 41.16 580.367 45.74C580.367 50.38 583.107 53.26 587.627 53.26C591.287 53.26 594.007 50.96 594.527 47.6ZM599.784 38.5V53H610.904V49.98H603.204V47.06H610.484V44.04H603.204V41.5H610.904V38.5H599.784ZM618.406 47.54L621.546 53H625.566L621.986 46.98C623.646 46.34 624.826 45.12 624.826 42.98C624.826 39.38 622.006 38.5 618.246 38.5H612.666V53H616.086V47.54H618.406ZM616.086 41.38H618.346C619.966 41.38 621.206 41.68 621.206 43.02C621.206 44.38 619.966 44.66 618.346 44.66H616.086V41.38ZM630.642 38.5L625.182 53H628.822L629.682 50.42H635.282L636.162 53H639.882L634.402 38.5L630.642 38.5ZM630.622 47.64L632.502 42.12L634.362 47.64H630.622Z" fill="#261F26"/>
<path d="M106.666 295.328H108.766V280.828H107.266C106.506 282.408 105.466 282.628 103.366 282.708V284.128H106.666V295.328ZM119.272 288.628C119.192 291.808 117.992 293.908 115.892 293.908C114.492 293.908 113.512 293.188 113.312 291.828H111.132C111.372 293.728 112.772 295.588 115.692 295.588C119.892 295.588 121.412 291.748 121.412 287.608C121.412 283.248 119.732 280.568 116.052 280.568C112.952 280.568 110.872 282.748 110.872 285.528C110.872 288.508 112.932 290.488 115.612 290.488C117.392 290.488 118.612 289.668 119.272 288.628ZM116.072 282.228C117.852 282.228 119.052 283.508 119.052 285.468C119.052 287.428 117.812 288.748 116.052 288.748C114.292 288.748 113.052 287.428 113.052 285.468C113.052 283.508 114.292 282.228 116.072 282.228ZM130.799 291.268C130.799 292.948 129.479 293.908 127.679 293.908C125.699 293.908 124.699 292.628 124.479 290.948H122.399C122.579 293.428 124.259 295.588 127.639 295.588C130.479 295.588 132.979 294.168 132.979 291.228C132.979 289.728 132.299 288.288 130.339 287.628C131.759 287.008 132.599 285.768 132.599 284.308C132.599 281.608 130.299 280.568 127.839 280.568C124.699 280.568 122.819 282.368 122.599 285.028H124.679C124.879 283.348 125.899 282.228 127.739 282.228C129.199 282.228 130.419 282.968 130.419 284.488C130.419 286.088 129.199 286.808 126.799 286.808H126.379V288.628H126.879C129.119 288.628 130.799 289.288 130.799 291.268ZM134.314 288.068C134.314 292.608 136.154 295.588 140.014 295.588C143.894 295.588 145.714 292.608 145.714 288.068C145.714 283.548 143.894 280.568 140.014 280.568C136.154 280.568 134.314 283.548 134.314 288.068ZM143.514 288.068C143.514 291.928 142.214 293.908 140.014 293.908C137.834 293.908 136.514 291.928 136.514 288.068C136.514 284.228 137.834 282.228 140.014 282.228C142.214 282.228 143.514 284.228 143.514 288.068Z" fill="#261F26"/>
<path d="M111.295 114.113H113.395V99.6133H111.895C111.135 101.193 110.095 101.413 107.995 101.493V102.913H111.295V114.113ZM123.901 107.413C123.821 110.593 122.621 112.693 120.521 112.693C119.121 112.693 118.141 111.973 117.941 110.613H115.761C116.001 112.513 117.401 114.373 120.321 114.373C124.521 114.373 126.041 110.533 126.041 106.393C126.041 102.033 124.361 99.3533 120.681 99.3533C117.581 99.3533 115.501 101.533 115.501 104.313C115.501 107.293 117.561 109.273 120.241 109.273C122.021 109.273 123.241 108.453 123.901 107.413ZM120.701 101.013C122.481 101.013 123.681 102.293 123.681 104.253C123.681 106.213 122.441 107.533 120.681 107.533C118.921 107.533 117.681 106.213 117.681 104.253C117.681 102.293 118.921 101.013 120.701 101.013ZM129.988 114.113H132.088V99.6133H130.588C129.828 101.193 128.788 101.413 126.688 101.493V102.913H129.988V114.113ZM134.314 106.853C134.314 111.393 136.154 114.373 140.014 114.373C143.894 114.373 145.714 111.393 145.714 106.853C145.714 102.333 143.894 99.3533 140.014 99.3533C136.154 99.3533 134.314 102.333 134.314 106.853ZM143.514 106.853C143.514 110.713 142.214 112.693 140.014 112.693C137.834 112.693 136.514 110.713 136.514 106.853C136.514 103.013 137.834 101.013 140.014 101.013C142.214 101.013 143.514 103.013 143.514 106.853Z" fill="#261F26"/>
<path d="M106.881 204.695H108.981V190.195H107.481C106.721 191.775 105.681 191.995 103.581 192.075V193.495H106.881V204.695ZM119.487 197.995C119.407 201.175 118.207 203.275 116.107 203.275C114.707 203.275 113.727 202.555 113.527 201.195H111.347C111.587 203.095 112.987 204.955 115.907 204.955C120.107 204.955 121.627 201.115 121.627 196.975C121.627 192.615 119.947 189.935 116.267 189.935C113.167 189.935 111.087 192.115 111.087 194.895C111.087 197.875 113.147 199.855 115.827 199.855C117.607 199.855 118.827 199.035 119.487 197.995ZM116.287 191.595C118.067 191.595 119.267 192.875 119.267 194.835C119.267 196.795 118.027 198.115 116.267 198.115C114.507 198.115 113.267 196.795 113.267 194.835C113.267 192.875 114.507 191.595 116.287 191.595ZM132.814 193.755C132.814 191.295 130.834 189.935 128.154 189.935C125.034 189.935 123.014 191.875 123.054 194.775H125.174C125.194 192.435 126.614 191.595 128.094 191.595C129.654 191.595 130.634 192.515 130.634 193.975C130.634 196.475 127.674 199.115 122.694 202.895V204.695H133.194V202.815H125.394C129.614 199.835 132.814 196.935 132.814 193.755ZM134.314 197.435C134.314 201.975 136.154 204.955 140.014 204.955C143.894 204.955 145.714 201.975 145.714 197.435C145.714 192.915 143.894 189.935 140.014 189.935C136.154 189.935 134.314 192.915 134.314 197.435ZM143.514 197.435C143.514 201.295 142.214 203.275 140.014 203.275C137.834 203.275 136.514 201.295 136.514 197.435C136.514 193.595 137.834 191.595 140.014 191.595C142.214 191.595 143.514 193.595 143.514 197.435Z" fill="#261F26"/>
<path d="M106.1 385.479H108.2V370.979H106.7C105.94 372.559 104.9 372.779 102.8 372.859V374.279H106.1V385.479ZM118.706 378.779C118.626 381.959 117.426 384.059 115.326 384.059C113.926 384.059 112.946 383.339 112.746 381.979H110.566C110.806 383.879 112.206 385.739 115.126 385.739C119.326 385.739 120.846 381.899 120.846 377.759C120.846 373.399 119.166 370.719 115.486 370.719C112.386 370.719 110.306 372.899 110.306 375.679C110.306 378.659 112.366 380.639 115.046 380.639C116.826 380.639 118.046 379.819 118.706 378.779ZM115.506 372.379C117.286 372.379 118.486 373.659 118.486 375.619C118.486 377.579 117.246 378.899 115.486 378.899C113.726 378.899 112.486 377.579 112.486 375.619C112.486 373.659 113.726 372.379 115.506 372.379ZM133.513 381.979V380.099H130.913V370.979H128.813L121.633 380.139V381.979H128.813V385.479H130.913V381.979H133.513ZM123.933 380.099L128.813 373.759V380.099H123.933ZM134.314 378.219C134.314 382.759 136.154 385.739 140.014 385.739C143.894 385.739 145.714 382.759 145.714 378.219C145.714 373.699 143.894 370.719 140.014 370.719C136.154 370.719 134.314 373.699 134.314 378.219ZM143.514 378.219C143.514 382.079 142.214 384.059 140.014 384.059C137.834 384.059 136.514 382.079 136.514 378.219C136.514 374.379 137.834 372.379 140.014 372.379C142.214 372.379 143.514 374.379 143.514 378.219Z" fill="#261F26"/>
<path d="M106.412 476.648H108.512V462.148H107.012C106.252 463.728 105.212 463.948 103.112 464.028V465.448H106.412V476.648ZM119.019 469.948C118.939 473.128 117.739 475.228 115.639 475.228C114.239 475.228 113.259 474.508 113.059 473.148H110.879C111.119 475.048 112.519 476.908 115.439 476.908C119.639 476.908 121.159 473.068 121.159 468.928C121.159 464.568 119.479 461.888 115.799 461.888C112.699 461.888 110.619 464.068 110.619 466.848C110.619 469.828 112.679 471.808 115.359 471.808C117.139 471.808 118.359 470.988 119.019 469.948ZM115.819 463.548C117.599 463.548 118.799 464.828 118.799 466.788C118.799 468.748 117.559 470.068 115.799 470.068C114.039 470.068 112.799 468.748 112.799 466.788C112.799 464.828 114.039 463.548 115.819 463.548ZM130.746 471.928C130.746 474.028 129.366 475.228 127.686 475.228C125.726 475.228 124.766 474.088 124.526 472.328H122.446C122.686 474.748 124.306 476.908 127.666 476.908C130.446 476.908 132.926 475.188 132.926 471.908C132.926 468.668 130.666 466.928 128.146 466.928C126.906 466.928 125.826 467.268 125.086 467.928L125.566 464.048H132.346V462.148H123.866L122.906 470.068L124.926 470.188C125.246 469.408 126.226 468.628 127.646 468.628C129.166 468.628 130.746 469.648 130.746 471.928ZM134.314 469.388C134.314 473.928 136.154 476.908 140.014 476.908C143.894 476.908 145.714 473.928 145.714 469.388C145.714 464.868 143.894 461.888 140.014 461.888C136.154 461.888 134.314 464.868 134.314 469.388ZM143.514 469.388C143.514 473.248 142.214 475.228 140.014 475.228C137.834 475.228 136.514 473.248 136.514 469.388C136.514 465.548 137.834 463.548 140.014 463.548C142.214 463.548 143.514 465.548 143.514 469.388Z" fill="#261F26"/>
<path d="M108.424 657.863H110.524V643.363H109.024C108.264 644.943 107.224 645.163 105.124 645.243V646.663H108.424V657.863ZM121.03 651.163C120.95 654.343 119.75 656.443 117.65 656.443C116.25 656.443 115.27 655.723 115.07 654.363H112.89C113.13 656.263 114.53 658.123 117.45 658.123C121.65 658.123 123.17 654.283 123.17 650.143C123.17 645.783 121.49 643.103 117.81 643.103C114.71 643.103 112.63 645.283 112.63 648.063C112.63 651.043 114.69 653.023 117.37 653.023C119.15 653.023 120.37 652.203 121.03 651.163ZM117.83 644.763C119.61 644.763 120.81 646.043 120.81 648.003C120.81 649.963 119.57 651.283 117.81 651.283C116.05 651.283 114.81 649.963 114.81 648.003C114.81 646.043 116.05 644.763 117.83 644.763ZM123.777 643.363V645.263H131.697C128.197 648.363 125.777 652.703 125.497 657.863H127.937C128.257 652.483 130.377 648.443 133.997 645.263V643.363H123.777ZM134.314 650.603C134.314 655.143 136.154 658.123 140.014 658.123C143.894 658.123 145.714 655.143 145.714 650.603C145.714 646.083 143.894 643.103 140.014 643.103C136.154 643.103 134.314 646.083 134.314 650.603ZM143.514 650.603C143.514 654.463 142.214 656.443 140.014 656.443C137.834 656.443 136.514 654.463 136.514 650.603C136.514 646.763 137.834 644.763 140.014 644.763C142.214 644.763 143.514 646.763 143.514 650.603Z" fill="#261F26"/>
<path d="M105.944 749.014H108.044V734.514H106.544C105.784 736.094 104.744 736.314 102.644 736.394V737.814H105.944V749.014ZM118.55 742.314C118.47 745.494 117.27 747.594 115.17 747.594C113.77 747.594 112.79 746.874 112.59 745.514H110.41C110.65 747.414 112.05 749.274 114.97 749.274C119.17 749.274 120.69 745.434 120.69 741.294C120.69 736.934 119.01 734.254 115.33 734.254C112.23 734.254 110.15 736.434 110.15 739.214C110.15 742.194 112.21 744.174 114.89 744.174C116.67 744.174 117.89 743.354 118.55 742.314ZM115.35 735.914C117.13 735.914 118.33 737.194 118.33 739.154C118.33 741.114 117.09 742.434 115.33 742.434C113.57 742.434 112.33 741.114 112.33 739.154C112.33 737.194 113.57 735.914 115.35 735.914ZM132.397 737.954C132.397 735.814 130.497 734.254 127.497 734.254C124.497 734.254 122.617 735.814 122.617 737.954C122.617 739.174 123.177 740.534 124.537 741.294C122.737 742.094 122.157 743.574 122.157 744.914C122.157 747.714 124.477 749.274 127.497 749.274C130.517 749.274 132.837 747.714 132.837 744.914C132.837 743.574 132.277 742.094 130.477 741.294C131.857 740.514 132.397 739.174 132.397 737.954ZM127.497 735.914C129.197 735.914 130.317 736.814 130.317 738.214C130.317 739.634 129.197 740.654 127.497 740.654C125.817 740.654 124.677 739.634 124.677 738.214C124.677 736.814 125.817 735.914 127.497 735.914ZM124.357 744.874C124.357 743.214 125.577 742.114 127.497 742.114C129.417 742.114 130.657 743.214 130.657 744.874C130.657 746.554 129.417 747.594 127.497 747.594C125.577 747.594 124.357 746.554 124.357 744.874ZM134.314 741.754C134.314 746.294 136.154 749.274 140.014 749.274C143.894 749.274 145.714 746.294 145.714 741.754C145.714 737.234 143.894 734.254 140.014 734.254C136.154 734.254 134.314 737.234 134.314 741.754ZM143.514 741.754C143.514 745.614 142.214 747.594 140.014 747.594C137.834 747.594 136.514 745.614 136.514 741.754C136.514 737.914 137.834 735.914 140.014 735.914C142.214 735.914 143.514 737.914 143.514 741.754Z" fill="#261F26"/>
<path d="M106.334 838.18H108.434V823.68H106.934C106.174 825.26 105.134 825.48 103.034 825.56V826.98H106.334V838.18ZM118.94 831.48C118.86 834.66 117.66 836.76 115.56 836.76C114.16 836.76 113.18 836.04 112.98 834.68H110.8C111.04 836.58 112.44 838.44 115.36 838.44C119.56 838.44 121.08 834.6 121.08 830.46C121.08 826.1 119.4 823.42 115.72 823.42C112.62 823.42 110.54 825.6 110.54 828.38C110.54 831.36 112.6 833.34 115.28 833.34C117.06 833.34 118.28 832.52 118.94 831.48ZM115.74 825.08C117.52 825.08 118.72 826.36 118.72 828.32C118.72 830.28 117.48 831.6 115.72 831.6C113.96 831.6 112.72 830.28 112.72 828.32C112.72 826.36 113.96 825.08 115.74 825.08ZM130.767 831.48C130.687 834.66 129.487 836.76 127.387 836.76C125.987 836.76 125.007 836.04 124.807 834.68H122.627C122.867 836.58 124.267 838.44 127.187 838.44C131.387 838.44 132.907 834.6 132.907 830.46C132.907 826.1 131.227 823.42 127.547 823.42C124.447 823.42 122.367 825.6 122.367 828.38C122.367 831.36 124.427 833.34 127.107 833.34C128.887 833.34 130.107 832.52 130.767 831.48ZM127.567 825.08C129.347 825.08 130.547 826.36 130.547 828.32C130.547 830.28 129.307 831.6 127.547 831.6C125.787 831.6 124.547 830.28 124.547 828.32C124.547 826.36 125.787 825.08 127.567 825.08ZM134.314 830.92C134.314 835.46 136.154 838.44 140.014 838.44C143.894 838.44 145.714 835.46 145.714 830.92C145.714 826.4 143.894 823.42 140.014 823.42C136.154 823.42 134.314 826.4 134.314 830.92ZM143.514 830.92C143.514 834.78 142.214 836.76 140.014 836.76C137.834 836.76 136.514 834.78 136.514 830.92C136.514 827.08 137.834 825.08 140.014 825.08C142.214 825.08 143.514 827.08 143.514 830.92Z" fill="#261F26"/>
<path d="M107.207 919.822C107.207 917.362 105.227 916.002 102.547 916.002C99.4271 916.002 97.4071 917.942 97.4471 920.842H99.5671C99.5871 918.502 101.007 917.662 102.487 917.662C104.047 917.662 105.027 918.582 105.027 920.042C105.027 922.542 102.067 925.182 97.0871 928.962V930.762H107.587V928.882H99.7871C104.007 925.902 107.207 923.002 107.207 919.822ZM108.707 923.502C108.707 928.042 110.547 931.022 114.407 931.022C118.287 931.022 120.107 928.042 120.107 923.502C120.107 918.982 118.287 916.002 114.407 916.002C110.547 916.002 108.707 918.982 108.707 923.502ZM117.907 923.502C117.907 927.362 116.607 929.342 114.407 929.342C112.227 929.342 110.907 927.362 110.907 923.502C110.907 919.662 112.227 917.662 114.407 917.662C116.607 917.662 117.907 919.662 117.907 923.502ZM121.511 923.502C121.511 928.042 123.351 931.022 127.211 931.022C131.091 931.022 132.911 928.042 132.911 923.502C132.911 918.982 131.091 916.002 127.211 916.002C123.351 916.002 121.511 918.982 121.511 923.502ZM130.711 923.502C130.711 927.362 129.411 929.342 127.211 929.342C125.031 929.342 123.711 927.362 123.711 923.502C123.711 919.662 125.031 917.662 127.211 917.662C129.411 917.662 130.711 919.662 130.711 923.502ZM134.314 923.502C134.314 928.042 136.154 931.022 140.014 931.022C143.894 931.022 145.714 928.042 145.714 923.502C145.714 918.982 143.894 916.002 140.014 916.002C136.154 916.002 134.314 918.982 134.314 923.502ZM143.514 923.502C143.514 927.362 142.214 929.342 140.014 929.342C137.834 929.342 136.514 927.362 136.514 923.502C136.514 919.662 137.834 917.662 140.014 917.662C142.214 917.662 143.514 919.662 143.514 923.502Z" fill="#261F26"/>
<path d="M113.145 1010.45C113.145 1007.99 111.165 1006.63 108.485 1006.63C105.365 1006.63 103.345 1008.57 103.385 1011.47H105.505C105.525 1009.13 106.945 1008.29 108.425 1008.29C109.985 1008.29 110.965 1009.21 110.965 1010.67C110.965 1013.17 108.005 1015.81 103.025 1019.59V1021.39H113.525V1019.51H105.725C109.945 1016.53 113.145 1013.63 113.145 1010.45ZM114.645 1014.13C114.645 1018.67 116.485 1021.65 120.345 1021.65C124.225 1021.65 126.045 1018.67 126.045 1014.13C126.045 1009.61 124.225 1006.63 120.345 1006.63C116.485 1006.63 114.645 1009.61 114.645 1014.13ZM123.845 1014.13C123.845 1017.99 122.545 1019.97 120.345 1019.97C118.165 1019.97 116.845 1017.99 116.845 1014.13C116.845 1010.29 118.165 1008.29 120.345 1008.29C122.545 1008.29 123.845 1010.29 123.845 1014.13ZM129.988 1021.39H132.088V1006.89H130.588C129.828 1008.47 128.788 1008.69 126.688 1008.77V1010.19H129.988V1021.39ZM134.314 1014.13C134.314 1018.67 136.154 1021.65 140.014 1021.65C143.894 1021.65 145.714 1018.67 145.714 1014.13C145.714 1009.61 143.894 1006.63 140.014 1006.63C136.154 1006.63 134.314 1009.61 134.314 1014.13ZM143.514 1014.13C143.514 1017.99 142.214 1019.97 140.014 1019.97C137.834 1019.97 136.514 1017.99 136.514 1014.13C136.514 1010.29 137.834 1008.29 140.014 1008.29C142.214 1008.29 143.514 1010.29 143.514 1014.13Z" fill="#261F26"/>
<path d="M108.731 1097.92C108.731 1095.46 106.751 1094.1 104.071 1094.1C100.951 1094.1 98.9306 1096.04 98.9706 1098.94H101.091C101.111 1096.6 102.531 1095.76 104.011 1095.76C105.571 1095.76 106.551 1096.68 106.551 1098.14C106.551 1100.64 103.591 1103.28 98.6106 1107.06V1108.86H109.111V1106.98H101.311C105.531 1104 108.731 1101.1 108.731 1097.92ZM110.231 1101.6C110.231 1106.14 112.071 1109.12 115.931 1109.12C119.811 1109.12 121.631 1106.14 121.631 1101.6C121.631 1097.08 119.811 1094.1 115.931 1094.1C112.071 1094.1 110.231 1097.08 110.231 1101.6ZM119.431 1101.6C119.431 1105.46 118.131 1107.44 115.931 1107.44C113.751 1107.44 112.431 1105.46 112.431 1101.6C112.431 1097.76 113.751 1095.76 115.931 1095.76C118.131 1095.76 119.431 1097.76 119.431 1101.6ZM132.814 1097.92C132.814 1095.46 130.834 1094.1 128.154 1094.1C125.034 1094.1 123.014 1096.04 123.054 1098.94H125.174C125.194 1096.6 126.614 1095.76 128.094 1095.76C129.654 1095.76 130.634 1096.68 130.634 1098.14C130.634 1100.64 127.674 1103.28 122.694 1107.06V1108.86H133.194V1106.98H125.394C129.614 1104 132.814 1101.1 132.814 1097.92ZM134.314 1101.6C134.314 1106.14 136.154 1109.12 140.014 1109.12C143.894 1109.12 145.714 1106.14 145.714 1101.6C145.714 1097.08 143.894 1094.1 140.014 1094.1C136.154 1094.1 134.314 1097.08 134.314 1101.6ZM143.514 1101.6C143.514 1105.46 142.214 1107.44 140.014 1107.44C137.834 1107.44 136.514 1105.46 136.514 1101.6C136.514 1097.76 137.834 1095.76 140.014 1095.76C142.214 1095.76 143.514 1097.76 143.514 1101.6Z" fill="#261F26"/>
<path d="M106.217 566.799H108.317V552.299H106.817C106.057 553.879 105.017 554.099 102.917 554.179V555.599H106.217V566.799ZM118.823 560.099C118.743 563.279 117.543 565.379 115.443 565.379C114.043 565.379 113.063 564.659 112.863 563.299H110.683C110.923 565.199 112.323 567.059 115.243 567.059C119.443 567.059 120.963 563.219 120.963 559.079C120.963 554.719 119.283 552.039 115.603 552.039C112.503 552.039 110.423 554.219 110.423 556.999C110.423 559.979 112.483 561.959 115.163 561.959C116.943 561.959 118.163 561.139 118.823 560.099ZM115.623 553.699C117.403 553.699 118.603 554.979 118.603 556.939C118.603 558.899 117.363 560.219 115.603 560.219C113.843 560.219 112.603 558.899 112.603 556.939C112.603 554.979 113.843 553.699 115.623 553.699ZM124.51 558.999C124.59 555.819 125.77 553.699 127.89 553.699C129.27 553.699 130.27 554.439 130.47 555.799H132.65C132.41 553.899 131.01 552.039 128.09 552.039C123.87 552.039 122.37 555.879 122.37 560.019C122.37 564.379 124.05 567.059 127.73 567.059C130.83 567.059 132.91 564.879 132.91 562.079C132.91 559.119 130.85 557.139 128.17 557.139C126.37 557.139 125.17 557.959 124.51 558.999ZM127.71 565.379C125.93 565.379 124.71 564.119 124.71 562.159C124.71 560.199 125.95 558.879 127.73 558.879C129.49 558.879 130.73 560.199 130.73 562.159C130.73 564.099 129.47 565.379 127.71 565.379ZM134.314 559.539C134.314 564.079 136.154 567.059 140.014 567.059C143.894 567.059 145.714 564.079 145.714 559.539C145.714 555.019 143.894 552.039 140.014 552.039C136.154 552.039 134.314 555.019 134.314 559.539ZM143.514 559.539C143.514 563.399 142.214 565.379 140.014 565.379C137.834 565.379 136.514 563.399 136.514 559.539C136.514 555.699 137.834 553.699 140.014 553.699C142.214 553.699 143.514 555.699 143.514 559.539Z" fill="#261F26"/>
<path d="M105.358 24H107.458V9.5H105.958C105.198 11.08 104.158 11.3 102.058 11.38V12.8H105.358V24ZM117.964 17.3C117.884 20.48 116.684 22.58 114.584 22.58C113.184 22.58 112.204 21.86 112.004 20.5H109.824C110.064 22.4 111.464 24.26 114.384 24.26C118.584 24.26 120.104 20.42 120.104 16.28C120.104 11.92 118.424 9.24 114.744 9.24C111.644 9.24 109.564 11.42 109.564 14.2C109.564 17.18 111.624 19.16 114.304 19.16C116.084 19.16 117.304 18.34 117.964 17.3ZM114.764 10.9C116.544 10.9 117.744 12.18 117.744 14.14C117.744 16.1 116.504 17.42 114.744 17.42C112.984 17.42 111.744 16.1 111.744 14.14C111.744 12.18 112.984 10.9 114.764 10.9ZM121.511 16.74C121.511 21.28 123.351 24.26 127.211 24.26C131.091 24.26 132.911 21.28 132.911 16.74C132.911 12.22 131.091 9.24 127.211 9.24C123.351 9.24 121.511 12.22 121.511 16.74ZM130.711 16.74C130.711 20.6 129.411 22.58 127.211 22.58C125.031 22.58 123.711 20.6 123.711 16.74C123.711 12.9 125.031 10.9 127.211 10.9C129.411 10.9 130.711 12.9 130.711 16.74ZM134.314 16.74C134.314 21.28 136.154 24.26 140.014 24.26C143.894 24.26 145.714 21.28 145.714 16.74C145.714 12.22 143.894 9.24 140.014 9.24C136.154 9.24 134.314 12.22 134.314 16.74ZM143.514 16.74C143.514 20.6 142.214 22.58 140.014 22.58C137.834 22.58 136.514 20.6 136.514 16.74C136.514 12.9 137.834 10.9 140.014 10.9C142.214 10.9 143.514 12.9 143.514 16.74Z" fill="#261F26"/>
<line x1="164.254" y1="17.0098" x2="164.254" y2="1102.76" stroke="black"/>
<line x1="170.156" y1="17.2168" x2="157.393" y2="17.2168" stroke="black"/>
<line x1="170.156" y1="17.2168" x2="157.393" y2="17.2168" stroke="black"/>
<line x1="170.156" y1="379.748" x2="157.393" y2="379.748" stroke="black"/>
<line x1="170.156" y1="107.85" x2="157.393" y2="107.85" stroke="black"/>
<line x1="170.156" y1="198.482" x2="157.393" y2="198.482" stroke="black"/>
<line x1="170.156" y1="289.115" x2="157.393" y2="289.115" stroke="black"/>
<line x1="170.156" y1="470.381" x2="157.393" y2="470.381" stroke="black"/>
<line x1="170.156" y1="561.014" x2="157.393" y2="561.014" stroke="black"/>
<line x1="170.156" y1="742.283" x2="157.393" y2="742.283" stroke="black"/>
<line x1="170.156" y1="832.916" x2="157.393" y2="832.916" stroke="black"/>
<line x1="170.156" y1="923.549" x2="157.393" y2="923.549" stroke="black"/>
<line x1="170.156" y1="651.65" x2="157.393" y2="651.65" stroke="black"/>
<line x1="170.156" y1="1014.18" x2="157.393" y2="1014.18" stroke="black"/>
<line x1="170.156" y1="1102.71" x2="157.393" y2="1102.71" stroke="black"/>
<path d="M20 458C16.6871 458 14 455.313 14 452C14 448.687 16.6871 446 20 446C23.3129 446 26 448.687 26 452C26 455.313 23.3129 458 20 458Z" fill="#FF2600"/>
<path d="M20 511C16.6871 511 14 508.313 14 505C14 501.687 16.6871 499 20 499C23.3129 499 26 501.687 26 505C26 508.313 23.3129 511 20 511Z" fill="#FF2600"/>
</g>
<defs>
<linearGradient id="paint0_linear_1295_862" x1="275.954" y1="494.5" x2="-48.5021" y2="494.5" gradientUnits="userSpaceOnUse">
<stop stop-color="#FF46EC"/>
<stop offset="1" stop-color="#FF3A17"/>
</linearGradient>
<linearGradient id="paint1_linear_1295_862" x1="274.712" y1="737" x2="-40.1068" y2="737" gradientUnits="userSpaceOnUse">
<stop stop-color="#FF46EC"/>
<stop offset="1" stop-color="#FF3A17"/>
</linearGradient>
<linearGradient id="paint2_linear_1295_862" x1="275.954" y1="452.5" x2="-48.5021" y2="452.5" gradientUnits="userSpaceOnUse">
<stop stop-color="#FF46EC"/>
<stop offset="1" stop-color="#FF3A17"/>
</linearGradient>
<linearGradient id="paint3_linear_1295_862" x1="276.22" y1="464" x2="-45.024" y2="464" gradientUnits="userSpaceOnUse">
<stop stop-color="#FF46EC"/>
<stop offset="1" stop-color="#FF3A17"/>
</linearGradient>
<linearGradient id="paint4_linear_1295_862" x1="275.423" y1="528.5" x2="-55.4585" y2="528.5" gradientUnits="userSpaceOnUse">
<stop stop-color="#FF46EC"/>
<stop offset="1" stop-color="#FF3A17"/>
</linearGradient>
<linearGradient id="paint5_linear_1295_862" x1="275.953" y1="481.5" x2="-48.5035" y2="481.5" gradientUnits="userSpaceOnUse">
<stop stop-color="#FF46EC"/>
<stop offset="1" stop-color="#FF3A17"/>
</linearGradient>
<linearGradient id="paint6_linear_1295_862" x1="276.857" y1="528.5" x2="-44.3874" y2="528.5" gradientUnits="userSpaceOnUse">
<stop stop-color="#FF46EC"/>
<stop offset="1" stop-color="#FF3A17"/>
</linearGradient>
<linearGradient id="paint7_linear_1295_862" x1="275.953" y1="512" x2="-48.5032" y2="512" gradientUnits="userSpaceOnUse">
<stop stop-color="#FF46EC"/>
<stop offset="1" stop-color="#FF3A17"/>
</linearGradient>
<linearGradient id="paint8_linear_1295_862" x1="275.953" y1="512" x2="-48.5032" y2="512" gradientUnits="userSpaceOnUse">
<stop stop-color="#FF46EC"/>
<stop offset="1" stop-color="#FF3A17"/>
</linearGradient>
<linearGradient id="paint9_linear_1295_862" x1="273.81" y1="653.5" x2="-44.2216" y2="653.5" gradientUnits="userSpaceOnUse">
<stop stop-color="#FF46EC"/>
<stop offset="1" stop-color="#FF3A17"/>
</linearGradient>
<linearGradient id="paint10_linear_1295_862" x1="273.81" y1="722.5" x2="-44.2216" y2="722.5" gradientUnits="userSpaceOnUse">
<stop stop-color="#FF46EC"/>
<stop offset="1" stop-color="#FF3A17"/>
</linearGradient>
<linearGradient id="paint11_linear_1295_862" x1="273.81" y1="859" x2="-44.2217" y2="859" gradientUnits="userSpaceOnUse">
<stop stop-color="#FF46EC"/>
<stop offset="1" stop-color="#FF3A17"/>
</linearGradient>
<linearGradient id="paint12_linear_1295_862" x1="273.81" y1="742.5" x2="-44.2218" y2="742.5" gradientUnits="userSpaceOnUse">
<stop stop-color="#FF46EC"/>
<stop offset="1" stop-color="#FF3A17"/>
</linearGradient>
<linearGradient id="paint13_linear_1295_862" x1="273.353" y1="742.5" x2="-44.6788" y2="742.5" gradientUnits="userSpaceOnUse">
<stop stop-color="#FF46EC"/>
<stop offset="1" stop-color="#FF3A17"/>
</linearGradient>
<linearGradient id="paint14_linear_1295_862" x1="273.81" y1="773" x2="-44.2216" y2="773" gradientUnits="userSpaceOnUse">
<stop stop-color="#FF46EC"/>
<stop offset="1" stop-color="#FF3A17"/>
</linearGradient>
<linearGradient id="paint15_linear_1295_862" x1="274.751" y1="773" x2="-42.6211" y2="773" gradientUnits="userSpaceOnUse">
<stop stop-color="#FF46EC"/>
<stop offset="1" stop-color="#FF3A17"/>
</linearGradient>
<linearGradient id="paint16_linear_1295_862" x1="275.157" y1="93.5" x2="-58.9365" y2="93.5" gradientUnits="userSpaceOnUse">
<stop stop-color="#FF46EC"/>
<stop offset="1" stop-color="#FF3A17"/>
</linearGradient>
<linearGradient id="paint17_linear_1295_862" x1="275.954" y1="254.5" x2="-48.5022" y2="254.5" gradientUnits="userSpaceOnUse">
<stop stop-color="#FF46EC"/>
<stop offset="1" stop-color="#FF3A17"/>
</linearGradient>
<linearGradient id="paint18_linear_1295_862" x1="271.134" y1="526" x2="-46.8974" y2="526" gradientUnits="userSpaceOnUse">
<stop stop-color="#FF46EC"/>
<stop offset="1" stop-color="#FF3A17"/>
</linearGradient>
<linearGradient id="paint19_linear_1295_862" x1="271.4" y1="576.5" x2="-43.4192" y2="576.5" gradientUnits="userSpaceOnUse">
<stop stop-color="#FF46EC"/>
<stop offset="1" stop-color="#FF3A17"/>
</linearGradient>
<linearGradient id="paint20_linear_1295_862" x1="272.037" y1="592.5" x2="-42.7827" y2="592.5" gradientUnits="userSpaceOnUse">
<stop stop-color="#FF46EC"/>
<stop offset="1" stop-color="#FF3A17"/>
</linearGradient>
<linearGradient id="paint21_linear_1295_862" x1="275.954" y1="423" x2="-48.5021" y2="423" gradientUnits="userSpaceOnUse">
<stop stop-color="#FF46EC"/>
<stop offset="1" stop-color="#FF3A17"/>
</linearGradient>
<linearGradient id="paint22_linear_1295_862" x1="271.4" y1="549.5" x2="-43.4193" y2="549.5" gradientUnits="userSpaceOnUse">
<stop stop-color="#FF46EC"/>
<stop offset="1" stop-color="#FF3A17"/>
</linearGradient>
<linearGradient id="paint23_linear_1295_862" x1="272.037" y1="576" x2="-42.7824" y2="576" gradientUnits="userSpaceOnUse">
<stop stop-color="#FF46EC"/>
<stop offset="1" stop-color="#FF3A17"/>
</linearGradient>
<linearGradient id="paint24_linear_1295_862" x1="271.4" y1="566" x2="-43.4193" y2="566" gradientUnits="userSpaceOnUse">
<stop stop-color="#FF46EC"/>
<stop offset="1" stop-color="#FF3A17"/>
</linearGradient>
<linearGradient id="paint25_linear_1295_862" x1="273.545" y1="562.5" x2="-47.6988" y2="562.5" gradientUnits="userSpaceOnUse">
<stop stop-color="#FF46EC"/>
<stop offset="1" stop-color="#FF3A17"/>
</linearGradient>
<linearGradient id="paint26_linear_1295_862" x1="272.688" y1="563.5" x2="-33.353" y2="563.5" gradientUnits="userSpaceOnUse">
<stop stop-color="#FF46EC"/>
<stop offset="1" stop-color="#FF3A17"/>
</linearGradient>
<linearGradient id="paint27_linear_1295_862" x1="291.796" y1="582.5" x2="-132.246" y2="582.5" gradientUnits="userSpaceOnUse">
<stop stop-color="#FF46EC"/>
<stop offset="1" stop-color="#FF3A17"/>
</linearGradient>
<linearGradient id="paint28_linear_1295_862" x1="286.829" y1="582.5" x2="126.207" y2="582.5" gradientUnits="userSpaceOnUse">
<stop offset="0.411458" stop-color="#FF46EC"/>
<stop offset="1" stop-color="#FF3A17"/>
</linearGradient>
<linearGradient id="paint29_linear_1295_862" x1="275.968" y1="1.37439e+11" x2="-48.4884" y2="1.37439e+11" gradientUnits="userSpaceOnUse">
<stop stop-color="#FF46EC"/>
<stop offset="1" stop-color="#FF3A17"/>
</linearGradient>
<linearGradient id="paint30_linear_1295_862" x1="278.955" y1="498.5" x2="-45.5013" y2="498.5" gradientUnits="userSpaceOnUse">
<stop stop-color="#FF46EC"/>
<stop offset="1" stop-color="#FF3A17"/>
</linearGradient>
<linearGradient id="paint31_linear_1295_862" x1="275.689" y1="341" x2="-51.9803" y2="341" gradientUnits="userSpaceOnUse">
<stop stop-color="#FF46EC"/>
<stop offset="1" stop-color="#FF3A17"/>
</linearGradient>
<linearGradient id="paint32_linear_1295_862" x1="275.954" y1="381" x2="-48.5021" y2="381" gradientUnits="userSpaceOnUse">
<stop stop-color="#FF46EC"/>
<stop offset="1" stop-color="#FF3A17"/>
</linearGradient>
<linearGradient id="paint33_linear_1295_862" x1="275.954" y1="219.5" x2="-48.5022" y2="219.5" gradientUnits="userSpaceOnUse">
<stop stop-color="#FF46EC"/>
<stop offset="1" stop-color="#FF3A17"/>
</linearGradient>
<linearGradient id="paint34_linear_1295_862" x1="275.689" y1="331" x2="-51.9803" y2="331" gradientUnits="userSpaceOnUse">
<stop stop-color="#FF46EC"/>
<stop offset="1" stop-color="#FF3A17"/>
</linearGradient>
<linearGradient id="paint35_linear_1295_862" x1="275.955" y1="437" x2="-48.5014" y2="437" gradientUnits="userSpaceOnUse">
<stop stop-color="#FF46EC"/>
<stop offset="1" stop-color="#FF3A17"/>
</linearGradient>
<linearGradient id="paint36_linear_1295_862" x1="277.123" y1="562.5" x2="-40.9087" y2="562.5" gradientUnits="userSpaceOnUse">
<stop stop-color="#FF46EC"/>
<stop offset="1" stop-color="#FF3A17"/>
</linearGradient>
<linearGradient id="paint37_linear_1295_862" x1="273.81" y1="998" x2="-44.2216" y2="998" gradientUnits="userSpaceOnUse">
<stop stop-color="#FF46EC"/>
<stop offset="1" stop-color="#FF3A17"/>
</linearGradient>
<linearGradient id="paint38_linear_1295_862" x1="273.809" y1="885.5" x2="-44.2227" y2="885.5" gradientUnits="userSpaceOnUse">
<stop stop-color="#FF46EC"/>
<stop offset="1" stop-color="#FF3A17"/>
</linearGradient>
<clipPath id="clip0_1295_862">
<rect width="742" height="1110" fill="white"/>
</clipPath>
</defs>
</svg>
