<svg viewBox="0 0 742 1072" fill="none" xmlns="http://www.w3.org/2000/svg">
<g clip-path="url(#clip0_904_78)">
<path d="M741 1060L741 1026C741 1020.48 736.523 1016 731 1016L672 1016C666.477 1016 662 1020.48 662 1026L662 1060C662 1065.52 666.477 1070 672 1070L731 1070C736.523 1070 741 1065.52 741 1060Z" fill="#E0DFDF" stroke="#FF3A17" stroke-miterlimit="10"/>
<path d="M741 994L741 557C741 548.716 734.284 542 726 542L677 542C668.716 542 662 548.716 662 557L662 994C662 1002.28 668.716 1009 677 1009L726 1009C734.284 1009 741 1002.28 741 994Z" fill="#E0DFDF" stroke="#FF3A17" stroke-miterlimit="10"/>
<path d="M656 1055L656 557C656 548.716 649.284 542 641 542L15 542C6.71576 542 -2.93553e-07 548.716 -6.5567e-07 557L-2.24239e-05 1055C-2.27861e-05 1063.28 6.71574 1070 15 1070L641 1070C649.284 1070 656 1063.28 656 1055Z" fill="#FF46EC" stroke="#FF3A17" stroke-miterlimit="10"/>
<path d="M741 525L741 400C741 394.477 736.523 390 731 390L708 390C702.477 390 698 394.477 698 400L698 525C698 530.523 702.477 535 708 535L731 535C736.523 535 741 530.523 741 525Z" fill="#E0DFDF" stroke="#FF3A17" stroke-miterlimit="10"/>
<path d="M45 525L45 400C45 394.477 40.5228 390 35 390L11 390C5.47716 390 1.00001 394.477 1.00001 400L1 525C1 530.523 5.47716 535 11 535L35 535C40.5228 535 45 530.523 45 525Z" fill="#E0DFDF" stroke="#FF3A17" stroke-miterlimit="10"/>
<path d="M356 520L356 405C356 396.716 349.284 390 341 390L63 390C54.7157 390 48 396.716 48 405L48 520C48 528.284 54.7157 535 63 535L341 535C349.284 535 356 528.284 356 520Z" fill="#E0DFDF" stroke="#FF3A17" stroke-miterlimit="10"/>
<path d="M695 520L695 405C695 396.716 688.284 390 680 390L374 390C365.716 390 359 396.716 359 405L359 520C359 528.284 365.716 535 374 535L680 535C688.284 535 695 528.284 695 520Z" fill="#E0DFDF" stroke="#FF3A17" stroke-miterlimit="10"/>
<path d="M741 367L741 18C741 9.71573 734.284 3 726 3L16 2.99997C7.7157 2.99997 1 9.7157 0.999999 18L0.999984 367C0.999984 375.284 7.71574 382 16 382L726 382C734.284 382 741 375.284 741 367Z" fill="#E0DFDF" stroke="#FF3A17" stroke-miterlimit="10"/>
<path d="M22.4 561.5L17 576H19.92L20.94 573.06H26.58L27.6 576H30.7L25.28 561.5H22.4ZM21.76 570.72L23.76 565L25.76 570.72H21.76ZM34.6914 566.66V565.24H31.9314L31.9314 576H34.6914L34.6914 570.4C34.6914 568.7 35.0914 567.22 36.9114 567.22C38.4714 567.22 38.7714 568.42 38.7714 569.82L38.7714 576H41.5314L41.5314 569.22C41.5314 566.58 40.3914 565 37.8114 565C36.4914 565 35.3114 565.58 34.6914 566.66ZM44.2255 562.32V565.24H42.7055V567.14H44.2255L44.2255 573.1C44.2255 575.24 44.7055 576 47.1655 576H49.1855L49.1855 574.02H48.3455C47.3655 574.02 46.9855 573.8 46.9855 572.7L46.9855 567.14H49.2255L49.2255 565.24H46.9855V562.32H44.2255ZM53.7539 561.5H50.9939L50.9939 564.06H53.7539L53.7539 561.5ZM53.7539 565.24H50.9939L50.9939 576L53.7539 576L53.7539 565.24ZM67.7483 567.22C69.3683 567.22 69.4683 568.56 69.4683 569.74V576H72.2283V569.22C72.2283 566.68 71.2883 565 68.5883 565C66.9683 565 65.8883 565.56 65.0483 566.76C64.6283 565.98 63.8283 565 61.9883 565C60.6883 565 59.5883 565.6 58.9883 566.66L58.9883 565.24H56.2283L56.2283 576H58.9883L58.9883 570.4C58.9883 568.76 59.2883 567.22 61.1283 567.22C62.7483 567.22 62.8483 568.56 62.8483 569.74L62.8483 576H65.6083V570.4C65.6083 568.76 65.9083 567.22 67.7483 567.22ZM77.3086 561.5H74.5486L74.5486 564.06H77.3086L77.3086 561.5ZM77.3086 565.24H74.5486L74.5486 576H77.3086L77.3086 565.24ZM89.363 568.92C89.003 566.24 86.723 565 84.483 565C81.263 565 79.083 567.36 79.083 570.64C79.083 573.88 81.143 576.26 84.363 576.26C86.583 576.26 88.823 575.28 89.463 572.34H86.823C86.463 573.64 85.443 574.12 84.503 574.12C82.983 574.12 81.903 572.86 81.903 570.6C81.903 568.36 83.043 567.14 84.483 567.14C85.523 567.14 86.523 567.9 86.723 568.92H89.363ZM97.2711 567.9V565.3C97.0911 565.28 96.8511 565.26 96.6711 565.26C95.4311 565.26 94.4511 565.8 93.8311 567.12V565.24H91.1111L91.1111 576H93.8711V570.36C93.8711 568.34 94.7711 567.84 96.1311 567.84C96.5311 567.84 96.8711 567.86 97.2711 567.9ZM97.9692 570.64C97.9692 574.42 100.649 576.26 103.369 576.26C106.089 576.26 108.769 574.42 108.769 570.64C108.769 566.86 106.089 565 103.369 565C100.649 565 97.9692 566.86 97.9692 570.64ZM100.769 570.64C100.769 568.38 101.849 567.16 103.369 567.16C104.889 567.16 105.969 568.38 105.969 570.64C105.969 572.88 104.889 574.1 103.369 574.1C101.849 574.1 100.769 572.88 100.769 570.64ZM110.525 576H113.285V574.64C113.965 575.82 115.265 576.26 116.385 576.26C118.945 576.26 121.065 574.06 121.065 570.62C121.065 567.24 118.985 565 116.385 565C115.025 565 113.865 565.62 113.285 566.62V561.5H110.525L110.525 576ZM118.165 570.64C118.165 572.74 117.125 574.14 115.705 574.14C114.185 574.14 113.185 572.82 113.185 570.62C113.185 568.46 114.185 567.12 115.705 567.12C117.125 567.12 118.165 568.54 118.165 570.64ZM125.609 561.5H122.849V564.06H125.609V561.5ZM125.609 565.24H122.849L122.849 576H125.609L125.609 565.24ZM131.524 576.26C133.144 576.26 134.284 575.78 135.044 574.66C135.084 575.18 135.144 575.66 135.224 576H137.764C137.564 575.1 137.444 574.14 137.444 572.44C137.444 571.46 137.484 570.04 137.484 569.7C137.484 566.06 135.404 564.96 132.844 564.96C130.084 564.96 128.324 566.52 128.124 568.64H130.704C130.764 567.46 131.644 566.9 132.704 566.9C133.824 566.9 134.724 567.48 134.724 569.14V569.32C130.504 569.8 127.644 570.56 127.644 573.1C127.644 575.06 129.464 576.26 131.524 576.26ZM134.804 571.08V571.88C134.804 573.44 134.064 574.38 132.344 574.38C131.104 574.38 130.484 573.74 130.484 572.96C130.484 571.76 131.724 571.4 134.804 571.08ZM142.543 576L142.543 561.5H139.783L139.783 576H142.543ZM155.489 570.32L158.369 576H161.549L158.329 569.72C160.129 568.96 160.949 567.56 160.949 565.9C160.949 562.86 159.129 561.5 154.349 561.5H149.589L149.589 576H152.449V570.32H155.489ZM152.449 563.74H154.669C156.609 563.74 158.009 564.24 158.009 565.92C158.009 567.34 157.029 568.1 154.809 568.1H152.449L152.449 563.74ZM164.889 571.38H172.829C172.949 567.58 170.869 565 167.549 565C164.369 565 162.149 567.38 162.149 570.58C162.149 573.68 164.169 576.26 167.629 576.26C170.549 576.26 172.129 574.48 172.709 572.88H169.869C169.309 573.82 168.449 574.12 167.609 574.12C166.309 574.12 165.029 573.22 164.889 571.38ZM164.929 569.48C165.149 567.68 166.489 567.02 167.529 567.02C168.689 567.02 169.969 567.66 170.029 569.48H164.929ZM180.765 568.48L183.345 568.48C182.985 566 180.845 564.96 178.605 564.96C176.285 564.96 174.205 566.22 174.205 568.16C174.205 570.12 175.545 570.96 177.565 571.38L179.165 571.72C180.085 571.92 180.925 572.24 180.925 573.04C180.925 573.82 180.165 574.26 178.985 574.26C177.565 574.26 176.825 573.48 176.665 572.44H174.005C174.265 574.9 176.265 576.26 178.905 576.26C181.345 576.26 183.565 574.94 183.565 572.78C183.565 570.56 181.745 570.02 179.605 569.54L178.165 569.22C177.145 569 176.725 568.56 176.725 567.98C176.725 567.32 177.445 566.94 178.465 566.94C179.725 566.94 180.565 567.58 180.765 568.48ZM188.051 561.5H185.291V564.06H188.051V561.5ZM188.051 565.24H185.291V576H188.051V565.24ZM196.585 568.48H199.165C198.805 566 196.665 564.96 194.425 564.96C192.105 564.96 190.025 566.22 190.025 568.16C190.025 570.12 191.365 570.96 193.385 571.38L194.985 571.72C195.905 571.92 196.745 572.24 196.745 573.04C196.745 573.82 195.985 574.26 194.805 574.26C193.385 574.26 192.645 573.48 192.485 572.44H189.825C190.085 574.9 192.085 576.26 194.725 576.26C197.165 576.26 199.385 574.94 199.385 572.78C199.385 570.56 197.565 570.02 195.425 569.54L193.985 569.22C192.965 569 192.545 568.56 192.545 567.98C192.545 567.32 193.265 566.94 194.285 566.94C195.545 566.94 196.385 567.58 196.585 568.48ZM201.628 562.32L201.628 565.24H200.108V567.14H201.628V573.1C201.628 575.24 202.108 576 204.568 576H206.588V574.02H205.748C204.768 574.02 204.388 573.8 204.388 572.7V567.14H206.628V565.24H204.388L204.388 562.32H201.628ZM211.836 576.26C213.456 576.26 214.596 575.78 215.356 574.66C215.396 575.18 215.456 575.66 215.536 576H218.076C217.876 575.1 217.756 574.14 217.756 572.44C217.756 571.46 217.796 570.04 217.796 569.7C217.796 566.06 215.716 564.96 213.156 564.96C210.396 564.96 208.636 566.52 208.436 568.64H211.016C211.076 567.46 211.956 566.9 213.016 566.9C214.136 566.9 215.036 567.48 215.036 569.14V569.32C210.816 569.8 207.956 570.56 207.956 573.1C207.956 575.06 209.776 576.26 211.836 576.26ZM215.116 571.08V571.88C215.116 573.44 214.376 574.38 212.656 574.38C211.416 574.38 210.796 573.74 210.796 572.96C210.796 571.76 212.036 571.4 215.116 571.08ZM222.855 566.66V565.24H220.095V576H222.855V570.4C222.855 568.7 223.255 567.22 225.075 567.22C226.635 567.22 226.935 568.42 226.935 569.82V576H229.695V569.22C229.695 566.58 228.555 565 225.975 565C224.655 565 223.475 565.58 222.855 566.66ZM241.59 568.92C241.23 566.24 238.95 565 236.71 565C233.49 565 231.31 567.36 231.31 570.64C231.31 573.88 233.37 576.26 236.59 576.26C238.81 576.26 241.05 575.28 241.69 572.34H239.05C238.69 573.64 237.67 574.12 236.73 574.12C235.21 574.12 234.13 572.86 234.13 570.6C234.13 568.36 235.27 567.14 236.71 567.14C237.75 567.14 238.75 567.9 238.95 568.92H241.59ZM245.475 571.38L253.415 571.38C253.535 567.58 251.455 565 248.135 565C244.955 565 242.735 567.38 242.735 570.58C242.735 573.68 244.755 576.26 248.215 576.26C251.135 576.26 252.715 574.48 253.295 572.88H250.455C249.895 573.82 249.035 574.12 248.195 574.12C246.895 574.12 245.615 573.22 245.475 571.38ZM245.515 569.48C245.735 567.68 247.075 567.02 248.115 567.02C249.275 567.02 250.555 567.66 250.615 569.48L245.515 569.48Z" fill="black"/>
<path d="M21.6 602H23.42L23.42 587.5H22.18C21.38 589.08 20.32 589.34 18.24 589.42V590.66H21.6L21.6 602ZM31.9633 602.26C35.8233 602.26 37.6033 599.34 37.6033 594.74C37.6033 590.16 35.8233 587.24 31.9633 587.24C28.1033 587.24 26.3233 590.16 26.3233 594.74C26.3233 599.34 28.1033 602.26 31.9633 602.26ZM31.9633 588.76C34.2433 588.76 35.6633 590.72 35.6633 594.74C35.6633 598.78 34.2433 600.74 31.9633 600.74C29.6833 600.74 28.2633 598.78 28.2633 594.74C28.2633 590.72 29.6833 588.76 31.9633 588.76ZM39.8859 587.5V589.8H40.8659L39.8059 592.58H40.9659L42.1859 589.96V587.5H39.8859ZM50.0883 602.26C53.9483 602.26 55.7283 599.34 55.7283 594.74C55.7283 590.16 53.9483 587.24 50.0883 587.24C46.2283 587.24 44.4483 590.16 44.4483 594.74C44.4483 599.34 46.2283 602.26 50.0883 602.26ZM50.0883 588.76C52.3683 588.76 53.7883 590.72 53.7883 594.74C53.7883 598.78 52.3683 600.74 50.0883 600.74C47.8083 600.74 46.3883 598.78 46.3883 594.74C46.3883 590.72 47.8083 588.76 50.0883 588.76ZM63.3109 602.26C67.1709 602.26 68.9509 599.34 68.9509 594.74C68.9509 590.16 67.1709 587.24 63.3109 587.24C59.4509 587.24 57.6709 590.16 57.6709 594.74C57.6709 599.34 59.4509 602.26 63.3109 602.26ZM63.3109 588.76C65.5909 588.76 67.0109 590.72 67.0109 594.74C67.0109 598.78 65.5909 600.74 63.3109 600.74C61.0309 600.74 59.6109 598.78 59.6109 594.74C59.6109 590.72 61.0309 588.76 63.3109 588.76ZM73.5336 602H75.3536L75.3536 587.5H74.1136C73.3136 589.08 72.2536 589.34 70.1736 589.42V590.66H73.5336L73.5336 602ZM78.5969 587.5L78.5969 589.8H79.5769L78.5169 592.58H79.6769L80.8969 589.96L80.8969 587.5H78.5969ZM88.7992 602.26C92.6592 602.26 94.4392 599.34 94.4392 594.74C94.4392 590.16 92.6592 587.24 88.7992 587.24C84.9392 587.24 83.1592 590.16 83.1592 594.74C83.1592 599.34 84.9392 602.26 88.7992 602.26ZM88.7992 588.76C91.0792 588.76 92.4992 590.72 92.4992 594.74C92.4992 598.78 91.0792 600.74 88.7992 600.74C86.5192 600.74 85.0992 598.78 85.0992 594.74C85.0992 590.72 86.5192 588.76 88.7992 588.76ZM102.022 602.26C105.882 602.26 107.662 599.34 107.662 594.74C107.662 590.16 105.882 587.24 102.022 587.24C98.1619 587.24 96.3819 590.16 96.3819 594.74C96.3819 599.34 98.1619 602.26 102.022 602.26ZM102.022 588.76C104.302 588.76 105.722 590.72 105.722 594.74C105.722 598.78 104.302 600.74 102.022 600.74C99.7419 600.74 98.3219 598.78 98.3219 594.74C98.3219 590.72 99.7419 588.76 102.022 588.76ZM115.245 602.26C119.105 602.26 120.885 599.34 120.885 594.74C120.885 590.16 119.105 587.24 115.245 587.24C111.385 587.24 109.605 590.16 109.605 594.74C109.605 599.34 111.385 602.26 115.245 602.26ZM115.245 588.76C117.525 588.76 118.945 590.72 118.945 594.74C118.945 598.78 117.525 600.74 115.245 600.74C112.965 600.74 111.545 598.78 111.545 594.74C111.545 590.72 112.965 588.76 115.245 588.76Z" fill="black"/>
<path d="M722 988.4L722 986.58L707.5 986.58L707.5 987.82C709.08 988.62 709.34 989.68 709.42 991.76L710.66 991.76L710.66 988.4L722 988.4ZM707.5 983.337L709.8 983.337L709.8 982.357L712.58 983.417L712.58 982.257L709.96 981.037L707.5 981.037L707.5 983.337ZM711.04 969.094C708.6 969.094 707.24 971.014 707.24 973.694C707.24 976.774 709.14 978.774 712.02 978.734L712.02 976.854C709.62 976.814 708.76 975.294 708.76 973.734C708.76 972.014 709.78 971.014 711.28 971.014C713.84 971.014 716.58 974.014 720.36 979.134L722 979.134L722 968.694L720.3 968.694L720.3 976.654C717.38 972.594 714.4 969.094 711.04 969.094ZM722.26 961.338C722.26 957.478 719.34 955.697 714.74 955.697C710.16 955.697 707.24 957.478 707.24 961.337C707.24 965.197 710.16 966.978 714.74 966.978C719.34 966.978 722.26 965.198 722.26 961.338ZM708.76 961.337C708.76 959.057 710.72 957.637 714.74 957.637C718.78 957.637 720.74 959.057 720.74 961.338C720.74 963.618 718.78 965.038 714.74 965.038C710.72 965.037 708.76 963.618 708.76 961.337ZM722.26 948.115C722.26 944.255 719.34 942.475 714.74 942.475C710.16 942.475 707.24 944.255 707.24 948.115C707.24 951.975 710.16 953.755 714.74 953.755C719.34 953.755 722.26 951.975 722.26 948.115ZM708.76 948.115C708.76 945.835 710.72 944.415 714.74 944.415C718.78 944.415 720.74 945.835 720.74 948.115C720.74 950.395 718.78 951.815 714.74 951.815C710.72 951.815 708.76 950.395 708.76 948.115ZM707.5 940.192L709.8 940.192L709.8 939.212L712.58 940.272L712.58 939.112L709.96 937.892L707.5 937.892L707.5 940.192ZM722.26 929.99C722.26 926.13 719.34 924.35 714.74 924.35C710.16 924.35 707.24 926.13 707.24 929.99C707.24 933.85 710.16 935.63 714.74 935.63C719.34 935.63 722.26 933.85 722.26 929.99ZM708.76 929.99C708.76 927.71 710.72 926.29 714.74 926.29C718.78 926.29 720.74 927.71 720.74 929.99C720.74 932.27 718.78 933.69 714.74 933.69C710.72 933.69 708.76 932.27 708.76 929.99ZM722.26 916.767C722.26 912.907 719.34 911.127 714.74 911.127C710.16 911.127 707.24 912.907 707.24 916.767C707.24 920.627 710.16 922.407 714.74 922.407C719.34 922.407 722.26 920.627 722.26 916.767ZM708.76 916.767C708.76 914.487 710.72 913.067 714.74 913.067C718.78 913.067 720.74 914.487 720.74 916.767C720.74 919.047 718.78 920.467 714.74 920.467C710.72 920.467 708.76 919.047 708.76 916.767ZM722.26 903.545C722.26 899.685 719.34 897.905 714.74 897.905C710.16 897.905 707.24 899.685 707.24 903.545C707.24 907.405 710.16 909.185 714.74 909.185C719.34 909.185 722.26 907.405 722.26 903.545ZM708.76 903.545C708.76 901.265 710.72 899.845 714.74 899.845C718.78 899.845 720.74 901.265 720.74 903.545C720.74 905.825 718.78 907.245 714.74 907.245C710.72 907.245 708.76 905.825 708.76 903.545Z" fill="black"/>
<path d="M689.32 984.8L695 981.92L695 978.74L688.72 981.96C687.96 980.16 686.56 979.34 684.9 979.34C681.86 979.34 680.5 981.16 680.5 985.94L680.5 990.7L695 990.7L695 987.84L689.32 987.84L689.32 984.8ZM682.74 987.84L682.74 985.62C682.74 983.68 683.24 982.28 684.92 982.28C686.34 982.28 687.1 983.26 687.1 985.48L687.1 987.84L682.74 987.84ZM689.64 978.16C693.42 978.16 695.26 975.48 695.26 972.76C695.26 970.04 693.42 967.36 689.64 967.36C685.86 967.36 684 970.04 684 972.76C684 975.48 685.86 978.16 689.64 978.16ZM689.64 975.36C687.38 975.36 686.16 974.28 686.16 972.76C686.16 971.24 687.38 970.16 689.64 970.16C691.88 970.16 693.1 971.24 693.1 972.76C693.1 974.28 691.88 975.36 689.64 975.36ZM695.26 962.261C695.26 960.641 694.78 959.501 693.66 958.741C694.18 958.701 694.66 958.641 695 958.561L695 956.021C694.1 956.221 693.14 956.341 691.44 956.341C690.46 956.341 689.04 956.301 688.7 956.301C685.06 956.301 683.96 958.381 683.96 960.941C683.96 963.701 685.52 965.461 687.64 965.661L687.64 963.081C686.46 963.021 685.9 962.141 685.9 961.081C685.9 959.961 686.48 959.061 688.14 959.061L688.32 959.061C688.8 963.281 689.56 966.141 692.1 966.141C694.06 966.141 695.26 964.321 695.26 962.261ZM690.08 958.981L690.88 958.981C692.44 958.981 693.38 959.721 693.38 961.441C693.38 962.681 692.74 963.301 691.96 963.301C690.76 963.301 690.4 962.061 690.08 958.981ZM695 946.922L695 944.162L680.5 944.162L680.5 946.922L685.62 946.922C684.62 947.502 684 948.662 684 950.022C684 952.622 686.24 954.702 689.62 954.702C693.06 954.702 695.26 952.582 695.26 950.022C695.26 948.902 694.82 947.602 693.64 946.922L695 946.922ZM689.62 946.822C691.82 946.822 693.14 947.822 693.14 949.342C693.14 950.762 691.74 951.802 689.64 951.802C687.54 951.802 686.12 950.762 686.12 949.342C686.12 947.822 687.46 946.822 689.62 946.822ZM682.82 933.846L695 933.846L695 930.986L682.82 930.986L682.82 926.506L680.5 926.506L680.5 938.306L682.82 938.306L682.82 933.846ZM686.9 920.518L684.3 920.518C684.28 920.698 684.26 920.938 684.26 921.118C684.26 922.358 684.8 923.338 686.12 923.958L684.24 923.958L684.24 926.678L695 926.678L695 923.918L689.36 923.918C687.34 923.918 686.84 923.018 686.84 921.658C686.84 921.258 686.86 920.918 686.9 920.518ZM695.26 916.05C695.26 914.43 694.78 913.29 693.66 912.53C694.18 912.49 694.66 912.43 695 912.35L695 909.81C694.1 910.01 693.14 910.13 691.44 910.13C690.46 910.13 689.04 910.09 688.7 910.09C685.06 910.09 683.96 912.17 683.96 914.73C683.96 917.49 685.52 919.25 687.64 919.45L687.64 916.87C686.46 916.81 685.9 915.93 685.9 914.87C685.9 913.75 686.48 912.85 688.14 912.85L688.32 912.85C688.8 917.07 689.56 919.93 692.1 919.93C694.06 919.93 695.26 918.11 695.26 916.05ZM690.08 912.77L690.88 912.77C692.44 912.77 693.38 913.51 693.38 915.23C693.38 916.47 692.74 917.09 691.96 917.09C690.76 917.09 690.4 915.85 690.08 912.77ZM683.64 907.531L684.24 907.531L684.24 909.051L686.14 909.051L686.14 907.531L695 907.531L695 904.771L686.14 904.771L686.14 902.611L684.24 902.611L684.24 904.771L683.72 904.771C682.7 904.771 682.54 904.511 682.54 903.151L682.54 902.611L680.5 902.611L680.5 903.551C680.5 906.251 680.92 907.531 683.64 907.531ZM683.64 900.949L684.24 900.949L684.24 902.469L686.14 902.469L686.14 900.949L695 900.949L695 898.189L686.14 898.189L686.14 896.029L684.24 896.029L684.24 898.189L683.72 898.189C682.7 898.189 682.54 897.929 682.54 896.569L682.54 896.029L680.5 896.029L680.5 896.969C680.5 899.669 680.92 900.949 683.64 900.949ZM680.5 891.867L680.5 894.627L683.06 894.627L683.06 891.867L680.5 891.867ZM684.24 891.867L684.24 894.627L695 894.627L695 891.867L684.24 891.867ZM687.92 879.813C685.24 880.173 684 882.453 684 884.693C684 887.913 686.36 890.093 689.64 890.093C692.88 890.093 695.26 888.033 695.26 884.813C695.26 882.593 694.28 880.353 691.34 879.713L691.34 882.353C692.64 882.713 693.12 883.733 693.12 884.673C693.12 886.193 691.86 887.273 689.6 887.273C687.36 887.273 686.14 886.133 686.14 884.693C686.14 883.653 686.9 882.653 687.92 882.453L687.92 879.813ZM680.5 869.393L695 874.793L695 871.873L692.06 870.853L692.06 865.213L695 864.193L695 861.093L680.5 866.513L680.5 869.393ZM689.72 870.033L684 868.033L689.72 866.033L689.72 870.033ZM687.92 850.282C685.24 850.642 684 852.922 684 855.162C684 858.382 686.36 860.562 689.64 860.562C692.88 860.562 695.26 858.502 695.26 855.282C695.26 853.062 694.28 850.822 691.34 850.182L691.34 852.822C692.64 853.182 693.12 854.202 693.12 855.142C693.12 856.662 691.86 857.742 689.6 857.742C687.36 857.742 686.14 856.602 686.14 855.162C686.14 854.122 686.9 853.122 687.92 852.922L687.92 850.282ZM687.92 838.856C685.24 839.216 684 841.496 684 843.736C684 846.956 686.36 849.136 689.64 849.136C692.88 849.136 695.26 847.076 695.26 843.856C695.26 841.636 694.28 839.396 691.34 838.756L691.34 841.396C692.64 841.756 693.12 842.776 693.12 843.716C693.12 845.236 691.86 846.316 689.6 846.316C687.36 846.316 686.14 845.176 686.14 843.736C686.14 842.696 686.9 841.696 687.92 841.496L687.92 838.856ZM680.5 834.348L680.5 837.108L683.06 837.108L683.06 834.348L680.5 834.348ZM684.24 834.348L684.24 837.108L695 837.108L695 834.348L684.24 834.348ZM695 824.793L695 822.033L680.5 822.033L680.5 824.793L685.62 824.793C684.62 825.373 684 826.533 684 827.893C684 830.493 686.24 832.573 689.62 832.573C693.06 832.573 695.26 830.453 695.26 827.893C695.26 826.773 694.82 825.473 693.64 824.793L695 824.793ZM689.62 824.693C691.82 824.693 693.14 825.693 693.14 827.213C693.14 828.633 691.74 829.673 689.64 829.673C687.54 829.673 686.12 828.633 686.12 827.213C686.12 825.693 687.46 824.693 689.62 824.693ZM690.38 817.509L690.38 809.569C686.58 809.449 684 811.529 684 814.849C684 818.029 686.38 820.249 689.58 820.249C692.68 820.249 695.26 818.229 695.26 814.769C695.26 811.849 693.48 810.269 691.88 809.689L691.88 812.529C692.82 813.089 693.12 813.949 693.12 814.789C693.12 816.089 692.22 817.369 690.38 817.509ZM688.48 817.469C686.68 817.249 686.02 815.909 686.02 814.869C686.02 813.709 686.66 812.429 688.48 812.369L688.48 817.469ZM685.66 805.031L684.24 805.031L684.24 807.791L695 807.791L695 805.031L689.4 805.031C687.7 805.031 686.22 804.631 686.22 802.811C686.22 801.251 687.42 800.951 688.82 800.951L695 800.951L695 798.191L688.22 798.191C685.58 798.191 684 799.331 684 801.911C684 803.231 684.58 804.411 685.66 805.031ZM681.32 795.497L684.24 795.497L684.24 797.017L686.14 797.017L686.14 795.497L692.1 795.497C694.24 795.497 695 795.017 695 792.557L695 790.537L693.02 790.537L693.02 791.377C693.02 792.357 692.8 792.737 691.7 792.737L686.14 792.737L686.14 790.497L684.24 790.497L684.24 792.737L681.32 792.737L681.32 795.497ZM687.48 782.669L687.48 780.089C685 780.449 683.96 782.589 683.96 784.829C683.96 787.149 685.22 789.229 687.16 789.229C689.12 789.229 689.96 787.889 690.38 785.869L690.72 784.269C690.92 783.349 691.24 782.509 692.04 782.509C692.82 782.509 693.26 783.269 693.26 784.449C693.26 785.869 692.48 786.609 691.44 786.769L691.44 789.429C693.9 789.169 695.26 787.169 695.26 784.529C695.26 782.089 693.94 779.869 691.78 779.869C689.56 779.869 689.02 781.689 688.54 783.829L688.22 785.269C688 786.289 687.56 786.709 686.98 786.709C686.32 786.709 685.94 785.989 685.94 784.969C685.94 783.709 686.58 782.869 687.48 782.669Z" fill="black"/>
<path d="M381.6 409.5H377.3L377.3 424H381.6C386.2 424 389.66 422.5 389.66 416.74C389.66 411 386.2 409.5 381.6 409.5ZM381.48 411.74C384.12 411.74 386.7 412.4 386.7 416.74C386.7 421.1 384.12 421.76 381.48 421.76H380.16L380.16 411.74H381.48ZM394.375 409.5L391.615 409.5V412.06L394.375 412.06V409.5ZM394.375 413.24L391.615 413.24L391.615 424L394.375 424L394.375 413.24ZM400.289 424.26C401.909 424.26 403.049 423.78 403.809 422.66C403.849 423.18 403.909 423.66 403.989 424H406.529C406.329 423.1 406.209 422.14 406.209 420.44C406.209 419.46 406.249 418.04 406.249 417.7C406.249 414.06 404.169 412.96 401.609 412.96C398.849 412.96 397.089 414.52 396.889 416.64H399.469C399.529 415.46 400.409 414.9 401.469 414.9C402.589 414.9 403.489 415.48 403.489 417.14V417.32C399.269 417.8 396.409 418.56 396.409 421.1C396.409 423.06 398.229 424.26 400.289 424.26ZM403.569 419.08V419.88C403.569 421.44 402.829 422.38 401.109 422.38C399.869 422.38 399.249 421.74 399.249 420.96C399.249 419.76 400.489 419.4 403.569 419.08ZM408.549 424H411.309L411.309 422.64C411.989 423.82 413.289 424.26 414.409 424.26C416.969 424.26 419.089 422.06 419.089 418.62C419.089 415.24 417.009 413 414.409 413C413.049 413 411.889 413.62 411.309 414.62V409.5H408.549L408.549 424ZM416.189 418.64C416.189 420.74 415.149 422.14 413.729 422.14C412.209 422.14 411.209 420.82 411.209 418.62C411.209 416.46 412.209 415.12 413.729 415.12C415.149 415.12 416.189 416.54 416.189 418.64ZM423.069 419.38L431.009 419.38C431.129 415.58 429.049 413 425.729 413C422.549 413 420.329 415.38 420.329 418.58C420.329 421.68 422.349 424.26 425.809 424.26C428.729 424.26 430.309 422.48 430.889 420.88H428.049C427.489 421.82 426.629 422.12 425.789 422.12C424.489 422.12 423.209 421.22 423.069 419.38ZM423.109 417.48C423.329 415.68 424.669 415.02 425.709 415.02C426.869 415.02 428.149 415.66 428.209 417.48L423.109 417.48ZM433.167 410.32V413.24H431.647V415.14H433.167V421.1C433.167 423.24 433.647 424 436.107 424H438.127L438.127 422.02H437.287C436.307 422.02 435.927 421.8 435.927 420.7V415.14H438.167V413.24H435.927V410.32H433.167ZM441.975 419.38H449.915C450.035 415.58 447.955 413 444.635 413C441.455 413 439.235 415.38 439.235 418.58C439.235 421.68 441.255 424.26 444.715 424.26C447.635 424.26 449.215 422.48 449.795 420.88H446.955C446.395 421.82 445.535 422.12 444.695 422.12C443.395 422.12 442.115 421.22 441.975 419.38ZM442.015 417.48C442.235 415.68 443.575 415.02 444.615 415.02C445.775 415.02 447.055 415.66 447.115 417.48H442.015ZM457.851 416.48L460.431 416.48C460.071 414 457.931 412.96 455.691 412.96C453.371 412.96 451.291 414.22 451.291 416.16C451.291 418.12 452.631 418.96 454.651 419.38L456.251 419.72C457.171 419.92 458.011 420.24 458.011 421.04C458.011 421.82 457.251 422.26 456.071 422.26C454.651 422.26 453.911 421.48 453.751 420.44H451.091C451.351 422.9 453.351 424.26 455.991 424.26C458.431 424.26 460.651 422.94 460.651 420.78C460.651 418.56 458.831 418.02 456.691 417.54L455.251 417.22C454.231 417 453.811 416.56 453.811 415.98C453.811 415.32 454.531 414.94 455.551 414.94C456.811 414.94 457.651 415.58 457.851 416.48Z" fill="black"/>
<path d="M379.6 450H381.42L381.42 435.5H380.18C379.38 437.08 378.32 437.34 376.24 437.42V438.66H379.6L379.6 450ZM384.663 435.5V437.8H385.643L384.583 440.58H385.743L386.963 437.96V435.5H384.663ZM396.94 445.24C396.94 447.48 395.44 448.74 393.7 448.74C391.68 448.74 390.7 447.62 390.42 445.8H388.54C388.82 448.14 390.34 450.26 393.7 450.26C396.4 450.26 398.86 448.54 398.86 445.22C398.86 442.02 396.64 440.22 394.1 440.22C392.9 440.22 391.74 440.58 390.98 441.32L391.48 437.2L398.32 437.2V435.5L390 435.5L389.06 443.3L390.88 443.4C391.2 442.68 392.18 441.8 393.68 441.8C395.26 441.8 396.94 442.84 396.94 445.24ZM406.409 450.26C410.269 450.26 412.049 447.34 412.049 442.74C412.049 438.16 410.269 435.24 406.409 435.24C402.549 435.24 400.769 438.16 400.769 442.74C400.769 447.34 402.549 450.26 406.409 450.26ZM406.409 436.76C408.689 436.76 410.109 438.72 410.109 442.74C410.109 446.78 408.689 448.74 406.409 448.74C404.129 448.74 402.709 446.78 402.709 442.74C402.709 438.72 404.129 436.76 406.409 436.76ZM419.631 450.26C423.491 450.26 425.271 447.34 425.271 442.74C425.271 438.16 423.491 435.24 419.631 435.24C415.771 435.24 413.991 438.16 413.991 442.74C413.991 447.34 415.771 450.26 419.631 450.26ZM419.631 436.76C421.911 436.76 423.331 438.72 423.331 442.74C423.331 446.78 421.911 448.74 419.631 448.74C417.351 448.74 415.931 446.78 415.931 442.74C415.931 438.72 417.351 436.76 419.631 436.76ZM427.554 435.5V437.8H428.534L427.474 440.58H428.634L429.854 437.96V435.5H427.554ZM437.756 450.26C441.616 450.26 443.396 447.34 443.396 442.74C443.396 438.16 441.616 435.24 437.756 435.24C433.896 435.24 432.116 438.16 432.116 442.74C432.116 447.34 433.896 450.26 437.756 450.26ZM437.756 436.76C440.036 436.76 441.456 438.72 441.456 442.74C441.456 446.78 440.036 448.74 437.756 448.74C435.476 448.74 434.056 446.78 434.056 442.74C434.056 438.72 435.476 436.76 437.756 436.76ZM450.979 450.26C454.839 450.26 456.619 447.34 456.619 442.74C456.619 438.16 454.839 435.24 450.979 435.24C447.119 435.24 445.339 438.16 445.339 442.74C445.339 447.34 447.119 450.26 450.979 450.26ZM450.979 436.76C453.259 436.76 454.679 438.72 454.679 442.74C454.679 446.78 453.259 448.74 450.979 448.74C448.699 448.74 447.279 446.78 447.279 442.74C447.279 438.72 448.699 436.76 450.979 436.76ZM464.202 450.26C468.062 450.26 469.842 447.34 469.842 442.74C469.842 438.16 468.062 435.24 464.202 435.24C460.342 435.24 458.562 438.16 458.562 442.74C458.562 447.34 460.342 450.26 464.202 450.26ZM464.202 436.76C466.482 436.76 467.902 438.72 467.902 442.74C467.902 446.78 466.482 448.74 464.202 448.74C461.922 448.74 460.502 446.78 460.502 442.74C460.502 438.72 461.922 436.76 464.202 436.76Z" fill="black"/>
<path d="M31.86 32.24L29.14 32.24C28.68 34.2 27.26 34.98 25.54 34.98C23.44 34.98 21.76 33.14 21.76 29.68C21.76 26.32 23.44 24.52 25.64 24.52C27.24 24.52 28.6 25.18 29.14 27.2L31.86 27.2C31.38 24.18 29.06 22.24 25.66 22.24C21.44 22.24 18.8 25.1 18.8 29.68C18.8 34.3 21.28 37.26 25.58 37.26C29.06 37.26 31.48 35.16 31.86 32.24ZM36.9573 37.26C38.5773 37.26 39.7173 36.78 40.4773 35.66C40.5173 36.18 40.5773 36.66 40.6573 37H43.1973C42.9973 36.1 42.8773 35.14 42.8773 33.44C42.8773 32.46 42.9173 31.04 42.9173 30.7C42.9173 27.06 40.8373 25.96 38.2773 25.96C35.5173 25.96 33.7573 27.52 33.5573 29.64L36.1373 29.64C36.1973 28.46 37.0773 27.9 38.1373 27.9C39.2573 27.9 40.1573 28.48 40.1573 30.14V30.32C35.9373 30.8 33.0773 31.56 33.0773 34.1C33.0773 36.06 34.8973 37.26 36.9573 37.26ZM40.2373 32.08V32.88C40.2373 34.44 39.4973 35.38 37.7773 35.38C36.5373 35.38 35.9173 34.74 35.9173 33.96C35.9173 32.76 37.1573 32.4 40.2373 32.08ZM47.9766 27.66L47.9766 26.24L45.2166 26.24L45.2166 37L47.9766 37L47.9766 31.4C47.9766 29.7 48.3766 28.22 50.1966 28.22C51.7566 28.22 52.0566 29.42 52.0566 30.82L52.0566 37L54.8166 37L54.8166 30.22C54.8166 27.58 53.6766 26 51.0966 26C49.7766 26 48.5966 26.58 47.9766 27.66ZM66.7106 29.92C66.3506 27.24 64.0706 26 61.8306 26C58.6106 26 56.4306 28.36 56.4306 31.64C56.4306 34.88 58.4906 37.26 61.7106 37.26C63.9306 37.26 66.1706 36.28 66.8106 33.34H64.1706C63.8106 34.64 62.7906 35.12 61.8506 35.12C60.3306 35.12 59.2506 33.86 59.2506 31.6C59.2506 29.36 60.3906 28.14 61.8306 28.14C62.8706 28.14 63.8706 28.9 64.0706 29.92L66.7106 29.92ZM70.5964 32.38L78.5364 32.38C78.6564 28.58 76.5764 26 73.2564 26C70.0764 26 67.8564 28.38 67.8564 31.58C67.8564 34.68 69.8764 37.26 73.3364 37.26C76.2564 37.26 77.8364 35.48 78.4164 33.88L75.5764 33.88C75.0164 34.82 74.1564 35.12 73.3164 35.12C72.0164 35.12 70.7364 34.22 70.5964 32.38ZM70.6364 30.48C70.8564 28.68 72.1964 28.02 73.2364 28.02C74.3964 28.02 75.6764 28.66 75.7364 30.48L70.6364 30.48ZM86.4742 28.9L86.4742 26.3C86.2942 26.28 86.0542 26.26 85.8742 26.26C84.6342 26.26 83.6542 26.8 83.0342 28.12V26.24L80.3142 26.24L80.3142 37L83.0742 37L83.0742 31.36C83.0742 29.34 83.9742 28.84 85.3342 28.84C85.7342 28.84 86.0742 28.86 86.4742 28.9Z" fill="black"/>
<path d="M29.1 51.94C29.1 49.8 27.22 48.24 24.26 48.24C21.28 48.24 19.42 49.8 19.42 51.94C19.42 53.12 19.98 54.5 21.42 55.28C19.52 56.04 18.96 57.6 18.96 58.92C18.96 61.68 21.26 63.26 24.26 63.26C27.24 63.26 29.54 61.68 29.54 58.92C29.54 57.6 28.98 56.04 27.1 55.28C28.54 54.5 29.1 53.12 29.1 51.94ZM24.26 49.76C26.06 49.76 27.26 50.72 27.26 52.16C27.26 53.62 26.06 54.7 24.26 54.7C22.44 54.7 21.24 53.62 21.24 52.16C21.24 50.72 22.44 49.76 24.26 49.76ZM20.9 58.92C20.9 57.22 22.2 56.04 24.26 56.04C26.3 56.04 27.62 57.22 27.62 58.92C27.62 60.62 26.3 61.74 24.26 61.74C22.2 61.74 20.9 60.62 20.9 58.92ZM31.4289 48.5L31.4289 50.8H32.4089L31.3489 53.58H32.5089L33.7289 50.96V48.5H31.4289ZM45.6713 52.04C45.6713 49.6 43.7513 48.24 41.0713 48.24C37.9913 48.24 35.9913 50.14 36.0313 53.02H37.9113C37.9513 50.62 39.4713 49.76 41.0313 49.76C42.7513 49.76 43.7513 50.78 43.7513 52.28C43.7513 54.84 40.7513 57.58 35.6313 61.36L35.6313 63L46.0713 63L46.0713 61.3L38.1113 61.3C42.1713 58.38 45.6713 55.4 45.6713 52.04ZM53.4281 63.26C57.2881 63.26 59.0681 60.34 59.0681 55.74C59.0681 51.16 57.2881 48.24 53.4281 48.24C49.5681 48.24 47.7881 51.16 47.7881 55.74C47.7881 60.34 49.5681 63.26 53.4281 63.26ZM53.4281 49.76C55.7081 49.76 57.1281 51.72 57.1281 55.74C57.1281 59.78 55.7081 61.74 53.4281 61.74C51.1481 61.74 49.7281 59.78 49.7281 55.74C49.7281 51.72 51.1481 49.76 53.4281 49.76ZM66.6508 63.26C70.5108 63.26 72.2908 60.34 72.2908 55.74C72.2908 51.16 70.5108 48.24 66.6508 48.24C62.7908 48.24 61.0108 51.16 61.0108 55.74C61.0108 60.34 62.7908 63.26 66.6508 63.26ZM66.6508 49.76C68.9308 49.76 70.3508 51.72 70.3508 55.74C70.3508 59.78 68.9308 61.74 66.6508 61.74C64.3708 61.74 62.9508 59.78 62.9508 55.74C62.9508 51.72 64.3708 49.76 66.6508 49.76ZM74.5734 48.5L74.5734 50.8H75.5534L74.4934 53.58L75.6534 53.58L76.8734 50.96L76.8734 48.5H74.5734ZM84.7758 63.26C88.6358 63.26 90.4158 60.34 90.4158 55.74C90.4158 51.16 88.6358 48.24 84.7758 48.24C80.9158 48.24 79.1358 51.16 79.1358 55.74C79.1358 60.34 80.9158 63.26 84.7758 63.26ZM84.7758 49.76C87.0558 49.76 88.4758 51.72 88.4758 55.74C88.4758 59.78 87.0558 61.74 84.7758 61.74C82.4958 61.74 81.0758 59.78 81.0758 55.74C81.0758 51.72 82.4958 49.76 84.7758 49.76ZM97.9984 63.26C101.858 63.26 103.638 60.34 103.638 55.74C103.638 51.16 101.858 48.24 97.9984 48.24C94.1384 48.24 92.3584 51.16 92.3584 55.74C92.3584 60.34 94.1384 63.26 97.9984 63.26ZM97.9984 49.76C100.278 49.76 101.698 51.72 101.698 55.74C101.698 59.78 100.278 61.74 97.9984 61.74C95.7184 61.74 94.2984 59.78 94.2984 55.74C94.2984 51.72 95.7184 49.76 97.9984 49.76ZM111.221 63.26C115.081 63.26 116.861 60.34 116.861 55.74C116.861 51.16 115.081 48.24 111.221 48.24C107.361 48.24 105.581 51.16 105.581 55.74C105.581 60.34 107.361 63.26 111.221 63.26ZM111.221 49.76C113.501 49.76 114.921 51.72 114.921 55.74C114.921 59.78 113.501 61.74 111.221 61.74C108.941 61.74 107.521 59.78 107.521 55.74C107.521 51.72 108.941 49.76 111.221 49.76Z" fill="black"/>
<path d="M20 513.46L20 510.62L9.1 507.06L20 507.06L20 504.4L5.5 504.4L5.5 508.6L16.8 512.02L5.5 515.54L5.5 519.7L20 519.7L20 517.04L9.1 517.04L20 513.46ZM15.38 499.829L15.38 491.889C11.58 491.769 9 493.849 9 497.169C9 500.349 11.38 502.569 14.58 502.569C17.68 502.569 20.26 500.549 20.26 497.089C20.26 494.169 18.48 492.589 16.88 492.009L16.88 494.849C17.82 495.409 18.12 496.269 18.12 497.109C18.12 498.409 17.22 499.689 15.38 499.829ZM13.48 499.789C11.68 499.569 11.02 498.229 11.02 497.189C11.02 496.029 11.66 494.749 13.48 494.689L13.48 499.789ZM20.26 486.672C20.26 485.052 19.78 483.912 18.66 483.152C19.18 483.112 19.66 483.052 20 482.972L20 480.432C19.1 480.632 18.14 480.752 16.44 480.752C15.46 480.752 14.04 480.712 13.7 480.712C10.06 480.712 8.96 482.792 8.96 485.352C8.96 488.112 10.52 489.872 12.64 490.072L12.64 487.492C11.46 487.432 10.9 486.552 10.9 485.492C10.9 484.372 11.48 483.472 13.14 483.472L13.32 483.472C13.8 487.692 14.56 490.552 17.1 490.552C19.06 490.552 20.26 488.732 20.26 486.672ZM15.08 483.392L15.88 483.392C17.44 483.392 18.38 484.132 18.38 485.852C18.38 487.092 17.74 487.712 16.96 487.712C15.76 487.712 15.4 486.472 15.08 483.392ZM12.48 472.352L12.48 469.772C10 470.132 8.96 472.272 8.96 474.512C8.96 476.832 10.22 478.912 12.16 478.912C14.12 478.912 14.96 477.572 15.38 475.552L15.72 473.952C15.92 473.032 16.24 472.192 17.04 472.192C17.82 472.192 18.26 472.952 18.26 474.132C18.26 475.552 17.48 476.292 16.44 476.452L16.44 479.112C18.9 478.852 20.26 476.852 20.26 474.212C20.26 471.772 18.94 469.552 16.78 469.552C14.56 469.552 14.02 471.372 13.54 473.512L13.22 474.952C13 475.972 12.56 476.392 11.98 476.392C11.32 476.392 10.94 475.672 10.94 474.652C10.94 473.392 11.58 472.552 12.48 472.352ZM20 465.066L5.5 465.066L5.5 467.826L20 467.826L20 465.066ZM15.38 460.552L15.38 452.612C11.58 452.492 9 454.572 9 457.892C9 461.072 11.38 463.292 14.58 463.292C17.68 463.292 20.26 461.272 20.26 457.812C20.26 454.892 18.48 453.312 16.88 452.732L16.88 455.572C17.82 456.132 18.12 456.992 18.12 457.832C18.12 459.132 17.22 460.412 15.38 460.552ZM13.48 460.512C11.68 460.292 11.02 458.952 11.02 457.912C11.02 456.752 11.66 455.472 13.48 455.412L13.48 460.512ZM12.48 444.677L12.48 442.097C10 442.457 8.96 444.597 8.96 446.837C8.96 449.157 10.22 451.237 12.16 451.237C14.12 451.237 14.96 449.897 15.38 447.877L15.72 446.277C15.92 445.357 16.24 444.517 17.04 444.517C17.82 444.517 18.26 445.277 18.26 446.457C18.26 447.877 17.48 448.617 16.44 448.777L16.44 451.437C18.9 451.177 20.26 449.177 20.26 446.537C20.26 444.097 18.94 441.877 16.78 441.877C14.56 441.877 14.02 443.697 13.54 445.837L13.22 447.277C13 448.297 12.56 448.717 11.98 448.717C11.32 448.717 10.94 447.997 10.94 446.977C10.94 445.717 11.58 444.877 12.48 444.677Z" fill="black"/>
<path d="M42 517.4L42 515.58L27.5 515.58L27.5 516.82C29.08 517.62 29.34 518.68 29.42 520.76L30.66 520.76L30.66 517.4L42 517.4ZM37.94 504.717C39.74 504.717 40.74 506.077 40.74 507.997C40.74 510.037 39.5 511.097 37.72 511.297L37.72 513.177C40.14 512.977 42.26 511.417 42.26 508.017C42.26 505.257 40.84 502.777 37.92 502.777C36.4 502.777 34.96 503.377 34.28 505.537C33.66 504.017 32.4 503.177 30.92 503.177C28.24 503.177 27.24 505.357 27.24 507.877C27.24 510.917 29.02 512.737 31.58 512.957L31.58 511.077C29.94 510.917 28.76 509.857 28.76 507.917C28.76 506.377 29.56 505.097 31.12 505.097C32.82 505.097 33.52 506.437 33.52 508.957L33.52 509.197L35.18 509.197L35.18 508.897C35.18 506.577 35.86 504.717 37.94 504.717ZM42.26 495.298C42.26 491.438 39.34 489.658 34.74 489.658C30.16 489.658 27.24 491.438 27.24 495.298C27.24 499.158 30.16 500.938 34.74 500.938C39.34 500.938 42.26 499.158 42.26 495.298ZM28.76 495.298C28.76 493.018 30.72 491.598 34.74 491.598C38.78 491.598 40.74 493.018 40.74 495.298C40.74 497.578 38.78 498.998 34.74 498.998C30.72 498.998 28.76 497.578 28.76 495.298ZM27.5 487.376L29.8 487.376L29.8 486.396L32.58 487.456L32.58 486.296L29.96 485.076L27.5 485.076L27.5 487.376ZM42.26 477.173C42.26 473.313 39.34 471.533 34.74 471.533C30.16 471.533 27.24 473.313 27.24 477.173C27.24 481.033 30.16 482.813 34.74 482.813C39.34 482.813 42.26 481.033 42.26 477.173ZM28.76 477.173C28.76 474.893 30.72 473.473 34.74 473.473C38.78 473.473 40.74 474.893 40.74 477.173C40.74 479.453 38.78 480.873 34.74 480.873C30.72 480.873 28.76 479.453 28.76 477.173ZM42.26 463.951C42.26 460.091 39.34 458.311 34.74 458.311C30.16 458.311 27.24 460.091 27.24 463.951C27.24 467.811 30.16 469.591 34.74 469.591C39.34 469.591 42.26 467.811 42.26 463.951ZM28.76 463.951C28.76 461.671 30.72 460.251 34.74 460.251C38.78 460.251 40.74 461.671 40.74 463.951C40.74 466.231 38.78 467.651 34.74 467.651C30.72 467.651 28.76 466.231 28.76 463.951ZM42.26 450.728C42.26 446.868 39.34 445.088 34.74 445.088C30.16 445.088 27.24 446.868 27.24 450.728C27.24 454.588 30.16 456.368 34.74 456.368C39.34 456.368 42.26 454.588 42.26 450.728ZM28.76 450.728C28.76 448.448 30.72 447.028 34.74 447.028C38.78 447.028 40.74 448.448 40.74 450.728C40.74 453.008 38.78 454.428 34.74 454.428C30.72 454.428 28.76 453.008 28.76 450.728Z" fill="black"/>
<path d="M69.6 409.5H65.3L65.3 424H69.6C74.2 424 77.66 422.5 77.66 416.74C77.66 411 74.2 409.5 69.6 409.5ZM69.48 411.74C72.12 411.74 74.7 412.4 74.7 416.74C74.7 421.1 72.12 421.76 69.48 421.76H68.16L68.16 411.74H69.48ZM82.375 409.5L79.615 409.5V412.06L82.375 412.06V409.5ZM82.375 413.24L79.615 413.24L79.615 424L82.375 424L82.375 413.24ZM88.2894 424.26C89.9094 424.26 91.0494 423.78 91.8094 422.66C91.8494 423.18 91.9094 423.66 91.9894 424H94.5294C94.3294 423.1 94.2094 422.14 94.2094 420.44C94.2094 419.46 94.2494 418.04 94.2494 417.7C94.2494 414.06 92.1694 412.96 89.6094 412.96C86.8494 412.96 85.0894 414.52 84.8894 416.64H87.4694C87.5294 415.46 88.4094 414.9 89.4694 414.9C90.5894 414.9 91.4894 415.48 91.4894 417.14V417.32C87.2694 417.8 84.4094 418.56 84.4094 421.1C84.4094 423.06 86.2294 424.26 88.2894 424.26ZM91.5694 419.08V419.88C91.5694 421.44 90.8294 422.38 89.1094 422.38C87.8694 422.38 87.2494 421.74 87.2494 420.96C87.2494 419.76 88.4894 419.4 91.5694 419.08ZM102.709 415.9L102.709 413.3C102.529 413.28 102.289 413.26 102.109 413.26C100.869 413.26 99.8886 413.8 99.2686 415.12L99.2686 413.24H96.5486L96.5486 424H99.3086V418.36C99.3086 416.34 100.209 415.84 101.569 415.84C101.969 415.84 102.309 415.86 102.709 415.9ZM110.287 415.9L110.287 413.3C110.107 413.28 109.867 413.26 109.687 413.26C108.447 413.26 107.467 413.8 106.847 415.12L106.847 413.24H104.127L104.127 424H106.887V418.36C106.887 416.34 107.787 415.84 109.147 415.84C109.547 415.84 109.887 415.86 110.287 415.9ZM114.465 414.66L114.465 409.5L111.705 409.5L111.705 424L114.465 424V418.4C114.465 416.7 114.865 415.22 116.685 415.22C118.245 415.22 118.545 416.42 118.545 417.82V424H121.305V417.22C121.305 414.58 120.165 413 117.585 413C116.265 413 115.085 413.58 114.465 414.66ZM125.659 419.38H133.599C133.719 415.58 131.639 413 128.319 413C125.139 413 122.919 415.38 122.919 418.58C122.919 421.68 124.939 424.26 128.399 424.26C131.319 424.26 132.899 422.48 133.479 420.88H130.639C130.079 421.82 129.219 422.12 128.379 422.12C127.079 422.12 125.799 421.22 125.659 419.38ZM125.699 417.48C125.919 415.68 127.259 415.02 128.299 415.02C129.459 415.02 130.739 415.66 130.799 417.48H125.699ZM138.817 424.26C140.437 424.26 141.577 423.78 142.337 422.66C142.377 423.18 142.437 423.66 142.517 424H145.057C144.857 423.1 144.737 422.14 144.737 420.44C144.737 419.46 144.777 418.04 144.777 417.7C144.777 414.06 142.697 412.96 140.137 412.96C137.377 412.96 135.617 414.52 135.417 416.64H137.997C138.057 415.46 138.937 414.9 139.997 414.9C141.117 414.9 142.017 415.48 142.017 417.14V417.32C137.797 417.8 134.937 418.56 134.937 421.1C134.937 423.06 136.757 424.26 138.817 424.26ZM142.097 419.08V419.88C142.097 421.44 141.357 422.38 139.637 422.38C138.397 422.38 137.777 421.74 137.777 420.96C137.777 419.76 139.017 419.4 142.097 419.08ZM149.836 424L149.836 409.5L147.076 409.5L147.076 424L149.836 424ZM161.182 409.5H156.882L156.882 424H161.182C165.782 424 169.242 422.5 169.242 416.74C169.242 411 165.782 409.5 161.182 409.5ZM161.062 411.74C163.702 411.74 166.282 412.4 166.282 416.74C166.282 421.1 163.702 421.76 161.062 421.76H159.742L159.742 411.74H161.062ZM173.957 409.5H171.197V412.06H173.957V409.5ZM173.957 413.24H171.197L171.197 424H173.957L173.957 413.24ZM182.491 416.48H185.071C184.711 414 182.571 412.96 180.331 412.96C178.011 412.96 175.931 414.22 175.931 416.16C175.931 418.12 177.271 418.96 179.291 419.38L180.891 419.72C181.811 419.92 182.651 420.24 182.651 421.04C182.651 421.82 181.891 422.26 180.711 422.26C179.291 422.26 178.551 421.48 178.391 420.44H175.731C175.991 422.9 177.991 424.26 180.631 424.26C183.071 424.26 185.291 422.94 185.291 420.78C185.291 418.56 183.471 418.02 181.331 417.54L179.891 417.22C178.871 417 178.451 416.56 178.451 415.98C178.451 415.32 179.171 414.94 180.191 414.94C181.451 414.94 182.291 415.58 182.491 416.48ZM189.155 419.38H197.095C197.215 415.58 195.135 413 191.815 413C188.635 413 186.415 415.38 186.415 418.58C186.415 421.68 188.435 424.26 191.895 424.26C194.815 424.26 196.395 422.48 196.975 420.88H194.135C193.575 421.82 192.715 422.12 191.875 422.12C190.575 422.12 189.295 421.22 189.155 419.38ZM189.195 417.48C189.415 415.68 190.755 415.02 191.795 415.02C192.955 415.02 194.235 415.66 194.295 417.48H189.195ZM202.313 424.26C203.933 424.26 205.073 423.78 205.833 422.66C205.873 423.18 205.933 423.66 206.013 424H208.553C208.353 423.1 208.233 422.14 208.233 420.44C208.233 419.46 208.273 418.04 208.273 417.7C208.273 414.06 206.193 412.96 203.633 412.96C200.873 412.96 199.113 414.52 198.913 416.64H201.493C201.553 415.46 202.433 414.9 203.493 414.9C204.613 414.9 205.513 415.48 205.513 417.14V417.32C201.293 417.8 198.433 418.56 198.433 421.1C198.433 423.06 200.253 424.26 202.313 424.26ZM205.593 419.08V419.88C205.593 421.44 204.853 422.38 203.133 422.38C201.893 422.38 201.273 421.74 201.273 420.96C201.273 419.76 202.513 419.4 205.593 419.08ZM216.632 416.48H219.212C218.852 414 216.712 412.96 214.472 412.96C212.152 412.96 210.072 414.22 210.072 416.16C210.072 418.12 211.412 418.96 213.432 419.38L215.032 419.72C215.952 419.92 216.792 420.24 216.792 421.04C216.792 421.82 216.032 422.26 214.852 422.26C213.432 422.26 212.692 421.48 212.532 420.44H209.872C210.132 422.9 212.132 424.26 214.772 424.26C217.212 424.26 219.432 422.94 219.432 420.78C219.432 418.56 217.612 418.02 215.472 417.54L214.032 417.22C213.012 417 212.592 416.56 212.592 415.98C212.592 415.32 213.312 414.94 214.332 414.94C215.592 414.94 216.432 415.58 216.632 416.48ZM223.296 419.38H231.236C231.356 415.58 229.276 413 225.956 413C222.776 413 220.556 415.38 220.556 418.58C220.556 421.68 222.576 424.26 226.036 424.26C228.956 424.26 230.536 422.48 231.116 420.88H228.276C227.716 421.82 226.856 422.12 226.016 422.12C224.716 422.12 223.436 421.22 223.296 419.38ZM223.336 417.48C223.556 415.68 224.896 415.02 225.936 415.02C227.096 415.02 228.376 415.66 228.436 417.48H223.336Z" fill="black"/>
<path d="M67.6 450H69.42L69.42 435.5H68.18C67.38 437.08 66.32 437.34 64.24 437.42V438.66H67.6L67.6 450ZM72.6633 435.5V437.8H73.6433L72.5833 440.58H73.7433L74.9633 437.96V435.5H72.6633ZM86.5088 446.42V444.7H83.8488L83.8488 435.5H81.9888L74.8088 444.7V446.42L82.0088 446.42V450H83.8488V446.42H86.5088ZM76.8288 444.7L82.0088 438L82.0088 444.7L76.8288 444.7ZM93.5492 450.26C97.4092 450.26 99.1892 447.34 99.1892 442.74C99.1892 438.16 97.4092 435.24 93.5492 435.24C89.6892 435.24 87.9092 438.16 87.9092 442.74C87.9092 447.34 89.6892 450.26 93.5492 450.26ZM93.5492 436.76C95.8292 436.76 97.2492 438.72 97.2492 442.74C97.2492 446.78 95.8292 448.74 93.5492 448.74C91.2692 448.74 89.8492 446.78 89.8492 442.74C89.8492 438.72 91.2692 436.76 93.5492 436.76ZM106.772 450.26C110.632 450.26 112.412 447.34 112.412 442.74C112.412 438.16 110.632 435.24 106.772 435.24C102.912 435.24 101.132 438.16 101.132 442.74C101.132 447.34 102.912 450.26 106.772 450.26ZM106.772 436.76C109.052 436.76 110.472 438.72 110.472 442.74C110.472 446.78 109.052 448.74 106.772 448.74C104.492 448.74 103.072 446.78 103.072 442.74C103.072 438.72 104.492 436.76 106.772 436.76ZM114.695 435.5L114.695 437.8H115.675L114.615 440.58H115.775L116.995 437.96L116.995 435.5H114.695ZM124.897 450.26C128.757 450.26 130.537 447.34 130.537 442.74C130.537 438.16 128.757 435.24 124.897 435.24C121.037 435.24 119.257 438.16 119.257 442.74C119.257 447.34 121.037 450.26 124.897 450.26ZM124.897 436.76C127.177 436.76 128.597 438.72 128.597 442.74C128.597 446.78 127.177 448.74 124.897 448.74C122.617 448.74 121.197 446.78 121.197 442.74C121.197 438.72 122.617 436.76 124.897 436.76ZM138.12 450.26C141.98 450.26 143.76 447.34 143.76 442.74C143.76 438.16 141.98 435.24 138.12 435.24C134.26 435.24 132.48 438.16 132.48 442.74C132.48 447.34 134.26 450.26 138.12 450.26ZM138.12 436.76C140.4 436.76 141.82 438.72 141.82 442.74C141.82 446.78 140.4 448.74 138.12 448.74C135.84 448.74 134.42 446.78 134.42 442.74C134.42 438.72 135.84 436.76 138.12 436.76ZM151.342 450.26C155.202 450.26 156.982 447.34 156.982 442.74C156.982 438.16 155.202 435.24 151.342 435.24C147.482 435.24 145.702 438.16 145.702 442.74C145.702 447.34 147.482 450.26 151.342 450.26ZM151.342 436.76C153.622 436.76 155.042 438.72 155.042 442.74C155.042 446.78 153.622 448.74 151.342 448.74C149.062 448.74 147.642 446.78 147.642 442.74C147.642 438.72 149.062 436.76 151.342 436.76Z" fill="black"/>
<path d="M711.24 507.14L711.24 509.86C713.2 510.32 713.98 511.74 713.98 513.46C713.98 515.56 712.14 517.24 708.68 517.24C705.32 517.24 703.52 515.56 703.52 513.36C703.52 511.76 704.18 510.4 706.2 509.86L706.2 507.14C703.18 507.62 701.24 509.94 701.24 513.34C701.24 517.56 704.1 520.2 708.68 520.2C713.3 520.2 716.26 517.72 716.26 513.42C716.26 509.94 714.16 507.52 711.24 507.14ZM706.66 502.625L701.5 502.625L701.5 505.385L716 505.385L716 502.625L710.4 502.625C708.7 502.625 707.22 502.225 707.22 500.405C707.22 498.845 708.42 498.545 709.82 498.545L716 498.545L716 495.785L709.22 495.785C706.58 495.785 705 496.925 705 499.505C705 500.825 705.58 502.005 706.66 502.625ZM710.64 494.191C714.42 494.191 716.26 491.511 716.26 488.791C716.26 486.071 714.42 483.391 710.64 483.391C706.86 483.391 705 486.071 705 488.791C705 491.511 706.86 494.191 710.64 494.191ZM710.64 491.391C708.38 491.391 707.16 490.311 707.16 488.791C707.16 487.271 708.38 486.191 710.64 486.191C712.88 486.191 714.1 487.271 714.1 488.791C714.1 490.311 712.88 491.391 710.64 491.391ZM716 478.875L701.5 478.875L701.5 481.635L716 481.635L716 478.875ZM711.38 474.361L711.38 466.421C707.58 466.301 705 468.381 705 471.701C705 474.881 707.38 477.101 710.58 477.101C713.68 477.101 716.26 475.081 716.26 471.621C716.26 468.701 714.48 467.121 712.88 466.541L712.88 469.381C713.82 469.941 714.12 470.801 714.12 471.641C714.12 472.941 713.22 474.221 711.38 474.361ZM709.48 474.321C707.68 474.101 707.02 472.761 707.02 471.721C707.02 470.561 707.66 469.281 709.48 469.221L709.48 474.321ZM707.9 458.483L705.3 458.483C705.28 458.663 705.26 458.903 705.26 459.083C705.26 460.323 705.8 461.303 707.12 461.923L705.24 461.923L705.24 464.643L716 464.643L716 461.883L710.36 461.883C708.34 461.883 707.84 460.983 707.84 459.623C707.84 459.223 707.86 458.883 707.9 458.483ZM716.26 454.015C716.26 452.395 715.78 451.255 714.66 450.495C715.18 450.455 715.66 450.395 716 450.315L716 447.775C715.1 447.975 714.14 448.095 712.44 448.095C711.46 448.095 710.04 448.055 709.7 448.055C706.06 448.055 704.96 450.135 704.96 452.695C704.96 455.455 706.52 457.215 708.64 457.415L708.64 454.835C707.46 454.775 706.9 453.895 706.9 452.835C706.9 451.715 707.48 450.815 709.14 450.815L709.32 450.815C709.8 455.035 710.56 457.895 713.1 457.895C715.06 457.895 716.26 456.075 716.26 454.015ZM711.08 450.735L711.88 450.735C713.44 450.735 714.38 451.475 714.38 453.195C714.38 454.435 713.74 455.055 712.96 455.055C711.76 455.055 711.4 453.815 711.08 450.735Z" fill="black"/>
<path d="M738 517.4L738 515.58L723.5 515.58L723.5 516.82C725.08 517.62 725.34 518.68 725.42 520.76L726.66 520.76L726.66 517.4L738 517.4ZM727.04 502.997C724.6 502.997 723.24 504.917 723.24 507.597C723.24 510.677 725.14 512.677 728.02 512.637L728.02 510.757C725.62 510.717 724.76 509.197 724.76 507.637C724.76 505.917 725.78 504.917 727.28 504.917C729.84 504.917 732.58 507.917 736.36 513.037L738 513.037L738 502.597L736.3 502.597L736.3 510.557C733.38 506.497 730.4 502.997 727.04 502.997ZM738.26 495.24C738.26 491.38 735.34 489.6 730.74 489.6C726.16 489.6 723.24 491.38 723.24 495.24C723.24 499.1 726.16 500.88 730.74 500.88C735.34 500.88 738.26 499.1 738.26 495.24ZM724.76 495.24C724.76 492.96 726.72 491.54 730.74 491.54C734.78 491.54 736.74 492.96 736.74 495.24C736.74 497.52 734.78 498.94 730.74 498.94C726.72 498.94 724.76 497.52 724.76 495.24ZM723.5 487.317L725.8 487.317L725.8 486.337L728.58 487.397L728.58 486.237L725.96 485.017L723.5 485.017L723.5 487.317ZM738.26 477.115C738.26 473.255 735.34 471.475 730.74 471.475C726.16 471.475 723.24 473.255 723.24 477.115C723.24 480.975 726.16 482.755 730.74 482.755C735.34 482.755 738.26 480.975 738.26 477.115ZM724.76 477.115C724.76 474.835 726.72 473.415 730.74 473.415C734.78 473.415 736.74 474.835 736.74 477.115C736.74 479.395 734.78 480.815 730.74 480.815C726.72 480.815 724.76 479.395 724.76 477.115ZM738.26 463.892C738.26 460.032 735.34 458.252 730.74 458.252C726.16 458.252 723.24 460.032 723.24 463.892C723.24 467.752 726.16 469.532 730.74 469.532C735.34 469.532 738.26 467.752 738.26 463.892ZM724.76 463.892C724.76 461.612 726.72 460.192 730.74 460.192C734.78 460.192 736.74 461.612 736.74 463.892C736.74 466.172 734.78 467.592 730.74 467.592C726.72 467.592 724.76 466.172 724.76 463.892ZM738.26 450.67C738.26 446.81 735.34 445.03 730.74 445.03C726.16 445.03 723.24 446.81 723.24 450.67C723.24 454.53 726.16 456.31 730.74 456.31C735.34 456.31 738.26 454.53 738.26 450.67ZM724.76 450.67C724.76 448.39 726.72 446.97 730.74 446.97C734.78 446.97 736.74 448.39 736.74 450.67C736.74 452.95 734.78 454.37 730.74 454.37C726.72 454.37 724.76 452.95 724.76 450.67Z" fill="black"/>
<path d="M667.716 1028.82L667.716 1041L670.576 1041L670.576 1028.82L675.056 1028.82L675.056 1026.5L663.256 1026.5L663.256 1028.82L667.716 1028.82ZM676.319 1036.38L684.259 1036.38C684.379 1032.58 682.299 1030 678.979 1030C675.799 1030 673.579 1032.38 673.579 1035.58C673.579 1038.68 675.599 1041.26 679.059 1041.26C681.979 1041.26 683.559 1039.48 684.139 1037.88L681.299 1037.88C680.739 1038.82 679.879 1039.12 679.039 1039.12C677.739 1039.12 676.459 1038.22 676.319 1036.38ZM676.359 1034.48C676.579 1032.68 677.919 1032.02 678.959 1032.02C680.119 1032.02 681.399 1032.66 681.459 1034.48L676.359 1034.48ZM686.417 1027.32L686.417 1030.24L684.897 1030.24L684.897 1032.14L686.417 1032.14L686.417 1038.1C686.417 1040.24 686.897 1041 689.357 1041L691.377 1041L691.377 1039.02L690.537 1039.02C689.557 1039.02 689.177 1038.8 689.177 1037.7L689.177 1032.14L691.417 1032.14L691.417 1030.24L689.177 1030.24L689.177 1027.32L686.417 1027.32ZM696.625 1041.26C698.245 1041.26 699.385 1040.78 700.145 1039.66C700.185 1040.18 700.245 1040.66 700.325 1041L702.865 1041C702.665 1040.1 702.545 1039.14 702.545 1037.44C702.545 1036.46 702.585 1035.04 702.585 1034.7C702.585 1031.06 700.505 1029.96 697.945 1029.96C695.185 1029.96 693.425 1031.52 693.225 1033.64L695.805 1033.64C695.865 1032.46 696.745 1031.9 697.805 1031.9C698.925 1031.9 699.825 1032.48 699.825 1034.14L699.825 1034.32C695.605 1034.8 692.745 1035.56 692.745 1038.1C692.745 1040.06 694.565 1041.26 696.625 1041.26ZM699.905 1036.08L699.905 1036.88C699.905 1038.44 699.165 1039.38 697.445 1039.38C696.205 1039.38 695.585 1038.74 695.585 1037.96C695.585 1036.76 696.825 1036.4 699.905 1036.08ZM707.645 1031.66L707.645 1030.24L704.885 1030.24L704.885 1041L707.645 1041L707.645 1035.4C707.645 1033.7 708.045 1032.22 709.865 1032.22C711.425 1032.22 711.725 1033.42 711.725 1034.82L711.725 1041L714.485 1041L714.485 1034.22C714.485 1031.58 713.345 1030 710.765 1030C709.445 1030 708.265 1030.58 707.645 1031.66ZM723.419 1039.58L723.419 1041L726.179 1041L726.179 1030.24L723.419 1030.24L723.419 1035.84C723.419 1037.54 722.999 1039.04 721.179 1039.04C719.619 1039.04 719.419 1037.88 719.419 1036.44L719.419 1030.24L716.659 1030.24L716.659 1037.04C716.659 1039.68 717.699 1041.26 720.279 1041.26C721.599 1041.26 722.799 1040.66 723.419 1039.58ZM734.714 1033.48L737.294 1033.48C736.934 1031 734.794 1029.96 732.554 1029.96C730.234 1029.96 728.154 1031.22 728.154 1033.16C728.154 1035.12 729.494 1035.96 731.514 1036.38L733.114 1036.72C734.034 1036.92 734.874 1037.24 734.874 1038.04C734.874 1038.82 734.114 1039.26 732.934 1039.26C731.514 1039.26 730.774 1038.48 730.614 1037.44L727.954 1037.44C728.214 1039.9 730.214 1041.26 732.854 1041.26C735.294 1041.26 737.514 1039.94 737.514 1037.78C737.514 1035.56 735.694 1035.02 733.554 1034.54L732.114 1034.22C731.094 1034 730.674 1033.56 730.674 1032.98C730.674 1032.32 731.394 1031.94 732.414 1031.94C733.674 1031.94 734.514 1032.58 734.714 1033.48Z" fill="black"/>
<path d="M670.742 1053.36C670.842 1050 672.062 1047.76 674.302 1047.76C675.782 1047.76 676.782 1048.56 677.022 1049.86L679.002 1049.86C678.702 1048.02 677.362 1046.24 674.522 1046.24C670.322 1046.24 668.862 1050.16 668.862 1054.26C668.862 1058.74 670.522 1061.26 674.142 1061.26C677.242 1061.26 679.242 1058.96 679.242 1056.26C679.242 1053.36 677.262 1051.34 674.562 1051.34C672.642 1051.34 671.402 1052.22 670.742 1053.36ZM674.122 1059.74C672.202 1059.74 670.962 1058.36 670.962 1056.36C670.962 1054.38 672.242 1052.92 674.142 1052.92C676.002 1052.92 677.302 1054.38 677.302 1056.36C677.302 1058.34 675.982 1059.74 674.122 1059.74ZM686.807 1061.26C690.667 1061.26 692.447 1058.34 692.447 1053.74C692.447 1049.16 690.667 1046.24 686.807 1046.24C682.947 1046.24 681.167 1049.16 681.167 1053.74C681.167 1058.34 682.947 1061.26 686.807 1061.26ZM686.807 1047.76C689.087 1047.76 690.507 1049.72 690.507 1053.74C690.507 1057.78 689.087 1059.74 686.807 1059.74C684.527 1059.74 683.107 1057.78 683.107 1053.74C683.107 1049.72 684.527 1047.76 686.807 1047.76ZM694.73 1046.5L694.73 1048.8L695.71 1048.8L694.65 1051.58L695.81 1051.58L697.03 1048.96L697.03 1046.5L694.73 1046.5ZM704.932 1061.26C708.792 1061.26 710.572 1058.34 710.572 1053.74C710.572 1049.16 708.792 1046.24 704.932 1046.24C701.072 1046.24 699.292 1049.16 699.292 1053.74C699.292 1058.34 701.072 1061.26 704.932 1061.26ZM704.932 1047.76C707.212 1047.76 708.632 1049.72 708.632 1053.74C708.632 1057.78 707.212 1059.74 704.932 1059.74C702.652 1059.74 701.232 1057.78 701.232 1053.74C701.232 1049.72 702.652 1047.76 704.932 1047.76ZM718.155 1061.26C722.015 1061.26 723.795 1058.34 723.795 1053.74C723.795 1049.16 722.015 1046.24 718.155 1046.24C714.295 1046.24 712.515 1049.16 712.515 1053.74C712.515 1058.34 714.295 1061.26 718.155 1061.26ZM718.155 1047.76C720.435 1047.76 721.855 1049.72 721.855 1053.74C721.855 1057.78 720.435 1059.74 718.155 1059.74C715.875 1059.74 714.455 1057.78 714.455 1053.74C714.455 1049.72 715.875 1047.76 718.155 1047.76ZM731.377 1061.26C735.237 1061.26 737.017 1058.34 737.017 1053.74C737.017 1049.16 735.237 1046.24 731.377 1046.24C727.517 1046.24 725.737 1049.16 725.737 1053.74C725.737 1058.34 727.517 1061.26 731.377 1061.26ZM731.377 1047.76C733.657 1047.76 735.077 1049.72 735.077 1053.74C735.077 1057.78 733.657 1059.74 731.377 1059.74C729.097 1059.74 727.677 1057.78 727.677 1053.74C727.677 1049.72 729.097 1047.76 731.377 1047.76Z" fill="black"/>
</g>
<defs>
<clipPath id="clip0_904_78">
<rect width="742" height="1072" fill="white"/>
</clipPath>
</defs>
</svg>
