<svg width="742" height="1072" viewBox="0 0 742 1072" fill="none" xmlns="http://www.w3.org/2000/svg">
<g clip-path="url(#clip0_904_78)">
<path d="M741 1061L741 1050C741 1044.48 736.523 1040 731 1040L672 1040C666.477 1040 662 1044.48 662 1050L662 1061C662 1066.52 666.477 1071 672 1071L731 1071C736.523 1071 741 1066.52 741 1061Z" fill="#E0DFDF" stroke="#FF3A17" stroke-miterlimit="10"/>
<path d="M741 1017L741 558C741 549.716 734.284 543 726 543L677 543C668.716 543 662 549.716 662 558L662 1017C662 1025.28 668.716 1032 677 1032L726 1032C734.284 1032 741 1025.28 741 1017Z" fill="#E0DFDF" stroke="#FF3A17" stroke-miterlimit="10"/>
<path d="M656 1056L656 558C656 549.716 649.284 543 641 543L15 543C6.71576 543 -2.93553e-07 549.716 -6.5567e-07 558L-2.24239e-05 1056C-2.27861e-05 1064.28 6.71574 1071 15 1071L641 1071C649.284 1071 656 1064.28 656 1056Z" fill="#FF46EC" stroke="#FF3A17" stroke-miterlimit="10"/>
<path d="M741 524L741 399C741 393.477 736.523 389 731 389L708 389C702.477 389 698 393.477 698 399L698 524C698 529.523 702.477 534 708 534L731 534C736.523 534 741 529.523 741 524Z" fill="#E0DFDF" stroke="#FF3A17" stroke-miterlimit="10"/>
<path d="M44 524L44 399C44 393.477 39.5228 389 34 389L10 389C4.47716 389 7.43369e-06 393.477 7.19228e-06 399L1.72836e-06 524C1.48695e-06 529.523 4.47716 534 10 534L34 534C39.5228 534 44 529.523 44 524Z" fill="#E0DFDF" stroke="#FF3A17" stroke-miterlimit="10"/>
<path d="M356 519L356 404C356 395.716 349.284 389 341 389L63 389C54.7157 389 48 395.716 48 404L48 519C48 527.284 54.7157 534 63 534L341 534C349.284 534 356 527.284 356 519Z" fill="#E0DFDF" stroke="#FF3A17" stroke-miterlimit="10"/>
<path d="M695 519L695 404C695 395.716 688.284 389 680 389L374 389C365.716 389 359 395.716 359 404L359 519C359 527.284 365.716 534 374 534L680 534C688.284 534 695 527.284 695 519Z" fill="#E0DFDF" stroke="#FF3A17" stroke-miterlimit="10"/>
<path d="M741 365L741 16C741 7.71573 734.284 1 726 0.999999L16 0.999968C7.7157 0.999968 1 7.7157 0.999999 16L0.999984 365C0.999984 373.284 7.71574 380 16 380L726 380C734.284 380 741 373.284 741 365Z" fill="#E0DFDF" stroke="#FF3A17" stroke-miterlimit="10"/>
<path d="M19.7 559.75L17 567H18.46L18.97 565.53H21.79L22.3 567H23.85L21.14 559.75H19.7ZM19.38 564.36L20.38 561.5L21.38 564.36H19.38ZM25.8457 562.33V561.62H24.4657L24.4657 567H25.8457L25.8457 564.2C25.8457 563.35 26.0457 562.61 26.9557 562.61C27.7357 562.61 27.8857 563.21 27.8857 563.91L27.8857 567H29.2657L29.2657 563.61C29.2657 562.29 28.6957 561.5 27.4057 561.5C26.7457 561.5 26.1557 561.79 25.8457 562.33ZM30.6127 560.16V561.62H29.8527V562.57H30.6127L30.6127 565.55C30.6127 566.62 30.8527 567 32.0827 567H33.0927V566.01H32.6727C32.1827 566.01 31.9927 565.9 31.9927 565.35L31.9927 562.57H33.1127L33.1127 561.62H31.9927V560.16H30.6127ZM35.377 559.75H33.997L33.997 561.03H35.377L35.377 559.75ZM35.377 561.62H33.997L33.997 567H35.377L35.377 561.62ZM42.3741 562.61C43.1841 562.61 43.2341 563.28 43.2341 563.87V567H44.6141V563.61C44.6141 562.34 44.1441 561.5 42.7941 561.5C41.9841 561.5 41.4441 561.78 41.0241 562.38C40.8141 561.99 40.4141 561.5 39.4941 561.5C38.8441 561.5 38.2941 561.8 37.9941 562.33L37.9941 561.62H36.6141L36.6141 567H37.9941V564.2C37.9941 563.38 38.1441 562.61 39.0641 562.61C39.8741 562.61 39.9241 563.28 39.9241 563.87V567H41.3041V564.2C41.3041 563.38 41.4541 562.61 42.3741 562.61ZM47.1543 559.75H45.7743L45.7743 561.03H47.1543L47.1543 559.75ZM47.1543 561.62H45.7743L45.7743 567H47.1543L47.1543 561.62ZM53.1815 563.46C53.0015 562.12 51.8615 561.5 50.7415 561.5C49.1315 561.5 48.0415 562.68 48.0415 564.32C48.0415 565.94 49.0715 567.13 50.6815 567.13C51.7915 567.13 52.9115 566.64 53.2315 565.17H51.9115C51.7315 565.82 51.2215 566.06 50.7515 566.06C49.9915 566.06 49.4515 565.43 49.4515 564.3C49.4515 563.18 50.0215 562.57 50.7415 562.57C51.2615 562.57 51.7615 562.95 51.8615 563.46H53.1815ZM57.1355 562.95V561.65C57.0455 561.64 56.9255 561.63 56.8355 561.63C56.2155 561.63 55.7255 561.9 55.4155 562.56V561.62H54.0555L54.0555 567H55.4355V564.18C55.4355 563.17 55.8855 562.92 56.5655 562.92C56.7655 562.92 56.9355 562.93 57.1355 562.95ZM57.4846 564.32C57.4846 566.21 58.8246 567.13 60.1846 567.13C61.5446 567.13 62.8846 566.21 62.8846 564.32C62.8846 562.43 61.5446 561.5 60.1846 561.5C58.8246 561.5 57.4846 562.43 57.4846 564.32ZM58.8846 564.32C58.8846 563.19 59.4246 562.58 60.1846 562.58C60.9446 562.58 61.4846 563.19 61.4846 564.32C61.4846 565.44 60.9446 566.05 60.1846 566.05C59.4246 566.05 58.8846 565.44 58.8846 564.32ZM63.7626 567H65.1426V566.32C65.4826 566.91 66.1326 567.13 66.6926 567.13C67.9726 567.13 69.0326 566.03 69.0326 564.31C69.0326 562.62 67.9926 561.5 66.6926 561.5C66.0126 561.5 65.4326 561.81 65.1426 562.31V559.75H63.7626L63.7626 567ZM67.5826 564.32C67.5826 565.37 67.0626 566.07 66.3526 566.07C65.5926 566.07 65.0926 565.41 65.0926 564.31C65.0926 563.23 65.5926 562.56 66.3526 562.56C67.0626 562.56 67.5826 563.27 67.5826 564.32ZM71.3047 559.75H69.9247V561.03H71.3047V559.75ZM71.3047 561.62H69.9247L69.9247 567H71.3047L71.3047 561.62ZM74.2619 567.13C75.0719 567.13 75.6419 566.89 76.0219 566.33C76.0419 566.59 76.0719 566.83 76.1119 567H77.3819C77.2819 566.55 77.2219 566.07 77.2219 565.22C77.2219 564.73 77.2419 564.02 77.2419 563.85C77.2419 562.03 76.2019 561.48 74.9219 561.48C73.5419 561.48 72.6619 562.26 72.5619 563.32H73.8519C73.8819 562.73 74.3219 562.45 74.8519 562.45C75.4119 562.45 75.8619 562.74 75.8619 563.57V563.66C73.7519 563.9 72.3219 564.28 72.3219 565.55C72.3219 566.53 73.2319 567.13 74.2619 567.13ZM75.9019 564.54V564.94C75.9019 565.72 75.5319 566.19 74.6719 566.19C74.0519 566.19 73.7419 565.87 73.7419 565.48C73.7419 564.88 74.3619 564.7 75.9019 564.54ZM79.7715 567L79.7715 559.75H78.3915L78.3915 567H79.7715ZM86.2445 564.16L87.6845 567H89.2745L87.6645 563.86C88.5645 563.48 88.9745 562.78 88.9745 561.95C88.9745 560.43 88.0645 559.75 85.6745 559.75H83.2945L83.2945 567H84.7245V564.16H86.2445ZM84.7245 560.87H85.8345C86.8045 560.87 87.5045 561.12 87.5045 561.96C87.5045 562.67 87.0145 563.05 85.9045 563.05H84.7245L84.7245 560.87ZM90.9447 564.69H94.9147C94.9747 562.79 93.9347 561.5 92.2747 561.5C90.6847 561.5 89.5747 562.69 89.5747 564.29C89.5747 565.84 90.5847 567.13 92.3147 567.13C93.7747 567.13 94.5647 566.24 94.8547 565.44H93.4347C93.1547 565.91 92.7247 566.06 92.3047 566.06C91.6547 566.06 91.0147 565.61 90.9447 564.69ZM90.9647 563.74C91.0747 562.84 91.7447 562.51 92.2647 562.51C92.8447 562.51 93.4847 562.83 93.5147 563.74H90.9647ZM98.8824 563.24H100.172C99.9924 562 98.9224 561.48 97.8024 561.48C96.6424 561.48 95.6024 562.11 95.6024 563.08C95.6024 564.06 96.2724 564.48 97.2824 564.69L98.0824 564.86C98.5424 564.96 98.9624 565.12 98.9624 565.52C98.9624 565.91 98.5824 566.13 97.9924 566.13C97.2824 566.13 96.9124 565.74 96.8324 565.22H95.5024C95.6324 566.45 96.6324 567.13 97.9524 567.13C99.1724 567.13 100.282 566.47 100.282 565.39C100.282 564.28 99.3724 564.01 98.3024 563.77L97.5824 563.61C97.0724 563.5 96.8624 563.28 96.8624 562.99C96.8624 562.66 97.2224 562.47 97.7324 562.47C98.3624 562.47 98.7824 562.79 98.8824 563.24ZM102.525 559.75H101.145V561.03H102.525V559.75ZM102.525 561.62H101.145V567H102.525V561.62ZM106.793 563.24H108.083C107.903 562 106.833 561.48 105.713 561.48C104.553 561.48 103.513 562.11 103.513 563.08C103.513 564.06 104.183 564.48 105.193 564.69L105.993 564.86C106.453 564.96 106.873 565.12 106.873 565.52C106.873 565.91 106.493 566.13 105.903 566.13C105.193 566.13 104.823 565.74 104.743 565.22H103.413C103.543 566.45 104.543 567.13 105.863 567.13C107.083 567.13 108.193 566.47 108.193 565.39C108.193 564.28 107.283 564.01 106.213 563.77L105.493 563.61C104.983 563.5 104.773 563.28 104.773 562.99C104.773 562.66 105.133 562.47 105.643 562.47C106.273 562.47 106.693 562.79 106.793 563.24ZM109.314 560.16L109.314 561.62H108.554V562.57H109.314V565.55C109.314 566.62 109.554 567 110.784 567H111.794V566.01H111.374C110.884 566.01 110.694 565.9 110.694 565.35V562.57H111.814V561.62H110.694L110.694 560.16H109.314ZM114.418 567.13C115.228 567.13 115.798 566.89 116.178 566.33C116.198 566.59 116.228 566.83 116.268 567H117.538C117.438 566.55 117.378 566.07 117.378 565.22C117.378 564.73 117.398 564.02 117.398 563.85C117.398 562.03 116.358 561.48 115.078 561.48C113.698 561.48 112.818 562.26 112.718 563.32H114.008C114.038 562.73 114.478 562.45 115.008 562.45C115.568 562.45 116.018 562.74 116.018 563.57V563.66C113.908 563.9 112.478 564.28 112.478 565.55C112.478 566.53 113.388 567.13 114.418 567.13ZM116.058 564.54V564.94C116.058 565.72 115.688 566.19 114.828 566.19C114.208 566.19 113.898 565.87 113.898 565.48C113.898 564.88 114.518 564.7 116.058 564.54ZM119.928 562.33V561.62H118.548V567H119.928V564.2C119.928 563.35 120.128 562.61 121.038 562.61C121.818 562.61 121.968 563.21 121.968 563.91V567H123.348V563.61C123.348 562.29 122.778 561.5 121.488 561.5C120.828 561.5 120.238 561.79 119.928 562.33ZM129.295 563.46C129.115 562.12 127.975 561.5 126.855 561.5C125.245 561.5 124.155 562.68 124.155 564.32C124.155 565.94 125.185 567.13 126.795 567.13C127.905 567.13 129.025 566.64 129.345 565.17H128.025C127.845 565.82 127.335 566.06 126.865 566.06C126.105 566.06 125.565 565.43 125.565 564.3C125.565 563.18 126.135 562.57 126.855 562.57C127.375 562.57 127.875 562.95 127.975 563.46H129.295ZM131.238 564.69H135.208C135.268 562.79 134.228 561.5 132.568 561.5C130.978 561.5 129.868 562.69 129.868 564.29C129.868 565.84 130.878 567.13 132.608 567.13C134.068 567.13 134.858 566.24 135.148 565.44H133.728C133.448 565.91 133.018 566.06 132.598 566.06C131.948 566.06 131.308 565.61 131.238 564.69ZM131.258 563.74C131.368 562.84 132.038 562.51 132.558 562.51C133.138 562.51 133.778 562.83 133.808 563.74H131.258Z" fill="#E0DFDF"/>
<path d="M19.8 585H20.71L20.71 577.75H20.09C19.69 578.54 19.16 578.67 18.12 578.71V579.33H19.8L19.8 585ZM24.9816 585.13C26.9116 585.13 27.8016 583.67 27.8016 581.37C27.8016 579.08 26.9116 577.62 24.9816 577.62C23.0516 577.62 22.1616 579.08 22.1616 581.37C22.1616 583.67 23.0516 585.13 24.9816 585.13ZM24.9816 578.38C26.1216 578.38 26.8316 579.36 26.8316 581.37C26.8316 583.39 26.1216 584.37 24.9816 584.37C23.8416 584.37 23.1316 583.39 23.1316 581.37C23.1316 579.36 23.8416 578.38 24.9816 578.38ZM28.943 577.75V578.9H29.433L28.903 580.29H29.483L30.093 578.98V577.75H28.943ZM34.0441 585.13C35.9741 585.13 36.8641 583.67 36.8641 581.37C36.8641 579.08 35.9741 577.62 34.0441 577.62C32.1141 577.62 31.2241 579.08 31.2241 581.37C31.2241 583.67 32.1141 585.13 34.0441 585.13ZM34.0441 578.38C35.1841 578.38 35.8941 579.36 35.8941 581.37C35.8941 583.39 35.1841 584.37 34.0441 584.37C32.9041 584.37 32.1941 583.39 32.1941 581.37C32.1941 579.36 32.9041 578.38 34.0441 578.38ZM40.6555 585.13C42.5855 585.13 43.4755 583.67 43.4755 581.37C43.4755 579.08 42.5855 577.62 40.6555 577.62C38.7255 577.62 37.8355 579.08 37.8355 581.37C37.8355 583.67 38.7255 585.13 40.6555 585.13ZM40.6555 578.38C41.7955 578.38 42.5055 579.36 42.5055 581.37C42.5055 583.39 41.7955 584.37 40.6555 584.37C39.5155 584.37 38.8055 583.39 38.8055 581.37C38.8055 579.36 39.5155 578.38 40.6555 578.38ZM45.7668 585H46.6768L46.6768 577.75H46.0568C45.6568 578.54 45.1268 578.67 44.0868 578.71V579.33H45.7668L45.7668 585ZM48.2984 577.75L48.2984 578.9H48.7884L48.2584 580.29H48.8384L49.4484 578.98L49.4484 577.75H48.2984ZM53.3996 585.13C55.3296 585.13 56.2196 583.67 56.2196 581.37C56.2196 579.08 55.3296 577.62 53.3996 577.62C51.4696 577.62 50.5796 579.08 50.5796 581.37C50.5796 583.67 51.4696 585.13 53.3996 585.13ZM53.3996 578.38C54.5396 578.38 55.2496 579.36 55.2496 581.37C55.2496 583.39 54.5396 584.37 53.3996 584.37C52.2596 584.37 51.5496 583.39 51.5496 581.37C51.5496 579.36 52.2596 578.38 53.3996 578.38ZM60.0109 585.13C61.9409 585.13 62.8309 583.67 62.8309 581.37C62.8309 579.08 61.9409 577.62 60.0109 577.62C58.0809 577.62 57.1909 579.08 57.1909 581.37C57.1909 583.67 58.0809 585.13 60.0109 585.13ZM60.0109 578.38C61.1509 578.38 61.8609 579.36 61.8609 581.37C61.8609 583.39 61.1509 584.37 60.0109 584.37C58.8709 584.37 58.1609 583.39 58.1609 581.37C58.1609 579.36 58.8709 578.38 60.0109 578.38ZM66.6223 585.13C68.5523 585.13 69.4423 583.67 69.4423 581.37C69.4423 579.08 68.5523 577.62 66.6223 577.62C64.6923 577.62 63.8023 579.08 63.8023 581.37C63.8023 583.67 64.6923 585.13 66.6223 585.13ZM66.6223 578.38C67.7623 578.38 68.4723 579.36 68.4723 581.37C68.4723 583.39 67.7623 584.37 66.6223 584.37C65.4823 584.37 64.7723 583.39 64.7723 581.37C64.7723 579.36 65.4823 578.38 66.6223 578.38Z" fill="#E0DFDF"/>
<path d="M672.8 598L673.71 598L673.71 590.75L673.09 590.75C672.69 591.54 672.16 591.67 671.12 591.71L671.12 592.33L672.8 592.33L672.8 598ZM675.332 590.75L675.332 591.9L675.822 591.9L675.292 593.29L675.872 593.29L676.482 591.98L676.482 590.75L675.332 590.75ZM682.453 592.52C682.453 591.3 681.493 590.62 680.153 590.62C678.613 590.62 677.613 591.57 677.633 593.01L678.573 593.01C678.593 591.81 679.353 591.38 680.133 591.38C680.993 591.38 681.493 591.89 681.493 592.64C681.493 593.92 679.993 595.29 677.433 597.18L677.433 598L682.653 598L682.653 597.15L678.673 597.15C680.703 595.69 682.453 594.2 682.453 592.52ZM686.331 598.13C688.261 598.13 689.151 596.67 689.151 594.37C689.151 592.08 688.261 590.62 686.331 590.62C684.401 590.62 683.511 592.08 683.511 594.37C683.511 596.67 684.401 598.13 686.331 598.13ZM686.331 591.38C687.471 591.38 688.181 592.36 688.181 594.37C688.181 596.39 687.471 597.37 686.331 597.37C685.191 597.37 684.481 596.39 684.481 594.37C684.481 592.36 685.191 591.38 686.331 591.38ZM692.943 598.13C694.873 598.13 695.763 596.67 695.763 594.37C695.763 592.08 694.873 590.62 692.943 590.62C691.013 590.62 690.123 592.08 690.123 594.37C690.123 596.67 691.013 598.13 692.943 598.13ZM692.943 591.38C694.083 591.38 694.793 592.36 694.793 594.37C694.793 596.39 694.083 597.37 692.943 597.37C691.803 597.37 691.093 596.39 691.093 594.37C691.093 592.36 691.803 591.38 692.943 591.38ZM696.904 590.75L696.904 591.9L697.394 591.9L696.864 593.29L697.444 593.29L698.054 591.98L698.054 590.75L696.904 590.75ZM702.005 598.13C703.935 598.13 704.825 596.67 704.825 594.37C704.825 592.08 703.935 590.62 702.005 590.62C700.075 590.62 699.185 592.08 699.185 594.37C699.185 596.67 700.075 598.13 702.005 598.13ZM702.005 591.38C703.145 591.38 703.855 592.36 703.855 594.37C703.855 596.39 703.145 597.37 702.005 597.37C700.865 597.37 700.155 596.39 700.155 594.37C700.155 592.36 700.865 591.38 702.005 591.38ZM708.616 598.13C710.546 598.13 711.436 596.67 711.436 594.37C711.436 592.08 710.546 590.62 708.616 590.62C706.686 590.62 705.796 592.08 705.796 594.37C705.796 596.67 706.686 598.13 708.616 598.13ZM708.616 591.38C709.756 591.38 710.466 592.36 710.466 594.37C710.466 596.39 709.756 597.37 708.616 597.37C707.476 597.37 706.766 596.39 706.766 594.37C706.766 592.36 707.476 591.38 708.616 591.38ZM715.228 598.13C717.158 598.13 718.048 596.67 718.048 594.37C718.048 592.08 717.158 590.62 715.228 590.62C713.298 590.62 712.408 592.08 712.408 594.37C712.408 596.67 713.298 598.13 715.228 598.13ZM715.228 591.38C716.368 591.38 717.078 592.36 717.078 594.37C717.078 596.39 716.368 597.37 715.228 597.37C714.088 597.37 713.378 596.39 713.378 594.37C713.378 592.36 714.088 591.38 715.228 591.38Z" fill="black"/>
<path d="M674.6 564.16L676.04 567L677.63 567L676.02 563.86C676.92 563.48 677.33 562.78 677.33 561.95C677.33 560.43 676.42 559.75 674.03 559.75L671.65 559.75L671.65 567L673.08 567L673.08 564.16L674.6 564.16ZM673.08 560.87L674.19 560.87C675.16 560.87 675.86 561.12 675.86 561.96C675.86 562.67 675.37 563.05 674.26 563.05L673.08 563.05L673.08 560.87ZM677.92 564.32C677.92 566.21 679.26 567.13 680.62 567.13C681.98 567.13 683.32 566.21 683.32 564.32C683.32 562.43 681.98 561.5 680.62 561.5C679.26 561.5 677.92 562.43 677.92 564.32ZM679.32 564.32C679.32 563.19 679.86 562.58 680.62 562.58C681.38 562.58 681.92 563.19 681.92 564.32C681.92 565.44 681.38 566.05 680.62 566.05C679.86 566.05 679.32 565.44 679.32 564.32ZM685.869 567.13C686.679 567.13 687.249 566.89 687.629 566.33C687.649 566.59 687.679 566.83 687.719 567L688.989 567C688.889 566.55 688.829 566.07 688.829 565.22C688.829 564.73 688.849 564.02 688.849 563.85C688.849 562.03 687.809 561.48 686.529 561.48C685.149 561.48 684.269 562.26 684.169 563.32L685.459 563.32C685.489 562.73 685.929 562.45 686.459 562.45C687.019 562.45 687.469 562.74 687.469 563.57L687.469 563.66C685.359 563.9 683.929 564.28 683.929 565.55C683.929 566.53 684.839 567.13 685.869 567.13ZM687.509 564.54L687.509 564.94C687.509 565.72 687.139 566.19 686.279 566.19C685.659 566.19 685.349 565.87 685.349 565.48C685.349 564.88 685.969 564.7 687.509 564.54ZM693.539 567L694.919 567L694.919 559.75L693.539 559.75L693.539 562.31C693.249 561.81 692.669 561.5 691.989 561.5C690.689 561.5 689.649 562.62 689.649 564.31C689.649 566.03 690.709 567.13 691.989 567.13C692.549 567.13 693.199 566.91 693.539 566.32L693.539 567ZM693.589 564.31C693.589 565.41 693.089 566.07 692.329 566.07C691.619 566.07 691.099 565.37 691.099 564.32C691.099 563.27 691.619 562.56 692.329 562.56C693.089 562.56 693.589 563.23 693.589 564.31ZM700.077 560.91L700.077 567L701.507 567L701.507 560.91L703.747 560.91L703.747 559.75L697.847 559.75L697.847 560.91L700.077 560.91ZM706.741 562.95L706.741 561.65C706.651 561.64 706.531 561.63 706.441 561.63C705.821 561.63 705.331 561.9 705.021 562.56L705.021 561.62L703.661 561.62L703.661 567L705.041 567L705.041 564.18C705.041 563.17 705.491 562.92 706.171 562.92C706.371 562.92 706.541 562.93 706.741 562.95ZM708.975 567.13C709.785 567.13 710.355 566.89 710.735 566.33C710.755 566.59 710.785 566.83 710.825 567L712.095 567C711.995 566.55 711.935 566.07 711.935 565.22C711.935 564.73 711.955 564.02 711.955 563.85C711.955 562.03 710.915 561.48 709.635 561.48C708.255 561.48 707.375 562.26 707.275 563.32L708.565 563.32C708.595 562.73 709.035 562.45 709.565 562.45C710.125 562.45 710.575 562.74 710.575 563.57L710.575 563.66C708.465 563.9 707.035 564.28 707.035 565.55C707.035 566.53 707.945 567.13 708.975 567.13ZM710.615 564.54L710.615 564.94C710.615 565.72 710.245 566.19 709.385 566.19C708.765 566.19 708.455 565.87 708.455 565.48C708.455 564.88 709.075 564.7 710.615 564.54ZM713.234 561.32L713.234 561.62L712.474 561.62L712.474 562.57L713.234 562.57L713.234 567L714.614 567L714.614 562.57L715.694 562.57L715.694 561.62L714.614 561.62L714.614 561.36C714.614 560.85 714.744 560.77 715.424 560.77L715.694 560.77L715.694 559.75L715.224 559.75C713.874 559.75 713.234 559.96 713.234 561.32ZM716.525 561.32L716.525 561.62L715.765 561.62L715.765 562.57L716.525 562.57L716.525 567L717.905 567L717.905 562.57L718.985 562.57L718.985 561.62L717.905 561.62L717.905 561.36C717.905 560.85 718.035 560.77 718.715 560.77L718.985 560.77L718.985 559.75L718.515 559.75C717.165 559.75 716.525 559.96 716.525 561.32ZM721.066 559.75L719.686 559.75L719.686 561.03L721.066 561.03L721.066 559.75ZM721.066 561.62L719.686 561.62L719.686 567L721.066 567L721.066 561.62ZM727.094 563.46C726.914 562.12 725.774 561.5 724.654 561.5C723.044 561.5 721.954 562.68 721.954 564.32C721.954 565.94 722.984 567.13 724.594 567.13C725.704 567.13 726.824 566.64 727.144 565.17L725.824 565.17C725.644 565.82 725.134 566.06 724.664 566.06C723.904 566.06 723.364 565.43 723.364 564.3C723.364 563.18 723.934 562.57 724.654 562.57C725.174 562.57 725.674 562.95 725.774 563.46L727.094 563.46ZM673.7 572.75L671 580L672.46 580L672.97 578.53L675.79 578.53L676.3 580L677.85 580L675.14 572.75L673.7 572.75ZM673.38 577.36L674.38 574.5L675.38 577.36L673.38 577.36ZM683.256 576.46C683.076 575.12 681.936 574.5 680.816 574.5C679.206 574.5 678.116 575.68 678.116 577.32C678.116 578.94 679.146 580.13 680.756 580.13C681.866 580.13 682.986 579.64 683.306 578.17L681.986 578.17C681.806 578.82 681.296 579.06 680.826 579.06C680.066 579.06 679.526 578.43 679.526 577.3C679.526 576.18 680.096 575.57 680.816 575.57C681.336 575.57 681.836 575.95 681.936 576.46L683.256 576.46ZM688.969 576.46C688.789 575.12 687.649 574.5 686.529 574.5C684.919 574.5 683.829 575.68 683.829 577.32C683.829 578.94 684.859 580.13 686.469 580.13C687.579 580.13 688.699 579.64 689.019 578.17L687.699 578.17C687.519 578.82 687.009 579.06 686.539 579.06C685.779 579.06 685.239 578.43 685.239 577.3C685.239 576.18 685.809 575.57 686.529 575.57C687.049 575.57 687.549 575.95 687.649 576.46L688.969 576.46ZM691.223 572.75L689.843 572.75L689.843 574.03L691.223 574.03L691.223 572.75ZM691.223 574.62L689.843 574.62L689.843 580L691.223 580L691.223 574.62ZM696 580L697.38 580L697.38 572.75L696 572.75L696 575.31C695.71 574.81 695.13 574.5 694.45 574.5C693.15 574.5 692.11 575.62 692.11 577.31C692.11 579.03 693.17 580.13 694.45 580.13C695.01 580.13 695.66 579.91 696 579.32L696 580ZM696.05 577.31C696.05 578.41 695.55 579.07 694.79 579.07C694.08 579.07 693.56 578.37 693.56 577.32C693.56 576.27 694.08 575.56 694.79 575.56C695.55 575.56 696.05 576.23 696.05 577.31ZM699.642 577.69L703.612 577.69C703.672 575.79 702.632 574.5 700.972 574.5C699.382 574.5 698.272 575.69 698.272 577.29C698.272 578.84 699.282 580.13 701.012 580.13C702.472 580.13 703.262 579.24 703.552 578.44L702.132 578.44C701.852 578.91 701.422 579.06 701.002 579.06C700.352 579.06 699.712 578.61 699.642 577.69ZM699.662 576.74C699.772 575.84 700.442 575.51 700.962 575.51C701.542 575.51 702.182 575.83 702.212 576.74L699.662 576.74ZM705.881 575.33L705.881 574.62L704.501 574.62L704.501 580L705.881 580L705.881 577.2C705.881 576.35 706.081 575.61 706.991 575.61C707.771 575.61 707.921 576.21 707.921 576.91L707.921 580L709.301 580L709.301 576.61C709.301 575.29 708.731 574.5 707.441 574.5C706.781 574.5 706.191 574.79 705.881 575.33ZM710.648 573.16L710.648 574.62L709.888 574.62L709.888 575.57L710.648 575.57L710.648 578.55C710.648 579.62 710.888 580 712.118 580L713.128 580L713.128 579.01L712.708 579.01C712.218 579.01 712.028 578.9 712.028 578.35L712.028 575.57L713.148 575.57L713.148 574.62L712.028 574.62L712.028 573.16L710.648 573.16ZM717.062 576.24L718.352 576.24C718.172 575 717.102 574.48 715.982 574.48C714.822 574.48 713.782 575.11 713.782 576.08C713.782 577.06 714.452 577.48 715.462 577.69L716.262 577.86C716.722 577.96 717.142 578.12 717.142 578.52C717.142 578.91 716.762 579.13 716.172 579.13C715.462 579.13 715.092 578.74 715.012 578.22L713.682 578.22C713.812 579.45 714.812 580.13 716.132 580.13C717.352 580.13 718.462 579.47 718.462 578.39C718.462 577.28 717.552 577.01 716.482 576.77L715.762 576.61C715.252 576.5 715.042 576.28 715.042 575.99C715.042 575.66 715.402 575.47 715.912 575.47C716.542 575.47 716.962 575.79 717.062 576.24Z" fill="black"/>
<path d="M378.8 405.75H376.65V413H378.8C381.1 413 382.83 412.25 382.83 409.37C382.83 406.5 381.1 405.75 378.8 405.75ZM378.74 406.87C380.06 406.87 381.35 407.2 381.35 409.37C381.35 411.55 380.06 411.88 378.74 411.88H378.08V406.87H378.74ZM385.188 405.75H383.808V407.03H385.188V405.75ZM385.188 407.62H383.808V413H385.188V407.62ZM388.145 413.13C388.955 413.13 389.525 412.89 389.905 412.33C389.925 412.59 389.955 412.83 389.995 413H391.265C391.165 412.55 391.105 412.07 391.105 411.22C391.105 410.73 391.125 410.02 391.125 409.85C391.125 408.03 390.085 407.48 388.805 407.48C387.425 407.48 386.545 408.26 386.445 409.32H387.735C387.765 408.73 388.205 408.45 388.735 408.45C389.295 408.45 389.745 408.74 389.745 409.57V409.66C387.635 409.9 386.205 410.28 386.205 411.55C386.205 412.53 387.115 413.13 388.145 413.13ZM389.785 410.54V410.94C389.785 411.72 389.415 412.19 388.555 412.19C387.935 412.19 387.625 411.87 387.625 411.48C387.625 410.88 388.245 410.7 389.785 410.54ZM392.274 413L393.654 413V412.32C393.994 412.91 394.644 413.13 395.204 413.13C396.484 413.13 397.544 412.03 397.544 410.31C397.544 408.62 396.504 407.5 395.204 407.5C394.524 407.5 393.944 407.81 393.654 408.31V405.75L392.274 405.75V413ZM396.094 410.32C396.094 411.37 395.574 412.07 394.864 412.07C394.104 412.07 393.604 411.41 393.604 410.31C393.604 409.23 394.104 408.56 394.864 408.56C395.574 408.56 396.094 409.27 396.094 410.32ZM399.535 410.69H403.505C403.565 408.79 402.525 407.5 400.865 407.5C399.275 407.5 398.165 408.69 398.165 410.29C398.165 411.84 399.175 413.13 400.905 413.13C402.365 413.13 403.155 412.24 403.445 411.44H402.025C401.745 411.91 401.315 412.06 400.895 412.06C400.245 412.06 399.605 411.61 399.535 410.69ZM399.555 409.74C399.665 408.84 400.335 408.51 400.855 408.51C401.435 408.51 402.075 408.83 402.105 409.74H399.555ZM404.583 406.16V407.62H403.823V408.57H404.583V411.55C404.583 412.62 404.823 413 406.053 413H407.063V412.01H406.643C406.153 412.01 405.963 411.9 405.963 411.35V408.57H407.083V407.62H405.963V406.16H404.583ZM408.988 410.69H412.958C413.018 408.79 411.978 407.5 410.318 407.5C408.728 407.5 407.618 408.69 407.618 410.29C407.618 411.84 408.628 413.13 410.358 413.13C411.818 413.13 412.608 412.24 412.898 411.44H411.478C411.198 411.91 410.768 412.06 410.348 412.06C409.698 412.06 409.058 411.61 408.988 410.69ZM409.008 409.74C409.118 408.84 409.788 408.51 410.308 408.51C410.888 408.51 411.528 408.83 411.558 409.74H409.008ZM416.925 409.24H418.215C418.035 408 416.965 407.48 415.845 407.48C414.685 407.48 413.645 408.11 413.645 409.08C413.645 410.06 414.315 410.48 415.325 410.69L416.125 410.86C416.585 410.96 417.005 411.12 417.005 411.52C417.005 411.91 416.625 412.13 416.035 412.13C415.325 412.13 414.955 411.74 414.875 411.22H413.545C413.675 412.45 414.675 413.13 415.995 413.13C417.215 413.13 418.325 412.47 418.325 411.39C418.325 410.28 417.415 410.01 416.345 409.77L415.625 409.61C415.115 409.5 414.905 409.28 414.905 408.99C414.905 408.66 415.265 408.47 415.775 408.47C416.405 408.47 416.825 408.79 416.925 409.24Z" fill="black"/>
<path d="M377.8 431H378.71V423.75H378.09C377.69 424.54 377.16 424.67 376.12 424.71V425.33H377.8V431ZM380.332 423.75V424.9H380.822L380.292 426.29H380.872L381.482 424.98V423.75H380.332ZM386.47 428.62C386.47 429.74 385.72 430.37 384.85 430.37C383.84 430.37 383.35 429.81 383.21 428.9H382.27C382.41 430.07 383.17 431.13 384.85 431.13C386.2 431.13 387.43 430.27 387.43 428.61C387.43 427.01 386.32 426.11 385.05 426.11C384.45 426.11 383.87 426.29 383.49 426.66L383.74 424.6H387.16V423.75H383L382.53 427.65L383.44 427.7C383.6 427.34 384.09 426.9 384.84 426.9C385.63 426.9 386.47 427.42 386.47 428.62ZM391.204 431.13C393.134 431.13 394.024 429.67 394.024 427.37C394.024 425.08 393.134 423.62 391.204 423.62C389.274 423.62 388.384 425.08 388.384 427.37C388.384 429.67 389.274 431.13 391.204 431.13ZM391.204 424.38C392.344 424.38 393.054 425.36 393.054 427.37C393.054 429.39 392.344 430.37 391.204 430.37C390.064 430.37 389.354 429.39 389.354 427.37C389.354 425.36 390.064 424.38 391.204 424.38ZM397.816 431.13C399.746 431.13 400.636 429.67 400.636 427.37C400.636 425.08 399.746 423.62 397.816 423.62C395.886 423.62 394.996 425.08 394.996 427.37C394.996 429.67 395.886 431.13 397.816 431.13ZM397.816 424.38C398.956 424.38 399.666 425.36 399.666 427.37C399.666 429.39 398.956 430.37 397.816 430.37C396.676 430.37 395.966 429.39 395.966 427.37C395.966 425.36 396.676 424.38 397.816 424.38ZM401.777 423.75V424.9H402.267L401.737 426.29H402.317L402.927 424.98V423.75H401.777ZM406.878 431.13C408.808 431.13 409.698 429.67 409.698 427.37C409.698 425.08 408.808 423.62 406.878 423.62C404.948 423.62 404.058 425.08 404.058 427.37C404.058 429.67 404.948 431.13 406.878 431.13ZM406.878 424.38C408.018 424.38 408.728 425.36 408.728 427.37C408.728 429.39 408.018 430.37 406.878 430.37C405.738 430.37 405.028 429.39 405.028 427.37C405.028 425.36 405.738 424.38 406.878 424.38ZM413.489 431.13C415.419 431.13 416.309 429.67 416.309 427.37C416.309 425.08 415.419 423.62 413.489 423.62C411.559 423.62 410.669 425.08 410.669 427.37C410.669 429.67 411.559 431.13 413.489 431.13ZM413.489 424.38C414.629 424.38 415.339 425.36 415.339 427.37C415.339 429.39 414.629 430.37 413.489 430.37C412.349 430.37 411.639 429.39 411.639 427.37C411.639 425.36 412.349 424.38 413.489 424.38ZM420.101 431.13C422.031 431.13 422.921 429.67 422.921 427.37C422.921 425.08 422.031 423.62 420.101 423.62C418.171 423.62 417.281 425.08 417.281 427.37C417.281 429.67 418.171 431.13 420.101 431.13ZM420.101 424.38C421.241 424.38 421.951 425.36 421.951 427.37C421.951 429.39 421.241 430.37 420.101 430.37C418.961 430.37 418.251 429.39 418.251 427.37C418.251 425.36 418.961 424.38 420.101 424.38Z" fill="black"/>
<path d="M24.93 22.62L23.57 22.62C23.34 23.6 22.63 23.99 21.77 23.99C20.72 23.99 19.88 23.07 19.88 21.34C19.88 19.66 20.72 18.76 21.82 18.76C22.62 18.76 23.3 19.09 23.57 20.1L24.93 20.1C24.69 18.59 23.53 17.62 21.83 17.62C19.72 17.62 18.4 19.05 18.4 21.34C18.4 23.65 19.64 25.13 21.79 25.13C23.53 25.13 24.74 24.08 24.93 22.62ZM27.4787 25.13C28.2887 25.13 28.8587 24.89 29.2387 24.33C29.2587 24.59 29.2887 24.83 29.3287 25H30.5987C30.4987 24.55 30.4387 24.07 30.4387 23.22C30.4387 22.73 30.4587 22.02 30.4587 21.85C30.4587 20.03 29.4187 19.48 28.1387 19.48C26.7587 19.48 25.8787 20.26 25.7787 21.32L27.0687 21.32C27.0987 20.73 27.5387 20.45 28.0687 20.45C28.6287 20.45 29.0787 20.74 29.0787 21.57V21.66C26.9687 21.9 25.5387 22.28 25.5387 23.55C25.5387 24.53 26.4487 25.13 27.4787 25.13ZM29.1187 22.54V22.94C29.1187 23.72 28.7487 24.19 27.8887 24.19C27.2687 24.19 26.9587 23.87 26.9587 23.48C26.9587 22.88 27.5787 22.7 29.1187 22.54ZM32.9883 20.33L32.9883 19.62L31.6083 19.62L31.6083 25L32.9883 25V22.2C32.9883 21.35 33.1883 20.61 34.0983 20.61C34.8783 20.61 35.0283 21.21 35.0283 21.91V25L36.4083 25V21.61C36.4083 20.29 35.8383 19.5 34.5483 19.5C33.8883 19.5 33.2983 19.79 32.9883 20.33ZM42.3553 21.46C42.1753 20.12 41.0353 19.5 39.9153 19.5C38.3053 19.5 37.2153 20.68 37.2153 22.32C37.2153 23.94 38.2453 25.13 39.8553 25.13C40.9653 25.13 42.0853 24.64 42.4053 23.17H41.0853C40.9053 23.82 40.3953 24.06 39.9253 24.06C39.1653 24.06 38.6253 23.43 38.6253 22.3C38.6253 21.18 39.1953 20.57 39.9153 20.57C40.4353 20.57 40.9353 20.95 41.0353 21.46H42.3553ZM44.2982 22.69L48.2682 22.69C48.3282 20.79 47.2882 19.5 45.6282 19.5C44.0382 19.5 42.9282 20.69 42.9282 22.29C42.9282 23.84 43.9382 25.13 45.6682 25.13C47.1282 25.13 47.9182 24.24 48.2082 23.44L46.7882 23.44C46.5082 23.91 46.0782 24.06 45.6582 24.06C45.0082 24.06 44.3682 23.61 44.2982 22.69ZM44.3182 21.74C44.4282 20.84 45.0982 20.51 45.6182 20.51C46.1982 20.51 46.8382 20.83 46.8682 21.74L44.3182 21.74ZM52.2371 20.95L52.2371 19.65C52.1471 19.64 52.0271 19.63 51.9371 19.63C51.3171 19.63 50.8271 19.9 50.5171 20.56V19.62L49.1571 19.62L49.1571 25L50.5371 25L50.5371 22.18C50.5371 21.17 50.9871 20.92 51.6671 20.92C51.8671 20.92 52.0371 20.93 52.2371 20.95Z" fill="black"/>
<path d="M23.55 37.47C23.55 36.4 22.61 35.62 21.13 35.62C19.64 35.62 18.71 36.4 18.71 37.47C18.71 38.06 18.99 38.75 19.71 39.14C18.76 39.52 18.48 40.3 18.48 40.96C18.48 42.34 19.63 43.13 21.13 43.13C22.62 43.13 23.77 42.34 23.77 40.96C23.77 40.3 23.49 39.52 22.55 39.14C23.27 38.75 23.55 38.06 23.55 37.47ZM21.13 36.38C22.03 36.38 22.63 36.86 22.63 37.58C22.63 38.31 22.03 38.85 21.13 38.85C20.22 38.85 19.62 38.31 19.62 37.58C19.62 36.86 20.22 36.38 21.13 36.38ZM19.45 40.96C19.45 40.11 20.1 39.52 21.13 39.52C22.15 39.52 22.81 40.11 22.81 40.96C22.81 41.81 22.15 42.37 21.13 42.37C20.1 42.37 19.45 41.81 19.45 40.96ZM24.7145 35.75V36.9H25.2045L24.6745 38.29H25.2545L25.8645 36.98V35.75H24.7145ZM31.8356 37.52C31.8356 36.3 30.8756 35.62 29.5356 35.62C27.9956 35.62 26.9956 36.57 27.0156 38.01L27.9556 38.01C27.9756 36.81 28.7356 36.38 29.5156 36.38C30.3756 36.38 30.8756 36.89 30.8756 37.64C30.8756 38.92 29.3756 40.29 26.8156 42.18L26.8156 43L32.0356 43V42.15L28.0556 42.15C30.0856 40.69 31.8356 39.2 31.8356 37.52ZM35.7141 43.13C37.6441 43.13 38.5341 41.67 38.5341 39.37C38.5341 37.08 37.6441 35.62 35.7141 35.62C33.7841 35.62 32.8941 37.08 32.8941 39.37C32.8941 41.67 33.7841 43.13 35.7141 43.13ZM35.7141 36.38C36.8541 36.38 37.5641 37.36 37.5641 39.37C37.5641 41.39 36.8541 42.37 35.7141 42.37C34.5741 42.37 33.8641 41.39 33.8641 39.37C33.8641 37.36 34.5741 36.38 35.7141 36.38ZM42.3254 43.13C44.2554 43.13 45.1454 41.67 45.1454 39.37C45.1454 37.08 44.2554 35.62 42.3254 35.62C40.3954 35.62 39.5054 37.08 39.5054 39.37C39.5054 41.67 40.3954 43.13 42.3254 43.13ZM42.3254 36.38C43.4654 36.38 44.1754 37.36 44.1754 39.37C44.1754 41.39 43.4654 42.37 42.3254 42.37C41.1854 42.37 40.4754 41.39 40.4754 39.37C40.4754 37.36 41.1854 36.38 42.3254 36.38ZM46.2867 35.75L46.2867 36.9H46.7767L46.2467 38.29L46.8267 38.29L47.4367 36.98L47.4367 35.75L46.2867 35.75ZM51.3879 43.13C53.3179 43.13 54.2079 41.67 54.2079 39.37C54.2079 37.08 53.3179 35.62 51.3879 35.62C49.4579 35.62 48.5679 37.08 48.5679 39.37C48.5679 41.67 49.4579 43.13 51.3879 43.13ZM51.3879 36.38C52.5279 36.38 53.2379 37.36 53.2379 39.37C53.2379 41.39 52.5279 42.37 51.3879 42.37C50.2479 42.37 49.5379 41.39 49.5379 39.37C49.5379 37.36 50.2479 36.38 51.3879 36.38ZM57.9992 43.13C59.9292 43.13 60.8192 41.67 60.8192 39.37C60.8192 37.08 59.9292 35.62 57.9992 35.62C56.0692 35.62 55.1792 37.08 55.1792 39.37C55.1792 41.67 56.0692 43.13 57.9992 43.13ZM57.9992 36.38C59.1392 36.38 59.8492 37.36 59.8492 39.37C59.8492 41.39 59.1392 42.37 57.9992 42.37C56.8592 42.37 56.1492 41.39 56.1492 39.37C56.1492 37.36 56.8592 36.38 57.9992 36.38ZM64.6105 43.13C66.5405 43.13 67.4305 41.67 67.4305 39.37C67.4305 37.08 66.5405 35.62 64.6105 35.62C62.6805 35.62 61.7905 37.08 61.7905 39.37C61.7905 41.67 62.6805 43.13 64.6105 43.13ZM64.6105 36.38C65.7505 36.38 66.4605 37.36 66.4605 39.37C66.4605 41.39 65.7505 42.37 64.6105 42.37C63.4705 42.37 62.7605 41.39 62.7605 39.37C62.7605 37.36 63.4705 36.38 64.6105 36.38Z" fill="black"/>
<path d="M5.77 413H7.19L8.97 407.55L8.97 413H10.3L10.3 405.75H8.2L6.49 411.4L4.73 405.75H2.65L2.65 413H3.98L3.98 407.55L5.77 413ZM12.5853 410.69H16.5553C16.6153 408.79 15.5753 407.5 13.9153 407.5C12.3253 407.5 11.2153 408.69 11.2153 410.29C11.2153 411.84 12.2253 413.13 13.9553 413.13C15.4153 413.13 16.2053 412.24 16.4953 411.44H15.0753C14.7953 411.91 14.3653 412.06 13.9453 412.06C13.2953 412.06 12.6553 411.61 12.5853 410.69ZM12.6053 409.74C12.7153 408.84 13.3853 408.51 13.9053 408.51C14.4853 408.51 15.1253 408.83 15.1553 409.74H12.6053ZM19.1642 413.13C19.9742 413.13 20.5442 412.89 20.9242 412.33C20.9442 412.59 20.9742 412.83 21.0142 413H22.2842C22.1842 412.55 22.1242 412.07 22.1242 411.22C22.1242 410.73 22.1442 410.02 22.1442 409.85C22.1442 408.03 21.1042 407.48 19.8242 407.48C18.4442 407.48 17.5642 408.26 17.4642 409.32H18.7542C18.7842 408.73 19.2242 408.45 19.7542 408.45C20.3142 408.45 20.7642 408.74 20.7642 409.57V409.66C18.6542 409.9 17.2242 410.28 17.2242 411.55C17.2242 412.53 18.1342 413.13 19.1642 413.13ZM20.8042 410.54V410.94C20.8042 411.72 20.4342 412.19 19.5742 412.19C18.9542 412.19 18.6442 411.87 18.6442 411.48C18.6442 410.88 19.2642 410.7 20.8042 410.54ZM26.3238 409.24H27.6138C27.4338 408 26.3638 407.48 25.2438 407.48C24.0838 407.48 23.0438 408.11 23.0438 409.08C23.0438 410.06 23.7138 410.48 24.7238 410.69L25.5238 410.86C25.9838 410.96 26.4038 411.12 26.4038 411.52C26.4038 411.91 26.0238 412.13 25.4338 412.13C24.7238 412.13 24.3538 411.74 24.2738 411.22H22.9438C23.0738 412.45 24.0738 413.13 25.3938 413.13C26.6138 413.13 27.7238 412.47 27.7238 411.39C27.7238 410.28 26.8138 410.01 25.7438 409.77L25.0238 409.61C24.5138 409.5 24.3038 409.28 24.3038 408.99C24.3038 408.66 24.6638 408.47 25.1738 408.47C25.8038 408.47 26.2238 408.79 26.3238 409.24ZM29.9668 413L29.9668 405.75H28.5868L28.5868 413H29.9668ZM32.224 410.69H36.194C36.254 408.79 35.214 407.5 33.554 407.5C31.964 407.5 30.854 408.69 30.854 410.29C30.854 411.84 31.864 413.13 33.594 413.13C35.054 413.13 35.844 412.24 36.134 411.44H34.714C34.434 411.91 34.004 412.06 33.584 412.06C32.934 412.06 32.294 411.61 32.224 410.69ZM32.244 409.74C32.354 408.84 33.024 408.51 33.544 408.51C34.124 408.51 34.764 408.83 34.794 409.74H32.244ZM40.1617 409.24H41.4517C41.2717 408 40.2017 407.48 39.0817 407.48C37.9217 407.48 36.8817 408.11 36.8817 409.08C36.8817 410.06 37.5517 410.48 38.5617 410.69L39.3617 410.86C39.8217 410.96 40.2417 411.12 40.2417 411.52C40.2417 411.91 39.8617 412.13 39.2717 412.13C38.5617 412.13 38.1917 411.74 38.1117 411.22H36.7817C36.9117 412.45 37.9117 413.13 39.2317 413.13C40.4517 413.13 41.5617 412.47 41.5617 411.39C41.5617 410.28 40.6517 410.01 39.5817 409.77L38.8617 409.61C38.3517 409.5 38.1417 409.28 38.1417 408.99C38.1417 408.66 38.5017 408.47 39.0117 408.47C39.6417 408.47 40.0617 408.79 40.1617 409.24Z" fill="black"/>
<path d="M3.8 431H4.71L4.71 423.75H4.09C3.69 424.54 3.16 424.67 2.12 424.71L2.12 425.33H3.8L3.8 431ZM10.1416 428.97C10.1416 429.87 9.46164 430.37 8.50164 430.37C7.48164 430.37 6.95164 429.75 6.85164 428.86H5.91164C6.01164 430.07 6.79164 431.13 8.49164 431.13C9.87164 431.13 11.1116 430.42 11.1116 428.96C11.1116 428.2 10.8116 427.48 9.73164 427.14C10.4916 426.83 10.9116 426.2 10.9116 425.46C10.9116 424.12 9.82164 423.62 8.56164 423.62C7.04164 423.62 6.13164 424.51 6.02164 425.79H6.96164C7.04164 424.97 7.57164 424.38 8.54164 424.38C9.31164 424.38 9.95164 424.78 9.95164 425.56C9.95164 426.41 9.28164 426.76 8.02164 426.76H7.90164L7.90164 427.59H8.05164C9.21164 427.59 10.1416 427.93 10.1416 428.97ZM14.8508 431.13C16.7808 431.13 17.6708 429.67 17.6708 427.37C17.6708 425.08 16.7808 423.62 14.8508 423.62C12.9208 423.62 12.0308 425.08 12.0308 427.37C12.0308 429.67 12.9208 431.13 14.8508 431.13ZM14.8508 424.38C15.9908 424.38 16.7008 425.36 16.7008 427.37C16.7008 429.39 15.9908 430.37 14.8508 430.37C13.7108 430.37 13.0008 429.39 13.0008 427.37C13.0008 425.36 13.7108 424.38 14.8508 424.38ZM18.8121 423.75L18.8121 424.9H19.3021L18.7721 426.29L19.3521 426.29L19.9621 424.98L19.9621 423.75H18.8121ZM23.9133 431.13C25.8433 431.13 26.7333 429.67 26.7333 427.37C26.7333 425.08 25.8433 423.62 23.9133 423.62C21.9833 423.62 21.0933 425.08 21.0933 427.37C21.0933 429.67 21.9833 431.13 23.9133 431.13ZM23.9133 424.38C25.0533 424.38 25.7633 425.36 25.7633 427.37C25.7633 429.39 25.0533 430.37 23.9133 430.37C22.7733 430.37 22.0633 429.39 22.0633 427.37C22.0633 425.36 22.7733 424.38 23.9133 424.38ZM30.5246 431.13C32.4546 431.13 33.3446 429.67 33.3446 427.37C33.3446 425.08 32.4546 423.62 30.5246 423.62C28.5946 423.62 27.7046 425.08 27.7046 427.37C27.7046 429.67 28.5946 431.13 30.5246 431.13ZM30.5246 424.38C31.6646 424.38 32.3746 425.36 32.3746 427.37C32.3746 429.39 31.6646 430.37 30.5246 430.37C29.3846 430.37 28.6746 429.39 28.6746 427.37C28.6746 425.36 29.3846 424.38 30.5246 424.38ZM37.1359 431.13C39.0659 431.13 39.9559 429.67 39.9559 427.37C39.9559 425.08 39.0659 423.62 37.1359 423.62C35.2059 423.62 34.3159 425.08 34.3159 427.37C34.3159 429.67 35.2059 431.13 37.1359 431.13ZM37.1359 424.38C38.2759 424.38 38.9859 425.36 38.9859 427.37C38.9859 429.39 38.2759 430.37 37.1359 430.37C35.9959 430.37 35.2859 429.39 35.2859 427.37C35.2859 425.36 35.9959 424.38 37.1359 424.38Z" fill="black"/>
<path d="M66.8 405.75H64.65L64.65 413H66.8C69.1 413 70.83 412.25 70.83 409.37C70.83 406.5 69.1 405.75 66.8 405.75ZM66.74 406.87C68.06 406.87 69.35 407.2 69.35 409.37C69.35 411.55 68.06 411.88 66.74 411.88H66.08L66.08 406.87H66.74ZM73.1875 405.75H71.8075V407.03H73.1875V405.75ZM73.1875 407.62H71.8075V413H73.1875L73.1875 407.62ZM76.1447 413.13C76.9547 413.13 77.5247 412.89 77.9047 412.33C77.9247 412.59 77.9547 412.83 77.9947 413H79.2647C79.1647 412.55 79.1047 412.07 79.1047 411.22C79.1047 410.73 79.1247 410.02 79.1247 409.85C79.1247 408.03 78.0847 407.48 76.8047 407.48C75.4247 407.48 74.5447 408.26 74.4447 409.32H75.7347C75.7647 408.73 76.2047 408.45 76.7347 408.45C77.2947 408.45 77.7447 408.74 77.7447 409.57V409.66C75.6347 409.9 74.2047 410.28 74.2047 411.55C74.2047 412.53 75.1147 413.13 76.1447 413.13ZM77.7847 410.54V410.94C77.7847 411.72 77.4147 412.19 76.5547 412.19C75.9347 412.19 75.6247 411.87 75.6247 411.48C75.6247 410.88 76.2447 410.7 77.7847 410.54ZM83.3543 408.95L83.3543 407.65C83.2643 407.64 83.1443 407.63 83.0543 407.63C82.4343 407.63 81.9443 407.9 81.6343 408.56L81.6343 407.62L80.2743 407.62L80.2743 413L81.6543 413V410.18C81.6543 409.17 82.1043 408.92 82.7843 408.92C82.9843 408.92 83.1543 408.93 83.3543 408.95ZM87.1434 408.95L87.1434 407.65C87.0534 407.64 86.9334 407.63 86.8434 407.63C86.2234 407.63 85.7334 407.9 85.4234 408.56L85.4234 407.62H84.0634L84.0634 413H85.4434V410.18C85.4434 409.17 85.8934 408.92 86.5734 408.92C86.7734 408.92 86.9434 408.93 87.1434 408.95ZM89.2324 408.33L89.2324 405.75H87.8524L87.8524 413H89.2324V410.2C89.2324 409.35 89.4324 408.61 90.3424 408.61C91.1224 408.61 91.2724 409.21 91.2724 409.91V413H92.6524V409.61C92.6524 408.29 92.0824 407.5 90.7924 407.5C90.1324 407.5 89.5424 407.79 89.2324 408.33ZM94.8295 410.69H98.7995C98.8595 408.79 97.8195 407.5 96.1595 407.5C94.5695 407.5 93.4595 408.69 93.4595 410.29C93.4595 411.84 94.4695 413.13 96.1995 413.13C97.6595 413.13 98.4495 412.24 98.7395 411.44H97.3195C97.0395 411.91 96.6095 412.06 96.1895 412.06C95.5395 412.06 94.8995 411.61 94.8295 410.69ZM94.8495 409.74C94.9595 408.84 95.6295 408.51 96.1495 408.51C96.7295 408.51 97.3695 408.83 97.3995 409.74H94.8495ZM101.408 413.13C102.218 413.13 102.788 412.89 103.168 412.33C103.188 412.59 103.218 412.83 103.258 413H104.528C104.428 412.55 104.368 412.07 104.368 411.22C104.368 410.73 104.388 410.02 104.388 409.85C104.388 408.03 103.348 407.48 102.068 407.48C100.688 407.48 99.8084 408.26 99.7084 409.32H100.998C101.028 408.73 101.468 408.45 101.998 408.45C102.558 408.45 103.008 408.74 103.008 409.57V409.66C100.898 409.9 99.4684 410.28 99.4684 411.55C99.4684 412.53 100.378 413.13 101.408 413.13ZM103.048 410.54V410.94C103.048 411.72 102.678 412.19 101.818 412.19C101.198 412.19 100.888 411.87 100.888 411.48C100.888 410.88 101.508 410.7 103.048 410.54ZM106.918 413L106.918 405.75H105.538L105.538 413H106.918ZM112.591 405.75H110.441L110.441 413H112.591C114.891 413 116.621 412.25 116.621 409.37C116.621 406.5 114.891 405.75 112.591 405.75ZM112.531 406.87C113.851 406.87 115.141 407.2 115.141 409.37C115.141 411.55 113.851 411.88 112.531 411.88H111.871L111.871 406.87H112.531ZM118.979 405.75H117.599V407.03H118.979V405.75ZM118.979 407.62H117.599L117.599 413H118.979L118.979 407.62ZM123.246 409.24H124.536C124.356 408 123.286 407.48 122.166 407.48C121.006 407.48 119.966 408.11 119.966 409.08C119.966 410.06 120.636 410.48 121.646 410.69L122.446 410.86C122.906 410.96 123.326 411.12 123.326 411.52C123.326 411.91 122.946 412.13 122.356 412.13C121.646 412.13 121.276 411.74 121.196 411.22H119.866C119.996 412.45 120.996 413.13 122.316 413.13C123.536 413.13 124.646 412.47 124.646 411.39C124.646 410.28 123.736 410.01 122.666 409.77L121.946 409.61C121.436 409.5 121.226 409.28 121.226 408.99C121.226 408.66 121.586 408.47 122.096 408.47C122.726 408.47 123.146 408.79 123.246 409.24ZM126.578 410.69H130.548C130.608 408.79 129.568 407.5 127.908 407.5C126.318 407.5 125.208 408.69 125.208 410.29C125.208 411.84 126.218 413.13 127.948 413.13C129.408 413.13 130.198 412.24 130.488 411.44H129.068C128.788 411.91 128.358 412.06 127.938 412.06C127.288 412.06 126.648 411.61 126.578 410.69ZM126.598 409.74C126.708 408.84 127.378 408.51 127.898 408.51C128.478 408.51 129.118 408.83 129.148 409.74H126.598ZM133.156 413.13C133.966 413.13 134.536 412.89 134.916 412.33C134.936 412.59 134.966 412.83 135.006 413H136.276C136.176 412.55 136.116 412.07 136.116 411.22C136.116 410.73 136.136 410.02 136.136 409.85C136.136 408.03 135.096 407.48 133.816 407.48C132.436 407.48 131.556 408.26 131.456 409.32H132.746C132.776 408.73 133.216 408.45 133.746 408.45C134.306 408.45 134.756 408.74 134.756 409.57V409.66C132.646 409.9 131.216 410.28 131.216 411.55C131.216 412.53 132.126 413.13 133.156 413.13ZM134.796 410.54V410.94C134.796 411.72 134.426 412.19 133.566 412.19C132.946 412.19 132.636 411.87 132.636 411.48C132.636 410.88 133.256 410.7 134.796 410.54ZM140.316 409.24H141.606C141.426 408 140.356 407.48 139.236 407.48C138.076 407.48 137.036 408.11 137.036 409.08C137.036 410.06 137.706 410.48 138.716 410.69L139.516 410.86C139.976 410.96 140.396 411.12 140.396 411.52C140.396 411.91 140.016 412.13 139.426 412.13C138.716 412.13 138.346 411.74 138.266 411.22H136.936C137.066 412.45 138.066 413.13 139.386 413.13C140.606 413.13 141.716 412.47 141.716 411.39C141.716 410.28 140.806 410.01 139.736 409.77L139.016 409.61C138.506 409.5 138.296 409.28 138.296 408.99C138.296 408.66 138.656 408.47 139.166 408.47C139.796 408.47 140.216 408.79 140.316 409.24ZM143.648 410.69L147.618 410.69C147.678 408.79 146.638 407.5 144.978 407.5C143.388 407.5 142.278 408.69 142.278 410.29C142.278 411.84 143.288 413.13 145.018 413.13C146.478 413.13 147.268 412.24 147.558 411.44L146.138 411.44C145.858 411.91 145.428 412.06 145.008 412.06C144.358 412.06 143.718 411.61 143.648 410.69ZM143.668 409.74C143.778 408.84 144.448 408.51 144.968 408.51C145.548 408.51 146.188 408.83 146.218 409.74H143.668Z" fill="black"/>
<path d="M65.8 431H66.71L66.71 423.75H66.09C65.69 424.54 65.16 424.67 64.12 424.71L64.12 425.33H65.8V431ZM68.3316 423.75V424.9H68.8216L68.2916 426.29H68.8716L69.4816 424.98V423.75H68.3316ZM75.2544 429.21V428.35H73.9244L73.9244 423.75H72.9944L69.4044 428.35V429.21H73.0044V431H73.9244V429.21H75.2544ZM70.4144 428.35L73.0044 425L73.0044 428.35H70.4144ZM78.7746 431.13C80.7046 431.13 81.5946 429.67 81.5946 427.37C81.5946 425.08 80.7046 423.62 78.7746 423.62C76.8446 423.62 75.9546 425.08 75.9546 427.37C75.9546 429.67 76.8446 431.13 78.7746 431.13ZM78.7746 424.38C79.9146 424.38 80.6246 425.36 80.6246 427.37C80.6246 429.39 79.9146 430.37 78.7746 430.37C77.6346 430.37 76.9246 429.39 76.9246 427.37C76.9246 425.36 77.6346 424.38 78.7746 424.38ZM85.3859 431.13C87.3159 431.13 88.2059 429.67 88.2059 427.37C88.2059 425.08 87.3159 423.62 85.3859 423.62C83.4559 423.62 82.5659 425.08 82.5659 427.37C82.5659 429.67 83.4559 431.13 85.3859 431.13ZM85.3859 424.38C86.5259 424.38 87.2359 425.36 87.2359 427.37C87.2359 429.39 86.5259 430.37 85.3859 430.37C84.2459 430.37 83.5359 429.39 83.5359 427.37C83.5359 425.36 84.2459 424.38 85.3859 424.38ZM89.3473 423.75V424.9H89.8373L89.3073 426.29H89.8873L90.4973 424.98V423.75H89.3473ZM94.4484 431.13C96.3784 431.13 97.2684 429.67 97.2684 427.37C97.2684 425.08 96.3784 423.62 94.4484 423.62C92.5184 423.62 91.6284 425.08 91.6284 427.37C91.6284 429.67 92.5184 431.13 94.4484 431.13ZM94.4484 424.38C95.5884 424.38 96.2984 425.36 96.2984 427.37C96.2984 429.39 95.5884 430.37 94.4484 430.37C93.3084 430.37 92.5984 429.39 92.5984 427.37C92.5984 425.36 93.3084 424.38 94.4484 424.38ZM101.06 431.13C102.99 431.13 103.88 429.67 103.88 427.37C103.88 425.08 102.99 423.62 101.06 423.62C99.1298 423.62 98.2398 425.08 98.2398 427.37C98.2398 429.67 99.1298 431.13 101.06 431.13ZM101.06 424.38C102.2 424.38 102.91 425.36 102.91 427.37C102.91 429.39 102.2 430.37 101.06 430.37C99.9198 430.37 99.2098 429.39 99.2098 427.37C99.2098 425.36 99.9198 424.38 101.06 424.38ZM107.671 431.13C109.601 431.13 110.491 429.67 110.491 427.37C110.491 425.08 109.601 423.62 107.671 423.62C105.741 423.62 104.851 425.08 104.851 427.37C104.851 429.67 105.741 431.13 107.671 431.13ZM107.671 424.38C108.811 424.38 109.521 425.36 109.521 427.37C109.521 429.39 108.811 430.37 107.671 430.37C106.531 430.37 105.821 429.39 105.821 427.37C105.821 425.36 106.531 424.38 107.671 424.38Z" fill="black"/>
<path d="M674.28 1046.91L674.28 1053L675.71 1053L675.71 1046.91L677.95 1046.91L677.95 1045.75L672.05 1045.75L672.05 1046.91L674.28 1046.91ZM678.581 1050.69L682.551 1050.69C682.611 1048.79 681.571 1047.5 679.911 1047.5C678.321 1047.5 677.211 1048.69 677.211 1050.29C677.211 1051.84 678.221 1053.13 679.951 1053.13C681.411 1053.13 682.201 1052.24 682.491 1051.44L681.071 1051.44C680.791 1051.91 680.361 1052.06 679.941 1052.06C679.291 1052.06 678.651 1051.61 678.581 1050.69ZM678.601 1049.74C678.711 1048.84 679.381 1048.51 679.901 1048.51C680.481 1048.51 681.121 1048.83 681.151 1049.74L678.601 1049.74ZM683.63 1046.16L683.63 1047.62L682.87 1047.62L682.87 1048.57L683.63 1048.57L683.63 1051.55C683.63 1052.62 683.87 1053 685.1 1053L686.11 1053L686.11 1052.01L685.69 1052.01C685.2 1052.01 685.01 1051.9 685.01 1051.35L685.01 1048.57L686.13 1048.57L686.13 1047.62L685.01 1047.62L685.01 1046.16L683.63 1046.16ZM688.735 1053.13C689.545 1053.13 690.115 1052.89 690.495 1052.33C690.515 1052.59 690.545 1052.83 690.585 1053L691.855 1053C691.755 1052.55 691.695 1052.07 691.695 1051.22C691.695 1050.73 691.715 1050.02 691.715 1049.85C691.715 1048.03 690.675 1047.48 689.395 1047.48C688.015 1047.48 687.135 1048.26 687.035 1049.32L688.325 1049.32C688.355 1048.73 688.795 1048.45 689.325 1048.45C689.885 1048.45 690.335 1048.74 690.335 1049.57L690.335 1049.66C688.225 1049.9 686.795 1050.28 686.795 1051.55C686.795 1052.53 687.705 1053.13 688.735 1053.13ZM690.375 1050.54L690.375 1050.94C690.375 1051.72 690.005 1052.19 689.145 1052.19C688.525 1052.19 688.215 1051.87 688.215 1051.48C688.215 1050.88 688.835 1050.7 690.375 1050.54ZM694.244 1048.33L694.244 1047.62L692.864 1047.62L692.864 1053L694.244 1053L694.244 1050.2C694.244 1049.35 694.444 1048.61 695.354 1048.61C696.134 1048.61 696.284 1049.21 696.284 1049.91L696.284 1053L697.664 1053L697.664 1049.61C697.664 1048.29 697.094 1047.5 695.804 1047.5C695.144 1047.5 694.554 1047.79 694.244 1048.33ZM702.131 1052.29L702.131 1053L703.511 1053L703.511 1047.62L702.131 1047.62L702.131 1050.42C702.131 1051.27 701.921 1052.02 701.011 1052.02C700.231 1052.02 700.131 1051.44 700.131 1050.72L700.131 1047.62L698.751 1047.62L698.751 1051.02C698.751 1052.34 699.271 1053.13 700.561 1053.13C701.221 1053.13 701.821 1052.83 702.131 1052.29ZM707.779 1049.24L709.069 1049.24C708.889 1048 707.819 1047.48 706.699 1047.48C705.539 1047.48 704.499 1048.11 704.499 1049.08C704.499 1050.06 705.169 1050.48 706.179 1050.69L706.979 1050.86C707.439 1050.96 707.859 1051.12 707.859 1051.52C707.859 1051.91 707.479 1052.13 706.889 1052.13C706.179 1052.13 705.809 1051.74 705.729 1051.22L704.399 1051.22C704.529 1052.45 705.529 1053.13 706.849 1053.13C708.069 1053.13 709.179 1052.47 709.179 1051.39C709.179 1050.28 708.269 1050.01 707.199 1049.77L706.479 1049.61C705.969 1049.5 705.759 1049.28 705.759 1048.99C705.759 1048.66 706.119 1048.47 706.629 1048.47C707.259 1048.47 707.679 1048.79 707.779 1049.24Z" fill="black"/>
<path d="M675.42 1061.18C675.47 1059.5 676.08 1058.38 677.2 1058.38C677.94 1058.38 678.44 1058.78 678.56 1059.43L679.55 1059.43C679.4 1058.51 678.73 1057.62 677.31 1057.62C675.21 1057.62 674.48 1059.58 674.48 1061.63C674.48 1063.87 675.31 1065.13 677.12 1065.13C678.67 1065.13 679.67 1063.98 679.67 1062.63C679.67 1061.18 678.68 1060.17 677.33 1060.17C676.37 1060.17 675.75 1060.61 675.42 1061.18ZM677.11 1064.37C676.15 1064.37 675.53 1063.68 675.53 1062.68C675.53 1061.69 676.17 1060.96 677.12 1060.96C678.05 1060.96 678.7 1061.69 678.7 1062.68C678.7 1063.67 678.04 1064.37 677.11 1064.37ZM683.452 1065.13C685.382 1065.13 686.272 1063.67 686.272 1061.37C686.272 1059.08 685.382 1057.62 683.452 1057.62C681.522 1057.62 680.632 1059.08 680.632 1061.37C680.632 1063.67 681.522 1065.13 683.452 1065.13ZM683.452 1058.38C684.592 1058.38 685.302 1059.36 685.302 1061.37C685.302 1063.39 684.592 1064.37 683.452 1064.37C682.312 1064.37 681.602 1063.39 681.602 1061.37C681.602 1059.36 682.312 1058.38 683.452 1058.38ZM687.414 1057.75L687.414 1058.9L687.904 1058.9L687.374 1060.29L687.954 1060.29L688.564 1058.98L688.564 1057.75L687.414 1057.75ZM692.515 1065.13C694.445 1065.13 695.335 1063.67 695.335 1061.37C695.335 1059.08 694.445 1057.62 692.515 1057.62C690.585 1057.62 689.695 1059.08 689.695 1061.37C689.695 1063.67 690.585 1065.13 692.515 1065.13ZM692.515 1058.38C693.655 1058.38 694.365 1059.36 694.365 1061.37C694.365 1063.39 693.655 1064.37 692.515 1064.37C691.375 1064.37 690.665 1063.39 690.665 1061.37C690.665 1059.36 691.375 1058.38 692.515 1058.38ZM699.126 1065.13C701.056 1065.13 701.946 1063.67 701.946 1061.37C701.946 1059.08 701.056 1057.62 699.126 1057.62C697.196 1057.62 696.306 1059.08 696.306 1061.37C696.306 1063.67 697.196 1065.13 699.126 1065.13ZM699.126 1058.38C700.266 1058.38 700.976 1059.36 700.976 1061.37C700.976 1063.39 700.266 1064.37 699.126 1064.37C697.986 1064.37 697.276 1063.39 697.276 1061.37C697.276 1059.36 697.986 1058.38 699.126 1058.38ZM705.737 1065.13C707.667 1065.13 708.558 1063.67 708.558 1061.37C708.558 1059.08 707.667 1057.62 705.738 1057.62C703.807 1057.62 702.917 1059.08 702.917 1061.37C702.917 1063.67 703.807 1065.13 705.737 1065.13ZM705.737 1058.38C706.878 1058.38 707.588 1059.36 707.588 1061.37C707.588 1063.39 706.877 1064.37 705.737 1064.37C704.597 1064.37 703.887 1063.39 703.887 1061.37C703.887 1059.36 704.597 1058.38 705.737 1058.38Z" fill="black"/>
<path d="M706.93 410.62H705.57C705.34 411.6 704.63 411.99 703.77 411.99C702.72 411.99 701.88 411.07 701.88 409.34C701.88 407.66 702.72 406.76 703.82 406.76C704.62 406.76 705.3 407.09 705.57 408.1H706.93C706.69 406.59 705.53 405.62 703.83 405.62C701.72 405.62 700.4 407.05 700.4 409.34C700.4 411.65 701.64 413.13 703.79 413.13C705.53 413.13 706.74 412.08 706.93 410.62ZM709.188 408.33V405.75H707.808V413H709.188V410.2C709.188 409.35 709.388 408.61 710.298 408.61C711.078 408.61 711.228 409.21 711.228 409.91V413H712.608V409.61C712.608 408.29 712.038 407.5 710.748 407.5C710.088 407.5 709.498 407.79 709.188 408.33ZM713.405 410.32C713.405 412.21 714.745 413.13 716.105 413.13C717.465 413.13 718.805 412.21 718.805 410.32C718.805 408.43 717.465 407.5 716.105 407.5C714.745 407.5 713.405 408.43 713.405 410.32ZM714.805 410.32C714.805 409.19 715.345 408.58 716.105 408.58C716.865 408.58 717.405 409.19 717.405 410.32C717.405 411.44 716.865 412.05 716.105 412.05C715.345 412.05 714.805 411.44 714.805 410.32ZM721.063 413V405.75H719.683V413H721.063ZM723.32 410.69H727.29C727.35 408.79 726.31 407.5 724.65 407.5C723.06 407.5 721.95 408.69 721.95 410.29C721.95 411.84 722.96 413.13 724.69 413.13C726.15 413.13 726.94 412.24 727.23 411.44H725.81C725.53 411.91 725.1 412.06 724.68 412.06C724.03 412.06 723.39 411.61 723.32 410.69ZM723.34 409.74C723.45 408.84 724.12 408.51 724.64 408.51C725.22 408.51 725.86 408.83 725.89 409.74H723.34ZM731.259 408.95V407.65C731.169 407.64 731.049 407.63 730.959 407.63C730.339 407.63 729.849 407.9 729.539 408.56V407.62H728.179V413H729.559V410.18C729.559 409.17 730.009 408.92 730.689 408.92C730.889 408.92 731.059 408.93 731.259 408.95ZM733.492 413.13C734.302 413.13 734.872 412.89 735.252 412.33C735.272 412.59 735.302 412.83 735.342 413H736.612C736.512 412.55 736.452 412.07 736.452 411.22C736.452 410.73 736.472 410.02 736.472 409.85C736.472 408.03 735.432 407.48 734.152 407.48C732.772 407.48 731.892 408.26 731.792 409.32H733.082C733.112 408.73 733.552 408.45 734.082 408.45C734.642 408.45 735.092 408.74 735.092 409.57V409.66C732.982 409.9 731.552 410.28 731.552 411.55C731.552 412.53 732.462 413.13 733.492 413.13ZM735.132 410.54V410.94C735.132 411.72 734.762 412.19 733.902 412.19C733.282 412.19 732.972 411.87 732.972 411.48C732.972 410.88 733.592 410.7 735.132 410.54Z" fill="black"/>
<path d="M701.8 431H702.71V423.75H702.09C701.69 424.54 701.16 424.67 700.12 424.71V425.33H701.8V431ZM709.002 425.52C709.002 424.3 708.042 423.62 706.702 423.62C705.162 423.62 704.162 424.57 704.182 426.01H705.122C705.142 424.81 705.902 424.38 706.682 424.38C707.542 424.38 708.042 424.89 708.042 425.64C708.042 426.92 706.542 428.29 703.982 430.18V431H709.202V430.15H705.222C707.252 428.69 709.002 427.2 709.002 425.52ZM712.88 431.13C714.81 431.13 715.7 429.67 715.7 427.37C715.7 425.08 714.81 423.62 712.88 423.62C710.95 423.62 710.06 425.08 710.06 427.37C710.06 429.67 710.95 431.13 712.88 431.13ZM712.88 424.38C714.02 424.38 714.73 425.36 714.73 427.37C714.73 429.39 714.02 430.37 712.88 430.37C711.74 430.37 711.03 429.39 711.03 427.37C711.03 425.36 711.74 424.38 712.88 424.38ZM716.841 423.75V424.9H717.331L716.801 426.29L717.381 426.29L717.991 424.98V423.75H716.841ZM721.943 431.13C723.873 431.13 724.763 429.67 724.763 427.37C724.763 425.08 723.873 423.62 721.943 423.62C720.013 423.62 719.123 425.08 719.123 427.37C719.123 429.67 720.013 431.13 721.943 431.13ZM721.943 424.38C723.083 424.38 723.793 425.36 723.793 427.37C723.793 429.39 723.083 430.37 721.943 430.37C720.803 430.37 720.093 429.39 720.093 427.37C720.093 425.36 720.803 424.38 721.943 424.38ZM728.554 431.13C730.484 431.13 731.374 429.67 731.374 427.37C731.374 425.08 730.484 423.62 728.554 423.62C726.624 423.62 725.734 425.08 725.734 427.37C725.734 429.67 726.624 431.13 728.554 431.13ZM728.554 424.38C729.694 424.38 730.404 425.36 730.404 427.37C730.404 429.39 729.694 430.37 728.554 430.37C727.414 430.37 726.704 429.39 726.704 427.37C726.704 425.36 727.414 424.38 728.554 424.38ZM735.165 431.13C737.095 431.13 737.985 429.67 737.985 427.37C737.985 425.08 737.095 423.62 735.165 423.62C733.235 423.62 732.345 425.08 732.345 427.37C732.345 429.67 733.235 431.13 735.165 431.13ZM735.165 424.38C736.305 424.38 737.015 425.36 737.015 427.37C737.015 429.39 736.305 430.37 735.165 430.37C734.025 430.37 733.315 429.39 733.315 427.37C733.315 425.36 734.025 424.38 735.165 424.38Z" fill="black"/>
</g>
<defs>
<clipPath id="clip0_904_78">
<rect width="742" height="1072" fill="white"/>
</clipPath>
</defs>
</svg>
