<svg width="1510" height="122" viewBox="0 0 1510 122" fill="none" xmlns="http://www.w3.org/2000/svg">
<mask id="path-1-inside-1_4906_5141" fill="white">
<path d="M456 0.28125C470.19 0.28125 483.242 5.14854 493.579 13.3046C514.623 29.9076 536.236 53.0049 563.04 53.0049C589.092 53.0049 610.807 29.6572 634.23 18.2544C640.505 15.2 647.552 13.4864 655 13.4863C657.685 13.4863 660.318 13.7091 662.882 14.1371C696.311 19.718 726.646 53.0049 760.538 53.0049H763.059C794.581 53.0049 824.477 21.4082 856 21.4082C888.308 21.4082 919.021 55.0049 951.329 55.0049H987.007C1010.07 55.0049 1031.94 31.9648 1055 31.9648C1077.64 31.965 1099.09 54.0049 1121.74 54.0049H1168.69C1198.3 54.0049 1226.39 24.0431 1256 24.043C1283.89 24.043 1310.3 50.0049 1338.19 50.0049H1345.11C1379.65 50.0049 1409.93 17.8497 1443.49 9.69807C1447.5 8.72418 1451.69 8.20801 1456 8.20801C1485.16 8.20803 1508.8 31.8472 1508.8 61.0078C1508.8 90.1684 1485.16 113.808 1456 113.808C1451.69 113.808 1447.5 113.291 1443.49 112.318C1409.93 104.166 1379.64 72.0049 1345.1 72.0049H1338.19C1310.3 72.0049 1283.89 97.9629 1256 97.9629C1226.39 97.9628 1198.3 68.0049 1168.69 68.0049H1121.74C1099.09 68.0049 1077.64 90.0448 1055 90.0449C1031.94 90.0449 1010.07 67.0049 987.007 67.0049H951.336C919.025 67.0049 888.31 100.607 856 100.607C824.475 100.607 794.577 69.0049 763.052 69.0049H760.535C726.646 69.0049 696.315 102.289 662.889 107.874C660.323 108.303 657.688 108.526 655 108.526C647.552 108.526 640.505 106.813 634.231 103.759C610.806 92.3556 589.089 69.0049 563.035 69.0049C536.232 69.0049 514.62 92.099 493.577 108.7C483.24 116.855 470.189 121.722 456 121.722C441.984 121.722 429.077 116.973 418.801 108.996C399.32 93.8748 379.093 74.0049 354.433 74.0049C329.968 74.0049 309.82 93.7663 289.995 108.101C280.438 115.012 268.695 119.085 256 119.085C243.242 119.085 231.444 114.971 221.862 107.998C200.213 92.2431 178.521 69.0049 151.747 69.0049C125.335 69.0049 103.603 92.372 80.7412 105.598C73.169 109.979 64.3773 112.486 55 112.486C26.5685 112.486 3.51974 89.4383 3.51953 61.0068C3.51953 32.5752 26.5684 9.52637 55 9.52637C64.3769 9.52644 73.1683 12.0335 80.7404 16.414C103.602 29.6393 125.334 53.0049 151.745 53.0049C178.521 53.0049 200.213 29.7653 221.863 14.011C231.445 7.03816 243.242 2.9248 256 2.9248C268.696 2.92489 280.441 6.99859 289.998 13.9102C309.82 28.2452 329.967 48.0049 354.429 48.0049C379.09 48.0049 399.316 28.1334 418.796 13.0105C429.073 5.03173 441.982 0.281339 456 0.28125Z"/>
</mask>
<path d="M456 0.28125V-0.71875V0.28125ZM655 13.4863V12.4863V13.4863ZM1456 8.20801V7.20801V8.20801ZM1508.8 61.0078H1509.8H1508.8ZM1456 113.808V114.808V113.808ZM655 108.526V109.526V108.526ZM456 121.722V122.722V121.722ZM256 119.085V120.085V119.085ZM55 112.486V113.486H55L55 112.486ZM3.51953 61.0068H2.51953V61.0068L3.51953 61.0068ZM55 9.52637L55 8.52637H55V9.52637ZM256 2.9248V1.9248V2.9248ZM418.796 13.0105L418.183 12.2206L418.796 13.0105ZM1443.49 9.69807L1443.26 8.72632L1443.49 9.69807ZM493.577 108.7L492.958 107.915L493.577 108.7ZM1443.49 112.318L1443.26 113.289L1443.49 112.318ZM634.231 103.759L633.793 104.658L634.231 103.759ZM634.23 18.2544L634.668 19.1535L634.23 18.2544ZM456 0.28125V1.28125C469.957 1.28125 482.793 6.06784 492.96 14.0897L493.579 13.3046L494.199 12.5196C483.691 4.22924 470.422 -0.71875 456 -0.71875V0.28125ZM634.23 18.2544L634.668 19.1535C640.809 16.1641 647.707 14.4864 655 14.4863V13.4863V12.4863C647.397 12.4864 640.2 14.2359 633.793 17.3553L634.23 18.2544ZM655 13.4863V14.4863C657.63 14.4863 660.208 14.7045 662.717 15.1234L662.882 14.1371L663.047 13.1507C660.429 12.7137 657.741 12.4863 655 12.4863V13.4863ZM760.538 53.0049V54.0049H763.059V53.0049V52.0049H760.538V53.0049ZM951.329 55.0049V56.0049H987.007V55.0049V54.0049H951.329V55.0049ZM1121.74 54.0049V55.0049H1168.69V54.0049V53.0049H1121.74V54.0049ZM1338.19 50.0049V51.0049H1345.11V50.0049V49.0049H1338.19V50.0049ZM1443.49 9.69807L1443.73 10.6698C1447.66 9.71455 1451.77 9.20801 1456 9.20801V8.20801V7.20801C1451.61 7.20801 1447.34 7.73381 1443.26 8.72632L1443.49 9.69807ZM1456 8.20801V9.20801C1484.61 9.20803 1507.8 32.3995 1507.8 61.0078H1508.8H1509.8C1509.8 31.2949 1485.71 7.20803 1456 7.20801V8.20801ZM1508.8 61.0078H1507.8C1507.8 89.6161 1484.61 112.808 1456 112.808V113.808V114.808C1485.71 114.808 1509.8 90.7207 1509.8 61.0078H1508.8ZM1456 113.808V112.808C1451.77 112.808 1447.66 112.301 1443.73 111.346L1443.49 112.318L1443.26 113.289C1447.34 114.282 1451.61 114.808 1456 114.808V113.808ZM1345.1 72.0049V71.0049H1338.19V72.0049V73.0049H1345.1V72.0049ZM1168.69 68.0049V67.0049H1121.74V68.0049V69.0049H1168.69V68.0049ZM987.007 67.0049V66.0049H951.336V67.0049V68.0049H987.007V67.0049ZM763.052 69.0049V68.0049H760.535V69.0049V70.0049H763.052V69.0049ZM662.889 107.874L662.724 106.888C660.213 107.308 657.632 107.526 655 107.526V108.526V109.526C657.743 109.526 660.434 109.299 663.054 108.861L662.889 107.874ZM655 108.526V107.526C647.707 107.526 640.809 105.849 634.669 102.86L634.231 103.759L633.793 104.658C640.201 107.777 647.397 109.526 655 109.526V108.526ZM493.577 108.7L492.958 107.915C482.791 115.936 469.956 120.722 456 120.722V121.722V122.722C470.421 122.722 483.689 117.774 494.197 109.485L493.577 108.7ZM456 121.722V120.722C442.214 120.722 429.521 116.051 419.414 108.206L418.801 108.996L418.188 109.786C428.633 117.894 441.754 122.722 456 122.722V121.722ZM289.995 108.101L289.409 107.291C280.017 114.082 268.477 118.085 256 118.085V119.085V120.085C268.912 120.085 280.859 115.941 290.581 108.912L289.995 108.101ZM256 119.085V118.085C243.46 118.085 231.868 114.042 222.45 107.189L221.862 107.998L221.273 108.806C231.021 115.9 243.023 120.085 256 120.085V119.085ZM80.7412 105.598L80.2404 104.733C72.8163 109.028 64.1968 111.486 55 111.486L55 112.486L55 113.486C64.5578 113.486 73.5216 110.93 81.2419 106.464L80.7412 105.598ZM55 112.486V111.486C27.1208 111.486 4.51974 88.886 4.51953 61.0068L3.51953 61.0068L2.51953 61.0068C2.51974 89.9906 26.0162 113.486 55 113.486V112.486ZM3.51953 61.0068H4.51953C4.51953 33.1275 27.1207 10.5264 55 10.5264V9.52637V8.52637C26.0161 8.52637 2.51953 32.0229 2.51953 61.0068H3.51953ZM55 9.52637L55 10.5264C64.1964 10.5264 72.8157 12.9848 80.2396 17.2796L80.7404 16.414L81.2411 15.5484C73.5209 11.0823 64.5574 8.52644 55 8.52637L55 9.52637ZM221.863 14.011L222.451 14.8196C231.868 7.96696 243.461 3.9248 256 3.9248V2.9248V1.9248C243.024 1.9248 231.022 6.10935 221.275 13.2024L221.863 14.011ZM256 2.9248V3.9248C268.479 3.92489 280.019 7.92808 289.412 14.7205L289.998 13.9102L290.584 13.0999C280.862 6.06909 268.913 1.92489 256 1.9248V2.9248ZM418.796 13.0105L419.409 13.8004C429.517 5.95299 442.212 1.28134 456 1.28125V0.28125V-0.71875C441.752 -0.71866 428.629 4.11046 418.183 12.2206L418.796 13.0105ZM354.429 48.0049V49.0049C367.035 49.0049 378.45 43.9247 389.1 37.0178C399.72 30.1299 409.739 21.3075 419.409 13.8004L418.796 13.0105L418.183 12.2206C408.373 19.8364 398.54 28.5113 388.011 35.3398C377.512 42.1493 366.484 47.0049 354.429 47.0049V48.0049ZM289.998 13.9102L289.412 14.7205C299.22 21.8137 309.345 30.4324 319.936 37.1767C330.578 43.9528 341.923 49.0049 354.429 49.0049V48.0049V47.0049C342.473 47.0049 331.513 42.1771 321.011 35.4897C310.458 28.7704 300.598 20.3417 290.584 13.0999L289.998 13.9102ZM151.745 53.0049V54.0049C165.428 54.0049 177.747 48.0658 189.287 40.2436C195.061 36.3299 200.666 31.9261 206.163 27.5312C211.67 23.1284 217.062 18.7411 222.451 14.8196L221.863 14.011L221.275 13.2024C215.839 17.158 210.4 21.5836 204.914 25.9691C199.418 30.3625 193.867 34.7226 188.165 38.5881C176.752 46.3242 164.837 52.0049 151.745 52.0049V53.0049ZM80.7404 16.414L80.2396 17.2796C85.9095 20.5596 91.52 24.4747 97.1838 28.5242C102.836 32.5651 108.547 36.745 114.369 40.5087C126.006 48.0326 138.244 54.0049 151.745 54.0049V53.0049V52.0049C138.835 52.0049 127.001 46.2944 115.454 38.8291C109.684 35.0983 104.025 30.9571 98.3471 26.8973C92.681 22.8461 87.002 18.881 81.2411 15.5484L80.7404 16.414ZM151.747 69.0049V68.0049C138.245 68.0049 126.007 73.9776 114.37 81.502C108.548 85.2659 102.837 89.4461 97.1848 93.4873C91.5209 97.5371 85.9103 101.452 80.2404 104.733L80.7412 105.598L81.2419 106.464C87.0029 103.131 92.6819 99.1656 98.348 95.1142C104.026 91.0541 109.685 86.9126 115.456 83.1815C127.002 75.7158 138.836 70.0049 151.747 70.0049V69.0049ZM1121.74 68.0049V67.0049C1110.14 67.0049 1098.89 72.6473 1087.92 78.1304C1076.84 83.6673 1066.04 89.0448 1055 89.0449V90.0449V91.0449C1066.6 91.0448 1077.85 85.4024 1088.82 79.9193C1099.89 74.3824 1110.7 69.0049 1121.74 69.0049V68.0049ZM1256 97.9629V96.9629C1241.49 96.9628 1227.29 89.6154 1212.81 82.0963C1198.44 74.6365 1183.79 67.0049 1168.69 67.0049V68.0049V69.0049C1183.2 69.0049 1197.4 76.3522 1211.88 83.8714C1226.25 91.3312 1240.91 98.9628 1256 98.9629V97.9629ZM1338.19 72.0049V71.0049C1323.97 71.0049 1310.19 77.6163 1296.66 84.0817C1283.04 90.5953 1269.68 96.9629 1256 96.9629V97.9629V98.9629C1270.21 98.9629 1284 92.3514 1297.52 85.8861C1311.15 79.3724 1324.51 73.0049 1338.19 73.0049V72.0049ZM1345.11 50.0049V51.0049C1362.67 51.0049 1379.08 42.8332 1395.16 33.7797C1411.32 24.6782 1427.12 14.7039 1443.73 10.6698L1443.49 9.69807L1443.26 8.72632C1426.31 12.8439 1410.18 23.023 1394.18 32.037C1378.09 41.0989 1362.09 49.0049 1345.11 49.0049V50.0049ZM354.433 74.0049V73.0049C341.925 73.0049 330.58 78.0574 319.937 84.8339C309.344 91.5787 299.219 100.198 289.409 107.291L289.995 108.101L290.581 108.912C300.596 101.67 310.457 93.2408 321.011 86.521C331.514 79.8331 342.475 75.0049 354.433 75.0049V74.0049ZM1168.69 54.0049V55.0049C1183.78 55.0049 1198.44 47.3723 1212.8 39.9115C1227.29 32.3914 1241.49 25.043 1256 25.043V24.043V23.043C1240.9 23.043 1226.25 30.6757 1211.88 38.1365C1197.4 45.6566 1183.2 53.0049 1168.69 53.0049V54.0049ZM418.801 108.996L419.414 108.206C409.744 100.7 399.723 91.8783 389.103 84.991C378.454 78.0846 367.039 73.0049 354.433 73.0049V74.0049V75.0049C366.487 75.0049 377.516 79.8601 388.015 86.669C398.544 93.497 408.377 102.171 418.188 109.786L418.801 108.996ZM1055 31.9648V32.9648C1066.04 32.9649 1076.84 38.3425 1087.92 43.8794C1098.89 49.3625 1110.14 55.0049 1121.74 55.0049V54.0049V53.0049C1110.7 53.0049 1099.89 47.6274 1088.82 42.0904C1077.85 36.6074 1066.6 30.9649 1055 30.9648V31.9648ZM563.035 69.0049V68.0049C549.339 68.0049 537.033 73.9067 525.579 81.8038C514.171 89.6686 503.379 99.6934 492.958 107.915L493.577 108.7L494.197 109.485C504.818 101.106 515.353 91.2828 526.714 83.4503C538.027 75.6501 549.929 70.0049 563.035 70.0049V69.0049ZM987.007 55.0049V56.0049C998.825 56.0049 1010.28 50.106 1021.46 44.3747C1032.75 38.586 1043.76 32.9648 1055 32.9648V31.9648V30.9648C1043.18 30.9648 1031.72 36.8637 1020.55 42.595C1009.26 48.3838 998.251 54.0049 987.007 54.0049V55.0049ZM760.535 69.0049V68.0049C743.292 68.0049 727.019 76.469 711.047 85.4741C694.979 94.5333 679.221 104.132 662.724 106.888L662.889 107.874L663.054 108.861C679.982 106.032 696.103 96.1955 712.029 87.2163C728.052 78.1829 743.889 70.0049 760.535 70.0049V69.0049ZM763.059 53.0049V54.0049C779.108 54.0049 794.688 45.966 809.987 38.0958C825.398 30.1677 840.527 22.4082 856 22.4082V21.4082V20.4082C839.951 20.4082 824.37 28.4471 809.072 36.3173C793.661 44.2454 778.532 52.0049 763.059 52.0049V53.0049ZM856 100.607V99.6074C840.526 99.6074 825.396 91.8465 809.983 83.9169C794.684 76.0453 779.102 68.0049 763.052 68.0049V69.0049V70.0049C778.526 70.0049 793.656 77.7658 809.068 85.6954C824.368 93.567 839.949 101.607 856 101.607V100.607ZM662.882 14.1371L662.717 15.1234C679.216 17.8778 694.976 27.4756 711.045 36.5349C727.019 45.5401 743.293 54.0049 760.538 54.0049V53.0049V52.0049C743.891 52.0049 728.052 43.8262 712.028 34.7927C696.1 25.8133 679.977 15.9772 663.047 13.1507L662.882 14.1371ZM1443.49 112.318L1443.73 111.346C1427.12 107.312 1411.32 97.3358 1395.16 88.2329C1379.08 79.1779 1362.66 71.0049 1345.1 71.0049V72.0049V73.0049C1362.08 73.0049 1378.08 80.9122 1394.17 89.9755C1410.18 98.991 1426.3 109.172 1443.26 113.289L1443.49 112.318ZM634.231 103.759L634.669 102.86C628.873 100.038 623.168 96.4703 617.439 92.6835C611.731 88.91 605.969 84.8972 600.149 81.2578C588.502 73.9743 576.357 68.0049 563.035 68.0049V69.0049V70.0049C575.767 70.0049 587.507 75.7108 599.088 82.9535C604.883 86.5771 610.57 90.54 616.336 94.3519C622.082 98.1505 627.876 101.777 633.793 104.658L634.231 103.759ZM856 21.4082V22.4082C871.856 22.4082 887.379 30.6581 903.194 39.089C918.89 47.4565 934.877 56.0049 951.329 56.0049V55.0049V54.0049C935.473 54.0049 919.949 45.755 904.135 37.3241C888.439 28.9566 872.452 20.4082 856 20.4082V21.4082ZM221.862 107.998L222.45 107.189C217.061 103.267 211.67 98.8803 206.163 94.4775C200.666 90.0827 195.061 85.6791 189.287 81.7656C177.748 73.9436 165.429 68.0049 151.747 68.0049V69.0049V70.0049C164.839 70.0049 176.753 75.6853 188.165 83.4211C193.868 87.2864 199.418 91.6463 204.914 96.0397C210.399 100.425 215.838 104.851 221.273 108.806L221.862 107.998ZM1256 24.043V25.043C1269.68 25.043 1283.04 31.4115 1296.66 37.9261C1310.19 44.3924 1323.98 51.0049 1338.19 51.0049V50.0049V49.0049C1324.51 49.0049 1311.15 42.6364 1297.53 36.1217C1284 29.6554 1270.22 23.043 1256 23.043V24.043ZM951.336 67.0049V66.0049C934.883 66.0049 918.894 74.5548 903.197 82.9237C887.382 91.3561 871.857 99.6074 856 99.6074V100.607V101.607C872.453 101.607 888.441 93.0575 904.138 84.6886C919.954 76.2562 935.479 68.0049 951.336 68.0049V67.0049ZM563.04 53.0049V54.0049C576.361 54.0049 588.505 48.0362 600.151 40.7535C605.97 37.1145 611.732 33.1021 617.44 29.3289C623.168 25.5424 628.873 21.9747 634.668 19.1535L634.23 18.2544L633.793 17.3553C627.876 20.2355 622.083 23.8623 616.337 27.6605C610.571 31.472 604.885 35.4346 599.091 39.0578C587.51 46.2997 575.771 52.0049 563.04 52.0049V53.0049ZM1055 90.0449V89.0449C1043.76 89.0449 1032.75 83.4238 1021.46 77.6351C1010.28 71.9038 998.825 66.0049 987.007 66.0049V67.0049V68.0049C998.251 68.0049 1009.26 73.626 1020.55 79.4147C1031.72 85.146 1043.18 91.0449 1055 91.0449V90.0449ZM493.579 13.3046L492.96 14.0897C503.381 22.3121 514.174 32.3383 525.582 40.2041C537.036 48.1022 549.343 54.0049 563.04 54.0049V53.0049V52.0049C549.933 52.0049 538.031 46.3589 526.717 38.5576C515.356 30.7241 504.821 20.9001 494.199 12.5196L493.579 13.3046Z" fill="black" mask="url(#path-1-inside-1_4906_5141)"/>
<circle cx="56" cy="61.0062" r="21.6" fill="black"/>
<circle cx="656" cy="61" r="20.4" fill="black"/>
<circle cx="1456" cy="61" r="22.8" fill="black"/>
<circle cx="1256" cy="61" r="15.6" fill="black"/>
<circle cx="1055" cy="61" r="13.2" fill="black"/>
<circle cx="856" cy="61" r="18" fill="black"/>
<circle cx="456" cy="61" r="26.4" fill="black"/>
<circle cx="256" cy="61" r="24" fill="black"/>
</svg>
