<svg width="1483" height="88" viewBox="0 0 1483 88" fill="none" xmlns="http://www.w3.org/2000/svg">
<mask id="path-1-inside-1_4906_5237" fill="white">
<path d="M447 0V0C482.382 0 515.965 36 551.347 36H578.835C601.628 36 623.208 14.2998 646 14.2998V14.2998V14.2998C670.04 14.2998 692.871 39 716.911 39H781.784C803.897 39 824.886 16.5 847 16.5V16.5V16.5C868.708 16.5 889.284 38 910.993 38H996.346C1013.2 38 1029.15 22 1046 22V22V22C1062.85 22 1078.8 38 1095.65 38H1191.6C1210.4 38 1228.2 19.7998 1247 19.7998V19.7998V19.7998C1262.75 19.7998 1277.73 32 1293.48 32H1370.85C1396.69 32 1421.16 8.79984 1447 8.7998V8.7998C1466.44 8.7998 1482.2 24.5596 1482.2 44C1482.2 63.4404 1466.44 79.2002 1447 79.2002V79.2002C1421.16 79.2002 1396.69 56 1370.85 56H1293.48C1277.73 56 1262.75 68.2002 1247 68.2002V68.2002V68.2002C1228.2 68.2002 1210.4 50 1191.6 50H1095.65C1078.8 50 1062.85 66 1046 66V66V66C1029.15 66 1013.2 50 996.346 50H910.993C889.284 50 868.708 71.5 847 71.5V71.5V71.5C824.886 71.5 803.897 49 781.784 49H716.911C692.871 49 670.04 73.7002 646 73.7002V73.7002V73.7002C623.208 73.7002 601.628 52 578.835 52H551.347C515.965 52 482.382 88 447 88V88V88C413.751 88 382.277 57 349.028 57H327.554C300.219 57 274.335 81.4004 247 81.4004V81.4004V81.4004C217.41 81.4004 189.36 52 159.771 52H133.229C103.64 52 75.5897 81.4004 46 81.4004V81.4004C25.3446 81.4004 8.59961 64.6555 8.59961 44C8.59961 23.3446 25.3446 6.59961 46 6.59961V6.59961C75.5897 6.59961 103.64 36 133.229 36H159.771C189.36 36 217.41 6.59962 247 6.59961V6.59961V6.59961C274.335 6.59961 300.219 31 327.554 31H349.028C382.277 31 413.751 0 447 0V0Z"/>
</mask>
<path d="M1482.2 44L1483.2 44V44L1482.2 44ZM8.59961 44L7.59961 44V44H8.59961ZM551.347 36V37H578.835V36V35H551.347V36ZM716.911 39V40H781.784V39V38H716.911V39ZM910.993 38V39H996.346V38V37H910.993V38ZM1095.65 38V39H1191.6V38V37H1095.65V38ZM1293.48 32V33H1370.85V32V31H1293.48V32ZM1447 8.7998V9.7998C1465.89 9.7998 1481.2 25.1119 1481.2 44L1482.2 44L1483.2 44C1483.2 24.0073 1466.99 7.7998 1447 7.7998V8.7998ZM1482.2 44H1481.2C1481.2 62.8881 1465.89 78.2002 1447 78.2002V79.2002V80.2002C1466.99 80.2002 1483.2 63.9927 1483.2 44H1482.2ZM1370.85 56V55H1293.48V56V57H1370.85V56ZM1191.6 50V49H1095.65V50V51H1191.6V50ZM996.346 50V49H910.993V50V51H996.346V50ZM781.784 49V48H716.911V49V50H781.784V49ZM578.835 52V51H551.347V52V53H578.835V52ZM349.028 57V56H327.554V57V58H349.028V57ZM159.771 52V51H133.229V52V53H159.771V52ZM46 81.4004L46 80.4004C25.8968 80.4004 9.59961 64.1032 9.59961 44H8.59961H7.59961C7.59961 65.2077 24.7923 82.4004 46 82.4004L46 81.4004ZM8.59961 44L9.59961 44C9.59961 23.8968 25.8968 7.59961 46 7.59961L46 6.59961L46 5.59961C24.7923 5.59961 7.59961 22.7923 7.59961 44L8.59961 44ZM133.229 36V37H159.771V36V35H133.229V36ZM327.554 31V32H349.028V31V30H327.554V31ZM349.028 31V32C365.922 32 382.316 24.1276 398.446 16.4019C414.677 8.62764 430.645 1 447 1V0V-1C430.106 -1 413.712 6.87236 397.582 14.5981C381.351 22.3724 365.383 30 349.028 30V31ZM247 6.59961V7.59961C260.409 7.59961 273.508 13.5869 286.86 19.7088C300.117 25.7871 313.628 32 327.554 32V31V30C314.145 30 301.046 24.0127 287.694 17.8908C274.437 11.8125 260.926 5.59961 247 5.59961V6.59961ZM159.771 36V37C174.851 37 189.485 29.5124 203.84 22.1906C218.305 14.8122 232.491 7.59961 247 7.59961L247 6.59961L247 5.59961C231.919 5.59961 217.285 13.0872 202.931 20.409C188.466 27.7874 174.28 35 159.771 35V36ZM46 6.59961V7.59961C60.5089 7.59961 74.6948 14.8122 89.1603 22.1906C103.515 29.5124 118.149 37 133.229 37V36V35C118.72 35 104.534 27.7874 90.069 20.409C75.7147 13.0872 61.0807 5.59961 46 5.59961V6.59961ZM133.229 52V51C118.149 51 103.515 58.4876 89.1603 65.8094C74.6948 73.1878 60.509 80.4004 46 80.4004V81.4004V82.4004C61.0807 82.4004 75.7147 74.9128 90.069 67.591C104.534 60.2126 118.72 53 133.229 53V52ZM1095.65 50V49C1086.96 49 1078.54 53.1266 1070.39 57.1012C1062.14 61.1266 1054.15 65 1046 65V66V67C1054.7 67 1063.12 62.8734 1071.27 58.8988C1079.52 54.8734 1087.5 51 1095.65 51V50ZM1247 68.2002L1247 67.2002C1237.88 67.2002 1228.95 62.7813 1219.74 58.2047C1210.65 53.6812 1201.27 49 1191.6 49V50V51C1200.72 51 1209.65 55.4189 1218.85 59.9955C1227.95 64.519 1237.32 69.2002 1247 69.2002L1247 68.2002ZM1293.48 56V55C1285.38 55 1277.52 58.1361 1269.87 61.1706C1262.15 64.2362 1254.65 67.2002 1247 67.2002V68.2002V69.2002C1255.1 69.2002 1262.96 66.0641 1270.61 63.0295C1278.33 59.964 1285.83 57 1293.48 57V56ZM1370.85 32V33C1384.03 33 1396.81 27.0859 1409.34 21.308C1421.97 15.4859 1434.34 9.79982 1447 9.7998L1447 8.7998L1447 7.7998C1433.82 7.79982 1421.03 13.7139 1408.5 19.4918C1395.88 25.314 1383.51 31 1370.85 31V32ZM327.554 57V56C313.628 56 300.117 62.2129 286.86 68.2912C273.508 74.4131 260.409 80.4004 247 80.4004V81.4004V82.4004C260.926 82.4004 274.437 76.1875 287.694 70.1092C301.046 63.9873 314.145 58 327.554 58V57ZM1191.6 38V39C1201.27 39 1210.65 34.3188 1219.74 29.7953C1228.95 25.2187 1237.88 20.7998 1247 20.7998L1247 19.7998L1247 18.7998C1237.32 18.7998 1227.95 23.481 1218.85 28.0045C1209.65 32.5811 1200.72 37 1191.6 37V38ZM447 88V87C430.645 87 414.677 79.3724 398.446 71.5981C382.316 63.8724 365.922 56 349.028 56V57V58C365.383 58 381.351 65.6276 397.582 73.4019C413.712 81.1276 430.106 89 447 89V88ZM1046 22V23C1054.15 23 1062.14 26.8734 1070.39 30.8988C1078.54 34.8734 1086.96 39 1095.65 39V38V37C1087.5 37 1079.52 33.1266 1071.27 29.1012C1063.12 25.1266 1054.7 21 1046 21V22ZM551.347 52V51C533.364 51 515.894 60.1435 498.711 69.1135C481.412 78.1435 464.399 87 447 87V88V89C464.983 89 482.453 79.8565 499.636 70.8865C516.935 61.8565 533.948 53 551.347 53V52ZM996.346 38V39C1005.04 39 1013.46 34.8734 1021.61 30.8988C1029.86 26.8734 1037.85 23 1046 23V22V21C1037.3 21 1028.88 25.1266 1020.73 29.1012C1012.48 33.1266 1004.5 37 996.346 37V38ZM716.911 49V48C704.596 48 692.648 54.3211 680.989 60.4654C669.213 66.6712 657.725 72.7002 646 72.7002L646 73.7002L646 74.7002C658.315 74.7002 670.262 68.379 681.921 62.2348C693.698 56.029 705.186 50 716.911 50V49ZM781.784 39V40C793.133 40 804.137 34.2314 814.855 28.6365C825.688 22.9814 836.235 17.5 847 17.5V16.5V15.5C835.651 15.5 824.647 21.2686 813.929 26.8635C803.096 32.5186 792.549 38 781.784 38V39ZM847 71.5V70.5C836.235 70.5 825.688 65.0186 814.855 59.3635C804.137 53.7686 793.133 48 781.784 48V49V50C792.549 50 803.096 55.4814 813.929 61.1365C824.647 66.7314 835.651 72.5 847 72.5V71.5ZM646 14.2998L646 15.2998C657.725 15.2998 669.213 21.3288 680.989 27.5346C692.648 33.6789 704.596 40 716.911 40V39V38C705.186 38 693.698 31.971 681.921 25.7652C670.262 19.621 658.315 13.2998 646 13.2998L646 14.2998ZM1447 79.2002L1447 78.2002C1434.34 78.2002 1421.97 72.5141 1409.34 66.692C1396.81 60.9141 1384.03 55 1370.85 55V56V57C1383.51 57 1395.88 62.686 1408.5 68.5082C1421.03 74.2861 1433.82 80.2002 1447 80.2002L1447 79.2002ZM646 73.7002V72.7002C634.879 72.7002 624.002 67.4023 612.857 61.9518C601.816 56.5522 590.506 51 578.835 51V52V53C589.957 53 600.833 58.2979 611.978 63.7484C623.019 69.148 634.329 74.7002 646 74.7002V73.7002ZM847 16.5V17.5C857.569 17.5 867.917 22.7383 878.543 28.1414C889.059 33.4883 899.853 39 910.993 39V38V37C900.424 37 890.076 31.7617 879.45 26.3586C868.934 21.0117 858.139 15.5 847 15.5V16.5ZM247 81.4004L247 80.4004C232.491 80.4004 218.305 73.1878 203.84 65.8094C189.485 58.4876 174.851 51 159.771 51V52V53C174.28 53 188.466 60.2126 202.931 67.591C217.285 74.9128 231.919 82.4004 247 82.4004L247 81.4004ZM1247 19.7998V20.7998C1254.65 20.7998 1262.15 23.7638 1269.87 26.8294C1277.52 29.8639 1285.38 33 1293.48 33V32V31C1285.83 31 1278.33 28.036 1270.61 24.9705C1262.96 21.9359 1255.1 18.7998 1247 18.7998V19.7998ZM910.993 50V49C899.853 49 889.059 54.5117 878.543 59.8586C867.917 65.2617 857.569 70.5 847 70.5V71.5V72.5C858.139 72.5 868.934 66.9883 879.45 61.6414C890.076 56.2383 900.424 51 910.993 51V50ZM578.835 36V37C590.506 37 601.816 31.4478 612.857 26.0482C624.002 20.5977 634.879 15.2998 646 15.2998V14.2998V13.2998C634.329 13.2998 623.019 18.852 611.978 24.2516C600.833 29.7021 589.957 35 578.835 35V36ZM1046 66V65C1037.85 65 1029.86 61.1266 1021.61 57.1012C1013.46 53.1266 1005.04 49 996.346 49V50V51C1004.5 51 1012.48 54.8734 1020.73 58.8988C1028.88 62.8734 1037.3 67 1046 67V66ZM447 0V1C464.399 1 481.412 9.85645 498.711 18.8865C515.894 27.8565 533.364 37 551.347 37V36V35C533.948 35 516.935 26.1435 499.636 17.1135C482.453 8.14355 464.983 -1 447 -1V0Z" fill="black" mask="url(#path-1-inside-1_4906_5237)"/>
<circle cx="46" cy="44" r="16" fill="black"/>
<circle cx="646" cy="44" r="13" fill="black"/>
<circle cx="1447" cy="44" r="16" fill="black"/>
<circle cx="1247" cy="44" r="11" fill="black"/>
<circle cx="1046" cy="44" r="11" fill="black"/>
<circle cx="847" cy="44" r="13" fill="black"/>
<circle cx="447" cy="44" r="18" fill="black"/>
<circle cx="247" cy="44" r="16" fill="black"/>
</svg>
