<svg width="1494" height="108" viewBox="0 0 1494 108" fill="none" xmlns="http://www.w3.org/2000/svg">
<mask id="path-1-inside-1_4906_5187" fill="white">
<path d="M448 0.101562C454.971 0.101562 461.633 1.42493 467.748 3.83415C497.916 15.7194 525.313 46.002 557.738 46.002H559.769C589.359 46.002 617.41 16.5996 647 16.5996V16.5996V16.5996C676.59 16.5996 704.641 46.002 734.231 46.002H775.082C799.824 46.002 823.258 22.0996 848 22.0996V22.0996V22.0996C873.573 22.0996 897.838 48.002 923.411 48.002H991.594C1010.39 48.002 1028.2 29.7998 1047 29.7998V29.7998V29.7998C1065.8 29.7998 1083.61 48.002 1102.41 48.002H1169.74C1196.28 48.002 1221.46 21 1248 21V21V21C1272.35 21 1295.4 43.002 1319.75 43.002H1344.52C1379.63 43.002 1412.89 8.90041 1448 8.90039V8.90039C1472.91 8.90039 1493.1 29.092 1493.1 54C1493.1 78.908 1472.91 99.0996 1448 99.0996V99.0996C1412.89 99.0996 1379.63 65.002 1344.52 65.002H1319.74C1295.4 65.002 1272.35 87 1248 87V87V87C1221.46 87 1196.28 60.002 1169.74 60.002H1102.4C1083.6 60.002 1065.8 78.2002 1047 78.2002V78.2002V78.2002C1028.2 78.2002 1010.4 60.002 991.599 60.002H923.405C897.834 60.002 873.571 85.9004 848 85.9004V85.9004V85.9004C823.26 85.9004 799.828 62.002 775.087 62.002H734.226C704.637 62.002 676.589 91.4004 647 91.4004V91.4004V91.4004C617.411 91.4004 589.363 62.002 559.774 62.002H557.741C525.315 62.002 497.915 92.287 467.745 104.171C461.63 106.579 454.97 107.902 448 107.902C441.545 107.902 435.355 106.768 429.618 104.687C400.466 94.1114 373.898 67.002 342.888 67.002V67.002C312.929 67.002 286.218 93.6893 256.803 99.3645C253.953 99.9143 251.01 100.202 248 100.202C244.751 100.202 241.581 99.8668 238.522 99.2289C207.399 92.7392 179.292 62.002 147.5 62.002V62.002C115.708 62.002 87.6008 92.7392 56.4783 99.2289C53.419 99.8668 50.2487 100.202 47 100.202C21.4844 100.202 0.799805 79.5175 0.799805 54.002C0.799805 28.4864 21.4844 7.80176 47 7.80176C50.2487 7.80176 53.419 8.13708 56.4783 8.775C87.6008 15.2647 115.708 46.002 147.5 46.002V46.002C179.292 46.002 207.399 15.2647 238.522 8.775C241.581 8.13708 244.751 7.80176 248 7.80176C251.01 7.80176 253.953 8.08966 256.803 8.63942C286.218 14.3146 312.929 41.002 342.888 41.002V41.002C373.898 41.002 400.466 13.8925 429.618 3.31733C435.355 1.23636 441.545 0.101563 448 0.101562Z"/>
</mask>
<path d="M448 0.101562L448 -0.898438L448 -0.898437L448 0.101562ZM1493.1 54L1494.1 54V54H1493.1ZM448 107.902L448 108.902H448V107.902ZM248 100.202L248 101.202H248V100.202ZM47 100.202L47 101.202H47V100.202ZM0.799805 54.002L-0.200195 54.002V54.002H0.799805ZM47 7.80176L47 6.80176H47L47 7.80176ZM248 7.80176L248 6.80176L248 6.80176L248 7.80176ZM56.4783 8.775L56.6824 7.79606L56.4783 8.775ZM467.745 104.171L467.378 103.241L467.745 104.171ZM448 0.101562V1.10156C454.843 1.10156 461.381 2.40057 467.381 4.76454L467.748 3.83415L468.115 2.90375C461.884 0.449297 455.098 -0.898438 448 -0.898438V0.101562ZM557.738 46.002V47.002H559.769V46.002V45.002H557.738V46.002ZM734.231 46.002V47.002H775.082V46.002V45.002H734.231V46.002ZM923.411 48.002V49.002H991.594V48.002V47.002H923.411V48.002ZM1102.41 48.002V49.002H1169.74V48.002V47.002H1102.41V48.002ZM1319.75 43.002V44.002H1344.52V43.002V42.002H1319.75V43.002ZM1448 8.90039V9.90039C1472.36 9.90039 1492.1 29.6442 1492.1 54H1493.1H1494.1C1494.1 28.5397 1473.46 7.90039 1448 7.90039V8.90039ZM1493.1 54L1492.1 54C1492.1 78.3558 1472.36 98.0996 1448 98.0996V99.0996V100.1C1473.46 100.1 1494.1 79.4603 1494.1 54L1493.1 54ZM1344.52 65.002V64.002H1319.74V65.002V66.002H1344.52V65.002ZM1169.74 60.002V59.002H1102.4V60.002V61.002H1169.74V60.002ZM991.599 60.002V59.002H923.405V60.002V61.002H991.599V60.002ZM775.087 62.002V61.002H734.226V62.002V63.002H775.087V62.002ZM559.774 62.002V61.002H557.741V62.002V63.002H559.774V62.002ZM467.745 104.171L467.378 103.241C461.379 105.604 454.842 106.902 448 106.902V107.902V108.902C455.097 108.902 461.882 107.555 468.111 105.101L467.745 104.171ZM448 107.902L448 106.902C441.663 106.902 435.588 105.788 429.959 103.747L429.618 104.687L429.277 105.627C435.121 107.747 441.427 108.902 448 108.902L448 107.902ZM256.803 99.3645L256.613 98.3826C253.826 98.9204 250.946 99.2021 248 99.2021V100.202V101.202C251.074 101.202 254.08 100.908 256.992 100.346L256.803 99.3645ZM248 100.202L248 99.2021C244.82 99.2021 241.718 98.874 238.726 98.25L238.522 99.2289L238.318 100.208C241.444 100.86 244.682 101.202 248 101.202L248 100.202ZM56.4783 99.2289L56.2741 98.25C53.2816 98.874 50.1797 99.2021 47 99.2021V100.202V101.202C50.3177 101.202 53.5564 100.86 56.6824 100.208L56.4783 99.2289ZM47 100.202L47 99.2021C22.0367 99.2021 1.7998 78.9652 1.7998 54.002H0.799805H-0.200195C-0.200195 80.0698 20.9322 101.202 47 101.202L47 100.202ZM0.799805 54.002L1.7998 54.002C1.79981 29.0387 22.0367 8.80176 47 8.80176L47 7.80176L47 6.80176C20.9322 6.80176 -0.200195 27.9341 -0.200195 54.002L0.799805 54.002ZM47 7.80176V8.80176C50.1797 8.80176 53.2816 9.12994 56.2741 9.75395L56.4783 8.775L56.6824 7.79606C53.5564 7.14422 50.3177 6.80176 47 6.80176V7.80176ZM238.522 8.775L238.726 9.75395C241.718 9.12994 244.82 8.80176 248 8.80176L248 7.80176L248 6.80176C244.682 6.80176 241.444 7.14422 238.318 7.79606L238.522 8.775ZM248 7.80176V8.80176C250.946 8.80176 253.826 9.08353 256.613 9.62131L256.803 8.63942L256.992 7.65752C254.08 7.09578 251.074 6.80176 248 6.80176V7.80176ZM429.618 3.31733L429.959 4.25739C435.588 2.2155 441.663 1.10156 448 1.10156L448 0.101562L448 -0.898437C441.427 -0.898437 435.121 0.257217 429.277 2.37727L429.618 3.31733ZM342.888 41.002V42.002C358.675 42.002 373.267 35.1025 387.446 26.9934C401.704 18.8397 415.491 9.5059 429.959 4.25739L429.618 3.31733L429.277 2.37727C414.594 7.70394 400.521 17.2125 386.454 25.2573C372.308 33.3467 358.111 40.002 342.888 40.002V41.002ZM256.803 8.63942L256.613 9.62131C271.139 12.4238 285.008 20.417 299.178 27.8348C313.265 35.2097 327.634 42.002 342.888 42.002V41.002V40.002C328.183 40.002 314.217 33.4505 300.105 26.0629C286.076 18.7183 271.882 10.5302 256.992 7.65752L256.803 8.63942ZM147.5 46.002V47.002C163.694 47.002 178.883 39.1767 193.757 30.6907C208.723 22.1525 223.36 12.9581 238.726 9.75395L238.522 8.775L238.318 7.79606C222.561 11.0816 207.583 20.5007 192.766 28.9535C177.859 37.4585 163.098 45.002 147.5 45.002V46.002ZM56.4783 8.775L56.2741 9.75395C71.6404 12.9581 86.2767 22.1525 101.243 30.6907C116.117 39.1767 131.306 47.002 147.5 47.002V46.002V45.002C131.902 45.002 117.141 37.4585 102.234 28.9535C87.4173 20.5007 72.4387 11.0816 56.6824 7.79606L56.4783 8.775ZM147.5 62.002V61.002C131.306 61.002 116.117 68.8272 101.243 77.3132C86.2767 85.8514 71.6404 95.0458 56.2741 98.25L56.4783 99.2289L56.6824 100.208C72.4387 96.9223 87.4173 87.5032 102.234 79.0504C117.141 70.5454 131.902 63.002 147.5 63.002V62.002ZM1102.4 60.002V59.002C1092.72 59.002 1083.35 63.6827 1074.26 68.2056C1065.05 72.7818 1056.12 77.2002 1047 77.2002L1047 78.2002L1047 79.2002C1056.68 79.2002 1066.05 74.5195 1075.15 69.9965C1084.35 65.4204 1093.28 61.002 1102.4 61.002V60.002ZM1248 87V86C1235.02 86 1222.32 79.394 1209.33 72.6145C1196.46 65.895 1183.3 59.002 1169.74 59.002V60.002V61.002C1182.72 61.002 1195.42 67.6079 1208.41 74.3875C1221.28 81.107 1234.44 88 1248 88V87ZM1319.74 65.002V64.002C1307.31 64.002 1295.25 69.6169 1283.45 75.0939C1271.55 80.6159 1259.91 86 1248 86V87V88C1260.43 88 1272.49 82.3851 1284.29 76.908C1296.19 71.3861 1307.83 66.002 1319.74 66.002V65.002ZM1344.52 43.002V44.002C1362.35 44.002 1379.67 35.3446 1396.7 26.846C1413.85 18.2939 1430.72 9.9004 1448 9.90039L1448 8.90039L1448 7.90039C1430.16 7.9004 1412.85 16.5577 1395.81 25.0563C1378.67 33.6085 1361.79 42.002 1344.52 42.002V43.002ZM342.888 67.002V66.002C327.634 66.002 313.265 72.7942 299.178 80.1691C285.008 87.5869 271.139 95.5801 256.613 98.3826L256.803 99.3645L256.992 100.346C271.882 97.4737 286.076 89.2856 300.105 81.941C314.217 74.5534 328.183 68.002 342.888 68.002V67.002ZM1169.74 48.002V49.002C1183.3 49.002 1196.46 42.1079 1209.33 35.3875C1222.32 28.6069 1235.02 22 1248 22V21V20C1234.44 20 1221.28 26.8941 1208.41 33.6145C1195.42 40.395 1182.71 47.002 1169.74 47.002V48.002ZM429.618 104.687L429.959 103.747C415.491 98.498 401.704 89.1642 387.446 81.0105C373.267 72.9014 358.675 66.002 342.888 66.002V67.002V68.002C358.111 68.002 372.308 74.6572 386.454 82.7466C400.521 90.7914 414.594 100.3 429.277 105.627L429.618 104.687ZM1047 29.7998L1047 30.7998C1056.12 30.7998 1065.05 35.2192 1074.26 39.7963C1083.36 44.3202 1092.73 49.002 1102.41 49.002V48.002V47.002C1093.28 47.002 1084.35 42.5826 1075.15 38.0055C1066.05 33.4815 1056.68 28.7998 1047 28.7998L1047 29.7998ZM557.741 62.002V61.002C541.227 61.002 526.062 68.7126 511.372 77.779C496.598 86.8973 482.353 97.3421 467.378 103.241L467.745 104.171L468.111 105.101C483.307 99.1159 497.847 88.4762 512.422 79.481C527.081 70.4339 541.83 63.002 557.741 63.002V62.002ZM991.594 48.002V49.002C1001.27 49.002 1010.64 44.3202 1019.74 39.7963C1028.95 35.2192 1037.88 30.7998 1047 30.7998V29.7998V28.7998C1037.32 28.7998 1027.95 33.4815 1018.85 38.0055C1009.65 42.5826 1000.72 47.002 991.594 47.002V48.002ZM734.226 62.002V61.002C719.146 61.002 704.512 68.4891 690.159 75.8104C675.694 83.1883 661.508 90.4004 647 90.4004L647 91.4004L647 92.4004C662.08 92.4004 676.714 84.9133 691.067 77.592C705.532 70.214 719.717 63.002 734.226 63.002V62.002ZM775.082 46.002V47.002C787.732 47.002 799.995 40.8957 811.986 34.9466C824.083 28.9445 835.908 23.0996 848 23.0996V22.0996V21.0996C835.35 21.0996 823.087 27.2058 811.097 33.155C798.999 39.157 787.175 45.002 775.082 45.002V46.002ZM848 85.9004V84.9004C835.908 84.9004 824.084 79.0564 811.988 73.0554C799.998 67.1072 787.736 61.002 775.087 61.002V62.002V63.002C787.179 63.002 799.003 68.8459 811.099 74.847C823.089 80.7952 835.351 86.9004 848 86.9004V85.9004ZM647 16.5996L647 17.5996C661.509 17.5996 675.695 24.8127 690.161 32.1916C704.516 39.5138 719.15 47.002 734.231 47.002V46.002V45.002C719.722 45.002 705.536 37.7889 691.07 30.41C676.715 23.0877 662.081 15.5996 647 15.5996L647 16.5996ZM1448 99.0996L1448 98.0996C1430.72 98.0996 1413.85 89.7071 1396.71 81.1559C1379.67 72.6583 1362.36 64.002 1344.52 64.002V65.002V66.002C1361.8 66.002 1378.67 74.3945 1395.81 82.9457C1412.85 91.4433 1430.16 100.1 1448 100.1L1448 99.0996ZM647 91.4004V90.4004C632.492 90.4004 618.306 83.1883 603.841 75.8104C589.488 68.4891 574.854 61.002 559.774 61.002V62.002V63.002C574.283 63.002 588.468 70.214 602.933 77.592C617.286 84.9133 631.92 92.4004 647 92.4004V91.4004ZM848 22.0996L848 23.0996C860.495 23.0996 872.728 29.4328 885.244 35.9381C897.646 42.384 910.333 49.002 923.411 49.002V48.002V47.002C910.915 47.002 898.683 40.6688 886.166 34.1635C873.764 27.7176 861.077 21.0996 848 21.0996L848 22.0996ZM238.522 99.2289L238.726 98.25C223.36 95.0458 208.723 85.8514 193.757 77.3132C178.883 68.8272 163.694 61.002 147.5 61.002V62.002V63.002C163.098 63.002 177.859 70.5454 192.766 79.0504C207.583 87.5032 222.561 96.9223 238.318 100.208L238.522 99.2289ZM1248 21V22C1259.91 22 1271.56 27.3851 1283.45 32.908C1295.26 38.386 1307.31 44.002 1319.75 44.002V43.002V42.002C1307.84 42.002 1296.19 36.6169 1284.3 31.0939C1272.49 25.6159 1260.44 20 1248 20V21ZM923.405 60.002V59.002C910.329 59.002 897.643 65.6189 885.242 72.0638C872.726 78.5681 860.495 84.9004 848 84.9004L848 85.9004L848 86.9004C861.077 86.9004 873.762 80.2834 886.164 73.8385C898.68 67.3342 910.911 61.002 923.405 61.002V60.002ZM559.769 46.002V47.002C574.85 47.002 589.484 39.5138 603.839 32.1916C618.305 24.8127 632.491 17.5996 647 17.5996V16.5996V15.5996C631.919 15.5996 617.285 23.0877 602.93 30.41C588.464 37.7889 574.278 45.002 559.769 45.002V46.002ZM1047 78.2002V77.2002C1037.88 77.2002 1028.95 72.7818 1019.74 68.2056C1010.65 63.6827 1001.28 59.002 991.599 59.002V60.002V61.002C1000.72 61.002 1009.65 65.4204 1018.85 69.9965C1027.95 74.5195 1037.32 79.2002 1047 79.2002V78.2002ZM467.748 3.83415L467.381 4.76454C482.355 10.6637 496.598 21.1082 511.371 30.226C526.06 39.292 541.224 47.002 557.738 47.002V46.002V45.002C541.827 45.002 527.08 37.5707 512.422 28.5241C497.848 19.5293 483.309 8.88992 468.115 2.90375L467.748 3.83415Z" fill="black" mask="url(#path-1-inside-1_4906_5187)"/>
<circle cx="47" cy="54" r="19" fill="black"/>
<circle cx="647" cy="54" r="16" fill="black"/>
<circle cx="1448" cy="54" r="19" fill="black"/>
<circle cx="1248" cy="54" r="14" fill="black"/>
<circle cx="1047" cy="54" r="11" fill="black"/>
<circle cx="848" cy="54" r="14" fill="black"/>
<circle cx="448" cy="54" r="22" fill="black"/>
<circle cx="248" cy="54" r="19" fill="black"/>
</svg>
