<svg width="1511" height="130" viewBox="0 0 1511 130" fill="none" xmlns="http://www.w3.org/2000/svg">
<mask id="path-1-inside-1_4906_5187" fill="white">
<path d="M456.83 0.328125C473.322 0.328157 488.371 6.50475 499.792 16.6716C519.656 34.353 540.971 57.0078 567.564 57.0078C593.055 57.0078 614.487 34.0236 637.855 23.84C643.339 21.4503 649.393 20.125 655.756 20.125C656.368 20.125 656.977 20.1373 657.583 20.1615C692.644 21.5662 725.443 57.0078 760.533 57.0078H767.182C797.542 57.0078 826.322 26.719 856.682 26.7188C887.834 26.7188 917.435 59.0078 948.587 59.0078H987.625C1010.69 59.0078 1032.55 35.9609 1055.61 35.9609C1078.67 35.961 1100.53 59.0078 1123.59 59.0078H1161.22C1193.52 59.0078 1224.23 25.3984 1256.53 25.3984C1286.77 25.3985 1315.4 54.0078 1345.63 54.0078H1346.86C1379.83 54.0078 1408.14 23.9874 1439.44 13.6172C1444.79 11.8431 1450.51 10.8829 1456.46 10.8828C1486.34 10.8828 1510.56 35.1133 1510.56 65.0029C1510.56 94.8925 1486.34 119.123 1456.46 119.123C1450.52 119.123 1444.8 118.165 1439.46 116.396C1408.15 106.036 1379.83 76.0078 1346.85 76.0078H1345.61C1315.38 76.0078 1286.76 104.599 1256.53 104.599C1224.24 104.599 1193.54 71.0078 1161.24 71.0078H1123.57C1100.52 71.0078 1078.66 94.041 1055.61 94.041C1032.55 94.041 1010.7 71.0078 987.642 71.0078H948.564C917.419 71.0078 887.827 103.278 856.682 103.278C826.33 103.278 797.557 73.0078 767.205 73.0078H760.546C725.447 73.0078 692.635 108.459 657.563 109.849C656.964 109.873 656.361 109.885 655.756 109.885C649.394 109.885 643.341 108.56 637.858 106.171C614.49 95.9896 593.057 73.0078 567.567 73.0078C540.972 73.0078 519.656 95.6648 499.79 113.347C488.369 123.513 473.32 129.688 456.83 129.688C440.545 129.688 425.667 123.666 414.299 113.725C395.864 97.606 375.89 78.0078 351.402 78.0078C327.582 78.0078 307.892 97.2175 288.266 110.717C279.348 116.852 268.546 120.442 256.904 120.442C245.231 120.442 234.4 116.832 225.468 110.666C203.92 95.7913 182.63 73.0078 156.446 73.0078C130.259 73.0078 108.967 95.7962 87.4163 110.673C78.4836 116.839 67.6526 120.45 55.9785 120.45C25.3716 120.45 0.559801 95.6291 0.55957 65.0107C0.55957 34.3922 25.3714 9.57057 55.9785 9.57031C67.6534 9.57031 78.4849 13.1817 87.4179 19.3488C108.965 34.2244 130.254 57.0078 156.438 57.0078C182.624 57.0078 203.915 34.2194 225.464 19.3417C234.397 13.1742 245.229 9.56252 256.904 9.5625C268.548 9.5625 279.353 13.1548 288.272 19.2919C307.896 32.795 327.586 52.0078 351.407 52.0078C375.893 52.0078 395.864 32.4126 414.295 16.294C425.664 6.352 440.544 0.328125 456.83 0.328125Z"/>
</mask>
<path d="M456.83 0.328125V-0.671875V0.328125ZM655.756 20.125V19.125V20.125ZM1456.46 10.8828V9.88281V10.8828ZM1510.56 65.0029H1511.56H1510.56ZM1456.46 119.123V120.123V119.123ZM655.756 109.885V110.885V109.885ZM456.83 129.688V130.688V129.688ZM256.904 120.442V121.442V120.442ZM55.9785 120.45L55.9785 121.45H55.9785V120.45ZM0.55957 65.0107H-0.44043V65.0107L0.55957 65.0107ZM55.9785 9.57031V8.57031H55.9785L55.9785 9.57031ZM256.904 9.5625V8.5625V9.5625ZM87.4179 19.3488L86.8497 20.1717L87.4179 19.3488ZM288.266 110.717L287.7 109.893L288.266 110.717ZM414.299 113.725L413.641 114.478L414.299 113.725ZM499.79 113.347L499.125 112.6L499.79 113.347ZM657.583 20.1615L657.543 21.1607L657.583 20.1615ZM1439.46 116.396L1439.77 115.446L1439.46 116.396ZM637.855 23.84L637.456 22.9232L637.855 23.84ZM499.792 16.6716L500.457 15.9246L499.792 16.6716ZM456.83 0.328125V1.32812C473.067 1.32816 487.882 7.40836 499.127 17.4185L499.792 16.6716L500.457 15.9246C488.859 5.60114 473.576 -0.671842 456.83 -0.671875V0.328125ZM637.855 23.84L638.255 24.7567C643.615 22.4209 649.533 21.125 655.756 21.125V20.125V19.125C649.253 19.125 643.063 20.4797 637.456 22.9232L637.855 23.84ZM655.756 20.125V21.125C656.354 21.125 656.95 21.137 657.543 21.1607L657.583 20.1615L657.623 19.1623C657.003 19.1375 656.381 19.125 655.756 19.125V20.125ZM760.533 57.0078V58.0078H767.182V57.0078V56.0078H760.533V57.0078ZM948.587 59.0078V60.0078H987.625V59.0078V58.0078H948.587V59.0078ZM1123.59 59.0078V60.0078H1161.22V59.0078V58.0078H1123.59V59.0078ZM1345.63 54.0078V55.0078H1346.86V54.0078V53.0078H1345.63V54.0078ZM1439.44 13.6172L1439.75 14.5664C1445 12.8256 1450.62 11.8829 1456.46 11.8828V10.8828V9.88281C1450.4 9.88286 1444.57 10.8607 1439.12 12.6679L1439.44 13.6172ZM1456.46 10.8828V11.8828C1485.79 11.8828 1509.56 35.6652 1509.56 65.0029H1510.56H1511.56C1511.56 34.5613 1486.89 9.88281 1456.46 9.88281V10.8828ZM1510.56 65.0029H1509.56C1509.56 94.3406 1485.79 118.123 1456.46 118.123V119.123V120.123C1486.89 120.123 1511.56 95.4445 1511.56 65.0029H1510.56ZM1456.46 119.123V118.123C1450.63 118.123 1445.02 117.183 1439.77 115.446L1439.46 116.396L1439.14 117.345C1444.59 119.148 1450.41 120.123 1456.46 120.123V119.123ZM1346.85 76.0078V75.0078H1345.61V76.0078V77.0078H1346.85V76.0078ZM1161.24 71.0078V70.0078H1123.57V71.0078V72.0078H1161.24V71.0078ZM987.642 71.0078V70.0078H948.564V71.0078V72.0078H987.642V71.0078ZM767.205 73.0078V72.0078H760.546V73.0078V74.0078H767.205V73.0078ZM657.563 109.849L657.524 108.85C656.937 108.873 656.348 108.885 655.756 108.885V109.885V110.885C656.374 110.885 656.99 110.873 657.603 110.848L657.563 109.849ZM655.756 109.885V108.885C649.534 108.885 643.617 107.589 638.258 105.254L637.858 106.171L637.459 107.088C643.065 109.531 649.254 110.885 655.756 110.885V109.885ZM499.79 113.347L499.125 112.6C487.88 122.609 473.066 128.688 456.83 128.688V129.688V130.688C473.575 130.688 488.858 124.416 500.455 114.094L499.79 113.347ZM456.83 129.688V128.688C440.797 128.688 426.15 122.76 414.957 112.973L414.299 113.725L413.641 114.478C425.184 124.572 440.294 130.688 456.83 130.688V129.688ZM288.266 110.717L287.7 109.893C278.943 115.917 268.337 119.442 256.904 119.442V120.442V121.442C268.754 121.442 279.754 117.787 288.833 111.541L288.266 110.717ZM256.904 120.442V119.442C245.44 119.442 234.807 115.897 226.036 109.843L225.468 110.666L224.9 111.489C233.994 117.766 245.021 121.442 256.904 121.442V120.442ZM87.4163 110.673L86.8482 109.85C78.0772 115.905 67.4433 119.45 55.9785 119.45V120.45V121.45C67.862 121.45 78.8901 117.774 87.9844 111.496L87.4163 110.673ZM55.9785 120.45L55.9785 119.45C25.9242 119.45 1.5598 95.0771 1.55957 65.0107L0.55957 65.0107L-0.44043 65.0107C-0.440195 96.181 24.8189 121.45 55.9785 121.45L55.9785 120.45ZM0.55957 65.0107H1.55957C1.55957 34.9442 25.9241 10.5706 55.9785 10.5703L55.9785 9.57031L55.9785 8.57031C24.8188 8.57058 -0.44043 33.8403 -0.44043 65.0107H0.55957ZM55.9785 9.57031V10.5703C67.444 10.5703 78.0784 14.1163 86.8497 20.1717L87.4179 19.3488L87.986 18.5259C78.8914 12.2472 67.8628 8.57031 55.9785 8.57031V9.57031ZM225.464 19.3417L226.032 20.1646C234.804 14.1088 245.438 10.5625 256.904 10.5625V9.5625V8.5625C245.02 8.56252 233.991 12.2397 224.896 18.5188L225.464 19.3417ZM256.904 9.5625V10.5625C268.339 10.5625 278.948 14.0897 287.705 20.1157L288.272 19.2919L288.839 18.4681C279.759 12.2199 268.757 8.5625 256.904 8.5625V9.5625ZM414.295 16.294L414.954 17.0468C426.147 7.25802 440.795 1.32812 456.83 1.32812V0.328125V-0.671875C440.292 -0.671875 425.181 5.44599 413.637 15.5413L414.295 16.294ZM351.407 52.0078V53.0078C363.926 53.0078 375.235 47.9971 385.677 41.0271C396.104 34.0668 405.773 25.0753 414.954 17.0468L414.295 16.294L413.637 15.5413C404.386 23.6313 394.854 32.4968 384.566 39.3637C374.293 46.2209 363.374 51.0078 351.407 51.0078V52.0078ZM288.272 19.2919L287.705 20.1157C292.592 23.478 297.479 27.1936 302.47 30.903C307.45 34.6049 312.522 38.2927 317.735 41.5608C328.154 48.0933 339.223 53.0078 351.407 53.0078V52.0078V51.0078C339.771 51.0078 329.084 46.3159 318.797 39.8663C313.657 36.6432 308.638 32.996 303.663 29.2978C298.698 25.6071 293.765 21.8574 288.839 18.4681L288.272 19.2919ZM156.438 57.0078V58.0078C169.826 58.0078 181.897 52.1816 193.246 44.5849C198.924 40.784 204.45 36.5199 209.884 32.2928C215.327 28.0581 220.673 23.8643 226.032 20.1646L225.464 19.3417L224.896 18.5188C219.48 22.2579 214.084 26.4918 208.656 30.7143C203.218 34.9444 197.745 39.1669 192.133 42.9229C180.903 50.4399 169.236 56.0078 156.438 56.0078V57.0078ZM87.4179 19.3488L86.8497 20.1717C92.208 23.8709 97.5535 28.064 102.996 32.298C108.43 36.5243 113.955 40.7876 119.633 44.5877C130.981 52.1828 143.051 58.0078 156.438 58.0078V57.0078V56.0078C143.641 56.0078 131.975 50.4411 120.745 42.9256C115.135 39.1704 109.661 34.9487 104.224 30.7193C98.7972 26.4976 93.4014 22.2645 87.986 18.5259L87.4179 19.3488ZM156.446 73.0078V72.0078C143.057 72.0078 130.986 77.8341 119.636 85.4306C113.958 89.2314 108.431 93.4954 102.997 97.7223C97.5536 101.957 92.2073 106.151 86.8482 109.85L87.4163 110.673L87.9844 111.496C93.4007 107.757 98.7973 103.523 104.225 99.3009C109.663 95.071 115.137 90.8485 120.749 87.0926C131.979 79.5758 143.647 74.0078 156.446 74.0078V73.0078ZM1123.57 71.0078V70.0078C1111.76 70.0078 1100.31 75.905 1089.14 81.6346C1077.85 87.4216 1066.85 93.041 1055.61 93.041V94.041V95.041C1067.42 95.041 1078.88 89.1438 1090.05 83.4142C1101.33 77.6272 1112.33 72.0078 1123.57 72.0078V71.0078ZM1256.53 104.599V103.599C1240.68 103.599 1225.17 95.3502 1209.36 86.9208C1193.67 78.5548 1177.69 70.0078 1161.24 70.0078V71.0078V72.0078C1177.09 72.0078 1192.61 80.2562 1208.42 88.6856C1224.11 97.0516 1240.09 105.599 1256.53 105.599V104.599ZM1345.61 76.0078V75.0078C1330.22 75.0078 1315.29 82.2812 1300.64 89.4038C1285.87 96.5766 1271.38 103.599 1256.53 103.599V104.599V105.599C1271.92 105.599 1286.85 98.3253 1301.51 91.2027C1316.27 84.0299 1330.77 77.0078 1345.61 77.0078V76.0078ZM1346.86 54.0078V55.0078C1363.64 55.0078 1379.16 47.3719 1394.28 38.5654C1409.48 29.7118 1424.23 19.7082 1439.75 14.5664L1439.44 13.6172L1439.12 12.6679C1423.34 17.8963 1408.29 28.0881 1393.27 36.8372C1378.17 45.6335 1363.05 53.0078 1346.86 53.0078V54.0078ZM351.402 78.0078V77.0078C339.218 77.0078 328.149 81.9215 317.73 88.4528C312.518 91.7203 307.445 95.4074 302.465 99.1085C297.474 102.817 292.586 106.532 287.7 109.893L288.266 110.717L288.833 111.541C293.759 108.153 298.692 104.404 303.658 100.714C308.633 97.0163 313.652 93.3698 318.792 90.1474C329.079 83.699 339.766 79.0078 351.402 79.0078V78.0078ZM1161.22 59.0078V60.0078C1177.67 60.0078 1193.65 51.4561 1209.35 43.0855C1225.16 34.6514 1240.68 26.3984 1256.53 26.3984V25.3984V24.3984C1240.08 24.3984 1224.1 32.9502 1208.4 41.3208C1192.59 49.7549 1177.07 58.0078 1161.22 58.0078V59.0078ZM414.299 113.725L414.957 112.973C405.775 104.944 396.104 95.9513 385.676 88.9901C375.232 82.0192 363.922 77.0078 351.402 77.0078V78.0078V79.0078C363.371 79.0078 374.291 83.7955 384.565 90.6536C394.854 97.5214 404.388 106.388 413.641 114.478L414.299 113.725ZM1055.61 35.9609V36.9609C1066.85 36.961 1077.86 42.5837 1089.14 48.3741C1100.32 54.1071 1111.77 60.0078 1123.59 60.0078V59.0078V58.0078C1112.35 58.0078 1101.34 52.3851 1090.06 46.5947C1078.88 40.8617 1067.43 34.961 1055.61 34.9609V35.9609ZM567.567 73.0078V72.0078C553.976 72.0078 541.795 77.7989 530.578 85.73C519.38 93.6476 509.007 103.804 499.125 112.6L499.79 113.347L500.455 114.094C510.438 105.208 520.657 95.1945 531.732 87.3631C542.789 79.5452 554.564 74.0078 567.567 74.0078V73.0078ZM987.625 59.0078V60.0078C999.443 60.0078 1010.9 54.1071 1022.07 48.3741C1033.36 42.5837 1044.37 36.9609 1055.61 36.9609V35.9609V34.9609C1043.79 34.9609 1032.33 40.8617 1021.16 46.5946C1009.87 52.3851 998.868 58.0078 987.625 58.0078V59.0078ZM760.546 73.0078V72.0078C742.702 72.0078 725.499 81.0144 708.574 90.0244C691.54 99.093 674.785 108.166 657.524 108.85L657.563 109.849L657.603 110.848C675.413 110.142 692.6 100.794 709.514 91.7898C726.538 82.7267 743.291 74.0078 760.546 74.0078V73.0078ZM767.182 57.0078V58.0078C782.649 58.0078 797.659 50.297 812.388 42.7534C827.229 35.1526 841.789 27.7189 856.682 27.7188V26.7188V25.7188C841.215 25.7189 826.205 33.4297 811.476 40.9733C796.635 48.5742 782.075 56.0078 767.182 56.0078V57.0078ZM856.682 103.278V102.278C841.793 102.278 827.236 94.8491 812.399 87.2529C797.674 79.7139 782.668 72.0078 767.205 72.0078V73.0078V74.0078C782.094 74.0078 796.65 81.4369 811.488 89.0331C826.213 96.5721 841.219 104.278 856.682 104.278V103.278ZM657.583 20.1615L657.543 21.1607C674.799 21.8521 691.548 30.9259 708.577 39.9941C725.496 49.0036 742.694 58.0078 760.533 58.0078V57.0078V56.0078C743.283 56.0078 726.536 47.2913 709.517 38.2288C692.609 29.2249 675.428 19.8756 657.623 19.1623L657.583 20.1615ZM1439.46 116.396L1439.77 115.446C1424.25 110.31 1409.49 100.307 1394.28 91.4526C1379.16 82.6455 1363.63 75.0078 1346.85 75.0078V76.0078V77.0078C1363.05 77.0078 1378.17 84.384 1393.28 93.1809C1408.3 101.931 1423.36 112.122 1439.14 117.345L1439.46 116.396ZM637.858 106.171L638.258 105.254C626.657 100.2 615.605 92.0035 604.031 84.9185C592.54 77.885 580.607 72.0078 567.567 72.0078V73.0078V74.0078C580.018 74.0078 591.546 79.6215 602.986 86.6243C614.343 93.5755 625.691 101.961 637.459 107.088L637.858 106.171ZM856.682 26.7188V27.7188C871.961 27.7188 886.918 35.6426 902.165 43.7463C917.294 51.7871 932.714 60.0078 948.587 60.0078V59.0078V58.0078C933.308 58.0078 918.351 50.084 903.104 41.9802C887.975 33.9394 872.555 25.7188 856.682 25.7188V26.7188ZM225.468 110.666L226.036 109.843C220.678 106.144 215.332 101.951 209.889 97.7173C204.455 93.4911 198.929 89.2279 193.251 85.4278C181.903 77.8328 169.833 72.0078 156.446 72.0078V73.0078V74.0078C169.243 74.0078 180.909 79.5746 192.139 87.09C197.75 90.8451 203.223 95.0667 208.661 99.296C214.088 103.518 219.484 107.751 224.9 111.489L225.468 110.666ZM1256.53 25.3984V26.3984C1271.38 26.3984 1285.88 33.425 1300.65 40.6025C1315.31 47.7297 1330.24 55.0078 1345.63 55.0078V54.0078V53.0078C1330.79 53.0078 1316.29 45.9812 1301.52 38.8037C1286.86 31.6765 1271.93 24.3984 1256.53 24.3984V25.3984ZM948.564 71.0078V70.0078C932.695 70.0078 917.279 78.2238 902.154 86.26C886.91 94.359 871.957 102.278 856.682 102.278V103.278V104.278C872.551 104.278 887.967 96.0624 903.092 88.0262C918.336 79.9271 933.289 72.0078 948.564 72.0078V71.0078ZM567.564 57.0078V58.0078C580.603 58.0078 592.537 52.13 604.028 45.0956C615.603 38.0097 626.654 29.8122 638.255 24.7567L637.855 23.84L637.456 22.9232C625.689 28.0513 614.34 36.4378 602.983 43.3899C591.543 50.3935 580.015 56.0078 567.564 56.0078V57.0078ZM1055.61 94.041V93.041C1044.37 93.041 1033.37 87.4216 1022.08 81.6346C1010.91 75.905 999.457 70.0078 987.642 70.0078V71.0078V72.0078C998.882 72.0078 1009.88 77.6272 1021.17 83.4142C1032.34 89.1438 1043.79 95.041 1055.61 95.041V94.041ZM499.792 16.6716L499.127 17.4185C509.008 26.2142 519.38 36.3698 530.577 44.2867C541.793 52.2172 553.973 58.0078 567.564 58.0078V57.0078V56.0078C554.561 56.0078 542.787 50.471 531.732 42.6537C520.657 34.8229 510.439 24.8103 500.457 15.9246L499.792 16.6716Z" fill="black" mask="url(#path-1-inside-1_4906_5187)"/>
<circle cx="56" cy="65" r="22.8" fill="black"/>
<circle cx="656" cy="65" r="19.2" fill="black"/>
<circle cx="1456" cy="65" r="22.8" fill="black"/>
<circle cx="1256" cy="65" r="16.8" fill="black"/>
<circle cx="1055" cy="65" r="13.2" fill="black"/>
<circle cx="856" cy="65" r="16.8" fill="black"/>
<circle cx="456" cy="65" r="26.4" fill="black"/>
<circle cx="256" cy="65" r="22.8" fill="black"/>
</svg>
