<svg width="1491" height="102" viewBox="0 0 1491 102" fill="none" xmlns="http://www.w3.org/2000/svg">
<mask id="path-1-inside-1_4906_5141" fill="white">
<path d="M447 0.398438C452.172 0.398438 457.163 1.1744 461.862 2.61624C492.905 12.1409 520.874 43 553.345 43V43C584.7 43 614.645 11.4004 646 11.4004V11.4004V11.4004C677.524 11.4004 707.422 43 738.946 43H771.219C796.932 43 821.288 18 847 18V18V18C873.536 18 898.723 45 925.26 45H990.596C1009.4 45 1027.2 26.7998 1046 26.7998V26.7998V26.7998C1064.36 26.7998 1081.73 44 1100.09 44H1175.68C1199.87 44 1222.8 20.2002 1247 20.2002V20.2002V20.2002C1269.36 20.2002 1290.54 40 1312.91 40H1346.38C1380.52 40 1412.86 7 1447 7V7C1471.3 7 1491 26.6995 1491 51C1491 75.3005 1471.3 95 1447 95V95C1412.86 95 1380.52 62 1346.38 62H1312.91C1290.54 62 1269.36 81.7998 1247 81.7998V81.7998V81.7998C1222.8 81.7998 1199.87 58 1175.68 58H1100.09C1081.73 58 1064.36 75.2002 1046 75.2002V75.2002V75.2002C1027.2 75.2002 1009.4 57 990.596 57H925.26C898.723 57 873.536 84 847 84V84V84C821.288 84 796.932 59 771.219 59H738.946C707.422 59 677.524 90.5996 646 90.5996V90.5996V90.5996C614.644 90.5996 584.699 59 553.343 59V59C520.872 59 492.904 89.8567 461.861 99.3803C457.162 100.822 452.171 101.598 447 101.598C442.282 101.598 437.715 100.952 433.383 99.7443C403.537 91.4246 376.513 64 345.53 64V64C314.855 64 287.777 91.303 257.882 98.1721C254.384 98.9758 250.742 99.4004 247 99.4004C242.959 99.4004 239.033 98.9051 235.281 97.9719C203.832 90.1509 175.501 59 143.095 59V59C111.229 59 82.0961 90.4525 50.394 93.6781C48.9493 93.8251 47.4835 93.9004 46 93.9004C22.307 93.9004 3.09961 74.693 3.09961 51C3.09961 27.307 22.307 8.09961 46 8.09961C47.4835 8.09961 48.9493 8.17491 50.394 8.3219C82.0961 11.5475 111.229 43 143.095 43V43C175.501 43 203.832 11.8491 235.281 4.02812C239.033 3.09491 242.959 2.59961 247 2.59961C250.743 2.59961 254.386 3.02442 257.884 3.82845C287.778 10.6989 314.854 38 345.527 38V38C376.511 38 403.535 10.5736 433.381 2.25244C437.714 1.0443 442.281 0.398438 447 0.398438Z"/>
</mask>
<path d="M447 0.398438L447 -0.601562H447V0.398438ZM447 101.598L447 102.598L447 102.598L447 101.598ZM247 99.4004L247 100.4H247V99.4004ZM46 93.9004L46 94.9004H46V93.9004ZM3.09961 51L2.09961 51V51H3.09961ZM46 8.09961L46 7.09961L46 7.09961L46 8.09961ZM247 2.59961L247 1.59961L247 1.59961L247 2.59961ZM433.381 2.25244L433.649 3.2157L433.381 2.25244ZM50.394 8.3219L50.4952 7.32704L50.394 8.3219ZM447 0.398438L447 1.39844C452.071 1.39844 456.963 2.15924 461.569 3.57226L461.862 2.61624L462.155 1.66023C457.362 0.189546 452.273 -0.601562 447 -0.601562L447 0.398438ZM738.946 43V44H771.219V43V42H738.946V43ZM925.26 45V46H990.596V45V44H925.26V45ZM1100.09 44V45H1175.68V44V43H1100.09V44ZM1312.91 40V41H1346.38V40V39H1312.91V40ZM1447 7V8C1470.75 8 1490 27.2518 1490 51H1491H1492C1492 26.1472 1471.85 6 1447 6V7ZM1491 51H1490C1490 74.7482 1470.75 94 1447 94V95V96C1471.85 96 1492 75.8528 1492 51H1491ZM1346.38 62V61H1312.91V62V63H1346.38V62ZM1175.68 58V57H1100.09V58V59H1175.68V58ZM990.596 57V56H925.26V57V58H990.596V57ZM771.219 59V58H738.946V59V60H771.219V59ZM461.861 99.3803L461.567 98.4243C456.962 99.837 452.071 100.598 447 100.598L447 101.598L447 102.598C452.272 102.598 457.361 101.807 462.154 100.336L461.861 99.3803ZM447 101.598V100.598C442.374 100.598 437.897 99.9646 433.651 98.781L433.383 99.7443L433.114 100.708C437.533 101.939 442.191 102.598 447 102.598V101.598ZM257.882 98.1721L257.658 97.1975C254.233 97.9844 250.666 98.4004 247 98.4004V99.4004V100.4C250.817 100.4 254.535 99.9672 258.105 99.1467L257.882 98.1721ZM247 99.4004L247 98.4004C243.041 98.4004 239.196 97.9152 235.522 97.0014L235.281 97.9719L235.039 98.9423C238.87 99.895 242.877 100.4 247 100.4L247 99.4004ZM50.394 93.6781L50.2928 92.6832C48.8817 92.8268 47.4496 92.9004 46 92.9004V93.9004V94.9004C47.5173 94.9004 49.017 94.8234 50.4952 94.673L50.394 93.6781ZM46 93.9004L46 92.9004C22.8593 92.9004 4.09961 74.1407 4.09961 51H3.09961H2.09961C2.09961 75.2453 21.7547 94.9004 46 94.9004L46 93.9004ZM3.09961 51L4.09961 51C4.09961 27.8593 22.8593 9.09961 46 9.09961L46 8.09961L46 7.09961C21.7547 7.09961 2.09961 26.7547 2.09961 51L3.09961 51ZM46 8.09961V9.09961C47.4496 9.09961 48.8817 9.17319 50.2928 9.31677L50.394 8.3219L50.4952 7.32704C49.017 7.17663 47.5173 7.09961 46 7.09961V8.09961ZM235.281 4.02812L235.522 4.99856C239.196 4.08483 243.041 3.59961 247 3.59961L247 2.59961L247 1.59961C242.877 1.59961 238.87 2.10499 235.039 3.05768L235.281 4.02812ZM247 2.59961V3.59961C250.667 3.59961 254.235 4.01578 257.66 4.80304L257.884 3.82845L258.108 2.85386C254.537 2.03306 250.818 1.59961 247 1.59961V2.59961ZM433.381 2.25244L433.649 3.2157C437.896 2.03171 442.373 1.39844 447 1.39844V0.398438V-0.601562C442.19 -0.601562 437.532 0.0568924 433.112 1.28918L433.381 2.25244ZM345.527 38V39C361.298 39 376 32.0213 390.362 24.1229C404.804 16.1814 418.872 7.33571 433.649 3.2157L433.381 2.25244L433.112 1.28918C418.044 5.49037 403.677 14.5185 389.399 22.3704C375.042 30.2656 360.739 37 345.527 37V38ZM257.884 3.82845L257.66 4.80304C272.44 8.19992 286.526 16.648 300.941 24.3721C315.275 32.0531 329.913 39 345.527 39V38V37C330.468 37 316.231 30.2963 301.886 22.6092C287.62 14.9651 273.222 6.32741 258.108 2.85386L257.884 3.82845ZM143.095 43V44C159.597 44 174.995 36.0711 190.05 27.3113C205.194 18.4998 219.975 8.86498 235.522 4.99856L235.281 4.02812L235.039 3.05768C219.138 7.01225 204.029 16.8634 189.044 25.5826C173.97 34.3535 158.999 42 143.095 42V43ZM50.394 8.3219L50.2928 9.31677C65.9001 10.9048 80.9122 19.4481 96.2059 27.7494C111.398 35.9958 126.868 44 143.095 44V43V42C127.456 42 112.426 34.278 97.16 25.9917C81.9953 17.7604 66.59 8.96466 50.4952 7.32704L50.394 8.3219ZM143.095 59V58C126.868 58 111.398 66.0042 96.2059 74.2506C80.9122 82.5519 65.9001 91.0952 50.2928 92.6832L50.394 93.6781L50.4952 94.673C66.59 93.0353 81.9953 84.2396 97.16 76.0083C112.426 67.722 127.456 60 143.095 60V59ZM1100.09 58V57C1090.64 57 1081.49 61.4236 1072.61 65.6991C1063.63 70.0237 1054.91 74.2002 1046 74.2002L1046 75.2002L1046 76.2002C1055.45 76.2002 1064.6 71.7766 1073.48 67.5011C1082.46 63.1765 1091.18 59 1100.09 59V58ZM1247 81.7998V80.7998C1235.18 80.7998 1223.63 74.9849 1211.79 69.0073C1200.06 63.085 1188.06 57 1175.68 57V58V59C1187.49 59 1199.05 64.8149 1210.89 70.7925C1222.61 76.7148 1234.62 82.7998 1247 82.7998V81.7998ZM1312.91 62V61C1301.47 61 1290.38 66.061 1279.54 70.9896C1268.61 75.9609 1257.93 80.7998 1247 80.7998L1247 81.7998L1247 82.7998C1258.44 82.7998 1269.53 77.7388 1280.37 72.8102C1291.3 67.8389 1301.98 63 1312.91 63V62ZM1346.38 40V41C1363.73 41 1380.57 32.6192 1397.14 24.3957C1413.81 16.1192 1430.21 8 1447 8V7V6C1429.65 6 1412.81 14.3808 1396.25 22.6043C1379.57 30.8808 1363.17 39 1346.38 39V40ZM345.53 64V63C329.915 63 315.276 69.9474 300.941 77.6287C286.526 85.3531 272.438 93.8013 257.658 97.1975L257.882 98.1721L258.105 99.1467C273.22 95.6738 287.62 87.036 301.886 79.3916C316.232 71.7041 330.47 65 345.53 65V64ZM1175.68 44V45C1188.06 45 1200.06 38.915 1211.79 32.9927C1223.63 27.0151 1235.18 21.2002 1247 21.2002V20.2002V19.2002C1234.62 19.2002 1222.61 25.2852 1210.89 31.2075C1199.05 37.1851 1187.49 43 1175.68 43V44ZM433.383 99.7443L433.651 98.781C418.874 94.6618 404.806 85.8169 390.365 77.876C376.002 69.9783 361.301 63 345.53 63V64V65C360.742 65 375.044 71.734 389.401 79.6285C403.679 87.4798 418.046 96.5071 433.114 100.708L433.383 99.7443ZM1046 26.7998L1046 27.7998C1054.91 27.7998 1063.63 31.9763 1072.61 36.3009C1081.49 40.5764 1090.64 45 1100.09 45V44V43C1091.18 43 1082.46 38.8235 1073.48 34.4989C1064.6 30.2234 1055.45 25.7998 1046 25.7998L1046 26.7998ZM553.343 59V58C536.807 58 521.486 65.8548 506.554 74.7599C491.536 83.7161 476.938 93.7087 461.567 98.4243L461.861 99.3803L462.154 100.336C477.826 95.5283 492.734 85.3307 507.579 76.4777C522.509 67.5736 537.408 60 553.343 60V59ZM990.596 45V46C1000.27 46 1009.65 41.3188 1018.74 36.7953C1027.95 32.2187 1036.88 27.7998 1046 27.7998V26.7998V25.7998C1036.32 25.7998 1026.95 30.481 1017.85 35.0045C1008.65 39.5811 999.716 44 990.596 44V45ZM738.946 59V58C722.896 58 707.315 66.0396 692.015 73.9106C676.604 81.8394 661.474 89.5996 646 89.5996V90.5996V91.5996C662.05 91.5996 677.631 83.56 692.93 75.689C708.342 67.7602 723.472 60 738.946 60V59ZM771.219 43V44C784.356 44 797.093 37.6178 809.556 31.3947C822.127 25.1178 834.424 19 847 19V18V17C833.864 17 821.126 23.3822 808.663 29.6053C796.092 35.8822 783.795 42 771.219 42V43ZM847 84V83C834.424 83 822.127 76.8822 809.556 70.6053C797.093 64.3822 784.356 58 771.219 58V59V60C783.795 60 796.092 66.1178 808.663 72.3947C821.126 78.6178 833.864 85 847 85V84ZM646 11.4004V12.4004C661.474 12.4004 676.604 20.1606 692.015 28.0894C707.315 35.9604 722.896 44 738.946 44V43V42C723.472 42 708.342 34.2398 692.93 26.311C677.631 18.44 662.05 10.4004 646 10.4004V11.4004ZM1447 95V94C1430.21 94 1413.81 85.8808 1397.14 77.6043C1380.57 69.3808 1363.73 61 1346.38 61V62V63C1363.17 63 1379.57 71.1192 1396.25 79.3957C1412.81 87.6192 1429.65 96 1447 96V95ZM646 90.5996L646 89.5996C630.611 89.5996 615.512 81.8402 600.13 73.9109C584.861 66.0404 569.31 58 553.343 58V59V60C568.732 60 583.831 67.7594 599.213 75.6887C614.482 83.5592 630.033 91.5996 646 91.5996L646 90.5996ZM847 18V19C859.976 19 872.679 25.6064 885.667 32.3865C898.54 39.1064 911.699 46 925.26 46V45V44C912.284 44 899.581 37.3936 886.593 30.6135C873.719 23.8936 860.56 17 847 17V18ZM235.281 97.9719L235.522 97.0014C219.975 93.135 205.194 83.5002 190.05 74.6887C174.995 65.9289 159.597 58 143.095 58V59V60C158.999 60 173.97 67.6465 189.044 76.4174C204.029 85.1366 219.138 94.9878 235.039 98.9423L235.281 97.9719ZM1247 20.2002L1247 21.2002C1257.93 21.2002 1268.61 26.0391 1279.54 31.0104C1290.38 35.939 1301.47 41 1312.91 41V40V39C1301.98 39 1291.3 34.1611 1280.37 29.1898C1269.53 24.2612 1258.44 19.2002 1247 19.2002L1247 20.2002ZM925.26 57V56C911.699 56 898.54 62.8936 885.667 69.6135C872.679 76.3936 859.976 83 847 83V84V85C860.56 85 873.719 78.1064 886.593 71.3865C899.581 64.6064 912.284 58 925.26 58V57ZM553.345 43V44C569.311 44 584.863 35.9596 600.131 28.0891C615.513 20.1598 630.612 12.4004 646 12.4004L646 11.4004L646 10.4004C630.034 10.4004 614.482 18.4408 599.214 26.3113C583.832 34.2406 568.734 42 553.345 42V43ZM1046 75.2002V74.2002C1036.88 74.2002 1027.95 69.7813 1018.74 65.2047C1009.65 60.6812 1000.27 56 990.596 56V57V58C999.716 58 1008.65 62.4189 1017.85 66.9955C1026.95 71.519 1036.32 76.2002 1046 76.2002V75.2002ZM461.862 2.61624L461.569 3.57226C476.94 8.28835 491.538 18.2818 506.556 27.2387C521.488 36.1446 536.809 44 553.345 44V43V42C537.41 42 522.511 34.4259 507.58 25.521C492.735 16.6672 477.828 6.46883 462.155 1.66023L461.862 2.61624Z" fill="black" mask="url(#path-1-inside-1_4906_5141)"/>
<circle cx="46" cy="51" r="18" fill="black"/>
<circle cx="646" cy="51" r="17" fill="black"/>
<circle cx="1447" cy="51" r="19" fill="black"/>
<circle cx="1247" cy="51" r="13" fill="black"/>
<circle cx="1046" cy="51" r="11" fill="black"/>
<circle cx="847" cy="51" r="15" fill="black"/>
<circle cx="447" cy="51" r="22" fill="black"/>
<circle cx="247" cy="51" r="20" fill="black"/>
</svg>
