<svg width="1492" height="108" viewBox="0 0 1492 108" fill="none" xmlns="http://www.w3.org/2000/svg">
<mask id="path-1-inside-1_4906_5212" fill="white">
<path d="M448 0.101562C454.971 0.101562 461.633 1.42493 467.748 3.83415C497.916 15.7194 525.313 46.002 557.738 46.002H559.769C589.359 46.002 617.41 16.5996 647 16.5996V16.5996V16.5996C676.59 16.5996 704.641 46.002 734.231 46.002H772.218C797.931 46.002 822.287 21 848 21V21V21C874.537 21 899.724 48.002 926.261 48.002H985.863C1006.6 48.002 1026.26 27.5996 1047 27.5996V27.5996V27.5996C1067.74 27.5996 1087.4 48.002 1108.14 48.002H1175.44C1200.05 48.002 1223.39 23.2002 1248 23.2002V23.2002V23.2002C1269.86 23.2002 1290.58 42.002 1312.44 42.002H1348.69C1382.39 42.002 1414.3 10 1448 10V10C1472.3 10 1492 29.6995 1492 54C1492 78.3005 1472.3 98 1448 98V98C1414.3 98 1382.39 66.002 1348.69 66.002H1312.43C1290.57 66.002 1269.86 84.7998 1248 84.7998V84.7998V84.7998C1223.39 84.7998 1200.05 60.002 1175.45 60.002H1108.13C1087.39 60.002 1067.74 80.4004 1047 80.4004V80.4004V80.4004C1026.26 80.4004 1006.61 60.002 985.868 60.002H926.258C899.722 60.002 874.536 87 848 87V87V87C822.289 87 797.934 62.002 772.223 62.002H734.226C704.637 62.002 676.589 91.4004 647 91.4004V91.4004V91.4004C617.411 91.4004 589.363 62.002 559.774 62.002H557.741C525.315 62.002 497.915 92.287 467.745 104.171C461.63 106.579 454.97 107.902 448 107.902C441.545 107.902 435.355 106.768 429.618 104.687C400.466 94.1114 373.898 67.002 342.888 67.002V67.002C312.929 67.002 286.218 93.6893 256.803 99.3645C253.953 99.9143 251.01 100.202 248 100.202C244.751 100.202 241.581 99.8668 238.522 99.2289C207.399 92.7392 179.292 62.002 147.5 62.002V62.002C115.708 62.002 87.6008 92.7392 56.4783 99.2289C53.419 99.8668 50.2487 100.202 47 100.202C21.4844 100.202 0.799805 79.5175 0.799805 54.002C0.799805 28.4864 21.4844 7.80176 47 7.80176C50.2487 7.80176 53.419 8.13708 56.4783 8.775C87.6008 15.2647 115.708 46.002 147.5 46.002V46.002C179.292 46.002 207.399 15.2647 238.522 8.775C241.581 8.13708 244.751 7.80176 248 7.80176C251.01 7.80176 253.953 8.08966 256.803 8.63942C286.218 14.3146 312.929 41.002 342.888 41.002V41.002C373.898 41.002 400.466 13.8925 429.618 3.31733C435.355 1.23636 441.545 0.101563 448 0.101562Z"/>
</mask>
<path d="M448 0.101562L448 -0.898438L448 -0.898437L448 0.101562ZM448 107.902L448 108.902H448V107.902ZM248 100.202L248 101.202H248V100.202ZM47 100.202L47 101.202H47V100.202ZM0.799805 54.002L-0.200195 54.002V54.002H0.799805ZM47 7.80176L47 6.80176H47L47 7.80176ZM248 7.80176L248 6.80176L248 6.80176L248 7.80176ZM56.4783 8.775L56.6824 7.79606L56.4783 8.775ZM467.745 104.171L467.378 103.241L467.745 104.171ZM448 0.101562V1.10156C454.843 1.10156 461.381 2.40057 467.381 4.76454L467.748 3.83415L468.115 2.90375C461.884 0.449297 455.098 -0.898438 448 -0.898438V0.101562ZM557.738 46.002V47.002H559.769V46.002V45.002H557.738V46.002ZM734.231 46.002V47.002H772.218V46.002V45.002H734.231V46.002ZM926.261 48.002V49.002H985.863V48.002V47.002H926.261V48.002ZM1108.14 48.002V49.002H1175.44V48.002V47.002H1108.14V48.002ZM1312.44 42.002V43.002H1348.69V42.002V41.002H1312.44V42.002ZM1448 10V11C1471.75 11 1491 30.2518 1491 54H1492H1493C1493 29.1472 1472.85 9 1448 9V10ZM1492 54H1491C1491 77.7482 1471.75 97 1448 97V98V99C1472.85 99 1493 78.8528 1493 54H1492ZM1348.69 66.002V65.002H1312.43V66.002V67.002H1348.69V66.002ZM1175.45 60.002V59.002H1108.13V60.002V61.002H1175.45V60.002ZM985.868 60.002V59.002H926.258V60.002V61.002H985.868V60.002ZM772.223 62.002V61.002H734.226V62.002V63.002H772.223V62.002ZM559.774 62.002V61.002H557.741V62.002V63.002H559.774V62.002ZM467.745 104.171L467.378 103.241C461.379 105.604 454.842 106.902 448 106.902V107.902V108.902C455.097 108.902 461.882 107.555 468.111 105.101L467.745 104.171ZM448 107.902L448 106.902C441.663 106.902 435.588 105.788 429.959 103.747L429.618 104.687L429.277 105.627C435.121 107.747 441.427 108.902 448 108.902L448 107.902ZM256.803 99.3645L256.613 98.3826C253.826 98.9204 250.946 99.2021 248 99.2021V100.202V101.202C251.074 101.202 254.08 100.908 256.992 100.346L256.803 99.3645ZM248 100.202L248 99.2021C244.82 99.2021 241.718 98.874 238.726 98.25L238.522 99.2289L238.318 100.208C241.444 100.86 244.682 101.202 248 101.202L248 100.202ZM56.4783 99.2289L56.2741 98.25C53.2816 98.874 50.1797 99.2021 47 99.2021V100.202V101.202C50.3177 101.202 53.5564 100.86 56.6824 100.208L56.4783 99.2289ZM47 100.202L47 99.2021C22.0367 99.2021 1.7998 78.9652 1.7998 54.002H0.799805H-0.200195C-0.200195 80.0698 20.9322 101.202 47 101.202L47 100.202ZM0.799805 54.002L1.7998 54.002C1.79981 29.0387 22.0367 8.80176 47 8.80176L47 7.80176L47 6.80176C20.9322 6.80176 -0.200195 27.9341 -0.200195 54.002L0.799805 54.002ZM47 7.80176V8.80176C50.1797 8.80176 53.2816 9.12994 56.2741 9.75395L56.4783 8.775L56.6824 7.79606C53.5564 7.14422 50.3177 6.80176 47 6.80176V7.80176ZM238.522 8.775L238.726 9.75395C241.718 9.12994 244.82 8.80176 248 8.80176L248 7.80176L248 6.80176C244.682 6.80176 241.444 7.14422 238.318 7.79606L238.522 8.775ZM248 7.80176V8.80176C250.946 8.80176 253.826 9.08353 256.613 9.62131L256.803 8.63942L256.992 7.65752C254.08 7.09578 251.074 6.80176 248 6.80176V7.80176ZM429.618 3.31733L429.959 4.25739C435.588 2.2155 441.663 1.10156 448 1.10156L448 0.101562L448 -0.898437C441.427 -0.898437 435.121 0.257217 429.277 2.37727L429.618 3.31733ZM342.888 41.002V42.002C358.675 42.002 373.267 35.1025 387.446 26.9934C401.704 18.8397 415.491 9.5059 429.959 4.25739L429.618 3.31733L429.277 2.37727C414.594 7.70394 400.521 17.2125 386.454 25.2573C372.308 33.3467 358.111 40.002 342.888 40.002V41.002ZM256.803 8.63942L256.613 9.62131C271.139 12.4238 285.008 20.417 299.178 27.8348C313.265 35.2097 327.634 42.002 342.888 42.002V41.002V40.002C328.183 40.002 314.217 33.4505 300.105 26.0629C286.076 18.7183 271.882 10.5302 256.992 7.65752L256.803 8.63942ZM147.5 46.002V47.002C163.694 47.002 178.883 39.1767 193.757 30.6907C208.723 22.1525 223.36 12.9581 238.726 9.75395L238.522 8.775L238.318 7.79606C222.561 11.0816 207.583 20.5007 192.766 28.9535C177.859 37.4585 163.098 45.002 147.5 45.002V46.002ZM56.4783 8.775L56.2741 9.75395C71.6404 12.9581 86.2767 22.1525 101.243 30.6907C116.117 39.1767 131.306 47.002 147.5 47.002V46.002V45.002C131.902 45.002 117.141 37.4585 102.234 28.9535C87.4173 20.5007 72.4387 11.0816 56.6824 7.79606L56.4783 8.775ZM147.5 62.002V61.002C131.306 61.002 116.117 68.8272 101.243 77.3132C86.2767 85.8514 71.6404 95.0458 56.2741 98.25L56.4783 99.2289L56.6824 100.208C72.4387 96.9223 87.4173 87.5032 102.234 79.0504C117.141 70.5454 131.902 63.002 147.5 63.002V62.002ZM1108.13 60.002V59.002C1097.48 59.002 1087.16 64.2366 1077.11 69.3085C1066.96 74.4358 1057.09 79.4004 1047 79.4004L1047 80.4004L1047 81.4004C1057.65 81.4004 1067.97 76.1658 1078.02 71.0938C1088.17 65.9666 1098.05 61.002 1108.13 61.002V60.002ZM1248 84.7998V83.7998C1235.99 83.7998 1224.23 77.7414 1212.18 71.5126C1200.25 65.3425 1188.04 59.002 1175.45 59.002V60.002V61.002C1187.46 61.002 1199.22 67.0603 1211.26 73.2891C1223.19 79.4592 1235.41 85.7998 1248 85.7998V84.7998ZM1312.43 66.002V65.002C1301.25 65.002 1290.41 69.8065 1279.81 74.4861C1269.12 79.2055 1258.68 83.7998 1248 83.7998L1248 84.7998L1248 85.7998C1259.18 85.7998 1270.02 80.9952 1280.62 76.3157C1291.31 71.5963 1301.75 67.002 1312.43 67.002V66.002ZM1348.69 42.002V43.002C1365.81 43.002 1382.43 34.8749 1398.78 26.8998C1415.24 18.8739 1431.42 11 1448 11V10V9C1430.87 9 1414.26 17.1271 1397.9 25.1022C1381.45 33.128 1365.26 41.002 1348.69 41.002V42.002ZM342.888 67.002V66.002C327.634 66.002 313.265 72.7942 299.178 80.1691C285.008 87.5869 271.139 95.5801 256.613 98.3826L256.803 99.3645L256.992 100.346C271.882 97.4737 286.076 89.2856 300.105 81.941C314.217 74.5534 328.183 68.002 342.888 68.002V67.002ZM1175.44 48.002V49.002C1188.03 49.002 1200.25 42.6604 1212.18 36.4893C1224.22 30.2595 1235.99 24.2002 1248 24.2002V23.2002V22.2002C1235.41 22.2002 1223.19 28.5418 1211.26 34.7128C1199.22 40.9426 1187.45 47.002 1175.44 47.002V48.002ZM429.618 104.687L429.959 103.747C415.491 98.498 401.704 89.1642 387.446 81.0105C373.267 72.9014 358.675 66.002 342.888 66.002V67.002V68.002C358.111 68.002 372.308 74.6572 386.454 82.7466C400.521 90.7914 414.594 100.3 429.277 105.627L429.618 104.687ZM1047 27.5996L1047 28.5996C1057.09 28.5996 1066.96 33.5652 1077.12 38.6934C1087.16 43.7663 1097.48 49.002 1108.14 49.002V48.002V47.002C1098.05 47.002 1088.17 42.0364 1078.02 36.9082C1067.97 31.8352 1057.65 26.5996 1047 26.5996L1047 27.5996ZM557.741 62.002V61.002C541.227 61.002 526.062 68.7126 511.372 77.779C496.598 86.8973 482.353 97.3421 467.378 103.241L467.745 104.171L468.111 105.101C483.307 99.1159 497.847 88.4762 512.422 79.481C527.081 70.4339 541.83 63.002 557.741 63.002V62.002ZM985.863 48.002V49.002C996.517 49.002 1006.84 43.7663 1016.88 38.6934C1027.04 33.5652 1036.91 28.5996 1047 28.5996V27.5996V26.5996C1036.35 26.5996 1026.03 31.8352 1015.98 36.9082C1005.83 42.0364 995.951 47.002 985.863 47.002V48.002ZM734.226 62.002V61.002C719.146 61.002 704.512 68.4891 690.159 75.8104C675.694 83.1883 661.508 90.4004 647 90.4004L647 91.4004L647 92.4004C662.08 92.4004 676.714 84.9133 691.067 77.592C705.532 70.214 719.717 63.002 734.226 63.002V62.002ZM772.218 46.002V47.002C785.354 47.002 798.092 40.6193 810.556 34.3956C823.127 28.1183 835.424 22 848 22V21V20C834.863 20 822.126 26.3827 809.662 32.6063C797.091 38.8837 784.794 45.002 772.218 45.002V46.002ZM848 87V86C835.425 86 823.128 79.8827 810.558 73.6063C798.095 67.3837 785.359 61.002 772.223 61.002V62.002V63.002C784.798 63.002 797.094 69.1193 809.665 75.3957C822.127 81.6183 834.864 88 848 88V87ZM647 16.5996L647 17.5996C661.509 17.5996 675.695 24.8127 690.161 32.1916C704.516 39.5138 719.15 47.002 734.231 47.002V46.002V45.002C719.722 45.002 705.536 37.7889 691.07 30.41C676.715 23.0877 662.081 15.5996 647 15.5996L647 16.5996ZM1448 98V97C1431.42 97 1415.24 89.127 1398.78 81.1022C1382.43 73.128 1365.82 65.002 1348.69 65.002V66.002V67.002C1365.27 67.002 1381.45 74.8749 1397.91 82.8998C1414.26 90.8739 1430.88 99 1448 99V98ZM647 91.4004V90.4004C632.492 90.4004 618.306 83.1883 603.841 75.8104C589.488 68.4891 574.854 61.002 559.774 61.002V62.002V63.002C574.283 63.002 588.468 70.214 602.933 77.592C617.286 84.9133 631.92 92.4004 647 92.4004V91.4004ZM848 21V22C860.976 22 873.679 28.6069 886.668 35.3875C899.541 42.1079 912.701 49.002 926.261 49.002V48.002V47.002C913.285 47.002 900.582 40.395 887.594 33.6145C874.72 26.8941 861.561 20 848 20V21ZM238.522 99.2289L238.726 98.25C223.36 95.0458 208.723 85.8514 193.757 77.3132C178.883 68.8272 163.694 61.002 147.5 61.002V62.002V63.002C163.098 63.002 177.859 70.5454 192.766 79.0504C207.583 87.5032 222.561 96.9223 238.318 100.208L238.522 99.2289ZM1248 23.2002L1248 24.2002C1258.68 24.2002 1269.13 28.7955 1279.82 33.5159C1290.41 38.1964 1301.26 43.002 1312.44 43.002V42.002V41.002C1301.76 41.002 1291.31 36.4067 1280.62 31.6863C1270.02 27.0058 1259.18 22.2002 1248 22.2002L1248 23.2002ZM926.258 60.002V59.002C912.698 59.002 899.539 65.895 886.666 72.6145C873.678 79.394 860.976 86 848 86V87V88C861.56 88 874.719 81.107 887.592 74.3875C900.58 67.6079 913.282 61.002 926.258 61.002V60.002ZM559.769 46.002V47.002C574.85 47.002 589.484 39.5138 603.839 32.1916C618.305 24.8127 632.491 17.5996 647 17.5996V16.5996V15.5996C631.919 15.5996 617.285 23.0877 602.93 30.41C588.464 37.7889 574.278 45.002 559.769 45.002V46.002ZM1047 80.4004V79.4004C1036.91 79.4004 1027.04 74.4358 1016.89 69.3085C1006.84 64.2366 996.521 59.002 985.868 59.002V60.002V61.002C995.955 61.002 1005.83 65.9666 1015.98 71.0938C1026.03 76.1658 1036.35 81.4004 1047 81.4004V80.4004ZM467.748 3.83415L467.381 4.76454C482.355 10.6637 496.598 21.1082 511.371 30.226C526.06 39.292 541.224 47.002 557.738 47.002V46.002V45.002C541.827 45.002 527.08 37.5707 512.422 28.5241C497.848 19.5293 483.309 8.88992 468.115 2.90375L467.748 3.83415Z" fill="black" mask="url(#path-1-inside-1_4906_5212)"/>
<circle cx="47" cy="54" r="19" fill="black"/>
<circle cx="647" cy="54" r="16" fill="black"/>
<circle cx="1448" cy="54" r="19" fill="black"/>
<circle cx="1248" cy="54" r="13" fill="black"/>
<circle cx="1047" cy="54" r="12" fill="black"/>
<circle cx="848" cy="54" r="15" fill="black"/>
<circle cx="448" cy="54" r="22" fill="black"/>
<circle cx="248" cy="54" r="19" fill="black"/>
</svg>
