<svg width="1510" height="106" viewBox="0 0 1510 106" fill="none" xmlns="http://www.w3.org/2000/svg">
<mask id="path-1-inside-1_4906_5237" fill="white">
<path d="M456 0.210938C461.753 0.210938 467.291 1.13103 472.475 2.83209C504.254 13.2599 532.913 45.0107 566.359 45.0107H572.345C600.386 45.0107 626.959 17.3721 655 17.3721C684.228 17.3722 712.028 48.0107 741.256 48.0107H776.552C803.478 48.0107 829.074 20.0078 856 20.0078C882.925 20.0078 908.52 48.0078 935.445 48.0078H992.635C1013.78 48.0078 1033.85 26.6074 1055 26.6074C1076.54 26.6074 1097.02 49.0078 1118.56 49.0078H1185.64C1209.48 49.0078 1232.16 23.9727 1256 23.9727C1279.06 23.9728 1300.93 47.0078 1323.99 47.0078H1353.86C1388.47 47.0078 1421.39 10.7725 1456 10.7725C1479.33 10.7726 1498.24 29.6843 1498.24 53.0127C1498.24 76.341 1479.33 95.2528 1456 95.2529C1421.39 95.2529 1388.46 59.0078 1353.85 59.0078H1324C1300.93 59.0078 1279.06 82.0526 1256 82.0527C1232.16 82.0527 1209.47 57.0078 1185.63 57.0078H1118.56C1097.02 57.0078 1076.54 79.4082 1055 79.4082C1033.85 79.4082 1013.78 58.0078 992.635 58.0078H935.445C908.52 58.0078 882.925 86.0078 856 86.0078C829.077 86.0078 803.483 58.0107 776.559 58.0107H741.259C712.03 58.0107 684.229 88.6522 655 88.6523C626.958 88.6523 600.383 61.0107 572.341 61.0107H566.356C532.911 61.0107 504.255 92.759 472.478 103.188C467.293 104.89 461.754 105.811 456 105.811C450.639 105.811 445.464 105.011 440.588 103.526C410.112 94.2394 382.498 66.0107 350.639 66.0107C319.955 66.0107 292.069 93.7342 261.622 97.5399C259.78 97.7701 257.904 97.8887 256 97.8887C253.927 97.8887 251.887 97.7481 249.889 97.4761C217.582 93.0776 188.107 61.0107 155.502 61.0107C122.894 61.0107 93.4183 93.0827 61.1087 97.4803C59.1113 97.7521 57.072 97.8926 55 97.8926C30.2136 97.8926 10.1194 77.7991 10.1191 53.0127C10.1191 28.2262 30.2135 8.13184 55 8.13184C57.073 8.13185 59.1133 8.27243 61.1116 8.54455C93.4183 12.9438 122.892 45.0107 155.496 45.0107C188.104 45.0107 217.58 12.9397 249.889 8.54056C251.887 8.26848 253.927 8.12793 256 8.12793C257.905 8.12795 259.782 8.24668 261.625 8.47713C292.072 12.2851 319.959 40.0107 350.643 40.0107C382.5 40.0107 410.111 11.785 440.584 2.49686C445.461 1.01048 450.637 0.210939 456 0.210938Z"/>
</mask>
<path d="M456 0.210938V-0.789062V0.210938ZM1498.24 53.0127L1499.24 53.0127V53.0127H1498.24ZM456 105.811V106.811V105.811ZM256 97.8887V98.8887H256L256 97.8887ZM55 97.8926V98.8926H55L55 97.8926ZM10.1191 53.0127H9.11914V53.0127L10.1191 53.0127ZM55 8.13184L55 7.13184H55V8.13184ZM256 8.12793L256 7.12793H256V8.12793ZM440.588 103.526L440.88 102.569L440.588 103.526ZM472.478 103.188L472.167 102.238L472.478 103.188ZM472.475 2.83209L472.163 3.78225L472.475 2.83209ZM456 0.210938V1.21094C461.646 1.21094 467.079 2.1138 472.163 3.78225L472.475 2.83209L472.787 1.88194C467.504 0.148265 461.86 -0.789062 456 -0.789062V0.210938ZM566.359 45.0107V46.0107H572.345V45.0107V44.0107H566.359V45.0107ZM741.256 48.0107V49.0107H776.552V48.0107V47.0107H741.256V48.0107ZM935.445 48.0078V49.0078H992.635V48.0078V47.0078H935.445V48.0078ZM1118.56 49.0078V50.0078H1185.64V49.0078V48.0078H1118.56V49.0078ZM1323.99 47.0078V48.0078H1353.86V47.0078V46.0078H1323.99V47.0078ZM1456 10.7725V11.7725C1478.78 11.7726 1497.24 30.2366 1497.24 53.0127H1498.24H1499.24C1499.24 29.132 1479.88 9.77259 1456 9.77246V10.7725ZM1498.24 53.0127L1497.24 53.0127C1497.24 75.7887 1478.78 94.2528 1456 94.2529V95.2529V96.2529C1479.88 96.2528 1499.24 76.8933 1499.24 53.0127L1498.24 53.0127ZM1353.85 59.0078V58.0078H1324V59.0078V60.0078H1353.85V59.0078ZM1185.63 57.0078V56.0078H1118.56V57.0078V58.0078H1185.63V57.0078ZM992.635 58.0078V57.0078H935.445V58.0078V59.0078H992.635V58.0078ZM776.559 58.0107V57.0107H741.259V58.0107V59.0107H776.559V58.0107ZM572.341 61.0107V60.0107H566.356V61.0107V62.0107H572.341V61.0107ZM472.478 103.188L472.167 102.238C467.081 103.907 461.647 104.811 456 104.811V105.811V106.811C461.861 106.811 467.506 105.873 472.79 104.138L472.478 103.188ZM456 105.811V104.811C450.738 104.811 445.662 104.026 440.88 102.569L440.588 103.526L440.297 104.482C445.266 105.996 450.539 106.811 456 106.811V105.811ZM261.622 97.5399L261.498 96.5476C259.697 96.7727 257.862 96.8887 256 96.8887L256 97.8887L256 98.8887C257.946 98.8887 259.863 98.7675 261.746 98.5322L261.622 97.5399ZM256 97.8887V96.8887C253.972 96.8887 251.977 96.7512 250.024 96.4852L249.889 97.4761L249.754 98.467C251.797 98.7451 253.882 98.8887 256 98.8887V97.8887ZM61.1087 97.4803L60.9739 96.4894C59.021 96.7552 57.0268 96.8926 55 96.8926L55 97.8926L55 98.8926C57.1173 98.8926 59.2016 98.7491 61.2436 98.4711L61.1087 97.4803ZM55 97.8926V96.8926C30.7659 96.8926 11.1193 77.2467 11.1191 53.0127L10.1191 53.0127L9.11914 53.0127C9.11936 78.3514 29.6613 98.8926 55 98.8926V97.8926ZM10.1191 53.0127H11.1191C11.1191 28.7784 30.7657 9.13184 55 9.13184V8.13184V7.13184C29.6612 7.13184 9.11914 27.6739 9.11914 53.0127H10.1191ZM55 8.13184L55 9.13184C57.0278 9.13185 59.0229 9.26936 60.9767 9.53541L61.1116 8.54455L61.2466 7.5537C59.2036 7.2755 57.1183 7.13185 55 7.13184L55 8.13184ZM249.889 8.54056L250.023 9.53142C251.977 9.26541 253.972 9.12793 256 9.12793V8.12793V7.12793C253.882 7.12793 251.797 7.27155 249.754 7.54971L249.889 8.54056ZM256 8.12793L256 9.12793C257.864 9.12794 259.699 9.24408 261.501 9.4694L261.625 8.47713L261.749 7.48486C259.866 7.24927 257.947 7.12795 256 7.12793L256 8.12793ZM440.584 2.49686L440.876 3.45341C445.659 1.99552 450.737 1.21094 456 1.21094V0.210938V-0.789062C450.537 -0.789061 445.263 0.0254385 440.293 1.54031L440.584 2.49686ZM350.643 40.0107V41.0107C366.853 41.0107 381.92 33.831 396.621 25.6096C411.4 17.3444 425.775 8.05629 440.876 3.45341L440.584 2.49686L440.293 1.54031C424.921 6.22556 410.253 15.6944 395.645 23.8641C380.958 32.0776 366.29 39.0107 350.643 39.0107V40.0107ZM261.625 8.47713L261.501 9.4694C276.512 11.3468 290.918 19.1249 305.593 26.5639C320.181 33.9585 335.028 41.0107 350.643 41.0107V40.0107V39.0107C335.574 39.0107 321.135 32.2002 306.497 24.78C291.946 17.4041 277.185 9.41541 261.749 7.48486L261.625 8.47713ZM155.496 45.0107V46.0107C172.096 46.0107 187.835 37.8511 203.288 29.3003C218.84 20.6951 234.098 11.6998 250.023 9.53142L249.889 8.54056L249.754 7.54971C233.37 9.78042 217.736 19.0202 202.32 27.5503C186.806 36.1349 171.504 44.0107 155.496 44.0107V45.0107ZM61.1116 8.54455L60.9767 9.53541C76.9013 11.7039 92.1581 20.6982 107.708 29.3024C123.16 37.8521 138.898 46.0107 155.496 46.0107V45.0107V44.0107C139.49 44.0107 124.189 36.1359 108.676 27.5524C93.2619 19.0232 77.6287 9.78449 61.2466 7.5537L61.1116 8.54455ZM155.502 61.0107V60.0107C138.902 60.0107 123.163 68.1707 107.709 76.7214C92.1581 85.3266 76.8998 94.3218 60.9739 96.4894L61.1087 97.4803L61.2436 98.4711C77.6273 96.2412 93.2619 87.0016 108.678 78.4714C124.192 69.8868 139.494 62.0107 155.502 62.0107V61.0107ZM1118.56 57.0078V56.0078C1107.49 56.0078 1096.75 61.7572 1086.31 67.3256C1075.74 72.9574 1065.47 78.4082 1055 78.4082V79.4082V80.4082C1066.07 80.4082 1076.8 74.6588 1087.25 69.0904C1097.81 63.4586 1108.08 58.0078 1118.56 58.0078V57.0078ZM1256 82.0527V81.0527C1244.38 81.0527 1232.98 74.9434 1221.29 68.6497C1209.72 62.421 1197.85 56.0078 1185.63 56.0078V57.0078V58.0078C1197.25 58.0078 1208.65 64.1171 1220.34 70.4108C1231.91 76.6396 1243.78 83.0527 1256 83.0527V82.0527ZM1324 59.0078V58.0078C1312.18 58.0078 1300.72 63.9079 1289.54 69.6404C1278.25 75.4304 1267.24 81.0527 1256 81.0527V82.0527V83.0527C1267.82 83.0527 1279.28 77.1525 1290.46 71.42C1301.75 65.6301 1312.75 60.0078 1324 60.0078V59.0078ZM1353.86 47.0078V48.0078C1371.46 48.0078 1388.58 38.7979 1405.4 29.7713C1422.34 20.6802 1438.99 11.7725 1456 11.7725V10.7725V9.77246C1438.39 9.77246 1421.28 18.9824 1404.46 28.009C1387.51 37.1 1370.86 46.0078 1353.86 46.0078V47.0078ZM350.639 66.0107V65.0107C335.024 65.0107 320.177 72.0625 305.589 79.4562C290.914 86.8943 276.509 94.6714 261.498 96.5476L261.622 97.5399L261.746 98.5322C277.182 96.6028 291.943 88.6152 306.494 81.2402C321.132 73.8208 335.57 67.0107 350.639 67.0107V66.0107ZM1185.64 49.0078V50.0078C1197.86 50.0078 1209.72 43.5972 1221.29 37.3708C1232.98 31.0796 1244.38 24.9727 1256 24.9727V23.9727V22.9727C1243.78 22.9727 1231.91 29.3833 1220.34 35.6096C1208.65 41.9009 1197.26 48.0078 1185.64 48.0078V49.0078ZM440.588 103.526L440.88 102.569C425.777 97.9672 411.401 88.6788 396.62 80.4131C381.918 72.1912 366.85 65.0107 350.639 65.0107V66.0107V67.0107C366.287 67.0107 380.956 73.9446 395.644 82.1587C410.254 90.3289 424.924 99.798 440.297 104.482L440.588 103.526ZM1055 26.6074V27.6074C1065.47 27.6074 1075.74 33.0583 1086.31 38.69C1096.75 44.2584 1107.49 50.0078 1118.56 50.0078V49.0078V48.0078C1108.08 48.0078 1097.81 42.557 1087.25 36.9252C1076.8 31.3568 1066.07 25.6074 1055 25.6074V26.6074ZM566.356 61.0107V60.0107C549.332 60.0107 533.596 68.089 518.275 77.3323C502.869 86.627 487.913 97.07 472.167 102.238L472.478 103.188L472.79 104.138C488.82 98.8773 504.081 88.2316 519.308 79.0448C534.621 69.8066 549.935 62.0107 566.356 62.0107V61.0107ZM992.635 48.0078V49.0078C1003.5 49.0078 1014.03 43.5156 1024.28 38.1951C1034.64 32.8154 1044.72 27.6074 1055 27.6074V26.6074V25.6074C1044.13 25.6074 1033.6 31.0997 1023.36 36.4201C1013 41.7999 1002.92 47.0078 992.635 47.0078V48.0078ZM741.259 58.0107V57.0107C726.344 57.0107 711.854 64.8225 697.656 72.4506C683.338 80.1433 669.314 87.6523 655 87.6523V88.6523V89.6523C669.914 89.6523 684.405 81.8404 698.603 74.2124C712.92 66.5197 726.945 59.0107 741.259 59.0107V58.0107ZM776.552 48.0107V49.0107C790.313 49.0107 803.676 41.8607 816.747 34.8917C829.937 27.8593 842.835 21.0078 856 21.0078V20.0078V19.0078C842.239 19.0078 828.877 26.1578 815.806 33.1269C802.616 40.1593 789.717 47.0107 776.552 47.0107V48.0107ZM856 86.0078V85.0078C842.836 85.0078 829.939 78.1578 816.75 71.1268C803.68 64.1593 790.319 57.0107 776.559 57.0107V58.0107V59.0107C789.723 59.0107 802.62 65.8608 815.809 72.8917C828.879 79.8593 842.24 87.0078 856 87.0078V86.0078ZM655 17.3721V18.3721C669.314 18.3721 683.337 25.8804 697.655 33.5724C711.852 41.1997 726.342 49.0107 741.256 49.0107V48.0107V47.0107C726.942 47.0107 712.919 39.5025 698.601 31.8106C684.404 24.1832 669.914 16.3722 655 16.3721V17.3721ZM1456 95.2529V94.2529C1438.99 94.2529 1422.34 85.3428 1405.4 76.2492C1388.57 67.2202 1371.46 58.0078 1353.85 58.0078V59.0078V60.0078C1370.86 60.0078 1387.51 68.918 1404.45 78.0115C1421.28 87.0406 1438.39 96.2529 1456 96.2529V95.2529ZM655 88.6523V87.6523C641.263 87.6523 627.831 80.8775 614.122 73.9393C600.523 67.0567 586.646 60.0107 572.341 60.0107V61.0107V62.0107C586.078 62.0107 599.51 68.7856 613.219 75.7238C626.818 82.6064 640.695 89.6523 655 89.6523V88.6523ZM856 20.0078V21.0078C869.164 21.0078 882.063 27.8585 895.252 34.8902C908.323 41.8585 921.685 49.0078 935.445 49.0078V48.0078V47.0078C922.281 47.0078 909.383 40.1571 896.193 33.1254C883.122 26.1571 869.76 19.0078 856 19.0078V20.0078ZM249.889 97.4761L250.024 96.4852C234.099 94.3171 218.842 85.323 203.291 76.719C187.839 68.1694 172.101 60.0107 155.502 60.0107V61.0107V62.0107C171.508 62.0107 186.81 69.8856 202.323 78.469C217.738 86.998 233.372 96.2365 249.754 98.467L249.889 97.4761ZM1256 23.9727V24.9727C1267.24 24.9727 1278.25 30.5927 1289.54 36.3801C1300.71 42.1102 1312.17 48.0078 1323.99 48.0078V47.0078V46.0078C1312.74 46.0078 1301.74 40.3879 1290.45 34.6004C1279.27 28.8704 1267.82 22.9727 1256 22.9727V23.9727ZM935.445 58.0078V57.0078C921.685 57.0078 908.323 64.1571 895.252 71.1254C882.063 78.1571 869.164 85.0078 856 85.0078V86.0078V87.0078C869.76 87.0078 883.122 79.8586 896.193 72.8902C909.383 65.8586 922.281 59.0078 935.445 59.0078V58.0078ZM572.345 45.0107V46.0107C586.649 46.0107 600.525 38.9655 614.124 32.0837C627.833 25.1462 641.263 18.3721 655 18.3721V17.3721V16.3721C640.696 16.3721 626.82 23.4173 613.221 30.2992C599.513 37.2366 586.082 44.0107 572.345 44.0107V45.0107ZM1055 79.4082V78.4082C1044.72 78.4082 1034.64 73.2002 1024.28 67.8205C1014.03 62.5 1003.5 57.0078 992.635 57.0078V58.0078V59.0078C1002.92 59.0078 1013 64.2158 1023.36 69.5955C1033.6 74.916 1044.13 80.4082 1055 80.4082V79.4082ZM472.475 2.83209L472.163 3.78225C487.911 8.94966 502.868 19.393 518.275 28.6881C533.597 37.9319 549.334 46.0107 566.359 46.0107V45.0107V44.0107C549.938 44.0107 534.622 36.2142 519.308 26.9756C504.08 17.7884 488.818 7.14237 472.787 1.88194L472.475 2.83209Z" fill="black" mask="url(#path-1-inside-1_4906_5237)"/>
<circle cx="56" cy="53" r="19.2" fill="black"/>
<circle cx="655" cy="53" r="15.6" fill="black"/>
<circle cx="1456" cy="53" r="19.2" fill="black"/>
<circle cx="1256" cy="53" r="13.2" fill="black"/>
<circle cx="1055" cy="53" r="13.2" fill="black"/>
<circle cx="856" cy="53" r="15.6" fill="black"/>
<circle cx="456" cy="53" r="21.6" fill="black"/>
<circle cx="256" cy="53" r="19.2" fill="black"/>
</svg>
