<svg width="1511" height="130" viewBox="0 0 1511 130" fill="none" xmlns="http://www.w3.org/2000/svg">
<mask id="path-1-inside-1_4906_5212" fill="white">
<path d="M456.866 0.328125C473.358 0.328125 488.407 6.504 499.83 16.6698C519.696 34.351 541.013 57.0078 567.608 57.0078C593.101 57.0078 614.537 34.0221 637.907 23.8393C643.391 21.4501 649.445 20.1251 655.808 20.125C656.723 20.125 657.632 20.1524 658.534 20.2065C693.043 22.2759 725.121 57.0078 759.692 57.0078H763.815C795.337 57.0078 825.229 25.3984 856.751 25.3984C889.058 25.3987 919.766 59.0078 952.073 59.0078H980.86C1006.24 59.0078 1030.31 33.3204 1055.69 33.3203C1081.07 33.3203 1105.15 59.0078 1130.52 59.0078H1168.15C1198.14 59.0078 1226.64 28.0469 1256.63 28.0469C1284.05 28.047 1310.01 53.0078 1337.42 53.0078H1345.36C1380.37 53.0078 1411.36 20.5746 1445.62 13.3416C1449.16 12.5956 1452.82 12.2031 1456.58 12.2031C1485.73 12.2031 1509.36 35.8424 1509.36 65.0029C1509.36 94.1636 1485.73 117.803 1456.58 117.803C1452.82 117.803 1449.16 117.411 1445.63 116.666C1411.37 109.438 1380.38 77.0078 1345.36 77.0078H1337.42C1310 77.0078 1284.05 101.967 1256.63 101.967C1226.64 101.967 1198.15 71.0078 1168.15 71.0078H1130.51C1105.13 71.0078 1081.06 96.6807 1055.69 96.6807C1030.32 96.6805 1006.25 71.0078 980.878 71.0078H952.052C919.751 71.0078 889.051 104.598 856.751 104.599C825.236 104.599 795.352 73.0078 763.838 73.0078H759.704C725.125 73.0078 693.034 107.749 658.515 109.804C657.62 109.858 656.717 109.885 655.808 109.885C649.446 109.885 643.393 108.56 637.91 106.172C614.539 95.991 593.104 73.0078 567.612 73.0078C541.015 73.0078 519.696 95.6668 499.827 113.349C488.405 123.513 473.357 129.688 456.866 129.688C440.581 129.688 425.702 123.666 414.334 113.727C395.896 97.6078 375.92 78.0078 351.43 78.0078C327.608 78.0078 307.915 97.2191 288.287 110.718C279.369 116.852 268.566 120.442 256.925 120.442C245.251 120.442 234.421 116.832 225.489 110.668C203.937 95.7935 182.645 73.0078 156.458 73.0078C130.269 73.0078 108.975 95.7985 87.4211 110.675C78.4882 116.84 67.6574 120.45 55.9834 120.45C25.3738 120.45 0.559801 95.6292 0.55957 65.0107C0.55957 34.3921 25.3737 9.57032 55.9834 9.57031C67.6581 9.57031 78.4895 13.1811 87.4226 19.3471C108.973 34.2221 130.265 57.0078 156.45 57.0078C182.639 57.0078 203.932 34.2172 225.485 19.34C234.418 13.1736 245.25 9.5625 256.925 9.5625C268.569 9.5625 279.374 13.1543 288.293 19.2906C307.92 32.7934 327.612 52.0078 351.435 52.0078C375.923 52.0078 395.896 32.4108 414.33 16.2923C425.699 6.3513 440.58 0.328134 456.866 0.328125Z"/>
</mask>
<path d="M456.866 0.328125V-0.671875V0.328125ZM655.808 20.125V19.125V20.125ZM1456.58 12.2031V11.2031V12.2031ZM1509.36 65.0029H1510.36H1509.36ZM1456.58 117.803V118.803V117.803ZM655.808 109.885V110.885V109.885ZM456.866 129.688V130.688V129.688ZM256.925 120.442V121.442V120.442ZM55.9834 120.45V121.45V120.45ZM0.55957 65.0107H-0.44043V65.0107L0.55957 65.0107ZM55.9834 9.57031V8.57031V9.57031ZM256.925 9.5625V8.5625V9.5625ZM288.287 110.718L287.721 109.895L288.287 110.718ZM414.334 113.727L413.675 114.48L414.334 113.727ZM499.827 113.349L500.492 114.096L499.827 113.349ZM658.515 109.804L658.456 108.806L658.515 109.804ZM1445.63 116.666L1445.42 117.644L1445.63 116.666ZM637.91 106.172L637.511 107.089L637.91 106.172ZM637.907 23.8393L637.508 22.9226L637.907 23.8393ZM499.83 16.6698L500.494 15.9228L499.83 16.6698ZM456.866 0.328125V1.32812C473.104 1.32812 487.919 7.40763 499.165 17.4168L499.83 16.6698L500.494 15.9228C488.896 5.60036 473.612 -0.671875 456.866 -0.671875V0.328125ZM637.907 23.8393L638.307 24.7561C643.667 22.4207 649.585 21.1251 655.808 21.125V20.125V19.125C649.305 19.1251 643.115 20.4795 637.508 22.9226L637.907 23.8393ZM655.808 20.125V21.125C656.703 21.125 657.592 21.1518 658.475 21.2047L658.534 20.2065L658.594 19.2083C657.672 19.153 656.743 19.125 655.808 19.125V20.125ZM759.692 57.0078V58.0078H763.815V57.0078V56.0078H759.692V57.0078ZM952.073 59.0078V60.0078H980.86V59.0078V58.0078H952.073V59.0078ZM1130.52 59.0078V60.0078H1168.15V59.0078V58.0078H1130.52V59.0078ZM1337.42 53.0078V54.0078H1345.36V53.0078V52.0078H1337.42V53.0078ZM1445.62 13.3416L1445.83 14.32C1449.29 13.5882 1452.89 13.2031 1456.58 13.2031V12.2031V11.2031C1452.75 11.2031 1449.02 11.6029 1445.41 12.3632L1445.62 13.3416ZM1456.58 12.2031V13.2031C1485.17 13.2031 1508.36 36.3944 1508.36 65.0029H1509.36H1510.36C1510.36 35.2904 1486.28 11.2031 1456.58 11.2031V12.2031ZM1509.36 65.0029H1508.36C1508.36 93.6115 1485.17 116.803 1456.58 116.803V117.803V118.803C1486.28 118.803 1510.36 94.7156 1510.36 65.0029H1509.36ZM1456.58 117.803V116.803C1452.89 116.803 1449.3 116.418 1445.84 115.687L1445.63 116.666L1445.42 117.644C1449.02 118.404 1452.75 118.803 1456.58 118.803V117.803ZM1345.36 77.0078V76.0078H1337.42V77.0078V78.0078H1345.36V77.0078ZM1168.15 71.0078V70.0078H1130.51V71.0078V72.0078H1168.15V71.0078ZM980.878 71.0078V70.0078H952.052V71.0078V72.0078H980.878V71.0078ZM763.838 73.0078V72.0078H759.704V73.0078V74.0078H763.838V73.0078ZM658.515 109.804L658.456 108.806C657.58 108.858 656.697 108.885 655.808 108.885V109.885V110.885C656.737 110.885 657.659 110.857 658.575 110.803L658.515 109.804ZM655.808 109.885V108.885C649.586 108.885 643.669 107.59 638.309 105.255L637.91 106.172L637.511 107.089C643.117 109.531 649.306 110.885 655.808 110.885V109.885ZM499.827 113.349L499.163 112.602C487.917 122.61 473.102 128.688 456.866 128.688V129.688V130.688C473.611 130.688 488.894 124.417 500.492 114.096L499.827 113.349ZM456.866 129.688V128.688C440.832 128.688 426.185 122.76 414.992 112.974L414.334 113.727L413.675 114.48C425.219 124.572 440.33 130.688 456.866 130.688V129.688ZM288.287 110.718L287.721 109.895C278.964 115.917 268.357 119.442 256.925 119.442V120.442V121.442C268.775 121.442 279.774 117.787 288.854 111.542L288.287 110.718ZM256.925 120.442V119.442C245.461 119.442 234.828 115.898 226.057 109.845L225.489 110.668L224.921 111.491C234.015 117.767 245.042 121.442 256.925 121.442V120.442ZM87.4211 110.675L86.853 109.852C78.0818 115.905 67.448 119.45 55.9834 119.45V120.45V121.45C67.8667 121.45 78.8946 117.774 87.9891 111.498L87.4211 110.675ZM55.9834 120.45V119.45C25.9264 119.45 1.5598 95.0772 1.55957 65.0107L0.55957 65.0107L-0.44043 65.0107C-0.440195 96.1812 24.8213 121.45 55.9834 121.45V120.45ZM0.55957 65.0107H1.55957C1.55957 34.9441 25.9262 10.5703 55.9834 10.5703V9.57031V8.57031C24.8211 8.57032 -0.44043 33.8401 -0.44043 65.0107H0.55957ZM55.9834 9.57031V10.5703C67.4487 10.5703 78.0831 14.1156 86.8545 20.1701L87.4226 19.3471L87.9907 18.5241C78.8959 12.2465 67.8674 8.57031 55.9834 8.57031V9.57031ZM225.485 19.34L226.053 20.163C234.824 14.1081 245.459 10.5625 256.925 10.5625V9.5625V8.5625C245.04 8.5625 234.011 12.239 224.917 18.517L225.485 19.34ZM256.925 9.5625V10.5625C268.36 10.5625 278.968 14.0892 287.726 20.1145L288.293 19.2906L288.86 18.4668C279.779 12.2194 268.777 8.5625 256.925 8.5625V9.5625ZM414.33 16.2923L414.988 17.0451C426.182 7.25734 440.831 1.32813 456.866 1.32812V0.328125V-0.671875C440.328 -0.671865 425.216 5.44525 413.672 15.5394L414.33 16.2923ZM351.435 52.0078V53.0078C363.955 53.0078 375.265 47.9967 385.708 41.0262C396.136 34.0655 405.806 25.0736 414.988 17.0451L414.33 16.2923L413.672 15.5394C404.419 23.6295 394.886 32.4954 384.597 39.3628C374.323 46.2204 363.403 51.0078 351.435 51.0078V52.0078ZM288.293 19.2906L287.726 20.1145C292.613 23.4766 297.502 27.1923 302.493 30.9017C307.473 34.6038 312.546 38.2918 317.759 41.56C328.18 48.0929 339.25 53.0078 351.435 53.0078V52.0078V51.0078C339.797 51.0078 329.11 46.3155 318.822 39.8655C313.681 36.6423 308.661 32.9949 303.686 29.2966C298.72 25.6057 293.786 21.856 288.86 18.4668L288.293 19.2906ZM156.45 57.0078V58.0078C169.84 58.0078 181.912 52.181 193.262 44.5839C198.941 40.7828 204.468 36.5184 209.902 32.2912C215.346 28.0564 220.693 23.8625 226.053 20.163L225.485 19.34L224.917 18.517C219.5 22.2561 214.103 26.49 208.674 30.7126C203.236 34.9429 197.762 39.1656 192.15 42.9218C180.918 50.4393 169.25 56.0078 156.45 56.0078V57.0078ZM87.4226 19.3471L86.8545 20.1701C92.2136 23.8691 97.5598 28.0623 103.003 32.2963C108.437 36.5228 113.964 40.7863 119.642 44.5867C130.992 52.1823 143.063 58.0078 156.45 58.0078V57.0078V56.0078C143.652 56.0078 131.985 50.4405 120.754 42.9245C115.143 39.1691 109.669 34.9471 104.231 30.7176C98.8035 26.4958 93.4069 22.2626 87.9907 18.5241L87.4226 19.3471ZM156.458 73.0078V72.0078C143.069 72.0078 130.996 77.8346 119.645 85.4316C113.966 89.2326 108.439 93.4969 103.004 97.724C97.56 101.959 92.2129 106.152 86.853 109.852L87.4211 110.675L87.9891 111.498C93.4062 107.759 98.8036 103.525 104.232 99.3026C109.671 95.0725 115.146 90.8498 120.758 87.0937C131.99 79.5763 143.659 74.0078 156.458 74.0078V73.0078ZM1130.51 71.0078V70.0078C1117.53 70.0078 1104.94 76.5682 1092.64 82.9567C1080.22 89.4046 1068.09 95.6807 1055.69 95.6807V96.6807V97.6807C1068.67 97.6807 1081.26 91.1203 1093.56 84.7317C1105.98 78.2839 1118.11 72.0078 1130.51 72.0078V71.0078ZM1256.63 101.967V100.967C1241.93 100.967 1227.54 93.3743 1212.86 85.6035C1198.3 77.8948 1183.44 70.0078 1168.15 70.0078V71.0078V72.0078C1182.85 72.0078 1197.24 79.6003 1211.92 87.3711C1226.49 95.0798 1241.34 102.967 1256.63 102.967V101.967ZM1337.42 77.0078V76.0078C1323.45 76.0078 1309.9 82.3646 1296.6 88.5814C1283.21 94.844 1270.08 100.967 1256.63 100.967V101.967V102.967C1270.61 102.967 1284.16 96.61 1297.45 90.3931C1310.84 84.1305 1323.98 78.0078 1337.42 78.0078V77.0078ZM1345.36 53.0078V54.0078C1363.15 54.0078 1379.86 45.7692 1396.25 36.7635C1412.73 27.7107 1428.88 17.8977 1445.83 14.32L1445.62 13.3416L1445.41 12.3632C1428.1 16.0184 1411.62 26.0386 1395.29 35.0106C1378.87 44.0298 1362.58 52.0078 1345.36 52.0078V53.0078ZM351.43 78.0078V77.0078C339.245 77.0078 328.175 81.9219 317.755 88.4536C312.542 91.7212 307.469 95.4085 302.488 99.1097C297.496 102.818 292.608 106.533 287.721 109.895L288.287 110.718L288.854 111.542C293.781 108.154 298.714 104.405 303.68 100.715C308.656 97.0175 313.676 93.3708 318.817 90.1482C329.105 83.6994 339.792 79.0078 351.43 79.0078V78.0078ZM1168.15 59.0078V60.0078C1183.44 60.0078 1198.29 52.1203 1212.86 44.4112C1227.54 36.6398 1241.93 29.0469 1256.63 29.0469V28.0469V27.0469C1241.34 27.0469 1226.49 34.9344 1211.92 42.6435C1197.24 50.4149 1182.85 58.0078 1168.15 58.0078V59.0078ZM414.334 113.727L414.992 112.974C405.808 104.945 396.137 95.9526 385.707 88.991C375.262 82.0197 363.951 77.0078 351.43 77.0078V78.0078V79.0078C363.399 79.0078 374.321 83.7959 384.596 90.6545C394.886 97.5227 404.421 106.39 413.675 114.48L414.334 113.727ZM1055.69 33.3203V34.3203C1068.09 34.3203 1080.23 40.6 1092.65 47.0515C1104.95 53.4437 1117.54 60.0078 1130.52 60.0078V59.0078V58.0078C1118.12 58.0078 1105.99 51.7282 1093.57 45.2766C1081.26 38.8844 1068.67 32.3203 1055.69 32.3203V33.3203ZM567.612 73.0078V72.0078C554.02 72.0078 541.837 77.7994 530.619 85.731C519.42 93.649 509.046 103.806 499.163 112.602L499.827 113.349L500.492 114.096C510.477 105.21 520.697 95.196 531.774 87.364C542.832 79.5457 554.607 74.0078 567.612 74.0078V73.0078ZM980.86 59.0078V60.0078C993.839 60.0078 1006.43 53.4437 1018.74 47.0515C1031.16 40.6 1043.29 34.3204 1055.69 34.3203V33.3203V32.3203C1042.71 32.3204 1030.12 38.8845 1017.81 45.2767C1005.39 51.7282 993.258 58.0078 980.86 58.0078V59.0078ZM759.704 73.0078V72.0078C742.12 72.0078 725.228 80.8367 708.614 89.7543C691.892 98.7296 675.45 107.794 658.456 108.806L658.515 109.804L658.575 110.803C676.099 109.759 692.961 100.426 709.56 91.5165C726.266 82.5496 742.709 74.0078 759.704 74.0078V73.0078ZM763.815 57.0078V58.0078C779.864 58.0078 795.443 49.9656 810.74 42.0923C826.15 34.1609 841.278 26.3984 856.751 26.3984V25.3984V24.3984C840.702 24.3984 825.122 32.4406 809.825 40.314C794.415 48.2453 779.287 56.0078 763.815 56.0078V57.0078ZM856.751 104.599V103.599C841.282 103.599 826.158 95.8407 810.752 87.914C795.458 80.0453 779.883 72.0078 763.838 72.0078V73.0078V74.0078C779.307 74.0078 794.431 81.7658 809.837 89.6924C825.13 97.5612 840.706 105.599 856.751 105.599V104.599ZM658.534 20.2065L658.475 21.2047C675.464 22.2235 691.901 31.2894 708.617 40.2642C725.225 49.1813 742.112 58.0078 759.692 58.0078V57.0078V56.0078C742.701 56.0078 726.263 47.4684 709.563 38.5021C692.97 29.5936 676.114 20.2589 658.594 19.2083L658.534 20.2065ZM1445.63 116.666L1445.84 115.687C1428.89 112.112 1412.74 102.301 1396.26 93.2499C1379.86 84.2456 1363.16 76.0078 1345.36 76.0078V77.0078V78.0078C1362.58 78.0078 1378.88 85.9851 1395.3 95.0029C1411.63 103.974 1428.11 113.992 1445.42 117.644L1445.63 116.666ZM637.91 106.172L638.309 105.255C626.707 100.201 615.655 92.0043 604.079 84.9191C592.587 77.8854 580.652 72.0078 567.612 72.0078V73.0078V74.0078C580.064 74.0078 591.593 79.6219 603.034 86.6249C614.392 93.5764 625.742 101.962 637.511 107.089L637.91 106.172ZM856.751 25.3984V26.3984C872.607 26.3986 888.128 34.6515 903.942 43.0856C919.636 51.4562 935.622 60.0078 952.073 60.0078V59.0078V58.0078C936.218 58.0078 920.696 49.7549 904.883 41.3209C889.188 32.9503 873.203 24.3986 856.751 24.3984V25.3984ZM225.489 110.668L226.057 109.845C220.697 106.146 215.351 101.953 209.907 97.7189C204.473 93.4926 198.946 89.2292 193.268 85.4289C181.918 77.8334 169.846 72.0078 156.458 72.0078V73.0078V74.0078C169.257 74.0078 180.924 79.5751 192.155 87.091C197.767 90.8464 203.241 95.0683 208.679 99.2976C214.107 103.519 219.504 107.752 224.921 111.491L225.489 110.668ZM1256.63 28.0469V29.0469C1270.08 29.0469 1283.21 35.1701 1296.61 41.4332C1309.9 47.6506 1323.45 54.0078 1337.42 54.0078V53.0078V52.0078C1323.98 52.0078 1310.84 45.8846 1297.45 39.6215C1284.16 33.4042 1270.61 27.0469 1256.63 27.0469V28.0469ZM952.052 71.0078V70.0078C935.604 70.0078 919.621 78.5547 903.931 86.9207C888.121 95.3501 872.603 103.599 856.751 103.599V104.599V105.599C873.199 105.599 889.181 97.0515 904.872 88.6855C920.681 80.2562 936.2 72.0078 952.052 72.0078V71.0078ZM567.608 57.0078V58.0078C580.649 58.0078 592.584 52.1296 604.076 45.095C615.652 38.0088 626.705 29.8112 638.307 24.7561L637.907 23.8393L637.508 22.9226C625.739 28.0503 614.389 36.4369 603.031 43.3892C591.59 50.3932 580.061 56.0078 567.608 56.0078V57.0078ZM1055.69 96.6807V95.6807C1043.3 95.6806 1031.16 89.4045 1018.75 82.9567C1006.44 76.5681 993.854 70.0078 980.878 70.0078V71.0078V72.0078C993.273 72.0078 1005.41 78.2839 1017.82 84.7317C1030.13 91.1202 1042.71 97.6806 1055.69 97.6807V96.6807ZM499.83 16.6698L499.165 17.4168C509.047 26.2124 519.42 36.3684 530.618 44.2858C541.835 52.2167 554.017 58.0078 567.608 58.0078V57.0078V56.0078C554.605 56.0078 542.83 50.4705 531.773 42.6527C520.697 34.8214 510.478 24.8084 500.494 15.9228L499.83 16.6698Z" fill="black" mask="url(#path-1-inside-1_4906_5212)"/>
<circle cx="56" cy="65" r="22.8" fill="black"/>
<circle cx="656" cy="65" r="19.2" fill="black"/>
<circle cx="1456" cy="65" r="22.8" fill="black"/>
<circle cx="1256" cy="65" r="15.6" fill="black"/>
<circle cx="1055" cy="65" r="14.4" fill="black"/>
<circle cx="857" cy="65" r="18" fill="black"/>
<circle cx="456" cy="65" r="26.4" fill="black"/>
<circle cx="256" cy="65" r="22.8" fill="black"/>
</svg>
