<svg width="100" height="99" viewBox="0 0 100 99" fill="none" xmlns="http://www.w3.org/2000/svg">
<g style="mix-blend-mode:difference">
<path d="M47.3104 98.3743C46.457 92.8276 43.9824 86.8543 39.8864 80.4543C35.8757 74.0543 30.1584 68.0383 22.7344 62.4063C15.225 56.689 7.9717 53.1476 0.974365 51.7823V46.4063C8.05703 44.785 14.9264 41.6276 21.5824 36.9343C28.2384 32.241 33.8704 26.6516 38.4784 20.1663C43.0864 13.5956 46.0304 6.89698 47.3104 0.0703125H52.6864C53.4544 4.42231 54.9904 8.81698 57.2944 13.2543C59.6837 17.6916 62.713 21.9583 66.3824 26.0543C70.0517 30.065 74.105 33.6916 78.5424 36.9343C85.2837 41.713 92.1957 44.8703 99.2784 46.4063V51.7823C94.4997 52.721 89.593 54.641 84.5584 57.5423C79.609 60.4436 75.001 63.857 70.7344 67.7823C66.4677 71.7076 62.969 75.8463 60.2384 80.1983C56.057 86.8543 53.5397 92.913 52.6864 98.3743H47.3104ZM49.1024 95.3023H50.8944C51.321 90.865 52.0037 86.4276 52.9424 81.9903C53.9664 77.4676 55.1184 73.2863 56.3984 69.4463C57.7637 65.6063 59.1717 62.449 60.6224 59.9743C63.5237 58.353 66.9797 56.8596 70.9904 55.4943C75.0864 54.129 79.3104 52.977 83.6624 52.0383C88.0997 51.0996 92.1957 50.5023 95.9504 50.2463V48.4543C92.1957 48.113 88.057 47.473 83.5344 46.5343C79.097 45.5103 74.8304 44.3156 70.7344 42.9503C66.6384 41.4996 63.2677 40.0063 60.6224 38.4703C59.1717 35.9103 57.7637 32.753 56.3984 28.9983C55.1184 25.1583 53.9664 21.0623 52.9424 16.7103C52.0037 12.273 51.321 7.83565 50.8944 3.39831H49.1024C48.761 7.40897 48.121 11.5903 47.1824 15.9423C46.329 20.209 45.2197 24.305 43.8544 28.2303C42.489 32.1556 40.9957 35.569 39.3744 38.4703C36.6437 40.0063 33.273 41.4996 29.2624 42.9503C25.2517 44.3156 21.0277 45.5103 16.5904 46.5343C12.153 47.473 7.9717 48.113 4.04637 48.4543V50.2463C7.9717 50.5023 12.1104 51.0996 16.4624 52.0383C20.8144 52.977 24.9957 54.129 29.0064 55.4943C33.017 56.8596 36.473 58.353 39.3744 59.9743C40.9957 62.705 42.4464 66.0756 43.7264 70.0863C45.0917 74.0116 46.2437 78.193 47.1824 82.6303C48.121 86.9823 48.761 91.2063 49.1024 95.3023Z" fill="#F6F6F6"/>
</g>
</svg>
