<svg width="95" height="95" viewBox="0 0 95 95" fill="none" xmlns="http://www.w3.org/2000/svg">
<g style="mix-blend-mode:difference">
<path d="M47.1984 0.160156C73.1824 0.160156 94.1264 20.7682 94.1264 47.3122C94.1264 73.1842 73.1824 94.2402 47.1984 94.2402C20.8784 94.2402 0.0463867 73.1842 0.0463867 47.3122C0.0463867 20.7682 20.8784 0.160156 47.1984 0.160156ZM47.1984 3.52016C22.5584 3.52016 3.40639 23.1202 3.40639 47.3122C3.40639 71.6162 22.5584 90.8802 47.1984 90.8802C70.4944 90.8802 90.7664 71.5042 90.7664 47.3122C90.7664 23.1202 71.1664 3.52016 47.1984 3.52016ZM35.3264 67.5842C35.3264 71.7282 36.1104 72.5122 42.1584 72.5122V73.9682H23.0064V72.5122C29.5024 72.5122 30.2864 71.7282 30.2864 67.5842V28.3842C30.2864 23.7922 30.0624 23.2322 22.5584 26.8162L21.8864 25.3602L34.4304 19.3122L35.3264 20.0962V67.5842ZM59.2944 74.5282C48.6544 74.5282 43.5024 61.8722 43.5024 46.6402C43.5024 31.6322 48.6544 18.8642 59.2944 18.8642C70.0464 18.8642 75.1984 31.5202 75.1984 46.6402C75.1984 61.9842 70.0464 74.5282 59.2944 74.5282ZM59.2944 72.1762C66.9104 72.1762 69.9344 60.8642 69.9344 46.6402C69.9344 32.5282 66.9104 21.2162 59.2944 21.2162C51.6784 21.2162 48.7664 32.4162 48.7664 46.6402C48.7664 60.9762 51.6784 72.1762 59.2944 72.1762Z" fill="white"/>
</g>
</svg>
