<svg width="95" height="95" viewBox="0 0 95 95" fill="none" xmlns="http://www.w3.org/2000/svg">
<g clip-path="url(#clip0_5048_5149)">
<g style="mix-blend-mode:difference">
<path d="M47.1984 0.15625C73.1824 0.15625 94.1264 20.7643 94.1264 47.3083C94.1264 73.1803 73.1824 94.2363 47.1984 94.2363C20.8784 94.2363 0.0463867 73.1803 0.0463867 47.3083C0.0463867 20.7643 20.8784 0.15625 47.1984 0.15625ZM47.1984 3.51625C22.5584 3.51625 3.40639 23.1163 3.40639 47.3083C3.40639 71.6123 22.5584 90.8763 47.1984 90.8763C70.4944 90.8763 90.7664 71.5003 90.7664 47.3083C90.7664 23.1163 71.1664 3.51625 47.1984 3.51625Z" fill="white"/>
</g>
<path d="M32.526 37.71C32.526 33.3527 33.1567 29.2247 34.418 25.326C35.6793 21.37 37.5713 18.1307 40.094 15.608C42.674 13.0853 45.7987 11.824 49.468 11.824C53.1373 11.824 56.2907 13.028 58.928 15.436C61.5653 17.844 63.572 21.198 64.948 25.498C66.3813 29.798 67.098 34.7287 67.098 40.29C67.098 47.5713 65.8653 54.2793 63.4 60.414C60.992 66.4913 57.4373 71.594 52.736 75.722C48.0347 79.7927 42.3873 82.4587 35.794 83.72V81.914C42.33 80.022 47.6047 76.496 51.618 71.336C55.6887 66.176 58.498 60.0127 60.046 52.846C58.7847 54.8527 57.0647 56.544 54.886 57.92C52.7647 59.2387 50.4713 59.898 48.006 59.898C42.9033 59.898 39.0333 57.7767 36.396 53.534C33.816 49.234 32.526 43.9593 32.526 37.71ZM38.116 36.076C38.116 42.0387 38.976 46.998 40.696 50.954C42.416 54.8527 45.1967 56.802 49.038 56.802C51.446 56.802 53.6533 56.114 55.66 54.738C57.724 53.362 59.444 51.3553 60.82 48.718C61.2787 45.3353 61.508 42.1533 61.508 39.172C61.508 31.6613 60.4473 25.7273 58.326 21.37C56.2047 16.9553 53.2233 14.748 49.382 14.748C45.77 14.748 42.9893 16.6973 41.04 20.596C39.0907 24.4373 38.116 29.5973 38.116 36.076Z" fill="black"/>
</g>
<defs>
<clipPath id="clip0_5048_5149">
<rect width="95" height="95" fill="white"/>
</clipPath>
</defs>
</svg>
