<svg width="105" height="105" viewBox="0 0 105 105" fill="none" xmlns="http://www.w3.org/2000/svg">
<g style="mix-blend-mode:difference">
<path d="M52.6802 1.72266C56.1789 1.72271 59.3896 2.60022 62.2769 4.36523H62.2778C65.209 6.10569 67.5228 8.40975 69.1909 11.2705L69.5122 11.8164C71.0697 14.5659 71.8442 17.5994 71.8442 20.8867C71.8442 27.5429 69.1975 33.2527 64.0278 37.9512L63.52 38.4033C60.9651 40.6231 59.1088 42.582 57.9028 44.2822C56.6826 46.0026 56.2281 47.3171 56.228 48.2783V48.8262H56.7759C57.7871 48.8262 59.1253 48.3651 60.8364 47.1514C62.5318 45.9488 64.467 44.0974 66.6421 41.5459C71.2669 36.0197 77.1408 33.211 84.1675 33.2109C87.6596 33.2109 90.8654 34.0845 93.7485 35.8428C96.6897 37.5001 99.0082 39.7671 100.678 42.6309H100.679C102.456 45.5292 103.332 48.7913 103.332 52.375C103.331 55.8811 102.452 59.1332 100.69 62.1006L100.689 62.0996C99.0201 64.969 96.7037 67.2802 93.7661 69.0244L93.7593 69.0283L93.7534 69.0322C90.8654 70.7091 87.6582 71.5391 84.1675 71.5391C79.9022 71.539 76.1435 70.4908 72.9595 68.3369L72.9419 68.3252C70.0075 66.28 66.7691 63.3391 63.23 59.541L63.2251 59.5352L63.2192 59.5293C60.6817 56.7463 58.5381 55.667 56.7759 55.667H56.228V56.4707C56.228 57.6316 56.708 59.038 57.9028 60.7227C59.0952 62.4037 60.9337 64.2681 63.4751 66.3096C69.0387 70.7787 71.8441 76.6717 71.8442 83.8623C71.8442 87.3635 70.9654 90.6112 69.2085 93.5752L69.2095 93.5762C67.5483 96.437 65.2791 98.7077 62.4224 100.373L62.4233 100.374C59.5251 102.15 56.2636 103.026 52.6802 103.026C49.174 103.026 45.9211 102.147 42.9536 100.385V100.384C40.0961 98.7218 37.7872 96.4563 36.0405 93.6064L36.0259 93.583L36.0122 93.5576C34.3456 90.5945 33.5161 87.353 33.5161 83.8623C33.5162 79.5353 34.5102 75.8067 36.5962 72.7725L36.9761 72.2324C38.9378 69.5032 41.7966 66.3992 45.5112 62.9268L45.5181 62.9209L45.5249 62.9141C48.308 60.3765 49.3882 58.233 49.3882 56.4707V55.667H48.5835C47.7324 55.6671 46.4814 56.1098 44.7642 57.3623C43.0795 58.5911 41.1059 60.4793 38.8433 63.0762L38.8442 63.0771C34.0603 68.6735 28.151 71.539 21.1919 71.5391C17.7011 71.5391 14.4598 70.7088 11.4966 69.042L11.4722 69.0283L11.4478 69.0137C8.60072 67.2687 6.29819 64.9652 4.55322 62.1182L4.53857 62.0947L4.5249 62.0703C2.85814 59.1072 2.02789 55.8657 2.02783 52.375C2.02783 48.8843 2.85778 45.677 4.53467 42.7891L4.53857 42.7832L4.54248 42.7764L4.87646 42.2324C6.57797 39.5515 8.77645 37.417 11.4663 35.8525L12.0259 35.5332C14.8412 33.9847 17.9048 33.2109 21.1919 33.2109C28.0629 33.211 33.9259 36.0307 38.7085 41.5352L39.5288 42.46C41.4142 44.5431 43.0997 46.0961 44.5874 47.1514C46.3078 48.3716 47.6223 48.8261 48.5835 48.8262H49.3882V48.2783C49.388 46.5161 48.3078 44.3724 45.5249 41.835V41.834L42.5806 39.1465L42.5767 39.1426C40.4816 37.2151 38.5571 34.9462 36.7993 32.3457L36.438 31.8037C34.4677 28.7074 33.5161 25.0461 33.5161 20.8867C33.5161 17.396 34.3461 14.1897 36.0229 11.3018L36.0259 11.2949L36.0298 11.2891C37.6674 8.53096 39.8042 6.31901 42.4341 4.67773L42.9663 4.35742C45.9305 2.60036 49.1788 1.72266 52.6802 1.72266Z" stroke="#F6F6F6" stroke-width="3"/>
</g>
</svg>
