<svg width="198" height="206" viewBox="0 0 198 206" fill="none" xmlns="http://www.w3.org/2000/svg">
<path d="M197.507 118.812C197.507 166.585 158.779 205.312 111.007 205.312C63.2342 205.312 24.5068 166.585 24.5068 118.812C24.5068 71.0399 63.2342 32.3125 111.007 32.3125C158.779 32.3125 197.507 71.0399 197.507 118.812Z" fill="#D9D9D9"/>
<path d="M12.7699 64.8249C11.1922 64.1425 10.6744 64.2883 9.79396 65.5175L9.31594 65.1751L13.0824 59.9169L13.5604 60.2593C12.0115 62.4217 12.2911 62.6565 13.8688 63.3389L29.6427 70.2637L29.6916 70.1954L18.4604 56.8807C17.362 55.5773 17.066 55.3653 15.5334 57.505L15.0553 57.1626L18.3653 52.5417L18.8433 52.8841C17.8976 54.2044 17.8871 54.7479 19.0311 56.084L32.3906 72.1975L31.8851 72.9032L17.2982 66.7253L27.6295 78.8442L27.124 79.5499L7.53596 72.1318C5.90286 71.4786 5.39158 71.6634 4.44589 72.9837L3.96787 72.6413L7.75065 67.3603L8.22867 67.7027C6.7286 69.7969 7.02452 70.0089 8.6121 70.6294L24.849 76.9559L24.9143 76.8649L15.4895 65.9808L12.7699 64.8249Z" fill="black"/>
<path d="M40.9736 60.3312C38.8325 62.5841 34.9117 61.8322 31.7252 58.8038C28.5793 55.814 27.3134 51.9842 29.628 49.5486C31.7498 47.3161 35.6706 48.068 38.8571 51.0963C42.003 54.0862 43.269 57.916 40.9736 60.3312ZM40.514 59.3923C42.0764 57.7483 40.661 55.0511 38.6111 53.1029C35.8508 50.4796 31.9201 48.5595 30.0876 50.4876C28.5059 52.1519 29.9213 54.849 31.9915 56.8165C34.7518 59.4398 38.6622 61.3407 40.514 59.3923Z" fill="black"/>
<path d="M45.0871 54.8046L44.7042 54.3583C45.9155 53.3191 45.8485 52.897 44.7182 51.5794L38.6471 44.5028C37.4985 43.164 37.298 42.9302 36.4847 44.4764L35.9683 44.2185L37.4612 41.3145L37.9168 41.3294L39.5394 43.2208L39.6032 43.1661C39.1772 41.4655 39.2888 39.7465 40.3301 38.8532C40.9464 38.3245 41.5994 38.3546 42.0187 38.8433C42.5474 39.4596 42.4354 40.146 42.0741 40.456C41.7766 40.7112 41.5184 40.7113 41.1449 40.6629C40.75 40.6327 40.5709 40.6389 40.3371 40.8394C39.8483 41.2587 39.8397 42.4098 40.4874 44.3258L45.8293 50.5524C46.9961 51.9125 47.4486 51.967 49.3187 50.3626L49.7198 50.8301L45.0871 54.8046Z" fill="black"/>
<path d="M58.6096 40.9452C60.1566 41.7493 60.796 41.6053 61.7388 41.0006L62.0562 41.4955L57.649 44.3225L57.3315 43.8275C58.9341 42.7995 58.6247 42.7319 57.0777 41.9279L50.72 38.6543L51.1827 33.5674C51.366 31.9861 50.6981 31.9821 49.4726 32.7682L49.1551 32.2733L53.6331 29.4009L53.9505 29.8959C52.9607 30.5308 52.3999 31.0568 52.2451 32.7861L51.7744 37.4458L58.6096 40.9452ZM53.3459 43.8891C54.2832 45.3503 54.6212 45.566 55.9645 44.7043L56.282 45.1993L51.9219 47.996L51.6044 47.5011C52.9949 46.6091 52.9634 46.1969 52.0261 44.7357L42.8044 30.3591C41.8672 28.8978 41.7244 28.6235 40.7657 30.1366L40.2512 29.8013L41.5284 27.8511L42.1265 26.9684L42.5521 27.0614L53.3459 43.8891Z" fill="black"/>
<path d="M64.1292 37.0816C64.9621 38.6048 65.3087 38.8301 66.7582 38.0375L67.0403 38.5534L62.4463 41.0656L62.1641 40.5497C63.589 39.7705 63.6109 39.3437 62.778 37.8205L58.3046 29.6397C57.4582 28.092 57.3105 27.8218 56.2303 29.1145L55.7651 28.7307L57.1689 27.0376L57.8295 26.2614L58.2721 26.3705L64.1292 37.0816ZM55.6167 23.6738C54.9288 24.05 54.1308 23.8162 53.7815 23.1774C53.4188 22.5141 53.666 21.7407 54.3539 21.3645C55.0172 21.0018 55.8018 21.2111 56.1645 21.8744C56.5138 22.5131 56.28 23.3111 55.6167 23.6738Z" fill="black"/>
<path d="M68.3251 36.934L68.1247 36.3812C69.6252 35.8374 69.7118 35.4188 69.1203 33.7867L65.9432 25.0207C65.3422 23.3622 65.2636 23.0631 63.9394 24.2578L63.538 23.8076L65.9612 21.619L66.4084 21.7845L67.2098 23.9958L67.2888 23.9671C67.8865 22.0827 68.5674 20.6745 70.1468 20.102C72.0159 19.4246 73.3208 20.5599 74.0936 22.6922L77.0703 30.9054C77.6618 32.5375 77.9701 32.813 79.4706 32.2692L79.6709 32.822L74.8799 34.5584L74.6795 34.0056C76.1537 33.4713 76.2139 33.0623 75.6224 31.4302L72.6744 23.2959C72.1019 21.7164 71.1767 21.2179 70.0974 21.609C68.8338 22.067 68.1483 23.2983 67.5342 24.8908L70.5681 33.262C71.1596 34.8941 71.4679 35.1695 72.9421 34.6352L73.1425 35.1881L68.3251 36.934Z" fill="black"/>
<path d="M86.7595 37.1513C84.1292 37.7053 81.5868 37.182 81.1021 34.8805C80.7386 33.1543 81.7955 31.7872 83.0746 30.6594C81.9195 30.4734 81.3858 29.8418 81.2012 28.9651C80.9762 27.8965 81.5313 26.8639 82.4051 25.8501C81.113 25.1493 80.1654 23.7751 79.773 21.912C79.121 18.8159 80.4071 16.2273 83.0648 15.6676C83.969 15.4772 84.8155 15.5564 85.5712 15.8837C86.5027 15.1439 87.4862 14.6506 88.3629 14.4659C88.9931 14.3332 89.1878 14.5784 89.2628 14.9346C89.3494 15.3455 89.1057 15.683 88.5029 15.8099C87.5713 16.0061 86.8676 15.9254 86.1567 16.2182C87.3118 16.9478 88.193 18.2788 88.5623 20.0323C89.2144 23.1284 87.9225 25.6896 85.2922 26.2436C84.4702 26.4167 83.6843 26.3533 83.0065 26.124C82.4701 26.8379 82.1629 27.4176 82.2957 28.0478C82.4515 28.7876 82.7111 29.4769 85.3688 28.9172L88.1909 28.3228C90.9582 27.74 92.3022 28.1437 92.7292 30.1713C93.3062 32.9111 90.9516 36.2685 86.7595 37.1513ZM85.4089 25.3033C87.1076 24.9456 87.5791 23.2439 87.1348 21.1342C86.6385 18.7779 85.1126 16.152 82.9481 16.6078C81.1398 16.9886 80.8198 19.0018 81.2295 20.9471C81.7026 23.1939 83.1348 25.7823 85.4089 25.3033ZM82.3192 34.1377C82.5961 35.4529 84.1046 36.3656 86.8445 35.7886C90.379 35.0442 92.1338 32.643 91.7587 30.8621C91.476 29.5195 90.5963 29.4186 88.4866 29.863L85.5549 30.4804C84.9521 30.6073 84.4258 30.6896 83.9701 30.6997C82.9045 31.7539 82.0768 32.9869 82.3192 34.1377Z" fill="black"/>
<path d="M110.134 27.759C108.874 27.7541 108.15 26.7433 108.158 24.6713L108.162 23.5513C107.395 26.3204 105.962 27.7429 104.142 27.7358C102.294 27.7287 101.292 26.2408 101.298 24.4768C101.312 21.0048 105.098 19.3955 108.184 17.9234L108.19 16.3274C108.199 13.8914 107.307 13.0199 105.823 13.0142C104.619 13.0096 103.692 13.594 103.688 14.63C103.686 15.302 104.077 15.5555 104.075 16.1435C104.072 16.7315 103.735 17.1222 103.119 17.1198C102.363 17.1169 101.973 16.4714 101.977 15.5754C101.984 13.6154 103.754 12.0542 106.106 12.0633C108.206 12.0714 109.741 13.3373 109.73 16.3053L109.697 24.9012C109.691 26.4412 110.054 26.7786 110.502 26.7804C111.09 26.7826 111.54 26.2244 111.575 24.3485L112.163 24.3508C112.128 26.2546 111.646 27.7648 110.134 27.759ZM102.924 24.0911C102.919 25.3511 103.475 26.3052 104.623 26.3097C105.883 26.3145 107.288 25.1159 108.168 22.0673L108.181 18.7353C105.655 20.0696 102.934 21.4311 102.924 24.0911Z" fill="black"/>
<path d="M112.271 26.9411L112.332 26.3563C113.92 26.5222 114.18 26.1834 114.361 24.4568L115.329 15.1833C115.513 13.4288 115.545 13.1225 113.863 13.5942L113.695 13.0419L116.831 12.1307L117.133 12.472L116.874 14.9505L116.958 14.9592C117.9 13.4812 119.226 12.3809 120.59 12.5235C121.398 12.6079 121.825 13.1029 121.758 13.7434C121.674 14.551 121.098 14.9413 120.624 14.8919C120.235 14.8511 120.057 14.6637 119.836 14.359C119.586 14.0514 119.459 13.9255 119.152 13.8935C118.512 13.8266 117.67 14.6113 116.723 16.3986L115.87 24.5582C115.684 26.3405 115.956 26.7067 118.406 26.9627L118.342 27.5754L112.271 26.9411Z" fill="black"/>
<path d="M131.771 20.2661C132.363 17.7877 132.3 15.1533 130.476 14.7178C128.705 14.2954 127.233 16.3622 126.351 18.9728L131.771 20.2661ZM124.249 20.5438C125.283 16.2134 127.81 13.1029 130.669 13.7853C133.284 14.4092 134.125 17.5174 133.157 21.5755L126.076 19.8858L125.952 20.4033C125.101 23.9711 125.597 27.1985 127.749 27.7119C129.002 28.0108 130.699 27.2931 132.216 23.7113L132.788 23.8478C131.318 28.0742 129.106 29.5038 126.927 28.9839C124.122 28.3145 123.222 24.847 124.249 20.5438Z" fill="black"/>
<path d="M141.575 33.0064C140.396 32.5638 140.068 31.3643 140.796 29.4244L141.19 28.3758C139.508 30.7055 137.669 31.5408 135.965 30.9014C134.235 30.2522 133.813 28.5087 134.432 26.8571C135.652 23.6064 139.762 23.4139 143.167 23.1065L143.727 21.6122C144.583 19.3315 144.049 18.204 142.66 17.6827C141.533 17.2597 140.461 17.4856 140.097 18.4556C139.861 19.0848 140.139 19.4584 139.933 20.0089C139.726 20.5595 139.274 20.8084 138.697 20.592C137.989 20.3264 137.849 19.5858 138.163 18.7469C138.852 16.9118 141.054 16.0635 143.256 16.8897C145.223 17.6275 146.222 19.3482 145.179 22.127L142.159 30.1751C141.618 31.6169 141.841 32.0594 142.26 32.2168C142.811 32.4234 143.427 32.0564 144.112 30.3098L144.663 30.5164C143.968 32.2892 142.991 33.5376 141.575 33.0064ZM136.091 27.0606C135.648 28.2403 135.838 29.3284 136.913 29.7317C138.092 30.1743 139.826 29.5389 141.711 26.9863L142.881 23.8667C140.05 24.2398 137.025 24.5702 136.091 27.0606Z" fill="black"/>
<path d="M152.507 118.812C152.507 141.732 133.927 160.312 111.007 160.312C88.087 160.312 69.5068 141.732 69.5068 118.812C69.5068 95.8927 88.087 77.3125 111.007 77.3125C133.927 77.3125 152.507 95.8927 152.507 118.812Z" fill="#FF00E5"/>
<path d="M63.09 72.0942L63.0014 72.1627L67.1408 83.3315L72.8561 78.9133L63.09 72.0942ZM67.8699 93.3851L67.5102 92.9199C68.8837 91.8582 69.0719 91.3234 68.4824 89.691L61.157 69.7309L61.8659 69.1829L79.3594 81.2827C80.7906 82.2643 81.3778 82.1997 82.7734 81.1209L83.133 81.5861L77.7278 85.7646L77.3681 85.2994C79.517 83.6382 79.2671 83.4067 77.8752 82.4301L73.6257 79.4509L67.4672 84.2116L69.2578 89.0916C69.8523 90.6847 70.0135 90.9848 72.1623 89.3237L72.5219 89.7889L67.8699 93.3851Z" fill="black"/>
<path d="M83.8679 79.1354L83.6696 78.5819C85.1722 78.0437 85.2603 77.6255 84.6749 75.9911L81.5308 67.2132C80.936 65.5525 80.8585 65.2531 79.5299 66.4428L79.1302 65.9912L81.5616 63.8116L82.0082 63.9789L82.8013 66.1931L82.8803 66.1648C83.4851 64.2826 84.1713 62.8769 85.7529 62.3104C87.6244 61.6401 88.9251 62.7802 89.6899 64.9154L92.6357 73.1398C93.221 74.7741 93.5283 75.0507 95.0308 74.5125L95.2291 75.0661L90.4316 76.7845L90.2333 76.2309C91.7095 75.7022 91.7712 75.2934 91.1859 73.6591L88.2684 65.5138C87.7019 63.9322 86.7785 63.4301 85.6978 63.8172C84.4325 64.2704 83.7424 65.4991 83.1223 67.0893L86.1247 75.4719C86.7101 77.1062 87.0174 77.3828 88.4935 76.854L88.6918 77.4076L83.8679 79.1354Z" fill="black"/>
<path d="M103.37 66.9029C103.982 70.9449 103.665 73.3433 101.284 73.7035C99.4015 73.9884 98.2993 72.8809 97.7422 69.1988L96.3596 60.0628L94.3663 60.3644L94.2448 59.5616C96.2063 59.2364 96.7066 57.4899 96.457 55.0923L97.1492 54.9875L97.7399 58.8911L101.117 58.38L101.26 59.3213L97.91 59.8282L99.1459 67.9952C99.5522 70.6806 99.9797 72.5699 101.502 72.3395C102.831 72.1384 103.257 70.4598 102.733 66.9992L103.37 66.9029Z" fill="black"/>
<path d="M108.758 69.646C108.771 71.382 108.97 71.7445 110.622 71.7317L110.626 72.3197L105.391 72.3601L105.386 71.7721C107.01 71.7596 107.231 71.3939 107.218 69.6579L107.146 60.3342C107.132 58.5703 107.13 58.2623 105.567 58.8904L105.338 58.3321L107.376 57.5043L108.325 57.133L108.663 57.4384L108.758 69.646ZM107.599 53.8065C106.815 53.8126 106.223 53.2291 106.217 52.5011C106.211 51.7452 106.795 51.1806 107.579 51.1746C108.335 51.1687 108.927 51.7242 108.933 52.4802C108.939 53.2081 108.355 53.8007 107.599 53.8065Z" fill="black"/>
<path d="M120.063 52.4483C120.549 50.7817 120.662 50.4938 118.926 50.7462L118.833 50.1649L122.208 49.6904L122.391 50.0645L119.602 59.6343L119.709 59.6657C121.073 58.4883 122.584 57.9078 124.009 58.323C126.294 58.9889 127.005 62.0542 125.735 66.409C124.325 71.2477 121.6 73.8949 118.428 72.9704C117.057 72.5709 115.67 71.5251 114.931 70.0558L120.063 52.4483ZM116.641 69.7956C116.89 70.5392 117.562 71.6389 118.771 71.9915C120.868 72.6025 122.853 70.2938 124.028 66.2616C125.164 62.3637 124.612 59.957 122.864 59.4477C121.709 59.1109 120.421 59.7271 119.281 60.7365L116.641 69.7956Z" fill="black"/>
<path d="M129.79 73.303C129.067 74.8809 129.093 75.2935 130.595 75.9821L130.35 76.5166L125.59 74.334L125.835 73.7995C127.312 74.4765 127.667 74.239 128.391 72.661L132.277 64.1857C133.012 62.5823 133.141 62.3023 131.459 62.2086L131.489 61.6062L133.685 61.7201L134.702 61.7861L134.879 62.2061L129.79 73.303ZM135.455 58.4656C134.742 58.1388 134.453 57.3592 134.756 56.6975C135.071 56.0103 135.839 55.7464 136.552 56.0732C137.239 56.3883 137.54 57.1424 137.225 57.8296C136.922 58.4914 136.142 58.7807 135.455 58.4656Z" fill="black"/>
<path d="M137.035 80.3887C134.699 78.3394 135.293 74.3916 138.192 71.0867C141.054 67.8238 144.83 66.4057 147.356 68.6212C149.672 70.6521 149.077 74.5998 146.178 77.9048C143.317 81.1677 139.541 82.5857 137.035 80.3887ZM137.955 79.8919C139.66 81.3874 142.299 79.8653 144.164 77.7392C146.674 74.8762 148.436 70.8719 146.436 69.118C144.71 67.6041 142.072 69.1261 140.188 71.2733C137.677 74.1363 135.934 78.1195 137.955 79.8919Z" fill="black"/>
<path d="M152.541 86.7618C149.316 89.2738 147.069 90.1717 145.59 88.272C144.42 86.7698 144.846 85.2666 147.784 82.9783L155.074 77.3005L153.835 75.71L154.475 75.211C155.719 76.7622 157.487 76.3435 159.456 74.9522L159.886 75.5044L156.771 77.9304L158.87 80.6254L158.119 81.2104L156.037 78.5375L149.521 83.6131C147.378 85.2821 145.94 86.5797 146.886 87.7947C147.712 88.855 149.384 88.4044 152.145 86.2537L152.541 86.7618Z" fill="black"/>
<path d="M152.938 93.0235C151.427 93.8788 151.207 94.2287 152.021 95.6663L151.509 95.956L148.929 91.3995L149.441 91.1098C150.241 92.5231 150.668 92.5386 152.179 91.6834L160.293 87.0896C161.828 86.2206 162.096 86.0688 160.787 85.0078L161.164 84.537L162.878 85.9156L163.664 86.5647L163.561 87.0089L152.938 93.0235ZM166.218 84.314C165.832 83.6317 166.054 82.8304 166.688 82.4717C167.345 82.0992 168.122 82.335 168.509 83.0173C168.881 83.6751 168.683 84.4627 168.026 84.8352C167.392 85.1939 166.591 84.9719 166.218 84.314Z" fill="black"/>
<path d="M154.175 102.137C153.392 99.3327 156.049 96.8757 160.283 95.6938C164.625 94.4817 168.49 95.2052 169.356 98.3066C169.928 100.356 168.764 102.018 166.957 102.523C165.959 102.801 165.314 102.574 165.119 101.873C164.938 101.226 165.321 100.828 165.807 100.693C166.211 100.58 166.776 100.626 167.343 100.467C168.313 100.196 168.695 99.4795 168.431 98.5356C167.799 96.2702 164.388 96.2341 161.286 97.0999C157.726 98.0936 155.118 100.101 155.713 102.231C156.036 103.391 157.46 104.534 161.337 103.946L161.495 104.513C157.085 105.482 154.747 104.187 154.175 102.137Z" fill="black"/>
</svg>
