<svg width="356" height="81" viewBox="0 0 356 81" fill="none" xmlns="http://www.w3.org/2000/svg">
<path d="M3.19922 40.4004C3.47562 45.3184 9.20733 49.5989 14.1504 52.7324C64.1337 78.137 122.857 79.0424 178.598 80H178.6C233.697 79.0553 291.768 78.1182 341.031 52.7617C345.998 49.5888 351.698 45.2916 352 40.4004C351.698 35.5092 345.998 31.212 341.031 28.0391C291.768 2.68262 233.697 1.74546 178.6 0.800781H178.598C122.857 1.75841 64.1337 2.66374 14.1504 28.0684C9.20733 31.2019 3.47562 35.4824 3.19922 40.4004ZM355.199 40.4004C354.093 48.3627 347.672 51.6601 342.458 55.1035C291.345 79.8656 233.898 79.768 178.6 80.8008H178.598C122.654 79.7553 64.5648 79.8849 12.7305 55.083C7.54579 51.6871 1.06577 48.3718 0 40.4004C1.06577 32.429 7.54579 29.1137 12.7305 25.7178C64.5648 0.915897 122.654 1.04547 178.598 0H178.6C233.898 1.03279 291.345 0.935149 342.458 25.6973C347.672 29.1407 354.093 32.438 355.199 40.4004Z" fill="#151515"/>
</svg>
