<svg viewBox="0 0 252 263" fill="none" xmlns="http://www.w3.org/2000/svg">
<g clip-path="url(#clip0_635_549)">
<path d="M80.4956 191.491C60.0751 191.491 40.4909 183.379 26.0515 168.94C11.612 154.5 3.5 134.916 3.5 114.496C3.5 94.0751 11.612 74.4909 26.0515 60.0515C40.4909 45.612 60.0751 37.5 80.4956 37.5C100.916 37.5 120.5 45.612 134.94 60.0515C149.379 74.4909 157.491 94.0751 157.491 114.496C157.491 134.916 149.379 154.5 134.94 168.94C120.5 183.379 100.916 191.491 80.4956 191.491Z" stroke="#FF46EC"/>
<path d="M13.4271 123.354C11.0595 123.354 8.78882 122.414 7.11468 120.739C5.44053 119.065 4.5 116.795 4.5 114.427C4.5 112.059 5.44053 109.789 7.11468 108.115C8.78882 106.441 11.0595 105.5 13.4271 105.5C15.7947 105.5 18.0653 106.441 19.7394 108.115C21.4136 109.789 22.3541 112.059 22.3541 114.427C22.3541 116.795 21.4136 119.065 19.7394 120.739C18.0653 122.414 15.7947 123.354 13.4271 123.354Z" stroke="#FF46EC"/>
<path d="M31.352 116.564C31.352 117.644 30.536 118.244 29.384 118.244C28.16 118.244 27.524 117.5 27.404 116.432H26.276C26.396 117.884 27.332 119.156 29.372 119.156C31.028 119.156 32.516 118.304 32.516 116.552C32.516 115.64 32.156 114.776 30.86 114.368C31.772 113.996 32.276 113.24 32.276 112.352C32.276 110.744 30.968 110.144 29.456 110.144C27.632 110.144 26.54 111.212 26.408 112.748H27.536C27.632 111.764 28.268 111.056 29.432 111.056C30.356 111.056 31.124 111.536 31.124 112.472C31.124 113.492 30.32 113.912 28.808 113.912H28.664V114.908H28.844C30.236 114.908 31.352 115.316 31.352 116.564ZM40.267 116.852V115.82H38.671V110.3H37.555L33.247 115.82V116.852H37.567V119H38.671V116.852H40.267ZM34.459 115.82L37.567 111.8V115.82H34.459Z" fill="black"/>
<path d="M7.24 10H9.028V1.3H7.804V8.704L3.832 1.3H2.032V10H3.256V2.572L7.24 10ZM14.9186 9.076V10H16.0106V3.544H14.9186V7.096C14.9186 8.476 14.3066 9.208 13.2746 9.208C12.0866 9.208 11.9186 8.344 11.9186 7.348V3.544H10.8266V7.672C10.8266 9.148 11.3906 10.156 12.8906 10.156C13.9586 10.156 14.5466 9.688 14.9186 9.076ZM18.8349 10V6.496C18.8349 5.116 19.4589 4.384 20.3949 4.384C21.5829 4.384 21.7749 5.248 21.7749 6.244V10H22.8669V6.496C22.8669 5.116 23.4909 4.384 24.4269 4.384C25.6149 4.384 25.8069 5.248 25.8069 6.244V10H26.8989V5.92C26.8989 4.444 26.3109 3.436 24.8109 3.436C23.9109 3.436 23.1549 3.784 22.6389 4.576C22.3509 3.868 21.7629 3.436 20.7789 3.436C19.8069 3.436 19.2069 3.904 18.8349 4.516V3.544H17.7429V10H18.8349ZM29.6279 1.3H28.5359V10H29.6279V9.028C30.0239 9.712 30.7079 10.156 31.7399 10.156C33.2159 10.156 34.4999 8.932 34.4999 6.796C34.4999 4.672 33.2159 3.436 31.7399 3.436C30.7079 3.436 30.0239 3.88 29.6279 4.564V1.3ZM31.4639 9.22C30.4919 9.22 29.5799 8.5 29.5799 6.796C29.5799 5.092 30.4919 4.372 31.4639 4.372C32.5799 4.372 33.3119 5.26 33.3119 6.796C33.3119 8.332 32.5799 9.22 31.4639 9.22ZM36.5687 7.132H41.5367C41.6807 5.092 40.4927 3.436 38.5247 3.436C36.7607 3.436 35.3927 4.744 35.3927 6.784C35.3927 8.692 36.5207 10.156 38.5607 10.156C40.1327 10.156 41.1527 9.244 41.4527 8.128H40.3247C40.0487 8.764 39.5207 9.196 38.5607 9.196C37.6007 9.196 36.6167 8.524 36.5687 7.132ZM36.5807 6.196C36.6767 4.9 37.5527 4.372 38.5247 4.372C39.6767 4.372 40.3607 5.284 40.3847 6.196H36.5807ZM46.0253 4.684V3.52C45.9053 3.508 45.8093 3.508 45.7013 3.508C44.8613 3.532 44.2013 3.94 43.8773 4.672V3.544H42.8093V10H43.9013V6.616C43.9013 5.2 44.4053 4.636 45.4133 4.636C45.5933 4.636 45.7973 4.66 46.0253 4.684ZM55.6946 6.796C55.6946 4.456 54.0986 3.436 52.5986 3.436C51.0986 3.436 49.5026 4.456 49.5026 6.796C49.5026 9.136 51.0986 10.156 52.5986 10.156C54.0986 10.156 55.6946 9.136 55.6946 6.796ZM52.5986 9.196C51.6146 9.196 50.6666 8.512 50.6666 6.796C50.6666 5.032 51.6146 4.396 52.5986 4.396C53.5826 4.396 54.5306 5.08 54.5306 6.796C54.5306 8.452 53.5826 9.196 52.5986 9.196ZM57.3353 3.076V3.544H56.4353V4.42H57.3353V10H58.4273V4.42H59.6393V3.544H58.4273V3.016C58.4273 2.344 58.5233 2.212 59.0993 2.212H59.6393V1.3H59.0753C57.6113 1.3 57.3353 1.732 57.3353 3.076ZM63.2847 8.296C63.2847 9.484 64.2927 10.156 65.5047 10.156C66.6447 10.156 67.3167 9.772 67.7127 9.112C67.7247 9.496 67.7607 9.76 67.7967 10H68.9007C68.7807 9.388 68.7207 8.644 68.7327 7.564L68.7447 6.076C68.7567 4.264 67.9527 3.412 66.1767 3.412C64.9167 3.412 63.6927 4.192 63.5847 5.584H64.7127C64.7607 4.792 65.2887 4.3 66.1887 4.3C66.9927 4.3 67.6527 4.696 67.6527 5.872V6.028C65.0007 6.328 63.2847 6.772 63.2847 8.296ZM67.7367 6.892V7.3C67.7367 8.824 66.7647 9.292 65.7447 9.292C64.9647 9.292 64.4967 8.884 64.4967 8.272C64.4967 7.384 65.7567 7.096 67.7367 6.892ZM71.4638 4.516V3.544H70.3718V10H71.4638V6.496C71.4638 5.116 72.1118 4.384 73.1678 4.384C74.4158 4.384 74.5838 5.248 74.5838 6.244V10H75.6758V5.92C75.6758 4.444 75.1118 3.436 73.5518 3.436C72.4598 3.436 71.8358 3.904 71.4638 4.516ZM77.6213 1.924V3.544H76.6013V4.42H77.6213V8.38C77.6213 9.724 77.9093 10 79.1453 10H79.9373V9.088H79.3853C78.7613 9.088 78.7133 8.92 78.7133 8.248V4.42H79.9373V3.544H78.7133V1.924H77.6213ZM82.4208 1.3H81.3288V2.62H82.4208V1.3ZM82.4208 3.544H81.3288V10H82.4208V3.544ZM85.2451 10V6.496C85.2451 5.116 85.8691 4.384 86.8051 4.384C87.9931 4.384 88.1851 5.248 88.1851 6.244V10H89.2771V6.496C89.2771 5.116 89.9011 4.384 90.8371 4.384C92.0251 4.384 92.2171 5.248 92.2171 6.244V10H93.3091V5.92C93.3091 4.444 92.7211 3.436 91.2211 3.436C90.3211 3.436 89.5651 3.784 89.0491 4.576C88.7611 3.868 88.1731 3.436 87.1891 3.436C86.2171 3.436 85.6171 3.904 85.2451 4.516V3.544H84.1531V10H85.2451ZM96.038 1.3H94.946V2.62H96.038V1.3ZM96.038 3.544H94.946V10H96.038V3.544ZM103.146 5.704C103.002 4.612 102.006 3.436 100.446 3.436C98.5383 3.436 97.3263 4.864 97.3263 6.784C97.3263 8.752 98.4902 10.156 100.338 10.156C101.838 10.156 103.002 9.112 103.218 7.9H102.09C101.934 8.584 101.286 9.196 100.374 9.196C99.4143 9.196 98.5143 8.416 98.5143 6.772C98.5143 5.152 99.4023 4.396 100.374 4.396C101.214 4.396 101.886 4.936 102.042 5.704H103.146ZM107.666 4.684V3.52C107.546 3.508 107.45 3.508 107.342 3.508C106.502 3.532 105.842 3.94 105.518 4.672V3.544H104.45V10H105.542V6.616C105.542 5.2 106.046 4.636 107.054 4.636C107.234 4.636 107.438 4.66 107.666 4.684ZM114.37 6.796C114.37 4.456 112.774 3.436 111.274 3.436C109.774 3.436 108.178 4.456 108.178 6.796C108.178 9.136 109.774 10.156 111.274 10.156C112.774 10.156 114.37 9.136 114.37 6.796ZM111.274 9.196C110.29 9.196 109.342 8.512 109.342 6.796C109.342 5.032 110.29 4.396 111.274 4.396C112.258 4.396 113.206 5.08 113.206 6.796C113.206 8.452 112.258 9.196 111.274 9.196ZM116.769 1.3H115.677V10H116.769V9.028C117.165 9.712 117.849 10.156 118.881 10.156C120.357 10.156 121.641 8.932 121.641 6.796C121.641 4.672 120.357 3.436 118.881 3.436C117.849 3.436 117.165 3.88 116.769 4.564V1.3ZM118.605 9.22C117.633 9.22 116.721 8.5 116.721 6.796C116.721 5.092 117.633 4.372 118.605 4.372C119.721 4.372 120.453 5.26 120.453 6.796C120.453 8.332 119.721 9.22 118.605 9.22ZM123.976 1.3H122.884V2.62H123.976V1.3ZM123.976 3.544H122.884V10H123.976V3.544ZM125.324 8.296C125.324 9.484 126.332 10.156 127.544 10.156C128.684 10.156 129.356 9.772 129.752 9.112C129.764 9.496 129.8 9.76 129.836 10H130.94C130.82 9.388 130.76 8.644 130.772 7.564L130.784 6.076C130.796 4.264 129.992 3.412 128.216 3.412C126.956 3.412 125.732 4.192 125.624 5.584H126.752C126.8 4.792 127.328 4.3 128.228 4.3C129.032 4.3 129.692 4.696 129.692 5.872V6.028C127.04 6.328 125.324 6.772 125.324 8.296ZM129.776 6.892V7.3C129.776 8.824 128.804 9.292 127.784 9.292C127.004 9.292 126.536 8.884 126.536 8.272C126.536 7.384 127.796 7.096 129.776 6.892ZM133.503 10V1.3H132.411V10H133.503ZM141.299 4.684V3.52C141.179 3.508 141.083 3.508 140.975 3.508C140.135 3.532 139.475 3.94 139.151 4.672V3.544H138.083V10H139.175V6.616C139.175 5.2 139.679 4.636 140.687 4.636C140.867 4.636 141.071 4.66 141.299 4.684ZM142.963 7.132H147.931C148.075 5.092 146.887 3.436 144.919 3.436C143.155 3.436 141.787 4.744 141.787 6.784C141.787 8.692 142.915 10.156 144.955 10.156C146.527 10.156 147.547 9.244 147.847 8.128H146.719C146.443 8.764 145.915 9.196 144.955 9.196C143.995 9.196 143.011 8.524 142.963 7.132ZM142.975 6.196C143.071 4.9 143.947 4.372 144.919 4.372C146.071 4.372 146.755 5.284 146.779 6.196H142.975ZM152.923 5.428H154.063C153.859 4.204 152.911 3.424 151.519 3.424C150.091 3.424 148.939 4.084 148.939 5.224C148.939 6.424 149.899 6.832 150.775 7.012L151.735 7.204C152.431 7.348 153.043 7.624 153.043 8.272C153.043 8.872 152.371 9.232 151.543 9.232C150.583 9.232 150.067 8.74 149.899 7.912H148.747C148.867 9.04 149.827 10.156 151.519 10.156C152.995 10.156 154.147 9.424 154.147 8.152C154.147 6.904 153.115 6.46 151.939 6.232L151.027 6.052C150.403 5.932 150.043 5.692 150.043 5.176C150.043 4.588 150.763 4.36 151.399 4.36C152.155 4.36 152.755 4.66 152.923 5.428ZM156.624 1.3H155.532V2.62H156.624V1.3ZM156.624 3.544H155.532V10H156.624V3.544ZM162.052 5.428H163.192C162.988 4.204 162.04 3.424 160.648 3.424C159.22 3.424 158.068 4.084 158.068 5.224C158.068 6.424 159.028 6.832 159.904 7.012L160.864 7.204C161.56 7.348 162.172 7.624 162.172 8.272C162.172 8.872 161.5 9.232 160.672 9.232C159.712 9.232 159.196 8.74 159.028 7.912H157.876C157.996 9.04 158.956 10.156 160.648 10.156C162.124 10.156 163.276 9.424 163.276 8.152C163.276 6.904 162.244 6.46 161.068 6.232L160.156 6.052C159.532 5.932 159.172 5.692 159.172 5.176C159.172 4.588 159.892 4.36 160.528 4.36C161.284 4.36 161.884 4.66 162.052 5.428ZM164.973 1.924V3.544H163.953V4.42H164.973V8.38C164.973 9.724 165.261 10 166.497 10H167.289V9.088H166.737C166.113 9.088 166.065 8.92 166.065 8.248V4.42H167.289V3.544H166.065V1.924H164.973ZM168.179 8.296C168.179 9.484 169.187 10.156 170.399 10.156C171.539 10.156 172.211 9.772 172.607 9.112C172.619 9.496 172.655 9.76 172.691 10H173.795C173.675 9.388 173.615 8.644 173.627 7.564L173.639 6.076C173.651 4.264 172.847 3.412 171.071 3.412C169.811 3.412 168.587 4.192 168.479 5.584H169.607C169.655 4.792 170.183 4.3 171.083 4.3C171.887 4.3 172.547 4.696 172.547 5.872V6.028C169.895 6.328 168.179 6.772 168.179 8.296ZM172.631 6.892V7.3C172.631 8.824 171.659 9.292 170.639 9.292C169.859 9.292 169.391 8.884 169.391 8.272C169.391 7.384 170.651 7.096 172.631 6.892ZM176.358 4.516V3.544H175.266V10H176.358V6.496C176.358 5.116 177.006 4.384 178.062 4.384C179.31 4.384 179.478 5.248 179.478 6.244V10H180.57V5.92C180.57 4.444 180.006 3.436 178.446 3.436C177.354 3.436 176.73 3.904 176.358 4.516ZM182.516 1.924V3.544H181.496V4.42H182.516V8.38C182.516 9.724 182.804 10 184.04 10H184.832V9.088H184.28C183.656 9.088 183.608 8.92 183.608 8.248V4.42H184.832V3.544H183.608V1.924H182.516ZM190.046 1.3H188.954V10H190.046V9.028C190.442 9.712 191.126 10.156 192.158 10.156C193.634 10.156 194.918 8.932 194.918 6.796C194.918 4.672 193.634 3.436 192.158 3.436C191.126 3.436 190.442 3.88 190.046 4.564V1.3ZM191.882 9.22C190.91 9.22 189.998 8.5 189.998 6.796C189.998 5.092 190.91 4.372 191.882 4.372C192.998 4.372 193.73 5.26 193.73 6.796C193.73 8.332 192.998 9.22 191.882 9.22ZM195.777 8.296C195.777 9.484 196.785 10.156 197.997 10.156C199.137 10.156 199.809 9.772 200.205 9.112C200.217 9.496 200.253 9.76 200.289 10H201.393C201.273 9.388 201.213 8.644 201.225 7.564L201.237 6.076C201.249 4.264 200.445 3.412 198.669 3.412C197.409 3.412 196.185 4.192 196.077 5.584H197.205C197.253 4.792 197.781 4.3 198.681 4.3C199.485 4.3 200.145 4.696 200.145 5.872V6.028C197.493 6.328 195.777 6.772 195.777 8.296ZM200.229 6.892V7.3C200.229 8.824 199.257 9.292 198.237 9.292C197.457 9.292 196.989 8.884 196.989 8.272C196.989 7.384 198.249 7.096 200.229 6.892ZM208.24 5.704C208.096 4.612 207.1 3.436 205.54 3.436C203.632 3.436 202.42 4.864 202.42 6.784C202.42 8.752 203.584 10.156 205.432 10.156C206.932 10.156 208.096 9.112 208.312 7.9H207.184C207.028 8.584 206.38 9.196 205.468 9.196C204.508 9.196 203.608 8.416 203.608 6.772C203.608 5.152 204.496 4.396 205.468 4.396C206.308 4.396 206.98 4.936 207.136 5.704H208.24ZM209.856 1.924V3.544H208.836V4.42H209.856V8.38C209.856 9.724 210.144 10 211.38 10H212.172V9.088H211.62C210.996 9.088 210.948 8.92 210.948 8.248V4.42H212.172V3.544H210.948V1.924H209.856ZM214.119 7.132H219.087C219.231 5.092 218.043 3.436 216.075 3.436C214.311 3.436 212.943 4.744 212.943 6.784C212.943 8.692 214.071 10.156 216.111 10.156C217.683 10.156 218.703 9.244 219.003 8.128H217.875C217.599 8.764 217.071 9.196 216.111 9.196C215.151 9.196 214.167 8.524 214.119 7.132ZM214.131 6.196C214.227 4.9 215.103 4.372 216.075 4.372C217.227 4.372 217.911 5.284 217.935 6.196H214.131ZM223.576 4.684V3.52C223.456 3.508 223.36 3.508 223.252 3.508C222.412 3.532 221.752 3.94 221.428 4.672V3.544H220.36V10H221.452V6.616C221.452 5.2 221.956 4.636 222.964 4.636C223.144 4.636 223.348 4.66 223.576 4.684ZM225.718 1.3H224.626V2.62H225.718V1.3ZM225.718 3.544H224.626V10H225.718V3.544ZM227.066 8.296C227.066 9.484 228.074 10.156 229.286 10.156C230.426 10.156 231.098 9.772 231.494 9.112C231.506 9.496 231.542 9.76 231.578 10H232.682C232.562 9.388 232.502 8.644 232.514 7.564L232.526 6.076C232.538 4.264 231.734 3.412 229.958 3.412C228.698 3.412 227.474 4.192 227.366 5.584H228.494C228.542 4.792 229.07 4.3 229.97 4.3C230.774 4.3 231.434 4.696 231.434 5.872V6.028C228.782 6.328 227.066 6.772 227.066 8.296ZM231.518 6.892V7.3C231.518 8.824 230.546 9.292 229.526 9.292C228.746 9.292 228.278 8.884 228.278 8.272C228.278 7.384 229.538 7.096 231.518 6.892ZM6.292 17.3V20.564C5.896 19.88 5.212 19.436 4.18 19.436C2.704 19.436 1.42 20.672 1.42 22.796C1.42 24.932 2.704 26.156 4.18 26.156C5.212 26.156 5.896 25.712 6.292 25.028V26H7.384V17.3H6.292ZM4.456 20.372C5.428 20.372 6.34 21.092 6.34 22.796C6.34 24.5 5.428 25.22 4.456 25.22C3.34 25.22 2.608 24.332 2.608 22.796C2.608 21.26 3.34 20.372 4.456 20.372ZM9.83819 23.132H14.8062C14.9502 21.092 13.7622 19.436 11.7942 19.436C10.0302 19.436 8.66219 20.744 8.66219 22.784C8.66219 24.692 9.79019 26.156 11.8302 26.156C13.4022 26.156 14.4222 25.244 14.7222 24.128H13.5942C13.3182 24.764 12.7902 25.196 11.8302 25.196C10.8702 25.196 9.88619 24.524 9.83819 23.132ZM9.85019 22.196C9.94619 20.9 10.8222 20.372 11.7942 20.372C12.9462 20.372 13.6302 21.284 13.6542 22.196H9.85019ZM16.3908 17.924V19.544H15.3708V20.42H16.3908V24.38C16.3908 25.724 16.6788 26 17.9148 26H18.7068V25.088H18.1548C17.5308 25.088 17.4828 24.92 17.4828 24.248V20.42H18.7068V19.544H17.4828V17.924H16.3908ZM20.6546 23.132H25.6226C25.7666 21.092 24.5786 19.436 22.6106 19.436C20.8466 19.436 19.4786 20.744 19.4786 22.784C19.4786 24.692 20.6066 26.156 22.6466 26.156C24.2186 26.156 25.2386 25.244 25.5386 24.128H24.4106C24.1346 24.764 23.6066 25.196 22.6466 25.196C21.6866 25.196 20.7026 24.524 20.6546 23.132ZM20.6666 22.196C20.7626 20.9 21.6386 20.372 22.6106 20.372C23.7626 20.372 24.4466 21.284 24.4706 22.196H20.6666ZM32.3298 21.704C32.1858 20.612 31.1898 19.436 29.6298 19.436C27.7218 19.436 26.5098 20.864 26.5098 22.784C26.5098 24.752 27.6738 26.156 29.5218 26.156C31.0218 26.156 32.1858 25.112 32.4018 23.9H31.2738C31.1178 24.584 30.4698 25.196 29.5578 25.196C28.5978 25.196 27.6978 24.416 27.6978 22.772C27.6978 21.152 28.5858 20.396 29.5578 20.396C30.3978 20.396 31.0698 20.936 31.2258 21.704H32.3298ZM33.9455 17.924V19.544H32.9255V20.42H33.9455V24.38C33.9455 25.724 34.2335 26 35.4695 26H36.2615V25.088H35.7095C35.0855 25.088 35.0375 24.92 35.0375 24.248V20.42H36.2615V19.544H35.0375V17.924H33.9455ZM38.2093 23.132H43.1773C43.3213 21.092 42.1333 19.436 40.1653 19.436C38.4013 19.436 37.0333 20.744 37.0333 22.784C37.0333 24.692 38.1613 26.156 40.2013 26.156C41.7733 26.156 42.7933 25.244 43.0933 24.128H41.9653C41.6893 24.764 41.1613 25.196 40.2013 25.196C39.2413 25.196 38.2573 24.524 38.2093 23.132ZM38.2213 22.196C38.3173 20.9 39.1933 20.372 40.1653 20.372C41.3173 20.372 42.0013 21.284 42.0253 22.196H38.2213ZM48.9365 17.3V20.564C48.5405 19.88 47.8565 19.436 46.8245 19.436C45.3485 19.436 44.0645 20.672 44.0645 22.796C44.0645 24.932 45.3485 26.156 46.8245 26.156C47.8565 26.156 48.5405 25.712 48.9365 25.028V26H50.0285V17.3H48.9365ZM47.1005 20.372C48.0725 20.372 48.9845 21.092 48.9845 22.796C48.9845 24.5 48.0725 25.22 47.1005 25.22C45.9845 25.22 45.2525 24.332 45.2525 22.796C45.2525 21.26 45.9845 20.372 47.1005 20.372Z" fill="black"/>
<path d="M7.24 223H9.028V214.3H7.804V221.704L3.832 214.3H2.032V223H3.256V215.572L7.24 223ZM14.9186 222.076V223H16.0106V216.544H14.9186V220.096C14.9186 221.476 14.3066 222.208 13.2746 222.208C12.0866 222.208 11.9186 221.344 11.9186 220.348V216.544H10.8266V220.672C10.8266 222.148 11.3906 223.156 12.8906 223.156C13.9586 223.156 14.5466 222.688 14.9186 222.076ZM18.8349 223V219.496C18.8349 218.116 19.4589 217.384 20.3949 217.384C21.5829 217.384 21.7749 218.248 21.7749 219.244V223H22.8669V219.496C22.8669 218.116 23.4909 217.384 24.4269 217.384C25.6149 217.384 25.8069 218.248 25.8069 219.244V223H26.8989V218.92C26.8989 217.444 26.3109 216.436 24.8109 216.436C23.9109 216.436 23.1549 216.784 22.6389 217.576C22.3509 216.868 21.7629 216.436 20.7789 216.436C19.8069 216.436 19.2069 216.904 18.8349 217.516V216.544H17.7429V223H18.8349ZM29.6279 214.3H28.5359V223H29.6279V222.028C30.0239 222.712 30.7079 223.156 31.7399 223.156C33.2159 223.156 34.4999 221.932 34.4999 219.796C34.4999 217.672 33.2159 216.436 31.7399 216.436C30.7079 216.436 30.0239 216.88 29.6279 217.564V214.3ZM31.4639 222.22C30.4919 222.22 29.5799 221.5 29.5799 219.796C29.5799 218.092 30.4919 217.372 31.4639 217.372C32.5799 217.372 33.3119 218.26 33.3119 219.796C33.3119 221.332 32.5799 222.22 31.4639 222.22ZM36.5687 220.132H41.5367C41.6807 218.092 40.4927 216.436 38.5247 216.436C36.7607 216.436 35.3927 217.744 35.3927 219.784C35.3927 221.692 36.5207 223.156 38.5607 223.156C40.1327 223.156 41.1527 222.244 41.4527 221.128H40.3247C40.0487 221.764 39.5207 222.196 38.5607 222.196C37.6007 222.196 36.6167 221.524 36.5687 220.132ZM36.5807 219.196C36.6767 217.9 37.5527 217.372 38.5247 217.372C39.6767 217.372 40.3607 218.284 40.3847 219.196H36.5807ZM46.0253 217.684V216.52C45.9053 216.508 45.8093 216.508 45.7013 216.508C44.8613 216.532 44.2013 216.94 43.8773 217.672V216.544H42.8093V223H43.9013V219.616C43.9013 218.2 44.4053 217.636 45.4133 217.636C45.5933 217.636 45.7973 217.66 46.0253 217.684ZM55.6946 219.796C55.6946 217.456 54.0986 216.436 52.5986 216.436C51.0986 216.436 49.5026 217.456 49.5026 219.796C49.5026 222.136 51.0986 223.156 52.5986 223.156C54.0986 223.156 55.6946 222.136 55.6946 219.796ZM52.5986 222.196C51.6146 222.196 50.6666 221.512 50.6666 219.796C50.6666 218.032 51.6146 217.396 52.5986 217.396C53.5826 217.396 54.5306 218.08 54.5306 219.796C54.5306 221.452 53.5826 222.196 52.5986 222.196ZM57.3353 216.076V216.544H56.4353V217.42H57.3353V223H58.4273V217.42H59.6393V216.544H58.4273V216.016C58.4273 215.344 58.5233 215.212 59.0993 215.212H59.6393V214.3H59.0753C57.6113 214.3 57.3353 214.732 57.3353 216.076ZM67.3647 218.428H68.5047C68.3007 217.204 67.3527 216.424 65.9607 216.424C64.5327 216.424 63.3807 217.084 63.3807 218.224C63.3807 219.424 64.3407 219.832 65.2167 220.012L66.1767 220.204C66.8727 220.348 67.4847 220.624 67.4847 221.272C67.4847 221.872 66.8127 222.232 65.9847 222.232C65.0247 222.232 64.5087 221.74 64.3407 220.912H63.1887C63.3087 222.04 64.2687 223.156 65.9607 223.156C67.4367 223.156 68.5887 222.424 68.5887 221.152C68.5887 219.904 67.5567 219.46 66.3807 219.232L65.4687 219.052C64.8447 218.932 64.4847 218.692 64.4847 218.176C64.4847 217.588 65.2047 217.36 65.8407 217.36C66.5967 217.36 67.1967 217.66 67.3647 218.428ZM69.5894 221.296C69.5894 222.484 70.5974 223.156 71.8094 223.156C72.9494 223.156 73.6214 222.772 74.0174 222.112C74.0294 222.496 74.0654 222.76 74.1014 223H75.2054C75.0854 222.388 75.0254 221.644 75.0374 220.564L75.0494 219.076C75.0614 217.264 74.2574 216.412 72.4814 216.412C71.2214 216.412 69.9974 217.192 69.8894 218.584H71.0174C71.0654 217.792 71.5934 217.3 72.4934 217.3C73.2974 217.3 73.9574 217.696 73.9574 218.872V219.028C71.3054 219.328 69.5894 219.772 69.5894 221.296ZM74.0414 219.892V220.3C74.0414 221.824 73.0694 222.292 72.0494 222.292C71.2694 222.292 70.8014 221.884 70.8014 221.272C70.8014 220.384 72.0614 220.096 74.0414 219.892ZM77.7685 223V219.496C77.7685 218.116 78.3925 217.384 79.3285 217.384C80.5165 217.384 80.7085 218.248 80.7085 219.244V223H81.8005V219.496C81.8005 218.116 82.4245 217.384 83.3605 217.384C84.5485 217.384 84.7405 218.248 84.7405 219.244V223H85.8325V218.92C85.8325 217.444 85.2445 216.436 83.7445 216.436C82.8445 216.436 82.0885 216.784 81.5725 217.576C81.2845 216.868 80.6965 216.436 79.7125 216.436C78.7405 216.436 78.1405 216.904 77.7685 217.516V216.544H76.6765V223H77.7685ZM88.5615 216.544H87.4695V225.1H88.5615V222.028C88.9575 222.712 89.6415 223.156 90.6735 223.156C92.1495 223.156 93.4335 221.932 93.4335 219.796C93.4335 217.672 92.1495 216.436 90.6735 216.436C89.6415 216.436 88.9575 216.88 88.5615 217.564V216.544ZM90.3975 222.22C89.4255 222.22 88.5135 221.5 88.5135 219.796C88.5135 218.092 89.4255 217.372 90.3975 217.372C91.5135 217.372 92.2455 218.26 92.2455 219.796C92.2455 221.332 91.5135 222.22 90.3975 222.22ZM95.8037 223V214.3H94.7117V223H95.8037ZM98.2679 220.132H103.236C103.38 218.092 102.192 216.436 100.224 216.436C98.4599 216.436 97.0919 217.744 97.0919 219.784C97.0919 221.692 98.2199 223.156 100.26 223.156C101.832 223.156 102.852 222.244 103.152 221.128H102.024C101.748 221.764 101.22 222.196 100.26 222.196C99.2999 222.196 98.3159 221.524 98.2679 220.132ZM98.2799 219.196C98.3759 217.9 99.2519 217.372 100.224 217.372C101.376 217.372 102.06 218.284 102.084 219.196H98.2799ZM108.228 218.428H109.368C109.164 217.204 108.216 216.424 106.824 216.424C105.396 216.424 104.244 217.084 104.244 218.224C104.244 219.424 105.204 219.832 106.08 220.012L107.04 220.204C107.736 220.348 108.348 220.624 108.348 221.272C108.348 221.872 107.676 222.232 106.848 222.232C105.888 222.232 105.372 221.74 105.204 220.912H104.052C104.172 222.04 105.132 223.156 106.824 223.156C108.3 223.156 109.452 222.424 109.452 221.152C109.452 219.904 108.42 219.46 107.244 219.232L106.332 219.052C105.708 218.932 105.348 218.692 105.348 218.176C105.348 217.588 106.068 217.36 106.704 217.36C107.46 217.36 108.06 217.66 108.228 218.428ZM113.996 214.924V216.544H112.976V217.42H113.996V221.38C113.996 222.724 114.284 223 115.52 223H116.312V222.088H115.76C115.136 222.088 115.088 221.92 115.088 221.248V217.42H116.312V216.544H115.088V214.924H113.996ZM117.203 221.296C117.203 222.484 118.211 223.156 119.423 223.156C120.563 223.156 121.235 222.772 121.631 222.112C121.643 222.496 121.679 222.76 121.715 223H122.819C122.699 222.388 122.639 221.644 122.651 220.564L122.663 219.076C122.675 217.264 121.871 216.412 120.095 216.412C118.835 216.412 117.611 217.192 117.503 218.584H118.631C118.679 217.792 119.207 217.3 120.107 217.3C120.911 217.3 121.571 217.696 121.571 218.872V219.028C118.919 219.328 117.203 219.772 117.203 221.296ZM121.655 219.892V220.3C121.655 221.824 120.683 222.292 119.663 222.292C118.883 222.292 118.415 221.884 118.415 221.272C118.415 220.384 119.675 220.096 121.655 219.892ZM125.382 214.3H124.29V223H125.382V220.84L126.138 220.024L128.334 223H129.666L126.87 219.22L129.33 216.544H127.986L125.382 219.448V214.3ZM130.905 220.132H135.873C136.017 218.092 134.829 216.436 132.861 216.436C131.097 216.436 129.729 217.744 129.729 219.784C129.729 221.692 130.857 223.156 132.897 223.156C134.469 223.156 135.489 222.244 135.789 221.128H134.661C134.385 221.764 133.857 222.196 132.897 222.196C131.937 222.196 130.953 221.524 130.905 220.132ZM130.917 219.196C131.013 217.9 131.889 217.372 132.861 217.372C134.013 217.372 134.697 218.284 134.721 219.196H130.917ZM138.237 217.516V216.544H137.145V223H138.237V219.496C138.237 218.116 138.885 217.384 139.941 217.384C141.189 217.384 141.357 218.248 141.357 219.244V223H142.449V218.92C142.449 217.444 141.885 216.436 140.325 216.436C139.233 216.436 138.609 216.904 138.237 217.516Z" fill="black"/>
<path d="M2.704 257.416C2.764 255.4 3.496 254.056 4.84 254.056C5.728 254.056 6.328 254.536 6.472 255.316H7.66C7.48 254.212 6.676 253.144 4.972 253.144C2.452 253.144 1.576 255.496 1.576 257.956C1.576 260.644 2.572 262.156 4.744 262.156C6.604 262.156 7.804 260.776 7.804 259.156C7.804 257.416 6.616 256.204 4.996 256.204C3.844 256.204 3.1 256.732 2.704 257.416ZM4.732 261.244C3.58 261.244 2.836 260.416 2.836 259.216C2.836 258.028 3.604 257.152 4.744 257.152C5.86 257.152 6.64 258.028 6.64 259.216C6.64 260.404 5.848 261.244 4.732 261.244ZM14.7668 255.424C14.7668 253.96 13.6148 253.144 12.0068 253.144C10.1588 253.144 8.95881 254.284 8.98281 256.012H10.1108C10.1348 254.572 11.0468 254.056 11.9828 254.056C13.0148 254.056 13.6148 254.668 13.6148 255.568C13.6148 257.104 11.8148 258.748 8.74281 261.016V262H15.0068V260.98H10.2308C12.6668 259.228 14.7668 257.44 14.7668 255.424ZM15.5929 253.3V254.32H20.3449C18.1849 256.192 16.8049 258.88 16.6129 262H17.9329C18.1369 258.748 19.4689 256.06 21.6169 254.32V253.3H15.5929Z" fill="black"/>
<path d="M167.568 116.144C167.568 117.488 166.668 118.244 165.624 118.244C164.412 118.244 163.824 117.572 163.656 116.48H162.528C162.696 117.884 163.608 119.156 165.624 119.156C167.244 119.156 168.72 118.124 168.72 116.132C168.72 114.212 167.388 113.132 165.864 113.132C165.144 113.132 164.448 113.348 163.992 113.792L164.292 111.32H168.396V110.3H163.404L162.84 114.98L163.932 115.04C164.124 114.608 164.712 114.08 165.612 114.08C166.56 114.08 167.568 114.704 167.568 116.144ZM170.069 110.3V111.68H170.657L170.021 113.348H170.717L171.449 111.776V110.3H170.069ZM178.376 116.852V115.82H176.78V110.3H175.664L171.356 115.82V116.852H175.676V119H176.78V116.852H178.376ZM172.568 115.82L175.676 111.8V115.82H172.568ZM178.773 110.3V111.32H183.525C181.365 113.192 179.985 115.88 179.793 119H181.113C181.317 115.748 182.649 113.06 184.797 111.32V110.3H178.773ZM190.822 116.852V115.82H189.226V110.3H188.11L183.802 115.82V116.852H188.122V119H189.226V116.852H190.822ZM185.014 115.82L188.122 111.8V115.82H185.014Z" fill="black"/>
<path d="M151.384 254.424C151.384 252.96 150.232 252.144 148.624 252.144C146.776 252.144 145.576 253.284 145.6 255.012H146.728C146.752 253.572 147.664 253.056 148.6 253.056C149.632 253.056 150.232 253.668 150.232 254.568C150.232 256.104 148.432 257.748 145.36 260.016V261H151.624V259.98H146.848C149.284 258.228 151.384 256.44 151.384 254.424ZM152.21 252.3V253.32H156.962C154.802 255.192 153.422 257.88 153.23 261H154.55C154.754 257.748 156.086 255.06 158.234 253.32V252.3H152.21ZM159.374 252.3V253.68H159.962L159.326 255.348H160.022L160.754 253.776V252.3H159.374ZM166.74 258.144C166.74 259.488 165.84 260.244 164.796 260.244C163.584 260.244 162.996 259.572 162.828 258.48H161.7C161.868 259.884 162.78 261.156 164.796 261.156C166.416 261.156 167.892 260.124 167.892 258.132C167.892 256.212 166.56 255.132 165.036 255.132C164.316 255.132 163.62 255.348 163.164 255.792L163.464 253.32H167.568V252.3H162.576L162.012 256.98L163.104 257.04C163.296 256.608 163.884 256.08 164.784 256.08C165.732 256.08 166.74 256.704 166.74 258.144ZM168.593 252.3V253.32H173.345C171.185 255.192 169.805 257.88 169.613 261H170.933C171.137 257.748 172.469 255.06 174.617 253.32V252.3H168.593ZM175.109 252.3V253.32H179.861C177.701 255.192 176.321 257.88 176.129 261H177.449C177.653 257.748 178.985 255.06 181.133 253.32V252.3H175.109Z" fill="black"/>
<rect x="1.5" y="233.5" width="189" height="9" rx="4.5" fill="url(#paint0_linear_635_549)" stroke="#FF46EC"/>
</g>
<defs>
<linearGradient id="paint0_linear_635_549" x1="184.949" y1="243" x2="1" y2="243" gradientUnits="userSpaceOnUse">
<stop stop-color="#FF46EC"/>
<stop offset="1" stop-color="white"/>
</linearGradient>
<clipPath id="clip0_635_549">
<rect width="252" height="263" fill="white"/>
</clipPath>
</defs>
</svg>
