<svg viewBox="0 0 1590 564" fill="none" xmlns="http://www.w3.org/2000/svg">
<g clip-path="url(#clip0_634_499)">
<circle cx="450.5" cy="432.5" r="47.5" fill="#2A2A2A"/>
<ellipse cx="1193" cy="136.5" rx="47" ry="47.5" fill="white"/>
<circle cx="919.571" cy="290.571" r="47.2474" transform="rotate(-69.9732 919.571 290.571)" fill="#FF3A17"/>
<ellipse cx="579" cy="412.5" rx="47" ry="47.5" fill="white"/>
<ellipse cx="777.5" cy="158" rx="47.5" ry="47" fill="#2A2A2A"/>
<circle cx="1495.57" cy="79.5711" r="47.2474" transform="rotate(-69.9732 1495.57 79.5711)" fill="#FF46EC"/>
<circle cx="807.358" cy="512.443" r="47.2474" transform="rotate(8.10322 807.358 512.443)" fill="#FF46EC"/>
<circle cx="962.571" cy="136.571" r="47.2474" transform="rotate(-69.9732 962.571 136.571)" fill="#FF46EC"/>
<circle cx="536.571" cy="104.571" r="47.2474" transform="rotate(-69.9732 536.571 104.571)" fill="#FF46EC"/>
<circle cx="242" cy="424" r="47" fill="#FF46EC"/>
<circle cx="1502.44" cy="323.436" r="47.2474" transform="rotate(8.10322 1502.44 323.436)" fill="#2A2A2A"/>
<circle cx="423" cy="223" r="47" fill="#2A2A2A"/>
<ellipse cx="1275" cy="63.5" rx="47" ry="47.5" fill="#2A2A2A"/>
<ellipse cx="292" cy="463.5" rx="47" ry="47.5" fill="#FF46EC"/>
<ellipse cx="65" cy="460.5" rx="47" ry="47.5" fill="#FF3A17"/>
<circle cx="517" cy="476" r="47" fill="#FF3A17"/>
<ellipse cx="367.5" cy="311" rx="46.5" ry="47" fill="#FF3A17"/>
<ellipse cx="241.5" cy="246" rx="46.5" ry="47" fill="white"/>
<ellipse cx="290" cy="389.5" rx="47" ry="47.5" fill="#FF3A17"/>
<ellipse cx="123.5" cy="280" rx="46.5" ry="47" fill="white"/>
<ellipse cx="921.5" cy="331.5" rx="46.5" ry="47.5" fill="#FF46EC"/>
<ellipse cx="704.5" cy="336.5" rx="46.5" ry="47.5" fill="#FF46EC"/>
<circle cx="289" cy="231" r="47" fill="#FF3A17"/>
<circle cx="537" cy="173" r="47" fill="#FF3A17"/>
<circle cx="1495.44" cy="477.436" r="47.2474" transform="rotate(8.10322 1495.44 477.436)" fill="#FF3A17"/>
<circle cx="1393.44" cy="168.436" r="47.2474" transform="rotate(8.10322 1393.44 168.436)" fill="#FF3A17"/>
<circle cx="1146" cy="318" r="47" fill="#FF3A17"/>
<circle cx="1027" cy="86" r="47" fill="#FF3A17"/>
<ellipse cx="484.5" cy="199" rx="47.5" ry="47" fill="#FF46EC"/>
<circle cx="1181" cy="477" r="47" fill="#2A2A2A"/>
<ellipse cx="178.5" cy="384" rx="47.5" ry="47" fill="white"/>
<circle cx="1252" cy="292" r="47" fill="#FF3A17"/>
<ellipse cx="660.5" cy="199" rx="47.5" ry="47" fill="#FF3A17"/>
<circle cx="198.571" cy="85.5711" r="47.2474" transform="rotate(-69.9732 198.571 85.5711)" fill="#2A2A2A"/>
<ellipse cx="84" cy="60.5" rx="47" ry="47.5" fill="#FF46EC"/>
<ellipse cx="202.5" cy="466" rx="47.5" ry="47" fill="#FF3A17"/>
<circle cx="1240.44" cy="418.436" r="47.2474" transform="rotate(8.10322 1240.44 418.436)" fill="#FF46EC"/>
<circle cx="1322.44" cy="377.436" r="47.2474" transform="rotate(8.10322 1322.44 377.436)" fill="white"/>
</g>
<defs>
<clipPath id="clip0_634_499">
<rect width="1590" height="564" fill="white"/>
</clipPath>
</defs>
</svg>
