<svg viewBox="0 0 1105 766" fill="none" xmlns="http://www.w3.org/2000/svg">
<path d="M1063 2H1052C1046.48 2 1042 6.47715 1042 12V71C1042 76.5229 1046.48 81 1052 81H1063C1068.52 81 1073 76.5229 1073 71V12C1073 6.47715 1068.52 2 1063 2Z" fill="#E0DFDF" stroke="#FF3A17" stroke-miterlimit="10"/>
<path d="M1019 2H560C551.716 2 545 8.71573 545 17V66C545 74.2843 551.716 81 560 81H1019C1027.28 81 1034 74.2843 1034 66V17C1034 8.71573 1027.28 2 1019 2Z" fill="#E0DFDF" stroke="#FF3A17" stroke-miterlimit="10"/>
<path d="M1058 87H560C551.716 87 545 93.7157 545 102V728C545 736.284 551.716 743 560 743H1058C1066.28 743 1073 736.284 1073 728V102C1073 93.7157 1066.28 87 1058 87Z" fill="#FF46EC" stroke="#FF3A17" stroke-miterlimit="10"/>
<path d="M526 2H401C395.477 2 391 6.47715 391 12V21C391 26.5228 395.477 31 401 31H526C531.523 31 536 26.5228 536 21V12C536 6.47715 531.523 2 526 2Z" fill="#E0DFDF" stroke="#FF3A17" stroke-miterlimit="10"/>
<path d="M526 713H401C395.477 713 391 717.477 391 723V733C391 738.523 395.477 743 401 743H526C531.523 743 536 738.523 536 733V723C536 717.477 531.523 713 526 713Z" fill="#E0DFDF" stroke="#FF3A17" stroke-miterlimit="10"/>
<path d="M521 387H406C397.716 387 391 393.716 391 402V695C391 703.284 397.716 710 406 710H521C529.284 710 536 703.284 536 695V402C536 393.716 529.284 387 521 387Z" fill="#E0DFDF" stroke="#FF3A17" stroke-miterlimit="10"/>
<path d="M521 34H406C397.716 34 391 40.7157 391 49V369C391 377.284 397.716 384 406 384H521C529.284 384 536 377.284 536 369V49C536 40.7157 529.284 34 521 34Z" fill="#E0DFDF" stroke="#FF3A17" stroke-miterlimit="10"/>
<path d="M367 2H18C9.71573 2 3 8.71574 3 17V727C3 735.284 9.71573 742 18 742H367C375.284 742 382 735.284 382 727V17C382 8.71573 375.284 2 367 2Z" fill="#E0DFDF" stroke="#FF3A17" stroke-miterlimit="10"/>
<path d="M561.7 99.75L559 107H560.46L560.97 105.53H563.79L564.3 107H565.85L563.14 99.75H561.7ZM561.38 104.36L562.38 101.5L563.38 104.36H561.38ZM567.846 102.33V101.62H566.466V107H567.846V104.2C567.846 103.35 568.046 102.61 568.956 102.61C569.736 102.61 569.886 103.21 569.886 103.91V107H571.266V103.61C571.266 102.29 570.696 101.5 569.406 101.5C568.746 101.5 568.156 101.79 567.846 102.33ZM572.613 100.16V101.62H571.853V102.57H572.613V105.55C572.613 106.62 572.853 107 574.083 107H575.093V106.01H574.673C574.183 106.01 573.993 105.9 573.993 105.35V102.57H575.113V101.62H573.993V100.16H572.613ZM577.377 99.75H575.997V101.03H577.377V99.75ZM577.377 101.62H575.997V107H577.377V101.62ZM584.374 102.61C585.184 102.61 585.234 103.28 585.234 103.87V107H586.614V103.61C586.614 102.34 586.144 101.5 584.794 101.5C583.984 101.5 583.444 101.78 583.024 102.38C582.814 101.99 582.414 101.5 581.494 101.5C580.844 101.5 580.294 101.8 579.994 102.33V101.62H578.614V107H579.994V104.2C579.994 103.38 580.144 102.61 581.064 102.61C581.874 102.61 581.924 103.28 581.924 103.87V107H583.304V104.2C583.304 103.38 583.454 102.61 584.374 102.61ZM589.154 99.75H587.774V101.03H589.154V99.75ZM589.154 101.62H587.774V107H589.154V101.62ZM595.181 103.46C595.001 102.12 593.861 101.5 592.741 101.5C591.131 101.5 590.041 102.68 590.041 104.32C590.041 105.94 591.071 107.13 592.681 107.13C593.791 107.13 594.911 106.64 595.231 105.17H593.911C593.731 105.82 593.221 106.06 592.751 106.06C591.991 106.06 591.451 105.43 591.451 104.3C591.451 103.18 592.021 102.57 592.741 102.57C593.261 102.57 593.761 102.95 593.861 103.46H595.181ZM599.136 102.95V101.65C599.046 101.64 598.926 101.63 598.836 101.63C598.216 101.63 597.726 101.9 597.416 102.56V101.62H596.056V107H597.436V104.18C597.436 103.17 597.886 102.92 598.566 102.92C598.766 102.92 598.936 102.93 599.136 102.95ZM599.485 104.32C599.485 106.21 600.825 107.13 602.185 107.13C603.545 107.13 604.885 106.21 604.885 104.32C604.885 102.43 603.545 101.5 602.185 101.5C600.825 101.5 599.485 102.43 599.485 104.32ZM600.885 104.32C600.885 103.19 601.425 102.58 602.185 102.58C602.945 102.58 603.485 103.19 603.485 104.32C603.485 105.44 602.945 106.05 602.185 106.05C601.425 106.05 600.885 105.44 600.885 104.32ZM605.763 107H607.143V106.32C607.483 106.91 608.133 107.13 608.693 107.13C609.973 107.13 611.033 106.03 611.033 104.31C611.033 102.62 609.993 101.5 608.693 101.5C608.013 101.5 607.433 101.81 607.143 102.31V99.75H605.763V107ZM609.583 104.32C609.583 105.37 609.063 106.07 608.353 106.07C607.593 106.07 607.093 105.41 607.093 104.31C607.093 103.23 607.593 102.56 608.353 102.56C609.063 102.56 609.583 103.27 609.583 104.32ZM613.305 99.75H611.925V101.03H613.305V99.75ZM613.305 101.62H611.925V107H613.305V101.62ZM616.262 107.13C617.072 107.13 617.642 106.89 618.022 106.33C618.042 106.59 618.072 106.83 618.112 107H619.382C619.282 106.55 619.222 106.07 619.222 105.22C619.222 104.73 619.242 104.02 619.242 103.85C619.242 102.03 618.202 101.48 616.922 101.48C615.542 101.48 614.662 102.26 614.562 103.32H615.852C615.882 102.73 616.322 102.45 616.852 102.45C617.412 102.45 617.862 102.74 617.862 103.57V103.66C615.752 103.9 614.322 104.28 614.322 105.55C614.322 106.53 615.232 107.13 616.262 107.13ZM617.902 104.54V104.94C617.902 105.72 617.532 106.19 616.672 106.19C616.052 106.19 615.742 105.87 615.742 105.48C615.742 104.88 616.362 104.7 617.902 104.54ZM621.771 107V99.75H620.391V107H621.771ZM628.245 104.16L629.685 107H631.275L629.665 103.86C630.565 103.48 630.975 102.78 630.975 101.95C630.975 100.43 630.065 99.75 627.675 99.75H625.295V107H626.725V104.16H628.245ZM626.725 100.87H627.835C628.805 100.87 629.505 101.12 629.505 101.96C629.505 102.67 629.015 103.05 627.905 103.05H626.725V100.87ZM632.945 104.69H636.915C636.975 102.79 635.935 101.5 634.275 101.5C632.685 101.5 631.575 102.69 631.575 104.29C631.575 105.84 632.585 107.13 634.315 107.13C635.775 107.13 636.565 106.24 636.855 105.44H635.435C635.155 105.91 634.725 106.06 634.305 106.06C633.655 106.06 633.015 105.61 632.945 104.69ZM632.965 103.74C633.075 102.84 633.745 102.51 634.265 102.51C634.845 102.51 635.485 102.83 635.515 103.74H632.965ZM640.882 103.24H642.172C641.992 102 640.922 101.48 639.802 101.48C638.642 101.48 637.602 102.11 637.602 103.08C637.602 104.06 638.272 104.48 639.282 104.69L640.082 104.86C640.542 104.96 640.962 105.12 640.962 105.52C640.962 105.91 640.582 106.13 639.992 106.13C639.282 106.13 638.912 105.74 638.832 105.22H637.502C637.632 106.45 638.632 107.13 639.952 107.13C641.172 107.13 642.282 106.47 642.282 105.39C642.282 104.28 641.372 104.01 640.302 103.77L639.582 103.61C639.072 103.5 638.862 103.28 638.862 102.99C638.862 102.66 639.222 102.47 639.732 102.47C640.362 102.47 640.782 102.79 640.882 103.24ZM644.525 99.75H643.145V101.03H644.525V99.75ZM644.525 101.62H643.145V107H644.525V101.62ZM648.793 103.24H650.083C649.903 102 648.833 101.48 647.713 101.48C646.553 101.48 645.513 102.11 645.513 103.08C645.513 104.06 646.183 104.48 647.193 104.69L647.993 104.86C648.453 104.96 648.873 105.12 648.873 105.52C648.873 105.91 648.493 106.13 647.903 106.13C647.193 106.13 646.823 105.74 646.743 105.22H645.413C645.543 106.45 646.543 107.13 647.863 107.13C649.083 107.13 650.193 106.47 650.193 105.39C650.193 104.28 649.283 104.01 648.213 103.77L647.493 103.61C646.983 103.5 646.773 103.28 646.773 102.99C646.773 102.66 647.133 102.47 647.643 102.47C648.273 102.47 648.693 102.79 648.793 103.24ZM651.314 100.16V101.62H650.554V102.57H651.314V105.55C651.314 106.62 651.554 107 652.784 107H653.794V106.01H653.374C652.884 106.01 652.694 105.9 652.694 105.35V102.57H653.814V101.62H652.694V100.16H651.314ZM656.418 107.13C657.228 107.13 657.798 106.89 658.178 106.33C658.198 106.59 658.228 106.83 658.268 107H659.538C659.438 106.55 659.378 106.07 659.378 105.22C659.378 104.73 659.398 104.02 659.398 103.85C659.398 102.03 658.358 101.48 657.078 101.48C655.698 101.48 654.818 102.26 654.718 103.32H656.008C656.038 102.73 656.478 102.45 657.008 102.45C657.568 102.45 658.018 102.74 658.018 103.57V103.66C655.908 103.9 654.478 104.28 654.478 105.55C654.478 106.53 655.388 107.13 656.418 107.13ZM658.058 104.54V104.94C658.058 105.72 657.688 106.19 656.828 106.19C656.208 106.19 655.898 105.87 655.898 105.48C655.898 104.88 656.518 104.7 658.058 104.54ZM661.928 102.33V101.62H660.548V107H661.928V104.2C661.928 103.35 662.128 102.61 663.038 102.61C663.818 102.61 663.968 103.21 663.968 103.91V107H665.348V103.61C665.348 102.29 664.778 101.5 663.488 101.5C662.828 101.5 662.238 101.79 661.928 102.33ZM671.295 103.46C671.115 102.12 669.975 101.5 668.855 101.5C667.245 101.5 666.155 102.68 666.155 104.32C666.155 105.94 667.185 107.13 668.795 107.13C669.905 107.13 671.025 106.64 671.345 105.17H670.025C669.845 105.82 669.335 106.06 668.865 106.06C668.105 106.06 667.565 105.43 667.565 104.3C667.565 103.18 668.135 102.57 668.855 102.57C669.375 102.57 669.875 102.95 669.975 103.46H671.295ZM673.238 104.69H677.208C677.268 102.79 676.228 101.5 674.568 101.5C672.978 101.5 671.868 102.69 671.868 104.29C671.868 105.84 672.878 107.13 674.608 107.13C676.068 107.13 676.858 106.24 677.148 105.44H675.728C675.448 105.91 675.018 106.06 674.598 106.06C673.948 106.06 673.308 105.61 673.238 104.69ZM673.258 103.74C673.368 102.84 674.038 102.51 674.558 102.51C675.138 102.51 675.778 102.83 675.808 103.74H673.258Z" fill="black"/>
<path d="M560.8 124H561.71V116.75H561.09C560.69 117.54 560.16 117.67 559.12 117.71V118.33H560.8V124ZM565.982 124.13C567.912 124.13 568.802 122.67 568.802 120.37C568.802 118.08 567.912 116.62 565.982 116.62C564.052 116.62 563.162 118.08 563.162 120.37C563.162 122.67 564.052 124.13 565.982 124.13ZM565.982 117.38C567.122 117.38 567.832 118.36 567.832 120.37C567.832 122.39 567.122 123.37 565.982 123.37C564.842 123.37 564.132 122.39 564.132 120.37C564.132 118.36 564.842 117.38 565.982 117.38ZM569.943 116.75V117.9H570.433L569.903 119.29H570.483L571.093 117.98V116.75H569.943ZM575.044 124.13C576.974 124.13 577.864 122.67 577.864 120.37C577.864 118.08 576.974 116.62 575.044 116.62C573.114 116.62 572.224 118.08 572.224 120.37C572.224 122.67 573.114 124.13 575.044 124.13ZM575.044 117.38C576.184 117.38 576.894 118.36 576.894 120.37C576.894 122.39 576.184 123.37 575.044 123.37C573.904 123.37 573.194 122.39 573.194 120.37C573.194 118.36 573.904 117.38 575.044 117.38ZM581.655 124.13C583.585 124.13 584.475 122.67 584.475 120.37C584.475 118.08 583.585 116.62 581.655 116.62C579.725 116.62 578.835 118.08 578.835 120.37C578.835 122.67 579.725 124.13 581.655 124.13ZM581.655 117.38C582.795 117.38 583.505 118.36 583.505 120.37C583.505 122.39 582.795 123.37 581.655 123.37C580.515 123.37 579.805 122.39 579.805 120.37C579.805 118.36 580.515 117.38 581.655 117.38ZM586.767 124H587.677V116.75H587.057C586.657 117.54 586.127 117.67 585.087 117.71V118.33H586.767V124ZM589.298 116.75V117.9H589.788L589.258 119.29H589.838L590.448 117.98V116.75H589.298ZM594.4 124.13C596.33 124.13 597.22 122.67 597.22 120.37C597.22 118.08 596.33 116.62 594.4 116.62C592.47 116.62 591.58 118.08 591.58 120.37C591.58 122.67 592.47 124.13 594.4 124.13ZM594.4 117.38C595.54 117.38 596.25 118.36 596.25 120.37C596.25 122.39 595.54 123.37 594.4 123.37C593.26 123.37 592.55 122.39 592.55 120.37C592.55 118.36 593.26 117.38 594.4 117.38ZM601.011 124.13C602.941 124.13 603.831 122.67 603.831 120.37C603.831 118.08 602.941 116.62 601.011 116.62C599.081 116.62 598.191 118.08 598.191 120.37C598.191 122.67 599.081 124.13 601.011 124.13ZM601.011 117.38C602.151 117.38 602.861 118.36 602.861 120.37C602.861 122.39 602.151 123.37 601.011 123.37C599.871 123.37 599.161 122.39 599.161 120.37C599.161 118.36 599.871 117.38 601.011 117.38ZM607.622 124.13C609.552 124.13 610.442 122.67 610.442 120.37C610.442 118.08 609.552 116.62 607.622 116.62C605.692 116.62 604.802 118.08 604.802 120.37C604.802 122.67 605.692 124.13 607.622 124.13ZM607.622 117.38C608.762 117.38 609.472 118.36 609.472 120.37C609.472 122.39 608.762 123.37 607.622 123.37C606.482 123.37 605.772 122.39 605.772 120.37C605.772 118.36 606.482 117.38 607.622 117.38Z" fill="black"/>
<path d="M561.8 36H562.71V28.75H562.09C561.69 29.54 561.16 29.67 560.12 29.71V30.33H561.8V36ZM564.332 28.75V29.9H564.822L564.292 31.29H564.872L565.482 29.98V28.75H564.332ZM571.453 30.52C571.453 29.3 570.493 28.62 569.153 28.62C567.613 28.62 566.613 29.57 566.633 31.01H567.573C567.593 29.81 568.353 29.38 569.133 29.38C569.993 29.38 570.493 29.89 570.493 30.64C570.493 31.92 568.993 33.29 566.433 35.18V36H571.653V35.15H567.673C569.703 33.69 571.453 32.2 571.453 30.52ZM575.331 36.13C577.261 36.13 578.151 34.67 578.151 32.37C578.151 30.08 577.261 28.62 575.331 28.62C573.401 28.62 572.511 30.08 572.511 32.37C572.511 34.67 573.401 36.13 575.331 36.13ZM575.331 29.38C576.471 29.38 577.181 30.36 577.181 32.37C577.181 34.39 576.471 35.37 575.331 35.37C574.191 35.37 573.481 34.39 573.481 32.37C573.481 30.36 574.191 29.38 575.331 29.38ZM581.943 36.13C583.873 36.13 584.763 34.67 584.763 32.37C584.763 30.08 583.873 28.62 581.943 28.62C580.013 28.62 579.123 30.08 579.123 32.37C579.123 34.67 580.013 36.13 581.943 36.13ZM581.943 29.38C583.083 29.38 583.793 30.36 583.793 32.37C583.793 34.39 583.083 35.37 581.943 35.37C580.803 35.37 580.093 34.39 580.093 32.37C580.093 30.36 580.803 29.38 581.943 29.38ZM585.904 28.75V29.9H586.394L585.864 31.29H586.444L587.054 29.98V28.75H585.904ZM591.005 36.13C592.935 36.13 593.825 34.67 593.825 32.37C593.825 30.08 592.935 28.62 591.005 28.62C589.075 28.62 588.185 30.08 588.185 32.37C588.185 34.67 589.075 36.13 591.005 36.13ZM591.005 29.38C592.145 29.38 592.855 30.36 592.855 32.37C592.855 34.39 592.145 35.37 591.005 35.37C589.865 35.37 589.155 34.39 589.155 32.37C589.155 30.36 589.865 29.38 591.005 29.38ZM597.616 36.13C599.546 36.13 600.436 34.67 600.436 32.37C600.436 30.08 599.546 28.62 597.616 28.62C595.686 28.62 594.796 30.08 594.796 32.37C594.796 34.67 595.686 36.13 597.616 36.13ZM597.616 29.38C598.756 29.38 599.466 30.36 599.466 32.37C599.466 34.39 598.756 35.37 597.616 35.37C596.476 35.37 595.766 34.39 595.766 32.37C595.766 30.36 596.476 29.38 597.616 29.38ZM604.228 36.13C606.158 36.13 607.048 34.67 607.048 32.37C607.048 30.08 606.158 28.62 604.228 28.62C602.298 28.62 601.408 30.08 601.408 32.37C601.408 34.67 602.298 36.13 604.228 36.13ZM604.228 29.38C605.368 29.38 606.078 30.36 606.078 32.37C606.078 34.39 605.368 35.37 604.228 35.37C603.088 35.37 602.378 34.39 602.378 32.37C602.378 30.36 603.088 29.38 604.228 29.38Z" fill="black"/>
<path d="M412.93 16.62H411.57C411.34 17.6 410.63 17.99 409.77 17.99C408.72 17.99 407.88 17.07 407.88 15.34C407.88 13.66 408.72 12.76 409.82 12.76C410.62 12.76 411.3 13.09 411.57 14.1H412.93C412.69 12.59 411.53 11.62 409.83 11.62C407.72 11.62 406.4 13.05 406.4 15.34C406.4 17.65 407.64 19.13 409.79 19.13C411.53 19.13 412.74 18.08 412.93 16.62ZM415.188 14.33V11.75H413.808V19H415.188V16.2C415.188 15.35 415.388 14.61 416.298 14.61C417.078 14.61 417.228 15.21 417.228 15.91V19H418.608V15.61C418.608 14.29 418.038 13.5 416.748 13.5C416.088 13.5 415.498 13.79 415.188 14.33ZM419.405 16.32C419.405 18.21 420.745 19.13 422.105 19.13C423.465 19.13 424.805 18.21 424.805 16.32C424.805 14.43 423.465 13.5 422.105 13.5C420.745 13.5 419.405 14.43 419.405 16.32ZM420.805 16.32C420.805 15.19 421.345 14.58 422.105 14.58C422.865 14.58 423.405 15.19 423.405 16.32C423.405 17.44 422.865 18.05 422.105 18.05C421.345 18.05 420.805 17.44 420.805 16.32ZM427.063 19V11.75H425.683V19H427.063ZM429.32 16.69H433.29C433.35 14.79 432.31 13.5 430.65 13.5C429.06 13.5 427.95 14.69 427.95 16.29C427.95 17.84 428.96 19.13 430.69 19.13C432.15 19.13 432.94 18.24 433.23 17.44H431.81C431.53 17.91 431.1 18.06 430.68 18.06C430.03 18.06 429.39 17.61 429.32 16.69ZM429.34 15.74C429.45 14.84 430.12 14.51 430.64 14.51C431.22 14.51 431.86 14.83 431.89 15.74H429.34ZM437.259 14.95V13.65C437.169 13.64 437.049 13.63 436.959 13.63C436.339 13.63 435.849 13.9 435.539 14.56V13.62H434.179V19H435.559V16.18C435.559 15.17 436.009 14.92 436.689 14.92C436.889 14.92 437.059 14.93 437.259 14.95ZM439.492 19.13C440.302 19.13 440.872 18.89 441.252 18.33C441.272 18.59 441.302 18.83 441.342 19H442.612C442.512 18.55 442.452 18.07 442.452 17.22C442.452 16.73 442.472 16.02 442.472 15.85C442.472 14.03 441.432 13.48 440.152 13.48C438.772 13.48 437.892 14.26 437.792 15.32H439.082C439.112 14.73 439.552 14.45 440.082 14.45C440.642 14.45 441.092 14.74 441.092 15.57V15.66C438.982 15.9 437.552 16.28 437.552 17.55C437.552 18.53 438.462 19.13 439.492 19.13ZM441.132 16.54V16.94C441.132 17.72 440.762 18.19 439.902 18.19C439.282 18.19 438.972 17.87 438.972 17.48C438.972 16.88 439.592 16.7 441.132 16.54Z" fill="black"/>
<path d="M563.6 16.16L565.04 19H566.63L565.02 15.86C565.92 15.48 566.33 14.78 566.33 13.95C566.33 12.43 565.42 11.75 563.03 11.75H560.65V19H562.08V16.16H563.6ZM562.08 12.87H563.19C564.16 12.87 564.86 13.12 564.86 13.96C564.86 14.67 564.37 15.05 563.26 15.05H562.08V12.87ZM566.92 16.32C566.92 18.21 568.26 19.13 569.62 19.13C570.98 19.13 572.32 18.21 572.32 16.32C572.32 14.43 570.98 13.5 569.62 13.5C568.26 13.5 566.92 14.43 566.92 16.32ZM568.32 16.32C568.32 15.19 568.86 14.58 569.62 14.58C570.38 14.58 570.92 15.19 570.92 16.32C570.92 17.44 570.38 18.05 569.62 18.05C568.86 18.05 568.32 17.44 568.32 16.32ZM574.869 19.13C575.679 19.13 576.249 18.89 576.629 18.33C576.649 18.59 576.679 18.83 576.719 19H577.989C577.889 18.55 577.829 18.07 577.829 17.22C577.829 16.73 577.849 16.02 577.849 15.85C577.849 14.03 576.809 13.48 575.529 13.48C574.149 13.48 573.269 14.26 573.169 15.32H574.459C574.489 14.73 574.929 14.45 575.459 14.45C576.019 14.45 576.469 14.74 576.469 15.57V15.66C574.359 15.9 572.929 16.28 572.929 17.55C572.929 18.53 573.839 19.13 574.869 19.13ZM576.509 16.54V16.94C576.509 17.72 576.139 18.19 575.279 18.19C574.659 18.19 574.349 17.87 574.349 17.48C574.349 16.88 574.969 16.7 576.509 16.54ZM582.539 19H583.919V11.75H582.539V14.31C582.249 13.81 581.669 13.5 580.989 13.5C579.689 13.5 578.649 14.62 578.649 16.31C578.649 18.03 579.709 19.13 580.989 19.13C581.549 19.13 582.199 18.91 582.539 18.32V19ZM582.589 16.31C582.589 17.41 582.089 18.07 581.329 18.07C580.619 18.07 580.099 17.37 580.099 16.32C580.099 15.27 580.619 14.56 581.329 14.56C582.089 14.56 582.589 15.23 582.589 16.31ZM589.077 12.91V19H590.507V12.91H592.747V11.75H586.847V12.91H589.077ZM595.741 14.95V13.65C595.651 13.64 595.531 13.63 595.441 13.63C594.821 13.63 594.331 13.9 594.021 14.56V13.62H592.661V19H594.041V16.18C594.041 15.17 594.491 14.92 595.171 14.92C595.371 14.92 595.541 14.93 595.741 14.95ZM597.975 19.13C598.785 19.13 599.355 18.89 599.735 18.33C599.755 18.59 599.785 18.83 599.825 19H601.095C600.995 18.55 600.935 18.07 600.935 17.22C600.935 16.73 600.955 16.02 600.955 15.85C600.955 14.03 599.915 13.48 598.635 13.48C597.255 13.48 596.375 14.26 596.275 15.32H597.565C597.595 14.73 598.035 14.45 598.565 14.45C599.125 14.45 599.575 14.74 599.575 15.57V15.66C597.465 15.9 596.035 16.28 596.035 17.55C596.035 18.53 596.945 19.13 597.975 19.13ZM599.615 16.54V16.94C599.615 17.72 599.245 18.19 598.385 18.19C597.765 18.19 597.455 17.87 597.455 17.48C597.455 16.88 598.075 16.7 599.615 16.54ZM602.234 13.32V13.62H601.474V14.57H602.234V19H603.614V14.57H604.694V13.62H603.614V13.36C603.614 12.85 603.744 12.77 604.424 12.77H604.694V11.75H604.224C602.874 11.75 602.234 11.96 602.234 13.32ZM605.525 13.32V13.62H604.765V14.57H605.525V19H606.905V14.57H607.985V13.62H606.905V13.36C606.905 12.85 607.035 12.77 607.715 12.77H607.985V11.75H607.515C606.165 11.75 605.525 11.96 605.525 13.32ZM610.066 11.75H608.686V13.03H610.066V11.75ZM610.066 13.62H608.686V19H610.066V13.62ZM616.094 15.46C615.914 14.12 614.774 13.5 613.654 13.5C612.044 13.5 610.954 14.68 610.954 16.32C610.954 17.94 611.984 19.13 613.594 19.13C614.704 19.13 615.824 18.64 616.144 17.17H614.824C614.644 17.82 614.134 18.06 613.664 18.06C612.904 18.06 612.364 17.43 612.364 16.3C612.364 15.18 612.934 14.57 613.654 14.57C614.174 14.57 614.674 14.95 614.774 15.46H616.094ZM621.304 11.75L618.604 19H620.064L620.574 17.53H623.394L623.904 19H625.454L622.744 11.75H621.304ZM620.984 16.36L621.984 13.5L622.984 16.36H620.984ZM630.859 15.46C630.679 14.12 629.539 13.5 628.419 13.5C626.809 13.5 625.719 14.68 625.719 16.32C625.719 17.94 626.749 19.13 628.359 19.13C629.469 19.13 630.589 18.64 630.909 17.17H629.589C629.409 17.82 628.899 18.06 628.429 18.06C627.669 18.06 627.129 17.43 627.129 16.3C627.129 15.18 627.699 14.57 628.419 14.57C628.939 14.57 629.439 14.95 629.539 15.46H630.859ZM636.572 15.46C636.392 14.12 635.252 13.5 634.132 13.5C632.522 13.5 631.432 14.68 631.432 16.32C631.432 17.94 632.462 19.13 634.072 19.13C635.182 19.13 636.302 18.64 636.622 17.17H635.302C635.122 17.82 634.612 18.06 634.142 18.06C633.382 18.06 632.842 17.43 632.842 16.3C632.842 15.18 633.412 14.57 634.132 14.57C634.652 14.57 635.152 14.95 635.252 15.46H636.572ZM638.826 11.75H637.446V13.03H638.826V11.75ZM638.826 13.62H637.446V19H638.826V13.62ZM643.603 19H644.983V11.75H643.603V14.31C643.313 13.81 642.733 13.5 642.053 13.5C640.753 13.5 639.713 14.62 639.713 16.31C639.713 18.03 640.773 19.13 642.053 19.13C642.613 19.13 643.263 18.91 643.603 18.32V19ZM643.653 16.31C643.653 17.41 643.153 18.07 642.393 18.07C641.683 18.07 641.163 17.37 641.163 16.32C641.163 15.27 641.683 14.56 642.393 14.56C643.153 14.56 643.653 15.23 643.653 16.31ZM647.245 16.69H651.215C651.275 14.79 650.235 13.5 648.575 13.5C646.985 13.5 645.875 14.69 645.875 16.29C645.875 17.84 646.885 19.13 648.615 19.13C650.075 19.13 650.865 18.24 651.155 17.44H649.735C649.455 17.91 649.025 18.06 648.605 18.06C647.955 18.06 647.315 17.61 647.245 16.69ZM647.265 15.74C647.375 14.84 648.045 14.51 648.565 14.51C649.145 14.51 649.785 14.83 649.815 15.74H647.265ZM653.484 14.33V13.62H652.104V19H653.484V16.2C653.484 15.35 653.684 14.61 654.594 14.61C655.374 14.61 655.524 15.21 655.524 15.91V19H656.904V15.61C656.904 14.29 656.334 13.5 655.044 13.5C654.384 13.5 653.794 13.79 653.484 14.33ZM658.251 12.16V13.62H657.491V14.57H658.251V17.55C658.251 18.62 658.491 19 659.721 19H660.731V18.01H660.311C659.821 18.01 659.631 17.9 659.631 17.35V14.57H660.751V13.62H659.631V12.16H658.251ZM664.666 15.24H665.956C665.776 14 664.706 13.48 663.586 13.48C662.426 13.48 661.386 14.11 661.386 15.08C661.386 16.06 662.056 16.48 663.066 16.69L663.866 16.86C664.326 16.96 664.746 17.12 664.746 17.52C664.746 17.91 664.366 18.13 663.776 18.13C663.066 18.13 662.696 17.74 662.616 17.22H661.286C661.416 18.45 662.416 19.13 663.736 19.13C664.956 19.13 666.066 18.47 666.066 17.39C666.066 16.28 665.156 16.01 664.086 15.77L663.366 15.61C662.856 15.5 662.646 15.28 662.646 14.99C662.646 14.66 663.006 14.47 663.516 14.47C664.146 14.47 664.566 14.79 664.666 15.24Z" fill="black"/>
<path d="M449.8 19H450.71V11.75H450.09C449.69 12.54 449.16 12.67 448.12 12.71V13.33H449.8V19ZM457.002 13.52C457.002 12.3 456.042 11.62 454.702 11.62C453.162 11.62 452.162 12.57 452.182 14.01H453.122C453.142 12.81 453.902 12.38 454.682 12.38C455.542 12.38 456.042 12.89 456.042 13.64C456.042 14.92 454.542 16.29 451.982 18.18V19H457.202V18.15H453.222C455.252 16.69 457.002 15.2 457.002 13.52ZM460.88 19.13C462.81 19.13 463.7 17.67 463.7 15.37C463.7 13.08 462.81 11.62 460.88 11.62C458.95 11.62 458.06 13.08 458.06 15.37C458.06 17.67 458.95 19.13 460.88 19.13ZM460.88 12.38C462.02 12.38 462.73 13.36 462.73 15.37C462.73 17.39 462.02 18.37 460.88 18.37C459.74 18.37 459.03 17.39 459.03 15.37C459.03 13.36 459.74 12.38 460.88 12.38ZM464.841 11.75V12.9H465.331L464.801 14.29H465.381L465.991 12.98V11.75H464.841ZM469.943 19.13C471.873 19.13 472.763 17.67 472.763 15.37C472.763 13.08 471.873 11.62 469.943 11.62C468.013 11.62 467.123 13.08 467.123 15.37C467.123 17.67 468.013 19.13 469.943 19.13ZM469.943 12.38C471.083 12.38 471.793 13.36 471.793 15.37C471.793 17.39 471.083 18.37 469.943 18.37C468.803 18.37 468.093 17.39 468.093 15.37C468.093 13.36 468.803 12.38 469.943 12.38ZM476.554 19.13C478.484 19.13 479.374 17.67 479.374 15.37C479.374 13.08 478.484 11.62 476.554 11.62C474.624 11.62 473.734 13.08 473.734 15.37C473.734 17.67 474.624 19.13 476.554 19.13ZM476.554 12.38C477.694 12.38 478.404 13.36 478.404 15.37C478.404 17.39 477.694 18.37 476.554 18.37C475.414 18.37 474.704 17.39 474.704 15.37C474.704 13.36 475.414 12.38 476.554 12.38ZM483.165 19.13C485.095 19.13 485.985 17.67 485.985 15.37C485.985 13.08 485.095 11.62 483.165 11.62C481.235 11.62 480.345 13.08 480.345 15.37C480.345 17.67 481.235 19.13 483.165 19.13ZM483.165 12.38C484.305 12.38 485.015 13.36 485.015 15.37C485.015 17.39 484.305 18.37 483.165 18.37C482.025 18.37 481.315 17.39 481.315 15.37C481.315 13.36 482.025 12.38 483.165 12.38Z" fill="black"/>
<path d="M408.8 46.75H406.65V54H408.8C411.1 54 412.83 53.25 412.83 50.37C412.83 47.5 411.1 46.75 408.8 46.75ZM408.74 47.87C410.06 47.87 411.35 48.2 411.35 50.37C411.35 52.55 410.06 52.88 408.74 52.88H408.08V47.87H408.74ZM415.188 46.75H413.808V48.03H415.188V46.75ZM415.188 48.62H413.808V54H415.188V48.62ZM418.145 54.13C418.955 54.13 419.525 53.89 419.905 53.33C419.925 53.59 419.955 53.83 419.995 54H421.265C421.165 53.55 421.105 53.07 421.105 52.22C421.105 51.73 421.125 51.02 421.125 50.85C421.125 49.03 420.085 48.48 418.805 48.48C417.425 48.48 416.545 49.26 416.445 50.32H417.735C417.765 49.73 418.205 49.45 418.735 49.45C419.295 49.45 419.745 49.74 419.745 50.57V50.66C417.635 50.9 416.205 51.28 416.205 52.55C416.205 53.53 417.115 54.13 418.145 54.13ZM419.785 51.54V51.94C419.785 52.72 419.415 53.19 418.555 53.19C417.935 53.19 417.625 52.87 417.625 52.48C417.625 51.88 418.245 51.7 419.785 51.54ZM422.274 54H423.654V53.32C423.994 53.91 424.644 54.13 425.204 54.13C426.484 54.13 427.544 53.03 427.544 51.31C427.544 49.62 426.504 48.5 425.204 48.5C424.524 48.5 423.944 48.81 423.654 49.31V46.75H422.274V54ZM426.094 51.32C426.094 52.37 425.574 53.07 424.864 53.07C424.104 53.07 423.604 52.41 423.604 51.31C423.604 50.23 424.104 49.56 424.864 49.56C425.574 49.56 426.094 50.27 426.094 51.32ZM429.535 51.69H433.505C433.565 49.79 432.525 48.5 430.865 48.5C429.275 48.5 428.165 49.69 428.165 51.29C428.165 52.84 429.175 54.13 430.905 54.13C432.365 54.13 433.155 53.24 433.445 52.44H432.025C431.745 52.91 431.315 53.06 430.895 53.06C430.245 53.06 429.605 52.61 429.535 51.69ZM429.555 50.74C429.665 49.84 430.335 49.51 430.855 49.51C431.435 49.51 432.075 49.83 432.105 50.74H429.555ZM434.583 47.16V48.62H433.823V49.57H434.583V52.55C434.583 53.62 434.823 54 436.053 54H437.063V53.01H436.643C436.153 53.01 435.963 52.9 435.963 52.35V49.57H437.083V48.62H435.963V47.16H434.583ZM438.988 51.69H442.958C443.018 49.79 441.978 48.5 440.318 48.5C438.728 48.5 437.618 49.69 437.618 51.29C437.618 52.84 438.628 54.13 440.358 54.13C441.818 54.13 442.608 53.24 442.898 52.44H441.478C441.198 52.91 440.768 53.06 440.348 53.06C439.698 53.06 439.058 52.61 438.988 51.69ZM439.008 50.74C439.118 49.84 439.788 49.51 440.308 49.51C440.888 49.51 441.528 49.83 441.558 50.74H439.008ZM446.925 50.24H448.215C448.035 49 446.965 48.48 445.845 48.48C444.685 48.48 443.645 49.11 443.645 50.08C443.645 51.06 444.315 51.48 445.325 51.69L446.125 51.86C446.585 51.96 447.005 52.12 447.005 52.52C447.005 52.91 446.625 53.13 446.035 53.13C445.325 53.13 444.955 52.74 444.875 52.22H443.545C443.675 53.45 444.675 54.13 445.995 54.13C447.215 54.13 448.325 53.47 448.325 52.39C448.325 51.28 447.415 51.01 446.345 50.77L445.625 50.61C445.115 50.5 444.905 50.28 444.905 49.99C444.905 49.66 445.265 49.47 445.775 49.47C446.405 49.47 446.825 49.79 446.925 50.24Z" fill="black"/>
<path d="M408.8 72H409.71V64.75H409.09C408.69 65.54 408.16 65.67 407.12 65.71V66.33H408.8V72ZM411.332 64.75V65.9H411.822L411.292 67.29H411.872L412.482 65.98V64.75H411.332ZM417.47 69.62C417.47 70.74 416.72 71.37 415.85 71.37C414.84 71.37 414.35 70.81 414.21 69.9H413.27C413.41 71.07 414.17 72.13 415.85 72.13C417.2 72.13 418.43 71.27 418.43 69.61C418.43 68.01 417.32 67.11 416.05 67.11C415.45 67.11 414.87 67.29 414.49 67.66L414.74 65.6H418.16V64.75H414L413.53 68.65L414.44 68.7C414.6 68.34 415.09 67.9 415.84 67.9C416.63 67.9 417.47 68.42 417.47 69.62ZM422.204 72.13C424.134 72.13 425.024 70.67 425.024 68.37C425.024 66.08 424.134 64.62 422.204 64.62C420.274 64.62 419.384 66.08 419.384 68.37C419.384 70.67 420.274 72.13 422.204 72.13ZM422.204 65.38C423.344 65.38 424.054 66.36 424.054 68.37C424.054 70.39 423.344 71.37 422.204 71.37C421.064 71.37 420.354 70.39 420.354 68.37C420.354 66.36 421.064 65.38 422.204 65.38ZM428.816 72.13C430.746 72.13 431.636 70.67 431.636 68.37C431.636 66.08 430.746 64.62 428.816 64.62C426.886 64.62 425.996 66.08 425.996 68.37C425.996 70.67 426.886 72.13 428.816 72.13ZM428.816 65.38C429.956 65.38 430.666 66.36 430.666 68.37C430.666 70.39 429.956 71.37 428.816 71.37C427.676 71.37 426.966 70.39 426.966 68.37C426.966 66.36 427.676 65.38 428.816 65.38ZM432.777 64.75V65.9H433.267L432.737 67.29H433.317L433.927 65.98V64.75H432.777ZM437.878 72.13C439.808 72.13 440.698 70.67 440.698 68.37C440.698 66.08 439.808 64.62 437.878 64.62C435.948 64.62 435.058 66.08 435.058 68.37C435.058 70.67 435.948 72.13 437.878 72.13ZM437.878 65.38C439.018 65.38 439.728 66.36 439.728 68.37C439.728 70.39 439.018 71.37 437.878 71.37C436.738 71.37 436.028 70.39 436.028 68.37C436.028 66.36 436.738 65.38 437.878 65.38ZM444.489 72.13C446.419 72.13 447.309 70.67 447.309 68.37C447.309 66.08 446.419 64.62 444.489 64.62C442.559 64.62 441.669 66.08 441.669 68.37C441.669 70.67 442.559 72.13 444.489 72.13ZM444.489 65.38C445.629 65.38 446.339 66.36 446.339 68.37C446.339 70.39 445.629 71.37 444.489 71.37C443.349 71.37 442.639 70.39 442.639 68.37C442.639 66.36 443.349 65.38 444.489 65.38ZM451.101 72.13C453.031 72.13 453.921 70.67 453.921 68.37C453.921 66.08 453.031 64.62 451.101 64.62C449.171 64.62 448.281 66.08 448.281 68.37C448.281 70.67 449.171 72.13 451.101 72.13ZM451.101 65.38C452.241 65.38 452.951 66.36 452.951 68.37C452.951 70.39 452.241 71.37 451.101 71.37C449.961 71.37 449.251 70.39 449.251 68.37C449.251 66.36 449.961 65.38 451.101 65.38Z" fill="black"/>
<path d="M23.93 16.62L22.57 16.62C22.34 17.6 21.63 17.99 20.77 17.99C19.72 17.99 18.88 17.07 18.88 15.34C18.88 13.66 19.72 12.76 20.82 12.76C21.62 12.76 22.3 13.09 22.57 14.1L23.93 14.1C23.69 12.59 22.53 11.62 20.83 11.62C18.72 11.62 17.4 13.05 17.4 15.34C17.4 17.65 18.64 19.13 20.79 19.13C22.53 19.13 23.74 18.08 23.93 16.62ZM26.4787 19.13C27.2887 19.13 27.8587 18.89 28.2387 18.33C28.2587 18.59 28.2887 18.83 28.3287 19L29.5987 19C29.4987 18.55 29.4387 18.07 29.4387 17.22C29.4387 16.73 29.4587 16.02 29.4587 15.85C29.4587 14.03 28.4187 13.48 27.1387 13.48C25.7587 13.48 24.8787 14.26 24.7787 15.32L26.0687 15.32C26.0987 14.73 26.5387 14.45 27.0687 14.45C27.6287 14.45 28.0787 14.74 28.0787 15.57V15.66C25.9687 15.9 24.5387 16.28 24.5387 17.55C24.5387 18.53 25.4487 19.13 26.4787 19.13ZM28.1187 16.54V16.94C28.1187 17.72 27.7487 18.19 26.8887 18.19C26.2687 18.19 25.9587 17.87 25.9587 17.48C25.9587 16.88 26.5787 16.7 28.1187 16.54ZM31.9883 14.33L31.9883 13.62L30.6083 13.62L30.6083 19H31.9883L31.9883 16.2C31.9883 15.35 32.1883 14.61 33.0983 14.61C33.8783 14.61 34.0283 15.21 34.0283 15.91V19H35.4083V15.61C35.4083 14.29 34.8383 13.5 33.5483 13.5C32.8883 13.5 32.2983 13.79 31.9883 14.33ZM41.3553 15.46C41.1753 14.12 40.0353 13.5 38.9153 13.5C37.3053 13.5 36.2153 14.68 36.2153 16.32C36.2153 17.94 37.2453 19.13 38.8553 19.13C39.9653 19.13 41.0853 18.64 41.4053 17.17L40.0853 17.17C39.9053 17.82 39.3953 18.06 38.9253 18.06C38.1653 18.06 37.6253 17.43 37.6253 16.3C37.6253 15.18 38.1953 14.57 38.9153 14.57C39.4353 14.57 39.9353 14.95 40.0353 15.46L41.3553 15.46ZM43.2982 16.69L47.2682 16.69C47.3282 14.79 46.2882 13.5 44.6282 13.5C43.0382 13.5 41.9282 14.69 41.9282 16.29C41.9282 17.84 42.9382 19.13 44.6682 19.13C46.1282 19.13 46.9182 18.24 47.2082 17.44L45.7882 17.44C45.5082 17.91 45.0782 18.06 44.6582 18.06C44.0082 18.06 43.3682 17.61 43.2982 16.69ZM43.3182 15.74C43.4282 14.84 44.0982 14.51 44.6182 14.51C45.1982 14.51 45.8382 14.83 45.8682 15.74L43.3182 15.74ZM51.2371 14.95L51.2371 13.65C51.1471 13.64 51.0271 13.63 50.9371 13.63C50.3171 13.63 49.8271 13.9 49.5171 14.56V13.62L48.1571 13.62L48.1571 19H49.5371L49.5371 16.18C49.5371 15.17 49.9871 14.92 50.6671 14.92C50.8671 14.92 51.0371 14.93 51.2371 14.95Z" fill="black"/>
<path d="M22.55 30.47C22.55 29.4 21.61 28.62 20.13 28.62C18.64 28.62 17.71 29.4 17.71 30.47C17.71 31.06 17.99 31.75 18.71 32.14C17.76 32.52 17.48 33.3 17.48 33.96C17.48 35.34 18.63 36.13 20.13 36.13C21.62 36.13 22.77 35.34 22.77 33.96C22.77 33.3 22.49 32.52 21.55 32.14C22.27 31.75 22.55 31.06 22.55 30.47ZM20.13 29.38C21.03 29.38 21.63 29.86 21.63 30.58C21.63 31.31 21.03 31.85 20.13 31.85C19.22 31.85 18.62 31.31 18.62 30.58C18.62 29.86 19.22 29.38 20.13 29.38ZM18.45 33.96C18.45 33.11 19.1 32.52 20.13 32.52C21.15 32.52 21.81 33.11 21.81 33.96C21.81 34.81 21.15 35.37 20.13 35.37C19.1 35.37 18.45 34.81 18.45 33.96ZM23.7145 28.75V29.9H24.2045L23.6745 31.29H24.2545L24.8645 29.98V28.75L23.7145 28.75ZM30.8356 30.52C30.8356 29.3 29.8756 28.62 28.5356 28.62C26.9956 28.62 25.9956 29.57 26.0156 31.01H26.9556C26.9756 29.81 27.7356 29.38 28.5156 29.38C29.3756 29.38 29.8756 29.89 29.8756 30.64C29.8756 31.92 28.3756 33.29 25.8156 35.18V36L31.0356 36V35.15L27.0556 35.15C29.0856 33.69 30.8356 32.2 30.8356 30.52ZM34.7141 36.13C36.6441 36.13 37.5341 34.67 37.5341 32.37C37.5341 30.08 36.6441 28.62 34.7141 28.62C32.7841 28.62 31.8941 30.08 31.8941 32.37C31.8941 34.67 32.7841 36.13 34.7141 36.13ZM34.7141 29.38C35.8541 29.38 36.5641 30.36 36.5641 32.37C36.5641 34.39 35.8541 35.37 34.7141 35.37C33.5741 35.37 32.8641 34.39 32.8641 32.37C32.8641 30.36 33.5741 29.38 34.7141 29.38ZM41.3254 36.13C43.2554 36.13 44.1454 34.67 44.1454 32.37C44.1454 30.08 43.2554 28.62 41.3254 28.62C39.3954 28.62 38.5054 30.08 38.5054 32.37C38.5054 34.67 39.3954 36.13 41.3254 36.13ZM41.3254 29.38C42.4654 29.38 43.1754 30.36 43.1754 32.37C43.1754 34.39 42.4654 35.37 41.3254 35.37C40.1854 35.37 39.4754 34.39 39.4754 32.37C39.4754 30.36 40.1854 29.38 41.3254 29.38ZM45.2867 28.75L45.2867 29.9H45.7767L45.2467 31.29L45.8267 31.29L46.4367 29.98L46.4367 28.75H45.2867ZM50.3879 36.13C52.3179 36.13 53.2079 34.67 53.2079 32.37C53.2079 30.08 52.3179 28.62 50.3879 28.62C48.4579 28.62 47.5679 30.08 47.5679 32.37C47.5679 34.67 48.4579 36.13 50.3879 36.13ZM50.3879 29.38C51.5279 29.38 52.2379 30.36 52.2379 32.37C52.2379 34.39 51.5279 35.37 50.3879 35.37C49.2479 35.37 48.5379 34.39 48.5379 32.37C48.5379 30.36 49.2479 29.38 50.3879 29.38ZM56.9992 36.13C58.9292 36.13 59.8192 34.67 59.8192 32.37C59.8192 30.08 58.9292 28.62 56.9992 28.62C55.0692 28.62 54.1792 30.08 54.1792 32.37C54.1792 34.67 55.0692 36.13 56.9992 36.13ZM56.9992 29.38C58.1392 29.38 58.8492 30.36 58.8492 32.37C58.8492 34.39 58.1392 35.37 56.9992 35.37C55.8592 35.37 55.1492 34.39 55.1492 32.37C55.1492 30.36 55.8592 29.38 56.9992 29.38ZM63.6105 36.13C65.5405 36.13 66.4305 34.67 66.4305 32.37C66.4305 30.08 65.5405 28.62 63.6105 28.62C61.6805 28.62 60.7905 30.08 60.7905 32.37C60.7905 34.67 61.6805 36.13 63.6105 36.13ZM63.6105 29.38C64.7505 29.38 65.4605 30.36 65.4605 32.37C65.4605 34.39 64.7505 35.37 63.6105 35.37C62.4705 35.37 61.7605 34.39 61.7605 32.37C61.7605 30.36 62.4705 29.38 63.6105 29.38Z" fill="black"/>
<path d="M409.77 731H411.19L412.97 725.55V731H414.3V723.75H412.2L410.49 729.4L408.73 723.75H406.65V731H407.98V725.55L409.77 731ZM416.585 728.69H420.555C420.615 726.79 419.575 725.5 417.915 725.5C416.325 725.5 415.215 726.69 415.215 728.29C415.215 729.84 416.225 731.13 417.955 731.13C419.415 731.13 420.205 730.24 420.495 729.44H419.075C418.795 729.91 418.365 730.06 417.945 730.06C417.295 730.06 416.655 729.61 416.585 728.69ZM416.605 727.74C416.715 726.84 417.385 726.51 417.905 726.51C418.485 726.51 419.125 726.83 419.155 727.74H416.605ZM423.164 731.13C423.974 731.13 424.544 730.89 424.924 730.33C424.944 730.59 424.974 730.83 425.014 731H426.284C426.184 730.55 426.124 730.07 426.124 729.22C426.124 728.73 426.144 728.02 426.144 727.85C426.144 726.03 425.104 725.48 423.824 725.48C422.444 725.48 421.564 726.26 421.464 727.32H422.754C422.784 726.73 423.224 726.45 423.754 726.45C424.314 726.45 424.764 726.74 424.764 727.57V727.66C422.654 727.9 421.224 728.28 421.224 729.55C421.224 730.53 422.134 731.13 423.164 731.13ZM424.804 728.54V728.94C424.804 729.72 424.434 730.19 423.574 730.19C422.954 730.19 422.644 729.87 422.644 729.48C422.644 728.88 423.264 728.7 424.804 728.54ZM430.324 727.24H431.614C431.434 726 430.364 725.48 429.244 725.48C428.084 725.48 427.044 726.11 427.044 727.08C427.044 728.06 427.714 728.48 428.724 728.69L429.524 728.86C429.984 728.96 430.404 729.12 430.404 729.52C430.404 729.91 430.024 730.13 429.434 730.13C428.724 730.13 428.354 729.74 428.274 729.22H426.944C427.074 730.45 428.074 731.13 429.394 731.13C430.614 731.13 431.724 730.47 431.724 729.39C431.724 728.28 430.814 728.01 429.744 727.77L429.024 727.61C428.514 727.5 428.304 727.28 428.304 726.99C428.304 726.66 428.664 726.47 429.174 726.47C429.804 726.47 430.224 726.79 430.324 727.24ZM433.967 731V723.75H432.587V731H433.967ZM436.224 728.69H440.194C440.254 726.79 439.214 725.5 437.554 725.5C435.964 725.5 434.854 726.69 434.854 728.29C434.854 729.84 435.864 731.13 437.594 731.13C439.054 731.13 439.844 730.24 440.134 729.44H438.714C438.434 729.91 438.004 730.06 437.584 730.06C436.934 730.06 436.294 729.61 436.224 728.69ZM436.244 727.74C436.354 726.84 437.024 726.51 437.544 726.51C438.124 726.51 438.764 726.83 438.794 727.74H436.244ZM444.162 727.24H445.452C445.272 726 444.202 725.48 443.082 725.48C441.922 725.48 440.882 726.11 440.882 727.08C440.882 728.06 441.552 728.48 442.562 728.69L443.362 728.86C443.822 728.96 444.242 729.12 444.242 729.52C444.242 729.91 443.862 730.13 443.272 730.13C442.562 730.13 442.192 729.74 442.112 729.22H440.782C440.912 730.45 441.912 731.13 443.232 731.13C444.452 731.13 445.562 730.47 445.562 729.39C445.562 728.28 444.652 728.01 443.582 727.77L442.862 727.61C442.352 727.5 442.142 727.28 442.142 726.99C442.142 726.66 442.502 726.47 443.012 726.47C443.642 726.47 444.062 726.79 444.162 727.24Z" fill="black"/>
<path d="M455.8 731H456.71V723.75H456.09C455.69 724.54 455.16 724.67 454.12 724.71V725.33H455.8V731ZM462.142 728.97C462.142 729.87 461.462 730.37 460.502 730.37C459.482 730.37 458.952 729.75 458.852 728.86H457.912C458.012 730.07 458.792 731.13 460.492 731.13C461.872 731.13 463.112 730.42 463.112 728.96C463.112 728.2 462.812 727.48 461.732 727.14C462.492 726.83 462.912 726.2 462.912 725.46C462.912 724.12 461.822 723.62 460.562 723.62C459.042 723.62 458.132 724.51 458.022 725.79H458.962C459.042 724.97 459.572 724.38 460.542 724.38C461.312 724.38 461.952 724.78 461.952 725.56C461.952 726.41 461.282 726.76 460.022 726.76H459.902V727.59H460.052C461.212 727.59 462.142 727.93 462.142 728.97ZM466.851 731.13C468.781 731.13 469.671 729.67 469.671 727.37C469.671 725.08 468.781 723.62 466.851 723.62C464.921 723.62 464.031 725.08 464.031 727.37C464.031 729.67 464.921 731.13 466.851 731.13ZM466.851 724.38C467.991 724.38 468.701 725.36 468.701 727.37C468.701 729.39 467.991 730.37 466.851 730.37C465.711 730.37 465.001 729.39 465.001 727.37C465.001 725.36 465.711 724.38 466.851 724.38ZM470.812 723.75V724.9H471.302L470.772 726.29H471.352L471.962 724.98V723.75H470.812ZM475.913 731.13C477.843 731.13 478.733 729.67 478.733 727.37C478.733 725.08 477.843 723.62 475.913 723.62C473.983 723.62 473.093 725.08 473.093 727.37C473.093 729.67 473.983 731.13 475.913 731.13ZM475.913 724.38C477.053 724.38 477.763 725.36 477.763 727.37C477.763 729.39 477.053 730.37 475.913 730.37C474.773 730.37 474.063 729.39 474.063 727.37C474.063 725.36 474.773 724.38 475.913 724.38ZM482.525 731.13C484.455 731.13 485.345 729.67 485.345 727.37C485.345 725.08 484.455 723.62 482.525 723.62C480.595 723.62 479.705 725.08 479.705 727.37C479.705 729.67 480.595 731.13 482.525 731.13ZM482.525 724.38C483.665 724.38 484.375 725.36 484.375 727.37C484.375 729.39 483.665 730.37 482.525 730.37C481.385 730.37 480.675 729.39 480.675 727.37C480.675 725.36 481.385 724.38 482.525 724.38ZM489.136 731.13C491.066 731.13 491.956 729.67 491.956 727.37C491.956 725.08 491.066 723.62 489.136 723.62C487.206 723.62 486.316 725.08 486.316 727.37C486.316 729.67 487.206 731.13 489.136 731.13ZM489.136 724.38C490.276 724.38 490.986 725.36 490.986 727.37C490.986 729.39 490.276 730.37 489.136 730.37C487.996 730.37 487.286 729.39 487.286 727.37C487.286 725.36 487.996 724.38 489.136 724.38Z" fill="black"/>
<path d="M408.8 402.75H406.65V410H408.8C411.1 410 412.83 409.25 412.83 406.37C412.83 403.5 411.1 402.75 408.8 402.75ZM408.74 403.87C410.06 403.87 411.35 404.2 411.35 406.37C411.35 408.55 410.06 408.88 408.74 408.88H408.08V403.87H408.74ZM415.188 402.75H413.808V404.03H415.188V402.75ZM415.188 404.62H413.808V410H415.188V404.62ZM418.145 410.13C418.955 410.13 419.525 409.89 419.905 409.33C419.925 409.59 419.955 409.83 419.995 410H421.265C421.165 409.55 421.105 409.07 421.105 408.22C421.105 407.73 421.125 407.02 421.125 406.85C421.125 405.03 420.085 404.48 418.805 404.48C417.425 404.48 416.545 405.26 416.445 406.32H417.735C417.765 405.73 418.205 405.45 418.735 405.45C419.295 405.45 419.745 405.74 419.745 406.57V406.66C417.635 406.9 416.205 407.28 416.205 408.55C416.205 409.53 417.115 410.13 418.145 410.13ZM419.785 407.54V407.94C419.785 408.72 419.415 409.19 418.555 409.19C417.935 409.19 417.625 408.87 417.625 408.48C417.625 407.88 418.245 407.7 419.785 407.54ZM425.354 405.95V404.65C425.264 404.64 425.144 404.63 425.054 404.63C424.434 404.63 423.944 404.9 423.634 405.56V404.62H422.274V410H423.654V407.18C423.654 406.17 424.104 405.92 424.784 405.92C424.984 405.92 425.154 405.93 425.354 405.95ZM429.143 405.95V404.65C429.053 404.64 428.933 404.63 428.843 404.63C428.223 404.63 427.733 404.9 427.423 405.56V404.62H426.063V410H427.443V407.18C427.443 406.17 427.893 405.92 428.573 405.92C428.773 405.92 428.943 405.93 429.143 405.95ZM431.232 405.33V402.75H429.852V410H431.232V407.2C431.232 406.35 431.432 405.61 432.342 405.61C433.122 405.61 433.272 406.21 433.272 406.91V410H434.652V406.61C434.652 405.29 434.082 404.5 432.792 404.5C432.132 404.5 431.542 404.79 431.232 405.33ZM436.829 407.69H440.799C440.859 405.79 439.819 404.5 438.159 404.5C436.569 404.5 435.459 405.69 435.459 407.29C435.459 408.84 436.469 410.13 438.199 410.13C439.659 410.13 440.449 409.24 440.739 408.44H439.319C439.039 408.91 438.609 409.06 438.189 409.06C437.539 409.06 436.899 408.61 436.829 407.69ZM436.849 406.74C436.959 405.84 437.629 405.51 438.149 405.51C438.729 405.51 439.369 405.83 439.399 406.74H436.849ZM443.408 410.13C444.218 410.13 444.788 409.89 445.168 409.33C445.188 409.59 445.218 409.83 445.258 410H446.528C446.428 409.55 446.368 409.07 446.368 408.22C446.368 407.73 446.388 407.02 446.388 406.85C446.388 405.03 445.348 404.48 444.068 404.48C442.688 404.48 441.808 405.26 441.708 406.32H442.998C443.028 405.73 443.468 405.45 443.998 405.45C444.558 405.45 445.008 405.74 445.008 406.57V406.66C442.898 406.9 441.468 407.28 441.468 408.55C441.468 409.53 442.378 410.13 443.408 410.13ZM445.048 407.54V407.94C445.048 408.72 444.678 409.19 443.818 409.19C443.198 409.19 442.888 408.87 442.888 408.48C442.888 407.88 443.508 407.7 445.048 407.54ZM448.918 410V402.75H447.538V410H448.918ZM454.591 402.75H452.441V410H454.591C456.891 410 458.621 409.25 458.621 406.37C458.621 403.5 456.891 402.75 454.591 402.75ZM454.531 403.87C455.851 403.87 457.141 404.2 457.141 406.37C457.141 408.55 455.851 408.88 454.531 408.88H453.871V403.87H454.531ZM460.979 402.75H459.599V404.03H460.979V402.75ZM460.979 404.62H459.599V410H460.979V404.62ZM465.246 406.24H466.536C466.356 405 465.286 404.48 464.166 404.48C463.006 404.48 461.966 405.11 461.966 406.08C461.966 407.06 462.636 407.48 463.646 407.69L464.446 407.86C464.906 407.96 465.326 408.12 465.326 408.52C465.326 408.91 464.946 409.13 464.356 409.13C463.646 409.13 463.276 408.74 463.196 408.22H461.866C461.996 409.45 462.996 410.13 464.316 410.13C465.536 410.13 466.646 409.47 466.646 408.39C466.646 407.28 465.736 407.01 464.666 406.77L463.946 406.61C463.436 406.5 463.226 406.28 463.226 405.99C463.226 405.66 463.586 405.47 464.096 405.47C464.726 405.47 465.146 405.79 465.246 406.24ZM468.578 407.69H472.548C472.608 405.79 471.568 404.5 469.908 404.5C468.318 404.5 467.208 405.69 467.208 407.29C467.208 408.84 468.218 410.13 469.948 410.13C471.408 410.13 472.198 409.24 472.488 408.44H471.068C470.788 408.91 470.358 409.06 469.938 409.06C469.288 409.06 468.648 408.61 468.578 407.69ZM468.598 406.74C468.708 405.84 469.378 405.51 469.898 405.51C470.478 405.51 471.118 405.83 471.148 406.74H468.598ZM475.156 410.13C475.966 410.13 476.536 409.89 476.916 409.33C476.936 409.59 476.966 409.83 477.006 410H478.276C478.176 409.55 478.116 409.07 478.116 408.22C478.116 407.73 478.136 407.02 478.136 406.85C478.136 405.03 477.096 404.48 475.816 404.48C474.436 404.48 473.556 405.26 473.456 406.32H474.746C474.776 405.73 475.216 405.45 475.746 405.45C476.306 405.45 476.756 405.74 476.756 406.57V406.66C474.646 406.9 473.216 407.28 473.216 408.55C473.216 409.53 474.126 410.13 475.156 410.13ZM476.796 407.54V407.94C476.796 408.72 476.426 409.19 475.566 409.19C474.946 409.19 474.636 408.87 474.636 408.48C474.636 407.88 475.256 407.7 476.796 407.54ZM482.316 406.24H483.606C483.426 405 482.356 404.48 481.236 404.48C480.076 404.48 479.036 405.11 479.036 406.08C479.036 407.06 479.706 407.48 480.716 407.69L481.516 407.86C481.976 407.96 482.396 408.12 482.396 408.52C482.396 408.91 482.016 409.13 481.426 409.13C480.716 409.13 480.346 408.74 480.266 408.22H478.936C479.066 409.45 480.066 410.13 481.386 410.13C482.606 410.13 483.716 409.47 483.716 408.39C483.716 407.28 482.806 407.01 481.736 406.77L481.016 406.61C480.506 406.5 480.296 406.28 480.296 405.99C480.296 405.66 480.656 405.47 481.166 405.47C481.796 405.47 482.216 405.79 482.316 406.24ZM485.648 407.69H489.618C489.678 405.79 488.638 404.5 486.978 404.5C485.388 404.5 484.278 405.69 484.278 407.29C484.278 408.84 485.288 410.13 487.018 410.13C488.478 410.13 489.268 409.24 489.558 408.44H488.138C487.858 408.91 487.428 409.06 487.008 409.06C486.358 409.06 485.718 408.61 485.648 407.69ZM485.668 406.74C485.778 405.84 486.448 405.51 486.968 405.51C487.548 405.51 488.188 405.83 488.218 406.74H485.668Z" fill="black"/>
<path d="M407.8 428H408.71V420.75H408.09C407.69 421.54 407.16 421.67 406.12 421.71V422.33H407.8V428ZM410.332 420.75V421.9H410.822L410.292 423.29H410.872L411.482 421.98V420.75H410.332ZM417.254 426.21V425.35H415.924V420.75H414.994L411.404 425.35V426.21H415.004V428H415.924V426.21H417.254ZM412.414 425.35L415.004 422V425.35H412.414ZM420.775 428.13C422.705 428.13 423.595 426.67 423.595 424.37C423.595 422.08 422.705 420.62 420.775 420.62C418.845 420.62 417.955 422.08 417.955 424.37C417.955 426.67 418.845 428.13 420.775 428.13ZM420.775 421.38C421.915 421.38 422.625 422.36 422.625 424.37C422.625 426.39 421.915 427.37 420.775 427.37C419.635 427.37 418.925 426.39 418.925 424.37C418.925 422.36 419.635 421.38 420.775 421.38ZM427.386 428.13C429.316 428.13 430.206 426.67 430.206 424.37C430.206 422.08 429.316 420.62 427.386 420.62C425.456 420.62 424.566 422.08 424.566 424.37C424.566 426.67 425.456 428.13 427.386 428.13ZM427.386 421.38C428.526 421.38 429.236 422.36 429.236 424.37C429.236 426.39 428.526 427.37 427.386 427.37C426.246 427.37 425.536 426.39 425.536 424.37C425.536 422.36 426.246 421.38 427.386 421.38ZM431.347 420.75V421.9H431.837L431.307 423.29H431.887L432.497 421.98V420.75H431.347ZM436.448 428.13C438.378 428.13 439.268 426.67 439.268 424.37C439.268 422.08 438.378 420.62 436.448 420.62C434.518 420.62 433.628 422.08 433.628 424.37C433.628 426.67 434.518 428.13 436.448 428.13ZM436.448 421.38C437.588 421.38 438.298 422.36 438.298 424.37C438.298 426.39 437.588 427.37 436.448 427.37C435.308 427.37 434.598 426.39 434.598 424.37C434.598 422.36 435.308 421.38 436.448 421.38ZM443.06 428.13C444.99 428.13 445.88 426.67 445.88 424.37C445.88 422.08 444.99 420.62 443.06 420.62C441.13 420.62 440.24 422.08 440.24 424.37C440.24 426.67 441.13 428.13 443.06 428.13ZM443.06 421.38C444.2 421.38 444.91 422.36 444.91 424.37C444.91 426.39 444.2 427.37 443.06 427.37C441.92 427.37 441.21 426.39 441.21 424.37C441.21 422.36 441.92 421.38 443.06 421.38ZM449.671 428.13C451.601 428.13 452.491 426.67 452.491 424.37C452.491 422.08 451.601 420.62 449.671 420.62C447.741 420.62 446.851 422.08 446.851 424.37C446.851 426.67 447.741 428.13 449.671 428.13ZM449.671 421.38C450.811 421.38 451.521 422.36 451.521 424.37C451.521 426.39 450.811 427.37 449.671 427.37C448.531 427.37 447.821 426.39 447.821 424.37C447.821 422.36 448.531 421.38 449.671 421.38Z" fill="black"/>
<path d="M1048.91 68.72H1055V67.29H1048.91V65.05H1047.75V70.95H1048.91V68.72ZM1052.69 64.4186V60.4486C1050.79 60.3886 1049.5 61.4286 1049.5 63.0886C1049.5 64.6786 1050.69 65.7886 1052.29 65.7886C1053.84 65.7886 1055.13 64.7786 1055.13 63.0486C1055.13 61.5886 1054.24 60.7986 1053.44 60.5086V61.9286C1053.91 62.2086 1054.06 62.6386 1054.06 63.0586C1054.06 63.7086 1053.61 64.3486 1052.69 64.4186ZM1051.74 64.3986C1050.84 64.2886 1050.51 63.6186 1050.51 63.0986C1050.51 62.5186 1050.83 61.8786 1051.74 61.8486V64.3986ZM1048.16 59.3697H1049.62V60.1297H1050.57V59.3697H1053.55C1054.62 59.3697 1055 59.1297 1055 57.8997V56.8897H1054.01V57.3097C1054.01 57.7997 1053.9 57.9897 1053.35 57.9897H1050.57V56.8697H1049.62V57.9897H1048.16V59.3697ZM1055.13 54.2655C1055.13 53.4555 1054.89 52.8855 1054.33 52.5055C1054.59 52.4855 1054.83 52.4555 1055 52.4155V51.1455C1054.55 51.2455 1054.07 51.3055 1053.22 51.3055C1052.73 51.3055 1052.02 51.2855 1051.85 51.2855C1050.03 51.2855 1049.48 52.3255 1049.48 53.6055C1049.48 54.9855 1050.26 55.8655 1051.32 55.9655V54.6755C1050.73 54.6455 1050.45 54.2055 1050.45 53.6755C1050.45 53.1155 1050.74 52.6655 1051.57 52.6655H1051.66C1051.9 54.7755 1052.28 56.2055 1053.55 56.2055C1054.53 56.2055 1055.13 55.2955 1055.13 54.2655ZM1052.54 52.6255H1052.94C1053.72 52.6255 1054.19 52.9955 1054.19 53.8555C1054.19 54.4755 1053.87 54.7855 1053.48 54.7855C1052.88 54.7855 1052.7 54.1655 1052.54 52.6255ZM1050.33 48.7559H1049.62V50.1359H1055V48.7559H1052.2C1051.35 48.7559 1050.61 48.5559 1050.61 47.6459C1050.61 46.8659 1051.21 46.7159 1051.91 46.7159H1055V45.3359H1051.61C1050.29 45.3359 1049.5 45.9059 1049.5 47.1959C1049.5 47.8559 1049.79 48.4459 1050.33 48.7559ZM1054.29 40.8688H1055V39.4888H1049.62V40.8688H1052.42C1053.27 40.8688 1054.02 41.0788 1054.02 41.9888C1054.02 42.7688 1053.44 42.8688 1052.72 42.8688H1049.62V44.2488H1053.02C1054.34 44.2488 1055.13 43.7288 1055.13 42.4388C1055.13 41.7788 1054.83 41.1788 1054.29 40.8688ZM1051.24 35.2211V33.9311C1050 34.1111 1049.48 35.1811 1049.48 36.3011C1049.48 37.4611 1050.11 38.5011 1051.08 38.5011C1052.06 38.5011 1052.48 37.8311 1052.69 36.8211L1052.86 36.0211C1052.96 35.5611 1053.12 35.1411 1053.52 35.1411C1053.91 35.1411 1054.13 35.5211 1054.13 36.1111C1054.13 36.8211 1053.74 37.1911 1053.22 37.2711V38.6011C1054.45 38.4711 1055.13 37.4711 1055.13 36.1511C1055.13 34.9311 1054.47 33.8211 1053.39 33.8211C1052.28 33.8211 1052.01 34.7311 1051.77 35.8011L1051.61 36.5211C1051.5 37.0311 1051.28 37.2411 1050.99 37.2411C1050.66 37.2411 1050.47 36.8811 1050.47 36.3711C1050.47 35.7411 1050.79 35.3211 1051.24 35.2211Z" fill="black"/>
<path d="M1063.18 67.58C1061.5 67.53 1060.38 66.92 1060.38 65.8C1060.38 65.06 1060.78 64.56 1061.43 64.44V63.45C1060.51 63.6 1059.62 64.27 1059.62 65.69C1059.62 67.79 1061.58 68.52 1063.63 68.52C1065.87 68.52 1067.13 67.69 1067.13 65.88C1067.13 64.33 1065.98 63.33 1064.63 63.33C1063.18 63.33 1062.17 64.32 1062.17 65.67C1062.17 66.63 1062.61 67.25 1063.18 67.58ZM1066.37 65.89C1066.37 66.85 1065.68 67.47 1064.68 67.47C1063.69 67.47 1062.96 66.83 1062.96 65.88C1062.96 64.95 1063.69 64.3 1064.68 64.3C1065.67 64.3 1066.37 64.96 1066.37 65.89ZM1067.13 59.5477C1067.13 57.6177 1065.67 56.7277 1063.37 56.7277C1061.08 56.7277 1059.62 57.6177 1059.62 59.5477C1059.62 61.4777 1061.08 62.3677 1063.37 62.3677C1065.67 62.3677 1067.13 61.4777 1067.13 59.5477ZM1060.38 59.5477C1060.38 58.4077 1061.36 57.6977 1063.37 57.6977C1065.39 57.6977 1066.37 58.4077 1066.37 59.5477C1066.37 60.6877 1065.39 61.3977 1063.37 61.3977C1061.36 61.3977 1060.38 60.6877 1060.38 59.5477ZM1059.75 55.5863H1060.9V55.0963L1062.29 55.6263V55.0463L1060.98 54.4363H1059.75V55.5863ZM1067.13 50.4852C1067.13 48.5552 1065.67 47.6652 1063.37 47.6652C1061.08 47.6652 1059.62 48.5552 1059.62 50.4852C1059.62 52.4152 1061.08 53.3052 1063.37 53.3052C1065.67 53.3052 1067.13 52.4152 1067.13 50.4852ZM1060.38 50.4852C1060.38 49.3452 1061.36 48.6352 1063.37 48.6352C1065.39 48.6352 1066.37 49.3452 1066.37 50.4852C1066.37 51.6252 1065.39 52.3352 1063.37 52.3352C1061.36 52.3352 1060.38 51.6252 1060.38 50.4852ZM1067.13 43.8738C1067.13 41.9438 1065.67 41.0538 1063.37 41.0538C1061.08 41.0538 1059.62 41.9438 1059.62 43.8738C1059.62 45.8038 1061.08 46.6938 1063.37 46.6938C1065.67 46.6938 1067.13 45.8038 1067.13 43.8738ZM1060.38 43.8738C1060.38 42.7338 1061.36 42.0238 1063.37 42.0238C1065.39 42.0238 1066.37 42.7338 1066.37 43.8738C1066.37 45.0138 1065.39 45.7238 1063.37 45.7238C1061.36 45.7238 1060.38 45.0138 1060.38 43.8738ZM1067.13 37.2625C1067.13 35.3325 1065.67 34.4425 1063.37 34.4425C1061.08 34.4425 1059.62 35.3325 1059.62 37.2625C1059.62 39.1925 1061.08 40.0825 1063.37 40.0825C1065.67 40.0825 1067.13 39.1925 1067.13 37.2625ZM1060.38 37.2625C1060.38 36.1225 1061.36 35.4125 1063.37 35.4125C1065.39 35.4125 1066.37 36.1225 1066.37 37.2625C1066.37 38.4025 1065.39 39.1125 1063.37 39.1125C1061.36 39.1125 1060.38 38.4025 1060.38 37.2625Z" fill="black"/>
</svg>
