<svg width="252" height="355" viewBox="0 0 252 355" fill="none" xmlns="http://www.w3.org/2000/svg">
<g clip-path="url(#clip0_635_549)">
<path d="M79.4956 192.491C59.0751 192.491 39.4909 184.379 25.0515 169.94C10.612 155.5 2.5 135.916 2.5 115.496C2.5 95.0751 10.612 75.4909 25.0515 61.0515C39.4909 46.612 59.0751 38.5 79.4956 38.5C99.9161 38.5 119.5 46.612 133.94 61.0515C148.379 75.4909 156.491 95.0751 156.491 115.496C156.491 135.916 148.379 155.5 133.94 169.94C119.5 184.379 99.9161 192.491 79.4956 192.491Z" stroke="#FF46EC"/>
<path d="M12.4271 124.354C10.0595 124.354 7.78882 123.414 6.11468 121.739C4.44053 120.065 3.5 117.795 3.5 115.427C3.5 113.059 4.44053 110.789 6.11468 109.115C7.78882 107.441 10.0595 106.5 12.4271 106.5C14.7947 106.5 17.0653 107.441 18.7394 109.115C20.4136 110.789 21.3541 113.059 21.3541 115.427C21.3541 117.795 20.4136 120.065 18.7394 121.739C17.0653 123.414 14.7947 124.354 12.4271 124.354Z" stroke="#FF46EC"/>
<path d="M30.352 117.564C30.352 118.644 29.536 119.244 28.384 119.244C27.16 119.244 26.524 118.5 26.404 117.432H25.276C25.396 118.884 26.332 120.156 28.372 120.156C30.028 120.156 31.516 119.304 31.516 117.552C31.516 116.64 31.156 115.776 29.86 115.368C30.772 114.996 31.276 114.24 31.276 113.352C31.276 111.744 29.968 111.144 28.456 111.144C26.632 111.144 25.54 112.212 25.408 113.748H26.536C26.632 112.764 27.268 112.056 28.432 112.056C29.356 112.056 30.124 112.536 30.124 113.472C30.124 114.492 29.32 114.912 27.808 114.912H27.664V115.908H27.844C29.236 115.908 30.352 116.316 30.352 117.564ZM39.267 117.852V116.82H37.671V111.3H36.555L32.247 116.82V117.852H36.567V120H37.671V117.852H39.267ZM33.459 116.82L36.567 112.8V116.82H33.459Z" fill="black"/>
<path d="M6.24 11H8.028V2.3H6.804V9.704L2.832 2.3H1.032V11H2.256V3.572L6.24 11ZM13.9186 10.076V11H15.0106V4.544H13.9186V8.096C13.9186 9.476 13.3066 10.208 12.2746 10.208C11.0866 10.208 10.9186 9.344 10.9186 8.348V4.544H9.82659V8.672C9.82659 10.148 10.3906 11.156 11.8906 11.156C12.9586 11.156 13.5466 10.688 13.9186 10.076ZM17.8349 11V7.496C17.8349 6.116 18.4589 5.384 19.3949 5.384C20.5829 5.384 20.7749 6.248 20.7749 7.244V11H21.8669V7.496C21.8669 6.116 22.4909 5.384 23.4269 5.384C24.6149 5.384 24.8069 6.248 24.8069 7.244V11H25.8989V6.92C25.8989 5.444 25.3109 4.436 23.8109 4.436C22.9109 4.436 22.1549 4.784 21.6389 5.576C21.3509 4.868 20.7629 4.436 19.7789 4.436C18.8069 4.436 18.2069 4.904 17.8349 5.516V4.544H16.7429V11H17.8349ZM28.6279 2.3H27.5359V11H28.6279V10.028C29.0239 10.712 29.7079 11.156 30.7399 11.156C32.2159 11.156 33.4999 9.932 33.4999 7.796C33.4999 5.672 32.2159 4.436 30.7399 4.436C29.7079 4.436 29.0239 4.88 28.6279 5.564V2.3ZM30.4639 10.22C29.4919 10.22 28.5799 9.5 28.5799 7.796C28.5799 6.092 29.4919 5.372 30.4639 5.372C31.5799 5.372 32.3119 6.26 32.3119 7.796C32.3119 9.332 31.5799 10.22 30.4639 10.22ZM35.5687 8.132H40.5367C40.6807 6.092 39.4927 4.436 37.5247 4.436C35.7607 4.436 34.3927 5.744 34.3927 7.784C34.3927 9.692 35.5207 11.156 37.5607 11.156C39.1327 11.156 40.1527 10.244 40.4527 9.128H39.3247C39.0487 9.764 38.5207 10.196 37.5607 10.196C36.6007 10.196 35.6167 9.524 35.5687 8.132ZM35.5807 7.196C35.6767 5.9 36.5527 5.372 37.5247 5.372C38.6767 5.372 39.3607 6.284 39.3847 7.196H35.5807ZM45.0253 5.684V4.52C44.9053 4.508 44.8093 4.508 44.7013 4.508C43.8613 4.532 43.2013 4.94 42.8773 5.672V4.544H41.8093V11H42.9013V7.616C42.9013 6.2 43.4053 5.636 44.4133 5.636C44.5933 5.636 44.7973 5.66 45.0253 5.684ZM54.6946 7.796C54.6946 5.456 53.0986 4.436 51.5986 4.436C50.0986 4.436 48.5026 5.456 48.5026 7.796C48.5026 10.136 50.0986 11.156 51.5986 11.156C53.0986 11.156 54.6946 10.136 54.6946 7.796ZM51.5986 10.196C50.6146 10.196 49.6666 9.512 49.6666 7.796C49.6666 6.032 50.6146 5.396 51.5986 5.396C52.5826 5.396 53.5306 6.08 53.5306 7.796C53.5306 9.452 52.5826 10.196 51.5986 10.196ZM56.3353 4.076V4.544H55.4353V5.42H56.3353V11H57.4273V5.42H58.6393V4.544H57.4273V4.016C57.4273 3.344 57.5233 3.212 58.0993 3.212H58.6393V2.3H58.0753C56.6113 2.3 56.3353 2.732 56.3353 4.076ZM62.2847 9.296C62.2847 10.484 63.2927 11.156 64.5047 11.156C65.6447 11.156 66.3167 10.772 66.7127 10.112C66.7247 10.496 66.7607 10.76 66.7967 11H67.9007C67.7807 10.388 67.7207 9.644 67.7327 8.564L67.7447 7.076C67.7567 5.264 66.9527 4.412 65.1767 4.412C63.9167 4.412 62.6927 5.192 62.5847 6.584H63.7127C63.7607 5.792 64.2887 5.3 65.1887 5.3C65.9927 5.3 66.6527 5.696 66.6527 6.872V7.028C64.0007 7.328 62.2847 7.772 62.2847 9.296ZM66.7367 7.892V8.3C66.7367 9.824 65.7647 10.292 64.7447 10.292C63.9647 10.292 63.4967 9.884 63.4967 9.272C63.4967 8.384 64.7567 8.096 66.7367 7.892ZM70.4638 5.516V4.544H69.3718V11H70.4638V7.496C70.4638 6.116 71.1118 5.384 72.1678 5.384C73.4158 5.384 73.5838 6.248 73.5838 7.244V11H74.6758V6.92C74.6758 5.444 74.1118 4.436 72.5518 4.436C71.4598 4.436 70.8358 4.904 70.4638 5.516ZM76.6213 2.924V4.544H75.6013V5.42H76.6213V9.38C76.6213 10.724 76.9093 11 78.1453 11H78.9373V10.088H78.3853C77.7613 10.088 77.7133 9.92 77.7133 9.248V5.42H78.9373V4.544H77.7133V2.924H76.6213ZM81.4208 2.3H80.3288V3.62H81.4208V2.3ZM81.4208 4.544H80.3288V11H81.4208V4.544ZM84.2451 11V7.496C84.2451 6.116 84.8691 5.384 85.8051 5.384C86.9931 5.384 87.1851 6.248 87.1851 7.244V11H88.2771V7.496C88.2771 6.116 88.9011 5.384 89.8371 5.384C91.0251 5.384 91.2171 6.248 91.2171 7.244V11H92.3091V6.92C92.3091 5.444 91.7211 4.436 90.2211 4.436C89.3211 4.436 88.5651 4.784 88.0491 5.576C87.7611 4.868 87.1731 4.436 86.1891 4.436C85.2171 4.436 84.6171 4.904 84.2451 5.516V4.544H83.1531V11H84.2451ZM95.038 2.3H93.946V3.62H95.038V2.3ZM95.038 4.544H93.946V11H95.038V4.544ZM102.146 6.704C102.002 5.612 101.006 4.436 99.4463 4.436C97.5383 4.436 96.3263 5.864 96.3263 7.784C96.3263 9.752 97.4902 11.156 99.3383 11.156C100.838 11.156 102.002 10.112 102.218 8.9H101.09C100.934 9.584 100.286 10.196 99.3743 10.196C98.4143 10.196 97.5143 9.416 97.5143 7.772C97.5143 6.152 98.4023 5.396 99.3743 5.396C100.214 5.396 100.886 5.936 101.042 6.704H102.146ZM106.666 5.684V4.52C106.546 4.508 106.45 4.508 106.342 4.508C105.502 4.532 104.842 4.94 104.518 5.672V4.544H103.45V11H104.542V7.616C104.542 6.2 105.046 5.636 106.054 5.636C106.234 5.636 106.438 5.66 106.666 5.684ZM113.37 7.796C113.37 5.456 111.774 4.436 110.274 4.436C108.774 4.436 107.178 5.456 107.178 7.796C107.178 10.136 108.774 11.156 110.274 11.156C111.774 11.156 113.37 10.136 113.37 7.796ZM110.274 10.196C109.29 10.196 108.342 9.512 108.342 7.796C108.342 6.032 109.29 5.396 110.274 5.396C111.258 5.396 112.206 6.08 112.206 7.796C112.206 9.452 111.258 10.196 110.274 10.196ZM115.769 2.3H114.677V11H115.769V10.028C116.165 10.712 116.849 11.156 117.881 11.156C119.357 11.156 120.641 9.932 120.641 7.796C120.641 5.672 119.357 4.436 117.881 4.436C116.849 4.436 116.165 4.88 115.769 5.564V2.3ZM117.605 10.22C116.633 10.22 115.721 9.5 115.721 7.796C115.721 6.092 116.633 5.372 117.605 5.372C118.721 5.372 119.453 6.26 119.453 7.796C119.453 9.332 118.721 10.22 117.605 10.22ZM122.976 2.3H121.884V3.62H122.976V2.3ZM122.976 4.544H121.884V11H122.976V4.544ZM124.324 9.296C124.324 10.484 125.332 11.156 126.544 11.156C127.684 11.156 128.356 10.772 128.752 10.112C128.764 10.496 128.8 10.76 128.836 11H129.94C129.82 10.388 129.76 9.644 129.772 8.564L129.784 7.076C129.796 5.264 128.992 4.412 127.216 4.412C125.956 4.412 124.732 5.192 124.624 6.584H125.752C125.8 5.792 126.328 5.3 127.228 5.3C128.032 5.3 128.692 5.696 128.692 6.872V7.028C126.04 7.328 124.324 7.772 124.324 9.296ZM128.776 7.892V8.3C128.776 9.824 127.804 10.292 126.784 10.292C126.004 10.292 125.536 9.884 125.536 9.272C125.536 8.384 126.796 8.096 128.776 7.892ZM132.503 11V2.3H131.411V11H132.503ZM140.299 5.684V4.52C140.179 4.508 140.083 4.508 139.975 4.508C139.135 4.532 138.475 4.94 138.151 5.672V4.544H137.083V11H138.175V7.616C138.175 6.2 138.679 5.636 139.687 5.636C139.867 5.636 140.071 5.66 140.299 5.684ZM141.963 8.132H146.931C147.075 6.092 145.887 4.436 143.919 4.436C142.155 4.436 140.787 5.744 140.787 7.784C140.787 9.692 141.915 11.156 143.955 11.156C145.527 11.156 146.547 10.244 146.847 9.128H145.719C145.443 9.764 144.915 10.196 143.955 10.196C142.995 10.196 142.011 9.524 141.963 8.132ZM141.975 7.196C142.071 5.9 142.947 5.372 143.919 5.372C145.071 5.372 145.755 6.284 145.779 7.196H141.975ZM151.923 6.428H153.063C152.859 5.204 151.911 4.424 150.519 4.424C149.091 4.424 147.939 5.084 147.939 6.224C147.939 7.424 148.899 7.832 149.775 8.012L150.735 8.204C151.431 8.348 152.043 8.624 152.043 9.272C152.043 9.872 151.371 10.232 150.543 10.232C149.583 10.232 149.067 9.74 148.899 8.912H147.747C147.867 10.04 148.827 11.156 150.519 11.156C151.995 11.156 153.147 10.424 153.147 9.152C153.147 7.904 152.115 7.46 150.939 7.232L150.027 7.052C149.403 6.932 149.043 6.692 149.043 6.176C149.043 5.588 149.763 5.36 150.399 5.36C151.155 5.36 151.755 5.66 151.923 6.428ZM155.624 2.3H154.532V3.62H155.624V2.3ZM155.624 4.544H154.532V11H155.624V4.544ZM161.052 6.428H162.192C161.988 5.204 161.04 4.424 159.648 4.424C158.22 4.424 157.068 5.084 157.068 6.224C157.068 7.424 158.028 7.832 158.904 8.012L159.864 8.204C160.56 8.348 161.172 8.624 161.172 9.272C161.172 9.872 160.5 10.232 159.672 10.232C158.712 10.232 158.196 9.74 158.028 8.912H156.876C156.996 10.04 157.956 11.156 159.648 11.156C161.124 11.156 162.276 10.424 162.276 9.152C162.276 7.904 161.244 7.46 160.068 7.232L159.156 7.052C158.532 6.932 158.172 6.692 158.172 6.176C158.172 5.588 158.892 5.36 159.528 5.36C160.284 5.36 160.884 5.66 161.052 6.428ZM163.973 2.924V4.544H162.953V5.42H163.973V9.38C163.973 10.724 164.261 11 165.497 11H166.289V10.088H165.737C165.113 10.088 165.065 9.92 165.065 9.248V5.42H166.289V4.544H165.065V2.924H163.973ZM167.179 9.296C167.179 10.484 168.187 11.156 169.399 11.156C170.539 11.156 171.211 10.772 171.607 10.112C171.619 10.496 171.655 10.76 171.691 11H172.795C172.675 10.388 172.615 9.644 172.627 8.564L172.639 7.076C172.651 5.264 171.847 4.412 170.071 4.412C168.811 4.412 167.587 5.192 167.479 6.584H168.607C168.655 5.792 169.183 5.3 170.083 5.3C170.887 5.3 171.547 5.696 171.547 6.872V7.028C168.895 7.328 167.179 7.772 167.179 9.296ZM171.631 7.892V8.3C171.631 9.824 170.659 10.292 169.639 10.292C168.859 10.292 168.391 9.884 168.391 9.272C168.391 8.384 169.651 8.096 171.631 7.892ZM175.358 5.516V4.544H174.266V11H175.358V7.496C175.358 6.116 176.006 5.384 177.062 5.384C178.31 5.384 178.478 6.248 178.478 7.244V11H179.57V6.92C179.57 5.444 179.006 4.436 177.446 4.436C176.354 4.436 175.73 4.904 175.358 5.516ZM181.516 2.924V4.544H180.496V5.42H181.516V9.38C181.516 10.724 181.804 11 183.04 11H183.832V10.088H183.28C182.656 10.088 182.608 9.92 182.608 9.248V5.42H183.832V4.544H182.608V2.924H181.516ZM189.046 2.3H187.954V11H189.046V10.028C189.442 10.712 190.126 11.156 191.158 11.156C192.634 11.156 193.918 9.932 193.918 7.796C193.918 5.672 192.634 4.436 191.158 4.436C190.126 4.436 189.442 4.88 189.046 5.564V2.3ZM190.882 10.22C189.91 10.22 188.998 9.5 188.998 7.796C188.998 6.092 189.91 5.372 190.882 5.372C191.998 5.372 192.73 6.26 192.73 7.796C192.73 9.332 191.998 10.22 190.882 10.22ZM194.777 9.296C194.777 10.484 195.785 11.156 196.997 11.156C198.137 11.156 198.809 10.772 199.205 10.112C199.217 10.496 199.253 10.76 199.289 11H200.393C200.273 10.388 200.213 9.644 200.225 8.564L200.237 7.076C200.249 5.264 199.445 4.412 197.669 4.412C196.409 4.412 195.185 5.192 195.077 6.584H196.205C196.253 5.792 196.781 5.3 197.681 5.3C198.485 5.3 199.145 5.696 199.145 6.872V7.028C196.493 7.328 194.777 7.772 194.777 9.296ZM199.229 7.892V8.3C199.229 9.824 198.257 10.292 197.237 10.292C196.457 10.292 195.989 9.884 195.989 9.272C195.989 8.384 197.249 8.096 199.229 7.892ZM207.24 6.704C207.096 5.612 206.1 4.436 204.54 4.436C202.632 4.436 201.42 5.864 201.42 7.784C201.42 9.752 202.584 11.156 204.432 11.156C205.932 11.156 207.096 10.112 207.312 8.9H206.184C206.028 9.584 205.38 10.196 204.468 10.196C203.508 10.196 202.608 9.416 202.608 7.772C202.608 6.152 203.496 5.396 204.468 5.396C205.308 5.396 205.98 5.936 206.136 6.704H207.24ZM208.856 2.924V4.544H207.836V5.42H208.856V9.38C208.856 10.724 209.144 11 210.38 11H211.172V10.088H210.62C209.996 10.088 209.948 9.92 209.948 9.248V5.42H211.172V4.544H209.948V2.924H208.856ZM213.119 8.132H218.087C218.231 6.092 217.043 4.436 215.075 4.436C213.311 4.436 211.943 5.744 211.943 7.784C211.943 9.692 213.071 11.156 215.111 11.156C216.683 11.156 217.703 10.244 218.003 9.128H216.875C216.599 9.764 216.071 10.196 215.111 10.196C214.151 10.196 213.167 9.524 213.119 8.132ZM213.131 7.196C213.227 5.9 214.103 5.372 215.075 5.372C216.227 5.372 216.911 6.284 216.935 7.196H213.131ZM222.576 5.684V4.52C222.456 4.508 222.36 4.508 222.252 4.508C221.412 4.532 220.752 4.94 220.428 5.672V4.544H219.36V11H220.452V7.616C220.452 6.2 220.956 5.636 221.964 5.636C222.144 5.636 222.348 5.66 222.576 5.684ZM224.718 2.3H223.626V3.62H224.718V2.3ZM224.718 4.544H223.626V11H224.718V4.544ZM226.066 9.296C226.066 10.484 227.074 11.156 228.286 11.156C229.426 11.156 230.098 10.772 230.494 10.112C230.506 10.496 230.542 10.76 230.578 11H231.682C231.562 10.388 231.502 9.644 231.514 8.564L231.526 7.076C231.538 5.264 230.734 4.412 228.958 4.412C227.698 4.412 226.474 5.192 226.366 6.584H227.494C227.542 5.792 228.07 5.3 228.97 5.3C229.774 5.3 230.434 5.696 230.434 6.872V7.028C227.782 7.328 226.066 7.772 226.066 9.296ZM230.518 7.892V8.3C230.518 9.824 229.546 10.292 228.526 10.292C227.746 10.292 227.278 9.884 227.278 9.272C227.278 8.384 228.538 8.096 230.518 7.892ZM5.292 18.3V21.564C4.896 20.88 4.212 20.436 3.18 20.436C1.704 20.436 0.42 21.672 0.42 23.796C0.42 25.932 1.704 27.156 3.18 27.156C4.212 27.156 4.896 26.712 5.292 26.028V27H6.384V18.3H5.292ZM3.456 21.372C4.428 21.372 5.34 22.092 5.34 23.796C5.34 25.5 4.428 26.22 3.456 26.22C2.34 26.22 1.608 25.332 1.608 23.796C1.608 22.26 2.34 21.372 3.456 21.372ZM8.83819 24.132H13.8062C13.9502 22.092 12.7622 20.436 10.7942 20.436C9.03019 20.436 7.66219 21.744 7.66219 23.784C7.66219 25.692 8.79019 27.156 10.8302 27.156C12.4022 27.156 13.4222 26.244 13.7222 25.128H12.5942C12.3182 25.764 11.7902 26.196 10.8302 26.196C9.87019 26.196 8.88619 25.524 8.83819 24.132ZM8.85019 23.196C8.94619 21.9 9.82219 21.372 10.7942 21.372C11.9462 21.372 12.6302 22.284 12.6542 23.196H8.85019ZM15.3908 18.924V20.544H14.3708V21.42H15.3908V25.38C15.3908 26.724 15.6788 27 16.9148 27H17.7068V26.088H17.1548C16.5308 26.088 16.4828 25.92 16.4828 25.248V21.42H17.7068V20.544H16.4828V18.924H15.3908ZM19.6546 24.132H24.6226C24.7666 22.092 23.5786 20.436 21.6106 20.436C19.8466 20.436 18.4786 21.744 18.4786 23.784C18.4786 25.692 19.6066 27.156 21.6466 27.156C23.2186 27.156 24.2386 26.244 24.5386 25.128H23.4106C23.1346 25.764 22.6066 26.196 21.6466 26.196C20.6866 26.196 19.7026 25.524 19.6546 24.132ZM19.6666 23.196C19.7626 21.9 20.6386 21.372 21.6106 21.372C22.7626 21.372 23.4466 22.284 23.4706 23.196H19.6666ZM31.3298 22.704C31.1858 21.612 30.1898 20.436 28.6298 20.436C26.7218 20.436 25.5098 21.864 25.5098 23.784C25.5098 25.752 26.6738 27.156 28.5218 27.156C30.0218 27.156 31.1858 26.112 31.4018 24.9H30.2738C30.1178 25.584 29.4698 26.196 28.5578 26.196C27.5978 26.196 26.6978 25.416 26.6978 23.772C26.6978 22.152 27.5858 21.396 28.5578 21.396C29.3978 21.396 30.0698 21.936 30.2258 22.704H31.3298ZM32.9455 18.924V20.544H31.9255V21.42H32.9455V25.38C32.9455 26.724 33.2335 27 34.4695 27H35.2615V26.088H34.7095C34.0855 26.088 34.0375 25.92 34.0375 25.248V21.42H35.2615V20.544H34.0375V18.924H32.9455ZM37.2093 24.132H42.1773C42.3213 22.092 41.1333 20.436 39.1653 20.436C37.4013 20.436 36.0333 21.744 36.0333 23.784C36.0333 25.692 37.1613 27.156 39.2013 27.156C40.7733 27.156 41.7933 26.244 42.0933 25.128H40.9653C40.6893 25.764 40.1613 26.196 39.2013 26.196C38.2413 26.196 37.2573 25.524 37.2093 24.132ZM37.2213 23.196C37.3173 21.9 38.1933 21.372 39.1653 21.372C40.3173 21.372 41.0013 22.284 41.0253 23.196H37.2213ZM47.9365 18.3V21.564C47.5405 20.88 46.8565 20.436 45.8245 20.436C44.3485 20.436 43.0645 21.672 43.0645 23.796C43.0645 25.932 44.3485 27.156 45.8245 27.156C46.8565 27.156 47.5405 26.712 47.9365 26.028V27H49.0285V18.3H47.9365ZM46.1005 21.372C47.0725 21.372 47.9845 22.092 47.9845 23.796C47.9845 25.5 47.0725 26.22 46.1005 26.22C44.9845 26.22 44.2525 25.332 44.2525 23.796C44.2525 22.26 44.9845 21.372 46.1005 21.372Z" fill="black"/>
<path d="M6.24 224H8.028V215.3H6.804V222.704L2.832 215.3H1.032V224H2.256V216.572L6.24 224ZM13.9186 223.076V224H15.0106V217.544H13.9186V221.096C13.9186 222.476 13.3066 223.208 12.2746 223.208C11.0866 223.208 10.9186 222.344 10.9186 221.348V217.544H9.82659V221.672C9.82659 223.148 10.3906 224.156 11.8906 224.156C12.9586 224.156 13.5466 223.688 13.9186 223.076ZM17.8349 224V220.496C17.8349 219.116 18.4589 218.384 19.3949 218.384C20.5829 218.384 20.7749 219.248 20.7749 220.244V224H21.8669V220.496C21.8669 219.116 22.4909 218.384 23.4269 218.384C24.6149 218.384 24.8069 219.248 24.8069 220.244V224H25.8989V219.92C25.8989 218.444 25.3109 217.436 23.8109 217.436C22.9109 217.436 22.1549 217.784 21.6389 218.576C21.3509 217.868 20.7629 217.436 19.7789 217.436C18.8069 217.436 18.2069 217.904 17.8349 218.516V217.544H16.7429V224H17.8349ZM28.6279 215.3H27.5359V224H28.6279V223.028C29.0239 223.712 29.7079 224.156 30.7399 224.156C32.2159 224.156 33.4999 222.932 33.4999 220.796C33.4999 218.672 32.2159 217.436 30.7399 217.436C29.7079 217.436 29.0239 217.88 28.6279 218.564V215.3ZM30.4639 223.22C29.4919 223.22 28.5799 222.5 28.5799 220.796C28.5799 219.092 29.4919 218.372 30.4639 218.372C31.5799 218.372 32.3119 219.26 32.3119 220.796C32.3119 222.332 31.5799 223.22 30.4639 223.22ZM35.5687 221.132H40.5367C40.6807 219.092 39.4927 217.436 37.5247 217.436C35.7607 217.436 34.3927 218.744 34.3927 220.784C34.3927 222.692 35.5207 224.156 37.5607 224.156C39.1327 224.156 40.1527 223.244 40.4527 222.128H39.3247C39.0487 222.764 38.5207 223.196 37.5607 223.196C36.6007 223.196 35.6167 222.524 35.5687 221.132ZM35.5807 220.196C35.6767 218.9 36.5527 218.372 37.5247 218.372C38.6767 218.372 39.3607 219.284 39.3847 220.196H35.5807ZM45.0253 218.684V217.52C44.9053 217.508 44.8093 217.508 44.7013 217.508C43.8613 217.532 43.2013 217.94 42.8773 218.672V217.544H41.8093V224H42.9013V220.616C42.9013 219.2 43.4053 218.636 44.4133 218.636C44.5933 218.636 44.7973 218.66 45.0253 218.684ZM54.6946 220.796C54.6946 218.456 53.0986 217.436 51.5986 217.436C50.0986 217.436 48.5026 218.456 48.5026 220.796C48.5026 223.136 50.0986 224.156 51.5986 224.156C53.0986 224.156 54.6946 223.136 54.6946 220.796ZM51.5986 223.196C50.6146 223.196 49.6666 222.512 49.6666 220.796C49.6666 219.032 50.6146 218.396 51.5986 218.396C52.5826 218.396 53.5306 219.08 53.5306 220.796C53.5306 222.452 52.5826 223.196 51.5986 223.196ZM56.3353 217.076V217.544H55.4353V218.42H56.3353V224H57.4273V218.42H58.6393V217.544H57.4273V217.016C57.4273 216.344 57.5233 216.212 58.0993 216.212H58.6393V215.3H58.0753C56.6113 215.3 56.3353 215.732 56.3353 217.076ZM66.3647 219.428H67.5047C67.3007 218.204 66.3527 217.424 64.9607 217.424C63.5327 217.424 62.3807 218.084 62.3807 219.224C62.3807 220.424 63.3407 220.832 64.2167 221.012L65.1767 221.204C65.8727 221.348 66.4847 221.624 66.4847 222.272C66.4847 222.872 65.8127 223.232 64.9847 223.232C64.0247 223.232 63.5087 222.74 63.3407 221.912H62.1887C62.3087 223.04 63.2687 224.156 64.9607 224.156C66.4367 224.156 67.5887 223.424 67.5887 222.152C67.5887 220.904 66.5567 220.46 65.3807 220.232L64.4687 220.052C63.8447 219.932 63.4847 219.692 63.4847 219.176C63.4847 218.588 64.2047 218.36 64.8407 218.36C65.5967 218.36 66.1967 218.66 66.3647 219.428ZM68.5894 222.296C68.5894 223.484 69.5974 224.156 70.8094 224.156C71.9494 224.156 72.6214 223.772 73.0174 223.112C73.0294 223.496 73.0654 223.76 73.1014 224H74.2054C74.0854 223.388 74.0254 222.644 74.0374 221.564L74.0494 220.076C74.0614 218.264 73.2574 217.412 71.4814 217.412C70.2214 217.412 68.9974 218.192 68.8894 219.584H70.0174C70.0654 218.792 70.5934 218.3 71.4934 218.3C72.2974 218.3 72.9574 218.696 72.9574 219.872V220.028C70.3054 220.328 68.5894 220.772 68.5894 222.296ZM73.0414 220.892V221.3C73.0414 222.824 72.0694 223.292 71.0494 223.292C70.2694 223.292 69.8014 222.884 69.8014 222.272C69.8014 221.384 71.0614 221.096 73.0414 220.892ZM76.7685 224V220.496C76.7685 219.116 77.3925 218.384 78.3285 218.384C79.5165 218.384 79.7085 219.248 79.7085 220.244V224H80.8005V220.496C80.8005 219.116 81.4245 218.384 82.3605 218.384C83.5485 218.384 83.7405 219.248 83.7405 220.244V224H84.8325V219.92C84.8325 218.444 84.2445 217.436 82.7445 217.436C81.8445 217.436 81.0885 217.784 80.5725 218.576C80.2845 217.868 79.6965 217.436 78.7125 217.436C77.7405 217.436 77.1405 217.904 76.7685 218.516V217.544H75.6765V224H76.7685ZM87.5615 217.544H86.4695V226.1H87.5615V223.028C87.9575 223.712 88.6415 224.156 89.6735 224.156C91.1495 224.156 92.4335 222.932 92.4335 220.796C92.4335 218.672 91.1495 217.436 89.6735 217.436C88.6415 217.436 87.9575 217.88 87.5615 218.564V217.544ZM89.3975 223.22C88.4255 223.22 87.5135 222.5 87.5135 220.796C87.5135 219.092 88.4255 218.372 89.3975 218.372C90.5135 218.372 91.2455 219.26 91.2455 220.796C91.2455 222.332 90.5135 223.22 89.3975 223.22ZM94.8037 224V215.3H93.7117V224H94.8037ZM97.2679 221.132H102.236C102.38 219.092 101.192 217.436 99.2239 217.436C97.4599 217.436 96.0919 218.744 96.0919 220.784C96.0919 222.692 97.2199 224.156 99.2599 224.156C100.832 224.156 101.852 223.244 102.152 222.128H101.024C100.748 222.764 100.22 223.196 99.2599 223.196C98.2999 223.196 97.3159 222.524 97.2679 221.132ZM97.2799 220.196C97.3759 218.9 98.2519 218.372 99.2239 218.372C100.376 218.372 101.06 219.284 101.084 220.196H97.2799ZM107.228 219.428H108.368C108.164 218.204 107.216 217.424 105.824 217.424C104.396 217.424 103.244 218.084 103.244 219.224C103.244 220.424 104.204 220.832 105.08 221.012L106.04 221.204C106.736 221.348 107.348 221.624 107.348 222.272C107.348 222.872 106.676 223.232 105.848 223.232C104.888 223.232 104.372 222.74 104.204 221.912H103.052C103.172 223.04 104.132 224.156 105.824 224.156C107.3 224.156 108.452 223.424 108.452 222.152C108.452 220.904 107.42 220.46 106.244 220.232L105.332 220.052C104.708 219.932 104.348 219.692 104.348 219.176C104.348 218.588 105.068 218.36 105.704 218.36C106.46 218.36 107.06 218.66 107.228 219.428ZM112.996 215.924V217.544H111.976V218.42H112.996V222.38C112.996 223.724 113.284 224 114.52 224H115.312V223.088H114.76C114.136 223.088 114.088 222.92 114.088 222.248V218.42H115.312V217.544H114.088V215.924H112.996ZM116.203 222.296C116.203 223.484 117.211 224.156 118.423 224.156C119.563 224.156 120.235 223.772 120.631 223.112C120.643 223.496 120.679 223.76 120.715 224H121.819C121.699 223.388 121.639 222.644 121.651 221.564L121.663 220.076C121.675 218.264 120.871 217.412 119.095 217.412C117.835 217.412 116.611 218.192 116.503 219.584H117.631C117.679 218.792 118.207 218.3 119.107 218.3C119.911 218.3 120.571 218.696 120.571 219.872V220.028C117.919 220.328 116.203 220.772 116.203 222.296ZM120.655 220.892V221.3C120.655 222.824 119.683 223.292 118.663 223.292C117.883 223.292 117.415 222.884 117.415 222.272C117.415 221.384 118.675 221.096 120.655 220.892ZM124.382 215.3H123.29V224H124.382V221.84L125.138 221.024L127.334 224H128.666L125.87 220.22L128.33 217.544H126.986L124.382 220.448V215.3ZM129.905 221.132H134.873C135.017 219.092 133.829 217.436 131.861 217.436C130.097 217.436 128.729 218.744 128.729 220.784C128.729 222.692 129.857 224.156 131.897 224.156C133.469 224.156 134.489 223.244 134.789 222.128H133.661C133.385 222.764 132.857 223.196 131.897 223.196C130.937 223.196 129.953 222.524 129.905 221.132ZM129.917 220.196C130.013 218.9 130.889 218.372 131.861 218.372C133.013 218.372 133.697 219.284 133.721 220.196H129.917ZM137.237 218.516V217.544H136.145V224H137.237V220.496C137.237 219.116 137.885 218.384 138.941 218.384C140.189 218.384 140.357 219.248 140.357 220.244V224H141.449V219.92C141.449 218.444 140.885 217.436 139.325 217.436C138.233 217.436 137.609 217.904 137.237 218.516Z" fill="black"/>
<path d="M1.704 258.416C1.764 256.4 2.496 255.056 3.84 255.056C4.728 255.056 5.328 255.536 5.472 256.316H6.66C6.48 255.212 5.676 254.144 3.972 254.144C1.452 254.144 0.576 256.496 0.576 258.956C0.576 261.644 1.572 263.156 3.744 263.156C5.604 263.156 6.804 261.776 6.804 260.156C6.804 258.416 5.616 257.204 3.996 257.204C2.844 257.204 2.1 257.732 1.704 258.416ZM3.732 262.244C2.58 262.244 1.836 261.416 1.836 260.216C1.836 259.028 2.604 258.152 3.744 258.152C4.86 258.152 5.64 259.028 5.64 260.216C5.64 261.404 4.848 262.244 3.732 262.244ZM13.7668 256.424C13.7668 254.96 12.6148 254.144 11.0068 254.144C9.15881 254.144 7.95881 255.284 7.98281 257.012H9.11081C9.13481 255.572 10.0468 255.056 10.9828 255.056C12.0148 255.056 12.6148 255.668 12.6148 256.568C12.6148 258.104 10.8148 259.748 7.74281 262.016V263H14.0068V261.98H9.23081C11.6668 260.228 13.7668 258.44 13.7668 256.424ZM14.5929 254.3V255.32H19.3449C17.1849 257.192 15.8049 259.88 15.6129 263H16.9329C17.1369 259.748 18.4689 257.06 20.6169 255.32V254.3H14.5929Z" fill="black"/>
<path d="M166.568 117.144C166.568 118.488 165.668 119.244 164.624 119.244C163.412 119.244 162.824 118.572 162.656 117.48H161.528C161.696 118.884 162.608 120.156 164.624 120.156C166.244 120.156 167.72 119.124 167.72 117.132C167.72 115.212 166.388 114.132 164.864 114.132C164.144 114.132 163.448 114.348 162.992 114.792L163.292 112.32H167.396V111.3H162.404L161.84 115.98L162.932 116.04C163.124 115.608 163.712 115.08 164.612 115.08C165.56 115.08 166.568 115.704 166.568 117.144ZM169.069 111.3V112.68H169.657L169.021 114.348H169.717L170.449 112.776V111.3H169.069ZM177.376 117.852V116.82H175.78V111.3H174.664L170.356 116.82V117.852H174.676V120H175.78V117.852H177.376ZM171.568 116.82L174.676 112.8V116.82H171.568ZM177.773 111.3V112.32H182.525C180.365 114.192 178.985 116.88 178.793 120H180.113C180.317 116.748 181.649 114.06 183.797 112.32V111.3H177.773ZM189.822 117.852V116.82H188.226V111.3H187.11L182.802 116.82V117.852H187.122V120H188.226V117.852H189.822ZM184.014 116.82L187.122 112.8V116.82H184.014Z" fill="black"/>
<path d="M150.384 255.424C150.384 253.96 149.232 253.144 147.624 253.144C145.776 253.144 144.576 254.284 144.6 256.012H145.728C145.752 254.572 146.664 254.056 147.6 254.056C148.632 254.056 149.232 254.668 149.232 255.568C149.232 257.104 147.432 258.748 144.36 261.016V262H150.624V260.98H145.848C148.284 259.228 150.384 257.44 150.384 255.424ZM151.21 253.3V254.32H155.962C153.802 256.192 152.422 258.88 152.23 262H153.55C153.754 258.748 155.086 256.06 157.234 254.32V253.3H151.21ZM158.374 253.3V254.68H158.962L158.326 256.348H159.022L159.754 254.776V253.3H158.374ZM165.74 259.144C165.74 260.488 164.84 261.244 163.796 261.244C162.584 261.244 161.996 260.572 161.828 259.48H160.7C160.868 260.884 161.78 262.156 163.796 262.156C165.416 262.156 166.892 261.124 166.892 259.132C166.892 257.212 165.56 256.132 164.036 256.132C163.316 256.132 162.62 256.348 162.164 256.792L162.464 254.32H166.568V253.3H161.576L161.012 257.98L162.104 258.04C162.296 257.608 162.884 257.08 163.784 257.08C164.732 257.08 165.74 257.704 165.74 259.144ZM167.593 253.3V254.32H172.345C170.185 256.192 168.805 258.88 168.613 262H169.933C170.137 258.748 171.469 256.06 173.617 254.32V253.3H167.593ZM174.109 253.3V254.32H178.861C176.701 256.192 175.321 258.88 175.129 262H176.449C176.653 258.748 177.985 256.06 180.133 254.32V253.3H174.109Z" fill="black"/>
<path d="M5.256 303V294.3H4.032V303H5.256ZM8.24897 297.516V296.544H7.15697V303H8.24897V299.496C8.24897 298.116 8.89697 297.384 9.95297 297.384C11.201 297.384 11.369 298.248 11.369 299.244V303H12.461V298.92C12.461 297.444 11.897 296.436 10.337 296.436C9.24497 296.436 8.62097 296.904 8.24897 297.516ZM22.4621 296.424C22.4621 294.96 21.3101 294.144 19.7021 294.144C17.8541 294.144 16.6541 295.284 16.6781 297.012H17.8061C17.8301 295.572 18.7421 295.056 19.6781 295.056C20.7101 295.056 21.3101 295.668 21.3101 296.568C21.3101 298.104 19.5101 299.748 16.4381 302.016V303H22.7021V301.98H17.9261C20.3621 300.228 22.4621 298.44 22.4621 296.424ZM27.1163 303.156C29.4323 303.156 30.5003 301.404 30.5003 298.644C30.5003 295.896 29.4323 294.144 27.1163 294.144C24.8003 294.144 23.7323 295.896 23.7323 298.644C23.7323 301.404 24.8003 303.156 27.1163 303.156ZM27.1163 295.056C28.4843 295.056 29.3363 296.232 29.3363 298.644C29.3363 301.068 28.4843 302.244 27.1163 302.244C25.7483 302.244 24.8963 301.068 24.8963 298.644C24.8963 296.232 25.7483 295.056 27.1163 295.056ZM37.4738 296.424C37.4738 294.96 36.3218 294.144 34.7138 294.144C32.8658 294.144 31.6658 295.284 31.6898 297.012H32.8178C32.8418 295.572 33.7538 295.056 34.6898 295.056C35.7218 295.056 36.3218 295.668 36.3218 296.568C36.3218 298.104 34.5218 299.748 31.4498 302.016V303H37.7138V301.98H32.9378C35.3738 300.228 37.4738 298.44 37.4738 296.424ZM42.128 303.156C44.444 303.156 45.512 301.404 45.512 298.644C45.512 295.896 44.444 294.144 42.128 294.144C39.812 294.144 38.744 295.896 38.744 298.644C38.744 301.404 39.812 303.156 42.128 303.156ZM42.128 295.056C43.496 295.056 44.348 296.232 44.348 298.644C44.348 301.068 43.496 302.244 42.128 302.244C40.76 302.244 39.908 301.068 39.908 298.644C39.908 296.232 40.76 295.056 42.128 295.056ZM46.2839 301.62V303H46.8719L46.2359 304.668H46.9319L47.6639 303.096V301.62H46.2839ZM119.952 297.516V294.3H118.86V303H119.952V299.496C119.952 298.116 120.6 297.384 121.656 297.384C122.904 297.384 123.072 298.248 123.072 299.244V303H124.164V298.92C124.164 297.444 123.6 296.436 122.04 296.436C120.948 296.436 120.324 296.904 119.952 297.516ZM125.414 301.296C125.414 302.484 126.422 303.156 127.634 303.156C128.774 303.156 129.446 302.772 129.842 302.112C129.854 302.496 129.89 302.76 129.926 303H131.03C130.91 302.388 130.85 301.644 130.862 300.564L130.874 299.076C130.886 297.264 130.082 296.412 128.306 296.412C127.046 296.412 125.822 297.192 125.714 298.584H126.842C126.89 297.792 127.418 297.3 128.318 297.3C129.122 297.3 129.782 297.696 129.782 298.872V299.028C127.13 299.328 125.414 299.772 125.414 301.296ZM129.866 299.892V300.3C129.866 301.824 128.894 302.292 127.874 302.292C127.094 302.292 126.626 301.884 126.626 301.272C126.626 300.384 127.886 300.096 129.866 299.892ZM136.197 298.428H137.337C137.133 297.204 136.185 296.424 134.793 296.424C133.365 296.424 132.213 297.084 132.213 298.224C132.213 299.424 133.173 299.832 134.049 300.012L135.009 300.204C135.705 300.348 136.317 300.624 136.317 301.272C136.317 301.872 135.645 302.232 134.817 302.232C133.857 302.232 133.341 301.74 133.173 300.912H132.021C132.141 302.04 133.101 303.156 134.793 303.156C136.269 303.156 137.421 302.424 137.421 301.152C137.421 299.904 136.389 299.46 135.213 299.232L134.301 299.052C133.677 298.932 133.317 298.692 133.317 298.176C133.317 297.588 134.037 297.36 134.673 297.36C135.429 297.36 136.029 297.66 136.197 298.428ZM7.08 313.684V312.52C6.96 312.508 6.864 312.508 6.756 312.508C5.916 312.532 5.256 312.94 4.932 313.672V312.544H3.864V319H4.956V315.616C4.956 314.2 5.46 313.636 6.468 313.636C6.648 313.636 6.852 313.66 7.08 313.684ZM8.74444 316.132H13.7124C13.8564 314.092 12.6684 312.436 10.7004 312.436C8.93644 312.436 7.56844 313.744 7.56844 315.784C7.56844 317.692 8.69644 319.156 10.7364 319.156C12.3084 319.156 13.3284 318.244 13.6284 317.128H12.5004C12.2244 317.764 11.6964 318.196 10.7364 318.196C9.77644 318.196 8.79244 317.524 8.74444 316.132ZM8.75644 315.196C8.85244 313.9 9.72844 313.372 10.7004 313.372C11.8524 313.372 12.5364 314.284 12.5604 315.196H8.75644ZM19.3877 312.544V313.564C18.9917 312.88 18.3677 312.436 17.3357 312.436C15.9077 312.436 14.5997 313.6 14.5997 315.664C14.5997 317.74 15.9077 318.892 17.3357 318.892C18.3677 318.892 18.9917 318.46 19.3877 317.776V318.388C19.3877 319.264 19.2077 319.564 18.9677 319.816C18.6797 320.128 18.2357 320.296 17.6477 320.296C16.6397 320.296 16.2917 319.852 16.1477 319.276H14.9837C15.1877 320.584 16.1717 321.256 17.6357 321.256C18.5957 321.256 19.3997 320.944 19.8677 320.404C20.2397 319.996 20.4797 319.456 20.4797 318.136V312.544H19.3877ZM17.6117 313.372C18.5837 313.372 19.4357 314.032 19.4357 315.664C19.4357 317.308 18.5837 317.968 17.6117 317.968C16.5437 317.968 15.7877 317.14 15.7877 315.664C15.7877 314.2 16.5437 313.372 17.6117 313.372ZM23.2958 310.3H22.2038V311.62H23.2958V310.3ZM23.2958 312.544H22.2038V319H23.2958V312.544ZM28.7241 314.428H29.8641C29.6601 313.204 28.7121 312.424 27.3201 312.424C25.8921 312.424 24.7401 313.084 24.7401 314.224C24.7401 315.424 25.7001 315.832 26.5761 316.012L27.5361 316.204C28.2321 316.348 28.8441 316.624 28.8441 317.272C28.8441 317.872 28.1721 318.232 27.3441 318.232C26.3841 318.232 25.8681 317.74 25.7001 316.912H24.5481C24.6681 318.04 25.6281 319.156 27.3201 319.156C28.7961 319.156 29.9481 318.424 29.9481 317.152C29.9481 315.904 28.9161 315.46 27.7401 315.232L26.8281 315.052C26.2041 314.932 25.8441 314.692 25.8441 314.176C25.8441 313.588 26.5641 313.36 27.2001 313.36C27.9561 313.36 28.5561 313.66 28.7241 314.428ZM31.6448 310.924V312.544H30.6248V313.42H31.6448V317.38C31.6448 318.724 31.9328 319 33.1688 319H33.9608V318.088H33.4088C32.7848 318.088 32.7368 317.92 32.7368 317.248V313.42H33.9608V312.544H32.7368V310.924H31.6448ZM35.9085 316.132H40.8765C41.0205 314.092 39.8325 312.436 37.8645 312.436C36.1005 312.436 34.7325 313.744 34.7325 315.784C34.7325 317.692 35.8605 319.156 37.9005 319.156C39.4725 319.156 40.4925 318.244 40.7925 317.128H39.6645C39.3885 317.764 38.8605 318.196 37.9005 318.196C36.9405 318.196 35.9565 317.524 35.9085 316.132ZM35.9205 315.196C36.0165 313.9 36.8925 313.372 37.8645 313.372C39.0165 313.372 39.7005 314.284 39.7245 315.196H35.9205ZM45.3652 313.684V312.52C45.2452 312.508 45.1492 312.508 45.0412 312.508C44.2012 312.532 43.5412 312.94 43.2172 313.672V312.544H42.1492V319H43.2412V315.616C43.2412 314.2 43.7452 313.636 44.7532 313.636C44.9332 313.636 45.1372 313.66 45.3652 313.684ZM47.0296 316.132H51.9976C52.1416 314.092 50.9536 312.436 48.9856 312.436C47.2216 312.436 45.8536 313.744 45.8536 315.784C45.8536 317.692 46.9816 319.156 49.0216 319.156C50.5936 319.156 51.6136 318.244 51.9136 317.128H50.7856C50.5096 317.764 49.9816 318.196 49.0216 318.196C48.0616 318.196 47.0776 317.524 47.0296 316.132ZM47.0416 315.196C47.1376 313.9 48.0136 313.372 48.9856 313.372C50.1376 313.372 50.8216 314.284 50.8456 315.196H47.0416ZM57.7568 310.3V313.564C57.3608 312.88 56.6768 312.436 55.6448 312.436C54.1688 312.436 52.8848 313.672 52.8848 315.796C52.8848 317.932 54.1688 319.156 55.6448 319.156C56.6768 319.156 57.3608 318.712 57.7568 318.028V319H58.8488V310.3H57.7568ZM55.9208 313.372C56.8928 313.372 57.8048 314.092 57.8048 315.796C57.8048 317.5 56.8928 318.22 55.9208 318.22C54.8048 318.22 54.0728 317.332 54.0728 315.796C54.0728 314.26 54.8048 313.372 55.9208 313.372ZM64.7147 319H65.8067V310.3H65.0627C64.5827 311.248 63.9467 311.404 62.6987 311.452V312.196H64.7147V319ZM72.5407 316.144C72.5407 317.488 71.6407 318.244 70.5967 318.244C69.3847 318.244 68.7967 317.572 68.6287 316.48H67.5007C67.6687 317.884 68.5807 319.156 70.5967 319.156C72.2167 319.156 73.6927 318.124 73.6927 316.132C73.6927 314.212 72.3607 313.132 70.8367 313.132C70.1167 313.132 69.4207 313.348 68.9647 313.792L69.2647 311.32H73.3687V310.3H68.3767L67.8127 314.98L68.9047 315.04C69.0967 314.608 69.6847 314.08 70.5847 314.08C71.5327 314.08 72.5407 314.704 72.5407 316.144ZM80.9217 312.364C80.9217 311.08 79.7937 310.144 78.0177 310.144C76.2297 310.144 75.1137 311.08 75.1137 312.364C75.1137 313.072 75.4497 313.9 76.3137 314.368C75.1737 314.824 74.8377 315.76 74.8377 316.552C74.8377 318.208 76.2177 319.156 78.0177 319.156C79.8057 319.156 81.1857 318.208 81.1857 316.552C81.1857 315.76 80.8497 314.824 79.7217 314.368C80.5857 313.9 80.9217 313.072 80.9217 312.364ZM78.0177 311.056C79.0977 311.056 79.8177 311.632 79.8177 312.496C79.8177 313.372 79.0977 314.02 78.0177 314.02C76.9257 314.02 76.2057 313.372 76.2057 312.496C76.2057 311.632 76.9257 311.056 78.0177 311.056ZM76.0017 316.552C76.0017 315.532 76.7817 314.824 78.0177 314.824C79.2417 314.824 80.0337 315.532 80.0337 316.552C80.0337 317.572 79.2417 318.244 78.0177 318.244C76.7817 318.244 76.0017 317.572 76.0017 316.552ZM85.1011 317.296C85.1011 318.484 86.1091 319.156 87.3211 319.156C88.4611 319.156 89.1331 318.772 89.5291 318.112C89.5411 318.496 89.5771 318.76 89.6131 319H90.7171C90.5971 318.388 90.5371 317.644 90.5491 316.564L90.5611 315.076C90.5731 313.264 89.7691 312.412 87.9931 312.412C86.7331 312.412 85.5091 313.192 85.4011 314.584H86.5291C86.5771 313.792 87.1051 313.3 88.0051 313.3C88.8091 313.3 89.4691 313.696 89.4691 314.872V315.028C86.8171 315.328 85.1011 315.772 85.1011 317.296ZM89.5531 315.892V316.3C89.5531 317.824 88.5811 318.292 87.5611 318.292C86.7811 318.292 86.3131 317.884 86.3131 317.272C86.3131 316.384 87.5731 316.096 89.5531 315.892ZM93.2802 313.516V312.544H92.1882V319H93.2802V315.496C93.2802 314.116 93.9282 313.384 94.9842 313.384C96.2322 313.384 96.4002 314.248 96.4002 315.244V319H97.4922V314.92C97.4922 313.444 96.9282 312.436 95.3682 312.436C94.2762 312.436 93.6522 312.904 93.2802 313.516ZM99.4377 310.924V312.544H98.4177V313.42H99.4377V317.38C99.4377 318.724 99.7257 319 100.962 319H101.754V318.088H101.202C100.578 318.088 100.53 317.92 100.53 317.248V313.42H101.754V312.544H100.53V310.924H99.4377ZM104.237 310.3H103.145V311.62H104.237V310.3ZM104.237 312.544H103.145V319H104.237V312.544ZM107.061 319V315.496C107.061 314.116 107.685 313.384 108.621 313.384C109.809 313.384 110.001 314.248 110.001 315.244V319H111.093V315.496C111.093 314.116 111.717 313.384 112.653 313.384C113.841 313.384 114.033 314.248 114.033 315.244V319H115.125V314.92C115.125 313.444 114.537 312.436 113.037 312.436C112.137 312.436 111.381 312.784 110.865 313.576C110.577 312.868 109.989 312.436 109.005 312.436C108.033 312.436 107.433 312.904 107.061 313.516V312.544H105.969V319H107.061ZM117.854 310.3H116.762V311.62H117.854V310.3ZM117.854 312.544H116.762V319H117.854V312.544ZM124.963 314.704C124.819 313.612 123.823 312.436 122.263 312.436C120.355 312.436 119.143 313.864 119.143 315.784C119.143 317.752 120.307 319.156 122.155 319.156C123.655 319.156 124.819 318.112 125.035 316.9H123.907C123.751 317.584 123.103 318.196 122.191 318.196C121.231 318.196 120.331 317.416 120.331 315.772C120.331 314.152 121.219 313.396 122.191 313.396C123.031 313.396 123.703 313.936 123.859 314.704H124.963ZM129.482 313.684V312.52C129.362 312.508 129.266 312.508 129.158 312.508C128.318 312.532 127.658 312.94 127.334 313.672V312.544H126.266V319H127.358V315.616C127.358 314.2 127.862 313.636 128.87 313.636C129.05 313.636 129.254 313.66 129.482 313.684ZM136.187 315.796C136.187 313.456 134.591 312.436 133.091 312.436C131.591 312.436 129.995 313.456 129.995 315.796C129.995 318.136 131.591 319.156 133.091 319.156C134.591 319.156 136.187 318.136 136.187 315.796ZM133.091 318.196C132.107 318.196 131.159 317.512 131.159 315.796C131.159 314.032 132.107 313.396 133.091 313.396C134.075 313.396 135.023 314.08 135.023 315.796C135.023 317.452 134.075 318.196 133.091 318.196ZM138.585 310.3H137.493V319H138.585V318.028C138.981 318.712 139.665 319.156 140.697 319.156C142.173 319.156 143.457 317.932 143.457 315.796C143.457 313.672 142.173 312.436 140.697 312.436C139.665 312.436 138.981 312.88 138.585 313.564V310.3ZM140.421 318.22C139.449 318.22 138.537 317.5 138.537 315.796C138.537 314.092 139.449 313.372 140.421 313.372C141.537 313.372 142.269 314.26 142.269 315.796C142.269 317.332 141.537 318.22 140.421 318.22ZM145.792 310.3H144.7V311.62H145.792V310.3ZM145.792 312.544H144.7V319H145.792V312.544ZM147.14 317.296C147.14 318.484 148.148 319.156 149.36 319.156C150.5 319.156 151.172 318.772 151.568 318.112C151.58 318.496 151.616 318.76 151.652 319H152.756C152.636 318.388 152.576 317.644 152.588 316.564L152.6 315.076C152.612 313.264 151.808 312.412 150.032 312.412C148.772 312.412 147.548 313.192 147.44 314.584H148.568C148.616 313.792 149.144 313.3 150.044 313.3C150.848 313.3 151.508 313.696 151.508 314.872V315.028C148.856 315.328 147.14 315.772 147.14 317.296ZM151.592 315.892V316.3C151.592 317.824 150.62 318.292 149.6 318.292C148.82 318.292 148.352 317.884 148.352 317.272C148.352 316.384 149.612 316.096 151.592 315.892ZM155.319 319V310.3H154.227V319H155.319ZM7.08 329.684V328.52C6.96 328.508 6.864 328.508 6.756 328.508C5.916 328.532 5.256 328.94 4.932 329.672V328.544H3.864V335H4.956V331.616C4.956 330.2 5.46 329.636 6.468 329.636C6.648 329.636 6.852 329.66 7.08 329.684ZM8.74444 332.132H13.7124C13.8564 330.092 12.6684 328.436 10.7004 328.436C8.93644 328.436 7.56844 329.744 7.56844 331.784C7.56844 333.692 8.69644 335.156 10.7364 335.156C12.3084 335.156 13.3284 334.244 13.6284 333.128H12.5004C12.2244 333.764 11.6964 334.196 10.7364 334.196C9.77644 334.196 8.79244 333.524 8.74444 332.132ZM8.75644 331.196C8.85244 329.9 9.72844 329.372 10.7004 329.372C11.8524 329.372 12.5364 330.284 12.5604 331.196H8.75644ZM18.7045 330.428H19.8445C19.6405 329.204 18.6925 328.424 17.3005 328.424C15.8725 328.424 14.7205 329.084 14.7205 330.224C14.7205 331.424 15.6805 331.832 16.5565 332.012L17.5165 332.204C18.2125 332.348 18.8245 332.624 18.8245 333.272C18.8245 333.872 18.1525 334.232 17.3245 334.232C16.3645 334.232 15.8485 333.74 15.6805 332.912H14.5285C14.6485 334.04 15.6085 335.156 17.3005 335.156C18.7765 335.156 19.9285 334.424 19.9285 333.152C19.9285 331.904 18.8965 331.46 17.7205 331.232L16.8085 331.052C16.1845 330.932 15.8245 330.692 15.8245 330.176C15.8245 329.588 16.5445 329.36 17.1805 329.36C17.9365 329.36 18.5365 329.66 18.7045 330.428ZM22.4052 326.3H21.3132V327.62H22.4052V326.3ZM22.4052 328.544H21.3132V335H22.4052V328.544ZM27.8334 330.428H28.9734C28.7694 329.204 27.8214 328.424 26.4294 328.424C25.0014 328.424 23.8494 329.084 23.8494 330.224C23.8494 331.424 24.8094 331.832 25.6854 332.012L26.6454 332.204C27.3414 332.348 27.9534 332.624 27.9534 333.272C27.9534 333.872 27.2814 334.232 26.4534 334.232C25.4934 334.232 24.9774 333.74 24.8094 332.912H23.6574C23.7774 334.04 24.7374 335.156 26.4294 335.156C27.9054 335.156 29.0574 334.424 29.0574 333.152C29.0574 331.904 28.0254 331.46 26.8494 331.232L25.9374 331.052C25.3134 330.932 24.9534 330.692 24.9534 330.176C24.9534 329.588 25.6734 329.36 26.3094 329.36C27.0654 329.36 27.6654 329.66 27.8334 330.428ZM30.7541 326.924V328.544H29.7341V329.42H30.7541V333.38C30.7541 334.724 31.0421 335 32.2781 335H33.0701V334.088H32.5181C31.8941 334.088 31.8461 333.92 31.8461 333.248V329.42H33.0701V328.544H31.8461V326.924H30.7541ZM33.9605 333.296C33.9605 334.484 34.9685 335.156 36.1805 335.156C37.3205 335.156 37.9925 334.772 38.3885 334.112C38.4005 334.496 38.4365 334.76 38.4725 335H39.5765C39.4565 334.388 39.3965 333.644 39.4085 332.564L39.4205 331.076C39.4325 329.264 38.6285 328.412 36.8525 328.412C35.5925 328.412 34.3685 329.192 34.2605 330.584H35.3885C35.4365 329.792 35.9645 329.3 36.8645 329.3C37.6685 329.3 38.3285 329.696 38.3285 330.872V331.028C35.6765 331.328 33.9605 331.772 33.9605 333.296ZM38.4125 331.892V332.3C38.4125 333.824 37.4405 334.292 36.4205 334.292C35.6405 334.292 35.1725 333.884 35.1725 333.272C35.1725 332.384 36.4325 332.096 38.4125 331.892ZM42.1396 329.516V328.544H41.0476V335H42.1396V331.496C42.1396 330.116 42.7876 329.384 43.8436 329.384C45.0916 329.384 45.2596 330.248 45.2596 331.244V335H46.3516V330.92C46.3516 329.444 45.7876 328.436 44.2276 328.436C43.1356 328.436 42.5116 328.904 42.1396 329.516ZM48.2971 326.924V328.544H47.2771V329.42H48.2971V333.38C48.2971 334.724 48.5851 335 49.8211 335H50.6131V334.088H50.0611C49.4371 334.088 49.3891 333.92 49.3891 333.248V329.42H50.6131V328.544H49.3891V326.924H48.2971ZM55.8271 326.3H54.7351V335H55.8271V334.028C56.2231 334.712 56.9071 335.156 57.9391 335.156C59.4151 335.156 60.6991 333.932 60.6991 331.796C60.6991 329.672 59.4151 328.436 57.9391 328.436C56.9071 328.436 56.2231 328.88 55.8271 329.564V326.3ZM57.6631 334.22C56.6911 334.22 55.7791 333.5 55.7791 331.796C55.7791 330.092 56.6911 329.372 57.6631 329.372C58.7791 329.372 59.5111 330.26 59.5111 331.796C59.5111 333.332 58.7791 334.22 57.6631 334.22ZM61.5581 333.296C61.5581 334.484 62.5661 335.156 63.7781 335.156C64.9181 335.156 65.5901 334.772 65.9861 334.112C65.9981 334.496 66.0341 334.76 66.0701 335H67.1741C67.0541 334.388 66.9941 333.644 67.0061 332.564L67.0181 331.076C67.0301 329.264 66.2261 328.412 64.4501 328.412C63.1901 328.412 61.9661 329.192 61.8581 330.584H62.9861C63.0341 329.792 63.5621 329.3 64.4621 329.3C65.2661 329.3 65.9261 329.696 65.9261 330.872V331.028C63.2741 331.328 61.5581 331.772 61.5581 333.296ZM66.0101 331.892V332.3C66.0101 333.824 65.0381 334.292 64.0181 334.292C63.2381 334.292 62.7701 333.884 62.7701 333.272C62.7701 332.384 64.0301 332.096 66.0101 331.892ZM74.0213 330.704C73.8773 329.612 72.8813 328.436 71.3213 328.436C69.4133 328.436 68.2013 329.864 68.2013 331.784C68.2013 333.752 69.3652 335.156 71.2133 335.156C72.7133 335.156 73.8773 334.112 74.0933 332.9H72.9653C72.8093 333.584 72.1613 334.196 71.2493 334.196C70.2893 334.196 69.3893 333.416 69.3893 331.772C69.3893 330.152 70.2773 329.396 71.2493 329.396C72.0893 329.396 72.7613 329.936 72.9173 330.704H74.0213ZM75.6369 326.924V328.544H74.6169V329.42H75.6369V333.38C75.6369 334.724 75.9249 335 77.1609 335H77.9529V334.088H77.4009C76.7769 334.088 76.7289 333.92 76.7289 333.248V329.42H77.9529V328.544H76.7289V326.924H75.6369ZM79.9007 332.132H84.8687C85.0127 330.092 83.8247 328.436 81.8567 328.436C80.0927 328.436 78.7247 329.744 78.7247 331.784C78.7247 333.692 79.8527 335.156 81.8927 335.156C83.4647 335.156 84.4847 334.244 84.7847 333.128H83.6567C83.3807 333.764 82.8527 334.196 81.8927 334.196C80.9327 334.196 79.9487 333.524 79.9007 332.132ZM79.9127 331.196C80.0087 329.9 80.8847 329.372 81.8567 329.372C83.0087 329.372 83.6927 330.284 83.7167 331.196H79.9127ZM89.3573 329.684V328.52C89.2373 328.508 89.1413 328.508 89.0333 328.508C88.1933 328.532 87.5333 328.94 87.2093 329.672V328.544H86.1413V335H87.2333V331.616C87.2333 330.2 87.7373 329.636 88.7453 329.636C88.9253 329.636 89.1293 329.66 89.3573 329.684ZM91.499 326.3H90.407V327.62H91.499V326.3ZM91.499 328.544H90.407V335H91.499V328.544ZM92.8472 333.296C92.8472 334.484 93.8552 335.156 95.0672 335.156C96.2072 335.156 96.8792 334.772 97.2752 334.112C97.2872 334.496 97.3232 334.76 97.3592 335H98.4632C98.3432 334.388 98.2832 333.644 98.2952 332.564L98.3072 331.076C98.3192 329.264 97.5152 328.412 95.7392 328.412C94.4792 328.412 93.2552 329.192 93.1472 330.584H94.2752C94.3232 329.792 94.8512 329.3 95.7512 329.3C96.5552 329.3 97.2152 329.696 97.2152 330.872V331.028C94.5632 331.328 92.8472 331.772 92.8472 333.296ZM97.2992 331.892V332.3C97.2992 333.824 96.3272 334.292 95.3072 334.292C94.5272 334.292 94.0592 333.884 94.0592 333.272C94.0592 332.384 95.3192 332.096 97.2992 331.892ZM108.554 331.796C108.554 329.456 106.958 328.436 105.458 328.436C103.958 328.436 102.362 329.456 102.362 331.796C102.362 334.136 103.958 335.156 105.458 335.156C106.958 335.156 108.554 334.136 108.554 331.796ZM105.458 334.196C104.474 334.196 103.526 333.512 103.526 331.796C103.526 330.032 104.474 329.396 105.458 329.396C106.442 329.396 107.39 330.08 107.39 331.796C107.39 333.452 106.442 334.196 105.458 334.196ZM113.856 334.076V335H114.948V328.544H113.856V332.096C113.856 333.476 113.244 334.208 112.212 334.208C111.024 334.208 110.856 333.344 110.856 332.348V328.544H109.764V332.672C109.764 334.148 110.328 335.156 111.828 335.156C112.896 335.156 113.484 334.688 113.856 334.076ZM116.992 326.924V328.544H115.972V329.42H116.992V333.38C116.992 334.724 117.28 335 118.516 335H119.308V334.088H118.756C118.132 334.088 118.084 333.92 118.084 333.248V329.42H119.308V328.544H118.084V326.924H116.992ZM129.202 331.796C129.202 329.456 127.606 328.436 126.106 328.436C124.606 328.436 123.01 329.456 123.01 331.796C123.01 334.136 124.606 335.156 126.106 335.156C127.606 335.156 129.202 334.136 129.202 331.796ZM126.106 334.196C125.122 334.196 124.174 333.512 124.174 331.796C124.174 330.032 125.122 329.396 126.106 329.396C127.09 329.396 128.038 330.08 128.038 331.796C128.038 333.452 127.09 334.196 126.106 334.196ZM130.843 328.076V328.544H129.943V329.42H130.843V335H131.935V329.42H133.147V328.544H131.935V328.016C131.935 327.344 132.031 327.212 132.607 327.212H133.147V326.3H132.583C131.119 326.3 130.843 326.732 130.843 328.076ZM138.473 335H139.565V326.3H138.821C138.341 327.248 137.705 327.404 136.457 327.452V328.196H138.473V335ZM141.51 326.3V327.68H142.098L141.462 329.348H142.158L142.89 327.776V326.3H141.51ZM149.276 330.884C149.216 332.9 148.472 334.244 147.128 334.244C146.24 334.244 145.652 333.764 145.508 332.984H144.32C144.5 334.088 145.304 335.156 147.008 335.156C149.516 335.156 150.404 332.804 150.404 330.344C150.404 327.656 149.408 326.144 147.236 326.144C145.376 326.144 144.176 327.524 144.176 329.132C144.176 330.884 145.364 332.096 146.972 332.096C148.124 332.096 148.88 331.568 149.276 330.884ZM147.248 327.056C148.4 327.056 149.132 327.884 149.132 329.084C149.132 330.272 148.376 331.136 147.236 331.136C146.108 331.136 145.34 330.272 145.34 329.084C145.34 327.896 146.12 327.056 147.248 327.056ZM156.564 332.144C156.564 333.488 155.664 334.244 154.62 334.244C153.408 334.244 152.82 333.572 152.652 332.48H151.524C151.692 333.884 152.604 335.156 154.62 335.156C156.24 335.156 157.716 334.124 157.716 332.132C157.716 330.212 156.384 329.132 154.86 329.132C154.14 329.132 153.444 329.348 152.988 329.792L153.288 327.32H157.392V326.3H152.4L151.836 330.98L152.928 331.04C153.12 330.608 153.708 330.08 154.608 330.08C155.556 330.08 156.564 330.704 156.564 332.144ZM164.945 328.364C164.945 327.08 163.817 326.144 162.041 326.144C160.253 326.144 159.137 327.08 159.137 328.364C159.137 329.072 159.473 329.9 160.337 330.368C159.197 330.824 158.861 331.76 158.861 332.552C158.861 334.208 160.241 335.156 162.041 335.156C163.829 335.156 165.209 334.208 165.209 332.552C165.209 331.76 164.873 330.824 163.745 330.368C164.609 329.9 164.945 329.072 164.945 328.364ZM162.041 327.056C163.121 327.056 163.841 327.632 163.841 328.496C163.841 329.372 163.121 330.02 162.041 330.02C160.949 330.02 160.229 329.372 160.229 328.496C160.229 327.632 160.949 327.056 162.041 327.056ZM160.025 332.552C160.025 331.532 160.805 330.824 162.041 330.824C163.265 330.824 164.057 331.532 164.057 332.552C164.057 333.572 163.265 334.244 162.041 334.244C160.805 334.244 160.025 333.572 160.025 332.552ZM7.56 346.428H8.7C8.496 345.204 7.548 344.424 6.156 344.424C4.728 344.424 3.576 345.084 3.576 346.224C3.576 347.424 4.536 347.832 5.412 348.012L6.372 348.204C7.068 348.348 7.68 348.624 7.68 349.272C7.68 349.872 7.008 350.232 6.18 350.232C5.22 350.232 4.704 349.74 4.536 348.912H3.384C3.504 350.04 4.464 351.156 6.156 351.156C7.632 351.156 8.784 350.424 8.784 349.152C8.784 347.904 7.752 347.46 6.576 347.232L5.664 347.052C5.04 346.932 4.68 346.692 4.68 346.176C4.68 345.588 5.4 345.36 6.036 345.36C6.792 345.36 7.392 345.66 7.56 346.428ZM9.78469 349.296C9.78469 350.484 10.7927 351.156 12.0047 351.156C13.1447 351.156 13.8167 350.772 14.2127 350.112C14.2247 350.496 14.2607 350.76 14.2967 351H15.4007C15.2807 350.388 15.2207 349.644 15.2327 348.564L15.2447 347.076C15.2567 345.264 14.4527 344.412 12.6767 344.412C11.4167 344.412 10.1927 345.192 10.0847 346.584H11.2127C11.2607 345.792 11.7887 345.3 12.6887 345.3C13.4927 345.3 14.1527 345.696 14.1527 346.872V347.028C11.5007 347.328 9.78469 347.772 9.78469 349.296ZM14.2367 347.892V348.3C14.2367 349.824 13.2647 350.292 12.2447 350.292C11.4647 350.292 10.9967 349.884 10.9967 349.272C10.9967 348.384 12.2567 348.096 14.2367 347.892ZM17.9638 351V347.496C17.9638 346.116 18.5878 345.384 19.5238 345.384C20.7118 345.384 20.9038 346.248 20.9038 347.244V351H21.9958V347.496C21.9958 346.116 22.6198 345.384 23.5558 345.384C24.7438 345.384 24.9358 346.248 24.9358 347.244V351H26.0278V346.92C26.0278 345.444 25.4398 344.436 23.9398 344.436C23.0398 344.436 22.2838 344.784 21.7678 345.576C21.4798 344.868 20.8918 344.436 19.9078 344.436C18.9358 344.436 18.3358 344.904 17.9638 345.516V344.544H16.8718V351H17.9638ZM28.7568 344.544H27.6648V353.1H28.7568V350.028C29.1528 350.712 29.8368 351.156 30.8688 351.156C32.3448 351.156 33.6288 349.932 33.6288 347.796C33.6288 345.672 32.3448 344.436 30.8688 344.436C29.8368 344.436 29.1528 344.88 28.7568 345.564V344.544ZM30.5928 350.22C29.6208 350.22 28.7088 349.5 28.7088 347.796C28.7088 346.092 29.6208 345.372 30.5928 345.372C31.7088 345.372 32.4408 346.26 32.4408 347.796C32.4408 349.332 31.7088 350.22 30.5928 350.22ZM35.999 351V342.3H34.907V351H35.999ZM38.4632 348.132H43.4312C43.5752 346.092 42.3872 344.436 40.4192 344.436C38.6552 344.436 37.2872 345.744 37.2872 347.784C37.2872 349.692 38.4152 351.156 40.4552 351.156C42.0272 351.156 43.0472 350.244 43.3472 349.128H42.2192C41.9432 349.764 41.4152 350.196 40.4552 350.196C39.4952 350.196 38.5112 349.524 38.4632 348.132ZM38.4752 347.196C38.5712 345.9 39.4472 345.372 40.4192 345.372C41.5712 345.372 42.2552 346.284 42.2792 347.196H38.4752ZM48.4233 346.428H49.5633C49.3593 345.204 48.4113 344.424 47.0193 344.424C45.5913 344.424 44.4393 345.084 44.4393 346.224C44.4393 347.424 45.3993 347.832 46.2753 348.012L47.2353 348.204C47.9313 348.348 48.5433 348.624 48.5433 349.272C48.5433 349.872 47.8713 350.232 47.0433 350.232C46.0833 350.232 45.5673 349.74 45.3993 348.912H44.2473C44.3673 350.04 45.3273 351.156 47.0193 351.156C48.4953 351.156 49.6473 350.424 49.6473 349.152C49.6473 347.904 48.6153 347.46 47.4393 347.232L46.5273 347.052C45.9033 346.932 45.5433 346.692 45.5433 346.176C45.5433 345.588 46.2633 345.36 46.8993 345.36C47.6553 345.36 48.2553 345.66 48.4233 346.428ZM54.1916 342.924V344.544H53.1716V345.42H54.1916V349.38C54.1916 350.724 54.4796 351 55.7156 351H56.5076V350.088H55.9556C55.3316 350.088 55.2836 349.92 55.2836 349.248V345.42H56.5076V344.544H55.2836V342.924H54.1916ZM57.398 349.296C57.398 350.484 58.406 351.156 59.618 351.156C60.758 351.156 61.43 350.772 61.826 350.112C61.838 350.496 61.874 350.76 61.91 351H63.014C62.894 350.388 62.834 349.644 62.846 348.564L62.858 347.076C62.87 345.264 62.066 344.412 60.29 344.412C59.03 344.412 57.806 345.192 57.698 346.584H58.826C58.874 345.792 59.402 345.3 60.302 345.3C61.106 345.3 61.766 345.696 61.766 346.872V347.028C59.114 347.328 57.398 347.772 57.398 349.296ZM61.85 347.892V348.3C61.85 349.824 60.878 350.292 59.858 350.292C59.078 350.292 58.61 349.884 58.61 349.272C58.61 348.384 59.87 348.096 61.85 347.892ZM65.5771 342.3H64.4851V351H65.5771V348.84L66.3331 348.024L68.5291 351H69.8611L67.0651 347.22L69.5251 344.544H68.1811L65.5771 347.448V342.3ZM71.0999 348.132H76.0679C76.2119 346.092 75.0239 344.436 73.0559 344.436C71.2919 344.436 69.9239 345.744 69.9239 347.784C69.9239 349.692 71.0519 351.156 73.0919 351.156C74.6639 351.156 75.6839 350.244 75.9839 349.128H74.8559C74.5799 349.764 74.0519 350.196 73.0919 350.196C72.1319 350.196 71.1479 349.524 71.0999 348.132ZM71.1119 347.196C71.2079 345.9 72.0839 345.372 73.0559 345.372C74.2079 345.372 74.8919 346.284 74.9159 347.196H71.1119ZM78.4326 345.516V344.544H77.3406V351H78.4326V347.496C78.4326 346.116 79.0806 345.384 80.1366 345.384C81.3846 345.384 81.5526 346.248 81.5526 347.244V351H82.6446V346.92C82.6446 345.444 82.0806 344.436 80.5206 344.436C79.4286 344.436 78.8046 344.904 78.4326 345.516Z" fill="black"/>
<path d="M55.109 294.144C53.705 294.144 51.965 294.864 51.965 296.52C51.965 297.972 53.165 298.632 54.353 298.896L55.433 299.124C56.525 299.364 57.305 299.748 57.305 300.66C57.305 301.512 56.561 302.124 55.277 302.124C53.945 302.124 53.105 301.5 52.877 300.3H51.677C51.905 302.04 53.201 303.156 55.253 303.156C56.981 303.156 58.565 302.256 58.565 300.552C58.565 298.8 56.969 298.296 55.637 298.008L54.629 297.78C53.825 297.6 53.213 297.216 53.213 296.448C53.213 295.476 54.389 295.176 55.061 295.176C55.937 295.176 56.921 295.512 57.221 296.52H58.409C58.073 294.84 56.669 294.144 55.109 294.144ZM62.7365 296.544L61.4525 301.32L60.2165 296.544H59.0405L60.9005 303H61.8965L63.2765 297.804L64.7045 303H65.7005L67.5605 296.544H66.3845L65.1485 301.32L63.8645 296.544H62.7365ZM69.5732 294.3H68.4812V295.62H69.5732V294.3ZM69.5732 296.544H68.4812V303H69.5732V296.544ZM71.6174 294.924V296.544H70.5974V297.42H71.6174V301.38C71.6174 302.724 71.9054 303 73.1414 303H73.9334V302.088H73.3814C72.7574 302.088 72.7094 301.92 72.7094 301.248V297.42H73.9334V296.544H72.7094V294.924H71.6174ZM74.7397 302.052V303H79.8158V302.052H76.0238L79.7438 297.492V296.544H74.9798V297.492H78.4718L74.7397 302.052ZM81.7991 300.132H86.7671C86.9111 298.092 85.7231 296.436 83.7551 296.436C81.9911 296.436 80.6231 297.744 80.6231 299.784C80.6231 301.692 81.7511 303.156 83.7911 303.156C85.3631 303.156 86.3831 302.244 86.6831 301.128H85.5551C85.2791 301.764 84.7511 302.196 83.7911 302.196C82.8311 302.196 81.8471 301.524 81.7991 300.132ZM81.8111 299.196C81.9071 297.9 82.7831 297.372 83.7551 297.372C84.9071 297.372 85.5911 298.284 85.6151 299.196H81.8111ZM91.2558 297.684V296.52C91.1358 296.508 91.0398 296.508 90.9318 296.508C90.0918 296.532 89.4318 296.94 89.1078 297.672V296.544H88.0398V303H89.1318V299.616C89.1318 298.2 89.6358 297.636 90.6438 297.636C90.8238 297.636 91.0278 297.66 91.2558 297.684ZM93.3974 303V294.3H92.3054V303H93.3974ZM94.7456 301.296C94.7456 302.484 95.7536 303.156 96.9656 303.156C98.1056 303.156 98.7776 302.772 99.1736 302.112C99.1856 302.496 99.2216 302.76 99.2576 303H100.362C100.242 302.388 100.182 301.644 100.194 300.564L100.206 299.076C100.218 297.264 99.4136 296.412 97.6376 296.412C96.3776 296.412 95.1536 297.192 95.0456 298.584H96.1736C96.2216 297.792 96.7496 297.3 97.6496 297.3C98.4536 297.3 99.1136 297.696 99.1136 298.872V299.028C96.4616 299.328 94.7456 299.772 94.7456 301.296ZM99.1976 299.892V300.3C99.1976 301.824 98.2256 302.292 97.2056 302.292C96.4256 302.292 95.9576 301.884 95.9576 301.272C95.9576 300.384 97.2176 300.096 99.1976 299.892ZM102.925 297.516V296.544H101.833V303H102.925V299.496C102.925 298.116 103.573 297.384 104.629 297.384C105.877 297.384 106.045 298.248 106.045 299.244V303H107.137V298.92C107.137 297.444 106.573 296.436 105.013 296.436C103.921 296.436 103.297 296.904 102.925 297.516ZM113.198 294.3V297.564C112.802 296.88 112.118 296.436 111.086 296.436C109.61 296.436 108.326 297.672 108.326 299.796C108.326 301.932 109.61 303.156 111.086 303.156C112.118 303.156 112.802 302.712 113.198 302.028V303H114.29V294.3H113.198ZM111.362 297.372C112.334 297.372 113.246 298.092 113.246 299.796C113.246 301.5 112.334 302.22 111.362 302.22C110.246 302.22 109.514 301.332 109.514 299.796C109.514 298.26 110.246 297.372 111.362 297.372Z" fill="#FF3A17"/>
<rect x="0.5" y="234.5" width="189" height="9" rx="4.5" fill="url(#paint0_linear_635_549)" stroke="#FF46EC"/>
</g>
<defs>
<linearGradient id="paint0_linear_635_549" x1="183.949" y1="244" x2="0" y2="244" gradientUnits="userSpaceOnUse">
<stop stop-color="#FF46EC"/>
<stop offset="1" stop-color="white"/>
</linearGradient>
<clipPath id="clip0_635_549">
<rect width="252" height="355" fill="white"/>
</clipPath>
</defs>
</svg>
