<svg viewBox="0 0 145 144" fill="none" xmlns="http://www.w3.org/2000/svg">
<circle r="13.5" transform="matrix(-1 0 0 1 103.5 38.5)" fill="#ABABAB"/>
<circle r="13.5" transform="matrix(-1 0 0 1 103.5 100.5)" fill="#ABABAB"/>
<circle r="13.5" transform="matrix(-1 0 0 1 22.5 86.5)" fill="#ABABAB"/>
<circle r="13.5" transform="matrix(-1 0 0 1 41.5 30.5)" stroke="#E0DFDF" stroke-width="2" stroke-linejoin="round"/>
<circle r="13.5" transform="matrix(-1 0 0 1 79.5 72.5)" stroke="#E0DFDF" stroke-width="2" stroke-linejoin="round"/>
<circle r="13.5" transform="matrix(-1 0 0 1 66.5 109.5)" stroke="#E0DFDF" stroke-width="2" stroke-linejoin="round"/>
<circle cx="72" cy="72" r="71" stroke="#ABABAB" stroke-linejoin="round"/>
<circle r="7.5" transform="matrix(-1 0 0 1 103.5 38.5)" fill="#FF3A17"/>
<circle r="7.5" transform="matrix(-1 0 0 1 103.5 100.5)" fill="#FF3A17"/>
<circle r="7.5" transform="matrix(-1 0 0 1 22.5 86.5)" fill="#FF3A17"/>
<circle r="7.5" transform="matrix(-1 0 0 1 41.5 30.5)" fill="#FF46EC"/>
<circle r="7.5" transform="matrix(-1 0 0 1 79.5 72.5)" fill="#FF46EC"/>
<circle r="7.5" transform="matrix(-1 0 0 1 66.5 109.5)" fill="#FF46EC"/>
</svg>
