<svg viewBox="0 0 1118 749" fill="none" xmlns="http://www.w3.org/2000/svg">
<g clip-path="url(#clip0_634_51)">
<path d="M53.2851 14H55.3711V3.85H53.9431V12.488L49.3091 3.85H47.2091V14H48.6371V5.334L53.2851 14ZM64.3155 10.262C64.3155 7.532 62.4535 6.342 60.7035 6.342C58.9535 6.342 57.0915 7.532 57.0915 10.262C57.0915 12.992 58.9535 14.182 60.7035 14.182C62.4535 14.182 64.3155 12.992 64.3155 10.262ZM60.7035 13.062C59.5555 13.062 58.4495 12.264 58.4495 10.262C58.4495 8.204 59.5555 7.462 60.7035 7.462C61.8515 7.462 62.9575 8.26 62.9575 10.262C62.9575 12.194 61.8515 13.062 60.7035 13.062ZM69.5913 7.798V6.44C69.4513 6.426 69.3393 6.426 69.2133 6.426C68.2333 6.454 67.4633 6.93 67.0853 7.784V6.468H65.8393V14H67.1133V10.052C67.1133 8.4 67.7013 7.742 68.8773 7.742C69.0873 7.742 69.3253 7.77 69.5913 7.798ZM71.1798 4.578V6.468H69.9898V7.49H71.1798V12.11C71.1798 13.678 71.5158 14 72.9578 14H73.8818V12.936H73.2378C72.5098 12.936 72.4538 12.74 72.4538 11.956V7.49H73.8818V6.468H72.4538V4.578H71.1798ZM76.7793 7.602V3.85H75.5053V14H76.7793V9.912C76.7793 8.302 77.5353 7.448 78.7673 7.448C80.2233 7.448 80.4193 8.456 80.4193 9.618V14H81.6933V9.24C81.6933 7.518 81.0353 6.342 79.2153 6.342C77.9413 6.342 77.2133 6.888 76.7793 7.602ZM83.193 10.766H87.645V9.562H83.193V10.766ZM97.3014 12.376L95.2994 3.85H93.6194L91.7434 12.376L89.7834 3.85H88.2154L90.7914 14H92.5274L94.4454 5.656L96.4054 14H98.1414L100.675 3.85H99.1774L97.3014 12.376ZM102.336 10.654H108.132C108.3 8.274 106.914 6.342 104.618 6.342C102.56 6.342 100.964 7.868 100.964 10.248C100.964 12.474 102.28 14.182 104.66 14.182C106.494 14.182 107.684 13.118 108.034 11.816H106.718C106.396 12.558 105.78 13.062 104.66 13.062C103.54 13.062 102.392 12.278 102.336 10.654ZM102.35 9.562C102.462 8.05 103.484 7.434 104.618 7.434C105.962 7.434 106.76 8.498 106.788 9.562H102.35ZM113.956 8.666H115.286C115.048 7.238 113.942 6.328 112.318 6.328C110.652 6.328 109.308 7.098 109.308 8.428C109.308 9.828 110.428 10.304 111.45 10.514L112.57 10.738C113.382 10.906 114.096 11.228 114.096 11.984C114.096 12.684 113.312 13.104 112.346 13.104C111.226 13.104 110.624 12.53 110.428 11.564H109.084C109.224 12.88 110.344 14.182 112.318 14.182C114.04 14.182 115.384 13.328 115.384 11.844C115.384 10.388 114.18 9.87 112.808 9.604L111.744 9.394C111.016 9.254 110.596 8.974 110.596 8.372C110.596 7.686 111.436 7.42 112.178 7.42C113.06 7.42 113.76 7.77 113.956 8.666ZM117.363 4.578V6.468H116.173V7.49H117.363V12.11C117.363 13.678 117.699 14 119.141 14H120.065V12.936H119.421C118.693 12.936 118.637 12.74 118.637 11.956V7.49H120.065V6.468H118.637V4.578H117.363Z" fill="black"/>
<path d="M215.937 12.376L213.935 3.85H212.255L210.379 12.376L208.419 3.85H206.851L209.427 14H211.163L213.081 5.656L215.041 14H216.777L219.311 3.85H217.813L215.937 12.376ZM220.971 10.654H226.767C226.935 8.274 225.549 6.342 223.253 6.342C221.195 6.342 219.599 7.868 219.599 10.248C219.599 12.474 220.915 14.182 223.295 14.182C225.129 14.182 226.319 13.118 226.669 11.816H225.353C225.031 12.558 224.415 13.062 223.295 13.062C222.175 13.062 221.027 12.278 220.971 10.654ZM220.985 9.562C221.097 8.05 222.119 7.434 223.253 7.434C224.597 7.434 225.395 8.498 225.423 9.562H220.985ZM232.591 8.666H233.921C233.683 7.238 232.577 6.328 230.953 6.328C229.287 6.328 227.943 7.098 227.943 8.428C227.943 9.828 229.063 10.304 230.085 10.514L231.205 10.738C232.017 10.906 232.731 11.228 232.731 11.984C232.731 12.684 231.947 13.104 230.981 13.104C229.861 13.104 229.259 12.53 229.063 11.564H227.719C227.859 12.88 228.979 14.182 230.953 14.182C232.675 14.182 234.019 13.328 234.019 11.844C234.019 10.388 232.815 9.87 231.443 9.604L230.379 9.394C229.651 9.254 229.231 8.974 229.231 8.372C229.231 7.686 230.071 7.42 230.813 7.42C231.695 7.42 232.395 7.77 232.591 8.666ZM235.999 4.578V6.468H234.809V7.49H235.999V12.11C235.999 13.678 236.335 14 237.777 14H238.701V12.936H238.057C237.329 12.936 237.273 12.74 237.273 11.956V7.49H238.701V6.468H237.273V4.578H235.999Z" fill="black"/>
<path d="M350.264 10.766H348.878C348.556 12.068 347.562 12.978 345.952 12.978C344.062 12.978 342.718 11.466 342.718 8.904C342.718 6.272 344.118 4.872 345.91 4.872C347.534 4.872 348.514 5.824 348.822 7.084H350.208C349.774 4.914 348.08 3.668 345.98 3.668C343.11 3.668 341.262 5.754 341.262 8.904C341.262 11.998 342.956 14.182 345.868 14.182C348.066 14.182 349.816 13.006 350.264 10.766ZM352.705 10.654H358.501C358.669 8.274 357.283 6.342 354.987 6.342C352.929 6.342 351.333 7.868 351.333 10.248C351.333 12.474 352.649 14.182 355.029 14.182C356.863 14.182 358.053 13.118 358.403 11.816H357.087C356.765 12.558 356.149 13.062 355.029 13.062C353.909 13.062 352.761 12.278 352.705 10.654ZM352.719 9.562C352.831 8.05 353.853 7.434 354.987 7.434C356.331 7.434 357.129 8.498 357.157 9.562H352.719ZM361.26 7.602V6.468H359.986V14H361.26V9.912C361.26 8.302 362.016 7.448 363.248 7.448C364.704 7.448 364.9 8.456 364.9 9.618V14H366.174V9.24C366.174 7.518 365.516 6.342 363.696 6.342C362.422 6.342 361.694 6.888 361.26 7.602ZM368.443 4.578V6.468H367.253V7.49H368.443V12.11C368.443 13.678 368.779 14 370.221 14H371.145V12.936H370.501C369.773 12.936 369.717 12.74 369.717 11.956V7.49H371.145V6.468H369.717V4.578H368.443ZM376.384 7.798V6.44C376.244 6.426 376.132 6.426 376.006 6.426C375.026 6.454 374.256 6.93 373.878 7.784V6.468H372.632V14H373.906V10.052C373.906 8.4 374.494 7.742 375.67 7.742C375.88 7.742 376.118 7.77 376.384 7.798ZM376.887 12.012C376.887 13.398 378.063 14.182 379.477 14.182C380.807 14.182 381.591 13.734 382.053 12.964C382.067 13.412 382.109 13.72 382.151 14H383.439C383.299 13.286 383.229 12.418 383.243 11.158L383.257 9.422C383.271 7.308 382.333 6.314 380.261 6.314C378.791 6.314 377.363 7.224 377.237 8.848H378.553C378.609 7.924 379.225 7.35 380.275 7.35C381.213 7.35 381.983 7.812 381.983 9.184V9.366C378.889 9.716 376.887 10.234 376.887 12.012ZM382.081 10.374V10.85C382.081 12.628 380.947 13.174 379.757 13.174C378.847 13.174 378.301 12.698 378.301 11.984C378.301 10.948 379.771 10.612 382.081 10.374ZM386.43 14V3.85H385.156V14H386.43ZM388.045 10.766H392.497V9.562H388.045V10.766ZM402.153 12.376L400.151 3.85H398.471L396.595 12.376L394.635 3.85H393.067L395.643 14H397.379L399.297 5.656L401.257 14H402.993L405.527 3.85H404.029L402.153 12.376ZM407.187 10.654H412.983C413.151 8.274 411.765 6.342 409.469 6.342C407.411 6.342 405.815 7.868 405.815 10.248C405.815 12.474 407.131 14.182 409.511 14.182C411.345 14.182 412.535 13.118 412.885 11.816H411.569C411.247 12.558 410.631 13.062 409.511 13.062C408.391 13.062 407.243 12.278 407.187 10.654ZM407.201 9.562C407.313 8.05 408.335 7.434 409.469 7.434C410.813 7.434 411.611 8.498 411.639 9.562H407.201ZM418.808 8.666H420.138C419.9 7.238 418.794 6.328 417.17 6.328C415.504 6.328 414.16 7.098 414.16 8.428C414.16 9.828 415.28 10.304 416.302 10.514L417.422 10.738C418.234 10.906 418.948 11.228 418.948 11.984C418.948 12.684 418.164 13.104 417.198 13.104C416.078 13.104 415.476 12.53 415.28 11.564H413.936C414.076 12.88 415.196 14.182 417.17 14.182C418.892 14.182 420.236 13.328 420.236 11.844C420.236 10.388 419.032 9.87 417.66 9.604L416.596 9.394C415.868 9.254 415.448 8.974 415.448 8.372C415.448 7.686 416.288 7.42 417.03 7.42C417.912 7.42 418.612 7.77 418.808 8.666ZM422.215 4.578V6.468H421.025V7.49H422.215V12.11C422.215 13.678 422.551 14 423.993 14H424.917V12.936H424.273C423.545 12.936 423.489 12.74 423.489 11.956V7.49H424.917V6.468H423.489V4.578H422.215Z" fill="black"/>
<path d="M494.026 6.804C493.606 4.844 491.926 3.668 489.826 3.668C486.97 3.668 485.108 5.754 485.108 8.904C485.108 11.998 486.774 14.182 489.7 14.182C491.058 14.182 492.248 13.762 492.906 12.726L492.976 14H494.096V8.82H490.064V10.052H492.752V10.318C492.752 12.418 491.114 12.978 489.756 12.978C487.88 12.978 486.564 11.466 486.564 8.904C486.564 6.272 487.964 4.872 489.756 4.872C491.38 4.872 492.304 5.67 492.64 6.804H494.026ZM497.029 10.654H502.825C502.993 8.274 501.607 6.342 499.311 6.342C497.253 6.342 495.657 7.868 495.657 10.248C495.657 12.474 496.973 14.182 499.353 14.182C501.187 14.182 502.377 13.118 502.727 11.816H501.411C501.089 12.558 500.473 13.062 499.353 13.062C498.233 13.062 497.085 12.278 497.029 10.654ZM497.043 9.562C497.155 8.05 498.177 7.434 499.311 7.434C500.655 7.434 501.453 8.498 501.481 9.562H497.043ZM505.584 7.602V6.468H504.31V14H505.584V9.912C505.584 8.302 506.34 7.448 507.572 7.448C509.028 7.448 509.224 8.456 509.224 9.618V14H510.498V9.24C510.498 7.518 509.84 6.342 508.02 6.342C506.746 6.342 506.018 6.888 505.584 7.602ZM513.258 10.654H519.054C519.222 8.274 517.836 6.342 515.54 6.342C513.482 6.342 511.886 7.868 511.886 10.248C511.886 12.474 513.202 14.182 515.582 14.182C517.416 14.182 518.606 13.118 518.956 11.816H517.64C517.318 12.558 516.702 13.062 515.582 13.062C514.462 13.062 513.314 12.278 513.258 10.654ZM513.272 9.562C513.384 8.05 514.406 7.434 515.54 7.434C516.884 7.434 517.682 8.498 517.71 9.562H513.272ZM522.92 12.236L520.876 6.468H519.462L522.304 14H523.438L526.28 6.468H524.964L522.92 12.236ZM528.01 10.654H533.806C533.974 8.274 532.588 6.342 530.292 6.342C528.234 6.342 526.638 7.868 526.638 10.248C526.638 12.474 527.954 14.182 530.334 14.182C532.168 14.182 533.358 13.118 533.708 11.816H532.392C532.07 12.558 531.454 13.062 530.334 13.062C529.214 13.062 528.066 12.278 528.01 10.654ZM528.024 9.562C528.136 8.05 529.158 7.434 530.292 7.434C531.636 7.434 532.434 8.498 532.462 9.562H528.024ZM535.158 10.766H539.61V9.562H535.158V10.766ZM540.79 12.012C540.79 13.398 541.966 14.182 543.38 14.182C544.71 14.182 545.494 13.734 545.956 12.964C545.97 13.412 546.012 13.72 546.054 14H547.342C547.202 13.286 547.132 12.418 547.146 11.158L547.16 9.422C547.174 7.308 546.236 6.314 544.164 6.314C542.694 6.314 541.266 7.224 541.14 8.848H542.456C542.512 7.924 543.128 7.35 544.178 7.35C545.116 7.35 545.886 7.812 545.886 9.184V9.366C542.792 9.716 540.79 10.234 540.79 12.012ZM545.984 10.374V10.85C545.984 12.628 544.85 13.174 543.66 13.174C542.75 13.174 542.204 12.698 542.204 11.984C542.204 10.948 543.674 10.612 545.984 10.374ZM552.81 7.798V6.44C552.67 6.426 552.558 6.426 552.432 6.426C551.452 6.454 550.682 6.93 550.304 7.784V6.468H549.058V14H550.332V10.052C550.332 8.4 550.92 7.742 552.096 7.742C552.306 7.742 552.544 7.77 552.81 7.798ZM554.752 10.654H560.548C560.716 8.274 559.33 6.342 557.034 6.342C554.976 6.342 553.38 7.868 553.38 10.248C553.38 12.474 554.696 14.182 557.076 14.182C558.91 14.182 560.1 13.118 560.45 11.816H559.134C558.812 12.558 558.196 13.062 557.076 13.062C555.956 13.062 554.808 12.278 554.752 10.654ZM554.766 9.562C554.878 8.05 555.9 7.434 557.034 7.434C558.378 7.434 559.176 8.498 559.204 9.562H554.766ZM561.516 12.012C561.516 13.398 562.692 14.182 564.106 14.182C565.436 14.182 566.22 13.734 566.682 12.964C566.696 13.412 566.738 13.72 566.78 14H568.068C567.928 13.286 567.858 12.418 567.872 11.158L567.886 9.422C567.9 7.308 566.962 6.314 564.89 6.314C563.42 6.314 561.992 7.224 561.866 8.848H563.182C563.238 7.924 563.854 7.35 564.904 7.35C565.842 7.35 566.612 7.812 566.612 9.184V9.366C563.518 9.716 561.516 10.234 561.516 12.012ZM566.71 10.374V10.85C566.71 12.628 565.576 13.174 564.386 13.174C563.476 13.174 562.93 12.698 562.93 11.984C562.93 10.948 564.4 10.612 566.71 10.374Z" fill="black"/>
<path d="M610.521 10.766H609.135C608.813 12.068 607.819 12.978 606.209 12.978C604.319 12.978 602.975 11.466 602.975 8.904C602.975 6.272 604.375 4.872 606.167 4.872C607.791 4.872 608.771 5.824 609.079 7.084H610.465C610.031 4.914 608.337 3.668 606.237 3.668C603.367 3.668 601.519 5.754 601.519 8.904C601.519 11.998 603.213 14.182 606.125 14.182C608.323 14.182 610.073 13.006 610.521 10.766ZM612.962 10.654H618.758C618.926 8.274 617.54 6.342 615.244 6.342C613.186 6.342 611.59 7.868 611.59 10.248C611.59 12.474 612.906 14.182 615.286 14.182C617.12 14.182 618.31 13.118 618.66 11.816H617.344C617.022 12.558 616.406 13.062 615.286 13.062C614.166 13.062 613.018 12.278 612.962 10.654ZM612.976 9.562C613.088 8.05 614.11 7.434 615.244 7.434C616.588 7.434 617.386 8.498 617.414 9.562H612.976ZM621.517 7.602V6.468H620.243V14H621.517V9.912C621.517 8.302 622.273 7.448 623.505 7.448C624.961 7.448 625.157 8.456 625.157 9.618V14H626.431V9.24C626.431 7.518 625.773 6.342 623.953 6.342C622.679 6.342 621.951 6.888 621.517 7.602ZM628.7 4.578V6.468H627.51V7.49H628.7V12.11C628.7 13.678 629.036 14 630.478 14H631.402V12.936H630.758C630.03 12.936 629.974 12.74 629.974 11.956V7.49H631.402V6.468H629.974V4.578H628.7ZM636.641 7.798V6.44C636.501 6.426 636.389 6.426 636.263 6.426C635.283 6.454 634.513 6.93 634.135 7.784V6.468H632.889V14H634.163V10.052C634.163 8.4 634.751 7.742 635.927 7.742C636.137 7.742 636.375 7.77 636.641 7.798ZM637.144 12.012C637.144 13.398 638.32 14.182 639.734 14.182C641.064 14.182 641.848 13.734 642.31 12.964C642.324 13.412 642.366 13.72 642.408 14H643.696C643.556 13.286 643.486 12.418 643.5 11.158L643.514 9.422C643.528 7.308 642.59 6.314 640.518 6.314C639.048 6.314 637.62 7.224 637.494 8.848H638.81C638.866 7.924 639.482 7.35 640.532 7.35C641.47 7.35 642.24 7.812 642.24 9.184V9.366C639.146 9.716 637.144 10.234 637.144 12.012ZM642.338 10.374V10.85C642.338 12.628 641.204 13.174 640.014 13.174C639.104 13.174 638.558 12.698 638.558 11.984C638.558 10.948 640.028 10.612 642.338 10.374ZM646.686 14V3.85H645.412V14H646.686ZM648.301 10.766H652.753V9.562H648.301V10.766ZM654.577 3.85V14H661.465V12.768H656.005V9.394H661.143V8.162H656.005V5.082H661.465V3.85H654.577ZM662.588 12.012C662.588 13.398 663.764 14.182 665.178 14.182C666.508 14.182 667.292 13.734 667.754 12.964C667.768 13.412 667.81 13.72 667.852 14H669.14C669 13.286 668.93 12.418 668.944 11.158L668.958 9.422C668.972 7.308 668.034 6.314 665.962 6.314C664.492 6.314 663.064 7.224 662.938 8.848H664.254C664.31 7.924 664.926 7.35 665.976 7.35C666.914 7.35 667.684 7.812 667.684 9.184V9.366C664.59 9.716 662.588 10.234 662.588 12.012ZM667.782 10.374V10.85C667.782 12.628 666.648 13.174 665.458 13.174C664.548 13.174 664.002 12.698 664.002 11.984C664.002 10.948 665.472 10.612 667.782 10.374ZM675.168 8.666H676.498C676.26 7.238 675.154 6.328 673.53 6.328C671.864 6.328 670.52 7.098 670.52 8.428C670.52 9.828 671.64 10.304 672.662 10.514L673.782 10.738C674.594 10.906 675.308 11.228 675.308 11.984C675.308 12.684 674.524 13.104 673.558 13.104C672.438 13.104 671.836 12.53 671.64 11.564H670.296C670.436 12.88 671.556 14.182 673.53 14.182C675.252 14.182 676.596 13.328 676.596 11.844C676.596 10.388 675.392 9.87 674.02 9.604L672.956 9.394C672.228 9.254 671.808 8.974 671.808 8.372C671.808 7.686 672.648 7.42 673.39 7.42C674.272 7.42 674.972 7.77 675.168 8.666ZM678.575 4.578V6.468H677.385V7.49H678.575V12.11C678.575 13.678 678.911 14 680.353 14H681.277V12.936H680.633C679.905 12.936 679.849 12.74 679.849 11.956V7.49H681.277V6.468H679.849V4.578H678.575Z" fill="black"/>
<path d="M721.389 3.668C719.751 3.668 717.721 4.508 717.721 6.44C717.721 8.134 719.121 8.904 720.507 9.212L721.767 9.478C723.041 9.758 723.951 10.206 723.951 11.27C723.951 12.264 723.083 12.978 721.585 12.978C720.031 12.978 719.051 12.25 718.785 10.85H717.385C717.651 12.88 719.163 14.182 721.557 14.182C723.573 14.182 725.421 13.132 725.421 11.144C725.421 9.1 723.559 8.512 722.005 8.176L720.829 7.91C719.891 7.7 719.177 7.252 719.177 6.356C719.177 5.222 720.549 4.872 721.333 4.872C722.355 4.872 723.503 5.264 723.853 6.44H725.239C724.847 4.48 723.209 3.668 721.389 3.668ZM733.853 10.262C733.853 7.532 731.991 6.342 730.241 6.342C728.491 6.342 726.629 7.532 726.629 10.262C726.629 12.992 728.491 14.182 730.241 14.182C731.991 14.182 733.853 12.992 733.853 10.262ZM730.241 13.062C729.093 13.062 727.987 12.264 727.987 10.262C727.987 8.204 729.093 7.462 730.241 7.462C731.389 7.462 732.495 8.26 732.495 10.262C732.495 12.194 731.389 13.062 730.241 13.062ZM740.038 12.922V14H741.312V6.468H740.038V10.612C740.038 12.222 739.324 13.076 738.12 13.076C736.734 13.076 736.538 12.068 736.538 10.906V6.468H735.264V11.284C735.264 13.006 735.922 14.182 737.672 14.182C738.918 14.182 739.604 13.636 740.038 12.922ZM743.697 4.578V6.468H742.507V7.49H743.697V12.11C743.697 13.678 744.033 14 745.475 14H746.399V12.936H745.755C745.027 12.936 744.971 12.74 744.971 11.956V7.49H746.399V6.468H744.971V4.578H743.697ZM749.297 7.602V3.85H748.023V14H749.297V9.912C749.297 8.302 750.053 7.448 751.285 7.448C752.741 7.448 752.937 8.456 752.937 9.618V14H754.211V9.24C754.211 7.518 753.553 6.342 751.733 6.342C750.459 6.342 749.731 6.888 749.297 7.602Z" fill="black"/>
<path d="M848.699 3.85V14H855.587V12.768H850.127V9.394H855.265V8.162H850.127V5.082H855.587V3.85H848.699ZM856.71 12.012C856.71 13.398 857.886 14.182 859.3 14.182C860.63 14.182 861.414 13.734 861.876 12.964C861.89 13.412 861.932 13.72 861.974 14H863.262C863.122 13.286 863.052 12.418 863.066 11.158L863.08 9.422C863.094 7.308 862.156 6.314 860.084 6.314C858.614 6.314 857.186 7.224 857.06 8.848H858.376C858.432 7.924 859.048 7.35 860.098 7.35C861.036 7.35 861.806 7.812 861.806 9.184V9.366C858.712 9.716 856.71 10.234 856.71 12.012ZM861.904 10.374V10.85C861.904 12.628 860.77 13.174 859.58 13.174C858.67 13.174 858.124 12.698 858.124 11.984C858.124 10.948 859.594 10.612 861.904 10.374ZM869.29 8.666H870.62C870.382 7.238 869.276 6.328 867.652 6.328C865.986 6.328 864.642 7.098 864.642 8.428C864.642 9.828 865.762 10.304 866.784 10.514L867.904 10.738C868.716 10.906 869.43 11.228 869.43 11.984C869.43 12.684 868.646 13.104 867.68 13.104C866.56 13.104 865.958 12.53 865.762 11.564H864.418C864.558 12.88 865.678 14.182 867.652 14.182C869.374 14.182 870.718 13.328 870.718 11.844C870.718 10.388 869.514 9.87 868.142 9.604L867.078 9.394C866.35 9.254 865.93 8.974 865.93 8.372C865.93 7.686 866.77 7.42 867.512 7.42C868.394 7.42 869.094 7.77 869.29 8.666ZM872.697 4.578V6.468H871.507V7.49H872.697V12.11C872.697 13.678 873.033 14 874.475 14H875.399V12.936H874.755C874.027 12.936 873.971 12.74 873.971 11.956V7.49H875.399V6.468H873.971V4.578H872.697Z" fill="black"/>
<path d="M1010.17 14H1012.26V3.85H1010.83V12.488L1006.2 3.85H1004.1V14H1005.52V5.334L1010.17 14ZM1021.2 10.262C1021.2 7.532 1019.34 6.342 1017.59 6.342C1015.84 6.342 1013.98 7.532 1013.98 10.262C1013.98 12.992 1015.84 14.182 1017.59 14.182C1019.34 14.182 1021.2 12.992 1021.2 10.262ZM1017.59 13.062C1016.44 13.062 1015.34 12.264 1015.34 10.262C1015.34 8.204 1016.44 7.462 1017.59 7.462C1018.74 7.462 1019.85 8.26 1019.85 10.262C1019.85 12.194 1018.74 13.062 1017.59 13.062ZM1026.48 7.798V6.44C1026.34 6.426 1026.23 6.426 1026.1 6.426C1025.12 6.454 1024.35 6.93 1023.97 7.784V6.468H1022.73V14H1024V10.052C1024 8.4 1024.59 7.742 1025.76 7.742C1025.97 7.742 1026.21 7.77 1026.48 7.798ZM1028.07 4.578V6.468H1026.88V7.49H1028.07V12.11C1028.07 13.678 1028.4 14 1029.85 14H1030.77V12.936H1030.13C1029.4 12.936 1029.34 12.74 1029.34 11.956V7.49H1030.77V6.468H1029.34V4.578H1028.07ZM1033.67 7.602V3.85H1032.39V14H1033.67V9.912C1033.67 8.302 1034.42 7.448 1035.65 7.448C1037.11 7.448 1037.31 8.456 1037.31 9.618V14H1038.58V9.24C1038.58 7.518 1037.92 6.342 1036.1 6.342C1034.83 6.342 1034.1 6.888 1033.67 7.602ZM1040.08 10.766H1044.53V9.562H1040.08V10.766ZM1046.36 3.85V14H1053.24V12.768H1047.78V9.394H1052.92V8.162H1047.78V5.082H1053.24V3.85H1046.36ZM1054.37 12.012C1054.37 13.398 1055.54 14.182 1056.96 14.182C1058.29 14.182 1059.07 13.734 1059.53 12.964C1059.55 13.412 1059.59 13.72 1059.63 14H1060.92C1060.78 13.286 1060.71 12.418 1060.72 11.158L1060.74 9.422C1060.75 7.308 1059.81 6.314 1057.74 6.314C1056.27 6.314 1054.84 7.224 1054.72 8.848H1056.03C1056.09 7.924 1056.7 7.35 1057.75 7.35C1058.69 7.35 1059.46 7.812 1059.46 9.184V9.366C1056.37 9.716 1054.37 10.234 1054.37 12.012ZM1059.56 10.374V10.85C1059.56 12.628 1058.43 13.174 1057.24 13.174C1056.33 13.174 1055.78 12.698 1055.78 11.984C1055.78 10.948 1057.25 10.612 1059.56 10.374ZM1066.95 8.666H1068.28C1068.04 7.238 1066.93 6.328 1065.31 6.328C1063.64 6.328 1062.3 7.098 1062.3 8.428C1062.3 9.828 1063.42 10.304 1064.44 10.514L1065.56 10.738C1066.37 10.906 1067.09 11.228 1067.09 11.984C1067.09 12.684 1066.3 13.104 1065.34 13.104C1064.22 13.104 1063.62 12.53 1063.42 11.564H1062.08C1062.22 12.88 1063.34 14.182 1065.31 14.182C1067.03 14.182 1068.38 13.328 1068.38 11.844C1068.38 10.388 1067.17 9.87 1065.8 9.604L1064.74 9.394C1064.01 9.254 1063.59 8.974 1063.59 8.372C1063.59 7.686 1064.43 7.42 1065.17 7.42C1066.05 7.42 1066.75 7.77 1066.95 8.666ZM1070.35 4.578V6.468H1069.16V7.49H1070.35V12.11C1070.35 13.678 1070.69 14 1072.13 14H1073.06V12.936H1072.41C1071.68 12.936 1071.63 12.74 1071.63 11.956V7.49H1073.06V6.468H1071.63V4.578H1070.35Z" fill="black"/>
<path d="M12.5222 73.8866C12.5222 72.1786 11.1782 71.2266 9.30222 71.2266C7.14622 71.2266 5.74622 72.5566 5.77422 74.5726H7.09022C7.11822 72.8926 8.18222 72.2906 9.27422 72.2906C10.4782 72.2906 11.1782 73.0046 11.1782 74.0546C11.1782 75.8466 9.07822 77.7646 5.49422 80.4106V81.5586H12.8022V80.3686H7.23022C10.0722 78.3246 12.5222 76.2386 12.5222 73.8866ZM17.952 81.7406C20.654 81.7406 21.9 79.6966 21.9 76.4766C21.9 73.2706 20.654 71.2266 17.952 71.2266C15.25 71.2266 14.004 73.2706 14.004 76.4766C14.004 79.6966 15.25 81.7406 17.952 81.7406ZM17.952 72.2906C19.548 72.2906 20.542 73.6626 20.542 76.4766C20.542 79.3046 19.548 80.6766 17.952 80.6766C16.356 80.6766 15.362 79.3046 15.362 76.4766C15.362 73.6626 16.356 72.2906 17.952 72.2906ZM30.0359 73.8866C30.0359 72.1786 28.6919 71.2266 26.8159 71.2266C24.6599 71.2266 23.2599 72.5566 23.2879 74.5726H24.6039C24.6319 72.8926 25.6959 72.2906 26.7879 72.2906C27.9919 72.2906 28.6919 73.0046 28.6919 74.0546C28.6919 75.8466 26.5919 77.7646 23.0079 80.4106V81.5586H30.3159V80.3686H24.7439C27.5859 78.3246 30.0359 76.2386 30.0359 73.8866ZM33.3657 81.5586H34.6397V71.4086H33.7717C33.2117 72.5146 32.4697 72.6966 31.0137 72.7526V73.6206H33.3657V81.5586Z" fill="black"/>
<path d="M1035.46 143.861C1021.94 143.861 1010.92 132.816 1010.92 119.251C1010.92 105.685 1021.94 94.6406 1035.46 94.6406C1048.99 94.6406 1060 105.685 1060 119.251C1060 132.817 1049.05 143.861 1035.46 143.861Z" fill="#FF3A17" stroke="#FF46EC"/>
<path d="M401.626 119.26L401.626 119.262C401.685 130.704 392.417 140 380.946 140C369.537 140 360.266 130.695 360.266 119.26C360.266 107.824 369.546 98.5195 380.946 98.5195C392.356 98.5195 401.626 107.824 401.626 119.26Z" fill="#FF3A17" stroke="#FF46EC"/>
<path d="M75.9597 136.58C66.4148 136.58 58.6797 128.825 58.6797 119.25C58.6797 109.675 66.4148 101.92 75.9597 101.92C85.5046 101.92 93.2397 109.675 93.2397 119.25C93.2397 128.825 85.5046 136.58 75.9597 136.58Z" fill="#FF3A17" stroke="#FF46EC"/>
<path d="M222.53 136.129C213.245 136.129 205.699 128.564 205.699 119.249C205.699 109.934 213.245 102.369 222.53 102.369C231.816 102.369 239.362 109.934 239.362 119.249C239.362 128.564 231.816 136.129 222.53 136.129Z" fill="#FF3A17" stroke="#FF46EC"/>
<path d="M525.968 131.879C518.996 131.879 513.375 126.244 513.375 119.249C513.375 112.254 518.996 106.619 525.968 106.619C532.94 106.619 538.561 112.254 538.561 119.249C538.561 126.244 532.94 131.879 525.968 131.879Z" fill="#FF3A17" stroke="#FF46EC"/>
<path d="M639.507 131.299C632.854 131.299 627.492 125.924 627.492 119.249C627.492 112.574 632.854 107.199 639.507 107.199C646.16 107.199 651.522 112.574 651.522 119.249C651.522 125.866 646.159 131.299 639.507 131.299Z" fill="#FF3A17" stroke="#FF46EC"/>
<path d="M868.849 119.25L868.849 119.255C868.906 124.511 864.649 128.729 859.397 128.729C854.153 128.729 849.945 124.447 849.945 119.25C849.945 114.054 854.22 109.77 859.397 109.77C864.642 109.77 868.849 114.052 868.849 119.25Z" fill="#FF3A17" stroke="#FF46EC"/>
<mask id="path-17-inside-1_634_51" fill="white">
<path fill-rule="evenodd" clip-rule="evenodd" d="M1035.5 180.51C1016.14 180.51 998.88 171.49 987.684 157.42C949.054 110.717 896.087 123.022 875.941 139.54V139.537C871.438 143.234 865.678 145.451 859.398 145.451C852.097 145.451 845.499 142.454 840.76 137.619V137.621C822.452 118.931 768.224 119.551 751.152 136.381V136.375C746.832 140.633 740.907 143.26 734.37 143.26C728.072 143.26 722.341 140.821 718.067 136.834V136.841C700.536 120.491 683.065 117.671 662.074 140.301V140.285C656.447 146.353 648.417 150.15 639.507 150.15C631.201 150.15 623.661 146.851 618.118 141.489V141.49C595.94 120.03 575.269 118.371 551.057 143.531V143.53C544.718 150.115 535.822 154.209 525.965 154.209C516.966 154.209 508.764 150.793 502.579 145.181C479.354 125.29 455.427 118.562 423.256 155.91V155.899C413.002 167.793 397.848 175.32 380.944 175.32C364.872 175.32 350.385 168.519 340.187 157.632V157.639C308.025 123.302 282.801 126.096 254.662 152.306C246.368 160.415 235.032 165.41 222.529 165.41C209.712 165.41 198.118 160.157 189.771 151.68C161.021 122.949 137.192 123.036 108.449 151.849V151.833C100.129 160.176 88.6394 165.34 75.9607 165.34C50.6021 165.34 30 144.68 30 119.25C30 93.8201 50.6021 73.1602 75.9607 73.1602C88.6394 73.1602 100.129 78.3246 108.449 86.6675V86.6492C137.154 115.425 160.958 115.549 189.657 86.9323C198.01 78.389 209.65 73.0898 222.529 73.0898C235.022 73.0898 246.35 78.0768 254.642 86.1745C282.789 112.401 308.017 115.204 340.187 80.8594V80.8707C350.387 69.9819 364.875 63.1797 380.944 63.1797C397.848 63.1797 413.002 70.7068 423.256 82.6V82.5898C455.386 119.88 479.294 113.216 502.492 93.3927C508.685 87.7361 516.921 84.2891 525.965 84.2891C536.016 84.2891 545.072 88.5497 551.434 95.3705C575.32 119.955 595.793 118.39 617.696 97.4266C623.275 91.8197 630.988 88.3496 639.507 88.3496C648.417 88.3496 656.447 92.1466 662.074 98.2145V98.2109C682.962 120.74 700.37 118.046 717.832 101.889C722.131 97.7698 727.956 95.2402 734.37 95.2402C741.01 95.2402 747.018 97.9504 751.355 102.328C768.572 118.882 821.986 119.502 840.484 101.169C845.241 96.166 851.954 93.0508 859.398 93.0508C865.814 93.0508 871.687 95.3651 876.233 99.2075C896.673 115.677 949.699 127.674 988.186 80.4805V80.499C999.383 66.7723 1016.39 58 1035.43 58C1069.2 58 1096.55 85.42 1096.55 119.22C1096.61 153.08 1069.27 180.51 1035.5 180.51Z"/>
</mask>
<path d="M987.684 157.42L988.466 156.797L988.461 156.79L988.454 156.782L987.684 157.42ZM875.941 139.54H874.941V141.654L876.575 140.314L875.941 139.54ZM875.941 139.537H876.941V137.422L875.307 138.764L875.941 139.537ZM840.76 137.619L841.474 136.919L839.76 135.17V137.619H840.76ZM840.76 137.621L840.046 138.32L841.76 140.07V137.621H840.76ZM751.152 136.381H750.152V138.771L751.854 137.093L751.152 136.381ZM751.152 136.375H752.152V133.985L750.45 135.663L751.152 136.375ZM718.067 136.834L718.749 136.102L717.067 134.533V136.834H718.067ZM718.067 136.841L717.385 137.572L719.067 139.141V136.841H718.067ZM662.074 140.301H661.074V142.849L662.807 140.981L662.074 140.301ZM662.074 140.285H663.074V137.736L661.341 139.605L662.074 140.285ZM618.118 141.489L618.813 140.77L617.118 139.13V141.489H618.118ZM618.118 141.49L617.423 142.209L619.118 143.85V141.49H618.118ZM551.057 143.531H550.057V146.012L551.777 144.224L551.057 143.531ZM551.057 143.53H552.057V141.048L550.336 142.836L551.057 143.53ZM502.579 145.181L503.251 144.441L503.241 144.431L503.23 144.422L502.579 145.181ZM423.256 155.91H422.256V158.603L424.014 156.562L423.256 155.91ZM423.256 155.899H424.256V153.208L422.498 155.246L423.256 155.899ZM340.187 157.632L340.917 156.949L339.187 155.102V157.632H340.187ZM340.187 157.639L339.457 158.323L341.187 160.17V157.639H340.187ZM254.662 152.306L253.98 151.574L253.971 151.583L253.963 151.591L254.662 152.306ZM189.771 151.68L190.484 150.979L190.478 150.973L189.771 151.68ZM108.449 151.849H107.449V154.268L109.157 152.555L108.449 151.849ZM108.449 151.833H109.449V149.414L107.741 151.127L108.449 151.833ZM108.449 86.6675L107.741 87.3737L109.449 89.0864V86.6675H108.449ZM108.449 86.6492L109.157 85.9429L107.449 84.2307V86.6492H108.449ZM189.657 86.9323L190.363 87.6404L190.372 87.6314L189.657 86.9323ZM254.642 86.1745L253.944 86.89L253.952 86.8982L253.96 86.9062L254.642 86.1745ZM340.187 80.8594H341.187V78.3289L339.457 80.1758L340.187 80.8594ZM340.187 80.8707H339.187V83.401L340.917 81.5544L340.187 80.8707ZM423.256 82.6L422.498 83.253L424.256 85.2914V82.6H423.256ZM423.256 82.5898L424.013 81.9371L422.256 79.8973V82.5898H423.256ZM502.492 93.3927L503.142 94.153L503.154 94.1422L503.166 94.1311L502.492 93.3927ZM551.434 95.3705L550.703 96.0526L550.71 96.0601L550.717 96.0674L551.434 95.3705ZM617.696 97.4266L618.388 98.1491L618.396 98.1406L618.405 98.132L617.696 97.4266ZM662.074 98.2145L661.341 98.8945L663.074 100.764V98.2145H662.074ZM662.074 98.2109L662.808 97.5311L661.074 95.6615V98.2109H662.074ZM717.832 101.889L718.512 102.623L718.518 102.617L718.524 102.611L717.832 101.889ZM751.355 102.328L750.645 103.032L750.653 103.04L750.662 103.049L751.355 102.328ZM840.484 101.169L841.188 101.879L841.198 101.868L841.209 101.858L840.484 101.169ZM876.233 99.2075L875.587 99.9712L875.596 99.9788L875.605 99.9862L876.233 99.2075ZM988.186 80.4805H989.186V77.6719L987.411 79.8485L988.186 80.4805ZM988.186 80.499H987.186V83.3069L988.961 81.1311L988.186 80.499ZM1096.55 119.22H1095.55V119.222L1096.55 119.22ZM986.901 158.042C998.279 172.34 1015.82 181.51 1035.5 181.51V179.51C1016.45 179.51 999.481 170.639 988.466 156.797L986.901 158.042ZM876.575 140.314C886.449 132.218 904.486 125.083 924.847 125.772C945.162 126.459 967.789 134.935 986.913 158.057L988.454 156.782C968.95 133.201 945.778 124.479 924.915 123.773C904.099 123.068 885.579 130.345 875.307 138.767L876.575 140.314ZM874.941 139.537V139.54H876.941V139.537H874.941ZM859.398 146.451C865.918 146.451 871.9 144.148 876.576 140.31L875.307 138.764C870.975 142.319 865.438 144.451 859.398 144.451V146.451ZM840.046 138.319C844.965 143.338 851.817 146.451 859.398 146.451V144.451C852.376 144.451 846.033 141.57 841.474 136.919L840.046 138.319ZM841.76 137.621V137.619H839.76V137.621H841.76ZM751.854 137.093C755.952 133.053 762.358 129.92 770.046 127.81C777.716 125.705 786.575 124.642 795.488 124.681C804.401 124.719 813.335 125.859 821.156 128.135C828.99 130.416 835.633 133.816 840.046 138.32L841.475 136.921C836.733 132.081 829.732 128.549 821.715 126.215C813.686 123.878 804.563 122.72 795.497 122.681C786.431 122.642 777.387 123.721 769.516 125.882C761.663 128.037 754.889 131.293 750.45 135.668L751.854 137.093ZM750.152 136.375V136.381H752.152V136.375H750.152ZM750.45 135.663C746.309 139.744 740.633 142.26 734.37 142.26V144.26C741.18 144.26 747.354 141.522 751.854 137.087L750.45 135.663ZM734.37 142.26C728.335 142.26 722.846 139.924 718.749 136.102L717.385 137.565C721.837 141.718 727.808 144.26 734.37 144.26V142.26ZM717.067 136.834V136.841H719.067V136.834H717.067ZM718.749 136.11C709.903 127.86 700.915 122.87 691.359 122.953C681.79 123.037 671.932 128.203 661.341 139.621L662.807 140.981C673.208 129.768 682.58 125.03 691.377 124.953C700.187 124.877 708.7 129.472 717.385 137.572L718.749 136.11ZM663.074 140.301V140.285H661.074V140.301H663.074ZM661.341 139.605C655.895 145.478 648.127 149.15 639.507 149.15V151.15C648.708 151.15 657 147.228 662.807 140.965L661.341 139.605ZM639.507 149.15C631.471 149.15 624.177 145.959 618.813 140.77L617.423 142.207C623.144 147.742 630.931 151.15 639.507 151.15V149.15ZM617.118 141.489V141.49H619.118V141.489H617.118ZM618.813 140.772C607.641 129.961 596.689 123.979 585.346 124.028C573.996 124.077 562.533 130.163 550.336 142.837L551.777 144.224C563.792 131.738 574.771 126.074 585.354 126.028C595.944 125.982 606.417 131.56 617.423 142.209L618.813 140.772ZM552.057 143.531V143.53H550.057V143.531H552.057ZM550.336 142.836C544.178 149.234 535.539 153.209 525.965 153.209V155.209C536.105 155.209 545.258 150.997 551.777 144.223L550.336 142.836ZM525.965 153.209C517.224 153.209 509.259 149.892 503.251 144.441L501.907 145.922C508.269 151.694 516.708 155.209 525.965 155.209V153.209ZM503.23 144.422C491.558 134.426 479.524 127.567 466.233 128.082C452.928 128.597 438.665 136.488 422.498 155.257L424.014 156.562C440.017 137.984 453.804 130.565 466.311 130.08C478.833 129.595 490.375 136.046 501.929 145.941L503.23 144.422ZM424.256 155.91V155.899H422.256V155.91H424.256ZM422.498 155.246C412.426 166.929 397.544 174.32 380.944 174.32V176.32C398.151 176.32 413.578 168.656 424.013 156.552L422.498 155.246ZM380.944 174.32C365.16 174.32 350.934 167.642 340.917 156.949L339.457 158.316C349.836 169.396 364.584 176.32 380.944 176.32V174.32ZM339.187 157.632V157.639H341.187V157.632H339.187ZM340.917 156.956C324.757 139.703 310.173 131.594 295.939 131.268C281.708 130.942 268.122 138.402 253.98 151.574L255.343 153.038C269.34 140.001 282.436 132.959 295.893 133.267C309.346 133.576 323.455 141.238 339.457 158.323L340.917 156.956ZM253.963 151.591C245.848 159.525 234.76 164.41 222.529 164.41V166.41C235.304 166.41 246.888 161.305 255.361 153.021L253.963 151.591ZM222.529 164.41C209.991 164.41 198.65 159.273 190.484 150.979L189.059 152.382C197.585 161.042 209.433 166.41 222.529 166.41V164.41ZM190.478 150.973C176.027 136.531 162.64 129.153 149.105 129.186C135.572 129.218 122.188 136.661 107.741 151.143L109.157 152.555C123.453 138.224 136.356 131.216 149.11 131.186C161.863 131.155 174.766 138.098 189.064 152.388L190.478 150.973ZM109.449 151.849V151.833H107.449V151.849H109.449ZM107.741 151.127C99.6002 159.29 88.3621 164.34 75.9607 164.34V166.34C88.9167 166.34 100.658 161.062 109.157 152.539L107.741 151.127ZM75.9607 164.34C51.157 164.34 31 144.13 31 119.25H29C29 145.23 50.0471 166.34 75.9607 166.34V164.34ZM31 119.25C31 94.3698 51.157 74.1602 75.9607 74.1602V72.1602C50.0471 72.1602 29 93.2705 29 119.25H31ZM75.9607 74.1602C88.3621 74.1602 99.6002 79.2105 107.741 87.3737L109.157 85.9614C100.658 77.4387 88.9167 72.1602 75.9607 72.1602V74.1602ZM109.449 86.6675V86.6492H107.449V86.6675H109.449ZM107.741 87.3554C122.169 101.818 135.536 109.26 149.051 109.313C162.568 109.365 175.937 102.025 190.363 87.6404L188.951 86.2241C174.678 100.456 161.795 107.362 149.059 107.313C136.321 107.263 123.434 100.255 109.157 85.9429L107.741 87.3554ZM190.372 87.6314C198.545 79.2724 209.931 74.0898 222.529 74.0898V72.0898C209.37 72.0898 197.475 77.5056 188.942 86.2331L190.372 87.6314ZM222.529 74.0898C234.75 74.0898 245.83 78.9671 253.944 86.89L255.341 85.4591C246.87 77.1865 235.294 72.0898 222.529 72.0898V74.0898ZM253.96 86.9062C268.107 100.087 281.695 107.554 295.929 107.231C310.166 106.908 324.753 98.7993 340.917 81.543L339.457 80.1758C323.451 97.2643 309.339 104.926 295.883 105.232C282.424 105.537 269.325 98.4886 255.324 85.4429L253.96 86.9062ZM339.187 80.8594V80.8707H341.187V80.8594H339.187ZM340.917 81.5544C350.936 70.8585 365.164 64.1797 380.944 64.1797V62.1797C364.587 62.1797 349.838 69.1053 339.457 80.1871L340.917 81.5544ZM380.944 64.1797C397.544 64.1797 412.426 71.5702 422.498 83.253L424.013 81.9471C413.578 69.8434 398.151 62.1797 380.944 62.1797V64.1797ZM424.256 82.6V82.5898H422.256V82.6H424.256ZM422.498 83.2426C438.645 101.983 452.892 109.875 466.184 110.408C479.46 110.941 491.483 104.116 503.142 94.153L501.842 92.6325C490.303 102.493 478.773 108.912 466.264 108.41C453.769 107.909 439.997 100.487 424.013 81.9371L422.498 83.2426ZM503.166 94.1311C509.182 88.6362 517.18 85.2891 525.965 85.2891V83.2891C516.662 83.2891 508.188 86.836 501.817 92.6544L503.166 94.1311ZM525.965 85.2891C535.727 85.2891 544.522 89.4259 550.703 96.0526L552.165 94.6885C545.622 87.6735 536.305 83.2891 525.965 83.2891V85.2891ZM550.717 96.0674C562.752 108.455 574.082 114.415 585.303 114.479C596.518 114.543 607.35 108.713 618.388 98.1491L617.005 96.7042C606.139 107.104 595.784 112.538 585.314 112.479C574.851 112.42 564.002 106.871 552.151 94.6737L550.717 96.0674ZM618.405 98.132C623.804 92.7055 631.266 89.3496 639.507 89.3496V87.3496C630.711 87.3496 622.745 90.9339 616.987 96.7213L618.405 98.132ZM639.507 89.3496C648.127 89.3496 655.895 93.0216 661.341 98.8945L662.807 97.5346C657 91.2716 648.708 87.3496 639.507 87.3496V89.3496ZM663.074 98.2145V98.2109H661.074V98.2145H663.074ZM661.341 98.8908C671.879 110.257 681.695 115.429 691.224 115.557C700.742 115.685 709.699 110.777 718.512 102.623L717.153 101.155C708.504 109.157 700.025 113.675 691.251 113.557C682.489 113.439 673.157 108.694 662.808 97.5311L661.341 98.8908ZM718.524 102.611C722.644 98.6628 728.224 96.2402 734.37 96.2402V94.2402C727.688 94.2402 721.617 96.8769 717.141 101.166L718.524 102.611ZM734.37 96.2402C740.732 96.2402 746.487 98.8357 750.645 103.032L752.065 101.624C747.548 97.0651 741.288 94.2402 734.37 94.2402V96.2402ZM839.78 100.458C835.318 104.88 828.686 108.215 820.899 110.451C813.124 112.683 804.268 113.797 795.435 113.831C786.603 113.864 777.825 112.816 770.206 110.744C762.571 108.667 756.184 105.583 752.048 101.607L750.662 103.049C755.135 107.349 761.88 110.551 769.681 112.673C777.498 114.8 786.458 115.865 795.443 115.831C804.428 115.797 813.47 114.664 821.451 112.373C829.419 110.086 836.401 106.623 841.188 101.879L839.78 100.458ZM859.398 92.0508C851.668 92.0508 844.697 95.2867 839.759 100.479L841.209 101.858C845.785 97.0453 852.239 94.0508 859.398 94.0508V92.0508ZM876.878 98.4438C872.159 94.4545 866.059 92.0508 859.398 92.0508V94.0508C865.569 94.0508 871.216 96.2757 875.587 99.9712L876.878 98.4438ZM987.411 79.8485C968.355 103.215 945.748 111.889 925.401 112.719C905.008 113.55 886.882 106.504 876.86 98.4288L875.605 99.9862C886.024 108.381 904.631 115.567 925.482 114.717C946.38 113.864 969.53 104.94 988.961 81.1125L987.411 79.8485ZM989.186 80.499V80.4805H987.186V80.499H989.186ZM1035.43 57C1016.08 57 998.789 65.9186 987.411 79.8669L988.961 81.1311C999.977 67.6261 1016.71 59 1035.43 59V57ZM1097.55 119.22C1097.55 84.8695 1069.75 57 1035.43 57V59C1068.64 59 1095.55 85.9705 1095.55 119.22H1097.55ZM1035.5 181.51C1069.82 181.51 1097.61 153.629 1097.55 119.218L1095.55 119.222C1095.61 152.531 1068.71 179.51 1035.5 179.51V181.51Z" fill="#FF46EC" mask="url(#path-17-inside-1_634_51)"/>
<path d="M734.369 128.021C729.569 128.021 725.625 124.124 725.625 119.25C725.625 114.375 729.511 110.48 734.369 110.48C739.227 110.48 743.113 114.375 743.113 119.25C743.113 124.124 739.169 128.021 734.369 128.021Z" fill="#FF3A17" stroke="#FF46EC"/>
<path d="M9.42066 225.107C9.42066 223.399 8.07666 222.447 6.20066 222.447C4.04466 222.447 2.64466 223.777 2.67266 225.793H3.98866C4.01666 224.113 5.08066 223.511 6.17266 223.511C7.37666 223.511 8.07666 224.225 8.07666 225.275C8.07666 227.067 5.97666 228.985 2.39266 231.631V232.779H9.70066V231.589H4.12866C6.97066 229.545 9.42066 227.459 9.42066 225.107ZM14.8505 232.961C17.5525 232.961 18.7985 230.917 18.7985 227.697C18.7985 224.491 17.5525 222.447 14.8505 222.447C12.1485 222.447 10.9025 224.491 10.9025 227.697C10.9025 230.917 12.1485 232.961 14.8505 232.961ZM14.8505 223.511C16.4465 223.511 17.4405 224.883 17.4405 227.697C17.4405 230.525 16.4465 231.897 14.8505 231.897C13.2545 231.897 12.2605 230.525 12.2605 227.697C12.2605 224.883 13.2545 223.511 14.8505 223.511ZM26.9343 225.107C26.9343 223.399 25.5903 222.447 23.7143 222.447C21.5583 222.447 20.1583 223.777 20.1863 225.793H21.5023C21.5303 224.113 22.5943 223.511 23.6863 223.511C24.8903 223.511 25.5903 224.225 25.5903 225.275C25.5903 227.067 23.4903 228.985 19.9063 231.631V232.779H27.2143V231.589H21.6423C24.4843 229.545 26.9343 227.459 26.9343 225.107ZM32.3641 232.961C35.0661 232.961 36.3121 230.917 36.3121 227.697C36.3121 224.491 35.0661 222.447 32.3641 222.447C29.6621 222.447 28.4161 224.491 28.4161 227.697C28.4161 230.917 29.6621 232.961 32.3641 232.961ZM32.3641 223.511C33.9601 223.511 34.9541 224.883 34.9541 227.697C34.9541 230.525 33.9601 231.897 32.3641 231.897C30.7681 231.897 29.7741 230.525 29.7741 227.697C29.7741 224.883 30.7681 223.511 32.3641 223.511Z" fill="black"/>
<path d="M1037.14 323.009C1019.01 323.009 1004.23 308.293 1004.23 290.099C1004.23 271.906 1018.95 257.189 1037.14 257.189C1055.27 257.189 1070.05 271.906 1070.05 290.099C1070.05 308.293 1055.33 323.009 1037.14 323.009Z" fill="#FF3A17" stroke="#FF46EC"/>
<path d="M406.543 290.101L406.543 290.103C406.601 304.955 394.467 317.091 379.552 317.091C364.639 317.091 352.562 305.015 352.562 290.101C352.562 275.187 364.639 263.111 379.552 263.111C394.466 263.111 406.543 275.187 406.543 290.101Z" fill="#FF3A17" stroke="#FF46EC"/>
<path d="M73.7095 313.29C60.8565 313.29 50.5195 302.895 50.5195 290.1C50.5195 277.306 60.9157 266.91 73.7095 266.91C86.5034 266.91 96.8995 277.306 96.8995 290.1C96.8995 302.894 86.5034 313.29 73.7095 313.29Z" fill="#FF3A17" stroke="#FF46EC"/>
<path d="M220.688 312.78C208.154 312.78 198.008 302.644 198.008 290.1C198.008 277.556 208.144 267.42 220.688 267.42C233.222 267.42 243.368 277.556 243.368 290.1C243.368 302.644 233.232 312.78 220.688 312.78Z" fill="#FF3A17" stroke="#FF46EC"/>
<path d="M524.983 307.95C515.148 307.95 507.133 299.993 507.133 290.1C507.133 280.206 515.089 272.25 524.983 272.25C534.877 272.25 542.833 280.206 542.833 290.1C542.833 299.994 534.877 307.95 524.983 307.95Z" fill="#FF3A17" stroke="#FF46EC"/>
<path d="M638.842 306.341C629.848 306.341 622.602 299.095 622.602 290.101C622.602 281.107 629.848 273.861 638.842 273.861C647.835 273.861 655.082 281.107 655.082 290.101C655.082 299.095 647.835 306.341 638.842 306.341Z" fill="#FF3A17" stroke="#FF46EC"/>
<path d="M859.352 304.22C851.579 304.22 845.242 297.874 845.242 290.11C845.242 282.346 851.588 276 859.352 276C867.126 276 873.462 282.346 873.462 290.11C873.462 297.874 867.116 304.22 859.352 304.22Z" fill="#FF3A17" stroke="#FF46EC"/>
<path d="M733.97 301.581C727.616 301.581 722.5 296.464 722.5 290.111C722.5 283.757 727.616 278.641 733.97 278.641C740.324 278.641 745.44 283.757 745.44 290.111C745.44 296.464 740.324 301.581 733.97 301.581Z" fill="#FF3A17" stroke="#FF46EC"/>
<mask id="path-29-inside-2_634_51" fill="white">
<path fill-rule="evenodd" clip-rule="evenodd" d="M1035.91 371.22C1012.43 371.22 991.283 361.247 976.474 345.307C951.551 319.25 931.535 319.93 908.322 341.881V341.88C895.55 353.964 878.311 361.37 859.352 361.37C835.157 361.37 813.763 349.309 800.879 330.856C780.329 302.556 765.15 305.957 752.574 314.713C747.402 318.62 740.957 320.94 733.973 320.94C725.744 320.94 718.278 317.734 712.754 312.5C698.992 300.425 686.229 299.015 669.833 316.968C662.315 325.633 651.222 331.11 638.842 331.11C627.677 331.11 617.558 326.655 610.165 319.424C592.644 302.901 577.466 302.263 558.521 322.111V322.086C550.075 330.938 538.163 336.45 524.983 336.45C513.532 336.45 503.058 332.309 494.975 325.441C477.055 310.665 459.426 308.226 436.186 335.543C422.888 352.096 402.471 362.69 379.581 362.69C358.523 362.69 339.578 353.728 326.323 339.421V339.45C302.715 313.979 283.984 314.519 262.805 333.685C251.902 344.209 237.051 350.68 220.691 350.68C203.685 350.68 188.324 343.687 177.326 332.418C156.296 311.687 138.723 311.489 117.738 331.887C106.69 343.52 91.0666 350.77 73.7413 350.77V350.78C40.2013 350.78 13.0312 323.61 13.0312 290.13C13.0312 256.65 40.2012 229.42 73.6712 229.42C90.6032 229.42 105.912 236.344 116.921 247.508C138.278 268.721 156.04 268.78 177.354 247.752C188.351 236.5 203.699 229.52 220.691 229.52C236.964 229.52 251.729 235.921 262.608 246.346C283.868 265.687 302.642 266.3 326.323 240.76V240.787C339.583 226.508 358.52 217.556 379.511 217.52C401.956 217.52 421.999 227.7 435.312 243.682V243.651V243.641C458.77 271.796 476.515 269.78 494.48 255.186C502.628 248.063 513.297 243.75 524.983 243.75C538.523 243.75 550.697 249.54 559.167 258.781C577.655 277.791 592.596 277.145 609.754 261.183C617.181 253.713 627.469 249.09 638.842 249.09C651.217 249.09 662.306 254.562 669.823 263.221C686.225 281.195 699.001 279.776 712.758 267.696C718.282 262.464 725.746 259.26 733.973 259.26C741.07 259.26 747.599 261.645 752.805 265.658C765.279 274.253 780.341 277.449 800.65 249.67C813.498 231.044 834.986 218.85 859.352 218.85C878.519 218.85 895.906 226.396 908.706 238.683C931.913 260.426 951.97 260.816 976.982 234.361V234.375C991.766 218.748 1012.7 209 1035.91 209C1080.72 209 1117.02 245.31 1117.02 290.11C1117.02 334.85 1080.71 371.22 1035.91 371.22Z"/>
</mask>
<path d="M976.474 345.307L977.206 344.626L977.201 344.621L977.196 344.616L976.474 345.307ZM908.322 341.881H907.322V344.203L909.009 342.608L908.322 341.881ZM908.322 341.88H909.322V339.557L907.635 341.154L908.322 341.88ZM800.879 330.856L801.699 330.283L801.694 330.276L801.689 330.268L800.879 330.856ZM752.574 314.713L752.003 313.893L751.987 313.904L751.972 313.915L752.574 314.713ZM712.754 312.5L713.442 311.774L713.428 311.761L713.414 311.749L712.754 312.5ZM669.833 316.968L669.095 316.294L669.086 316.303L669.078 316.313L669.833 316.968ZM610.165 319.424L610.864 318.709L610.858 318.703L610.851 318.697L610.165 319.424ZM558.521 322.111H557.521V324.607L559.245 322.802L558.521 322.111ZM558.521 322.086H559.521V319.589L557.798 321.395L558.521 322.086ZM494.975 325.441L495.623 324.679L495.617 324.674L495.612 324.67L494.975 325.441ZM436.186 335.543L435.424 334.896L435.415 334.906L435.406 334.917L436.186 335.543ZM326.323 339.421L327.056 338.742L325.323 336.87V339.421H326.323ZM326.323 339.45L325.589 340.13L327.323 342V339.45H326.323ZM262.805 333.685L262.134 332.944L262.122 332.955L262.11 332.966L262.805 333.685ZM177.326 332.418L178.041 331.719L178.035 331.712L178.028 331.705L177.326 332.418ZM117.738 331.887L117.041 331.17L117.026 331.184L117.013 331.199L117.738 331.887ZM73.7413 350.77V349.77H72.7413V350.77H73.7413ZM73.7413 350.78V351.78H74.7413V350.78H73.7413ZM116.921 247.508L116.209 248.21L116.216 248.217L116.921 247.508ZM177.354 247.752L178.057 248.464L178.063 248.458L178.07 248.451L177.354 247.752ZM262.608 246.346L261.916 247.068L261.925 247.077L261.935 247.085L262.608 246.346ZM326.323 240.76H327.323V238.211L325.59 240.08L326.323 240.76ZM326.323 240.787H325.323V243.334L327.056 241.468L326.323 240.787ZM379.511 217.52V216.52L379.509 216.52L379.511 217.52ZM435.312 243.682L434.544 244.322L436.312 246.445V243.682H435.312ZM435.312 243.641L436.081 243.001L434.312 240.878V243.641H435.312ZM494.48 255.186L495.11 255.962L495.124 255.951L495.138 255.939L494.48 255.186ZM559.167 258.781L558.43 259.457L558.44 259.468L558.45 259.479L559.167 258.781ZM609.754 261.183L610.435 261.915L610.45 261.902L610.464 261.888L609.754 261.183ZM669.823 263.221L669.068 263.876L669.076 263.886L669.085 263.895L669.823 263.221ZM712.758 267.696L713.418 268.447L713.432 268.435L713.446 268.422L712.758 267.696ZM752.805 265.658L752.194 266.45L752.216 266.466L752.238 266.482L752.805 265.658ZM800.65 249.67L801.457 250.26L801.466 250.249L801.473 250.238L800.65 249.67ZM908.706 238.683L908.013 239.404L908.022 239.412L908.706 238.683ZM976.982 234.361H977.982V231.848L976.256 233.674L976.982 234.361ZM976.982 234.375H975.982V236.887L977.709 235.062L976.982 234.375ZM975.741 345.987C990.732 362.123 1012.14 372.22 1035.91 372.22V370.22C1012.72 370.22 991.834 360.372 977.206 344.626L975.741 345.987ZM909.009 342.608C920.536 331.708 931.094 326.26 941.725 326.591C952.362 326.922 963.363 333.047 975.751 345.998L977.196 344.616C964.661 331.51 953.193 324.947 941.788 324.591C930.377 324.236 919.321 330.104 907.635 341.155L909.009 342.608ZM907.322 341.88V341.881H909.322V341.88H907.322ZM859.352 362.37C878.576 362.37 896.059 354.859 909.01 342.607L907.635 341.154C895.041 353.069 878.045 360.37 859.352 360.37V362.37ZM800.06 331.428C813.122 350.138 834.817 362.37 859.352 362.37V360.37C835.497 360.37 814.403 348.48 801.699 330.283L800.06 331.428ZM801.689 330.268C791.353 316.035 782.229 309.573 773.933 307.908C765.604 306.236 758.381 309.452 752.003 313.893L753.146 315.534C759.343 311.218 765.997 308.355 773.539 309.869C781.114 311.389 789.855 317.376 800.07 331.443L801.689 330.268ZM751.972 313.915C746.967 317.695 740.732 319.94 733.973 319.94V321.94C741.182 321.94 747.837 319.544 753.177 315.511L751.972 313.915ZM733.973 319.94C726.009 319.94 718.787 316.838 713.442 311.774L712.066 313.226C717.77 318.629 725.479 321.94 733.973 321.94V319.94ZM713.414 311.749C706.452 305.64 699.57 302.072 692.226 302.475C684.887 302.878 677.369 307.233 669.095 316.294L670.571 317.642C678.692 308.75 685.755 304.834 692.336 304.472C698.913 304.111 705.294 307.285 712.095 313.252L713.414 311.749ZM669.078 316.313C661.742 324.768 650.92 330.11 638.842 330.11V332.11C651.524 332.11 662.889 326.498 670.588 317.623L669.078 316.313ZM638.842 330.11C627.948 330.11 618.078 325.764 610.864 318.709L609.466 320.139C617.038 327.545 627.405 332.11 638.842 332.11V330.11ZM610.851 318.697C602.012 310.361 593.589 305.861 584.847 306.129C576.109 306.397 567.345 311.419 557.798 321.421L559.245 322.802C568.643 312.956 576.94 308.373 584.908 308.128C592.871 307.884 600.798 311.965 609.479 320.152L610.851 318.697ZM559.521 322.111V322.086H557.521V322.111H559.521ZM557.798 321.395C549.532 330.058 537.878 335.45 524.983 335.45V337.45C538.447 337.45 550.617 331.818 559.245 322.776L557.798 321.395ZM524.983 335.45C513.778 335.45 503.531 331.399 495.623 324.679L494.328 326.203C502.585 333.219 513.287 337.45 524.983 337.45V335.45ZM495.612 324.67C486.568 317.213 477.418 312.715 467.476 313.712C457.548 314.708 447.114 321.154 435.424 334.896L436.947 336.191C448.497 322.615 458.499 316.622 467.676 315.702C476.838 314.783 485.463 318.894 494.339 326.213L495.612 324.67ZM435.406 334.917C422.29 351.244 402.155 361.69 379.581 361.69V363.69C402.787 363.69 423.486 352.949 436.965 336.17L435.406 334.917ZM379.581 361.69C358.813 361.69 340.131 352.853 327.056 338.742L325.589 340.101C339.026 354.604 358.233 363.69 379.581 363.69V361.69ZM325.323 339.421V339.45H327.323V339.421H325.323ZM327.056 338.77C315.182 325.959 304.374 319.507 293.716 318.83C283.044 318.152 272.81 323.282 262.134 332.944L263.476 334.427C273.979 324.922 283.7 320.198 293.59 320.826C303.495 321.456 313.856 327.47 325.589 340.13L327.056 338.77ZM262.11 332.966C251.386 343.316 236.782 349.68 220.691 349.68V351.68C237.32 351.68 252.417 345.101 263.499 334.405L262.11 332.966ZM220.691 349.68C203.965 349.68 188.859 342.803 178.041 331.719L176.61 333.116C187.789 344.571 203.405 351.68 220.691 351.68V349.68ZM178.028 331.705C167.435 321.263 157.548 315.824 147.525 315.729C137.497 315.634 127.615 320.891 117.041 331.17L118.435 332.604C128.845 322.485 138.243 317.641 147.506 317.729C156.773 317.816 166.187 322.841 176.624 333.13L178.028 331.705ZM117.013 331.199C106.146 342.641 90.7816 349.77 73.7413 349.77V351.77C91.3516 351.77 107.233 344.4 118.463 332.576L117.013 331.199ZM72.7413 350.77V350.78H74.7413V350.77H72.7413ZM73.7413 349.78C40.7529 349.78 14.0312 323.057 14.0312 290.13H12.0312C12.0312 324.163 39.6496 351.78 73.7413 351.78V349.78ZM14.0312 290.13C14.0312 257.201 40.7549 230.42 73.6712 230.42V228.42C39.6476 228.42 12.0312 256.099 12.0312 290.13H14.0312ZM73.6712 230.42C90.3248 230.42 105.38 237.229 116.209 248.21L117.633 246.806C106.443 235.459 90.8815 228.42 73.6712 228.42V230.42ZM116.216 248.217C126.972 258.9 136.991 264.431 147.15 264.47C157.31 264.509 167.321 259.055 178.057 248.464L176.652 247.04C166.074 257.476 156.546 262.506 147.157 262.47C137.767 262.434 128.227 257.328 117.625 246.798L116.216 248.217ZM178.07 248.451C188.885 237.384 203.979 230.52 220.691 230.52V228.52C203.42 228.52 187.816 235.616 176.639 247.053L178.07 248.451ZM220.691 230.52C236.696 230.52 251.216 236.815 261.916 247.068L263.3 245.624C252.242 235.028 237.231 228.52 220.691 228.52V230.52ZM261.935 247.085C272.651 256.834 282.915 262.027 293.618 261.381C304.307 260.737 315.145 254.286 327.056 241.44L325.59 240.08C313.819 252.774 303.431 258.786 293.497 259.385C283.578 259.983 273.826 255.199 263.281 245.606L261.935 247.085ZM325.323 240.76V240.787H327.323V240.76H325.323ZM327.056 241.468C340.135 227.384 358.811 218.556 379.513 218.52L379.509 216.52C358.229 216.557 339.031 225.633 325.59 240.107L327.056 241.468ZM379.511 218.52C401.646 218.52 421.412 228.558 434.544 244.322L436.081 243.042C422.586 226.841 402.266 216.52 379.511 216.52V218.52ZM436.312 243.682V243.651H434.312V243.682H436.312ZM436.312 243.651V243.641H434.312V243.651H436.312ZM434.544 244.281C446.339 258.437 456.849 265.2 466.833 266.437C476.841 267.677 486.038 263.332 495.11 255.962L493.849 254.41C484.957 261.634 476.3 265.594 467.079 264.452C457.835 263.306 447.744 256.999 436.081 243.001L434.544 244.281ZM495.138 255.939C503.11 248.97 513.547 244.75 524.983 244.75V242.75C513.046 242.75 502.145 247.157 493.821 254.433L495.138 255.939ZM524.983 244.75C538.231 244.75 550.141 250.414 558.43 259.457L559.904 258.106C551.252 248.666 538.814 242.75 524.983 242.75V244.75ZM558.45 259.479C567.772 269.064 576.363 273.867 584.932 274.096C593.505 274.326 601.775 269.972 610.435 261.915L609.073 260.451C600.576 268.356 592.796 272.306 584.986 272.097C577.174 271.888 569.049 267.508 559.884 258.084L558.45 259.479ZM610.464 261.888C617.71 254.599 627.745 250.09 638.842 250.09V248.09C627.192 248.09 616.652 252.826 609.045 260.478L610.464 261.888ZM638.842 250.09C650.915 250.09 661.733 255.428 669.068 263.876L670.579 262.565C662.879 253.697 651.518 248.09 638.842 248.09V250.09ZM669.085 263.895C677.363 272.966 684.885 277.325 692.228 277.727C699.575 278.131 706.459 274.558 713.418 268.447L712.098 266.944C705.3 272.914 698.918 276.091 692.337 275.73C685.753 275.369 678.686 271.45 670.562 262.547L669.085 263.895ZM713.446 268.422C718.791 263.36 726.011 260.26 733.973 260.26V258.26C725.481 258.26 717.773 261.569 712.07 266.97L713.446 268.422ZM733.973 260.26C740.842 260.26 747.158 262.567 752.194 266.45L753.416 264.866C748.04 260.722 741.298 258.26 733.973 258.26V260.26ZM752.238 266.482C758.569 270.844 765.737 273.962 773.989 272.284C782.209 270.613 791.242 264.233 801.457 250.26L799.843 249.08C789.75 262.886 781.097 268.798 773.59 270.324C766.116 271.844 759.516 269.068 753.372 264.835L752.238 266.482ZM859.352 217.85C834.644 217.85 812.853 230.217 799.827 249.102L801.473 250.238C814.142 231.872 835.328 219.85 859.352 219.85V217.85ZM909.398 237.961C896.419 225.502 878.787 217.85 859.352 217.85V219.85C878.251 219.85 895.392 227.289 908.013 239.404L909.398 237.961ZM976.256 233.674C963.821 246.826 952.783 253.123 942.123 253.597C931.474 254.071 920.911 248.747 909.39 237.953L908.022 239.412C919.708 250.362 930.777 256.104 942.212 255.595C953.635 255.087 965.132 248.351 977.709 235.048L976.256 233.674ZM977.982 234.375V234.361H975.982V234.375H977.982ZM1035.91 208C1012.41 208 991.221 217.87 976.256 233.687L977.709 235.062C992.312 219.627 1012.99 210 1035.91 210V208ZM1118.02 290.11C1118.02 244.758 1081.28 208 1035.91 208V210C1080.17 210 1116.02 245.862 1116.02 290.11H1118.02ZM1035.91 372.22C1081.27 372.22 1118.02 335.402 1118.02 290.11H1116.02C1116.02 334.298 1080.16 370.22 1035.91 370.22V372.22Z" fill="#FF46EC" mask="url(#path-29-inside-2_634_51)"/>
<path d="M9.23511 418.148C9.23511 416.44 7.89111 415.488 6.01511 415.488C3.85911 415.488 2.45911 416.818 2.48711 418.834H3.80311C3.83111 417.154 4.89511 416.552 5.98711 416.552C7.19111 416.552 7.89111 417.266 7.89111 418.316C7.89111 420.108 5.79111 422.026 2.20711 424.672V425.82H9.51511V424.63H3.94311C6.78511 422.586 9.23511 420.5 9.23511 418.148ZM14.6649 426.002C17.3669 426.002 18.6129 423.958 18.6129 420.738C18.6129 417.532 17.3669 415.488 14.6649 415.488C11.9629 415.488 10.7169 417.532 10.7169 420.738C10.7169 423.958 11.9629 426.002 14.6649 426.002ZM14.6649 416.552C16.2609 416.552 17.2549 417.924 17.2549 420.738C17.2549 423.566 16.2609 424.938 14.6649 424.938C13.0689 424.938 12.0749 423.566 12.0749 420.738C12.0749 417.924 13.0689 416.552 14.6649 416.552ZM21.8208 425.82H23.0948V415.67H22.2268C21.6668 416.776 20.9248 416.958 19.4688 417.014V417.882H21.8208V425.82ZM30.9931 421.018C30.9231 423.37 30.0551 424.938 28.4871 424.938C27.4511 424.938 26.7651 424.378 26.5971 423.468H25.2111C25.4211 424.756 26.3591 426.002 28.3471 426.002C31.2731 426.002 32.3091 423.258 32.3091 420.388C32.3091 417.252 31.1471 415.488 28.6131 415.488C26.4431 415.488 25.0431 417.098 25.0431 418.974C25.0431 421.018 26.4291 422.432 28.3051 422.432C29.6491 422.432 30.5311 421.816 30.9931 421.018ZM28.6271 416.552C29.9711 416.552 30.8251 417.518 30.8251 418.918C30.8251 420.304 29.9431 421.312 28.6131 421.312C27.2971 421.312 26.4011 420.304 26.4011 418.918C26.4011 417.532 27.3111 416.552 28.6271 416.552Z" fill="black"/>
<mask id="path-32-inside-3_634_51" fill="white">
<path fill-rule="evenodd" clip-rule="evenodd" d="M1034.91 564.04C1008.68 564.04 985.332 551.723 970.321 532.57L970.257 532.488C970.211 532.429 970.165 532.37 970.119 532.311C970.042 532.211 969.964 532.111 969.887 532.011L969.783 531.875C932.748 484.969 905.58 495.257 882.711 513.16V513.153C875.997 518.414 867.54 521.55 858.35 521.55C846.668 521.55 836.164 516.477 828.925 508.412C802.623 479.836 773.402 483.795 752.684 502.214C747.611 507.169 740.665 510.22 732.969 510.22C725.575 510.22 718.847 507.377 713.819 502.725C699.378 490.151 685.608 487.996 667.58 508.349V508.337C660.296 516.559 649.659 521.741 637.839 521.741C627.169 521.741 617.487 517.542 610.354 510.705C593.428 495.138 578.406 494.015 559.495 513.98C550.753 523.688 538.085 529.79 523.981 529.79C512.039 529.79 501.122 525.414 492.749 518.175C474.815 503.293 457.41 501.334 434.536 528.23C421.234 544.343 401.115 554.609 378.581 554.609C357.522 554.609 338.577 545.647 325.321 531.339V531.37C301.541 505.714 282.711 506.448 261.341 526.025C250.488 536.301 235.83 542.599 219.689 542.599C202.678 542.599 187.313 535.603 176.314 524.328C155.152 503.487 137.491 503.444 116.311 524.274C105.277 535.658 89.8227 542.731 72.71 542.731C39.17 542.731 12 515.561 12 482.021C12 448.481 39.17 421.311 72.71 421.311C89.8999 421.311 105.417 428.447 116.46 439.921C137.503 460.545 155.083 460.523 176.102 439.929C187.116 428.526 202.568 421.439 219.689 421.439C235.962 421.439 250.728 427.842 261.607 438.267C282.867 457.607 301.64 458.219 325.321 432.68V432.707C338.575 418.421 357.507 409.476 378.511 409.439C400.826 409.439 420.766 419.502 434.08 435.325V435.289V435.279C457.073 462.593 474.52 460.872 492.477 446.098C500.884 438.72 511.906 434.25 523.981 434.25C538.097 434.25 550.78 440.365 559.524 450.093C578.427 470.021 593.439 468.896 610.34 453.349C617.475 446.505 627.163 442.301 637.839 442.301C649.875 442.301 660.655 447.644 667.937 456.09C685.803 476.029 699.493 473.802 713.851 461.286C718.876 456.651 725.591 453.82 732.969 453.82C740.404 453.82 747.164 456.694 752.201 461.391C772.928 480.174 802.367 484.418 828.856 455.702C836.096 447.594 846.627 442.49 858.35 442.49C867.813 442.49 876.5 445.816 883.305 451.362C906.073 468.984 933.12 478.704 969.888 432.051C984.891 412.566 1008.45 400 1034.91 400C1080.17 400 1116.93 436.76 1116.93 482.02C1116.93 527.28 1080.24 564.04 1034.91 564.04Z"/>
</mask>
<path d="M970.321 532.57L969.533 533.186L969.534 533.186L970.321 532.57ZM970.257 532.488L969.469 533.104L969.469 533.104L970.257 532.488ZM970.119 532.311L969.33 532.925V532.925L970.119 532.311ZM969.887 532.011L969.094 532.62L969.095 532.621L969.887 532.011ZM969.783 531.875L970.576 531.266L970.568 531.256L969.783 531.875ZM882.711 513.16H881.711V515.213L883.327 513.947L882.711 513.16ZM882.711 513.153H883.711V511.099L882.094 512.366L882.711 513.153ZM828.925 508.412L829.669 507.744L829.661 507.735L828.925 508.412ZM752.684 502.214L752.019 501.467L752.002 501.483L751.985 501.499L752.684 502.214ZM713.819 502.725L714.498 501.991L714.487 501.98L714.476 501.97L713.819 502.725ZM667.58 508.349H666.58V510.987L668.329 509.013L667.58 508.349ZM667.58 508.337H668.58V505.7L666.832 507.673L667.58 508.337ZM610.354 510.705L611.046 509.983L611.038 509.976L611.031 509.969L610.354 510.705ZM559.495 513.98L558.768 513.292L558.76 513.301L558.751 513.31L559.495 513.98ZM492.749 518.175L493.403 517.419L493.395 517.412L493.387 517.406L492.749 518.175ZM434.536 528.23L433.774 527.583L433.769 527.588L433.765 527.594L434.536 528.23ZM325.321 531.339L326.054 530.659L324.321 528.788V531.339H325.321ZM325.321 531.37L324.587 532.049L326.321 533.92V531.37H325.321ZM261.341 526.025L260.666 525.288L260.66 525.294L260.654 525.299L261.341 526.025ZM176.314 524.328L177.03 523.63L177.023 523.622L177.016 523.615L176.314 524.328ZM116.311 524.274L115.61 523.561L115.601 523.57L115.593 523.578L116.311 524.274ZM116.46 439.921L115.739 440.615L115.749 440.625L115.76 440.635L116.46 439.921ZM176.102 439.929L176.802 440.644L176.812 440.634L176.822 440.624L176.102 439.929ZM261.607 438.267L260.915 438.989L260.924 438.998L260.934 439.006L261.607 438.267ZM325.321 432.68H326.321V430.13L324.588 432L325.321 432.68ZM325.321 432.707H324.321V435.255L326.054 433.387L325.321 432.707ZM378.511 409.439V408.439L378.509 408.439L378.511 409.439ZM434.08 435.325L433.315 435.969L435.08 438.066V435.325H434.08ZM434.08 435.279L434.845 434.635L433.08 432.539V435.279H434.08ZM492.477 446.098L493.113 446.87L493.125 446.86L493.137 446.849L492.477 446.098ZM559.524 450.093L558.78 450.762L558.789 450.772L558.799 450.781L559.524 450.093ZM610.34 453.349L611.017 454.085L611.025 454.078L611.033 454.071L610.34 453.349ZM667.937 456.09L667.179 456.743L667.185 456.75L667.192 456.757L667.937 456.09ZM713.851 461.286L714.508 462.04L714.519 462.031L714.529 462.021L713.851 461.286ZM752.201 461.391L751.519 462.122L751.524 462.127L751.529 462.132L752.201 461.391ZM828.856 455.702L829.591 456.38L829.597 456.374L829.602 456.368L828.856 455.702ZM883.305 451.362L882.673 452.138L882.683 452.146L882.693 452.153L883.305 451.362ZM969.888 432.051L970.674 432.67L970.681 432.661L969.888 432.051ZM969.534 533.186C984.726 552.571 1008.36 565.04 1034.91 565.04V563.04C1009 563.04 985.937 550.875 971.108 531.953L969.534 533.186ZM969.469 533.104L969.533 533.186L971.108 531.953L971.044 531.871L969.469 533.104ZM969.33 532.925C969.376 532.984 969.422 533.044 969.469 533.104L971.045 531.872C970.999 531.814 970.954 531.756 970.909 531.697L969.33 532.925ZM969.095 532.621C969.173 532.722 969.251 532.824 969.33 532.925L970.909 531.697C970.832 531.599 970.755 531.5 970.679 531.401L969.095 532.621ZM968.99 532.484L969.094 532.62L970.68 531.402L970.576 531.266L968.99 532.484ZM883.327 513.947C894.713 505.034 906.967 498.186 920.861 499.211C934.739 500.235 950.559 509.142 968.998 532.495L970.568 531.256C951.972 507.703 935.691 498.3 921.008 497.217C906.342 496.135 893.578 503.382 882.094 512.373L883.327 513.947ZM881.711 513.153V513.16H883.711V513.153H881.711ZM858.35 522.55C867.771 522.55 876.445 519.334 883.328 513.94L882.094 512.366C875.55 517.494 867.308 520.55 858.35 520.55V522.55ZM828.181 509.08C835.601 517.347 846.372 522.55 858.35 522.55V520.55C846.964 520.55 836.727 515.606 829.669 507.744L828.181 509.08ZM829.661 507.735C816.364 493.288 802.238 486.977 788.732 486.69C775.242 486.404 762.522 492.13 752.019 501.467L753.348 502.962C763.564 493.879 775.814 488.416 788.689 488.69C801.549 488.963 815.185 494.96 828.189 509.089L829.661 507.735ZM751.985 501.499C747.093 506.277 740.395 509.22 732.969 509.22V511.22C740.935 511.22 748.13 508.06 753.383 502.93L751.985 501.499ZM732.969 509.22C725.836 509.22 719.349 506.479 714.498 501.991L713.14 503.459C718.346 508.276 725.313 511.22 732.969 511.22V509.22ZM714.476 501.97C707.18 495.619 699.875 491.735 691.987 492.191C684.1 492.647 675.921 497.424 666.831 507.686L668.329 509.013C677.267 498.921 684.988 494.599 692.102 494.188C699.216 493.776 706.016 497.257 713.162 503.479L714.476 501.97ZM668.58 508.349V508.337H666.58V508.349H668.58ZM666.832 507.673C659.729 515.691 649.361 520.741 637.839 520.741V522.741C649.958 522.741 660.863 517.427 668.329 509L666.832 507.673ZM637.839 520.741C627.437 520.741 618 516.648 611.046 509.983L609.662 511.427C616.974 518.435 626.902 522.741 637.839 522.741V520.741ZM611.031 509.969C602.489 502.113 594.256 497.737 585.636 498.019C577.019 498.3 568.302 503.227 558.768 513.292L560.221 514.667C569.599 504.767 577.849 500.274 585.702 500.017C593.553 499.761 601.293 503.73 609.677 511.441L611.031 509.969ZM558.751 513.31C550.192 522.817 537.79 528.79 523.981 528.79V530.79C538.38 530.79 551.315 524.559 560.238 514.649L558.751 513.31ZM523.981 528.79C512.287 528.79 501.601 524.506 493.403 517.419L492.095 518.932C500.643 526.321 511.79 530.79 523.981 530.79V528.79ZM493.387 517.406C484.333 509.892 475.233 505.487 465.388 506.541C455.563 507.593 445.279 514.054 433.774 527.583L435.298 528.878C446.667 515.51 456.523 509.502 465.601 508.53C474.661 507.56 483.23 511.576 492.11 518.945L493.387 517.406ZM433.765 527.594C420.645 543.486 400.805 553.609 378.581 553.609V555.609C401.426 555.609 421.824 545.2 435.307 528.867L433.765 527.594ZM378.581 553.609C357.812 553.609 339.129 544.772 326.054 530.659L324.587 532.019C338.024 546.523 357.231 555.609 378.581 555.609V553.609ZM324.321 531.339V531.37H326.321V531.339H324.321ZM326.054 530.69C314.094 517.786 303.215 511.334 292.483 510.737C281.739 510.138 271.434 515.423 260.666 525.288L262.017 526.763C272.618 517.05 282.413 512.179 292.372 512.733C302.343 513.289 312.768 519.298 324.587 532.049L326.054 530.69ZM260.654 525.299C249.979 535.406 235.565 541.599 219.689 541.599V543.599C236.095 543.599 250.997 537.196 262.029 526.752L260.654 525.299ZM219.689 541.599C202.958 541.599 187.849 534.719 177.03 523.63L175.599 525.026C186.778 536.486 202.398 543.599 219.689 543.599V541.599ZM177.016 523.615C166.356 513.117 156.411 507.687 146.32 507.674C136.229 507.662 126.279 513.068 115.61 523.561L117.012 524.987C127.523 514.65 136.993 509.663 146.318 509.674C155.644 509.686 165.11 514.697 175.613 525.04L177.016 523.615ZM115.593 523.578C104.74 534.775 89.5413 541.731 72.71 541.731V543.731C90.1042 543.731 105.815 536.54 117.029 524.97L115.593 523.578ZM72.71 541.731C39.7223 541.731 13 515.008 13 482.021H11C11 516.113 38.6177 543.731 72.71 543.731V541.731ZM13 482.021C13 449.033 39.7223 422.311 72.71 422.311V420.311C38.6177 420.311 11 447.928 11 482.021H13ZM72.71 422.311C89.6172 422.311 104.877 429.329 115.739 440.615L117.18 439.228C105.956 427.566 90.1827 420.311 72.71 420.311V422.311ZM115.76 440.635C126.361 451.026 136.257 456.384 146.29 456.382C156.324 456.38 166.213 451.019 176.802 440.644L175.403 439.215C164.973 449.434 155.562 454.38 146.29 454.382C137.018 454.384 127.601 449.441 117.16 439.207L115.76 440.635ZM176.822 440.624C187.654 429.408 202.85 422.439 219.689 422.439V420.439C202.286 420.439 186.577 427.644 175.383 439.235L176.822 440.624ZM219.689 422.439C235.694 422.439 250.215 428.735 260.915 438.989L262.299 437.544C251.241 426.948 236.23 420.439 219.689 420.439V422.439ZM260.934 439.006C271.649 448.754 281.914 453.947 292.616 453.301C303.305 452.657 314.143 446.205 326.054 433.36L324.588 432C312.818 444.694 302.429 450.706 292.496 451.305C282.577 451.903 272.824 447.119 262.28 437.527L260.934 439.006ZM324.321 432.68V432.707H326.321V432.68H324.321ZM326.054 433.387C339.127 419.296 357.797 410.476 378.513 410.439L378.509 408.439C357.216 408.477 338.023 417.545 324.588 432.027L326.054 433.387ZM378.511 410.439C400.518 410.439 420.183 420.361 433.315 435.969L434.845 434.681C421.35 418.642 401.133 408.439 378.511 408.439V410.439ZM435.08 435.325V435.289H433.08V435.325H435.08ZM435.08 435.289V435.279H433.08V435.289H435.08ZM433.315 435.923C444.877 449.658 455.197 456.283 465.048 457.464C474.923 458.649 484.044 454.332 493.113 446.87L491.842 445.325C482.954 452.638 474.372 456.569 465.286 455.479C456.176 454.386 446.276 448.214 434.845 434.635L433.315 435.923ZM493.137 446.849C501.368 439.626 512.158 435.25 523.981 435.25V433.25C511.655 433.25 500.4 437.815 491.818 445.346L493.137 446.849ZM523.981 435.25C537.802 435.25 550.218 441.235 558.78 450.762L560.268 449.425C551.342 439.494 538.393 433.25 523.981 433.25V435.25ZM558.799 450.781C568.328 460.827 577.039 465.745 585.65 466.023C594.263 466.302 602.488 461.931 611.017 454.085L609.663 452.613C601.292 460.314 593.56 464.278 585.715 464.025C577.869 463.771 569.623 459.287 560.25 449.405L558.799 450.781ZM611.033 454.071C617.989 447.398 627.431 443.301 637.839 443.301V441.301C626.895 441.301 616.962 445.612 609.648 452.628L611.033 454.071ZM637.839 443.301C649.573 443.301 660.079 448.508 667.179 456.743L668.694 455.437C661.23 446.78 650.178 441.301 637.839 441.301V443.301ZM667.192 456.757C676.204 466.814 684.324 471.467 692.16 471.857C699.994 472.247 707.256 468.362 714.508 462.04L713.194 460.533C706.089 466.726 699.326 470.212 692.259 469.86C685.195 469.508 677.536 465.304 668.681 455.422L667.192 456.757ZM714.529 462.021C719.376 457.55 725.852 454.82 732.969 454.82V452.82C725.33 452.82 718.375 455.752 713.173 460.551L714.529 462.021ZM732.969 454.82C740.141 454.82 746.66 457.591 751.519 462.122L752.883 460.66C747.668 455.796 740.667 452.82 732.969 452.82V454.82ZM751.529 462.132C762.035 471.652 774.811 477.543 788.382 477.358C801.969 477.173 816.199 470.898 829.591 456.38L828.121 455.024C815.024 469.221 801.29 475.182 788.354 475.359C775.401 475.535 763.095 469.913 752.872 460.65L751.529 462.132ZM858.35 441.49C846.331 441.49 835.531 446.725 828.11 455.036L829.602 456.368C836.66 448.464 846.924 443.49 858.35 443.49V441.49ZM883.937 450.587C876.96 444.901 868.052 441.49 858.35 441.49V443.49C867.575 443.49 876.04 446.731 882.673 452.138L883.937 450.587ZM969.103 431.432C950.797 454.66 935.069 463.648 921.262 464.813C907.444 465.98 895.247 459.341 883.917 450.572L882.693 452.153C894.131 461.006 906.841 468.038 921.431 466.806C936.032 465.573 952.212 456.095 970.674 432.67L969.103 431.432ZM1034.91 399C1008.12 399 984.28 411.721 969.096 431.441L970.681 432.661C985.503 413.411 1008.77 401 1034.91 401V399ZM1117.93 482.02C1117.93 436.208 1080.72 399 1034.91 399V401C1079.62 401 1115.93 437.312 1115.93 482.02H1117.93ZM1034.91 565.04C1080.79 565.04 1117.93 527.832 1117.93 482.02H1115.93C1115.93 526.728 1079.69 563.04 1034.91 563.04V565.04Z" fill="#FF46EC" mask="url(#path-32-inside-3_634_51)"/>
<path d="M1034.91 515.64C1016.33 515.64 1001.29 500.604 1001.29 482.02C1001.29 463.437 1016.33 448.4 1034.91 448.4C1053.49 448.4 1068.53 463.437 1068.53 482.02C1068.53 500.604 1053.43 515.64 1034.91 515.64Z" fill="#FF3A17" stroke="#FF46EC"/>
<path d="M378.549 510.109C363.055 510.109 350.469 497.523 350.469 482.029C350.469 466.535 363.055 453.949 378.549 453.949C394.043 453.949 406.629 466.535 406.629 482.029C406.629 497.523 394.043 510.109 378.549 510.109Z" fill="#FF3A17" stroke="#FF46EC"/>
<path d="M72.7088 505.731C59.6547 505.73 49 495.133 49 482.021C49 468.907 59.5961 458.311 72.71 458.311C85.7647 458.311 96.42 468.907 96.42 482.021C96.42 495.072 85.7665 505.661 72.7088 505.731Z" fill="#FF3A17" stroke="#FF46EC"/>
<path d="M219.688 505.02C207.023 505.02 196.688 494.752 196.688 482.02C196.688 469.286 206.954 459.02 219.688 459.02C232.421 459.02 242.688 469.286 242.688 482.02C242.688 494.752 232.352 505.02 219.688 505.02Z" fill="#FF3A17" stroke="#FF46EC"/>
<path d="M523.981 500.45C513.827 500.45 505.551 492.174 505.551 482.02C505.551 471.866 513.827 463.59 523.981 463.59C534.135 463.59 542.411 471.866 542.411 482.02C542.411 492.174 534.135 500.45 523.981 500.45Z" fill="#FF3A17" stroke="#FF46EC"/>
<path d="M638.549 496.07C630.004 496.07 623.02 489.142 623.02 480.54C623.02 471.936 629.946 465.01 638.549 465.01C647.095 465.01 654.08 471.937 654.08 480.54C654.08 489.142 647.095 496.07 638.549 496.07Z" fill="#FF3A17" stroke="#FF46EC"/>
<path d="M858.351 496.839C850.197 496.839 843.531 490.173 843.531 482.019C843.531 473.865 850.197 467.199 858.351 467.199C866.505 467.199 873.171 473.865 873.171 482.019C873.171 490.175 866.574 496.839 858.351 496.839Z" fill="#FF3A17" stroke="#FF46EC"/>
<path d="M732.968 492.659C727.066 492.659 722.328 487.865 722.328 482.019C722.328 476.175 727.124 471.379 732.968 471.379C738.87 471.379 743.608 476.173 743.608 482.019C743.608 487.865 738.87 492.659 732.968 492.659Z" fill="#FF3A17" stroke="#FF46EC"/>
<path d="M9.01636 611.328C9.01636 609.62 7.67236 608.668 5.79636 608.668C3.64036 608.668 2.24036 609.998 2.26836 612.014H3.58436C3.61236 610.334 4.67636 609.732 5.76836 609.732C6.97236 609.732 7.67236 610.446 7.67236 611.496C7.67236 613.288 5.57236 615.206 1.98836 617.852V619H9.29636V617.81H3.72436C6.56636 615.766 9.01636 613.68 9.01636 611.328ZM14.4462 619.182C17.1482 619.182 18.3942 617.138 18.3942 613.918C18.3942 610.712 17.1482 608.668 14.4462 608.668C11.7442 608.668 10.4982 610.712 10.4982 613.918C10.4982 617.138 11.7442 619.182 14.4462 619.182ZM14.4462 609.732C16.0422 609.732 17.0362 611.104 17.0362 613.918C17.0362 616.746 16.0422 618.118 14.4462 618.118C12.8502 618.118 11.8562 616.746 11.8562 613.918C11.8562 611.104 12.8502 609.732 14.4462 609.732ZM21.602 619H22.876V608.85H22.008C21.448 609.956 20.706 610.138 19.25 610.194V611.062H21.602V619ZM32.0063 611.258C32.0063 609.76 30.6903 608.668 28.6183 608.668C26.5323 608.668 25.2303 609.76 25.2303 611.258C25.2303 612.084 25.6223 613.05 26.6303 613.596C25.3003 614.128 24.9083 615.22 24.9083 616.144C24.9083 618.076 26.5183 619.182 28.6183 619.182C30.7043 619.182 32.3143 618.076 32.3143 616.144C32.3143 615.22 31.9223 614.128 30.6063 613.596C31.6143 613.05 32.0063 612.084 32.0063 611.258ZM28.6183 609.732C29.8783 609.732 30.7183 610.404 30.7183 611.412C30.7183 612.434 29.8783 613.19 28.6183 613.19C27.3443 613.19 26.5043 612.434 26.5043 611.412C26.5043 610.404 27.3443 609.732 28.6183 609.732ZM26.2663 616.144C26.2663 614.954 27.1763 614.128 28.6183 614.128C30.0463 614.128 30.9703 614.954 30.9703 616.144C30.9703 617.334 30.0463 618.118 28.6183 618.118C27.1763 618.118 26.2663 617.334 26.2663 616.144Z" fill="black"/>
<mask id="path-43-inside-4_634_51" fill="white">
<path fill-rule="evenodd" clip-rule="evenodd" d="M973.89 717.546C988.162 736.171 1010.63 748.18 1035.91 748.18C1079.04 748.18 1114 713.22 1114 670.09C1114 626.96 1079.04 592 1035.91 592C1010.62 592 988.142 604.02 973.871 622.658C934.326 672.38 905.489 659.936 881.922 641.401V641.408C875.71 636.512 867.87 633.59 859.352 633.59C848.756 633.59 839.211 638.111 832.542 645.328V645.32C807.839 672.057 771.739 668.619 752.172 650.708C747.414 646.238 741.012 643.5 733.973 643.5C727.31 643.5 721.219 645.953 716.552 650.005V650C702.247 662.401 688.179 665.525 669.583 644.412C662.243 635.63 651.203 630.051 638.843 630.051C628.038 630.051 618.243 634.314 611.045 641.253C594.737 655.899 580.088 656.791 561.473 636.539V636.552C552.411 626.698 539.413 620.52 524.982 620.52C512.41 620.52 500.925 625.209 492.183 632.934V632.93C472.532 650.268 454.329 652.319 430.76 625.955C418.365 611.585 400.022 602.49 379.551 602.49C360.228 602.49 342.801 610.591 330.482 623.583C306.757 647.682 287.406 647.08 264.582 624.91V624.93C253.225 613.897 237.726 607.1 220.661 607.1C202.597 607.1 186.305 614.731 174.822 626.941V626.92C151.341 651.869 132.637 651.034 111.262 631.169C101.535 621.783 88.299 616.01 73.7128 616.01C43.8428 616.01 19.6328 640.22 19.6328 670.09C19.6328 699.96 43.8428 724.17 73.7128 724.17C88.2944 724.17 101.527 718.4 111.253 709.019C132.632 689.146 151.338 688.307 174.822 713.26V713.24C186.322 725.451 202.643 733.08 220.721 733.08C238.43 733.08 254.422 725.792 265.858 714.05C288.316 692.913 307.517 692.958 331.062 717.19V717.186C343.345 729.827 360.529 737.68 379.551 737.68V737.69C400.476 737.69 419.161 728.223 431.555 713.344C454.749 687.908 472.753 690.097 492.183 707.25V707.246C500.925 714.97 512.41 719.66 524.982 719.66C539.413 719.66 552.411 713.481 561.473 703.627V703.649C580.363 683.109 595.153 684.319 611.743 699.569V699.564C618.878 706.127 628.4 710.131 638.843 710.131C651.297 710.131 662.41 704.467 669.749 695.57C688.145 674.807 702.096 677.763 716.256 689.915C720.96 694.122 727.169 696.68 733.973 696.68C741.332 696.68 747.987 693.711 752.798 688.91C772.501 671.492 808.1 668.406 832.542 694.86V694.852C839.211 702.069 848.756 706.59 859.352 706.59C868.137 706.59 876.182 703.5 882.47 698.351C905.94 680.053 934.651 668.182 973.89 717.546Z"/>
</mask>
<path d="M973.89 717.546L974.684 716.938L974.679 716.931L974.673 716.924L973.89 717.546ZM973.871 622.658L974.654 623.281L974.66 623.273L974.665 623.266L973.871 622.658ZM881.922 641.401L882.54 640.615L880.922 639.342V641.401H881.922ZM881.922 641.408L881.303 642.194L882.922 643.47V641.408H881.922ZM832.542 645.328H831.542V647.883L833.276 646.006L832.542 645.328ZM832.542 645.32H833.542V642.764L831.807 644.642L832.542 645.32ZM752.172 650.708L751.487 651.437L751.497 651.445L752.172 650.708ZM716.552 650.005H715.552V652.197L717.207 650.76L716.552 650.005ZM716.552 650H717.552V647.809L715.897 649.244L716.552 650ZM669.583 644.412L668.816 645.053L668.824 645.063L668.833 645.073L669.583 644.412ZM611.045 641.253L611.714 641.997L611.727 641.985L611.739 641.973L611.045 641.253ZM561.473 636.539L562.209 635.862L560.473 633.973V636.539H561.473ZM561.473 636.552L560.737 637.229L562.473 639.116V636.552H561.473ZM492.183 632.934H491.183V635.151L492.845 633.683L492.183 632.934ZM492.183 632.93H493.183V630.714L491.521 632.18L492.183 632.93ZM430.76 625.955L430.003 626.608L430.009 626.615L430.015 626.621L430.76 625.955ZM330.482 623.583L331.195 624.285L331.201 624.278L331.208 624.271L330.482 623.583ZM264.582 624.91L265.279 624.193L263.582 622.545V624.91H264.582ZM264.582 624.93L263.885 625.647L265.582 627.296V624.93H264.582ZM174.822 626.941H173.822V629.464L175.55 627.627L174.822 626.941ZM174.822 626.92H175.822V624.398L174.093 626.235L174.822 626.92ZM111.262 631.169L110.568 631.889L110.575 631.895L110.582 631.901L111.262 631.169ZM111.253 709.019L110.572 708.287L110.566 708.293L110.559 708.3L111.253 709.019ZM174.822 713.26L174.093 713.945L175.822 715.782V713.26H174.822ZM174.822 713.24L175.549 712.554L173.822 710.719V713.24H174.822ZM265.858 714.05L265.172 713.322L265.156 713.337L265.141 713.353L265.858 714.05ZM331.062 717.19L330.345 717.887L332.062 719.654V717.19H331.062ZM331.062 717.186L331.779 716.489L330.062 714.722V717.186H331.062ZM379.551 737.68H380.551V736.68H379.551V737.68ZM379.551 737.69H378.551V738.69H379.551V737.69ZM431.555 713.344L430.816 712.671L430.801 712.687L430.787 712.704L431.555 713.344ZM492.183 707.25L491.521 707.999L493.183 709.466V707.25H492.183ZM492.183 707.246L492.845 706.496L491.183 705.028V707.246H492.183ZM561.473 703.627H562.473V701.063L560.737 702.95L561.473 703.627ZM561.473 703.649H560.473V706.214L562.209 704.326L561.473 703.649ZM611.743 699.569L611.066 700.305L612.743 701.847V699.569H611.743ZM611.743 699.564L612.42 698.827L610.743 697.285V699.564H611.743ZM669.749 695.57L669.001 694.907L668.989 694.92L668.978 694.933L669.749 695.57ZM716.256 689.915L716.923 689.169L716.915 689.163L716.908 689.156L716.256 689.915ZM752.798 688.91L752.135 688.161L752.113 688.181L752.091 688.202L752.798 688.91ZM832.542 694.86L831.807 695.539L833.542 697.416V694.86H832.542ZM832.542 694.852L833.276 694.173L831.542 692.297V694.852H832.542ZM882.47 698.351L881.855 697.563L881.846 697.57L881.836 697.578L882.47 698.351ZM973.096 718.155C987.549 737.016 1010.31 749.18 1035.91 749.18V747.18C1010.96 747.18 988.775 735.326 974.684 716.938L973.096 718.155ZM1035.91 749.18C1079.59 749.18 1115 713.772 1115 670.09H1113C1113 712.668 1078.49 747.18 1035.91 747.18V749.18ZM1115 670.09C1115 626.408 1079.59 591 1035.91 591V593C1078.49 593 1113 627.512 1113 670.09H1115ZM1035.91 591C1010.3 591 987.529 603.175 973.077 622.05L974.665 623.266C988.755 604.864 1010.95 593 1035.91 593V591ZM881.304 642.187C893.126 651.485 906.477 659.432 921.957 658.625C937.465 657.816 954.798 648.246 974.654 623.281L973.089 622.036C953.399 646.792 936.541 655.861 921.853 656.627C907.136 657.395 894.284 649.851 882.54 640.615L881.304 642.187ZM882.922 641.408V641.401H880.922V641.408H882.922ZM882.541 640.623C876.159 635.593 868.103 632.59 859.352 632.59V634.59C867.638 634.59 875.261 637.431 881.303 642.194L882.541 640.623ZM859.352 632.59C848.465 632.59 838.658 637.236 831.807 644.649L833.276 646.006C839.764 638.985 849.047 634.59 859.352 634.59V632.59ZM833.542 645.328V645.32H831.542V645.328H833.542ZM831.807 644.642C807.51 670.94 772.044 667.542 752.847 649.97L751.497 651.445C771.435 669.696 808.169 673.174 833.276 645.999L831.807 644.642ZM752.857 649.979C747.921 645.342 741.276 642.5 733.973 642.5V644.5C740.747 644.5 746.907 647.134 751.487 651.437L752.857 649.979ZM733.973 642.5C727.06 642.5 720.738 645.046 715.896 649.25L717.207 650.76C721.699 646.86 727.561 644.5 733.973 644.5V642.5ZM717.552 650.005V650H715.552V650.005H717.552ZM715.897 649.244C708.81 655.388 701.964 659.067 694.717 658.775C687.481 658.483 679.55 654.216 670.333 643.751L668.833 645.073C678.212 655.721 686.613 660.449 694.636 660.773C702.649 661.096 709.989 657.013 717.207 650.755L715.897 649.244ZM670.35 643.77C662.827 634.771 651.511 629.051 638.843 629.051V631.051C650.895 631.051 661.658 636.49 668.816 645.053L670.35 643.77ZM638.843 629.051C627.769 629.051 617.728 633.421 610.351 640.533L611.739 641.973C618.758 635.207 628.306 631.051 638.843 631.051V629.051ZM610.377 640.509C602.306 647.757 594.822 651.439 587.183 650.984C579.534 650.529 571.444 645.909 562.209 635.862L560.736 637.216C570.116 647.42 578.658 652.481 587.064 652.981C595.482 653.482 603.476 649.395 611.714 641.997L610.377 640.509ZM560.473 636.539V636.552H562.473V636.539H560.473ZM562.209 635.875C552.965 625.824 539.704 619.52 524.982 619.52V621.52C539.121 621.52 551.856 627.572 560.737 637.229L562.209 635.875ZM524.982 619.52C512.156 619.52 500.438 624.305 491.521 632.184L492.845 633.683C501.411 626.114 512.663 621.52 524.982 621.52V619.52ZM493.183 632.934V632.93H491.183V632.934H493.183ZM491.521 632.18C481.774 640.78 472.565 645.424 463.002 644.833C453.433 644.241 443.217 638.389 431.506 625.288L430.015 626.621C441.872 639.886 452.542 646.19 462.879 646.829C473.222 647.468 482.94 642.418 492.844 633.679L491.521 632.18ZM431.517 625.302C418.94 610.721 400.325 601.49 379.551 601.49V603.49C399.719 603.49 417.789 612.449 430.003 626.608L431.517 625.302ZM379.551 601.49C359.943 601.49 342.256 609.712 329.757 622.895L331.208 624.271C343.346 611.47 360.514 603.49 379.551 603.49V601.49ZM329.77 622.882C317.985 634.852 307.455 640.51 297.186 640.597C286.916 640.685 276.615 635.203 265.279 624.193L263.885 625.628C275.374 636.787 286.16 642.691 297.203 642.597C308.247 642.503 319.255 636.413 331.195 624.285L329.77 622.882ZM263.582 624.91V624.93H265.582V624.91H263.582ZM265.279 624.213C253.743 613.006 237.997 606.1 220.661 606.1V608.1C237.456 608.1 252.707 614.788 263.885 625.647L265.279 624.213ZM220.661 606.1C202.31 606.1 185.757 613.854 174.093 626.256L175.55 627.627C186.853 615.609 202.885 608.1 220.661 608.1V606.1ZM175.822 626.941V626.92H173.822V626.941H175.822ZM174.093 626.235C162.426 638.631 152.111 644.44 142.211 644.851C132.318 645.261 122.55 640.294 111.943 630.436L110.582 631.901C121.35 641.909 131.62 647.292 142.294 646.849C152.96 646.406 163.736 640.158 175.55 627.605L174.093 626.235ZM111.957 630.449C102.051 620.891 88.5682 615.01 73.7128 615.01V617.01C88.0297 617.01 101.02 622.675 110.568 631.889L111.957 630.449ZM73.7128 615.01C43.2905 615.01 18.6328 639.667 18.6328 670.09H20.6328C20.6328 640.772 44.3951 617.01 73.7128 617.01V615.01ZM18.6328 670.09C18.6328 700.512 43.2905 725.17 73.7128 725.17V723.17C44.3951 723.17 20.6328 699.407 20.6328 670.09H18.6328ZM73.7128 725.17C88.5636 725.17 102.043 719.293 111.947 709.739L110.559 708.3C101.012 717.508 88.0253 723.17 73.7128 723.17V725.17ZM111.934 709.752C122.543 699.89 132.313 694.92 142.207 695.329C152.108 695.738 162.425 701.547 174.093 713.945L175.55 712.575C163.735 700.02 152.957 693.772 142.289 693.331C131.615 692.889 121.342 698.275 110.572 708.287L111.934 709.752ZM175.822 713.26V713.24H173.822V713.26H175.822ZM174.094 713.925C185.775 726.329 202.355 734.08 220.721 734.08V732.08C202.93 732.08 186.869 724.574 175.549 712.554L174.094 713.925ZM220.721 734.08C238.71 734.08 254.958 726.676 266.574 714.748L265.141 713.353C253.887 724.909 238.15 732.08 220.721 732.08V734.08ZM266.543 714.779C277.687 704.29 287.851 699.223 298.014 699.606C308.188 699.99 318.645 705.846 330.345 717.887L331.779 716.493C319.933 704.302 309.017 698.02 298.09 697.607C287.151 697.195 276.486 702.673 265.172 713.322L266.543 714.779ZM332.062 717.19V717.186H330.062V717.19H332.062ZM330.345 717.883C342.808 730.71 360.248 738.68 379.551 738.68V736.68C360.81 736.68 343.881 728.945 331.779 716.489L330.345 717.883ZM378.551 737.68V737.69H380.551V737.68H378.551ZM379.551 738.69C400.785 738.69 419.747 729.082 432.323 713.985L430.787 712.704C418.575 727.364 400.168 736.69 379.551 736.69V738.69ZM432.294 714.018C443.813 701.385 453.883 695.794 463.33 695.325C472.775 694.855 481.884 699.491 491.521 707.999L492.844 706.5C483.052 697.855 473.444 692.82 463.231 693.327C453.019 693.834 442.49 699.867 430.816 712.671L432.294 714.018ZM493.183 707.25V707.246H491.183V707.25H493.183ZM491.521 707.995C500.438 715.874 512.156 720.66 524.982 720.66V718.66C512.663 718.66 501.411 714.065 492.845 706.496L491.521 707.995ZM524.982 720.66C539.704 720.66 552.965 714.355 562.209 704.304L560.737 702.95C551.856 712.607 539.121 718.66 524.982 718.66V720.66ZM560.473 703.627V703.649H562.473V703.627H560.473ZM562.209 704.326C571.581 694.136 579.769 689.528 587.514 689.187C595.255 688.845 602.848 692.751 611.066 700.305L612.419 698.833C604.047 691.137 595.951 686.813 587.426 687.189C578.906 687.565 570.255 692.623 560.737 702.972L562.209 704.326ZM612.743 699.569V699.564H610.743V699.569H612.743ZM611.066 700.3C618.379 707.026 628.139 711.131 638.843 711.131V709.131C628.66 709.131 619.378 705.228 612.42 698.827L611.066 700.3ZM638.843 711.131C651.607 711.131 662.999 705.324 670.521 696.206L668.978 694.933C661.821 703.609 650.987 709.131 638.843 709.131V711.131ZM670.498 696.233C679.614 685.943 687.467 681.718 694.635 681.398C701.812 681.078 708.594 684.657 715.605 690.674L716.908 689.156C709.759 683.021 702.484 679.046 694.546 679.4C686.6 679.755 678.28 684.433 669.001 694.907L670.498 696.233ZM715.59 690.66C720.47 695.024 726.913 697.68 733.973 697.68V695.68C727.424 695.68 721.451 693.219 716.923 689.169L715.59 690.66ZM733.973 697.68C741.607 697.68 748.512 694.599 753.504 689.618L752.091 688.202C747.461 692.823 741.058 695.68 733.973 695.68V697.68ZM753.46 689.659C772.792 672.569 807.767 669.519 831.807 695.539L833.276 694.182C808.434 667.293 772.209 670.415 752.135 688.161L753.46 689.659ZM833.542 694.86V694.852H831.542V694.86H833.542ZM831.807 695.531C838.658 702.944 848.465 707.59 859.352 707.59V705.59C849.047 705.59 839.764 701.194 833.276 694.173L831.807 695.531ZM859.352 707.59C868.376 707.59 876.643 704.415 883.103 699.125L881.836 697.578C875.721 702.585 867.898 705.59 859.352 705.59V707.59ZM974.673 716.924C954.971 692.138 937.749 682.517 922.327 681.577C906.929 680.639 893.634 688.38 881.855 697.563L883.085 699.14C894.776 690.025 907.571 682.681 922.206 683.574C936.817 684.464 953.57 693.59 973.107 718.169L974.673 716.924Z" fill="#FF46EC" mask="url(#path-43-inside-4_634_51)"/>
<path d="M1035.91 701.84C1018.36 701.84 1004.16 687.644 1004.16 670.09C1004.16 652.536 1018.36 638.34 1035.91 638.34C1053.46 638.34 1067.66 652.536 1067.66 670.09C1067.66 687.644 1053.46 701.84 1035.91 701.84Z" fill="#FF3A17" stroke="#FF46EC"/>
<path d="M405.901 670.08L405.901 670.082C405.96 684.614 394.156 696.43 379.551 696.43C365.017 696.43 353.211 684.615 353.211 670.08C353.211 655.546 365.027 643.73 379.551 643.73C394.085 643.73 405.901 655.547 405.901 670.08Z" fill="#FF3A17" stroke="#FF46EC"/>
<path d="M73.7106 691.15C62.0768 691.15 52.6406 681.714 52.6406 670.08C52.6406 658.446 62.0768 649.01 73.7106 649.01C85.3445 649.01 94.7806 658.446 94.7806 670.08C94.7806 681.714 85.3445 691.15 73.7106 691.15Z" fill="#FF3A17" stroke="#FF46EC"/>
<path d="M220.689 694.311C207.315 694.311 196.469 683.465 196.469 670.091C196.469 656.717 207.315 645.871 220.689 645.871C234.063 645.871 244.909 656.717 244.909 670.091C244.909 683.465 234.063 694.311 220.689 694.311Z" fill="#FF3A17" stroke="#FF46EC"/>
<path d="M524.983 690.19C513.869 690.19 504.883 681.204 504.883 670.09C504.883 658.976 513.869 649.99 524.983 649.99C536.097 649.99 545.083 658.976 545.083 670.09C545.083 681.204 536.097 690.19 524.983 690.19Z" fill="#FF3A17" stroke="#FF46EC"/>
<path d="M638.84 685.68C630.236 685.68 623.25 678.694 623.25 670.09C623.25 661.486 630.236 654.5 638.84 654.5C647.443 654.5 654.429 661.485 654.43 670.088C654.371 678.696 647.381 685.68 638.84 685.68Z" fill="#FF3A17" stroke="#FF46EC"/>
<path d="M859.352 683.941C851.708 683.941 845.492 677.725 845.492 670.081C845.492 662.437 851.708 656.221 859.352 656.221C866.995 656.221 873.211 662.436 873.212 670.079C873.153 677.728 866.992 683.941 859.352 683.941Z" fill="#FF3A17" stroke="#FF46EC"/>
<path d="M733.97 680.08C728.457 680.08 723.98 675.603 723.98 670.09C723.98 664.576 728.457 660.1 733.97 660.1C739.484 660.1 743.961 664.576 743.961 670.09C743.961 675.603 739.484 680.08 733.97 680.08Z" fill="#FF3A17" stroke="#FF46EC"/>
</g>
<defs>
<clipPath id="clip0_634_51">
<rect width="1118" height="749" fill="white"/>
</clipPath>
</defs>
</svg>
