<svg viewBox="0 0 252 159" fill="none" xmlns="http://www.w3.org/2000/svg">
<path d="M53.032 6.3V15H56.464C58.204 15 59.584 14.28 59.584 12.432C59.584 11.364 59.092 10.716 58.264 10.368C58.864 10.02 59.224 9.276 59.224 8.448C59.224 6.72 57.784 6.3 56.164 6.3H53.032ZM54.256 10.02V7.332H56.356C57.328 7.332 57.988 7.728 57.988 8.616C57.988 9.636 57.352 10.02 56.356 10.02H54.256ZM54.256 13.968V10.992H56.404C57.712 10.992 58.324 11.424 58.324 12.444C58.324 13.428 57.712 13.968 56.476 13.968H54.256ZM60.5425 13.296C60.5425 14.484 61.5505 15.156 62.7625 15.156C63.9025 15.156 64.5745 14.772 64.9705 14.112C64.9825 14.496 65.0185 14.76 65.0545 15H66.1585C66.0385 14.388 65.9785 13.644 65.9905 12.564L66.0025 11.076C66.0145 9.264 65.2105 8.412 63.4345 8.412C62.1745 8.412 60.9505 9.192 60.8425 10.584H61.9705C62.0185 9.792 62.5465 9.3 63.4465 9.3C64.2505 9.3 64.9105 9.696 64.9105 10.872V11.028C62.2585 11.328 60.5425 11.772 60.5425 13.296ZM64.9945 11.892V12.3C64.9945 13.824 64.0225 14.292 63.0025 14.292C62.2225 14.292 61.7545 13.884 61.7545 13.272C61.7545 12.384 63.0145 12.096 64.9945 11.892ZM73.0056 10.704C72.8616 9.612 71.8656 8.436 70.3056 8.436C68.3976 8.436 67.1856 9.864 67.1856 11.784C67.1856 13.752 68.3496 15.156 70.1976 15.156C71.6976 15.156 72.8616 14.112 73.0776 12.9H71.9496C71.7936 13.584 71.1456 14.196 70.2336 14.196C69.2736 14.196 68.3736 13.416 68.3736 11.772C68.3736 10.152 69.2616 9.396 70.2336 9.396C71.0736 9.396 71.7456 9.936 71.9016 10.704H73.0056ZM74.6213 6.924V8.544H73.6013V9.42H74.6213V13.38C74.6213 14.724 74.9093 15 76.1453 15H76.9373V14.088H76.3853C75.7613 14.088 75.7133 13.92 75.7133 13.248V9.42H76.9373V8.544H75.7133V6.924H74.6213ZM78.8851 12.132H83.8531C83.9971 10.092 82.8091 8.436 80.8411 8.436C79.0771 8.436 77.7091 9.744 77.7091 11.784C77.7091 13.692 78.8371 15.156 80.8771 15.156C82.4491 15.156 83.4691 14.244 83.7691 13.128H82.6411C82.3651 13.764 81.8371 14.196 80.8771 14.196C79.9171 14.196 78.9331 13.524 78.8851 12.132ZM78.8971 11.196C78.9931 9.9 79.8691 9.372 80.8411 9.372C81.9931 9.372 82.6771 10.284 82.7011 11.196H78.8971ZM88.3417 9.684V8.52C88.2217 8.508 88.1257 8.508 88.0177 8.508C87.1777 8.532 86.5177 8.94 86.1937 9.672V8.544H85.1257V15H86.2177V11.616C86.2177 10.2 86.7217 9.636 87.7297 9.636C87.9097 9.636 88.1137 9.66 88.3417 9.684ZM90.4833 6.3H89.3913V7.62H90.4833V6.3ZM90.4833 8.544H89.3913V15H90.4833V8.544ZM96.2116 14.076V15H97.3036V8.544H96.2116V12.096C96.2116 13.476 95.5996 14.208 94.5676 14.208C93.3796 14.208 93.2116 13.344 93.2116 12.348V8.544H92.1196V12.672C92.1196 14.148 92.6836 15.156 94.1836 15.156C95.2516 15.156 95.8396 14.688 96.2116 14.076ZM100.128 15V11.496C100.128 10.116 100.752 9.384 101.688 9.384C102.876 9.384 103.068 10.248 103.068 11.244V15H104.16V11.496C104.16 10.116 104.784 9.384 105.72 9.384C106.908 9.384 107.1 10.248 107.1 11.244V15H108.192V10.92C108.192 9.444 107.604 8.436 106.104 8.436C105.204 8.436 104.448 8.784 103.932 9.576C103.644 8.868 103.056 8.436 102.072 8.436C101.1 8.436 100.5 8.904 100.128 9.516V8.544H99.0359V15H100.128Z" fill="black"/>
<path d="M56.452 40.328L58.336 44H59.704L57.688 40.136C58.756 39.848 59.416 39.188 59.416 37.808C59.416 35.72 57.916 35.3 55.792 35.3H53.032V44H54.256V40.34H55.792C56.02 40.34 56.236 40.34 56.452 40.328ZM54.256 36.332H55.888C57.16 36.332 58.156 36.488 58.156 37.832C58.156 39.176 57.16 39.308 55.888 39.308H54.256V36.332ZM61.6819 41.132H66.6499C66.7939 39.092 65.6059 37.436 63.6379 37.436C61.8739 37.436 60.5059 38.744 60.5059 40.784C60.5059 42.692 61.6339 44.156 63.6739 44.156C65.2459 44.156 66.2659 43.244 66.5659 42.128H65.4379C65.1619 42.764 64.6339 43.196 63.6739 43.196C62.7139 43.196 61.7299 42.524 61.6819 41.132ZM61.6939 40.196C61.7899 38.9 62.6659 38.372 63.6379 38.372C64.7899 38.372 65.4739 39.284 65.4979 40.196H61.6939ZM71.642 39.428H72.782C72.578 38.204 71.63 37.424 70.238 37.424C68.81 37.424 67.658 38.084 67.658 39.224C67.658 40.424 68.618 40.832 69.494 41.012L70.454 41.204C71.15 41.348 71.762 41.624 71.762 42.272C71.762 42.872 71.09 43.232 70.262 43.232C69.302 43.232 68.786 42.74 68.618 41.912H67.466C67.586 43.04 68.546 44.156 70.238 44.156C71.714 44.156 72.866 43.424 72.866 42.152C72.866 40.904 71.834 40.46 70.658 40.232L69.746 40.052C69.122 39.932 68.762 39.692 68.762 39.176C68.762 38.588 69.482 38.36 70.118 38.36C70.874 38.36 71.474 38.66 71.642 39.428ZM75.3427 35.3H74.2507V36.62H75.3427V35.3ZM75.3427 37.544H74.2507V44H75.3427V37.544ZM80.7709 39.428H81.9109C81.7069 38.204 80.7589 37.424 79.3669 37.424C77.9389 37.424 76.7869 38.084 76.7869 39.224C76.7869 40.424 77.7469 40.832 78.6229 41.012L79.5829 41.204C80.2789 41.348 80.8909 41.624 80.8909 42.272C80.8909 42.872 80.2189 43.232 79.3909 43.232C78.4309 43.232 77.9149 42.74 77.7469 41.912H76.5949C76.7149 43.04 77.6749 44.156 79.3669 44.156C80.8429 44.156 81.9949 43.424 81.9949 42.152C81.9949 40.904 80.9629 40.46 79.7869 40.232L78.8749 40.052C78.2509 39.932 77.8909 39.692 77.8909 39.176C77.8909 38.588 78.6109 38.36 79.2469 38.36C80.0029 38.36 80.6029 38.66 80.7709 39.428ZM83.6916 35.924V37.544H82.6716V38.42H83.6916V42.38C83.6916 43.724 83.9796 44 85.2156 44H86.0076V43.088H85.4556C84.8316 43.088 84.7836 42.92 84.7836 42.248V38.42H86.0076V37.544H84.7836V35.924H83.6916ZM86.898 42.296C86.898 43.484 87.906 44.156 89.118 44.156C90.258 44.156 90.93 43.772 91.326 43.112C91.338 43.496 91.374 43.76 91.41 44H92.514C92.394 43.388 92.334 42.644 92.346 41.564L92.358 40.076C92.37 38.264 91.566 37.412 89.79 37.412C88.53 37.412 87.306 38.192 87.198 39.584H88.326C88.374 38.792 88.902 38.3 89.802 38.3C90.606 38.3 91.266 38.696 91.266 39.872V40.028C88.614 40.328 86.898 40.772 86.898 42.296ZM91.35 40.892V41.3C91.35 42.824 90.378 43.292 89.358 43.292C88.578 43.292 88.11 42.884 88.11 42.272C88.11 41.384 89.37 41.096 91.35 40.892ZM95.0771 38.516V37.544H93.9851V44H95.0771V40.496C95.0771 39.116 95.7251 38.384 96.7811 38.384C98.0291 38.384 98.1971 39.248 98.1971 40.244V44H99.2891V39.92C99.2891 38.444 98.7251 37.436 97.1651 37.436C96.0731 37.436 95.4491 37.904 95.0771 38.516ZM101.235 35.924V37.544H100.215V38.42H101.235V42.38C101.235 43.724 101.523 44 102.759 44H103.551V43.088H102.999C102.375 43.088 102.327 42.92 102.327 42.248V38.42H103.551V37.544H102.327V35.924H101.235ZM108.765 35.3H107.673V44H108.765V43.028C109.161 43.712 109.845 44.156 110.877 44.156C112.353 44.156 113.637 42.932 113.637 40.796C113.637 38.672 112.353 37.436 110.877 37.436C109.845 37.436 109.161 37.88 108.765 38.564V35.3ZM110.601 43.22C109.629 43.22 108.717 42.5 108.717 40.796C108.717 39.092 109.629 38.372 110.601 38.372C111.717 38.372 112.449 39.26 112.449 40.796C112.449 42.332 111.717 43.22 110.601 43.22ZM114.496 42.296C114.496 43.484 115.504 44.156 116.716 44.156C117.856 44.156 118.528 43.772 118.924 43.112C118.936 43.496 118.972 43.76 119.008 44H120.112C119.992 43.388 119.932 42.644 119.944 41.564L119.956 40.076C119.968 38.264 119.164 37.412 117.388 37.412C116.128 37.412 114.904 38.192 114.796 39.584H115.924C115.972 38.792 116.5 38.3 117.4 38.3C118.204 38.3 118.864 38.696 118.864 39.872V40.028C116.212 40.328 114.496 40.772 114.496 42.296ZM118.948 40.892V41.3C118.948 42.824 117.976 43.292 116.956 43.292C116.176 43.292 115.708 42.884 115.708 42.272C115.708 41.384 116.968 41.096 118.948 40.892ZM126.959 39.704C126.815 38.612 125.819 37.436 124.259 37.436C122.351 37.436 121.139 38.864 121.139 40.784C121.139 42.752 122.303 44.156 124.151 44.156C125.651 44.156 126.815 43.112 127.031 41.9H125.903C125.747 42.584 125.099 43.196 124.187 43.196C123.227 43.196 122.327 42.416 122.327 40.772C122.327 39.152 123.215 38.396 124.187 38.396C125.027 38.396 125.699 38.936 125.855 39.704H126.959ZM128.574 35.924V37.544H127.554V38.42H128.574V42.38C128.574 43.724 128.862 44 130.098 44H130.89V43.088H130.338C129.714 43.088 129.666 42.92 129.666 42.248V38.42H130.89V37.544H129.666V35.924H128.574ZM132.838 41.132H137.806C137.95 39.092 136.762 37.436 134.794 37.436C133.03 37.436 131.662 38.744 131.662 40.784C131.662 42.692 132.79 44.156 134.83 44.156C136.402 44.156 137.422 43.244 137.722 42.128H136.594C136.318 42.764 135.79 43.196 134.83 43.196C133.87 43.196 132.886 42.524 132.838 41.132ZM132.85 40.196C132.946 38.9 133.822 38.372 134.794 38.372C135.946 38.372 136.63 39.284 136.654 40.196H132.85ZM142.295 38.684V37.52C142.175 37.508 142.079 37.508 141.971 37.508C141.131 37.532 140.471 37.94 140.147 38.672V37.544H139.079V44H140.171V40.616C140.171 39.2 140.675 38.636 141.683 38.636C141.863 38.636 142.067 38.66 142.295 38.684ZM144.436 35.3H143.344V36.62H144.436V35.3ZM144.436 37.544H143.344V44H144.436V37.544ZM150.165 43.076V44H151.257V37.544H150.165V41.096C150.165 42.476 149.553 43.208 148.521 43.208C147.333 43.208 147.165 42.344 147.165 41.348V37.544H146.073V41.672C146.073 43.148 146.637 44.156 148.137 44.156C149.205 44.156 149.793 43.688 150.165 43.076ZM154.081 44V40.496C154.081 39.116 154.705 38.384 155.641 38.384C156.829 38.384 157.021 39.248 157.021 40.244V44H158.113V40.496C158.113 39.116 158.737 38.384 159.673 38.384C160.861 38.384 161.053 39.248 161.053 40.244V44H162.145V39.92C162.145 38.444 161.557 37.436 160.057 37.436C159.157 37.436 158.401 37.784 157.885 38.576C157.597 37.868 157.009 37.436 156.025 37.436C155.053 37.436 154.453 37.904 154.081 38.516V37.544H152.989V44H154.081Z" fill="black"/>
<path d="M55.228 74.3L52 83H53.248L53.92 81.116H57.916L58.6 83H59.92L56.644 74.3H55.228ZM54.292 80.072L55.9 75.536L57.532 80.072H54.292ZM61.8779 77.516V76.544H60.7859V83H61.8779V79.496C61.8779 78.116 62.5259 77.384 63.5819 77.384C64.8299 77.384 64.9979 78.248 64.9979 79.244V83H66.0899V78.92C66.0899 77.444 65.5259 76.436 63.9659 76.436C62.8739 76.436 62.2499 76.904 61.8779 77.516ZM68.0354 74.924V76.544H67.0154V77.42H68.0354V81.38C68.0354 82.724 68.3234 83 69.5594 83H70.3514V82.088H69.7994C69.1754 82.088 69.1274 81.92 69.1274 81.248V77.42H70.3514V76.544H69.1274V74.924H68.0354ZM72.8349 74.3H71.7429V75.62H72.8349V74.3ZM72.8349 76.544H71.7429V83H72.8349V76.544ZM75.6591 74.3H74.5671V83H75.6591V82.028C76.0551 82.712 76.7391 83.156 77.7711 83.156C79.2471 83.156 80.5311 81.932 80.5311 79.796C80.5311 77.672 79.2471 76.436 77.7711 76.436C76.7391 76.436 76.0551 76.88 75.6591 77.564V74.3ZM77.4951 82.22C76.5231 82.22 75.6111 81.5 75.6111 79.796C75.6111 78.092 76.5231 77.372 77.4951 77.372C78.6111 77.372 79.3431 78.26 79.3431 79.796C79.3431 81.332 78.6111 82.22 77.4951 82.22ZM82.8662 74.3H81.7742V75.62H82.8662V74.3ZM82.8662 76.544H81.7742V83H82.8662V76.544ZM90.3704 79.796C90.3704 77.456 88.7744 76.436 87.2744 76.436C85.7744 76.436 84.1784 77.456 84.1784 79.796C84.1784 82.136 85.7744 83.156 87.2744 83.156C88.7744 83.156 90.3704 82.136 90.3704 79.796ZM87.2744 82.196C86.2904 82.196 85.3424 81.512 85.3424 79.796C85.3424 78.032 86.2904 77.396 87.2744 77.396C88.2584 77.396 89.2064 78.08 89.2064 79.796C89.2064 81.452 88.2584 82.196 87.2744 82.196ZM91.9299 74.924V76.544H90.9099V77.42H91.9299V81.38C91.9299 82.724 92.2179 83 93.4539 83H94.2459V82.088H93.6939C93.0699 82.088 93.0219 81.92 93.0219 81.248V77.42H94.2459V76.544H93.0219V74.924H91.9299ZM96.7294 74.3H95.6374V75.62H96.7294V74.3ZM96.7294 76.544H95.6374V83H96.7294V76.544ZM103.838 78.704C103.694 77.612 102.698 76.436 101.138 76.436C99.2297 76.436 98.0177 77.864 98.0177 79.784C98.0177 81.752 99.1817 83.156 101.03 83.156C102.53 83.156 103.694 82.112 103.91 80.9H102.782C102.626 81.584 101.978 82.196 101.066 82.196C100.106 82.196 99.2057 81.416 99.2057 79.772C99.2057 78.152 100.094 77.396 101.066 77.396C101.906 77.396 102.578 77.936 102.734 78.704H103.838ZM110.881 76.544L109.597 81.32L108.361 76.544H107.185L109.045 83H110.041L111.421 77.804L112.849 83H113.845L115.705 76.544H114.529L113.293 81.32L112.009 76.544H110.881ZM122.339 79.796C122.339 77.456 120.743 76.436 119.243 76.436C117.743 76.436 116.147 77.456 116.147 79.796C116.147 82.136 117.743 83.156 119.243 83.156C120.743 83.156 122.339 82.136 122.339 79.796ZM119.243 82.196C118.259 82.196 117.311 81.512 117.311 79.796C117.311 78.032 118.259 77.396 119.243 77.396C120.227 77.396 121.175 78.08 121.175 79.796C121.175 81.452 120.227 82.196 119.243 82.196ZM126.861 77.684V76.52C126.741 76.508 126.645 76.508 126.537 76.508C125.697 76.532 125.037 76.94 124.713 77.672V76.544H123.645V83H124.737V79.616C124.737 78.2 125.241 77.636 126.249 77.636C126.429 77.636 126.633 77.66 126.861 77.684ZM129.003 74.3H127.911V83H129.003V80.84L129.759 80.024L131.955 83H133.287L130.491 79.22L132.951 76.544H131.607L129.003 79.448V74.3ZM135.061 74.3H133.969V75.62H135.061V74.3ZM135.061 76.544H133.969V83H135.061V76.544ZM137.886 77.516V76.544H136.794V83H137.886V79.496C137.886 78.116 138.534 77.384 139.59 77.384C140.838 77.384 141.006 78.248 141.006 79.244V83H142.098V78.92C142.098 77.444 141.534 76.436 139.974 76.436C138.882 76.436 138.258 76.904 137.886 77.516ZM148.075 76.544V77.564C147.679 76.88 147.055 76.436 146.023 76.436C144.595 76.436 143.287 77.6 143.287 79.664C143.287 81.74 144.595 82.892 146.023 82.892C147.055 82.892 147.679 82.46 148.075 81.776V82.388C148.075 83.264 147.895 83.564 147.655 83.816C147.367 84.128 146.923 84.296 146.335 84.296C145.327 84.296 144.979 83.852 144.835 83.276H143.671C143.875 84.584 144.859 85.256 146.323 85.256C147.283 85.256 148.087 84.944 148.555 84.404C148.927 83.996 149.167 83.456 149.167 82.136V76.544H148.075ZM146.299 77.372C147.271 77.372 148.123 78.032 148.123 79.664C148.123 81.308 147.271 81.968 146.299 81.968C145.231 81.968 144.475 81.14 144.475 79.664C144.475 78.2 145.231 77.372 146.299 77.372ZM153.355 81.296C153.355 82.484 154.363 83.156 155.575 83.156C156.715 83.156 157.387 82.772 157.783 82.112C157.795 82.496 157.831 82.76 157.867 83H158.971C158.851 82.388 158.791 81.644 158.803 80.564L158.815 79.076C158.827 77.264 158.023 76.412 156.247 76.412C154.987 76.412 153.763 77.192 153.655 78.584H154.783C154.831 77.792 155.359 77.3 156.259 77.3C157.063 77.3 157.723 77.696 157.723 78.872V79.028C155.071 79.328 153.355 79.772 153.355 81.296ZM157.807 79.892V80.3C157.807 81.824 156.835 82.292 155.815 82.292C155.035 82.292 154.567 81.884 154.567 81.272C154.567 80.384 155.827 80.096 157.807 79.892ZM165.818 78.704C165.674 77.612 164.678 76.436 163.118 76.436C161.21 76.436 159.998 77.864 159.998 79.784C159.998 81.752 161.162 83.156 163.01 83.156C164.51 83.156 165.674 82.112 165.89 80.9H164.762C164.606 81.584 163.958 82.196 163.046 82.196C162.086 82.196 161.186 81.416 161.186 79.772C161.186 78.152 162.074 77.396 163.046 77.396C163.886 77.396 164.558 77.936 164.714 78.704H165.818ZM167.434 74.924V76.544H166.414V77.42H167.434V81.38C167.434 82.724 167.722 83 168.958 83H169.75V82.088H169.198C168.574 82.088 168.526 81.92 168.526 81.248V77.42H169.75V76.544H168.526V74.924H167.434ZM172.233 74.3H171.141V75.62H172.233V74.3ZM172.233 76.544H171.141V83H172.233V76.544ZM179.738 79.796C179.738 77.456 178.142 76.436 176.642 76.436C175.142 76.436 173.546 77.456 173.546 79.796C173.546 82.136 175.142 83.156 176.642 83.156C178.142 83.156 179.738 82.136 179.738 79.796ZM176.642 82.196C175.658 82.196 174.71 81.512 174.71 79.796C174.71 78.032 175.658 77.396 176.642 77.396C177.626 77.396 178.574 78.08 178.574 79.796C178.574 81.452 177.626 82.196 176.642 82.196ZM182.136 77.516V76.544H181.044V83H182.136V79.496C182.136 78.116 182.784 77.384 183.84 77.384C185.088 77.384 185.256 78.248 185.256 79.244V83H186.348V78.92C186.348 77.444 185.784 76.436 184.224 76.436C183.132 76.436 182.508 76.904 182.136 77.516Z" fill="black"/>
<path d="M55.228 123.3L52 132H53.248L53.92 130.116H57.916L58.6 132H59.92L56.644 123.3H55.228ZM54.292 129.072L55.9 124.536L57.532 129.072H54.292ZM61.8779 126.516V125.544H60.7859V132H61.8779V128.496C61.8779 127.116 62.5259 126.384 63.5819 126.384C64.8299 126.384 64.9979 127.248 64.9979 128.244V132H66.0899V127.92C66.0899 126.444 65.5259 125.436 63.9659 125.436C62.8739 125.436 62.2499 125.904 61.8779 126.516ZM68.0354 123.924V125.544H67.0154V126.42H68.0354V130.38C68.0354 131.724 68.3234 132 69.5594 132H70.3514V131.088H69.7994C69.1754 131.088 69.1274 130.92 69.1274 130.248V126.42H70.3514V125.544H69.1274V123.924H68.0354ZM72.8349 123.3H71.7429V124.62H72.8349V123.3ZM72.8349 125.544H71.7429V132H72.8349V125.544ZM75.6591 123.3H74.5671V132H75.6591V131.028C76.0551 131.712 76.7391 132.156 77.7711 132.156C79.2471 132.156 80.5311 130.932 80.5311 128.796C80.5311 126.672 79.2471 125.436 77.7711 125.436C76.7391 125.436 76.0551 125.88 75.6591 126.564V123.3ZM77.4951 131.22C76.5231 131.22 75.6111 130.5 75.6111 128.796C75.6111 127.092 76.5231 126.372 77.4951 126.372C78.6111 126.372 79.3431 127.26 79.3431 128.796C79.3431 130.332 78.6111 131.22 77.4951 131.22ZM82.8662 123.3H81.7742V124.62H82.8662V123.3ZM82.8662 125.544H81.7742V132H82.8662V125.544ZM90.3704 128.796C90.3704 126.456 88.7744 125.436 87.2744 125.436C85.7744 125.436 84.1784 126.456 84.1784 128.796C84.1784 131.136 85.7744 132.156 87.2744 132.156C88.7744 132.156 90.3704 131.136 90.3704 128.796ZM87.2744 131.196C86.2904 131.196 85.3424 130.512 85.3424 128.796C85.3424 127.032 86.2904 126.396 87.2744 126.396C88.2584 126.396 89.2064 127.08 89.2064 128.796C89.2064 130.452 88.2584 131.196 87.2744 131.196ZM91.9299 123.924V125.544H90.9099V126.42H91.9299V130.38C91.9299 131.724 92.2179 132 93.4539 132H94.2459V131.088H93.6939C93.0699 131.088 93.0219 130.92 93.0219 130.248V126.42H94.2459V125.544H93.0219V123.924H91.9299ZM96.7294 123.3H95.6374V124.62H96.7294V123.3ZM96.7294 125.544H95.6374V132H96.7294V125.544ZM103.838 127.704C103.694 126.612 102.698 125.436 101.138 125.436C99.2297 125.436 98.0177 126.864 98.0177 128.784C98.0177 130.752 99.1817 132.156 101.03 132.156C102.53 132.156 103.694 131.112 103.91 129.9H102.782C102.626 130.584 101.978 131.196 101.066 131.196C100.106 131.196 99.2057 130.416 99.2057 128.772C99.2057 127.152 100.094 126.396 101.066 126.396C101.906 126.396 102.578 126.936 102.734 127.704H103.838ZM109.081 126.516V125.544H107.989V132H109.081V128.496C109.081 127.116 109.729 126.384 110.785 126.384C112.033 126.384 112.201 127.248 112.201 128.244V132H113.293V127.92C113.293 126.444 112.729 125.436 111.169 125.436C110.077 125.436 109.453 125.904 109.081 126.516ZM120.699 128.796C120.699 126.456 119.103 125.436 117.603 125.436C116.103 125.436 114.507 126.456 114.507 128.796C114.507 131.136 116.103 132.156 117.603 132.156C119.103 132.156 120.699 131.136 120.699 128.796ZM117.603 131.196C116.619 131.196 115.671 130.512 115.671 128.796C115.671 127.032 116.619 126.396 117.603 126.396C118.587 126.396 119.535 127.08 119.535 128.796C119.535 130.452 118.587 131.196 117.603 131.196ZM122.258 123.924V125.544H121.238V126.42H122.258V130.38C122.258 131.724 122.546 132 123.782 132H124.574V131.088H124.022C123.398 131.088 123.35 130.92 123.35 130.248V126.42H124.574V125.544H123.35V123.924H122.258ZM131.588 125.544L130.304 130.32L129.068 125.544H127.892L129.752 132H130.748L132.128 126.804L133.556 132H134.552L136.412 125.544H135.236L134 130.32L132.716 125.544H131.588ZM143.046 128.796C143.046 126.456 141.45 125.436 139.95 125.436C138.45 125.436 136.854 126.456 136.854 128.796C136.854 131.136 138.45 132.156 139.95 132.156C141.45 132.156 143.046 131.136 143.046 128.796ZM139.95 131.196C138.966 131.196 138.018 130.512 138.018 128.796C138.018 127.032 138.966 126.396 139.95 126.396C140.934 126.396 141.882 127.08 141.882 128.796C141.882 130.452 140.934 131.196 139.95 131.196ZM147.568 126.684V125.52C147.448 125.508 147.352 125.508 147.244 125.508C146.404 125.532 145.744 125.94 145.42 126.672V125.544H144.352V132H145.444V128.616C145.444 127.2 145.948 126.636 146.956 126.636C147.136 126.636 147.34 126.66 147.568 126.684ZM149.71 123.3H148.618V132H149.71V129.84L150.466 129.024L152.662 132H153.994L151.198 128.22L153.658 125.544H152.314L149.71 128.448V123.3ZM155.769 123.3H154.677V124.62H155.769V123.3ZM155.769 125.544H154.677V132H155.769V125.544ZM158.593 126.516V125.544H157.501V132H158.593V128.496C158.593 127.116 159.241 126.384 160.297 126.384C161.545 126.384 161.713 127.248 161.713 128.244V132H162.805V127.92C162.805 126.444 162.241 125.436 160.681 125.436C159.589 125.436 158.965 125.904 158.593 126.516ZM168.782 125.544V126.564C168.386 125.88 167.762 125.436 166.73 125.436C165.302 125.436 163.994 126.6 163.994 128.664C163.994 130.74 165.302 131.892 166.73 131.892C167.762 131.892 168.386 131.46 168.782 130.776V131.388C168.782 132.264 168.602 132.564 168.362 132.816C168.074 133.128 167.63 133.296 167.042 133.296C166.034 133.296 165.686 132.852 165.542 132.276H164.378C164.582 133.584 165.566 134.256 167.03 134.256C167.99 134.256 168.794 133.944 169.262 133.404C169.634 132.996 169.874 132.456 169.874 131.136V125.544H168.782ZM167.006 126.372C167.978 126.372 168.83 127.032 168.83 128.664C168.83 130.308 167.978 130.968 167.006 130.968C165.938 130.968 165.182 130.14 165.182 128.664C165.182 127.2 165.938 126.372 167.006 126.372ZM174.062 130.296C174.062 131.484 175.07 132.156 176.282 132.156C177.422 132.156 178.094 131.772 178.49 131.112C178.502 131.496 178.538 131.76 178.574 132H179.678C179.558 131.388 179.498 130.644 179.51 129.564L179.522 128.076C179.534 126.264 178.73 125.412 176.954 125.412C175.694 125.412 174.47 126.192 174.362 127.584H175.49C175.538 126.792 176.066 126.3 176.966 126.3C177.77 126.3 178.43 126.696 178.43 127.872V128.028C175.778 128.328 174.062 128.772 174.062 130.296ZM178.514 128.892V129.3C178.514 130.824 177.542 131.292 176.522 131.292C175.742 131.292 175.274 130.884 175.274 130.272C175.274 129.384 176.534 129.096 178.514 128.892ZM186.525 127.704C186.381 126.612 185.385 125.436 183.825 125.436C181.917 125.436 180.705 126.864 180.705 128.784C180.705 130.752 181.869 132.156 183.717 132.156C185.217 132.156 186.381 131.112 186.597 129.9H185.469C185.313 130.584 184.665 131.196 183.753 131.196C182.793 131.196 181.893 130.416 181.893 128.772C181.893 127.152 182.781 126.396 183.753 126.396C184.593 126.396 185.265 126.936 185.421 127.704H186.525ZM188.141 123.924V125.544H187.121V126.42H188.141V130.38C188.141 131.724 188.429 132 189.665 132H190.457V131.088H189.905C189.281 131.088 189.233 130.92 189.233 130.248V126.42H190.457V125.544H189.233V123.924H188.141ZM192.94 123.3H191.848V124.62H192.94V123.3ZM192.94 125.544H191.848V132H192.94V125.544ZM200.445 128.796C200.445 126.456 198.849 125.436 197.349 125.436C195.849 125.436 194.253 126.456 194.253 128.796C194.253 131.136 195.849 132.156 197.349 132.156C198.849 132.156 200.445 131.136 200.445 128.796ZM197.349 131.196C196.365 131.196 195.417 130.512 195.417 128.796C195.417 127.032 196.365 126.396 197.349 126.396C198.333 126.396 199.281 127.08 199.281 128.796C199.281 130.452 198.333 131.196 197.349 131.196ZM202.843 126.516V125.544H201.751V132H202.843V128.496C202.843 127.116 203.491 126.384 204.547 126.384C205.795 126.384 205.963 127.248 205.963 128.244V132H207.055V127.92C207.055 126.444 206.491 125.436 204.931 125.436C203.839 125.436 203.215 125.904 202.843 126.516Z" fill="black"/>
<circle r="7.5" transform="matrix(-1 0 0 1 19.5 10.5)" fill="#FF2600"/>
<circle r="7.5" transform="matrix(-1 0 0 1 19.5 40.5)" fill="#FF46EC"/>
<circle r="17.5" transform="matrix(-1 0 0 1 19.5 78.5)" fill="#ABABAB"/>
<circle r="17.5" transform="matrix(-1 0 0 1 19.5 127.5)" stroke="#E0DFDF" stroke-width="2" stroke-linejoin="round"/>
</svg>
