<svg viewBox="0 0 217 257" fill="none" xmlns="http://www.w3.org/2000/svg">
<g clip-path="url(#clip0_635_539)">
<path d="M36.16 87H37.252V78.3H36.508C36.028 79.248 35.392 79.404 34.144 79.452V80.196H36.16V87ZM44.802 80.424C44.802 78.96 43.65 78.144 42.042 78.144C40.194 78.144 38.994 79.284 39.018 81.012H40.146C40.17 79.572 41.082 79.056 42.018 79.056C43.05 79.056 43.65 79.668 43.65 80.568C43.65 82.104 41.85 83.748 38.778 86.016V87H45.042V85.98H40.266C42.702 84.228 44.802 82.44 44.802 80.424ZM46.2761 78.3V79.68H46.8641L46.2281 81.348H46.9241L47.6561 79.776V78.3H46.2761ZM50.1415 82.416C50.2015 80.4 50.9335 79.056 52.2775 79.056C53.1655 79.056 53.7655 79.536 53.9095 80.316H55.0975C54.9175 79.212 54.1135 78.144 52.4095 78.144C49.8895 78.144 49.0135 80.496 49.0135 82.956C49.0135 85.644 50.0095 87.156 52.1815 87.156C54.0415 87.156 55.2415 85.776 55.2415 84.156C55.2415 82.416 54.0535 81.204 52.4335 81.204C51.2815 81.204 50.5375 81.732 50.1415 82.416ZM52.1695 86.244C51.0175 86.244 50.2735 85.416 50.2735 84.216C50.2735 83.028 51.0415 82.152 52.1815 82.152C53.2975 82.152 54.0775 83.028 54.0775 84.216C54.0775 85.404 53.2855 86.244 52.1695 86.244ZM61.1723 84.564C61.1723 85.644 60.3563 86.244 59.2043 86.244C57.9803 86.244 57.3443 85.5 57.2243 84.432H56.0963C56.2163 85.884 57.1523 87.156 59.1923 87.156C60.8483 87.156 62.3363 86.304 62.3363 84.552C62.3363 83.64 61.9763 82.776 60.6803 82.368C61.5923 81.996 62.0963 81.24 62.0963 80.352C62.0963 78.744 60.7883 78.144 59.2763 78.144C57.4523 78.144 56.3603 79.212 56.2283 80.748H57.3563C57.4523 79.764 58.0883 79.056 59.2523 79.056C60.1763 79.056 60.9443 79.536 60.9443 80.472C60.9443 81.492 60.1403 81.912 58.6283 81.912H58.4843V82.908H58.6643C60.0563 82.908 61.1723 83.316 61.1723 84.564ZM62.9953 78.3V79.32H67.7473C65.5873 81.192 64.2073 83.88 64.0153 87H65.3353C65.5393 83.748 66.8713 81.06 69.0193 79.32V78.3H62.9953Z" fill="black"/>
<path d="M15 95.5C6.97508 95.5 0.5 89.2168 0.5 81.5C0.5 73.7832 6.97508 67.5 15 67.5C23.0249 67.5 29.5 73.7832 29.5 81.5C29.5 89.2168 23.0249 95.5 15 95.5Z" stroke="#ABABAB"/>
<path d="M83.5 163.5C37.648 163.5 0.5 127.006 0.5 82C0.5 36.9936 37.648 0.5 83.5 0.5C129.352 0.5 166.5 36.9936 166.5 82C166.5 127.006 129.352 163.5 83.5 163.5Z" stroke="#ABABAB"/>
<path d="M171.132 78.3V79.32H175.884C173.724 81.192 172.344 83.88 172.152 87H173.472C173.676 83.748 175.008 81.06 177.156 79.32V78.3H171.132ZM177.648 78.3V79.32H182.4C180.24 81.192 178.86 83.88 178.668 87H179.988C180.192 83.748 181.524 81.06 183.672 79.32V78.3H177.648ZM190.328 80.364C190.328 79.08 189.2 78.144 187.424 78.144C185.636 78.144 184.52 79.08 184.52 80.364C184.52 81.072 184.856 81.9 185.72 82.368C184.58 82.824 184.244 83.76 184.244 84.552C184.244 86.208 185.624 87.156 187.424 87.156C189.212 87.156 190.592 86.208 190.592 84.552C190.592 83.76 190.256 82.824 189.128 82.368C189.992 81.9 190.328 81.072 190.328 80.364ZM187.424 79.056C188.504 79.056 189.224 79.632 189.224 80.496C189.224 81.372 188.504 82.02 187.424 82.02C186.332 82.02 185.612 81.372 185.612 80.496C185.612 79.632 186.332 79.056 187.424 79.056ZM185.408 84.552C185.408 83.532 186.188 82.824 187.424 82.824C188.648 82.824 189.44 83.532 189.44 84.552C189.44 85.572 188.648 86.244 187.424 86.244C186.188 86.244 185.408 85.572 185.408 84.552ZM191.725 78.3V79.68H192.313L191.677 81.348H192.373L193.105 79.776V78.3H191.725ZM199.091 84.144C199.091 85.488 198.191 86.244 197.147 86.244C195.935 86.244 195.347 85.572 195.179 84.48H194.051C194.219 85.884 195.131 87.156 197.147 87.156C198.767 87.156 200.243 86.124 200.243 84.132C200.243 82.212 198.911 81.132 197.387 81.132C196.667 81.132 195.971 81.348 195.515 81.792L195.815 79.32H199.919V78.3H194.927L194.363 82.98L195.455 83.04C195.647 82.608 196.235 82.08 197.135 82.08C198.083 82.08 199.091 82.704 199.091 84.144ZM206.417 82.884C206.357 84.9 205.613 86.244 204.269 86.244C203.381 86.244 202.793 85.764 202.649 84.984H201.461C201.641 86.088 202.445 87.156 204.149 87.156C206.657 87.156 207.545 84.804 207.545 82.344C207.545 79.656 206.549 78.144 204.377 78.144C202.517 78.144 201.317 79.524 201.317 81.132C201.317 82.884 202.505 84.096 204.113 84.096C205.265 84.096 206.021 83.568 206.417 82.884ZM204.389 79.056C205.541 79.056 206.273 79.884 206.273 81.084C206.273 82.272 205.517 83.136 204.377 83.136C203.249 83.136 202.481 82.272 202.481 81.084C202.481 79.896 203.261 79.056 204.389 79.056ZM213.741 82.884C213.681 84.9 212.937 86.244 211.593 86.244C210.705 86.244 210.117 85.764 209.973 84.984H208.785C208.965 86.088 209.769 87.156 211.473 87.156C213.981 87.156 214.869 84.804 214.869 82.344C214.869 79.656 213.873 78.144 211.701 78.144C209.841 78.144 208.641 79.524 208.641 81.132C208.641 82.884 209.829 84.096 211.437 84.096C212.589 84.096 213.345 83.568 213.741 82.884ZM211.713 79.056C212.865 79.056 213.597 79.884 213.597 81.084C213.597 82.272 212.841 83.136 211.701 83.136C210.573 83.136 209.805 82.272 209.805 81.084C209.805 79.896 210.585 79.056 211.713 79.056Z" fill="black"/>
<path d="M54.24 198H56.028V189.3H54.804V196.704L50.832 189.3H49.032V198H50.256V190.572L54.24 198ZM61.9186 197.076V198H63.0106V191.544H61.9186V195.096C61.9186 196.476 61.3066 197.208 60.2746 197.208C59.0866 197.208 58.9186 196.344 58.9186 195.348V191.544H57.8266V195.672C57.8266 197.148 58.3906 198.156 59.8906 198.156C60.9586 198.156 61.5466 197.688 61.9186 197.076ZM65.8349 198V194.496C65.8349 193.116 66.4589 192.384 67.3949 192.384C68.5829 192.384 68.7749 193.248 68.7749 194.244V198H69.8669V194.496C69.8669 193.116 70.4909 192.384 71.4269 192.384C72.6149 192.384 72.8069 193.248 72.8069 194.244V198H73.8989V193.92C73.8989 192.444 73.3109 191.436 71.8109 191.436C70.9109 191.436 70.1549 191.784 69.6389 192.576C69.3509 191.868 68.7629 191.436 67.7789 191.436C66.8069 191.436 66.2069 191.904 65.8349 192.516V191.544H64.7429V198H65.8349ZM76.6279 189.3H75.5359V198H76.6279V197.028C77.0239 197.712 77.7079 198.156 78.7399 198.156C80.2159 198.156 81.4999 196.932 81.4999 194.796C81.4999 192.672 80.2159 191.436 78.7399 191.436C77.7079 191.436 77.0239 191.88 76.6279 192.564V189.3ZM78.4639 197.22C77.4919 197.22 76.5799 196.5 76.5799 194.796C76.5799 193.092 77.4919 192.372 78.4639 192.372C79.5799 192.372 80.3119 193.26 80.3119 194.796C80.3119 196.332 79.5799 197.22 78.4639 197.22ZM83.5687 195.132H88.5367C88.6807 193.092 87.4927 191.436 85.5247 191.436C83.7607 191.436 82.3927 192.744 82.3927 194.784C82.3927 196.692 83.5207 198.156 85.5607 198.156C87.1327 198.156 88.1527 197.244 88.4527 196.128H87.3247C87.0487 196.764 86.5207 197.196 85.5607 197.196C84.6007 197.196 83.6167 196.524 83.5687 195.132ZM83.5807 194.196C83.6767 192.9 84.5527 192.372 85.5247 192.372C86.6767 192.372 87.3607 193.284 87.3847 194.196H83.5807ZM93.0253 192.684V191.52C92.9053 191.508 92.8093 191.508 92.7013 191.508C91.8613 191.532 91.2013 191.94 90.8773 192.672V191.544H89.8093V198H90.9013V194.616C90.9013 193.2 91.4053 192.636 92.4133 192.636C92.5933 192.636 92.7973 192.66 93.0253 192.684ZM102.695 194.796C102.695 192.456 101.099 191.436 99.5986 191.436C98.0986 191.436 96.5026 192.456 96.5026 194.796C96.5026 197.136 98.0986 198.156 99.5986 198.156C101.099 198.156 102.695 197.136 102.695 194.796ZM99.5986 197.196C98.6146 197.196 97.6666 196.512 97.6666 194.796C97.6666 193.032 98.6146 192.396 99.5986 192.396C100.583 192.396 101.531 193.08 101.531 194.796C101.531 196.452 100.583 197.196 99.5986 197.196ZM104.335 191.076V191.544H103.435V192.42H104.335V198H105.427V192.42H106.639V191.544H105.427V191.016C105.427 190.344 105.523 190.212 106.099 190.212H106.639V189.3H106.075C104.611 189.3 104.335 189.732 104.335 191.076ZM114.365 193.428H115.505C115.301 192.204 114.353 191.424 112.961 191.424C111.533 191.424 110.381 192.084 110.381 193.224C110.381 194.424 111.341 194.832 112.217 195.012L113.177 195.204C113.873 195.348 114.485 195.624 114.485 196.272C114.485 196.872 113.813 197.232 112.985 197.232C112.025 197.232 111.509 196.74 111.341 195.912H110.189C110.309 197.04 111.269 198.156 112.961 198.156C114.437 198.156 115.589 197.424 115.589 196.152C115.589 194.904 114.557 194.46 113.381 194.232L112.469 194.052C111.845 193.932 111.485 193.692 111.485 193.176C111.485 192.588 112.205 192.36 112.841 192.36C113.597 192.36 114.197 192.66 114.365 193.428ZM116.589 196.296C116.589 197.484 117.597 198.156 118.809 198.156C119.949 198.156 120.621 197.772 121.017 197.112C121.029 197.496 121.065 197.76 121.101 198H122.205C122.085 197.388 122.025 196.644 122.037 195.564L122.049 194.076C122.061 192.264 121.257 191.412 119.481 191.412C118.221 191.412 116.997 192.192 116.889 193.584H118.017C118.065 192.792 118.593 192.3 119.493 192.3C120.297 192.3 120.957 192.696 120.957 193.872V194.028C118.305 194.328 116.589 194.772 116.589 196.296ZM121.041 194.892V195.3C121.041 196.824 120.069 197.292 119.049 197.292C118.269 197.292 117.801 196.884 117.801 196.272C117.801 195.384 119.061 195.096 121.041 194.892ZM124.769 198V194.496C124.769 193.116 125.393 192.384 126.329 192.384C127.517 192.384 127.709 193.248 127.709 194.244V198H128.801V194.496C128.801 193.116 129.424 192.384 130.361 192.384C131.549 192.384 131.741 193.248 131.741 194.244V198H132.833V193.92C132.833 192.444 132.245 191.436 130.745 191.436C129.845 191.436 129.089 191.784 128.573 192.576C128.285 191.868 127.697 191.436 126.713 191.436C125.741 191.436 125.141 191.904 124.769 192.516V191.544H123.677V198H124.769ZM135.561 191.544H134.469V200.1H135.561V197.028C135.957 197.712 136.641 198.156 137.673 198.156C139.149 198.156 140.433 196.932 140.433 194.796C140.433 192.672 139.149 191.436 137.673 191.436C136.641 191.436 135.957 191.88 135.561 192.564V191.544ZM137.397 197.22C136.425 197.22 135.513 196.5 135.513 194.796C135.513 193.092 136.425 192.372 137.397 192.372C138.513 192.372 139.245 193.26 139.245 194.796C139.245 196.332 138.513 197.22 137.397 197.22ZM142.804 198V189.3H141.712V198H142.804ZM145.268 195.132H150.236C150.38 193.092 149.192 191.436 147.224 191.436C145.46 191.436 144.092 192.744 144.092 194.784C144.092 196.692 145.22 198.156 147.26 198.156C148.832 198.156 149.852 197.244 150.152 196.128H149.024C148.748 196.764 148.22 197.196 147.26 197.196C146.3 197.196 145.316 196.524 145.268 195.132ZM145.28 194.196C145.376 192.9 146.252 192.372 147.224 192.372C148.376 192.372 149.06 193.284 149.084 194.196H145.28ZM155.228 193.428H156.368C156.164 192.204 155.216 191.424 153.824 191.424C152.396 191.424 151.244 192.084 151.244 193.224C151.244 194.424 152.204 194.832 153.08 195.012L154.04 195.204C154.736 195.348 155.348 195.624 155.348 196.272C155.348 196.872 154.676 197.232 153.848 197.232C152.888 197.232 152.372 196.74 152.204 195.912H151.052C151.172 197.04 152.132 198.156 153.824 198.156C155.3 198.156 156.452 197.424 156.452 196.152C156.452 194.904 155.42 194.46 154.244 194.232L153.332 194.052C152.708 193.932 152.348 193.692 152.348 193.176C152.348 192.588 153.068 192.36 153.704 192.36C154.46 192.36 155.06 192.66 155.228 193.428ZM165.028 191.544V192.564C164.632 191.88 164.008 191.436 162.976 191.436C161.548 191.436 160.24 192.6 160.24 194.664C160.24 196.74 161.548 197.892 162.976 197.892C164.008 197.892 164.632 197.46 165.028 196.776V197.388C165.028 198.264 164.848 198.564 164.608 198.816C164.32 199.128 163.876 199.296 163.288 199.296C162.28 199.296 161.932 198.852 161.788 198.276H160.624C160.828 199.584 161.812 200.256 163.276 200.256C164.236 200.256 165.04 199.944 165.508 199.404C165.88 198.996 166.12 198.456 166.12 197.136V191.544H165.028ZM163.252 192.372C164.224 192.372 165.076 193.032 165.076 194.664C165.076 196.308 164.224 196.968 163.252 196.968C162.184 196.968 161.428 196.14 161.428 194.664C161.428 193.2 162.184 192.372 163.252 192.372ZM167.46 196.296C167.46 197.484 168.468 198.156 169.68 198.156C170.82 198.156 171.492 197.772 171.888 197.112C171.9 197.496 171.936 197.76 171.972 198H173.076C172.956 197.388 172.896 196.644 172.908 195.564L172.92 194.076C172.932 192.264 172.128 191.412 170.352 191.412C169.092 191.412 167.868 192.192 167.76 193.584H168.888C168.936 192.792 169.464 192.3 170.364 192.3C171.168 192.3 171.828 192.696 171.828 193.872V194.028C169.176 194.328 167.46 194.772 167.46 196.296ZM171.912 194.892V195.3C171.912 196.824 170.94 197.292 169.92 197.292C169.14 197.292 168.672 196.884 168.672 196.272C168.672 195.384 169.932 195.096 171.912 194.892ZM174.86 189.924V191.544H173.84V192.42H174.86V196.38C174.86 197.724 175.148 198 176.384 198H177.176V197.088H176.624C176 197.088 175.952 196.92 175.952 196.248V192.42H177.176V191.544H175.952V189.924H174.86ZM179.659 192.516V189.3H178.567V198H179.659V194.496C179.659 193.116 180.307 192.384 181.363 192.384C182.611 192.384 182.779 193.248 182.779 194.244V198H183.871V193.92C183.871 192.444 183.307 191.436 181.747 191.436C180.655 191.436 180.031 191.904 179.659 192.516ZM186.237 195.132H191.205C191.349 193.092 190.161 191.436 188.193 191.436C186.429 191.436 185.061 192.744 185.061 194.784C185.061 196.692 186.189 198.156 188.229 198.156C189.801 198.156 190.821 197.244 191.121 196.128H189.993C189.717 196.764 189.189 197.196 188.229 197.196C187.269 197.196 186.285 196.524 186.237 195.132ZM186.249 194.196C186.345 192.9 187.221 192.372 188.193 192.372C189.345 192.372 190.029 193.284 190.053 194.196H186.249ZM195.693 192.684V191.52C195.573 191.508 195.477 191.508 195.369 191.508C194.529 191.532 193.869 191.94 193.545 192.672V191.544H192.477V198H193.569V194.616C193.569 193.2 194.073 192.636 195.081 192.636C195.261 192.636 195.465 192.66 195.693 192.684ZM197.358 195.132H202.326C202.47 193.092 201.282 191.436 199.314 191.436C197.55 191.436 196.182 192.744 196.182 194.784C196.182 196.692 197.31 198.156 199.35 198.156C200.922 198.156 201.942 197.244 202.242 196.128H201.114C200.838 196.764 200.31 197.196 199.35 197.196C198.39 197.196 197.406 196.524 197.358 195.132ZM197.37 194.196C197.466 192.9 198.342 192.372 199.314 192.372C200.466 192.372 201.15 193.284 201.174 194.196H197.37ZM208.085 189.3V192.564C207.689 191.88 207.005 191.436 205.973 191.436C204.497 191.436 203.213 192.672 203.213 194.796C203.213 196.932 204.497 198.156 205.973 198.156C207.005 198.156 207.689 197.712 208.085 197.028V198H209.177V189.3H208.085ZM206.249 192.372C207.221 192.372 208.133 193.092 208.133 194.796C208.133 196.5 207.221 197.22 206.249 197.22C205.133 197.22 204.401 196.332 204.401 194.796C204.401 193.26 205.133 192.372 206.249 192.372Z" fill="black"/>
<path d="M13.5 205.5C6.30409 205.5 0.5 199.884 0.5 193C0.5 186.116 6.30409 180.5 13.5 180.5C20.6959 180.5 26.5 186.116 26.5 193C26.5 199.884 20.6959 205.5 13.5 205.5Z" stroke="#FF46EC"/>
<path d="M54.24 239H56.028V230.3H54.804V237.704L50.832 230.3H49.032V239H50.256V231.572L54.24 239ZM61.9186 238.076V239H63.0106V232.544H61.9186V236.096C61.9186 237.476 61.3066 238.208 60.2746 238.208C59.0866 238.208 58.9186 237.344 58.9186 236.348V232.544H57.8266V236.672C57.8266 238.148 58.3906 239.156 59.8906 239.156C60.9586 239.156 61.5466 238.688 61.9186 238.076ZM65.8349 239V235.496C65.8349 234.116 66.4589 233.384 67.3949 233.384C68.5829 233.384 68.7749 234.248 68.7749 235.244V239H69.8669V235.496C69.8669 234.116 70.4909 233.384 71.4269 233.384C72.6149 233.384 72.8069 234.248 72.8069 235.244V239H73.8989V234.92C73.8989 233.444 73.3109 232.436 71.8109 232.436C70.9109 232.436 70.1549 232.784 69.6389 233.576C69.3509 232.868 68.7629 232.436 67.7789 232.436C66.8069 232.436 66.2069 232.904 65.8349 233.516V232.544H64.7429V239H65.8349ZM76.6279 230.3H75.5359V239H76.6279V238.028C77.0239 238.712 77.7079 239.156 78.7399 239.156C80.2159 239.156 81.4999 237.932 81.4999 235.796C81.4999 233.672 80.2159 232.436 78.7399 232.436C77.7079 232.436 77.0239 232.88 76.6279 233.564V230.3ZM78.4639 238.22C77.4919 238.22 76.5799 237.5 76.5799 235.796C76.5799 234.092 77.4919 233.372 78.4639 233.372C79.5799 233.372 80.3119 234.26 80.3119 235.796C80.3119 237.332 79.5799 238.22 78.4639 238.22ZM83.5687 236.132H88.5367C88.6807 234.092 87.4927 232.436 85.5247 232.436C83.7607 232.436 82.3927 233.744 82.3927 235.784C82.3927 237.692 83.5207 239.156 85.5607 239.156C87.1327 239.156 88.1527 238.244 88.4527 237.128H87.3247C87.0487 237.764 86.5207 238.196 85.5607 238.196C84.6007 238.196 83.6167 237.524 83.5687 236.132ZM83.5807 235.196C83.6767 233.9 84.5527 233.372 85.5247 233.372C86.6767 233.372 87.3607 234.284 87.3847 235.196H83.5807ZM93.0253 233.684V232.52C92.9053 232.508 92.8093 232.508 92.7013 232.508C91.8613 232.532 91.2013 232.94 90.8773 233.672V232.544H89.8093V239H90.9013V235.616C90.9013 234.2 91.4053 233.636 92.4133 233.636C92.5933 233.636 92.7973 233.66 93.0253 233.684ZM102.695 235.796C102.695 233.456 101.099 232.436 99.5986 232.436C98.0986 232.436 96.5026 233.456 96.5026 235.796C96.5026 238.136 98.0986 239.156 99.5986 239.156C101.099 239.156 102.695 238.136 102.695 235.796ZM99.5986 238.196C98.6146 238.196 97.6666 237.512 97.6666 235.796C97.6666 234.032 98.6146 233.396 99.5986 233.396C100.583 233.396 101.531 234.08 101.531 235.796C101.531 237.452 100.583 238.196 99.5986 238.196ZM104.335 232.076V232.544H103.435V233.42H104.335V239H105.427V233.42H106.639V232.544H105.427V232.016C105.427 231.344 105.523 231.212 106.099 231.212H106.639V230.3H106.075C104.611 230.3 104.335 230.732 104.335 232.076ZM110.285 237.296C110.285 238.484 111.293 239.156 112.505 239.156C113.645 239.156 114.317 238.772 114.713 238.112C114.725 238.496 114.761 238.76 114.797 239H115.901C115.781 238.388 115.721 237.644 115.733 236.564L115.745 235.076C115.757 233.264 114.953 232.412 113.177 232.412C111.917 232.412 110.693 233.192 110.585 234.584H111.713C111.761 233.792 112.289 233.3 113.189 233.3C113.993 233.3 114.653 233.696 114.653 234.872V235.028C112.001 235.328 110.285 235.772 110.285 237.296ZM114.737 235.892V236.3C114.737 237.824 113.765 238.292 112.745 238.292C111.965 238.292 111.497 237.884 111.497 237.272C111.497 236.384 112.757 236.096 114.737 235.892ZM118.464 233.516V232.544H117.372V239H118.464V235.496C118.464 234.116 119.112 233.384 120.168 233.384C121.416 233.384 121.584 234.248 121.584 235.244V239H122.676V234.92C122.676 233.444 122.112 232.436 120.552 232.436C119.46 232.436 118.836 232.904 118.464 233.516ZM124.621 230.924V232.544H123.601V233.42H124.621V237.38C124.621 238.724 124.909 239 126.145 239H126.937V238.088H126.385C125.761 238.088 125.713 237.92 125.713 237.248V233.42H126.937V232.544H125.713V230.924H124.621ZM129.421 230.3H128.329V231.62H129.421V230.3ZM129.421 232.544H128.329V239H129.421V232.544ZM132.245 239V235.496C132.245 234.116 132.869 233.384 133.805 233.384C134.993 233.384 135.185 234.248 135.185 235.244V239H136.277V235.496C136.277 234.116 136.901 233.384 137.837 233.384C139.025 233.384 139.217 234.248 139.217 235.244V239H140.309V234.92C140.309 233.444 139.721 232.436 138.221 232.436C137.321 232.436 136.565 232.784 136.049 233.576C135.761 232.868 135.173 232.436 134.189 232.436C133.217 232.436 132.617 232.904 132.245 233.516V232.544H131.153V239H132.245ZM143.038 230.3H141.946V231.62H143.038V230.3ZM143.038 232.544H141.946V239H143.038V232.544ZM150.146 234.704C150.002 233.612 149.006 232.436 147.446 232.436C145.538 232.436 144.326 233.864 144.326 235.784C144.326 237.752 145.49 239.156 147.338 239.156C148.838 239.156 150.002 238.112 150.218 236.9H149.09C148.934 237.584 148.286 238.196 147.374 238.196C146.414 238.196 145.514 237.416 145.514 235.772C145.514 234.152 146.402 233.396 147.374 233.396C148.214 233.396 148.886 233.936 149.042 234.704H150.146ZM154.666 233.684V232.52C154.546 232.508 154.45 232.508 154.342 232.508C153.502 232.532 152.842 232.94 152.518 233.672V232.544H151.45V239H152.542V235.616C152.542 234.2 153.046 233.636 154.054 233.636C154.234 233.636 154.438 233.66 154.666 233.684ZM161.37 235.796C161.37 233.456 159.774 232.436 158.274 232.436C156.774 232.436 155.178 233.456 155.178 235.796C155.178 238.136 156.774 239.156 158.274 239.156C159.774 239.156 161.37 238.136 161.37 235.796ZM158.274 238.196C157.29 238.196 156.342 237.512 156.342 235.796C156.342 234.032 157.29 233.396 158.274 233.396C159.258 233.396 160.206 234.08 160.206 235.796C160.206 237.452 159.258 238.196 158.274 238.196ZM163.769 230.3H162.677V239H163.769V238.028C164.165 238.712 164.849 239.156 165.881 239.156C167.357 239.156 168.641 237.932 168.641 235.796C168.641 233.672 167.357 232.436 165.881 232.436C164.849 232.436 164.165 232.88 163.769 233.564V230.3ZM165.605 238.22C164.633 238.22 163.721 237.5 163.721 235.796C163.721 234.092 164.633 233.372 165.605 233.372C166.721 233.372 167.453 234.26 167.453 235.796C167.453 237.332 166.721 238.22 165.605 238.22ZM170.976 230.3H169.884V231.62H170.976V230.3ZM170.976 232.544H169.884V239H170.976V232.544ZM172.324 237.296C172.324 238.484 173.332 239.156 174.544 239.156C175.684 239.156 176.356 238.772 176.752 238.112C176.764 238.496 176.8 238.76 176.836 239H177.94C177.82 238.388 177.76 237.644 177.772 236.564L177.784 235.076C177.796 233.264 176.992 232.412 175.216 232.412C173.956 232.412 172.732 233.192 172.624 234.584H173.752C173.8 233.792 174.328 233.3 175.228 233.3C176.032 233.3 176.692 233.696 176.692 234.872V235.028C174.04 235.328 172.324 235.772 172.324 237.296ZM176.776 235.892V236.3C176.776 237.824 175.804 238.292 174.784 238.292C174.004 238.292 173.536 237.884 173.536 237.272C173.536 236.384 174.796 236.096 176.776 235.892ZM180.503 239V230.3H179.411V239H180.503ZM52.08 249.684V248.52C51.96 248.508 51.864 248.508 51.756 248.508C50.916 248.532 50.256 248.94 49.932 249.672V248.544H48.864V255H49.956V251.616C49.956 250.2 50.46 249.636 51.468 249.636C51.648 249.636 51.852 249.66 52.08 249.684ZM53.7444 252.132H58.7124C58.8564 250.092 57.6684 248.436 55.7004 248.436C53.9364 248.436 52.5684 249.744 52.5684 251.784C52.5684 253.692 53.6964 255.156 55.7364 255.156C57.3084 255.156 58.3284 254.244 58.6284 253.128H57.5004C57.2244 253.764 56.6964 254.196 55.7364 254.196C54.7764 254.196 53.7924 253.524 53.7444 252.132ZM53.7564 251.196C53.8524 249.9 54.7284 249.372 55.7004 249.372C56.8524 249.372 57.5364 250.284 57.5604 251.196H53.7564ZM63.7045 250.428H64.8445C64.6405 249.204 63.6925 248.424 62.3005 248.424C60.8725 248.424 59.7205 249.084 59.7205 250.224C59.7205 251.424 60.6805 251.832 61.5565 252.012L62.5165 252.204C63.2125 252.348 63.8245 252.624 63.8245 253.272C63.8245 253.872 63.1525 254.232 62.3245 254.232C61.3645 254.232 60.8485 253.74 60.6805 252.912H59.5285C59.6485 254.04 60.6085 255.156 62.3005 255.156C63.7765 255.156 64.9285 254.424 64.9285 253.152C64.9285 251.904 63.8965 251.46 62.7205 251.232L61.8085 251.052C61.1845 250.932 60.8245 250.692 60.8245 250.176C60.8245 249.588 61.5445 249.36 62.1805 249.36C62.9365 249.36 63.5365 249.66 63.7045 250.428ZM67.4052 246.3H66.3132V247.62H67.4052V246.3ZM67.4052 248.544H66.3132V255H67.4052V248.544ZM72.8334 250.428H73.9734C73.7694 249.204 72.8214 248.424 71.4294 248.424C70.0014 248.424 68.8494 249.084 68.8494 250.224C68.8494 251.424 69.8094 251.832 70.6854 252.012L71.6454 252.204C72.3414 252.348 72.9534 252.624 72.9534 253.272C72.9534 253.872 72.2814 254.232 71.4534 254.232C70.4934 254.232 69.9774 253.74 69.8094 252.912H68.6574C68.7774 254.04 69.7374 255.156 71.4294 255.156C72.9054 255.156 74.0574 254.424 74.0574 253.152C74.0574 251.904 73.0254 251.46 71.8494 251.232L70.9374 251.052C70.3134 250.932 69.9534 250.692 69.9534 250.176C69.9534 249.588 70.6734 249.36 71.3094 249.36C72.0654 249.36 72.6654 249.66 72.8334 250.428ZM75.7541 246.924V248.544H74.7341V249.42H75.7541V253.38C75.7541 254.724 76.0421 255 77.2781 255H78.0701V254.088H77.5181C76.8941 254.088 76.8461 253.92 76.8461 253.248V249.42H78.0701V248.544H76.8461V246.924H75.7541ZM78.9605 253.296C78.9605 254.484 79.9685 255.156 81.1805 255.156C82.3205 255.156 82.9925 254.772 83.3885 254.112C83.4005 254.496 83.4365 254.76 83.4725 255H84.5765C84.4565 254.388 84.3965 253.644 84.4085 252.564L84.4205 251.076C84.4325 249.264 83.6285 248.412 81.8525 248.412C80.5925 248.412 79.3685 249.192 79.2605 250.584H80.3885C80.4365 249.792 80.9645 249.3 81.8645 249.3C82.6685 249.3 83.3285 249.696 83.3285 250.872V251.028C80.6765 251.328 78.9605 251.772 78.9605 253.296ZM83.4125 251.892V252.3C83.4125 253.824 82.4405 254.292 81.4205 254.292C80.6405 254.292 80.1725 253.884 80.1725 253.272C80.1725 252.384 81.4325 252.096 83.4125 251.892ZM87.1396 249.516V248.544H86.0476V255H87.1396V251.496C87.1396 250.116 87.7876 249.384 88.8436 249.384C90.0916 249.384 90.2596 250.248 90.2596 251.244V255H91.3516V250.92C91.3516 249.444 90.7876 248.436 89.2276 248.436C88.1356 248.436 87.5116 248.904 87.1396 249.516ZM93.2971 246.924V248.544H92.2771V249.42H93.2971V253.38C93.2971 254.724 93.5851 255 94.8211 255H95.6131V254.088H95.0611C94.4371 254.088 94.3891 253.92 94.3891 253.248V249.42H95.6131V248.544H94.3891V246.924H93.2971ZM100.827 246.3H99.7351V255H100.827V254.028C101.223 254.712 101.907 255.156 102.939 255.156C104.415 255.156 105.699 253.932 105.699 251.796C105.699 249.672 104.415 248.436 102.939 248.436C101.907 248.436 101.223 248.88 100.827 249.564V246.3ZM102.663 254.22C101.691 254.22 100.779 253.5 100.779 251.796C100.779 250.092 101.691 249.372 102.663 249.372C103.779 249.372 104.511 250.26 104.511 251.796C104.511 253.332 103.779 254.22 102.663 254.22ZM106.558 253.296C106.558 254.484 107.566 255.156 108.778 255.156C109.918 255.156 110.59 254.772 110.986 254.112C110.998 254.496 111.034 254.76 111.07 255H112.174C112.054 254.388 111.994 253.644 112.006 252.564L112.018 251.076C112.03 249.264 111.226 248.412 109.45 248.412C108.19 248.412 106.966 249.192 106.858 250.584H107.986C108.034 249.792 108.562 249.3 109.462 249.3C110.266 249.3 110.926 249.696 110.926 250.872V251.028C108.274 251.328 106.558 251.772 106.558 253.296ZM111.01 251.892V252.3C111.01 253.824 110.038 254.292 109.018 254.292C108.238 254.292 107.77 253.884 107.77 253.272C107.77 252.384 109.03 252.096 111.01 251.892ZM119.021 250.704C118.877 249.612 117.881 248.436 116.321 248.436C114.413 248.436 113.201 249.864 113.201 251.784C113.201 253.752 114.365 255.156 116.213 255.156C117.713 255.156 118.877 254.112 119.093 252.9H117.965C117.809 253.584 117.161 254.196 116.249 254.196C115.289 254.196 114.389 253.416 114.389 251.772C114.389 250.152 115.277 249.396 116.249 249.396C117.089 249.396 117.761 249.936 117.917 250.704H119.021ZM120.637 246.924V248.544H119.617V249.42H120.637V253.38C120.637 254.724 120.925 255 122.161 255H122.953V254.088H122.401C121.777 254.088 121.729 253.92 121.729 253.248V249.42H122.953V248.544H121.729V246.924H120.637ZM124.901 252.132H129.869C130.013 250.092 128.825 248.436 126.857 248.436C125.093 248.436 123.725 249.744 123.725 251.784C123.725 253.692 124.853 255.156 126.893 255.156C128.465 255.156 129.485 254.244 129.785 253.128H128.657C128.381 253.764 127.853 254.196 126.893 254.196C125.933 254.196 124.949 253.524 124.901 252.132ZM124.913 251.196C125.009 249.9 125.885 249.372 126.857 249.372C128.009 249.372 128.693 250.284 128.717 251.196H124.913ZM134.357 249.684V248.52C134.237 248.508 134.141 248.508 134.033 248.508C133.193 248.532 132.533 248.94 132.209 249.672V248.544H131.141V255H132.233V251.616C132.233 250.2 132.737 249.636 133.745 249.636C133.925 249.636 134.129 249.66 134.357 249.684ZM136.499 246.3H135.407V247.62H136.499V246.3ZM136.499 248.544H135.407V255H136.499V248.544ZM137.847 253.296C137.847 254.484 138.855 255.156 140.067 255.156C141.207 255.156 141.879 254.772 142.275 254.112C142.287 254.496 142.323 254.76 142.359 255H143.463C143.343 254.388 143.283 253.644 143.295 252.564L143.307 251.076C143.319 249.264 142.515 248.412 140.739 248.412C139.479 248.412 138.255 249.192 138.147 250.584H139.275C139.323 249.792 139.851 249.3 140.751 249.3C141.555 249.3 142.215 249.696 142.215 250.872V251.028C139.563 251.328 137.847 251.772 137.847 253.296ZM142.299 251.892V252.3C142.299 253.824 141.327 254.292 140.307 254.292C139.527 254.292 139.059 253.884 139.059 253.272C139.059 252.384 140.319 252.096 142.299 251.892ZM148.874 246.3H147.782V247.62H148.874V246.3ZM148.874 248.544H147.782V255H148.874V248.544ZM155.034 246.3V249.564C154.638 248.88 153.954 248.436 152.922 248.436C151.446 248.436 150.162 249.672 150.162 251.796C150.162 253.932 151.446 255.156 152.922 255.156C153.954 255.156 154.638 254.712 155.034 254.028V255H156.126V246.3H155.034ZM153.198 249.372C154.17 249.372 155.082 250.092 155.082 251.796C155.082 253.5 154.17 254.22 153.198 254.22C152.082 254.22 151.35 253.332 151.35 251.796C151.35 250.26 152.082 249.372 153.198 249.372ZM158.58 252.132H163.548C163.692 250.092 162.504 248.436 160.536 248.436C158.772 248.436 157.404 249.744 157.404 251.784C157.404 253.692 158.532 255.156 160.572 255.156C162.144 255.156 163.164 254.244 163.464 253.128H162.336C162.06 253.764 161.532 254.196 160.572 254.196C159.612 254.196 158.628 253.524 158.58 252.132ZM158.592 251.196C158.688 249.9 159.564 249.372 160.536 249.372C161.688 249.372 162.372 250.284 162.396 251.196H158.592ZM165.913 249.516V248.544H164.821V255H165.913V251.496C165.913 250.116 166.561 249.384 167.617 249.384C168.865 249.384 169.033 250.248 169.033 251.244V255H170.125V250.92C170.125 249.444 169.561 248.436 168.001 248.436C166.909 248.436 166.285 248.904 165.913 249.516ZM172.071 246.924V248.544H171.051V249.42H172.071V253.38C172.071 254.724 172.359 255 173.595 255H174.387V254.088H173.835C173.211 254.088 173.163 253.92 173.163 253.248V249.42H174.387V248.544H173.163V246.924H172.071ZM176.87 246.3H175.778V247.62H176.87V246.3ZM176.87 248.544H175.778V255H176.87V248.544ZM178.878 248.076V248.544H177.978V249.42H178.878V255H179.97V249.42H181.182V248.544H179.97V248.016C179.97 247.344 180.066 247.212 180.642 247.212H181.182V246.3H180.618C179.154 246.3 178.878 246.732 178.878 248.076ZM183.456 246.3H182.364V247.62H183.456V246.3ZM183.456 248.544H182.364V255H183.456V248.544ZM185.92 252.132H190.888C191.032 250.092 189.844 248.436 187.876 248.436C186.112 248.436 184.744 249.744 184.744 251.784C184.744 253.692 185.872 255.156 187.912 255.156C189.484 255.156 190.504 254.244 190.804 253.128H189.676C189.4 253.764 188.872 254.196 187.912 254.196C186.952 254.196 185.968 253.524 185.92 252.132ZM185.932 251.196C186.028 249.9 186.904 249.372 187.876 249.372C189.028 249.372 189.712 250.284 189.736 251.196H185.932ZM196.647 246.3V249.564C196.251 248.88 195.567 248.436 194.535 248.436C193.059 248.436 191.775 249.672 191.775 251.796C191.775 253.932 193.059 255.156 194.535 255.156C195.567 255.156 196.251 254.712 196.647 254.028V255H197.739V246.3H196.647ZM194.811 249.372C195.783 249.372 196.695 250.092 196.695 251.796C196.695 253.5 195.783 254.22 194.811 254.22C193.695 254.22 192.963 253.332 192.963 251.796C192.963 250.26 193.695 249.372 194.811 249.372Z" fill="black"/>
<path d="M13.5 247.5C6.30409 247.5 0.5 241.884 0.5 235C0.5 228.116 6.30409 222.5 13.5 222.5C20.6959 222.5 26.5 228.116 26.5 235C26.5 241.884 20.6959 247.5 13.5 247.5Z" fill="#FF3A17" stroke="#FF46EC"/>
</g>
<defs>
<clipPath id="clip0_635_539">
<rect width="217" height="257" fill="white"/>
</clipPath>
</defs>
</svg>
