<svg viewBox="0 0 252 386" fill="none" xmlns="http://www.w3.org/2000/svg">
<g clip-path="url(#clip0_635_549)">
<path d="M79.4956 193.491C59.0751 193.491 39.4909 185.379 25.0515 170.94C10.612 156.5 2.5 136.916 2.5 116.496C2.5 96.0751 10.612 76.4909 25.0515 62.0515C39.4909 47.612 59.0751 39.5 79.4956 39.5C99.9161 39.5 119.5 47.612 133.94 62.0515C148.379 76.4909 156.491 96.0751 156.491 116.496C156.491 136.916 148.379 156.5 133.94 170.94C119.5 185.379 99.9161 193.491 79.4956 193.491Z" stroke="#FF46EC"/>
<path d="M12.4271 125.354C10.0595 125.354 7.78882 124.414 6.11468 122.739C4.44053 121.065 3.5 118.795 3.5 116.427C3.5 114.059 4.44053 111.789 6.11468 110.115C7.78882 108.441 10.0595 107.5 12.4271 107.5C14.7947 107.5 17.0653 108.441 18.7394 110.115C20.4136 111.789 21.3541 114.059 21.3541 116.427C21.3541 118.795 20.4136 121.065 18.7394 122.739C17.0653 124.414 14.7947 125.354 12.4271 125.354Z" stroke="#FF46EC"/>
<path d="M30.352 118.564C30.352 119.644 29.536 120.244 28.384 120.244C27.16 120.244 26.524 119.5 26.404 118.432H25.276C25.396 119.884 26.332 121.156 28.372 121.156C30.028 121.156 31.516 120.304 31.516 118.552C31.516 117.64 31.156 116.776 29.86 116.368C30.772 115.996 31.276 115.24 31.276 114.352C31.276 112.744 29.968 112.144 28.456 112.144C26.632 112.144 25.54 113.212 25.408 114.748H26.536C26.632 113.764 27.268 113.056 28.432 113.056C29.356 113.056 30.124 113.536 30.124 114.472C30.124 115.492 29.32 115.912 27.808 115.912H27.664V116.908H27.844C29.236 116.908 30.352 117.316 30.352 118.564ZM39.267 118.852V117.82H37.671V112.3H36.555L32.247 117.82V118.852H36.567V121H37.671V118.852H39.267ZM33.459 117.82L36.567 113.8V117.82H33.459Z" fill="black"/>
<path d="M6.24 12H8.028V3.3H6.804V10.704L2.832 3.3H1.032V12H2.256V4.572L6.24 12ZM13.9186 11.076V12H15.0106V5.544H13.9186V9.096C13.9186 10.476 13.3066 11.208 12.2746 11.208C11.0866 11.208 10.9186 10.344 10.9186 9.348V5.544H9.82659V9.672C9.82659 11.148 10.3906 12.156 11.8906 12.156C12.9586 12.156 13.5466 11.688 13.9186 11.076ZM17.8349 12V8.496C17.8349 7.116 18.4589 6.384 19.3949 6.384C20.5829 6.384 20.7749 7.248 20.7749 8.244V12H21.8669V8.496C21.8669 7.116 22.4909 6.384 23.4269 6.384C24.6149 6.384 24.8069 7.248 24.8069 8.244V12H25.8989V7.92C25.8989 6.444 25.3109 5.436 23.8109 5.436C22.9109 5.436 22.1549 5.784 21.6389 6.576C21.3509 5.868 20.7629 5.436 19.7789 5.436C18.8069 5.436 18.2069 5.904 17.8349 6.516V5.544H16.7429V12H17.8349ZM28.6279 3.3H27.5359V12H28.6279V11.028C29.0239 11.712 29.7079 12.156 30.7399 12.156C32.2159 12.156 33.4999 10.932 33.4999 8.796C33.4999 6.672 32.2159 5.436 30.7399 5.436C29.7079 5.436 29.0239 5.88 28.6279 6.564V3.3ZM30.4639 11.22C29.4919 11.22 28.5799 10.5 28.5799 8.796C28.5799 7.092 29.4919 6.372 30.4639 6.372C31.5799 6.372 32.3119 7.26 32.3119 8.796C32.3119 10.332 31.5799 11.22 30.4639 11.22ZM35.5687 9.132H40.5367C40.6807 7.092 39.4927 5.436 37.5247 5.436C35.7607 5.436 34.3927 6.744 34.3927 8.784C34.3927 10.692 35.5207 12.156 37.5607 12.156C39.1327 12.156 40.1527 11.244 40.4527 10.128H39.3247C39.0487 10.764 38.5207 11.196 37.5607 11.196C36.6007 11.196 35.6167 10.524 35.5687 9.132ZM35.5807 8.196C35.6767 6.9 36.5527 6.372 37.5247 6.372C38.6767 6.372 39.3607 7.284 39.3847 8.196H35.5807ZM45.0253 6.684V5.52C44.9053 5.508 44.8093 5.508 44.7013 5.508C43.8613 5.532 43.2013 5.94 42.8773 6.672V5.544H41.8093V12H42.9013V8.616C42.9013 7.2 43.4053 6.636 44.4133 6.636C44.5933 6.636 44.7973 6.66 45.0253 6.684ZM54.6946 8.796C54.6946 6.456 53.0986 5.436 51.5986 5.436C50.0986 5.436 48.5026 6.456 48.5026 8.796C48.5026 11.136 50.0986 12.156 51.5986 12.156C53.0986 12.156 54.6946 11.136 54.6946 8.796ZM51.5986 11.196C50.6146 11.196 49.6666 10.512 49.6666 8.796C49.6666 7.032 50.6146 6.396 51.5986 6.396C52.5826 6.396 53.5306 7.08 53.5306 8.796C53.5306 10.452 52.5826 11.196 51.5986 11.196ZM56.3353 5.076V5.544H55.4353V6.42H56.3353V12H57.4273V6.42H58.6393V5.544H57.4273V5.016C57.4273 4.344 57.5233 4.212 58.0993 4.212H58.6393V3.3H58.0753C56.6113 3.3 56.3353 3.732 56.3353 5.076ZM62.2847 10.296C62.2847 11.484 63.2927 12.156 64.5047 12.156C65.6447 12.156 66.3167 11.772 66.7127 11.112C66.7247 11.496 66.7607 11.76 66.7967 12H67.9007C67.7807 11.388 67.7207 10.644 67.7327 9.564L67.7447 8.076C67.7567 6.264 66.9527 5.412 65.1767 5.412C63.9167 5.412 62.6927 6.192 62.5847 7.584H63.7127C63.7607 6.792 64.2887 6.3 65.1887 6.3C65.9927 6.3 66.6527 6.696 66.6527 7.872V8.028C64.0007 8.328 62.2847 8.772 62.2847 10.296ZM66.7367 8.892V9.3C66.7367 10.824 65.7647 11.292 64.7447 11.292C63.9647 11.292 63.4967 10.884 63.4967 10.272C63.4967 9.384 64.7567 9.096 66.7367 8.892ZM70.4638 6.516V5.544H69.3718V12H70.4638V8.496C70.4638 7.116 71.1118 6.384 72.1678 6.384C73.4158 6.384 73.5838 7.248 73.5838 8.244V12H74.6758V7.92C74.6758 6.444 74.1118 5.436 72.5518 5.436C71.4598 5.436 70.8358 5.904 70.4638 6.516ZM76.6213 3.924V5.544H75.6013V6.42H76.6213V10.38C76.6213 11.724 76.9093 12 78.1453 12H78.9373V11.088H78.3853C77.7613 11.088 77.7133 10.92 77.7133 10.248V6.42H78.9373V5.544H77.7133V3.924H76.6213ZM81.4208 3.3H80.3288V4.62H81.4208V3.3ZM81.4208 5.544H80.3288V12H81.4208V5.544ZM84.2451 12V8.496C84.2451 7.116 84.8691 6.384 85.8051 6.384C86.9931 6.384 87.1851 7.248 87.1851 8.244V12H88.2771V8.496C88.2771 7.116 88.9011 6.384 89.8371 6.384C91.0251 6.384 91.2171 7.248 91.2171 8.244V12H92.3091V7.92C92.3091 6.444 91.7211 5.436 90.2211 5.436C89.3211 5.436 88.5651 5.784 88.0491 6.576C87.7611 5.868 87.1731 5.436 86.1891 5.436C85.2171 5.436 84.6171 5.904 84.2451 6.516V5.544H83.1531V12H84.2451ZM95.038 3.3H93.946V4.62H95.038V3.3ZM95.038 5.544H93.946V12H95.038V5.544ZM102.146 7.704C102.002 6.612 101.006 5.436 99.4463 5.436C97.5383 5.436 96.3263 6.864 96.3263 8.784C96.3263 10.752 97.4902 12.156 99.3383 12.156C100.838 12.156 102.002 11.112 102.218 9.9H101.09C100.934 10.584 100.286 11.196 99.3743 11.196C98.4143 11.196 97.5143 10.416 97.5143 8.772C97.5143 7.152 98.4023 6.396 99.3743 6.396C100.214 6.396 100.886 6.936 101.042 7.704H102.146ZM106.666 6.684V5.52C106.546 5.508 106.45 5.508 106.342 5.508C105.502 5.532 104.842 5.94 104.518 6.672V5.544H103.45V12H104.542V8.616C104.542 7.2 105.046 6.636 106.054 6.636C106.234 6.636 106.438 6.66 106.666 6.684ZM113.37 8.796C113.37 6.456 111.774 5.436 110.274 5.436C108.774 5.436 107.178 6.456 107.178 8.796C107.178 11.136 108.774 12.156 110.274 12.156C111.774 12.156 113.37 11.136 113.37 8.796ZM110.274 11.196C109.29 11.196 108.342 10.512 108.342 8.796C108.342 7.032 109.29 6.396 110.274 6.396C111.258 6.396 112.206 7.08 112.206 8.796C112.206 10.452 111.258 11.196 110.274 11.196ZM115.769 3.3H114.677V12H115.769V11.028C116.165 11.712 116.849 12.156 117.881 12.156C119.357 12.156 120.641 10.932 120.641 8.796C120.641 6.672 119.357 5.436 117.881 5.436C116.849 5.436 116.165 5.88 115.769 6.564V3.3ZM117.605 11.22C116.633 11.22 115.721 10.5 115.721 8.796C115.721 7.092 116.633 6.372 117.605 6.372C118.721 6.372 119.453 7.26 119.453 8.796C119.453 10.332 118.721 11.22 117.605 11.22ZM122.976 3.3H121.884V4.62H122.976V3.3ZM122.976 5.544H121.884V12H122.976V5.544ZM124.324 10.296C124.324 11.484 125.332 12.156 126.544 12.156C127.684 12.156 128.356 11.772 128.752 11.112C128.764 11.496 128.8 11.76 128.836 12H129.94C129.82 11.388 129.76 10.644 129.772 9.564L129.784 8.076C129.796 6.264 128.992 5.412 127.216 5.412C125.956 5.412 124.732 6.192 124.624 7.584H125.752C125.8 6.792 126.328 6.3 127.228 6.3C128.032 6.3 128.692 6.696 128.692 7.872V8.028C126.04 8.328 124.324 8.772 124.324 10.296ZM128.776 8.892V9.3C128.776 10.824 127.804 11.292 126.784 11.292C126.004 11.292 125.536 10.884 125.536 10.272C125.536 9.384 126.796 9.096 128.776 8.892ZM132.503 12V3.3H131.411V12H132.503ZM140.299 6.684V5.52C140.179 5.508 140.083 5.508 139.975 5.508C139.135 5.532 138.475 5.94 138.151 6.672V5.544H137.083V12H138.175V8.616C138.175 7.2 138.679 6.636 139.687 6.636C139.867 6.636 140.071 6.66 140.299 6.684ZM141.963 9.132H146.931C147.075 7.092 145.887 5.436 143.919 5.436C142.155 5.436 140.787 6.744 140.787 8.784C140.787 10.692 141.915 12.156 143.955 12.156C145.527 12.156 146.547 11.244 146.847 10.128H145.719C145.443 10.764 144.915 11.196 143.955 11.196C142.995 11.196 142.011 10.524 141.963 9.132ZM141.975 8.196C142.071 6.9 142.947 6.372 143.919 6.372C145.071 6.372 145.755 7.284 145.779 8.196H141.975ZM151.923 7.428H153.063C152.859 6.204 151.911 5.424 150.519 5.424C149.091 5.424 147.939 6.084 147.939 7.224C147.939 8.424 148.899 8.832 149.775 9.012L150.735 9.204C151.431 9.348 152.043 9.624 152.043 10.272C152.043 10.872 151.371 11.232 150.543 11.232C149.583 11.232 149.067 10.74 148.899 9.912H147.747C147.867 11.04 148.827 12.156 150.519 12.156C151.995 12.156 153.147 11.424 153.147 10.152C153.147 8.904 152.115 8.46 150.939 8.232L150.027 8.052C149.403 7.932 149.043 7.692 149.043 7.176C149.043 6.588 149.763 6.36 150.399 6.36C151.155 6.36 151.755 6.66 151.923 7.428ZM155.624 3.3H154.532V4.62H155.624V3.3ZM155.624 5.544H154.532V12H155.624V5.544ZM161.052 7.428H162.192C161.988 6.204 161.04 5.424 159.648 5.424C158.22 5.424 157.068 6.084 157.068 7.224C157.068 8.424 158.028 8.832 158.904 9.012L159.864 9.204C160.56 9.348 161.172 9.624 161.172 10.272C161.172 10.872 160.5 11.232 159.672 11.232C158.712 11.232 158.196 10.74 158.028 9.912H156.876C156.996 11.04 157.956 12.156 159.648 12.156C161.124 12.156 162.276 11.424 162.276 10.152C162.276 8.904 161.244 8.46 160.068 8.232L159.156 8.052C158.532 7.932 158.172 7.692 158.172 7.176C158.172 6.588 158.892 6.36 159.528 6.36C160.284 6.36 160.884 6.66 161.052 7.428ZM163.973 3.924V5.544H162.953V6.42H163.973V10.38C163.973 11.724 164.261 12 165.497 12H166.289V11.088H165.737C165.113 11.088 165.065 10.92 165.065 10.248V6.42H166.289V5.544H165.065V3.924H163.973ZM167.179 10.296C167.179 11.484 168.187 12.156 169.399 12.156C170.539 12.156 171.211 11.772 171.607 11.112C171.619 11.496 171.655 11.76 171.691 12H172.795C172.675 11.388 172.615 10.644 172.627 9.564L172.639 8.076C172.651 6.264 171.847 5.412 170.071 5.412C168.811 5.412 167.587 6.192 167.479 7.584H168.607C168.655 6.792 169.183 6.3 170.083 6.3C170.887 6.3 171.547 6.696 171.547 7.872V8.028C168.895 8.328 167.179 8.772 167.179 10.296ZM171.631 8.892V9.3C171.631 10.824 170.659 11.292 169.639 11.292C168.859 11.292 168.391 10.884 168.391 10.272C168.391 9.384 169.651 9.096 171.631 8.892ZM175.358 6.516V5.544H174.266V12H175.358V8.496C175.358 7.116 176.006 6.384 177.062 6.384C178.31 6.384 178.478 7.248 178.478 8.244V12H179.57V7.92C179.57 6.444 179.006 5.436 177.446 5.436C176.354 5.436 175.73 5.904 175.358 6.516ZM181.516 3.924V5.544H180.496V6.42H181.516V10.38C181.516 11.724 181.804 12 183.04 12H183.832V11.088H183.28C182.656 11.088 182.608 10.92 182.608 10.248V6.42H183.832V5.544H182.608V3.924H181.516ZM189.046 3.3H187.954V12H189.046V11.028C189.442 11.712 190.126 12.156 191.158 12.156C192.634 12.156 193.918 10.932 193.918 8.796C193.918 6.672 192.634 5.436 191.158 5.436C190.126 5.436 189.442 5.88 189.046 6.564V3.3ZM190.882 11.22C189.91 11.22 188.998 10.5 188.998 8.796C188.998 7.092 189.91 6.372 190.882 6.372C191.998 6.372 192.73 7.26 192.73 8.796C192.73 10.332 191.998 11.22 190.882 11.22ZM194.777 10.296C194.777 11.484 195.785 12.156 196.997 12.156C198.137 12.156 198.809 11.772 199.205 11.112C199.217 11.496 199.253 11.76 199.289 12H200.393C200.273 11.388 200.213 10.644 200.225 9.564L200.237 8.076C200.249 6.264 199.445 5.412 197.669 5.412C196.409 5.412 195.185 6.192 195.077 7.584H196.205C196.253 6.792 196.781 6.3 197.681 6.3C198.485 6.3 199.145 6.696 199.145 7.872V8.028C196.493 8.328 194.777 8.772 194.777 10.296ZM199.229 8.892V9.3C199.229 10.824 198.257 11.292 197.237 11.292C196.457 11.292 195.989 10.884 195.989 10.272C195.989 9.384 197.249 9.096 199.229 8.892ZM207.24 7.704C207.096 6.612 206.1 5.436 204.54 5.436C202.632 5.436 201.42 6.864 201.42 8.784C201.42 10.752 202.584 12.156 204.432 12.156C205.932 12.156 207.096 11.112 207.312 9.9H206.184C206.028 10.584 205.38 11.196 204.468 11.196C203.508 11.196 202.608 10.416 202.608 8.772C202.608 7.152 203.496 6.396 204.468 6.396C205.308 6.396 205.98 6.936 206.136 7.704H207.24ZM208.856 3.924V5.544H207.836V6.42H208.856V10.38C208.856 11.724 209.144 12 210.38 12H211.172V11.088H210.62C209.996 11.088 209.948 10.92 209.948 10.248V6.42H211.172V5.544H209.948V3.924H208.856ZM213.119 9.132H218.087C218.231 7.092 217.043 5.436 215.075 5.436C213.311 5.436 211.943 6.744 211.943 8.784C211.943 10.692 213.071 12.156 215.111 12.156C216.683 12.156 217.703 11.244 218.003 10.128H216.875C216.599 10.764 216.071 11.196 215.111 11.196C214.151 11.196 213.167 10.524 213.119 9.132ZM213.131 8.196C213.227 6.9 214.103 6.372 215.075 6.372C216.227 6.372 216.911 7.284 216.935 8.196H213.131ZM222.576 6.684V5.52C222.456 5.508 222.36 5.508 222.252 5.508C221.412 5.532 220.752 5.94 220.428 6.672V5.544H219.36V12H220.452V8.616C220.452 7.2 220.956 6.636 221.964 6.636C222.144 6.636 222.348 6.66 222.576 6.684ZM224.718 3.3H223.626V4.62H224.718V3.3ZM224.718 5.544H223.626V12H224.718V5.544ZM226.066 10.296C226.066 11.484 227.074 12.156 228.286 12.156C229.426 12.156 230.098 11.772 230.494 11.112C230.506 11.496 230.542 11.76 230.578 12H231.682C231.562 11.388 231.502 10.644 231.514 9.564L231.526 8.076C231.538 6.264 230.734 5.412 228.958 5.412C227.698 5.412 226.474 6.192 226.366 7.584H227.494C227.542 6.792 228.07 6.3 228.97 6.3C229.774 6.3 230.434 6.696 230.434 7.872V8.028C227.782 8.328 226.066 8.772 226.066 10.296ZM230.518 8.892V9.3C230.518 10.824 229.546 11.292 228.526 11.292C227.746 11.292 227.278 10.884 227.278 10.272C227.278 9.384 228.538 9.096 230.518 8.892ZM5.292 19.3V22.564C4.896 21.88 4.212 21.436 3.18 21.436C1.704 21.436 0.42 22.672 0.42 24.796C0.42 26.932 1.704 28.156 3.18 28.156C4.212 28.156 4.896 27.712 5.292 27.028V28H6.384V19.3H5.292ZM3.456 22.372C4.428 22.372 5.34 23.092 5.34 24.796C5.34 26.5 4.428 27.22 3.456 27.22C2.34 27.22 1.608 26.332 1.608 24.796C1.608 23.26 2.34 22.372 3.456 22.372ZM8.83819 25.132H13.8062C13.9502 23.092 12.7622 21.436 10.7942 21.436C9.03019 21.436 7.66219 22.744 7.66219 24.784C7.66219 26.692 8.79019 28.156 10.8302 28.156C12.4022 28.156 13.4222 27.244 13.7222 26.128H12.5942C12.3182 26.764 11.7902 27.196 10.8302 27.196C9.87019 27.196 8.88619 26.524 8.83819 25.132ZM8.85019 24.196C8.94619 22.9 9.82219 22.372 10.7942 22.372C11.9462 22.372 12.6302 23.284 12.6542 24.196H8.85019ZM15.3908 19.924V21.544H14.3708V22.42H15.3908V26.38C15.3908 27.724 15.6788 28 16.9148 28H17.7068V27.088H17.1548C16.5308 27.088 16.4828 26.92 16.4828 26.248V22.42H17.7068V21.544H16.4828V19.924H15.3908ZM19.6546 25.132H24.6226C24.7666 23.092 23.5786 21.436 21.6106 21.436C19.8466 21.436 18.4786 22.744 18.4786 24.784C18.4786 26.692 19.6066 28.156 21.6466 28.156C23.2186 28.156 24.2386 27.244 24.5386 26.128H23.4106C23.1346 26.764 22.6066 27.196 21.6466 27.196C20.6866 27.196 19.7026 26.524 19.6546 25.132ZM19.6666 24.196C19.7626 22.9 20.6386 22.372 21.6106 22.372C22.7626 22.372 23.4466 23.284 23.4706 24.196H19.6666ZM31.3298 23.704C31.1858 22.612 30.1898 21.436 28.6298 21.436C26.7218 21.436 25.5098 22.864 25.5098 24.784C25.5098 26.752 26.6738 28.156 28.5218 28.156C30.0218 28.156 31.1858 27.112 31.4018 25.9H30.2738C30.1178 26.584 29.4698 27.196 28.5578 27.196C27.5978 27.196 26.6978 26.416 26.6978 24.772C26.6978 23.152 27.5858 22.396 28.5578 22.396C29.3978 22.396 30.0698 22.936 30.2258 23.704H31.3298ZM32.9455 19.924V21.544H31.9255V22.42H32.9455V26.38C32.9455 27.724 33.2335 28 34.4695 28H35.2615V27.088H34.7095C34.0855 27.088 34.0375 26.92 34.0375 26.248V22.42H35.2615V21.544H34.0375V19.924H32.9455ZM37.2093 25.132H42.1773C42.3213 23.092 41.1333 21.436 39.1653 21.436C37.4013 21.436 36.0333 22.744 36.0333 24.784C36.0333 26.692 37.1613 28.156 39.2013 28.156C40.7733 28.156 41.7933 27.244 42.0933 26.128H40.9653C40.6893 26.764 40.1613 27.196 39.2013 27.196C38.2413 27.196 37.2573 26.524 37.2093 25.132ZM37.2213 24.196C37.3173 22.9 38.1933 22.372 39.1653 22.372C40.3173 22.372 41.0013 23.284 41.0253 24.196H37.2213ZM47.9365 19.3V22.564C47.5405 21.88 46.8565 21.436 45.8245 21.436C44.3485 21.436 43.0645 22.672 43.0645 24.796C43.0645 26.932 44.3485 28.156 45.8245 28.156C46.8565 28.156 47.5405 27.712 47.9365 27.028V28H49.0285V19.3H47.9365ZM46.1005 22.372C47.0725 22.372 47.9845 23.092 47.9845 24.796C47.9845 26.5 47.0725 27.22 46.1005 27.22C44.9845 27.22 44.2525 26.332 44.2525 24.796C44.2525 23.26 44.9845 22.372 46.1005 22.372Z" fill="black"/>
<path d="M6.24 225H8.028V216.3H6.804V223.704L2.832 216.3H1.032V225H2.256V217.572L6.24 225ZM13.9186 224.076V225H15.0106V218.544H13.9186V222.096C13.9186 223.476 13.3066 224.208 12.2746 224.208C11.0866 224.208 10.9186 223.344 10.9186 222.348V218.544H9.82659V222.672C9.82659 224.148 10.3906 225.156 11.8906 225.156C12.9586 225.156 13.5466 224.688 13.9186 224.076ZM17.8349 225V221.496C17.8349 220.116 18.4589 219.384 19.3949 219.384C20.5829 219.384 20.7749 220.248 20.7749 221.244V225H21.8669V221.496C21.8669 220.116 22.4909 219.384 23.4269 219.384C24.6149 219.384 24.8069 220.248 24.8069 221.244V225H25.8989V220.92C25.8989 219.444 25.3109 218.436 23.8109 218.436C22.9109 218.436 22.1549 218.784 21.6389 219.576C21.3509 218.868 20.7629 218.436 19.7789 218.436C18.8069 218.436 18.2069 218.904 17.8349 219.516V218.544H16.7429V225H17.8349ZM28.6279 216.3H27.5359V225H28.6279V224.028C29.0239 224.712 29.7079 225.156 30.7399 225.156C32.2159 225.156 33.4999 223.932 33.4999 221.796C33.4999 219.672 32.2159 218.436 30.7399 218.436C29.7079 218.436 29.0239 218.88 28.6279 219.564V216.3ZM30.4639 224.22C29.4919 224.22 28.5799 223.5 28.5799 221.796C28.5799 220.092 29.4919 219.372 30.4639 219.372C31.5799 219.372 32.3119 220.26 32.3119 221.796C32.3119 223.332 31.5799 224.22 30.4639 224.22ZM35.5687 222.132H40.5367C40.6807 220.092 39.4927 218.436 37.5247 218.436C35.7607 218.436 34.3927 219.744 34.3927 221.784C34.3927 223.692 35.5207 225.156 37.5607 225.156C39.1327 225.156 40.1527 224.244 40.4527 223.128H39.3247C39.0487 223.764 38.5207 224.196 37.5607 224.196C36.6007 224.196 35.6167 223.524 35.5687 222.132ZM35.5807 221.196C35.6767 219.9 36.5527 219.372 37.5247 219.372C38.6767 219.372 39.3607 220.284 39.3847 221.196H35.5807ZM45.0253 219.684V218.52C44.9053 218.508 44.8093 218.508 44.7013 218.508C43.8613 218.532 43.2013 218.94 42.8773 219.672V218.544H41.8093V225H42.9013V221.616C42.9013 220.2 43.4053 219.636 44.4133 219.636C44.5933 219.636 44.7973 219.66 45.0253 219.684ZM54.6946 221.796C54.6946 219.456 53.0986 218.436 51.5986 218.436C50.0986 218.436 48.5026 219.456 48.5026 221.796C48.5026 224.136 50.0986 225.156 51.5986 225.156C53.0986 225.156 54.6946 224.136 54.6946 221.796ZM51.5986 224.196C50.6146 224.196 49.6666 223.512 49.6666 221.796C49.6666 220.032 50.6146 219.396 51.5986 219.396C52.5826 219.396 53.5306 220.08 53.5306 221.796C53.5306 223.452 52.5826 224.196 51.5986 224.196ZM56.3353 218.076V218.544H55.4353V219.42H56.3353V225H57.4273V219.42H58.6393V218.544H57.4273V218.016C57.4273 217.344 57.5233 217.212 58.0993 217.212H58.6393V216.3H58.0753C56.6113 216.3 56.3353 216.732 56.3353 218.076ZM66.3647 220.428H67.5047C67.3007 219.204 66.3527 218.424 64.9607 218.424C63.5327 218.424 62.3807 219.084 62.3807 220.224C62.3807 221.424 63.3407 221.832 64.2167 222.012L65.1767 222.204C65.8727 222.348 66.4847 222.624 66.4847 223.272C66.4847 223.872 65.8127 224.232 64.9847 224.232C64.0247 224.232 63.5087 223.74 63.3407 222.912H62.1887C62.3087 224.04 63.2687 225.156 64.9607 225.156C66.4367 225.156 67.5887 224.424 67.5887 223.152C67.5887 221.904 66.5567 221.46 65.3807 221.232L64.4687 221.052C63.8447 220.932 63.4847 220.692 63.4847 220.176C63.4847 219.588 64.2047 219.36 64.8407 219.36C65.5967 219.36 66.1967 219.66 66.3647 220.428ZM68.5894 223.296C68.5894 224.484 69.5974 225.156 70.8094 225.156C71.9494 225.156 72.6214 224.772 73.0174 224.112C73.0294 224.496 73.0654 224.76 73.1014 225H74.2054C74.0854 224.388 74.0254 223.644 74.0374 222.564L74.0494 221.076C74.0614 219.264 73.2574 218.412 71.4814 218.412C70.2214 218.412 68.9974 219.192 68.8894 220.584H70.0174C70.0654 219.792 70.5934 219.3 71.4934 219.3C72.2974 219.3 72.9574 219.696 72.9574 220.872V221.028C70.3054 221.328 68.5894 221.772 68.5894 223.296ZM73.0414 221.892V222.3C73.0414 223.824 72.0694 224.292 71.0494 224.292C70.2694 224.292 69.8014 223.884 69.8014 223.272C69.8014 222.384 71.0614 222.096 73.0414 221.892ZM76.7685 225V221.496C76.7685 220.116 77.3925 219.384 78.3285 219.384C79.5165 219.384 79.7085 220.248 79.7085 221.244V225H80.8005V221.496C80.8005 220.116 81.4245 219.384 82.3605 219.384C83.5485 219.384 83.7405 220.248 83.7405 221.244V225H84.8325V220.92C84.8325 219.444 84.2445 218.436 82.7445 218.436C81.8445 218.436 81.0885 218.784 80.5725 219.576C80.2845 218.868 79.6965 218.436 78.7125 218.436C77.7405 218.436 77.1405 218.904 76.7685 219.516V218.544H75.6765V225H76.7685ZM87.5615 218.544H86.4695V227.1H87.5615V224.028C87.9575 224.712 88.6415 225.156 89.6735 225.156C91.1495 225.156 92.4335 223.932 92.4335 221.796C92.4335 219.672 91.1495 218.436 89.6735 218.436C88.6415 218.436 87.9575 218.88 87.5615 219.564V218.544ZM89.3975 224.22C88.4255 224.22 87.5135 223.5 87.5135 221.796C87.5135 220.092 88.4255 219.372 89.3975 219.372C90.5135 219.372 91.2455 220.26 91.2455 221.796C91.2455 223.332 90.5135 224.22 89.3975 224.22ZM94.8037 225V216.3H93.7117V225H94.8037ZM97.2679 222.132H102.236C102.38 220.092 101.192 218.436 99.2239 218.436C97.4599 218.436 96.0919 219.744 96.0919 221.784C96.0919 223.692 97.2199 225.156 99.2599 225.156C100.832 225.156 101.852 224.244 102.152 223.128H101.024C100.748 223.764 100.22 224.196 99.2599 224.196C98.2999 224.196 97.3159 223.524 97.2679 222.132ZM97.2799 221.196C97.3759 219.9 98.2519 219.372 99.2239 219.372C100.376 219.372 101.06 220.284 101.084 221.196H97.2799ZM107.228 220.428H108.368C108.164 219.204 107.216 218.424 105.824 218.424C104.396 218.424 103.244 219.084 103.244 220.224C103.244 221.424 104.204 221.832 105.08 222.012L106.04 222.204C106.736 222.348 107.348 222.624 107.348 223.272C107.348 223.872 106.676 224.232 105.848 224.232C104.888 224.232 104.372 223.74 104.204 222.912H103.052C103.172 224.04 104.132 225.156 105.824 225.156C107.3 225.156 108.452 224.424 108.452 223.152C108.452 221.904 107.42 221.46 106.244 221.232L105.332 221.052C104.708 220.932 104.348 220.692 104.348 220.176C104.348 219.588 105.068 219.36 105.704 219.36C106.46 219.36 107.06 219.66 107.228 220.428ZM112.996 216.924V218.544H111.976V219.42H112.996V223.38C112.996 224.724 113.284 225 114.52 225H115.312V224.088H114.76C114.136 224.088 114.088 223.92 114.088 223.248V219.42H115.312V218.544H114.088V216.924H112.996ZM116.203 223.296C116.203 224.484 117.211 225.156 118.423 225.156C119.563 225.156 120.235 224.772 120.631 224.112C120.643 224.496 120.679 224.76 120.715 225H121.819C121.699 224.388 121.639 223.644 121.651 222.564L121.663 221.076C121.675 219.264 120.871 218.412 119.095 218.412C117.835 218.412 116.611 219.192 116.503 220.584H117.631C117.679 219.792 118.207 219.3 119.107 219.3C119.911 219.3 120.571 219.696 120.571 220.872V221.028C117.919 221.328 116.203 221.772 116.203 223.296ZM120.655 221.892V222.3C120.655 223.824 119.683 224.292 118.663 224.292C117.883 224.292 117.415 223.884 117.415 223.272C117.415 222.384 118.675 222.096 120.655 221.892ZM124.382 216.3H123.29V225H124.382V222.84L125.138 222.024L127.334 225H128.666L125.87 221.22L128.33 218.544H126.986L124.382 221.448V216.3ZM129.905 222.132H134.873C135.017 220.092 133.829 218.436 131.861 218.436C130.097 218.436 128.729 219.744 128.729 221.784C128.729 223.692 129.857 225.156 131.897 225.156C133.469 225.156 134.489 224.244 134.789 223.128H133.661C133.385 223.764 132.857 224.196 131.897 224.196C130.937 224.196 129.953 223.524 129.905 222.132ZM129.917 221.196C130.013 219.9 130.889 219.372 131.861 219.372C133.013 219.372 133.697 220.284 133.721 221.196H129.917ZM137.237 219.516V218.544H136.145V225H137.237V221.496C137.237 220.116 137.885 219.384 138.941 219.384C140.189 219.384 140.357 220.248 140.357 221.244V225H141.449V220.92C141.449 219.444 140.885 218.436 139.325 218.436C138.233 218.436 137.609 218.904 137.237 219.516Z" fill="black"/>
<path d="M1.704 259.416C1.764 257.4 2.496 256.056 3.84 256.056C4.728 256.056 5.328 256.536 5.472 257.316H6.66C6.48 256.212 5.676 255.144 3.972 255.144C1.452 255.144 0.576 257.496 0.576 259.956C0.576 262.644 1.572 264.156 3.744 264.156C5.604 264.156 6.804 262.776 6.804 261.156C6.804 259.416 5.616 258.204 3.996 258.204C2.844 258.204 2.1 258.732 1.704 259.416ZM3.732 263.244C2.58 263.244 1.836 262.416 1.836 261.216C1.836 260.028 2.604 259.152 3.744 259.152C4.86 259.152 5.64 260.028 5.64 261.216C5.64 262.404 4.848 263.244 3.732 263.244ZM13.7668 257.424C13.7668 255.96 12.6148 255.144 11.0068 255.144C9.15881 255.144 7.95881 256.284 7.98281 258.012H9.11081C9.13481 256.572 10.0468 256.056 10.9828 256.056C12.0148 256.056 12.6148 256.668 12.6148 257.568C12.6148 259.104 10.8148 260.748 7.74281 263.016V264H14.0068V262.98H9.23081C11.6668 261.228 13.7668 259.44 13.7668 257.424ZM14.5929 255.3V256.32H19.3449C17.1849 258.192 15.8049 260.88 15.6129 264H16.9329C17.1369 260.748 18.4689 258.06 20.6169 256.32V255.3H14.5929Z" fill="black"/>
<path d="M166.568 118.144C166.568 119.488 165.668 120.244 164.624 120.244C163.412 120.244 162.824 119.572 162.656 118.48H161.528C161.696 119.884 162.608 121.156 164.624 121.156C166.244 121.156 167.72 120.124 167.72 118.132C167.72 116.212 166.388 115.132 164.864 115.132C164.144 115.132 163.448 115.348 162.992 115.792L163.292 113.32H167.396V112.3H162.404L161.84 116.98L162.932 117.04C163.124 116.608 163.712 116.08 164.612 116.08C165.56 116.08 166.568 116.704 166.568 118.144ZM169.069 112.3V113.68H169.657L169.021 115.348H169.717L170.449 113.776V112.3H169.069ZM177.376 118.852V117.82H175.78V112.3H174.664L170.356 117.82V118.852H174.676V121H175.78V118.852H177.376ZM171.568 117.82L174.676 113.8V117.82H171.568ZM177.773 112.3V113.32H182.525C180.365 115.192 178.985 117.88 178.793 121H180.113C180.317 117.748 181.649 115.06 183.797 113.32V112.3H177.773ZM189.822 118.852V117.82H188.226V112.3H187.11L182.802 117.82V118.852H187.122V121H188.226V118.852H189.822ZM184.014 117.82L187.122 113.8V117.82H184.014Z" fill="black"/>
<path d="M150.384 256.424C150.384 254.96 149.232 254.144 147.624 254.144C145.776 254.144 144.576 255.284 144.6 257.012H145.728C145.752 255.572 146.664 255.056 147.6 255.056C148.632 255.056 149.232 255.668 149.232 256.568C149.232 258.104 147.432 259.748 144.36 262.016V263H150.624V261.98H145.848C148.284 260.228 150.384 258.44 150.384 256.424ZM151.21 254.3V255.32H155.962C153.802 257.192 152.422 259.88 152.23 263H153.55C153.754 259.748 155.086 257.06 157.234 255.32V254.3H151.21ZM158.374 254.3V255.68H158.962L158.326 257.348H159.022L159.754 255.776V254.3H158.374ZM165.74 260.144C165.74 261.488 164.84 262.244 163.796 262.244C162.584 262.244 161.996 261.572 161.828 260.48H160.7C160.868 261.884 161.78 263.156 163.796 263.156C165.416 263.156 166.892 262.124 166.892 260.132C166.892 258.212 165.56 257.132 164.036 257.132C163.316 257.132 162.62 257.348 162.164 257.792L162.464 255.32H166.568V254.3H161.576L161.012 258.98L162.104 259.04C162.296 258.608 162.884 258.08 163.784 258.08C164.732 258.08 165.74 258.704 165.74 260.144ZM167.593 254.3V255.32H172.345C170.185 257.192 168.805 259.88 168.613 263H169.933C170.137 259.748 171.469 257.06 173.617 255.32V254.3H167.593ZM174.109 254.3V255.32H178.861C176.701 257.192 175.321 259.88 175.129 263H176.449C176.653 259.748 177.985 257.06 180.133 255.32V254.3H174.109Z" fill="black"/>
<path d="M5.256 307V298.3H4.032V307H5.256ZM8.24897 301.516V300.544H7.15697V307H8.24897V303.496C8.24897 302.116 8.89697 301.384 9.95297 301.384C11.201 301.384 11.369 302.248 11.369 303.244V307H12.461V302.92C12.461 301.444 11.897 300.436 10.337 300.436C9.24497 300.436 8.62097 300.904 8.24897 301.516ZM22.4621 300.424C22.4621 298.96 21.3101 298.144 19.7021 298.144C17.8541 298.144 16.6541 299.284 16.6781 301.012H17.8061C17.8301 299.572 18.7421 299.056 19.6781 299.056C20.7101 299.056 21.3101 299.668 21.3101 300.568C21.3101 302.104 19.5101 303.748 16.4381 306.016V307H22.7021V305.98H17.9261C20.3621 304.228 22.4621 302.44 22.4621 300.424ZM27.1163 307.156C29.4323 307.156 30.5003 305.404 30.5003 302.644C30.5003 299.896 29.4323 298.144 27.1163 298.144C24.8003 298.144 23.7323 299.896 23.7323 302.644C23.7323 305.404 24.8003 307.156 27.1163 307.156ZM27.1163 299.056C28.4843 299.056 29.3363 300.232 29.3363 302.644C29.3363 305.068 28.4843 306.244 27.1163 306.244C25.7483 306.244 24.8963 305.068 24.8963 302.644C24.8963 300.232 25.7483 299.056 27.1163 299.056ZM37.4738 300.424C37.4738 298.96 36.3218 298.144 34.7138 298.144C32.8658 298.144 31.6658 299.284 31.6898 301.012H32.8178C32.8418 299.572 33.7538 299.056 34.6898 299.056C35.7218 299.056 36.3218 299.668 36.3218 300.568C36.3218 302.104 34.5218 303.748 31.4498 306.016V307H37.7138V305.98H32.9378C35.3738 304.228 37.4738 302.44 37.4738 300.424ZM42.128 307.156C44.444 307.156 45.512 305.404 45.512 302.644C45.512 299.896 44.444 298.144 42.128 298.144C39.812 298.144 38.744 299.896 38.744 302.644C38.744 305.404 39.812 307.156 42.128 307.156ZM42.128 299.056C43.496 299.056 44.348 300.232 44.348 302.644C44.348 305.068 43.496 306.244 42.128 306.244C40.76 306.244 39.908 305.068 39.908 302.644C39.908 300.232 40.76 299.056 42.128 299.056ZM46.2839 305.62V307H46.8719L46.2359 308.668H46.9319L47.6639 307.096V305.62H46.2839ZM119.952 301.516V298.3H118.86V307H119.952V303.496C119.952 302.116 120.6 301.384 121.656 301.384C122.904 301.384 123.072 302.248 123.072 303.244V307H124.164V302.92C124.164 301.444 123.6 300.436 122.04 300.436C120.948 300.436 120.324 300.904 119.952 301.516ZM125.414 305.296C125.414 306.484 126.422 307.156 127.634 307.156C128.774 307.156 129.446 306.772 129.842 306.112C129.854 306.496 129.89 306.76 129.926 307H131.03C130.91 306.388 130.85 305.644 130.862 304.564L130.874 303.076C130.886 301.264 130.082 300.412 128.306 300.412C127.046 300.412 125.822 301.192 125.714 302.584H126.842C126.89 301.792 127.418 301.3 128.318 301.3C129.122 301.3 129.782 301.696 129.782 302.872V303.028C127.13 303.328 125.414 303.772 125.414 305.296ZM129.866 303.892V304.3C129.866 305.824 128.894 306.292 127.874 306.292C127.094 306.292 126.626 305.884 126.626 305.272C126.626 304.384 127.886 304.096 129.866 303.892ZM136.197 302.428H137.337C137.133 301.204 136.185 300.424 134.793 300.424C133.365 300.424 132.213 301.084 132.213 302.224C132.213 303.424 133.173 303.832 134.049 304.012L135.009 304.204C135.705 304.348 136.317 304.624 136.317 305.272C136.317 305.872 135.645 306.232 134.817 306.232C133.857 306.232 133.341 305.74 133.173 304.912H132.021C132.141 306.04 133.101 307.156 134.793 307.156C136.269 307.156 137.421 306.424 137.421 305.152C137.421 303.904 136.389 303.46 135.213 303.232L134.301 303.052C133.677 302.932 133.317 302.692 133.317 302.176C133.317 301.588 134.037 301.36 134.673 301.36C135.429 301.36 136.029 301.66 136.197 302.428ZM7.08 317.684V316.52C6.96 316.508 6.864 316.508 6.756 316.508C5.916 316.532 5.256 316.94 4.932 317.672V316.544H3.864V323H4.956V319.616C4.956 318.2 5.46 317.636 6.468 317.636C6.648 317.636 6.852 317.66 7.08 317.684ZM8.74444 320.132H13.7124C13.8564 318.092 12.6684 316.436 10.7004 316.436C8.93644 316.436 7.56844 317.744 7.56844 319.784C7.56844 321.692 8.69644 323.156 10.7364 323.156C12.3084 323.156 13.3284 322.244 13.6284 321.128H12.5004C12.2244 321.764 11.6964 322.196 10.7364 322.196C9.77644 322.196 8.79244 321.524 8.74444 320.132ZM8.75644 319.196C8.85244 317.9 9.72844 317.372 10.7004 317.372C11.8524 317.372 12.5364 318.284 12.5604 319.196H8.75644ZM19.3877 316.544V317.564C18.9917 316.88 18.3677 316.436 17.3357 316.436C15.9077 316.436 14.5997 317.6 14.5997 319.664C14.5997 321.74 15.9077 322.892 17.3357 322.892C18.3677 322.892 18.9917 322.46 19.3877 321.776V322.388C19.3877 323.264 19.2077 323.564 18.9677 323.816C18.6797 324.128 18.2357 324.296 17.6477 324.296C16.6397 324.296 16.2917 323.852 16.1477 323.276H14.9837C15.1877 324.584 16.1717 325.256 17.6357 325.256C18.5957 325.256 19.3997 324.944 19.8677 324.404C20.2397 323.996 20.4797 323.456 20.4797 322.136V316.544H19.3877ZM17.6117 317.372C18.5837 317.372 19.4357 318.032 19.4357 319.664C19.4357 321.308 18.5837 321.968 17.6117 321.968C16.5437 321.968 15.7877 321.14 15.7877 319.664C15.7877 318.2 16.5437 317.372 17.6117 317.372ZM23.2958 314.3H22.2038V315.62H23.2958V314.3ZM23.2958 316.544H22.2038V323H23.2958V316.544ZM28.7241 318.428H29.8641C29.6601 317.204 28.7121 316.424 27.3201 316.424C25.8921 316.424 24.7401 317.084 24.7401 318.224C24.7401 319.424 25.7001 319.832 26.5761 320.012L27.5361 320.204C28.2321 320.348 28.8441 320.624 28.8441 321.272C28.8441 321.872 28.1721 322.232 27.3441 322.232C26.3841 322.232 25.8681 321.74 25.7001 320.912H24.5481C24.6681 322.04 25.6281 323.156 27.3201 323.156C28.7961 323.156 29.9481 322.424 29.9481 321.152C29.9481 319.904 28.9161 319.46 27.7401 319.232L26.8281 319.052C26.2041 318.932 25.8441 318.692 25.8441 318.176C25.8441 317.588 26.5641 317.36 27.2001 317.36C27.9561 317.36 28.5561 317.66 28.7241 318.428ZM31.6448 314.924V316.544H30.6248V317.42H31.6448V321.38C31.6448 322.724 31.9328 323 33.1688 323H33.9608V322.088H33.4088C32.7848 322.088 32.7368 321.92 32.7368 321.248V317.42H33.9608V316.544H32.7368V314.924H31.6448ZM35.9085 320.132H40.8765C41.0205 318.092 39.8325 316.436 37.8645 316.436C36.1005 316.436 34.7325 317.744 34.7325 319.784C34.7325 321.692 35.8605 323.156 37.9005 323.156C39.4725 323.156 40.4925 322.244 40.7925 321.128H39.6645C39.3885 321.764 38.8605 322.196 37.9005 322.196C36.9405 322.196 35.9565 321.524 35.9085 320.132ZM35.9205 319.196C36.0165 317.9 36.8925 317.372 37.8645 317.372C39.0165 317.372 39.7005 318.284 39.7245 319.196H35.9205ZM45.3652 317.684V316.52C45.2452 316.508 45.1492 316.508 45.0412 316.508C44.2012 316.532 43.5412 316.94 43.2172 317.672V316.544H42.1492V323H43.2412V319.616C43.2412 318.2 43.7452 317.636 44.7532 317.636C44.9332 317.636 45.1372 317.66 45.3652 317.684ZM47.0296 320.132H51.9976C52.1416 318.092 50.9536 316.436 48.9856 316.436C47.2216 316.436 45.8536 317.744 45.8536 319.784C45.8536 321.692 46.9816 323.156 49.0216 323.156C50.5936 323.156 51.6136 322.244 51.9136 321.128H50.7856C50.5096 321.764 49.9816 322.196 49.0216 322.196C48.0616 322.196 47.0776 321.524 47.0296 320.132ZM47.0416 319.196C47.1376 317.9 48.0136 317.372 48.9856 317.372C50.1376 317.372 50.8216 318.284 50.8456 319.196H47.0416ZM57.7568 314.3V317.564C57.3608 316.88 56.6768 316.436 55.6448 316.436C54.1688 316.436 52.8848 317.672 52.8848 319.796C52.8848 321.932 54.1688 323.156 55.6448 323.156C56.6768 323.156 57.3608 322.712 57.7568 322.028V323H58.8488V314.3H57.7568ZM55.9208 317.372C56.8928 317.372 57.8048 318.092 57.8048 319.796C57.8048 321.5 56.8928 322.22 55.9208 322.22C54.8048 322.22 54.0728 321.332 54.0728 319.796C54.0728 318.26 54.8048 317.372 55.9208 317.372ZM64.7147 323H65.8067V314.3H65.0627C64.5827 315.248 63.9467 315.404 62.6987 315.452V316.196H64.7147V323ZM72.5407 320.144C72.5407 321.488 71.6407 322.244 70.5967 322.244C69.3847 322.244 68.7967 321.572 68.6287 320.48H67.5007C67.6687 321.884 68.5807 323.156 70.5967 323.156C72.2167 323.156 73.6927 322.124 73.6927 320.132C73.6927 318.212 72.3607 317.132 70.8367 317.132C70.1167 317.132 69.4207 317.348 68.9647 317.792L69.2647 315.32H73.3687V314.3H68.3767L67.8127 318.98L68.9047 319.04C69.0967 318.608 69.6847 318.08 70.5847 318.08C71.5327 318.08 72.5407 318.704 72.5407 320.144ZM80.9217 316.364C80.9217 315.08 79.7937 314.144 78.0177 314.144C76.2297 314.144 75.1137 315.08 75.1137 316.364C75.1137 317.072 75.4497 317.9 76.3137 318.368C75.1737 318.824 74.8377 319.76 74.8377 320.552C74.8377 322.208 76.2177 323.156 78.0177 323.156C79.8057 323.156 81.1857 322.208 81.1857 320.552C81.1857 319.76 80.8497 318.824 79.7217 318.368C80.5857 317.9 80.9217 317.072 80.9217 316.364ZM78.0177 315.056C79.0977 315.056 79.8177 315.632 79.8177 316.496C79.8177 317.372 79.0977 318.02 78.0177 318.02C76.9257 318.02 76.2057 317.372 76.2057 316.496C76.2057 315.632 76.9257 315.056 78.0177 315.056ZM76.0017 320.552C76.0017 319.532 76.7817 318.824 78.0177 318.824C79.2417 318.824 80.0337 319.532 80.0337 320.552C80.0337 321.572 79.2417 322.244 78.0177 322.244C76.7817 322.244 76.0017 321.572 76.0017 320.552ZM85.1011 321.296C85.1011 322.484 86.1091 323.156 87.3211 323.156C88.4611 323.156 89.1331 322.772 89.5291 322.112C89.5411 322.496 89.5771 322.76 89.6131 323H90.7171C90.5971 322.388 90.5371 321.644 90.5491 320.564L90.5611 319.076C90.5731 317.264 89.7691 316.412 87.9931 316.412C86.7331 316.412 85.5091 317.192 85.4011 318.584H86.5291C86.5771 317.792 87.1051 317.3 88.0051 317.3C88.8091 317.3 89.4691 317.696 89.4691 318.872V319.028C86.8171 319.328 85.1011 319.772 85.1011 321.296ZM89.5531 319.892V320.3C89.5531 321.824 88.5811 322.292 87.5611 322.292C86.7811 322.292 86.3131 321.884 86.3131 321.272C86.3131 320.384 87.5731 320.096 89.5531 319.892ZM93.2802 317.516V316.544H92.1882V323H93.2802V319.496C93.2802 318.116 93.9282 317.384 94.9842 317.384C96.2322 317.384 96.4002 318.248 96.4002 319.244V323H97.4922V318.92C97.4922 317.444 96.9282 316.436 95.3682 316.436C94.2762 316.436 93.6522 316.904 93.2802 317.516ZM99.4377 314.924V316.544H98.4177V317.42H99.4377V321.38C99.4377 322.724 99.7257 323 100.962 323H101.754V322.088H101.202C100.578 322.088 100.53 321.92 100.53 321.248V317.42H101.754V316.544H100.53V314.924H99.4377ZM104.237 314.3H103.145V315.62H104.237V314.3ZM104.237 316.544H103.145V323H104.237V316.544ZM107.061 323V319.496C107.061 318.116 107.685 317.384 108.621 317.384C109.809 317.384 110.001 318.248 110.001 319.244V323H111.093V319.496C111.093 318.116 111.717 317.384 112.653 317.384C113.841 317.384 114.033 318.248 114.033 319.244V323H115.125V318.92C115.125 317.444 114.537 316.436 113.037 316.436C112.137 316.436 111.381 316.784 110.865 317.576C110.577 316.868 109.989 316.436 109.005 316.436C108.033 316.436 107.433 316.904 107.061 317.516V316.544H105.969V323H107.061ZM117.854 314.3H116.762V315.62H117.854V314.3ZM117.854 316.544H116.762V323H117.854V316.544ZM124.963 318.704C124.819 317.612 123.823 316.436 122.263 316.436C120.355 316.436 119.143 317.864 119.143 319.784C119.143 321.752 120.307 323.156 122.155 323.156C123.655 323.156 124.819 322.112 125.035 320.9H123.907C123.751 321.584 123.103 322.196 122.191 322.196C121.231 322.196 120.331 321.416 120.331 319.772C120.331 318.152 121.219 317.396 122.191 317.396C123.031 317.396 123.703 317.936 123.859 318.704H124.963ZM129.482 317.684V316.52C129.362 316.508 129.266 316.508 129.158 316.508C128.318 316.532 127.658 316.94 127.334 317.672V316.544H126.266V323H127.358V319.616C127.358 318.2 127.862 317.636 128.87 317.636C129.05 317.636 129.254 317.66 129.482 317.684ZM136.187 319.796C136.187 317.456 134.591 316.436 133.091 316.436C131.591 316.436 129.995 317.456 129.995 319.796C129.995 322.136 131.591 323.156 133.091 323.156C134.591 323.156 136.187 322.136 136.187 319.796ZM133.091 322.196C132.107 322.196 131.159 321.512 131.159 319.796C131.159 318.032 132.107 317.396 133.091 317.396C134.075 317.396 135.023 318.08 135.023 319.796C135.023 321.452 134.075 322.196 133.091 322.196ZM138.585 314.3H137.493V323H138.585V322.028C138.981 322.712 139.665 323.156 140.697 323.156C142.173 323.156 143.457 321.932 143.457 319.796C143.457 317.672 142.173 316.436 140.697 316.436C139.665 316.436 138.981 316.88 138.585 317.564V314.3ZM140.421 322.22C139.449 322.22 138.537 321.5 138.537 319.796C138.537 318.092 139.449 317.372 140.421 317.372C141.537 317.372 142.269 318.26 142.269 319.796C142.269 321.332 141.537 322.22 140.421 322.22ZM145.792 314.3H144.7V315.62H145.792V314.3ZM145.792 316.544H144.7V323H145.792V316.544ZM147.14 321.296C147.14 322.484 148.148 323.156 149.36 323.156C150.5 323.156 151.172 322.772 151.568 322.112C151.58 322.496 151.616 322.76 151.652 323H152.756C152.636 322.388 152.576 321.644 152.588 320.564L152.6 319.076C152.612 317.264 151.808 316.412 150.032 316.412C148.772 316.412 147.548 317.192 147.44 318.584H148.568C148.616 317.792 149.144 317.3 150.044 317.3C150.848 317.3 151.508 317.696 151.508 318.872V319.028C148.856 319.328 147.14 319.772 147.14 321.296ZM151.592 319.892V320.3C151.592 321.824 150.62 322.292 149.6 322.292C148.82 322.292 148.352 321.884 148.352 321.272C148.352 320.384 149.612 320.096 151.592 319.892ZM155.319 323V314.3H154.227V323H155.319ZM7.08 333.684V332.52C6.96 332.508 6.864 332.508 6.756 332.508C5.916 332.532 5.256 332.94 4.932 333.672V332.544H3.864V339H4.956V335.616C4.956 334.2 5.46 333.636 6.468 333.636C6.648 333.636 6.852 333.66 7.08 333.684ZM8.74444 336.132H13.7124C13.8564 334.092 12.6684 332.436 10.7004 332.436C8.93644 332.436 7.56844 333.744 7.56844 335.784C7.56844 337.692 8.69644 339.156 10.7364 339.156C12.3084 339.156 13.3284 338.244 13.6284 337.128H12.5004C12.2244 337.764 11.6964 338.196 10.7364 338.196C9.77644 338.196 8.79244 337.524 8.74444 336.132ZM8.75644 335.196C8.85244 333.9 9.72844 333.372 10.7004 333.372C11.8524 333.372 12.5364 334.284 12.5604 335.196H8.75644ZM18.7045 334.428H19.8445C19.6405 333.204 18.6925 332.424 17.3005 332.424C15.8725 332.424 14.7205 333.084 14.7205 334.224C14.7205 335.424 15.6805 335.832 16.5565 336.012L17.5165 336.204C18.2125 336.348 18.8245 336.624 18.8245 337.272C18.8245 337.872 18.1525 338.232 17.3245 338.232C16.3645 338.232 15.8485 337.74 15.6805 336.912H14.5285C14.6485 338.04 15.6085 339.156 17.3005 339.156C18.7765 339.156 19.9285 338.424 19.9285 337.152C19.9285 335.904 18.8965 335.46 17.7205 335.232L16.8085 335.052C16.1845 334.932 15.8245 334.692 15.8245 334.176C15.8245 333.588 16.5445 333.36 17.1805 333.36C17.9365 333.36 18.5365 333.66 18.7045 334.428ZM22.4052 330.3H21.3132V331.62H22.4052V330.3ZM22.4052 332.544H21.3132V339H22.4052V332.544ZM27.8334 334.428H28.9734C28.7694 333.204 27.8214 332.424 26.4294 332.424C25.0014 332.424 23.8494 333.084 23.8494 334.224C23.8494 335.424 24.8094 335.832 25.6854 336.012L26.6454 336.204C27.3414 336.348 27.9534 336.624 27.9534 337.272C27.9534 337.872 27.2814 338.232 26.4534 338.232C25.4934 338.232 24.9774 337.74 24.8094 336.912H23.6574C23.7774 338.04 24.7374 339.156 26.4294 339.156C27.9054 339.156 29.0574 338.424 29.0574 337.152C29.0574 335.904 28.0254 335.46 26.8494 335.232L25.9374 335.052C25.3134 334.932 24.9534 334.692 24.9534 334.176C24.9534 333.588 25.6734 333.36 26.3094 333.36C27.0654 333.36 27.6654 333.66 27.8334 334.428ZM30.7541 330.924V332.544H29.7341V333.42H30.7541V337.38C30.7541 338.724 31.0421 339 32.2781 339H33.0701V338.088H32.5181C31.8941 338.088 31.8461 337.92 31.8461 337.248V333.42H33.0701V332.544H31.8461V330.924H30.7541ZM33.9605 337.296C33.9605 338.484 34.9685 339.156 36.1805 339.156C37.3205 339.156 37.9925 338.772 38.3885 338.112C38.4005 338.496 38.4365 338.76 38.4725 339H39.5765C39.4565 338.388 39.3965 337.644 39.4085 336.564L39.4205 335.076C39.4325 333.264 38.6285 332.412 36.8525 332.412C35.5925 332.412 34.3685 333.192 34.2605 334.584H35.3885C35.4365 333.792 35.9645 333.3 36.8645 333.3C37.6685 333.3 38.3285 333.696 38.3285 334.872V335.028C35.6765 335.328 33.9605 335.772 33.9605 337.296ZM38.4125 335.892V336.3C38.4125 337.824 37.4405 338.292 36.4205 338.292C35.6405 338.292 35.1725 337.884 35.1725 337.272C35.1725 336.384 36.4325 336.096 38.4125 335.892ZM42.1396 333.516V332.544H41.0476V339H42.1396V335.496C42.1396 334.116 42.7876 333.384 43.8436 333.384C45.0916 333.384 45.2596 334.248 45.2596 335.244V339H46.3516V334.92C46.3516 333.444 45.7876 332.436 44.2276 332.436C43.1356 332.436 42.5116 332.904 42.1396 333.516ZM48.2971 330.924V332.544H47.2771V333.42H48.2971V337.38C48.2971 338.724 48.5851 339 49.8211 339H50.6131V338.088H50.0611C49.4371 338.088 49.3891 337.92 49.3891 337.248V333.42H50.6131V332.544H49.3891V330.924H48.2971ZM55.8271 330.3H54.7351V339H55.8271V338.028C56.2231 338.712 56.9071 339.156 57.9391 339.156C59.4151 339.156 60.6991 337.932 60.6991 335.796C60.6991 333.672 59.4151 332.436 57.9391 332.436C56.9071 332.436 56.2231 332.88 55.8271 333.564V330.3ZM57.6631 338.22C56.6911 338.22 55.7791 337.5 55.7791 335.796C55.7791 334.092 56.6911 333.372 57.6631 333.372C58.7791 333.372 59.5111 334.26 59.5111 335.796C59.5111 337.332 58.7791 338.22 57.6631 338.22ZM61.5581 337.296C61.5581 338.484 62.5661 339.156 63.7781 339.156C64.9181 339.156 65.5901 338.772 65.9861 338.112C65.9981 338.496 66.0341 338.76 66.0701 339H67.1741C67.0541 338.388 66.9941 337.644 67.0061 336.564L67.0181 335.076C67.0301 333.264 66.2261 332.412 64.4501 332.412C63.1901 332.412 61.9661 333.192 61.8581 334.584H62.9861C63.0341 333.792 63.5621 333.3 64.4621 333.3C65.2661 333.3 65.9261 333.696 65.9261 334.872V335.028C63.2741 335.328 61.5581 335.772 61.5581 337.296ZM66.0101 335.892V336.3C66.0101 337.824 65.0381 338.292 64.0181 338.292C63.2381 338.292 62.7701 337.884 62.7701 337.272C62.7701 336.384 64.0301 336.096 66.0101 335.892ZM74.0213 334.704C73.8773 333.612 72.8813 332.436 71.3213 332.436C69.4133 332.436 68.2013 333.864 68.2013 335.784C68.2013 337.752 69.3652 339.156 71.2133 339.156C72.7133 339.156 73.8773 338.112 74.0933 336.9H72.9653C72.8093 337.584 72.1613 338.196 71.2493 338.196C70.2893 338.196 69.3893 337.416 69.3893 335.772C69.3893 334.152 70.2773 333.396 71.2493 333.396C72.0893 333.396 72.7613 333.936 72.9173 334.704H74.0213ZM75.6369 330.924V332.544H74.6169V333.42H75.6369V337.38C75.6369 338.724 75.9249 339 77.1609 339H77.9529V338.088H77.4009C76.7769 338.088 76.7289 337.92 76.7289 337.248V333.42H77.9529V332.544H76.7289V330.924H75.6369ZM79.9007 336.132H84.8687C85.0127 334.092 83.8247 332.436 81.8567 332.436C80.0927 332.436 78.7247 333.744 78.7247 335.784C78.7247 337.692 79.8527 339.156 81.8927 339.156C83.4647 339.156 84.4847 338.244 84.7847 337.128H83.6567C83.3807 337.764 82.8527 338.196 81.8927 338.196C80.9327 338.196 79.9487 337.524 79.9007 336.132ZM79.9127 335.196C80.0087 333.9 80.8847 333.372 81.8567 333.372C83.0087 333.372 83.6927 334.284 83.7167 335.196H79.9127ZM89.3573 333.684V332.52C89.2373 332.508 89.1413 332.508 89.0333 332.508C88.1933 332.532 87.5333 332.94 87.2093 333.672V332.544H86.1413V339H87.2333V335.616C87.2333 334.2 87.7373 333.636 88.7453 333.636C88.9253 333.636 89.1293 333.66 89.3573 333.684ZM91.499 330.3H90.407V331.62H91.499V330.3ZM91.499 332.544H90.407V339H91.499V332.544ZM92.8472 337.296C92.8472 338.484 93.8552 339.156 95.0672 339.156C96.2072 339.156 96.8792 338.772 97.2752 338.112C97.2872 338.496 97.3232 338.76 97.3592 339H98.4632C98.3432 338.388 98.2832 337.644 98.2952 336.564L98.3072 335.076C98.3192 333.264 97.5152 332.412 95.7392 332.412C94.4792 332.412 93.2552 333.192 93.1472 334.584H94.2752C94.3232 333.792 94.8512 333.3 95.7512 333.3C96.5552 333.3 97.2152 333.696 97.2152 334.872V335.028C94.5632 335.328 92.8472 335.772 92.8472 337.296ZM97.2992 335.892V336.3C97.2992 337.824 96.3272 338.292 95.3072 338.292C94.5272 338.292 94.0592 337.884 94.0592 337.272C94.0592 336.384 95.3192 336.096 97.2992 335.892ZM108.554 335.796C108.554 333.456 106.958 332.436 105.458 332.436C103.958 332.436 102.362 333.456 102.362 335.796C102.362 338.136 103.958 339.156 105.458 339.156C106.958 339.156 108.554 338.136 108.554 335.796ZM105.458 338.196C104.474 338.196 103.526 337.512 103.526 335.796C103.526 334.032 104.474 333.396 105.458 333.396C106.442 333.396 107.39 334.08 107.39 335.796C107.39 337.452 106.442 338.196 105.458 338.196ZM113.856 338.076V339H114.948V332.544H113.856V336.096C113.856 337.476 113.244 338.208 112.212 338.208C111.024 338.208 110.856 337.344 110.856 336.348V332.544H109.764V336.672C109.764 338.148 110.328 339.156 111.828 339.156C112.896 339.156 113.484 338.688 113.856 338.076ZM116.992 330.924V332.544H115.972V333.42H116.992V337.38C116.992 338.724 117.28 339 118.516 339H119.308V338.088H118.756C118.132 338.088 118.084 337.92 118.084 337.248V333.42H119.308V332.544H118.084V330.924H116.992ZM129.202 335.796C129.202 333.456 127.606 332.436 126.106 332.436C124.606 332.436 123.01 333.456 123.01 335.796C123.01 338.136 124.606 339.156 126.106 339.156C127.606 339.156 129.202 338.136 129.202 335.796ZM126.106 338.196C125.122 338.196 124.174 337.512 124.174 335.796C124.174 334.032 125.122 333.396 126.106 333.396C127.09 333.396 128.038 334.08 128.038 335.796C128.038 337.452 127.09 338.196 126.106 338.196ZM130.843 332.076V332.544H129.943V333.42H130.843V339H131.935V333.42H133.147V332.544H131.935V332.016C131.935 331.344 132.031 331.212 132.607 331.212H133.147V330.3H132.583C131.119 330.3 130.843 330.732 130.843 332.076ZM138.473 339H139.565V330.3H138.821C138.341 331.248 137.705 331.404 136.457 331.452V332.196H138.473V339ZM141.51 330.3V331.68H142.098L141.462 333.348H142.158L142.89 331.776V330.3H141.51ZM149.276 334.884C149.216 336.9 148.472 338.244 147.128 338.244C146.24 338.244 145.652 337.764 145.508 336.984H144.32C144.5 338.088 145.304 339.156 147.008 339.156C149.516 339.156 150.404 336.804 150.404 334.344C150.404 331.656 149.408 330.144 147.236 330.144C145.376 330.144 144.176 331.524 144.176 333.132C144.176 334.884 145.364 336.096 146.972 336.096C148.124 336.096 148.88 335.568 149.276 334.884ZM147.248 331.056C148.4 331.056 149.132 331.884 149.132 333.084C149.132 334.272 148.376 335.136 147.236 335.136C146.108 335.136 145.34 334.272 145.34 333.084C145.34 331.896 146.12 331.056 147.248 331.056ZM156.564 336.144C156.564 337.488 155.664 338.244 154.62 338.244C153.408 338.244 152.82 337.572 152.652 336.48H151.524C151.692 337.884 152.604 339.156 154.62 339.156C156.24 339.156 157.716 338.124 157.716 336.132C157.716 334.212 156.384 333.132 154.86 333.132C154.14 333.132 153.444 333.348 152.988 333.792L153.288 331.32H157.392V330.3H152.4L151.836 334.98L152.928 335.04C153.12 334.608 153.708 334.08 154.608 334.08C155.556 334.08 156.564 334.704 156.564 336.144ZM164.945 332.364C164.945 331.08 163.817 330.144 162.041 330.144C160.253 330.144 159.137 331.08 159.137 332.364C159.137 333.072 159.473 333.9 160.337 334.368C159.197 334.824 158.861 335.76 158.861 336.552C158.861 338.208 160.241 339.156 162.041 339.156C163.829 339.156 165.209 338.208 165.209 336.552C165.209 335.76 164.873 334.824 163.745 334.368C164.609 333.9 164.945 333.072 164.945 332.364ZM162.041 331.056C163.121 331.056 163.841 331.632 163.841 332.496C163.841 333.372 163.121 334.02 162.041 334.02C160.949 334.02 160.229 333.372 160.229 332.496C160.229 331.632 160.949 331.056 162.041 331.056ZM160.025 336.552C160.025 335.532 160.805 334.824 162.041 334.824C163.265 334.824 164.057 335.532 164.057 336.552C164.057 337.572 163.265 338.244 162.041 338.244C160.805 338.244 160.025 337.572 160.025 336.552ZM7.56 350.428H8.7C8.496 349.204 7.548 348.424 6.156 348.424C4.728 348.424 3.576 349.084 3.576 350.224C3.576 351.424 4.536 351.832 5.412 352.012L6.372 352.204C7.068 352.348 7.68 352.624 7.68 353.272C7.68 353.872 7.008 354.232 6.18 354.232C5.22 354.232 4.704 353.74 4.536 352.912H3.384C3.504 354.04 4.464 355.156 6.156 355.156C7.632 355.156 8.784 354.424 8.784 353.152C8.784 351.904 7.752 351.46 6.576 351.232L5.664 351.052C5.04 350.932 4.68 350.692 4.68 350.176C4.68 349.588 5.4 349.36 6.036 349.36C6.792 349.36 7.392 349.66 7.56 350.428ZM9.78469 353.296C9.78469 354.484 10.7927 355.156 12.0047 355.156C13.1447 355.156 13.8167 354.772 14.2127 354.112C14.2247 354.496 14.2607 354.76 14.2967 355H15.4007C15.2807 354.388 15.2207 353.644 15.2327 352.564L15.2447 351.076C15.2567 349.264 14.4527 348.412 12.6767 348.412C11.4167 348.412 10.1927 349.192 10.0847 350.584H11.2127C11.2607 349.792 11.7887 349.3 12.6887 349.3C13.4927 349.3 14.1527 349.696 14.1527 350.872V351.028C11.5007 351.328 9.78469 351.772 9.78469 353.296ZM14.2367 351.892V352.3C14.2367 353.824 13.2647 354.292 12.2447 354.292C11.4647 354.292 10.9967 353.884 10.9967 353.272C10.9967 352.384 12.2567 352.096 14.2367 351.892ZM17.9638 355V351.496C17.9638 350.116 18.5878 349.384 19.5238 349.384C20.7118 349.384 20.9038 350.248 20.9038 351.244V355H21.9958V351.496C21.9958 350.116 22.6198 349.384 23.5558 349.384C24.7438 349.384 24.9358 350.248 24.9358 351.244V355H26.0278V350.92C26.0278 349.444 25.4398 348.436 23.9398 348.436C23.0398 348.436 22.2838 348.784 21.7678 349.576C21.4798 348.868 20.8918 348.436 19.9078 348.436C18.9358 348.436 18.3358 348.904 17.9638 349.516V348.544H16.8718V355H17.9638ZM28.7568 348.544H27.6648V357.1H28.7568V354.028C29.1528 354.712 29.8368 355.156 30.8688 355.156C32.3448 355.156 33.6288 353.932 33.6288 351.796C33.6288 349.672 32.3448 348.436 30.8688 348.436C29.8368 348.436 29.1528 348.88 28.7568 349.564V348.544ZM30.5928 354.22C29.6208 354.22 28.7088 353.5 28.7088 351.796C28.7088 350.092 29.6208 349.372 30.5928 349.372C31.7088 349.372 32.4408 350.26 32.4408 351.796C32.4408 353.332 31.7088 354.22 30.5928 354.22ZM35.999 355V346.3H34.907V355H35.999ZM38.4632 352.132H43.4312C43.5752 350.092 42.3872 348.436 40.4192 348.436C38.6552 348.436 37.2872 349.744 37.2872 351.784C37.2872 353.692 38.4152 355.156 40.4552 355.156C42.0272 355.156 43.0472 354.244 43.3472 353.128H42.2192C41.9432 353.764 41.4152 354.196 40.4552 354.196C39.4952 354.196 38.5112 353.524 38.4632 352.132ZM38.4752 351.196C38.5712 349.9 39.4472 349.372 40.4192 349.372C41.5712 349.372 42.2552 350.284 42.2792 351.196H38.4752ZM48.4233 350.428H49.5633C49.3593 349.204 48.4113 348.424 47.0193 348.424C45.5913 348.424 44.4393 349.084 44.4393 350.224C44.4393 351.424 45.3993 351.832 46.2753 352.012L47.2353 352.204C47.9313 352.348 48.5433 352.624 48.5433 353.272C48.5433 353.872 47.8713 354.232 47.0433 354.232C46.0833 354.232 45.5673 353.74 45.3993 352.912H44.2473C44.3673 354.04 45.3273 355.156 47.0193 355.156C48.4953 355.156 49.6473 354.424 49.6473 353.152C49.6473 351.904 48.6153 351.46 47.4393 351.232L46.5273 351.052C45.9033 350.932 45.5433 350.692 45.5433 350.176C45.5433 349.588 46.2633 349.36 46.8993 349.36C47.6553 349.36 48.2553 349.66 48.4233 350.428ZM54.1916 346.924V348.544H53.1716V349.42H54.1916V353.38C54.1916 354.724 54.4796 355 55.7156 355H56.5076V354.088H55.9556C55.3316 354.088 55.2836 353.92 55.2836 353.248V349.42H56.5076V348.544H55.2836V346.924H54.1916ZM57.398 353.296C57.398 354.484 58.406 355.156 59.618 355.156C60.758 355.156 61.43 354.772 61.826 354.112C61.838 354.496 61.874 354.76 61.91 355H63.014C62.894 354.388 62.834 353.644 62.846 352.564L62.858 351.076C62.87 349.264 62.066 348.412 60.29 348.412C59.03 348.412 57.806 349.192 57.698 350.584H58.826C58.874 349.792 59.402 349.3 60.302 349.3C61.106 349.3 61.766 349.696 61.766 350.872V351.028C59.114 351.328 57.398 351.772 57.398 353.296ZM61.85 351.892V352.3C61.85 353.824 60.878 354.292 59.858 354.292C59.078 354.292 58.61 353.884 58.61 353.272C58.61 352.384 59.87 352.096 61.85 351.892ZM65.5771 346.3H64.4851V355H65.5771V352.84L66.3331 352.024L68.5291 355H69.8611L67.0651 351.22L69.5251 348.544H68.1811L65.5771 351.448V346.3ZM71.0999 352.132H76.0679C76.2119 350.092 75.0239 348.436 73.0559 348.436C71.2919 348.436 69.9239 349.744 69.9239 351.784C69.9239 353.692 71.0519 355.156 73.0919 355.156C74.6639 355.156 75.6839 354.244 75.9839 353.128H74.8559C74.5799 353.764 74.0519 354.196 73.0919 354.196C72.1319 354.196 71.1479 353.524 71.0999 352.132ZM71.1119 351.196C71.2079 349.9 72.0839 349.372 73.0559 349.372C74.2079 349.372 74.8919 350.284 74.9159 351.196H71.1119ZM78.4326 349.516V348.544H77.3406V355H78.4326V351.496C78.4326 350.116 79.0806 349.384 80.1366 349.384C81.3846 349.384 81.5526 350.248 81.5526 351.244V355H82.6446V350.92C82.6446 349.444 82.0806 348.436 80.5206 348.436C79.4286 348.436 78.8046 348.904 78.4326 349.516Z" fill="black"/>
<path d="M55.109 298.144C53.705 298.144 51.965 298.864 51.965 300.52C51.965 301.972 53.165 302.632 54.353 302.896L55.433 303.124C56.525 303.364 57.305 303.748 57.305 304.66C57.305 305.512 56.561 306.124 55.277 306.124C53.945 306.124 53.105 305.5 52.877 304.3H51.677C51.905 306.04 53.201 307.156 55.253 307.156C56.981 307.156 58.565 306.256 58.565 304.552C58.565 302.8 56.969 302.296 55.637 302.008L54.629 301.78C53.825 301.6 53.213 301.216 53.213 300.448C53.213 299.476 54.389 299.176 55.061 299.176C55.937 299.176 56.921 299.512 57.221 300.52H58.409C58.073 298.84 56.669 298.144 55.109 298.144ZM62.7365 300.544L61.4525 305.32L60.2165 300.544H59.0405L60.9005 307H61.8965L63.2765 301.804L64.7045 307H65.7005L67.5605 300.544H66.3845L65.1485 305.32L63.8645 300.544H62.7365ZM69.5732 298.3H68.4812V299.62H69.5732V298.3ZM69.5732 300.544H68.4812V307H69.5732V300.544ZM71.6174 298.924V300.544H70.5974V301.42H71.6174V305.38C71.6174 306.724 71.9054 307 73.1414 307H73.9334V306.088H73.3814C72.7574 306.088 72.7094 305.92 72.7094 305.248V301.42H73.9334V300.544H72.7094V298.924H71.6174ZM74.7397 306.052V307H79.8158V306.052H76.0238L79.7438 301.492V300.544H74.9798V301.492H78.4718L74.7397 306.052ZM81.7991 304.132H86.7671C86.9111 302.092 85.7231 300.436 83.7551 300.436C81.9911 300.436 80.6231 301.744 80.6231 303.784C80.6231 305.692 81.7511 307.156 83.7911 307.156C85.3631 307.156 86.3831 306.244 86.6831 305.128H85.5551C85.2791 305.764 84.7511 306.196 83.7911 306.196C82.8311 306.196 81.8471 305.524 81.7991 304.132ZM81.8111 303.196C81.9071 301.9 82.7831 301.372 83.7551 301.372C84.9071 301.372 85.5911 302.284 85.6151 303.196H81.8111ZM91.2558 301.684V300.52C91.1358 300.508 91.0398 300.508 90.9318 300.508C90.0918 300.532 89.4318 300.94 89.1078 301.672V300.544H88.0398V307H89.1318V303.616C89.1318 302.2 89.6358 301.636 90.6438 301.636C90.8238 301.636 91.0278 301.66 91.2558 301.684ZM93.3974 307V298.3H92.3054V307H93.3974ZM94.7456 305.296C94.7456 306.484 95.7536 307.156 96.9656 307.156C98.1056 307.156 98.7776 306.772 99.1736 306.112C99.1856 306.496 99.2216 306.76 99.2576 307H100.362C100.242 306.388 100.182 305.644 100.194 304.564L100.206 303.076C100.218 301.264 99.4136 300.412 97.6376 300.412C96.3776 300.412 95.1536 301.192 95.0456 302.584H96.1736C96.2216 301.792 96.7496 301.3 97.6496 301.3C98.4536 301.3 99.1136 301.696 99.1136 302.872V303.028C96.4616 303.328 94.7456 303.772 94.7456 305.296ZM99.1976 303.892V304.3C99.1976 305.824 98.2256 306.292 97.2056 306.292C96.4256 306.292 95.9576 305.884 95.9576 305.272C95.9576 304.384 97.2176 304.096 99.1976 303.892ZM102.925 301.516V300.544H101.833V307H102.925V303.496C102.925 302.116 103.573 301.384 104.629 301.384C105.877 301.384 106.045 302.248 106.045 303.244V307H107.137V302.92C107.137 301.444 106.573 300.436 105.013 300.436C103.921 300.436 103.297 300.904 102.925 301.516ZM113.198 298.3V301.564C112.802 300.88 112.118 300.436 111.086 300.436C109.61 300.436 108.326 301.672 108.326 303.796C108.326 305.932 109.61 307.156 111.086 307.156C112.118 307.156 112.802 306.712 113.198 306.028V307H114.29V298.3H113.198ZM111.362 301.372C112.334 301.372 113.246 302.092 113.246 303.796C113.246 305.5 112.334 306.22 111.362 306.22C110.246 306.22 109.514 305.332 109.514 303.796C109.514 302.26 110.246 301.372 111.362 301.372Z" fill="#FF3A17"/>
<rect x="0.5" y="235.5" width="189" height="9" rx="4.5" fill="url(#paint0_linear_635_549)" stroke="#FF46EC"/>
</g>
<defs>
<linearGradient id="paint0_linear_635_549" x1="183.949" y1="245" x2="0" y2="245" gradientUnits="userSpaceOnUse">
<stop stop-color="#FF46EC"/>
<stop offset="1" stop-color="white"/>
</linearGradient>
<clipPath id="clip0_635_549">
<rect width="252" height="386" fill="white"/>
</clipPath>
</defs>
</svg>
