<svg viewBox="0 0 217 64" fill="none" xmlns="http://www.w3.org/2000/svg">
<g clip-path="url(#clip0_1321_161)">
<path d="M43.228 9.3L40 18H41.248L41.92 16.116H45.916L46.6 18H47.92L44.644 9.3H43.228ZM42.292 15.072L43.9 10.536L45.532 15.072H42.292ZM49.8779 12.516V11.544H48.7859V18H49.8779V14.496C49.8779 13.116 50.5259 12.384 51.5819 12.384C52.8299 12.384 52.9979 13.248 52.9979 14.244V18H54.0899V13.92C54.0899 12.444 53.5259 11.436 51.9659 11.436C50.8739 11.436 50.2499 11.904 49.8779 12.516ZM56.0354 9.924V11.544H55.0154V12.42H56.0354V16.38C56.0354 17.724 56.3234 18 57.5594 18H58.3514V17.088H57.7994C57.1754 17.088 57.1274 16.92 57.1274 16.248V12.42H58.3514V11.544H57.1274V9.924H56.0354ZM60.8349 9.3H59.7429V10.62H60.8349V9.3ZM60.8349 11.544H59.7429V18H60.8349V11.544ZM63.6591 9.3H62.5671V18H63.6591V17.028C64.0551 17.712 64.7391 18.156 65.7711 18.156C67.2471 18.156 68.5311 16.932 68.5311 14.796C68.5311 12.672 67.2471 11.436 65.7711 11.436C64.7391 11.436 64.0551 11.88 63.6591 12.564V9.3ZM65.4951 17.22C64.5231 17.22 63.6111 16.5 63.6111 14.796C63.6111 13.092 64.5231 12.372 65.4951 12.372C66.6111 12.372 67.3431 13.26 67.3431 14.796C67.3431 16.332 66.6111 17.22 65.4951 17.22ZM70.8662 9.3H69.7742V10.62H70.8662V9.3ZM70.8662 11.544H69.7742V18H70.8662V11.544ZM78.3704 14.796C78.3704 12.456 76.7744 11.436 75.2744 11.436C73.7744 11.436 72.1784 12.456 72.1784 14.796C72.1784 17.136 73.7744 18.156 75.2744 18.156C76.7744 18.156 78.3704 17.136 78.3704 14.796ZM75.2744 17.196C74.2904 17.196 73.3424 16.512 73.3424 14.796C73.3424 13.032 74.2904 12.396 75.2744 12.396C76.2584 12.396 77.2064 13.08 77.2064 14.796C77.2064 16.452 76.2584 17.196 75.2744 17.196ZM79.9299 9.924V11.544H78.9099V12.42H79.9299V16.38C79.9299 17.724 80.2179 18 81.4539 18H82.2459V17.088H81.6939C81.0699 17.088 81.0219 16.92 81.0219 16.248V12.42H82.2459V11.544H81.0219V9.924H79.9299ZM84.7294 9.3H83.6374V10.62H84.7294V9.3ZM84.7294 11.544H83.6374V18H84.7294V11.544ZM91.8377 13.704C91.6937 12.612 90.6977 11.436 89.1377 11.436C87.2297 11.436 86.0177 12.864 86.0177 14.784C86.0177 16.752 87.1817 18.156 89.0297 18.156C90.5297 18.156 91.6937 17.112 91.9097 15.9H90.7817C90.6257 16.584 89.9777 17.196 89.0657 17.196C88.1057 17.196 87.2057 16.416 87.2057 14.772C87.2057 13.152 88.0937 12.396 89.0657 12.396C89.9057 12.396 90.5777 12.936 90.7337 13.704H91.8377ZM101.365 13.704C101.221 12.612 100.225 11.436 98.665 11.436C96.757 11.436 95.545 12.864 95.545 14.784C95.545 16.752 96.709 18.156 98.557 18.156C100.057 18.156 101.221 17.112 101.437 15.9H100.309C100.153 16.584 99.505 17.196 98.593 17.196C97.633 17.196 96.733 16.416 96.733 14.772C96.733 13.152 97.621 12.396 98.593 12.396C99.433 12.396 100.105 12.936 100.261 13.704H101.365ZM103.761 18V9.3H102.669V18H103.761ZM105.109 16.296C105.109 17.484 106.117 18.156 107.329 18.156C108.469 18.156 109.141 17.772 109.537 17.112C109.549 17.496 109.585 17.76 109.621 18H110.725C110.605 17.388 110.545 16.644 110.557 15.564L110.569 14.076C110.581 12.264 109.777 11.412 108.001 11.412C106.741 11.412 105.517 12.192 105.409 13.584H106.537C106.585 12.792 107.113 12.3 108.013 12.3C108.817 12.3 109.477 12.696 109.477 13.872V14.028C106.825 14.328 105.109 14.772 105.109 16.296ZM109.561 14.892V15.3C109.561 16.824 108.589 17.292 107.569 17.292C106.789 17.292 106.321 16.884 106.321 16.272C106.321 15.384 107.581 15.096 109.561 14.892ZM115.892 13.428H117.032C116.828 12.204 115.88 11.424 114.488 11.424C113.06 11.424 111.908 12.084 111.908 13.224C111.908 14.424 112.868 14.832 113.744 15.012L114.704 15.204C115.4 15.348 116.012 15.624 116.012 16.272C116.012 16.872 115.34 17.232 114.512 17.232C113.552 17.232 113.036 16.74 112.868 15.912H111.716C111.836 17.04 112.796 18.156 114.488 18.156C115.964 18.156 117.116 17.424 117.116 16.152C117.116 14.904 116.084 14.46 114.908 14.232L113.996 14.052C113.372 13.932 113.012 13.692 113.012 13.176C113.012 12.588 113.732 12.36 114.368 12.36C115.124 12.36 115.724 12.66 115.892 13.428ZM122.197 13.428H123.337C123.133 12.204 122.185 11.424 120.793 11.424C119.365 11.424 118.213 12.084 118.213 13.224C118.213 14.424 119.173 14.832 120.049 15.012L121.009 15.204C121.705 15.348 122.317 15.624 122.317 16.272C122.317 16.872 121.645 17.232 120.817 17.232C119.857 17.232 119.341 16.74 119.173 15.912H118.021C118.141 17.04 119.101 18.156 120.793 18.156C122.269 18.156 123.421 17.424 123.421 16.152C123.421 14.904 122.389 14.46 121.213 14.232L120.301 14.052C119.677 13.932 119.317 13.692 119.317 13.176C119.317 12.588 120.037 12.36 120.673 12.36C121.429 12.36 122.029 12.66 122.197 13.428ZM132.081 9.3V12.564C131.685 11.88 131.001 11.436 129.969 11.436C128.493 11.436 127.209 12.672 127.209 14.796C127.209 16.932 128.493 18.156 129.969 18.156C131.001 18.156 131.685 17.712 132.081 17.028V18H133.173V9.3H132.081ZM130.245 12.372C131.217 12.372 132.129 13.092 132.129 14.796C132.129 16.5 131.217 17.22 130.245 17.22C129.129 17.22 128.397 16.332 128.397 14.796C128.397 13.26 129.129 12.372 130.245 12.372ZM135.987 9.3H134.895V10.62H135.987V9.3ZM135.987 11.544H134.895V18H135.987V11.544ZM141.415 13.428H142.555C142.351 12.204 141.403 11.424 140.011 11.424C138.583 11.424 137.431 12.084 137.431 13.224C137.431 14.424 138.391 14.832 139.267 15.012L140.227 15.204C140.923 15.348 141.535 15.624 141.535 16.272C141.535 16.872 140.863 17.232 140.035 17.232C139.075 17.232 138.559 16.74 138.391 15.912H137.239C137.359 17.04 138.319 18.156 140.011 18.156C141.487 18.156 142.639 17.424 142.639 16.152C142.639 14.904 141.607 14.46 140.431 14.232L139.519 14.052C138.895 13.932 138.535 13.692 138.535 13.176C138.535 12.588 139.255 12.36 139.891 12.36C140.647 12.36 141.247 12.66 141.415 13.428ZM149.4 13.704C149.256 12.612 148.26 11.436 146.7 11.436C144.792 11.436 143.58 12.864 143.58 14.784C143.58 16.752 144.744 18.156 146.592 18.156C148.092 18.156 149.256 17.112 149.472 15.9H148.344C148.188 16.584 147.54 17.196 146.628 17.196C145.668 17.196 144.768 16.416 144.768 14.772C144.768 13.152 145.656 12.396 146.628 12.396C147.468 12.396 148.14 12.936 148.296 13.704H149.4ZM156.534 14.796C156.534 12.456 154.938 11.436 153.438 11.436C151.938 11.436 150.342 12.456 150.342 14.796C150.342 17.136 151.938 18.156 153.438 18.156C154.938 18.156 156.534 17.136 156.534 14.796ZM153.438 17.196C152.454 17.196 151.506 16.512 151.506 14.796C151.506 13.032 152.454 12.396 153.438 12.396C154.422 12.396 155.37 13.08 155.37 14.796C155.37 16.452 154.422 17.196 153.438 17.196ZM159.823 16.488L158.071 11.544H156.859L159.295 18H160.267L162.703 11.544H161.575L159.823 16.488ZM164.186 15.132H169.154C169.298 13.092 168.11 11.436 166.142 11.436C164.378 11.436 163.01 12.744 163.01 14.784C163.01 16.692 164.138 18.156 166.178 18.156C167.75 18.156 168.77 17.244 169.07 16.128H167.942C167.666 16.764 167.138 17.196 166.178 17.196C165.218 17.196 164.234 16.524 164.186 15.132ZM164.198 14.196C164.294 12.9 165.17 12.372 166.142 12.372C167.294 12.372 167.978 13.284 168.002 14.196H164.198ZM173.643 12.684V11.52C173.523 11.508 173.427 11.508 173.319 11.508C172.479 11.532 171.819 11.94 171.495 12.672V11.544H170.427V18H171.519V14.616C171.519 13.2 172.023 12.636 173.031 12.636C173.211 12.636 173.415 12.66 173.643 12.684ZM179.42 11.544H178.28L176.684 16.524L175.04 11.544H173.828L176.156 18L176.108 18.132C175.82 19.14 175.472 19.188 174.752 19.188H174.308V20.1H174.872C176.312 20.1 176.648 19.68 177.116 18.276L179.42 11.544Z" fill="black"/>
<path d="M7.5 21C3.35883 21 0 17.6412 0 13.5C0 9.35883 3.35883 6 7.5 6C11.6412 6 15 9.35883 15 13.5C15 17.6412 11.6412 21 7.5 21Z" fill="#FF46EC"/>
<path d="M43.228 37.3L40 46H41.248L41.92 44.116H45.916L46.6 46H47.92L44.644 37.3H43.228ZM42.292 43.072L43.9 38.536L45.532 43.072H42.292ZM49.8779 40.516V39.544H48.7859V46H49.8779V42.496C49.8779 41.116 50.5259 40.384 51.5819 40.384C52.8299 40.384 52.9979 41.248 52.9979 42.244V46H54.0899V41.92C54.0899 40.444 53.5259 39.436 51.9659 39.436C50.8739 39.436 50.2499 39.904 49.8779 40.516ZM56.0354 37.924V39.544H55.0154V40.42H56.0354V44.38C56.0354 45.724 56.3234 46 57.5594 46H58.3514V45.088H57.7994C57.1754 45.088 57.1274 44.92 57.1274 44.248V40.42H58.3514V39.544H57.1274V37.924H56.0354ZM60.8349 37.3H59.7429V38.62H60.8349V37.3ZM60.8349 39.544H59.7429V46H60.8349V39.544ZM63.6591 37.3H62.5671V46H63.6591V45.028C64.0551 45.712 64.7391 46.156 65.7711 46.156C67.2471 46.156 68.5311 44.932 68.5311 42.796C68.5311 40.672 67.2471 39.436 65.7711 39.436C64.7391 39.436 64.0551 39.88 63.6591 40.564V37.3ZM65.4951 45.22C64.5231 45.22 63.6111 44.5 63.6111 42.796C63.6111 41.092 64.5231 40.372 65.4951 40.372C66.6111 40.372 67.3431 41.26 67.3431 42.796C67.3431 44.332 66.6111 45.22 65.4951 45.22ZM70.8662 37.3H69.7742V38.62H70.8662V37.3ZM70.8662 39.544H69.7742V46H70.8662V39.544ZM78.3704 42.796C78.3704 40.456 76.7744 39.436 75.2744 39.436C73.7744 39.436 72.1784 40.456 72.1784 42.796C72.1784 45.136 73.7744 46.156 75.2744 46.156C76.7744 46.156 78.3704 45.136 78.3704 42.796ZM75.2744 45.196C74.2904 45.196 73.3424 44.512 73.3424 42.796C73.3424 41.032 74.2904 40.396 75.2744 40.396C76.2584 40.396 77.2064 41.08 77.2064 42.796C77.2064 44.452 76.2584 45.196 75.2744 45.196ZM79.9299 37.924V39.544H78.9099V40.42H79.9299V44.38C79.9299 45.724 80.2179 46 81.4539 46H82.2459V45.088H81.6939C81.0699 45.088 81.0219 44.92 81.0219 44.248V40.42H82.2459V39.544H81.0219V37.924H79.9299ZM84.7294 37.3H83.6374V38.62H84.7294V37.3ZM84.7294 39.544H83.6374V46H84.7294V39.544ZM91.8377 41.704C91.6937 40.612 90.6977 39.436 89.1377 39.436C87.2297 39.436 86.0177 40.864 86.0177 42.784C86.0177 44.752 87.1817 46.156 89.0297 46.156C90.5297 46.156 91.6937 45.112 91.9097 43.9H90.7817C90.6257 44.584 89.9777 45.196 89.0657 45.196C88.1057 45.196 87.2057 44.416 87.2057 42.772C87.2057 41.152 88.0937 40.396 89.0657 40.396C89.9057 40.396 90.5777 40.936 90.7337 41.704H91.8377ZM101.365 41.704C101.221 40.612 100.225 39.436 98.665 39.436C96.757 39.436 95.545 40.864 95.545 42.784C95.545 44.752 96.709 46.156 98.557 46.156C100.057 46.156 101.221 45.112 101.437 43.9H100.309C100.153 44.584 99.505 45.196 98.593 45.196C97.633 45.196 96.733 44.416 96.733 42.772C96.733 41.152 97.621 40.396 98.593 40.396C99.433 40.396 100.105 40.936 100.261 41.704H101.365ZM103.761 46V37.3H102.669V46H103.761ZM105.109 44.296C105.109 45.484 106.117 46.156 107.329 46.156C108.469 46.156 109.141 45.772 109.537 45.112C109.549 45.496 109.585 45.76 109.621 46H110.725C110.605 45.388 110.545 44.644 110.557 43.564L110.569 42.076C110.581 40.264 109.777 39.412 108.001 39.412C106.741 39.412 105.517 40.192 105.409 41.584H106.537C106.585 40.792 107.113 40.3 108.013 40.3C108.817 40.3 109.477 40.696 109.477 41.872V42.028C106.825 42.328 105.109 42.772 105.109 44.296ZM109.561 42.892V43.3C109.561 44.824 108.589 45.292 107.569 45.292C106.789 45.292 106.321 44.884 106.321 44.272C106.321 43.384 107.581 43.096 109.561 42.892ZM115.892 41.428H117.032C116.828 40.204 115.88 39.424 114.488 39.424C113.06 39.424 111.908 40.084 111.908 41.224C111.908 42.424 112.868 42.832 113.744 43.012L114.704 43.204C115.4 43.348 116.012 43.624 116.012 44.272C116.012 44.872 115.34 45.232 114.512 45.232C113.552 45.232 113.036 44.74 112.868 43.912H111.716C111.836 45.04 112.796 46.156 114.488 46.156C115.964 46.156 117.116 45.424 117.116 44.152C117.116 42.904 116.084 42.46 114.908 42.232L113.996 42.052C113.372 41.932 113.012 41.692 113.012 41.176C113.012 40.588 113.732 40.36 114.368 40.36C115.124 40.36 115.724 40.66 115.892 41.428ZM122.197 41.428H123.337C123.133 40.204 122.185 39.424 120.793 39.424C119.365 39.424 118.213 40.084 118.213 41.224C118.213 42.424 119.173 42.832 120.049 43.012L121.009 43.204C121.705 43.348 122.317 43.624 122.317 44.272C122.317 44.872 121.645 45.232 120.817 45.232C119.857 45.232 119.341 44.74 119.173 43.912H118.021C118.141 45.04 119.101 46.156 120.793 46.156C122.269 46.156 123.421 45.424 123.421 44.152C123.421 42.904 122.389 42.46 121.213 42.232L120.301 42.052C119.677 41.932 119.317 41.692 119.317 41.176C119.317 40.588 120.037 40.36 120.673 40.36C121.429 40.36 122.029 40.66 122.197 41.428ZM133.029 41.704C132.885 40.612 131.889 39.436 130.329 39.436C128.421 39.436 127.209 40.864 127.209 42.784C127.209 44.752 128.373 46.156 130.221 46.156C131.721 46.156 132.885 45.112 133.101 43.9H131.973C131.817 44.584 131.169 45.196 130.257 45.196C129.297 45.196 128.397 44.416 128.397 42.772C128.397 41.152 129.285 40.396 130.257 40.396C131.097 40.396 131.769 40.936 131.925 41.704H133.029ZM135.425 46V37.3H134.333V46H135.425ZM138.249 37.3H137.157V38.62H138.249V37.3ZM138.249 39.544H137.157V46H138.249V39.544ZM141.073 40.516V39.544H139.981V46H141.073V42.496C141.073 41.116 141.721 40.384 142.777 40.384C144.025 40.384 144.193 41.248 144.193 42.244V46H145.285V41.92C145.285 40.444 144.721 39.436 143.161 39.436C142.069 39.436 141.445 39.904 141.073 40.516ZM148.011 37.3H146.919V38.62H148.011V37.3ZM148.011 39.544H146.919V46H148.011V39.544ZM155.119 41.704C154.975 40.612 153.979 39.436 152.419 39.436C150.511 39.436 149.299 40.864 149.299 42.784C149.299 44.752 150.463 46.156 152.311 46.156C153.811 46.156 154.975 45.112 155.191 43.9H154.063C153.907 44.584 153.259 45.196 152.347 45.196C151.387 45.196 150.487 44.416 150.487 42.772C150.487 41.152 151.375 40.396 152.347 40.396C153.187 40.396 153.859 40.936 154.015 41.704H155.119ZM156.039 44.296C156.039 45.484 157.047 46.156 158.259 46.156C159.399 46.156 160.071 45.772 160.467 45.112C160.479 45.496 160.515 45.76 160.551 46H161.655C161.535 45.388 161.475 44.644 161.487 43.564L161.499 42.076C161.511 40.264 160.707 39.412 158.931 39.412C157.671 39.412 156.447 40.192 156.339 41.584H157.467C157.515 40.792 158.043 40.3 158.943 40.3C159.747 40.3 160.407 40.696 160.407 41.872V42.028C157.755 42.328 156.039 42.772 156.039 44.296ZM160.491 42.892V43.3C160.491 44.824 159.519 45.292 158.499 45.292C157.719 45.292 157.251 44.884 157.251 44.272C157.251 43.384 158.511 43.096 160.491 42.892ZM164.218 46V37.3H163.126V46H164.218ZM41.956 53.3H40.864V54.62H41.956V53.3ZM41.956 55.544H40.864V62H41.956V55.544ZM44.7802 56.516V55.544H43.6882V62H44.7802V58.496C44.7802 57.116 45.4282 56.384 46.4842 56.384C47.7322 56.384 47.9002 57.248 47.9002 58.244V62H48.9922V57.92C48.9922 56.444 48.4282 55.436 46.8682 55.436C45.7762 55.436 45.1522 55.904 44.7802 56.516ZM50.9377 53.924V55.544H49.9177V56.42H50.9377V60.38C50.9377 61.724 51.2257 62 52.4617 62H53.2537V61.088H52.7017C52.0777 61.088 52.0297 60.92 52.0297 60.248V56.42H53.2537V55.544H52.0297V53.924H50.9377ZM57.7441 56.684V55.52C57.6241 55.508 57.5281 55.508 57.4201 55.508C56.5801 55.532 55.9201 55.94 55.5961 56.672V55.544H54.5281V62H55.6201V58.616C55.6201 57.2 56.1241 56.636 57.1321 56.636C57.3121 56.636 57.5161 56.66 57.7441 56.684ZM64.4485 58.796C64.4485 56.456 62.8525 55.436 61.3525 55.436C59.8525 55.436 58.2565 56.456 58.2565 58.796C58.2565 61.136 59.8525 62.156 61.3525 62.156C62.8525 62.156 64.4485 61.136 64.4485 58.796ZM61.3525 61.196C60.3685 61.196 59.4205 60.512 59.4205 58.796C59.4205 57.032 60.3685 56.396 61.3525 56.396C62.3365 56.396 63.2845 57.08 63.2845 58.796C63.2845 60.452 62.3365 61.196 61.3525 61.196ZM70.2764 53.3V56.564C69.8804 55.88 69.1964 55.436 68.1644 55.436C66.6884 55.436 65.4044 56.672 65.4044 58.796C65.4044 60.932 66.6884 62.156 68.1644 62.156C69.1964 62.156 69.8804 61.712 70.2764 61.028V62H71.3684V53.3H70.2764ZM68.4404 56.372C69.4124 56.372 70.3244 57.092 70.3244 58.796C70.3244 60.5 69.4124 61.22 68.4404 61.22C67.3244 61.22 66.5924 60.332 66.5924 58.796C66.5924 57.26 67.3244 56.372 68.4404 56.372ZM77.0866 61.076V62H78.1786V55.544H77.0866V59.096C77.0866 60.476 76.4746 61.208 75.4426 61.208C74.2546 61.208 74.0866 60.344 74.0866 59.348V55.544H72.9946V59.672C72.9946 61.148 73.5586 62.156 75.0586 62.156C76.1266 62.156 76.7146 61.688 77.0866 61.076ZM85.2869 57.704C85.1429 56.612 84.1469 55.436 82.5869 55.436C80.6789 55.436 79.4669 56.864 79.4669 58.784C79.4669 60.752 80.6309 62.156 82.4789 62.156C83.9789 62.156 85.1429 61.112 85.3589 59.9H84.2309C84.0749 60.584 83.4269 61.196 82.5149 61.196C81.5549 61.196 80.6549 60.416 80.6549 58.772C80.6549 57.152 81.5429 56.396 82.5149 56.396C83.3549 56.396 84.0269 56.936 84.1829 57.704H85.2869ZM86.9026 53.924V55.544H85.8826V56.42H86.9026V60.38C86.9026 61.724 87.1906 62 88.4266 62H89.2186V61.088H88.6666C88.0426 61.088 87.9946 60.92 87.9946 60.248V56.42H89.2186V55.544H87.9946V53.924H86.9026ZM91.7021 53.3H90.6101V54.62H91.7021V53.3ZM91.7021 55.544H90.6101V62H91.7021V55.544ZM99.2063 58.796C99.2063 56.456 97.6103 55.436 96.1103 55.436C94.6103 55.436 93.0143 56.456 93.0143 58.796C93.0143 61.136 94.6103 62.156 96.1103 62.156C97.6103 62.156 99.2063 61.136 99.2063 58.796ZM96.1103 61.196C95.1263 61.196 94.1783 60.512 94.1783 58.796C94.1783 57.032 95.1263 56.396 96.1103 56.396C97.0943 56.396 98.0423 57.08 98.0423 58.796C98.0423 60.452 97.0943 61.196 96.1103 61.196ZM101.604 56.516V55.544H100.512V62H101.604V58.496C101.604 57.116 102.252 56.384 103.308 56.384C104.556 56.384 104.724 57.248 104.724 58.244V62H105.816V57.92C105.816 56.444 105.252 55.436 103.692 55.436C102.6 55.436 101.976 55.904 101.604 56.516Z" fill="black"/>
<path d="M7.5 51C3.35883 51 0 47.6412 0 43.5C0 39.3588 3.35883 36 7.5 36C11.6412 36 15 39.3588 15 43.5C15 47.6412 11.6412 51 7.5 51Z" fill="#FF2600"/>
</g>
<defs>
<clipPath id="clip0_1321_161">
<rect width="217" height="64" fill="white"/>
</clipPath>
</defs>
</svg>
