<svg width="213" height="82" viewBox="0 0 213 82" fill="none" xmlns="http://www.w3.org/2000/svg">
<path d="M79.5132 40.8064C83.5366 40.8064 87.614 38.7947 87.614 34.6886C87.614 30.5824 84.0319 29.2604 80.7811 28.6823L78.1642 28.214C76.5667 27.9114 75.3817 27.1389 75.3817 25.7341C75.3817 23.9422 77.4204 23.2542 79.2394 23.2542C81.0583 23.2542 83.1528 24.025 83.4554 26.368H87.2573C87.0646 22.5374 83.5366 20.1133 79.4034 20.1133C75.7114 20.1133 71.4395 21.8764 71.4395 25.8998C71.4395 29.372 74.168 31.0524 77.4187 31.6863L79.9545 32.1545C82.076 32.54 83.6465 33.1739 83.6465 34.883C83.6465 37.0316 81.415 37.6655 79.6519 37.6655C77.2818 37.6655 75.2431 36.7831 74.8019 33.8636H71C71.3584 38.1625 74.6092 40.8081 79.5149 40.8081L79.5132 40.8064ZM92.5924 45.609V38.575C93.529 40.2012 95.2921 40.8064 96.8355 40.8064C100.362 40.8064 103.31 37.7754 103.31 33.0353C103.31 28.2952 100.445 25.2929 96.8626 25.2929C94.9895 25.2929 93.3903 26.1466 92.5908 27.5243V25.2844H88.7889V45.6074H92.5908L92.5924 45.609ZM95.9261 37.8869C93.8316 37.8869 92.4538 36.068 92.4538 33.037C92.4538 30.0059 93.8316 28.214 95.9261 28.214C97.882 28.214 99.3155 30.1699 99.3155 33.064C99.3155 35.9581 97.882 37.8853 95.9261 37.8853V37.8869ZM111.402 40.8081C115.426 40.8081 117.601 38.3552 118.401 36.1508H114.487C113.717 37.4457 112.532 37.8599 111.374 37.8599C109.583 37.8599 107.819 36.6191 107.626 34.0851H118.565C118.731 28.8497 115.865 25.2946 111.291 25.2946C106.716 25.2946 103.851 28.5741 103.851 32.9829C103.851 37.3916 106.634 40.8081 111.401 40.8081H111.402ZM114.709 31.4665H107.682C107.984 28.9866 109.83 28.0771 111.264 28.0771C112.861 28.0771 114.626 28.9595 114.709 31.4665ZM124.591 40.8081C126.823 40.8081 128.393 40.1471 129.441 38.6037C129.497 39.3205 129.58 40.1505 129.69 40.6188H133.189C132.914 39.3779 132.748 37.8869 132.748 35.5456C132.748 35.1568 132.753 34.7173 132.76 34.2778V34.1223C132.763 34.0969 132.763 34.0699 132.763 34.0445L132.767 33.8907C132.784 32.9423 132.804 32.0633 132.804 31.7708C132.804 26.7552 129.938 25.2405 126.41 25.2405C122.609 25.2405 120.183 27.3891 119.907 30.3102H123.462C123.545 28.684 124.757 27.9131 126.218 27.9131C127.761 27.9131 129 28.7127 129 30.9999V31.2484C123.187 31.9094 119.246 32.9575 119.246 36.4568C119.246 39.1565 121.753 40.8098 124.591 40.8098V40.8081ZM125.721 38.2183C124.012 38.2183 123.158 37.3359 123.158 36.2624C123.158 34.6091 124.867 34.1138 129.11 33.6726V34.7748C129.11 36.9234 128.091 38.22 125.721 38.22V38.2183ZM138.607 40.4497V32.6786C138.607 29.8961 139.846 29.2064 141.721 29.2064C142.272 29.2064 144.262 29.2334 144.813 29.2892V25.7071C144.564 25.68 142.713 25.6513 142.465 25.6513C140.756 25.6513 139.407 26.3951 138.551 28.214V25.6242H134.804V40.448H138.606L138.607 40.4497ZM147.885 40.6188V32.7344C147.885 30.3914 148.436 28.3527 150.943 28.3527C153.091 28.3527 153.505 30.0059 153.505 31.9348V40.6188H157.307V31.1081C157.307 27.4702 155.737 25.2946 152.182 25.2946C150.363 25.2946 148.737 26.0942 147.883 27.5818V20.3043H144.081V40.6204H147.883L147.885 40.6188ZM165.924 40.8081C169.947 40.8081 172.124 38.3552 172.922 36.1508H169.009C168.238 37.4457 167.053 37.8599 165.895 37.8599C164.103 37.8599 162.34 36.6191 162.147 34.0851H173.086C173.252 28.8497 170.386 25.2946 165.812 25.2946C161.238 25.2946 158.372 28.5741 158.372 32.9829C158.372 37.3916 161.155 40.8081 165.922 40.8081H165.924ZM169.23 31.4665H162.203C162.505 28.9866 164.351 28.0771 165.785 28.0771C167.382 28.0771 169.147 28.9595 169.23 31.4665ZM179.113 40.8081C181.344 40.8081 182.915 40.1471 183.963 38.6037C184.018 39.3205 184.1 40.1505 184.211 40.6188H187.71C187.435 39.3779 187.269 37.8869 187.269 35.5456C187.269 35.1568 187.274 34.7173 187.281 34.2778V34.1223C187.3 33.0894 187.325 32.0886 187.325 31.7708C187.325 26.7552 184.46 25.2405 180.932 25.2405C177.13 25.2405 174.704 27.3891 174.428 30.3102H177.983C178.066 28.684 179.278 27.9131 180.739 27.9131C182.282 27.9131 183.521 28.7127 183.521 30.9999V31.2484C177.708 31.9094 173.767 32.9575 173.767 36.4568C173.767 39.1565 176.274 40.8098 179.113 40.8098V40.8081ZM180.242 38.2183C178.533 38.2183 177.679 37.3359 177.679 36.2624C177.679 34.6091 179.388 34.1138 183.631 33.6726V34.7748C183.631 36.9234 182.612 38.22 180.242 38.22V38.2183ZM194.809 40.8081C196.352 40.8081 198.142 40.2012 199.081 38.5767V40.6188H202.882V20.3026H199.081V27.526C198.281 26.1483 196.684 25.2946 194.809 25.2946C191.227 25.2946 188.361 28.3814 188.361 33.037C188.361 37.6925 191.282 40.8081 194.809 40.8081ZM195.745 37.8869C193.789 37.8869 192.356 35.9581 192.356 33.0657C192.356 30.1733 193.789 28.2157 195.745 28.2157C197.84 28.2157 199.218 30.0617 199.218 33.0387C199.218 36.0156 197.84 37.8886 195.745 37.8886V37.8869Z" fill="black"/>
<path d="M71.9516 60.8564V50.6831H71.0117V60.8564H71.9516ZM74.5178 60.8564V56.6606C74.5178 55.0614 75.4999 53.966 76.805 53.966C78.3349 53.966 78.7 54.9194 78.7 56.3377V60.8564H79.5706V56.0994C79.5706 54.2466 78.8133 53.1816 77.0315 53.1816C75.6284 53.1816 74.8846 53.8696 74.5195 54.5847V53.3084H73.6489V60.8564H74.5195H74.5178ZM81.7564 60.8564V56.6606C81.7564 55.0614 82.7386 53.966 84.0436 53.966C85.5735 53.966 85.9369 54.9194 85.9369 56.3377V60.8564H86.8075V56.0994C86.8075 54.2466 86.0502 53.1816 84.2684 53.1816C82.8653 53.1816 82.1215 53.8696 81.7564 54.5847V53.3084H80.8858V60.8564H81.7564ZM90.9458 61.0389C92.7563 61.0389 94.369 59.8607 94.369 57.1103C94.369 54.3599 92.7563 53.1816 90.9458 53.1816C89.1353 53.1816 87.5361 54.3599 87.5361 57.1103C87.5361 59.8607 89.1353 61.0389 90.9458 61.0389ZM90.9458 60.2393C89.5005 60.2393 88.4625 59.2707 88.4625 57.1103C88.4625 54.9498 89.5005 53.9812 90.9458 53.9812C92.3912 53.9812 93.4426 54.9498 93.4426 57.1103C93.4426 59.2707 92.3912 60.2393 90.9458 60.2393ZM97.9748 60.8564L100.781 53.3084H99.8411L97.5674 59.651L95.2244 53.3084H94.2422L97.133 60.8564H97.9748ZM103.109 61.0389C104.512 61.0389 105.452 60.5064 105.944 59.7051L105.986 60.8564H106.87C106.828 60.0432 106.786 59.2994 106.786 58.4424C106.786 57.8389 106.799 57.1508 106.799 56.1129C106.799 53.8679 105.634 53.1376 103.881 53.1376C102.128 53.1376 100.991 54.1198 100.795 55.6074H101.706C101.777 54.6253 102.548 53.9102 103.824 53.9102C104.918 53.9102 105.929 54.2889 105.929 56.0013V56.2684C102.294 56.6335 100.61 57.2641 100.61 58.9765C100.61 60.2258 101.704 61.0389 103.107 61.0389H103.109ZM103.305 60.2664C102.309 60.2664 101.579 59.7609 101.579 58.9613C101.579 57.7831 102.897 57.3757 105.971 57.0393V57.4044C105.971 59.5513 104.708 60.2664 103.305 60.2664ZM110.782 60.8564V60.0703H110.332C109.338 60.0703 109.294 59.8793 109.294 58.9377V54.064H110.782V53.3067H109.294V51.6094H108.41V53.3067H107.161V54.064H108.41V59.0594C108.41 60.5284 108.711 60.8479 110.014 60.8547H110.782V60.8564ZM112.591 52.0726V50.6831H111.72V52.0726H112.591ZM112.591 60.8564V53.3084H111.72V60.8564H112.591ZM115.003 60.8564V56.6606C115.003 55.0614 115.985 53.966 117.29 53.966C118.82 53.966 119.185 54.9194 119.185 56.3377V60.8564H120.056V56.0994C120.056 54.2466 119.298 53.1816 117.517 53.1816C116.114 53.1816 115.37 53.8696 115.005 54.5847V53.3084H114.134V60.8564H115.005H115.003ZM124.108 63.4935C125.903 63.4935 127.306 62.6094 127.306 60.5893V53.3067H126.422V54.6117C125.903 53.7006 124.99 53.1799 123.868 53.1799C122.142 53.1799 120.725 54.6117 120.725 56.9547C120.725 59.2977 122.142 60.7296 123.868 60.7296C124.99 60.7296 125.901 60.2241 126.422 59.313V60.6873C126.422 62.0904 125.552 62.7362 124.135 62.7362C122.859 62.7362 122.199 62.0769 122.101 61.2773H121.188C121.329 62.6381 122.549 63.4935 124.106 63.4935H124.108ZM124.052 59.957C122.649 59.957 121.667 58.821 121.667 56.9547C121.667 55.0885 122.649 53.966 124.052 53.966C125.203 53.966 126.493 54.8771 126.493 56.9547C126.493 59.0323 125.202 59.957 124.052 59.957ZM133.522 61.0372C134.925 61.0372 135.865 60.5047 136.357 59.7034L136.399 60.8547H137.283C137.241 60.0415 137.199 59.2977 137.199 58.4407C137.199 57.8372 137.212 57.1491 137.212 56.1112C137.212 53.8662 136.048 53.1359 134.295 53.1359C132.542 53.1359 131.404 54.1181 131.208 55.6057H132.121C132.19 54.6236 132.963 53.9085 134.239 53.9085C135.333 53.9085 136.344 54.2872 136.344 55.9996V56.2667C132.709 56.6319 131.025 57.2624 131.025 58.9749C131.025 60.2241 132.119 61.0372 133.522 61.0372ZM133.718 60.2647C132.723 60.2647 131.992 59.7592 131.992 58.9596C131.992 57.7814 133.311 57.374 136.384 57.0376V57.4027C136.384 59.5496 135.121 60.2647 133.718 60.2647ZM141.21 63.4918C143.006 63.4918 144.409 62.6077 144.409 60.5876V53.305H143.525V54.61C143.006 53.6989 142.093 53.1782 140.97 53.1782C139.244 53.1782 137.828 54.61 137.828 56.953C137.828 59.296 139.244 60.7279 140.97 60.7279C142.093 60.7279 143.004 60.2224 143.525 59.3113V60.6856C143.525 62.0887 142.654 62.7345 141.237 62.7345C139.961 62.7345 139.302 62.0752 139.204 61.2756H138.291C138.431 62.6364 139.652 63.4918 141.209 63.4918H141.21ZM141.155 59.9553C139.752 59.9553 138.769 58.8193 138.769 56.953C138.769 55.0868 139.752 53.9643 141.155 53.9643C142.306 53.9643 143.596 54.8755 143.596 56.953C143.596 59.0306 142.304 59.9553 141.155 59.9553ZM147.861 61.0355C149.264 61.0355 150.204 60.503 150.696 59.7018L150.738 60.853H151.622C151.58 60.0399 151.538 59.296 151.538 58.439C151.538 57.8355 151.551 57.1475 151.551 56.1095C151.551 53.8645 150.386 53.1343 148.633 53.1343C146.88 53.1343 145.743 54.1164 145.546 55.604H146.458C146.529 54.6219 147.3 53.9068 148.576 53.9068C149.67 53.9068 150.68 54.2855 150.68 55.9979V56.265C147.046 56.6302 145.362 57.2607 145.362 58.9732C145.362 60.2224 146.456 61.0355 147.859 61.0355H147.861ZM148.057 60.263C147.061 60.263 146.331 59.7575 146.331 58.9579C146.331 57.7797 147.649 57.3723 150.723 57.0359V57.401C150.723 59.5479 149.46 60.263 148.057 60.263ZM153.683 52.0693V50.6797H152.812V52.0693H153.683ZM153.683 60.853V53.305H152.812V60.853H153.683ZM156.095 60.853V56.6572C156.095 55.058 157.077 53.9626 158.382 53.9626C159.912 53.9626 160.277 54.916 160.277 56.3343V60.853H161.148V56.096C161.148 54.2432 160.391 53.1782 158.609 53.1782C157.206 53.1782 156.462 53.8662 156.097 54.5813V53.305H155.226V60.853H156.097H156.095ZM165.075 61.0355C166.716 61.0355 168.077 60.236 168.077 58.7348C168.077 57.2337 166.703 56.882 165.467 56.6589L164.4 56.4628C163.572 56.309 162.984 55.9151 162.984 55.1713C162.984 54.2584 164.077 53.9372 164.906 53.9372C165.973 53.9372 166.801 54.4697 166.982 55.3691H167.895C167.712 54.1621 166.603 53.1664 164.99 53.1664C163.293 53.1664 162.1 54.0505 162.1 55.2423C162.1 56.4341 163.053 57.0528 164.149 57.2624L165.327 57.4872C166.351 57.6833 167.193 57.9927 167.193 58.8768C167.193 59.8877 166.057 60.2664 165.144 60.2664C163.979 60.2664 163.026 59.7339 162.857 58.5404H161.944C162.169 60.2664 163.516 61.0372 165.073 61.0372L165.075 61.0355ZM171.935 60.853V60.0669H171.485C170.506 60.0669 170.449 59.8826 170.447 58.9799V54.0623H171.935V53.305H170.447V51.6078H169.563V53.305H168.314V54.0623H169.563V59.0577C169.563 60.5267 169.864 60.8462 171.167 60.853H171.935ZM175.595 60.853L176.548 58.2987H181.388L182.357 60.853H183.381L179.508 50.6797H178.441L174.582 60.853H175.593H175.595ZM181.053 57.4298H176.873L178.949 51.8461L181.053 57.4298ZM184.967 60.853V51.579L188.419 60.853H189.372L192.824 51.579V60.853H193.764V50.6797H192.263L188.909 59.7863L185.541 50.6797H184.027V60.853H184.967ZM196.555 60.853V56.3631H198.604C198.898 56.3631 199.194 56.3631 199.459 56.3343L201.858 60.853H202.909L200.44 56.2228C201.856 55.9421 202.756 55.1848 202.756 53.4724C202.756 51.1006 201.03 50.6797 198.602 50.6797H195.613V60.853H196.553H196.555ZM198.783 55.5077H196.555V51.5368H198.729C200.399 51.5368 201.773 51.7058 201.773 53.5011C201.773 55.2964 200.428 55.5026 198.783 55.5077Z" fill="black"/>
<path fill-rule="evenodd" clip-rule="evenodd" d="M53.5448 18.216C53.5448 18.921 52.9734 19.4906 52.2685 19.4906C51.5636 19.4906 50.9922 18.9193 50.9922 18.216C50.9922 17.5128 51.5636 16.9414 52.2685 16.9414C52.9734 16.9414 53.5448 17.5128 53.5448 18.216Z" fill="#3D13CB"/>
<path fill-rule="evenodd" clip-rule="evenodd" d="M50.8204 14.1368C50.8204 14.9347 50.1729 15.5821 49.375 15.5821C48.5771 15.5821 47.9297 14.9347 47.9297 14.1368C47.9297 13.3389 48.5771 12.6914 49.375 12.6914C50.1729 12.6914 50.8204 13.3389 50.8204 14.1368Z" fill="#00EAE6"/>
<path fill-rule="evenodd" clip-rule="evenodd" d="M8.47688 53.2345C8.47688 53.6572 8.13372 54.0003 7.7111 54.0003C7.28848 54.0003 6.94531 53.6572 6.94531 53.2345C6.94531 52.8119 7.28848 52.4688 7.7111 52.4688C8.13372 52.4688 8.47688 52.8119 8.47688 53.2345Z" fill="#471CDA"/>
<path fill-rule="evenodd" clip-rule="evenodd" d="M8.47688 53.2345C8.47688 53.6572 8.13372 54.0003 7.7111 54.0003C7.28848 54.0003 6.94531 53.6572 6.94531 53.2345C6.94531 52.8119 7.28848 52.4688 7.7111 52.4688C8.13372 52.4688 8.47688 52.8119 8.47688 53.2345Z" fill="#2E1CDA"/>
<path fill-rule="evenodd" clip-rule="evenodd" d="M55.074 18.4686C55.074 18.8439 54.7697 19.1482 54.3944 19.1482C54.0191 19.1482 53.7148 18.8439 53.7148 18.4686C53.7148 18.0933 54.0191 17.7891 54.3944 17.7891C54.7697 17.7891 55.074 18.0933 55.074 18.4686Z" fill="#EFEFEF"/>
<path fill-rule="evenodd" clip-rule="evenodd" d="M47.9298 17.0274C47.9298 17.8253 47.2823 18.4727 46.4844 18.4727C45.6865 18.4727 45.0391 17.8253 45.0391 17.0274C45.0391 16.2295 45.6865 15.582 46.4844 15.582C47.2823 15.582 47.9298 16.2295 47.9298 17.0274Z" fill="#3D13CB"/>
<path fill-rule="evenodd" clip-rule="evenodd" d="M46.0617 14.7303C46.0617 17.0767 44.1582 18.9802 41.8101 18.9802C39.4621 18.9802 37.5586 17.0767 37.5586 14.7303C37.5586 12.3839 39.4621 10.4805 41.8101 10.4805C44.1582 10.4805 46.0617 12.3839 46.0617 14.7303Z" fill="#00EAE6"/>
<path fill-rule="evenodd" clip-rule="evenodd" d="M50.9952 19.8358C50.9952 20.3987 50.5388 20.8551 49.9742 20.8551C49.4095 20.8551 48.9531 20.3987 48.9531 19.8358C48.9531 19.2728 49.4095 18.8164 49.9742 18.8164C50.5388 18.8164 50.9952 19.2728 50.9952 19.8358Z" fill="#EFEFEF"/>
<path fill-rule="evenodd" clip-rule="evenodd" d="M52.0142 14.8176C52.0142 15.3332 51.595 15.7525 51.0794 15.7525C50.5638 15.7525 50.1445 15.3332 50.1445 14.8176C50.1445 14.3021 50.5638 13.8828 51.0794 13.8828C51.595 13.8828 52.0142 14.3021 52.0142 14.8176Z" fill="#471CDA"/>
<path fill-rule="evenodd" clip-rule="evenodd" d="M52.0142 14.8176C52.0142 15.3332 51.595 15.7525 51.0794 15.7525C50.5638 15.7525 50.1445 15.3332 50.1445 14.8176C50.1445 14.3021 50.5638 13.8828 51.0794 13.8828C51.595 13.8828 52.0142 14.3021 52.0142 14.8176Z" fill="#2E1CDA"/>
<path fill-rule="evenodd" clip-rule="evenodd" d="M39.5992 19.8308C39.5992 20.1131 39.371 20.3414 39.0886 20.3414C38.8063 20.3414 38.5781 20.1131 38.5781 19.8308C38.5781 19.5485 38.8063 19.3203 39.0886 19.3203C39.371 19.3203 39.5992 19.5485 39.5992 19.8308Z" fill="#3D13CB"/>
<path fill-rule="evenodd" clip-rule="evenodd" d="M40.2759 15.6653C40.2759 16.1809 39.8567 16.6001 39.3411 16.6001C38.8255 16.6001 38.4062 16.1809 38.4062 15.6653C38.4062 15.1497 38.8255 14.7305 39.3411 14.7305C39.8567 14.7305 40.2759 15.1497 40.2759 15.6653Z" fill="#00EAE6"/>
<path fill-rule="evenodd" clip-rule="evenodd" d="M42.6581 22.4699C42.6581 23.1749 42.0867 23.7445 41.3818 23.7445C40.6769 23.7445 40.1055 23.1732 40.1055 22.4699C40.1055 21.7667 40.6769 21.1953 41.3818 21.1953C42.0867 21.1953 42.6581 21.7667 42.6581 22.4699Z" fill="#EFEFEF"/>
<path fill-rule="evenodd" clip-rule="evenodd" d="M43.3399 19.4063C43.3399 20.2042 42.6925 20.8517 41.8946 20.8517C41.0967 20.8517 40.4492 20.2042 40.4492 19.4063C40.4492 18.6084 41.0967 17.9609 41.8946 17.9609C42.6925 17.9609 43.3399 18.6084 43.3399 19.4063Z" fill="#471CDA"/>
<path fill-rule="evenodd" clip-rule="evenodd" d="M43.3399 19.4063C43.3399 20.2042 42.6925 20.8517 41.8946 20.8517C41.0967 20.8517 40.4492 20.2042 40.4492 19.4063C40.4492 18.6084 41.0967 17.9609 41.8946 17.9609C42.6925 17.9609 43.3399 18.6084 43.3399 19.4063Z" fill="#2E1CDA"/>
<path fill-rule="evenodd" clip-rule="evenodd" d="M50.6536 22.3815C50.6536 23.0391 50.1211 23.5716 49.4635 23.5716C48.8059 23.5716 48.2734 23.0391 48.2734 22.3815C48.2734 21.7239 48.8059 21.1914 49.4635 21.1914C50.1211 21.1914 50.6536 21.7239 50.6536 22.3815Z" fill="#3D13CB"/>
<path fill-rule="evenodd" clip-rule="evenodd" d="M47.2493 22.4687C47.2493 23.6419 46.2976 24.5936 45.1227 24.5936C43.9478 24.5936 42.9961 23.6419 42.9961 22.4687C42.9961 21.2955 43.9478 20.3438 45.1227 20.3438C46.2976 20.3438 47.2493 21.2955 47.2493 22.4687Z" fill="#00EAE6"/>
<path fill-rule="evenodd" clip-rule="evenodd" d="M49.2919 24.0834C49.2919 25.0216 48.5311 25.7841 47.5912 25.7841C46.6513 25.7841 45.8906 25.0233 45.8906 24.0834C45.8906 23.1435 46.6513 22.3828 47.5912 22.3828C48.5311 22.3828 49.2919 23.1435 49.2919 24.0834Z" fill="#EFEFEF"/>
<path fill-rule="evenodd" clip-rule="evenodd" d="M52.8612 19.7473C52.8612 20.4522 52.2898 21.0219 51.5849 21.0219C50.88 21.0219 50.3086 20.4505 50.3086 19.7473C50.3086 19.044 50.88 18.4727 51.5849 18.4727C52.2898 18.4727 52.8612 19.044 52.8612 19.7473Z" fill="#471CDA"/>
<path fill-rule="evenodd" clip-rule="evenodd" d="M52.8612 19.7473C52.8612 20.4522 52.2898 21.0219 51.5849 21.0219C50.88 21.0219 50.3086 20.4505 50.3086 19.7473C50.3086 19.044 50.88 18.4727 51.5849 18.4727C52.2898 18.4727 52.8612 19.044 52.8612 19.7473Z" fill="#2E1CDA"/>
<path fill-rule="evenodd" clip-rule="evenodd" d="M28.5417 30.4544C28.5417 30.7824 28.2746 31.0495 27.9466 31.0495C27.6187 31.0495 27.3516 30.7824 27.3516 30.4544C27.3516 30.1265 27.6187 29.8594 27.9466 29.8594C28.2746 29.8594 28.5417 30.1265 28.5417 30.4544Z" fill="#3D13CB"/>
<path fill-rule="evenodd" clip-rule="evenodd" d="M36.1952 22.3828C36.1952 22.5704 36.0431 22.7225 35.8554 22.7225C35.6678 22.7225 35.5156 22.5704 35.5156 22.3828C35.5156 22.1951 35.6678 22.043 35.8554 22.043C36.0431 22.043 36.1952 22.1951 36.1952 22.3828Z" fill="#00EAE6"/>
<path fill-rule="evenodd" clip-rule="evenodd" d="M27.5209 29.1823C27.5209 29.6523 27.1406 30.0326 26.6706 30.0326C26.2007 30.0326 25.8203 29.6523 25.8203 29.1823C25.8203 28.7124 26.2007 28.332 26.6706 28.332C27.1406 28.332 27.5209 28.7124 27.5209 29.1823Z" fill="#EFEFEF"/>
<path fill-rule="evenodd" clip-rule="evenodd" d="M39.9378 21.9611C39.9378 22.3837 39.5947 22.7269 39.172 22.7269C38.7494 22.7269 38.4062 22.3837 38.4062 21.9611C38.4062 21.5385 38.7494 21.1953 39.172 21.1953C39.5947 21.1953 39.9378 21.5385 39.9378 21.9611Z" fill="#471CDA"/>
<path fill-rule="evenodd" clip-rule="evenodd" d="M39.9378 21.9611C39.9378 22.3837 39.5947 22.7269 39.172 22.7269C38.7494 22.7269 38.4062 22.3837 38.4062 21.9611C38.4062 21.5385 38.7494 21.1953 39.172 21.1953C39.5947 21.1953 39.9378 21.5385 39.9378 21.9611Z" fill="#2E1CDA"/>
<path fill-rule="evenodd" clip-rule="evenodd" d="M33.6446 14.8165C33.6446 15.6144 32.9972 16.2618 32.1993 16.2618C31.4014 16.2618 30.7539 15.6144 30.7539 14.8165C30.7539 14.0185 31.4014 13.3711 32.1993 13.3711C32.9972 13.3711 33.6446 14.0185 33.6446 14.8165Z" fill="#3D13CB"/>
<path fill-rule="evenodd" clip-rule="evenodd" d="M29.3958 24.4245C29.3958 25.0821 28.8633 25.6146 28.2057 25.6146C27.5481 25.6146 27.0156 25.0821 27.0156 24.4245C27.0156 23.7669 27.5481 23.2344 28.2057 23.2344C28.8633 23.2344 29.3958 23.7669 29.3958 24.4245Z" fill="#00EAE6"/>
<path fill-rule="evenodd" clip-rule="evenodd" d="M37.5575 17.6225C37.5575 18.5607 36.7968 19.3231 35.8569 19.3231C34.917 19.3231 34.1562 18.5624 34.1562 17.6225C34.1562 16.6826 34.917 15.9219 35.8569 15.9219C36.7968 15.9219 37.5575 16.6826 37.5575 17.6225Z" fill="#EFEFEF"/>
<path fill-rule="evenodd" clip-rule="evenodd" d="M43.8479 12.6056C43.8479 13.2158 43.3526 13.7111 42.7423 13.7111C42.132 13.7111 41.6367 13.2158 41.6367 12.6056C41.6367 11.9953 42.132 11.5 42.7423 11.5C43.3526 11.5 43.8479 11.9953 43.8479 12.6056Z" fill="#471CDA"/>
<path fill-rule="evenodd" clip-rule="evenodd" d="M43.8479 12.6056C43.8479 13.2158 43.3526 13.7111 42.7423 13.7111C42.132 13.7111 41.6367 13.2158 41.6367 12.6056C41.6367 11.9953 42.132 11.5 42.7423 11.5C43.3526 11.5 43.8479 11.9953 43.8479 12.6056Z" fill="#2E1CDA"/>
<path fill-rule="evenodd" clip-rule="evenodd" d="M31.6033 22.6378C31.6033 23.5304 30.8798 24.2522 29.9872 24.2522C29.0946 24.2522 28.3711 23.5287 28.3711 22.6378C28.3711 21.747 29.0946 21.0234 29.9872 21.0234C30.8798 21.0234 31.6033 21.747 31.6033 22.6378Z" fill="#3D13CB"/>
<path fill-rule="evenodd" clip-rule="evenodd" d="M29.7359 19.1511C29.7359 19.4335 29.5077 19.6617 29.2254 19.6617C28.9431 19.6617 28.7148 19.4335 28.7148 19.1511C28.7148 18.8688 28.9431 18.6406 29.2254 18.6406C29.5077 18.6406 29.7359 18.8688 29.7359 19.1511Z" fill="#00EAE6"/>
<path fill-rule="evenodd" clip-rule="evenodd" d="M27.5208 25.9518C27.5208 26.6094 26.9883 27.1419 26.3307 27.1419C25.6731 27.1419 25.1406 26.6094 25.1406 25.9518C25.1406 25.2942 25.6731 24.7617 26.3307 24.7617C26.9883 24.7617 27.5208 25.2942 27.5208 25.9518Z" fill="#EFEFEF"/>
<path fill-rule="evenodd" clip-rule="evenodd" d="M35.8559 21.3579C35.8559 22.5784 34.8653 23.5673 33.6447 23.5673C32.4242 23.5673 31.4336 22.5784 31.4336 21.3579C31.4336 20.1374 32.4242 19.1484 33.6447 19.1484C34.8653 19.1484 35.8559 20.1374 35.8559 21.3579Z" fill="#471CDA"/>
<path fill-rule="evenodd" clip-rule="evenodd" d="M35.8559 21.3579C35.8559 22.5784 34.8653 23.5673 33.6447 23.5673C32.4242 23.5673 31.4336 22.5784 31.4336 21.3579C31.4336 20.1374 32.4242 19.1484 33.6447 19.1484C34.8653 19.1484 35.8559 20.1374 35.8559 21.3579Z" fill="#2E1CDA"/>
<path fill-rule="evenodd" clip-rule="evenodd" d="M27.6931 26.462C27.6931 28.3402 26.17 29.8616 24.2919 29.8616C22.4137 29.8616 20.8906 28.3402 20.8906 26.462C20.8906 24.5839 22.4137 23.0625 24.2919 23.0625C26.17 23.0625 27.6931 24.5839 27.6931 26.462Z" fill="#3D13CB"/>
<path fill-rule="evenodd" clip-rule="evenodd" d="M51.334 42.5247C51.334 44.8254 49.4678 46.69 47.167 46.69C44.8663 46.69 43 44.8254 43 42.5247C43 40.224 44.8663 38.3594 47.167 38.3594C49.4678 38.3594 51.334 40.224 51.334 42.5247Z" fill="#3D13CB"/>
<path fill-rule="evenodd" clip-rule="evenodd" d="M26.3306 23.9973C26.3306 24.5129 25.9114 24.9322 25.3958 24.9322C24.8802 24.9322 24.4609 24.5129 24.4609 23.9973C24.4609 23.4817 24.8802 23.0625 25.3958 23.0625C25.9114 23.0625 26.3306 23.4817 26.3306 23.9973Z" fill="#00EAE6"/>
<path fill-rule="evenodd" clip-rule="evenodd" d="M28.7122 21.7018C28.7122 22.3594 28.1797 22.8919 27.5221 22.8919C26.8645 22.8919 26.332 22.3594 26.332 21.7018C26.332 21.0442 26.8645 20.5117 27.5221 20.5117C28.1797 20.5117 28.7122 21.0442 28.7122 21.7018Z" fill="#EFEFEF"/>
<path fill-rule="evenodd" clip-rule="evenodd" d="M41.4704 14.8175C41.4704 15.8977 40.5947 16.7717 39.5145 16.7717C38.4343 16.7717 37.5586 15.896 37.5586 14.8175C37.5586 13.7389 38.4343 12.8633 39.5145 12.8633C40.5947 12.8633 41.4704 13.7389 41.4704 14.8175Z" fill="#EFEFEF"/>
<path fill-rule="evenodd" clip-rule="evenodd" d="M45.5486 43.0363C45.5486 43.9289 44.8251 44.6507 43.9325 44.6507C43.0399 44.6507 42.3164 43.9272 42.3164 43.0363C42.3164 42.1454 43.0399 41.4219 43.9325 41.4219C44.8251 41.4219 45.5486 42.1454 45.5486 43.0363Z" fill="#3D13CB"/>
<path fill-rule="evenodd" clip-rule="evenodd" d="M34.3248 20.0885C34.3248 21.9192 32.8406 23.4035 31.0081 23.4035C29.1756 23.4035 27.6914 21.9192 27.6914 20.0885C27.6914 18.2577 29.1756 16.7734 31.0081 16.7734C32.8406 16.7734 34.3248 18.2577 34.3248 20.0885Z" fill="#00EAE6"/>
<path fill-rule="evenodd" clip-rule="evenodd" d="M22.0781 21.6172C22.0781 22.6027 21.2785 23.4023 20.293 23.4023C19.3074 23.4023 18.5078 22.6027 18.5078 21.6172C18.5078 20.6316 19.3074 19.832 20.293 19.832C21.2785 19.832 22.0781 20.6316 22.0781 21.6172Z" fill="#EFEFEF"/>
<path fill-rule="evenodd" clip-rule="evenodd" d="M29.0502 20.3398C29.0502 22.3109 27.451 23.9101 25.4782 23.9101C23.5054 23.9101 21.9062 22.3126 21.9062 20.3398C21.9062 18.367 23.5054 16.7695 25.4782 16.7695C27.451 16.7695 29.0502 18.367 29.0502 20.3398Z" fill="#471CDA"/>
<path fill-rule="evenodd" clip-rule="evenodd" d="M29.0502 20.3398C29.0502 22.3109 27.451 23.9101 25.4782 23.9101C23.5054 23.9101 21.9062 22.3126 21.9062 20.3398C21.9062 18.367 23.5054 16.7695 25.4782 16.7695C27.451 16.7695 29.0502 18.367 29.0502 20.3398Z" fill="#2E1CDA"/>
<path fill-rule="evenodd" clip-rule="evenodd" d="M20.2089 24.677C20.2089 25.3819 19.6375 25.9516 18.9326 25.9516C18.2276 25.9516 17.6562 25.3802 17.6562 24.677C17.6562 23.9737 18.2276 23.4023 18.9326 23.4023C19.6375 23.4023 20.2089 23.9737 20.2089 24.677Z" fill="#3D13CB"/>
<path fill-rule="evenodd" clip-rule="evenodd" d="M20.8898 17.9608C20.8898 18.5237 20.4333 18.9801 19.8687 18.9801C19.3041 18.9801 18.8477 18.5237 18.8477 17.9608C18.8477 17.3978 19.3041 16.9414 19.8687 16.9414C20.4333 16.9414 20.8898 17.3978 20.8898 17.9608Z" fill="#00EAE6"/>
<path fill-rule="evenodd" clip-rule="evenodd" d="M23.7786 27.4831C23.7786 28.1407 23.2461 28.6732 22.5885 28.6732C21.9309 28.6732 21.3984 28.1407 21.3984 27.4831C21.3984 26.8255 21.9309 26.293 22.5885 26.293C23.2461 26.293 23.7786 26.8255 23.7786 27.4831Z" fill="#EFEFEF"/>
<path fill-rule="evenodd" clip-rule="evenodd" d="M24.6314 22.47C24.6314 22.9856 24.2121 23.4048 23.6966 23.4048C23.181 23.4048 22.7617 22.9856 22.7617 22.47C22.7617 21.9544 23.181 21.5352 23.6966 21.5352C24.2121 21.5352 24.6314 21.9544 24.6314 22.47Z" fill="#471CDA"/>
<path fill-rule="evenodd" clip-rule="evenodd" d="M24.6314 22.47C24.6314 22.9856 24.2121 23.4048 23.6966 23.4048C23.181 23.4048 22.7617 22.9856 22.7617 22.47C22.7617 21.9544 23.181 21.5352 23.6966 21.5352C24.2121 21.5352 24.6314 21.9544 24.6314 22.47Z" fill="#2E1CDA"/>
<path fill-rule="evenodd" clip-rule="evenodd" d="M39.5997 21.0208C39.5997 22.3343 38.533 23.401 37.2178 23.401C35.9026 23.401 34.8359 22.336 34.8359 21.0208C34.8359 19.7056 35.9026 18.6406 37.2178 18.6406C38.533 18.6406 39.5997 19.7056 39.5997 21.0208Z" fill="#3D13CB"/>
<path fill-rule="evenodd" clip-rule="evenodd" d="M23.6091 61.3085C23.6091 61.6838 23.3049 61.9881 22.9296 61.9881C22.5543 61.9881 22.25 61.6838 22.25 61.3085C22.25 60.9332 22.5543 60.6289 22.9296 60.6289C23.3049 60.6289 23.6091 60.9332 23.6091 61.3085Z" fill="#00EAE6"/>
<path fill-rule="evenodd" clip-rule="evenodd" d="M16.1275 30.9661C16.1275 31.4817 15.7082 31.9009 15.1926 31.9009C14.6771 31.9009 14.2578 31.4817 14.2578 30.9661C14.2578 30.4505 14.6771 30.0312 15.1926 30.0312C15.7082 30.0312 16.1275 30.4505 16.1275 30.9661Z" fill="#EFEFEF"/>
<path fill-rule="evenodd" clip-rule="evenodd" d="M29.0538 14.7342C29.0538 15.2971 28.5974 15.7536 28.0328 15.7536C27.4681 15.7536 27.0117 15.2971 27.0117 14.7342C27.0117 14.1713 27.4681 13.7148 28.0328 13.7148C28.5974 13.7148 29.0538 14.1713 29.0538 14.7342Z" fill="#471CDA"/>
<path fill-rule="evenodd" clip-rule="evenodd" d="M29.0538 14.7342C29.0538 15.2971 28.5974 15.7536 28.0328 15.7536C27.4681 15.7536 27.0117 15.2971 27.0117 14.7342C27.0117 14.1713 27.4681 13.7148 28.0328 13.7148C28.5974 13.7148 29.0538 14.1713 29.0538 14.7342Z" fill="#2E1CDA"/>
<path fill-rule="evenodd" clip-rule="evenodd" d="M22.0798 28.5871C22.0798 29.4796 21.3563 30.2015 20.4638 30.2015C19.5712 30.2015 18.8477 29.4779 18.8477 28.5871C18.8477 27.6962 19.5712 26.9727 20.4638 26.9727C21.3563 26.9727 22.0798 27.6962 22.0798 28.5871Z" fill="#3D13CB"/>
<path fill-rule="evenodd" clip-rule="evenodd" d="M23.2714 30.2863C23.2714 30.9913 22.7 31.561 21.9951 31.561C21.2901 31.561 20.7188 30.9896 20.7188 30.2863C20.7188 29.5831 21.2901 29.0117 21.9951 29.0117C22.7 29.0117 23.2714 29.5831 23.2714 30.2863Z" fill="#00EAE6"/>
<path fill-rule="evenodd" clip-rule="evenodd" d="M28.7127 34.5363C28.7127 35.4289 27.9891 36.1507 27.0966 36.1507C26.204 36.1507 25.4805 35.4272 25.4805 34.5363C25.4805 33.6454 26.204 32.9219 27.0966 32.9219C27.9891 32.9219 28.7127 33.6454 28.7127 34.5363Z" fill="#EFEFEF"/>
<path fill-rule="evenodd" clip-rule="evenodd" d="M27.8633 31.1367C27.8633 32.1223 27.0637 32.9218 26.0781 32.9218C25.0926 32.9218 24.293 32.1223 24.293 31.1367C24.293 30.1512 25.0926 29.3516 26.0781 29.3516C27.0637 29.3516 27.8633 30.1512 27.8633 31.1367Z" fill="#471CDA"/>
<path fill-rule="evenodd" clip-rule="evenodd" d="M27.8633 31.1367C27.8633 32.1223 27.0637 32.9218 26.0781 32.9218C25.0926 32.9218 24.293 32.1223 24.293 31.1367C24.293 30.1512 25.0926 29.3516 26.0781 29.3516C27.0637 29.3516 27.8633 30.1512 27.8633 31.1367Z" fill="#2E1CDA"/>
<path fill-rule="evenodd" clip-rule="evenodd" d="M22.5912 34.6237C22.5912 35.0937 22.2109 35.4741 21.7409 35.4741C21.271 35.4741 20.8906 35.0937 20.8906 34.6237C20.8906 34.1538 21.271 33.7734 21.7409 33.7734C22.2109 33.7734 22.5912 34.1538 22.5912 34.6237Z" fill="#3D13CB"/>
<path fill-rule="evenodd" clip-rule="evenodd" d="M52.1827 46.8631C52.1827 47.426 51.7263 47.8825 51.1617 47.8825C50.5971 47.8825 50.1406 47.426 50.1406 46.8631C50.1406 46.3002 50.5971 45.8438 51.1617 45.8438C51.7263 45.8438 52.1827 46.3002 52.1827 46.8631Z" fill="#00EAE6"/>
<path fill-rule="evenodd" clip-rule="evenodd" d="M36.1957 37.768C36.1957 39.9741 34.4055 41.7626 32.1994 41.7626C29.9933 41.7626 28.2031 39.9741 28.2031 37.768C28.2031 35.562 29.9933 33.7734 32.1994 33.7734C34.4055 33.7734 36.1957 35.562 36.1957 37.768Z" fill="#EFEFEF"/>
<path fill-rule="evenodd" clip-rule="evenodd" d="M38.0676 42.44C38.0676 43.2853 37.3829 43.9699 36.5377 43.9699C35.6925 43.9699 35.0078 43.2853 35.0078 42.44C35.0078 41.5948 35.6925 40.9102 36.5377 40.9102C37.3829 40.9102 38.0676 41.5948 38.0676 42.44Z" fill="#471CDA"/>
<path fill-rule="evenodd" clip-rule="evenodd" d="M38.0676 42.44C38.0676 43.2853 37.3829 43.9699 36.5377 43.9699C35.6925 43.9699 35.0078 43.2853 35.0078 42.44C35.0078 41.5948 35.6925 40.9102 36.5377 40.9102C37.3829 40.9102 38.0676 41.5948 38.0676 42.44Z" fill="#2E1CDA"/>
<path fill-rule="evenodd" clip-rule="evenodd" d="M26.8435 36.1483C26.8435 36.5236 26.5392 36.8279 26.1639 36.8279C25.7887 36.8279 25.4844 36.5236 25.4844 36.1483C25.4844 35.773 25.7887 35.4688 26.1639 35.4688C26.5392 35.4688 26.8435 35.773 26.8435 36.1483Z" fill="#3D13CB"/>
<path fill-rule="evenodd" clip-rule="evenodd" d="M27.0115 34.1132C27.0115 34.4884 26.7072 34.7927 26.3319 34.7927C25.9566 34.7927 25.6523 34.4884 25.6523 34.1132C25.6523 33.7379 25.9566 33.4336 26.3319 33.4336C26.7072 33.4336 27.0115 33.7379 27.0115 34.1132Z" fill="#00EAE6"/>
<path fill-rule="evenodd" clip-rule="evenodd" d="M30.0756 40.9089C30.0756 41.3789 29.6953 41.7592 29.2253 41.7592C28.7554 41.7592 28.375 41.3789 28.375 40.9089C28.375 40.439 28.7554 40.0586 29.2253 40.0586C29.6953 40.0586 30.0756 40.439 30.0756 40.9089Z" fill="#EFEFEF"/>
<path fill-rule="evenodd" clip-rule="evenodd" d="M31.7752 36.7472C31.7752 37.6398 31.0516 38.3616 30.1591 38.3616C29.2665 38.3616 28.543 37.6381 28.543 36.7472C28.543 35.8563 29.2665 35.1328 30.1591 35.1328C31.0516 35.1328 31.7752 35.8563 31.7752 36.7472Z" fill="#471CDA"/>
<path fill-rule="evenodd" clip-rule="evenodd" d="M31.7752 36.7472C31.7752 37.6398 31.0516 38.3616 30.1591 38.3616C29.2665 38.3616 28.543 37.6381 28.543 36.7472C28.543 35.8563 29.2665 35.1328 30.1591 35.1328C31.0516 35.1328 31.7752 35.8563 31.7752 36.7472Z" fill="#2E1CDA"/>
<path fill-rule="evenodd" clip-rule="evenodd" d="M47.5926 36.6616C47.5926 37.5998 46.8319 38.3622 45.892 38.3622C44.9521 38.3622 44.1914 37.6015 44.1914 36.6616C44.1914 35.7217 44.9521 34.9609 45.892 34.9609C46.8319 34.9609 47.5926 35.7217 47.5926 36.6616Z" fill="#3D13CB"/>
<path fill-rule="evenodd" clip-rule="evenodd" d="M31.7761 33.431C31.7761 34.5569 30.8616 35.4714 29.7357 35.4714C28.6099 35.4714 27.6953 34.5586 27.6953 33.431C27.6953 32.3035 28.6082 31.3906 29.7357 31.3906C30.8633 31.3906 31.7761 32.3035 31.7761 33.431Z" fill="#00EAE6"/>
<path fill-rule="evenodd" clip-rule="evenodd" d="M50.6509 38.9583C50.6509 39.4739 50.2317 39.8931 49.7161 39.8931C49.2005 39.8931 48.7812 39.4739 48.7812 38.9583C48.7812 38.4427 49.2005 38.0234 49.7161 38.0234C50.2317 38.0234 50.6509 38.4427 50.6509 38.9583Z" fill="#EFEFEF"/>
<path fill-rule="evenodd" clip-rule="evenodd" d="M33.9845 33.8555C33.9845 34.6534 33.337 35.3009 32.5391 35.3009C31.7412 35.3009 31.0938 34.6534 31.0938 33.8555C31.0938 33.0576 31.7412 32.4102 32.5391 32.4102C33.337 32.4102 33.9845 33.0576 33.9845 33.8555Z" fill="#471CDA"/>
<path fill-rule="evenodd" clip-rule="evenodd" d="M33.9845 33.8555C33.9845 34.6534 33.337 35.3009 32.5391 35.3009C31.7412 35.3009 31.0938 34.6534 31.0938 33.8555C31.0938 33.0576 31.7412 32.4102 32.5391 32.4102C33.337 32.4102 33.9845 33.0576 33.9845 33.8555Z" fill="#2E1CDA"/>
<path fill-rule="evenodd" clip-rule="evenodd" d="M41.4685 34.453C41.4685 34.8283 41.1642 35.1326 40.7889 35.1326C40.4137 35.1326 40.1094 34.8283 40.1094 34.453C40.1094 34.0777 40.4137 33.7734 40.7889 33.7734C41.1642 33.7734 41.4685 34.0777 41.4685 34.453Z" fill="#3D13CB"/>
<path fill-rule="evenodd" clip-rule="evenodd" d="M38.406 35.3085C38.406 35.6838 38.1017 35.9881 37.7264 35.9881C37.3512 35.9881 37.0469 35.6838 37.0469 35.3085C37.0469 34.9332 37.3512 34.6289 37.7264 34.6289C38.1017 34.6289 38.406 34.9332 38.406 35.3085Z" fill="#00EAE6"/>
<path fill-rule="evenodd" clip-rule="evenodd" d="M41.1287 42.2733C41.1287 42.6486 40.8244 42.9529 40.4491 42.9529C40.0738 42.9529 39.7695 42.6486 39.7695 42.2733C39.7695 41.898 40.0738 41.5938 40.4491 41.5938C40.8244 41.5938 41.1287 41.898 41.1287 42.2733Z" fill="#EFEFEF"/>
<path fill-rule="evenodd" clip-rule="evenodd" d="M42.831 38.1912C42.831 38.9417 42.2225 39.5503 41.4702 39.5503C40.7179 39.5503 40.1094 38.9417 40.1094 38.1912C40.1094 37.4406 40.7179 36.832 41.4702 36.832C42.2225 36.832 42.831 37.4406 42.831 38.1912Z" fill="#471CDA"/>
<path fill-rule="evenodd" clip-rule="evenodd" d="M42.831 38.1912C42.831 38.9417 42.2225 39.5503 41.4702 39.5503C40.7179 39.5503 40.1094 38.9417 40.1094 38.1912C40.1094 37.4406 40.7179 36.832 41.4702 36.832C42.2225 36.832 42.831 37.4406 42.831 38.1912Z" fill="#2E1CDA"/>
<path fill-rule="evenodd" clip-rule="evenodd" d="M59.6642 45.4984C59.6642 47.0942 58.3693 48.3874 56.7735 48.3874C55.1777 48.3874 53.8828 47.0942 53.8828 45.4984C53.8828 43.9026 55.1777 42.6094 56.7735 42.6094C58.3693 42.6094 59.6642 43.9026 59.6642 45.4984Z" fill="#3D13CB"/>
<path fill-rule="evenodd" clip-rule="evenodd" d="M40.4472 35.8098C40.4472 37.3127 39.2284 38.5298 37.7256 38.5298C36.2227 38.5298 35.0039 37.3127 35.0039 35.8098C35.0039 34.307 36.2227 33.0898 37.7256 33.0898C39.2284 33.0898 40.4472 34.307 40.4472 35.8098Z" fill="#00EAE6"/>
<path fill-rule="evenodd" clip-rule="evenodd" d="M60.8547 50.5194C60.8547 51.8802 59.7508 52.9841 58.3883 52.9841C57.0258 52.9841 55.9219 51.8802 55.9219 50.5194C55.9219 49.1586 57.0258 48.0547 58.3883 48.0547C59.7508 48.0547 60.8547 49.1586 60.8547 50.5194Z" fill="#EFEFEF"/>
<path fill-rule="evenodd" clip-rule="evenodd" d="M56.433 42.9531C56.433 44.9242 54.8338 46.5234 52.861 46.5234C50.8883 46.5234 49.2891 44.9259 49.2891 42.9531C49.2891 40.9803 50.8883 39.3828 52.861 39.3828C54.8338 39.3828 56.433 40.9803 56.433 42.9531Z" fill="#471CDA"/>
<path fill-rule="evenodd" clip-rule="evenodd" d="M56.433 42.9531C56.433 44.9242 54.8338 46.5234 52.861 46.5234C50.8883 46.5234 49.2891 44.9259 49.2891 42.9531C49.2891 40.9803 50.8883 39.3828 52.861 39.3828C54.8338 39.3828 56.433 40.9803 56.433 42.9531Z" fill="#2E1CDA"/>
<path fill-rule="evenodd" clip-rule="evenodd" d="M52.0105 38.3607C52.0105 39.4866 51.0959 40.4011 49.9701 40.4011C48.8442 40.4011 47.9297 39.4883 47.9297 38.3607C47.9297 37.2332 48.8442 36.3203 49.9701 36.3203C51.0959 36.3203 52.0105 37.2332 52.0105 38.3607Z" fill="#00EAE6"/>
<path fill-rule="evenodd" clip-rule="evenodd" d="M45.038 35.642C45.038 36.5802 44.2772 37.3426 43.3373 37.3426C42.3974 37.3426 41.6367 36.5819 41.6367 35.642C41.6367 34.7021 42.3974 33.9414 43.3373 33.9414C44.2772 33.9414 45.038 34.7021 45.038 35.642Z" fill="#00EAE6"/>
<path fill-rule="evenodd" clip-rule="evenodd" d="M36.1932 34.0246C36.1932 34.7295 35.6219 35.2992 34.9169 35.2992C34.212 35.2992 33.6406 34.7279 33.6406 34.0246C33.6406 33.3214 34.212 32.75 34.9169 32.75C35.6219 32.75 36.1932 33.3214 36.1932 34.0246Z" fill="#EFEFEF"/>
<path fill-rule="evenodd" clip-rule="evenodd" d="M49.4637 38.5326C49.4637 39.4709 48.703 40.2333 47.7631 40.2333C46.8232 40.2333 46.0625 39.4726 46.0625 38.5326C46.0625 37.5927 46.8232 36.832 47.7631 36.832C48.703 36.832 49.4637 37.5927 49.4637 38.5326Z" fill="#471CDA"/>
<path fill-rule="evenodd" clip-rule="evenodd" d="M49.4637 38.5326C49.4637 39.4709 48.703 40.2333 47.7631 40.2333C46.8232 40.2333 46.0625 39.4726 46.0625 38.5326C46.0625 37.5927 46.8232 36.832 47.7631 36.832C48.703 36.832 49.4637 37.5927 49.4637 38.5326Z" fill="#2E1CDA"/>
<path fill-rule="evenodd" clip-rule="evenodd" d="M50.6524 47.625C50.6524 48.423 50.005 49.0704 49.2071 49.0704C48.4092 49.0704 47.7617 48.423 47.7617 47.625C47.7617 46.8271 48.4092 46.1797 49.2071 46.1797C50.005 46.1797 50.6524 46.8271 50.6524 47.625Z" fill="#3D13CB"/>
<path fill-rule="evenodd" clip-rule="evenodd" d="M48.7816 41.5041C48.7816 41.9267 48.4384 42.2699 48.0158 42.2699C47.5932 42.2699 47.25 41.9267 47.25 41.5041C47.25 41.0814 47.5932 40.7383 48.0158 40.7383C48.4384 40.7383 48.7816 41.0814 48.7816 41.5041Z" fill="#00EAE6"/>
<path fill-rule="evenodd" clip-rule="evenodd" d="M57.6236 42.3567C57.6236 42.8723 57.2043 43.2915 56.6887 43.2915C56.1731 43.2915 55.7539 42.8723 55.7539 42.3567C55.7539 41.8411 56.1731 41.4219 56.6887 41.4219C57.2043 41.4219 57.6236 41.8411 57.6236 42.3567Z" fill="#EFEFEF"/>
<path fill-rule="evenodd" clip-rule="evenodd" d="M45.8922 21.7862C45.8922 22.8664 45.0166 23.7404 43.9363 23.7404C42.8561 23.7404 41.9805 22.8647 41.9805 21.7862C41.9805 20.7077 42.8561 19.832 43.9363 19.832C45.0166 19.832 45.8922 20.7077 45.8922 21.7862Z" fill="#3D13CB"/>
<path fill-rule="evenodd" clip-rule="evenodd" d="M44.0214 61.7356C44.0214 62.4405 43.45 63.0102 42.7451 63.0102C42.0401 63.0102 41.4688 62.4388 41.4688 61.7356C41.4688 61.0323 42.0401 60.4609 42.7451 60.4609C43.45 60.4609 44.0214 61.0323 44.0214 61.7356Z" fill="#3D13CB"/>
<path fill-rule="evenodd" clip-rule="evenodd" d="M53.7134 60.7161C53.7134 61.2317 53.2942 61.6509 52.7786 61.6509C52.263 61.6509 51.8438 61.2317 51.8438 60.7161C51.8438 60.2005 52.263 59.7812 52.7786 59.7812C53.2942 59.7812 53.7134 60.2005 53.7134 60.7161Z" fill="#00EAE6"/>
<path fill-rule="evenodd" clip-rule="evenodd" d="M50.1447 57.4884C50.1447 58.0986 49.6494 58.594 49.0392 58.594C48.4289 58.594 47.9336 58.0986 47.9336 57.4884C47.9336 56.8781 48.4289 56.3828 49.0392 56.3828C49.6494 56.3828 50.1447 56.8781 50.1447 57.4884Z" fill="#EFEFEF"/>
<path fill-rule="evenodd" clip-rule="evenodd" d="M52.8645 52.6432C52.8645 53.4884 52.1798 54.173 51.3346 54.173C50.4893 54.173 49.8047 53.4884 49.8047 52.6432C49.8047 51.7979 50.4893 51.1133 51.3346 51.1133C52.1798 51.1133 52.8645 51.7979 52.8645 52.6432Z" fill="#471CDA"/>
<path fill-rule="evenodd" clip-rule="evenodd" d="M52.8645 52.6432C52.8645 53.4884 52.1798 54.173 51.3346 54.173C50.4893 54.173 49.8047 53.4884 49.8047 52.6432C49.8047 51.7979 50.4893 51.1133 51.3346 51.1133C52.1798 51.1133 52.8645 51.7979 52.8645 52.6432Z" fill="#2E1CDA"/>
<path fill-rule="evenodd" clip-rule="evenodd" d="M56.0967 58.4216C56.0967 59.1722 55.4881 59.7808 54.7358 59.7808C53.9836 59.7808 53.375 59.1722 53.375 58.4216C53.375 57.6711 53.9836 57.0625 54.7358 57.0625C55.4881 57.0625 56.0967 57.6711 56.0967 58.4216Z" fill="#3D13CB"/>
<path fill-rule="evenodd" clip-rule="evenodd" d="M55.9233 51.4519C55.9233 51.9218 55.5429 52.3022 55.073 52.3022C54.603 52.3022 54.2227 51.9218 54.2227 51.4519C54.2227 50.9819 54.603 50.6016 55.073 50.6016C55.5429 50.6016 55.9233 50.9819 55.9233 51.4519Z" fill="#00EAE6"/>
<path fill-rule="evenodd" clip-rule="evenodd" d="M57.9661 61.1393C57.9661 61.7969 57.4336 62.3294 56.776 62.3294C56.1184 62.3294 55.5859 61.7969 55.5859 61.1393C55.5859 60.4817 56.1184 59.9492 56.776 59.9492C57.4336 59.9492 57.9661 60.4817 57.9661 61.1393Z" fill="#EFEFEF"/>
<path fill-rule="evenodd" clip-rule="evenodd" d="M60.8598 54.5102C60.8598 55.7308 59.8692 56.7197 58.6486 56.7197C57.4281 56.7197 56.4375 55.7308 56.4375 54.5102C56.4375 53.2897 57.4281 52.3008 58.6486 52.3008C59.8692 52.3008 60.8598 53.2897 60.8598 54.5102Z" fill="#471CDA"/>
<path fill-rule="evenodd" clip-rule="evenodd" d="M60.8598 54.5102C60.8598 55.7308 59.8692 56.7197 58.6486 56.7197C57.4281 56.7197 56.4375 55.7308 56.4375 54.5102C56.4375 53.2897 57.4281 52.3008 58.6486 52.3008C59.8692 52.3008 60.8598 53.2897 60.8598 54.5102Z" fill="#2E1CDA"/>
<path fill-rule="evenodd" clip-rule="evenodd" d="M54.9054 64.7108C54.9054 65.2737 54.4489 65.7301 53.8843 65.7301C53.3197 65.7301 52.8633 65.2737 52.8633 64.7108C52.8633 64.1478 53.3197 63.6914 53.8843 63.6914C54.4489 63.6914 54.9054 64.1478 54.9054 64.7108Z" fill="#3D13CB"/>
<path fill-rule="evenodd" clip-rule="evenodd" d="M59.498 58.2473C59.498 59.7502 58.2792 60.9673 56.7764 60.9673C55.2735 60.9673 54.0547 59.7502 54.0547 58.2473C54.0547 56.7445 55.2735 55.5273 56.7764 55.5273C58.2792 55.5273 59.498 56.7445 59.498 58.2473Z" fill="#00EAE6"/>
<path fill-rule="evenodd" clip-rule="evenodd" d="M52.0117 62.2461C52.0117 63.2316 51.2121 64.0312 50.2265 64.0312C49.241 64.0312 48.4414 63.2316 48.4414 62.2461C48.4414 61.2605 49.241 60.4609 50.2265 60.4609C51.2121 60.4609 52.0117 61.2605 52.0117 62.2461Z" fill="#EFEFEF"/>
<path fill-rule="evenodd" clip-rule="evenodd" d="M56.6056 62.4141C56.6056 63.212 55.9581 63.8595 55.1602 63.8595C54.3623 63.8595 53.7148 63.212 53.7148 62.4141C53.7148 61.6162 54.3623 60.9688 55.1602 60.9688C55.9581 60.9688 56.6056 61.6162 56.6056 62.4141Z" fill="#471CDA"/>
<path fill-rule="evenodd" clip-rule="evenodd" d="M56.6056 62.4141C56.6056 63.212 55.9581 63.8595 55.1602 63.8595C54.3623 63.8595 53.7148 63.212 53.7148 62.4141C53.7148 61.6162 54.3623 60.9688 55.1602 60.9688C55.9581 60.9688 56.6056 61.6162 56.6056 62.4141Z" fill="#2E1CDA"/>
<path fill-rule="evenodd" clip-rule="evenodd" d="M39.7697 61.7345C39.7697 62.3447 39.2744 62.84 38.6642 62.84C38.0539 62.84 37.5586 62.3447 37.5586 61.7345C37.5586 61.1242 38.0539 60.6289 38.6642 60.6289C39.2744 60.6289 39.7697 61.1242 39.7697 61.7345Z" fill="#00EAE6"/>
<path fill-rule="evenodd" clip-rule="evenodd" d="M45.7202 67.0066C45.7202 68.2745 44.6924 69.3023 43.4246 69.3023C42.1567 69.3023 41.1289 68.2745 41.1289 67.0066C41.1289 65.7387 42.1567 64.7109 43.4246 64.7109C44.6924 64.7109 45.7202 65.7387 45.7202 67.0066Z" fill="#EFEFEF"/>
<path fill-rule="evenodd" clip-rule="evenodd" d="M48.2697 60.3712C48.2697 60.9815 47.7744 61.4768 47.1642 61.4768C46.5539 61.4768 46.0586 60.9815 46.0586 60.3712C46.0586 59.7609 46.5539 59.2656 47.1642 59.2656C47.7744 59.2656 48.2697 59.7609 48.2697 60.3712Z" fill="#471CDA"/>
<path fill-rule="evenodd" clip-rule="evenodd" d="M48.2697 60.3712C48.2697 60.9815 47.7744 61.4768 47.1642 61.4768C46.5539 61.4768 46.0586 60.9815 46.0586 60.3712C46.0586 59.7609 46.5539 59.2656 47.1642 59.2656C47.7744 59.2656 48.2697 59.7609 48.2697 60.3712Z" fill="#2E1CDA"/>
<path fill-rule="evenodd" clip-rule="evenodd" d="M40.6172 67.5156C40.6172 68.5012 39.8176 69.3008 38.832 69.3008C37.8465 69.3008 37.0469 68.5012 37.0469 67.5156C37.0469 66.5301 37.8465 65.7305 38.832 65.7305C39.8176 65.7305 40.6172 66.5301 40.6172 67.5156Z" fill="#3D13CB"/>
<path fill-rule="evenodd" clip-rule="evenodd" d="M45.2096 63.7747C45.2096 64.1027 44.9425 64.3698 44.6146 64.3698C44.2866 64.3698 44.0195 64.1027 44.0195 63.7747C44.0195 63.4468 44.2866 63.1797 44.6146 63.1797C44.9425 63.1797 45.2096 63.4468 45.2096 63.7747Z" fill="#00EAE6"/>
<path fill-rule="evenodd" clip-rule="evenodd" d="M48.7818 67.772C48.7818 68.8049 47.945 69.6417 46.9104 69.6417C45.8758 69.6417 45.0391 68.8049 45.0391 67.772C45.0391 66.7391 45.8775 65.9023 46.9104 65.9023C47.9433 65.9023 48.7818 66.7391 48.7818 67.772Z" fill="#00EAE6"/>
<path fill-rule="evenodd" clip-rule="evenodd" d="M51.5054 65.8152C51.5054 67.0831 50.4776 68.1109 49.2097 68.1109C47.9419 68.1109 46.9141 67.0831 46.9141 65.8152C46.9141 64.5473 47.9419 63.5195 49.2097 63.5195C50.4776 63.5195 51.5054 64.5473 51.5054 65.8152Z" fill="#471CDA"/>
<path fill-rule="evenodd" clip-rule="evenodd" d="M51.5054 65.8152C51.5054 67.0831 50.4776 68.1109 49.2097 68.1109C47.9419 68.1109 46.9141 67.0831 46.9141 65.8152C46.9141 64.5473 47.9419 63.5195 49.2097 63.5195C50.4776 63.5195 51.5054 64.5473 51.5054 65.8152Z" fill="#2E1CDA"/>
<path fill-rule="evenodd" clip-rule="evenodd" d="M35.6849 65.2213C35.6849 65.8789 35.1524 66.4114 34.4948 66.4114C33.8372 66.4114 33.3047 65.8789 33.3047 65.2213C33.3047 64.5638 33.8372 64.0312 34.4948 64.0312C35.1524 64.0312 35.6849 64.5638 35.6849 65.2213Z" fill="#3D13CB"/>
<path fill-rule="evenodd" clip-rule="evenodd" d="M27.012 67.008C27.012 67.4306 26.6689 67.7738 26.2463 67.7738C25.8236 67.7738 25.4805 67.4306 25.4805 67.008C25.4805 66.5854 25.8236 66.2422 26.2463 66.2422C26.6689 66.2422 27.012 66.5854 27.012 67.008Z" fill="#00EAE6"/>
<path fill-rule="evenodd" clip-rule="evenodd" d="M35.5136 69.7277C35.5136 70.4327 34.9422 71.0024 34.2372 71.0024C33.5323 71.0024 32.9609 70.431 32.9609 69.7277C32.9609 69.0245 33.5323 68.4531 34.2372 68.4531C34.9422 68.4531 35.5136 69.0245 35.5136 69.7277Z" fill="#3D13CB"/>
<path fill-rule="evenodd" clip-rule="evenodd" d="M37.2193 67.772C37.2193 68.8049 36.3825 69.6417 35.3479 69.6417C34.3133 69.6417 33.4766 68.8049 33.4766 67.772C33.4766 66.7391 34.3133 65.9023 35.3479 65.9023C36.3825 65.9023 37.2193 66.7391 37.2193 67.772Z" fill="#00EAE6"/>
<path fill-rule="evenodd" clip-rule="evenodd" d="M38.4065 69.8946C38.4065 70.5049 37.9111 71.0002 37.3009 71.0002C36.6906 71.0002 36.1953 70.5049 36.1953 69.8946C36.1953 69.2844 36.6906 68.7891 37.3009 68.7891C37.9111 68.7891 38.4065 69.2844 38.4065 69.8946Z" fill="#EFEFEF"/>
<path fill-rule="evenodd" clip-rule="evenodd" d="M41.2987 68.8723C41.2987 69.5772 40.7273 70.1469 40.0224 70.1469C39.3175 70.1469 38.7461 69.5755 38.7461 68.8723C38.7461 68.169 39.3175 67.5977 40.0224 67.5977C40.7273 67.5977 41.2987 68.169 41.2987 68.8723Z" fill="#471CDA"/>
<path fill-rule="evenodd" clip-rule="evenodd" d="M41.2987 68.8723C41.2987 69.5772 40.7273 70.1469 40.0224 70.1469C39.3175 70.1469 38.7461 69.5755 38.7461 68.8723C38.7461 68.169 39.3175 67.5977 40.0224 67.5977C40.7273 67.5977 41.2987 68.169 41.2987 68.8723Z" fill="#2E1CDA"/>
<path fill-rule="evenodd" clip-rule="evenodd" d="M29.0548 68.875C29.0548 69.6729 28.4073 70.3204 27.6094 70.3204C26.8115 70.3204 26.1641 69.6729 26.1641 68.875C26.1641 68.0771 26.8115 67.4297 27.6094 67.4297C28.4073 67.4297 29.0548 68.0771 29.0548 68.875Z" fill="#3D13CB"/>
<path fill-rule="evenodd" clip-rule="evenodd" d="M27.1838 63.9454C27.1838 64.5557 26.6885 65.051 26.0782 65.051C25.468 65.051 24.9727 64.5557 24.9727 63.9454C24.9727 63.3351 25.468 62.8398 26.0782 62.8398C26.6885 62.8398 27.1838 63.3351 27.1838 63.9454Z" fill="#00EAE6"/>
<path fill-rule="evenodd" clip-rule="evenodd" d="M32.625 60.5508C32.625 61.5363 31.8254 62.3359 30.8398 62.3359C29.8543 62.3359 29.0547 61.5363 29.0547 60.5508C29.0547 59.5652 29.8543 58.7656 30.8398 58.7656C31.8254 58.7656 32.625 59.5652 32.625 60.5508Z" fill="#EFEFEF"/>
<path fill-rule="evenodd" clip-rule="evenodd" d="M31.9432 65.6457C31.9432 66.3506 31.3719 66.9203 30.6669 66.9203C29.962 66.9203 29.3906 66.349 29.3906 65.6457C29.3906 64.9425 29.962 64.3711 30.6669 64.3711C31.3719 64.3711 31.9432 64.9425 31.9432 65.6457Z" fill="#471CDA"/>
<path fill-rule="evenodd" clip-rule="evenodd" d="M31.9432 65.6457C31.9432 66.3506 31.3719 66.9203 30.6669 66.9203C29.962 66.9203 29.3906 66.349 29.3906 65.6457C29.3906 64.9425 29.962 64.3711 30.6669 64.3711C31.3719 64.3711 31.9432 64.9425 31.9432 65.6457Z" fill="#2E1CDA"/>
<path fill-rule="evenodd" clip-rule="evenodd" d="M28.8824 62.5843C28.8824 65.1657 26.7879 67.2585 24.2049 67.2585C21.6218 67.2585 19.5273 65.1657 19.5273 62.5843C19.5273 60.003 21.6218 57.9102 24.2049 57.9102C26.7879 57.9102 28.8824 60.003 28.8824 62.5843Z" fill="#3D13CB"/>
<path fill-rule="evenodd" clip-rule="evenodd" d="M34.8385 62.4154C34.8385 62.7433 34.5714 63.0104 34.2435 63.0104C33.9155 63.0104 33.6484 62.7433 33.6484 62.4154C33.6484 62.0874 33.9155 61.8203 34.2435 61.8203C34.5714 61.8203 34.8385 62.0874 34.8385 62.4154Z" fill="#00EAE6"/>
<path fill-rule="evenodd" clip-rule="evenodd" d="M34.1582 67.6028C34.1582 69.1056 32.9393 70.3228 31.4365 70.3228C29.9337 70.3228 28.7148 69.1056 28.7148 67.6028C28.7148 66.1 29.9337 64.8828 31.4365 64.8828C32.9393 64.8828 34.1582 66.1 34.1582 67.6028Z" fill="#EFEFEF"/>
<path fill-rule="evenodd" clip-rule="evenodd" d="M32.1138 13.7993C32.1138 15.8178 30.4774 17.4541 28.4573 17.4541C26.4372 17.4541 24.8008 15.8178 24.8008 13.7993C24.8008 11.7809 26.4372 10.1445 28.4573 10.1445C30.4774 10.1445 32.1138 11.7809 32.1138 13.7993Z" fill="#EFEFEF"/>
<path fill-rule="evenodd" clip-rule="evenodd" d="M26.1613 13.0377C26.1613 13.8829 25.4767 14.5676 24.6314 14.5676C23.7862 14.5676 23.1016 13.8829 23.1016 13.0377C23.1016 12.1925 23.7862 11.5078 24.6314 11.5078C25.4767 11.5078 26.1613 12.1925 26.1613 13.0377Z" fill="#EFEFEF"/>
<path fill-rule="evenodd" clip-rule="evenodd" d="M19.3596 60.6312C19.3596 62.227 18.0646 63.5202 16.4688 63.5202C14.873 63.5202 13.5781 62.227 13.5781 60.6312C13.5781 59.0354 14.873 57.7422 16.4688 57.7422C18.0646 57.7422 19.3596 59.0354 19.3596 60.6312Z" fill="#EFEFEF"/>
<path fill-rule="evenodd" clip-rule="evenodd" d="M53.8858 65.2186C53.8858 65.7815 53.4294 66.2379 52.8648 66.2379C52.3002 66.2379 51.8438 65.7815 51.8438 65.2186C51.8438 64.6556 52.3002 64.1992 52.8648 64.1992C53.4294 64.1992 53.8858 64.6556 53.8858 65.2186Z" fill="#3D13CB"/>
<path fill-rule="evenodd" clip-rule="evenodd" d="M20.3779 65.8982C20.3779 66.6488 19.7693 67.2573 19.0171 67.2573C18.2648 67.2573 17.6562 66.6488 17.6562 65.8982C17.6562 65.1476 18.2648 64.5391 19.0171 64.5391C19.7693 64.5391 20.3779 65.1476 20.3779 65.8982Z" fill="#3D13CB"/>
<path fill-rule="evenodd" clip-rule="evenodd" d="M14.9378 63.0939C14.9378 63.5165 14.5947 63.8597 14.172 63.8597C13.7494 63.8597 13.4062 63.5165 13.4062 63.0939C13.4062 62.6713 13.7494 62.3281 14.172 62.3281C14.5947 62.3281 14.9378 62.6713 14.9378 63.0939Z" fill="#00EAE6"/>
<path fill-rule="evenodd" clip-rule="evenodd" d="M22.4233 67.5964C22.4233 68.0664 22.0429 68.4467 21.573 68.4467C21.103 68.4467 20.7227 68.0664 20.7227 67.5964C20.7227 67.1265 21.103 66.7461 21.573 66.7461C22.0429 66.7461 22.4233 67.1265 22.4233 67.5964Z" fill="#EFEFEF"/>
<path fill-rule="evenodd" clip-rule="evenodd" d="M17.147 64.4544C17.147 64.97 16.7278 65.3892 16.2122 65.3892C15.6966 65.3892 15.2773 64.97 15.2773 64.4544C15.2773 63.9388 15.6966 63.5195 16.2122 63.5195C16.7278 63.5195 17.147 63.9388 17.147 64.4544Z" fill="#471CDA"/>
<path fill-rule="evenodd" clip-rule="evenodd" d="M17.147 64.4544C17.147 64.97 16.7278 65.3892 16.2122 65.3892C15.6966 65.3892 15.2773 64.97 15.2773 64.4544C15.2773 63.9388 15.6966 63.5195 16.2122 63.5195C16.7278 63.5195 17.147 63.9388 17.147 64.4544Z" fill="#2E1CDA"/>
<path fill-rule="evenodd" clip-rule="evenodd" d="M13.9142 61.2266C13.9142 62.0245 13.2667 62.672 12.4688 62.672C11.6709 62.672 11.0234 62.0245 11.0234 61.2266C11.0234 60.4287 11.6709 59.7812 12.4688 59.7812C13.2667 59.7812 13.9142 60.4287 13.9142 61.2266Z" fill="#3D13CB"/>
<path fill-rule="evenodd" clip-rule="evenodd" d="M14.7659 58.6759C14.7659 59.0986 14.4228 59.4417 14.0002 59.4417C13.5775 59.4417 13.2344 59.0986 13.2344 58.6759C13.2344 58.2533 13.5775 57.9102 14.0002 57.9102C14.4228 57.9102 14.7659 58.2533 14.7659 58.6759Z" fill="#00EAE6"/>
<path fill-rule="evenodd" clip-rule="evenodd" d="M26.5 68.1953C26.5 69.1808 25.7004 69.9804 24.7148 69.9804C23.7293 69.9804 22.9297 69.1808 22.9297 68.1953C22.9297 67.2098 23.7293 66.4102 24.7148 66.4102C25.7004 66.4102 26.5 67.2098 26.5 68.1953Z" fill="#EFEFEF"/>
<path fill-rule="evenodd" clip-rule="evenodd" d="M25.3113 67.2552C25.3113 68.3811 24.3967 69.2957 23.2709 69.2957C22.145 69.2957 21.2305 68.3828 21.2305 67.2552C21.2305 66.1277 22.145 65.2148 23.2709 65.2148C24.3967 65.2148 25.3113 66.1277 25.3113 67.2552Z" fill="#3D13CB"/>
<path fill-rule="evenodd" clip-rule="evenodd" d="M22.0784 61.8149C22.0784 63.223 20.9357 64.3641 19.5275 64.3641C18.1193 64.3641 16.9766 63.223 16.9766 61.8149C16.9766 60.4067 18.1193 59.2656 19.5275 59.2656C20.9357 59.2656 22.0784 60.4067 22.0784 61.8149Z" fill="#471CDA"/>
<path fill-rule="evenodd" clip-rule="evenodd" d="M22.0784 61.8149C22.0784 63.223 20.9357 64.3641 19.5275 64.3641C18.1193 64.3641 16.9766 63.223 16.9766 61.8149C16.9766 60.4067 18.1193 59.2656 19.5275 59.2656C20.9357 59.2656 22.0784 60.4067 22.0784 61.8149Z" fill="#2E1CDA"/>
<path fill-rule="evenodd" clip-rule="evenodd" d="M50.1425 52.7277C50.1425 53.4327 49.5711 54.0024 48.8662 54.0024C48.1612 54.0024 47.5898 53.431 47.5898 52.7277C47.5898 52.0245 48.1612 51.4531 48.8662 51.4531C49.5711 51.4531 50.1425 52.0245 50.1425 52.7277Z" fill="#3D13CB"/>
<path fill-rule="evenodd" clip-rule="evenodd" d="M17.9978 19.7472C17.9978 20.6398 17.2743 21.3616 16.3817 21.3616C15.4891 21.3616 14.7656 20.6381 14.7656 19.7472C14.7656 18.8563 15.4891 18.1328 16.3817 18.1328C17.2743 18.1328 17.9978 18.8563 17.9978 19.7472Z" fill="#00EAE6"/>
<path fill-rule="evenodd" clip-rule="evenodd" d="M15.9572 25.6954C15.9572 26.3057 15.4619 26.801 14.8517 26.801C14.2414 26.801 13.7461 26.3057 13.7461 25.6954C13.7461 25.0852 14.2414 24.5898 14.8517 24.5898C15.4619 24.5898 15.9572 25.0852 15.9572 25.6954Z" fill="#EFEFEF"/>
<path fill-rule="evenodd" clip-rule="evenodd" d="M49.4621 20.8541C49.4621 21.6993 48.7775 22.384 47.9322 22.384C47.087 22.384 46.4023 21.6993 46.4023 20.8541C46.4023 20.0089 47.087 19.3242 47.9322 19.3242C48.7775 19.3242 49.4621 20.0089 49.4621 20.8541Z" fill="#471CDA"/>
<path fill-rule="evenodd" clip-rule="evenodd" d="M49.4621 20.8541C49.4621 21.6993 48.7775 22.384 47.9322 22.384C47.087 22.384 46.4023 21.6993 46.4023 20.8541C46.4023 20.0089 47.087 19.3242 47.9322 19.3242C48.7775 19.3242 49.4621 20.0089 49.4621 20.8541Z" fill="#2E1CDA"/>
<path fill-rule="evenodd" clip-rule="evenodd" d="M12.7239 24.7643C12.7239 25.4219 12.1914 25.9544 11.5338 25.9544C10.8762 25.9544 10.3438 25.4219 10.3438 24.7643C10.3438 24.1067 10.8762 23.5742 11.5338 23.5742C12.1914 23.5742 12.7239 24.1067 12.7239 24.7643Z" fill="#3D13CB"/>
<path fill-rule="evenodd" clip-rule="evenodd" d="M17.1471 14.6458C17.1471 14.9738 16.88 15.2409 16.5521 15.2409C16.2241 15.2409 15.957 14.9738 15.957 14.6458C15.957 14.3179 16.2241 14.0508 16.5521 14.0508C16.88 14.0508 17.1471 14.3179 17.1471 14.6458Z" fill="#00EAE6"/>
<path fill-rule="evenodd" clip-rule="evenodd" d="M39.9353 64.2863C39.9353 65.1788 39.2118 65.9007 38.3192 65.9007C37.4266 65.9007 36.7031 65.1772 36.7031 64.2863C36.7031 63.3954 37.4266 62.6719 38.3192 62.6719C39.2118 62.6719 39.9353 63.3954 39.9353 64.2863Z" fill="#EFEFEF"/>
<path fill-rule="evenodd" clip-rule="evenodd" d="M13.5756 21.53C13.5756 22 13.1953 22.3803 12.7253 22.3803C12.2554 22.3803 11.875 22 11.875 21.53C11.875 21.06 12.2554 20.6797 12.7253 20.6797C13.1953 20.6797 13.5756 21.06 13.5756 21.53Z" fill="#471CDA"/>
<path fill-rule="evenodd" clip-rule="evenodd" d="M13.5756 21.53C13.5756 22 13.1953 22.3803 12.7253 22.3803C12.2554 22.3803 11.875 22 11.875 21.53C11.875 21.06 12.2554 20.6797 12.7253 20.6797C13.1953 20.6797 13.5756 21.06 13.5756 21.53Z" fill="#2E1CDA"/>
<path fill-rule="evenodd" clip-rule="evenodd" d="M51.5044 16.4322C51.5044 17.465 50.6676 18.3018 49.6331 18.3018C48.5985 18.3018 47.7617 17.465 47.7617 16.4322C47.7617 15.3993 48.6002 14.5625 49.6331 14.5625C50.666 14.5625 51.5044 15.3993 51.5044 16.4322Z" fill="#3D13CB"/>
<path fill-rule="evenodd" clip-rule="evenodd" d="M23.7824 58.9322C23.7824 59.7775 23.0978 60.4621 22.2525 60.4621C21.4073 60.4621 20.7227 59.7775 20.7227 58.9322C20.7227 58.087 21.4073 57.4023 22.2525 57.4023C23.0978 57.4023 23.7824 58.087 23.7824 58.9322Z" fill="#00EAE6"/>
<path fill-rule="evenodd" clip-rule="evenodd" d="M21.7372 53.8295C21.7372 54.7677 20.9765 55.5301 20.0366 55.5301C19.0967 55.5301 18.3359 54.7694 18.3359 53.8295C18.3359 52.8896 19.0967 52.1289 20.0366 52.1289C20.9765 52.1289 21.7372 52.8896 21.7372 53.8295Z" fill="#EFEFEF"/>
<path fill-rule="evenodd" clip-rule="evenodd" d="M38.2374 12.949C38.2374 14.4975 36.9814 15.7535 35.4312 15.7535C33.881 15.7535 32.625 14.4975 32.625 12.949C32.625 11.4006 33.881 10.1445 35.4312 10.1445C36.9814 10.1445 38.2374 11.4006 38.2374 12.949Z" fill="#471CDA"/>
<path fill-rule="evenodd" clip-rule="evenodd" d="M38.2374 12.949C38.2374 14.4975 36.9814 15.7535 35.4312 15.7535C33.881 15.7535 32.625 14.4975 32.625 12.949C32.625 11.4006 33.881 10.1445 35.4312 10.1445C36.9814 10.1445 38.2374 11.4006 38.2374 12.949Z" fill="#2E1CDA"/>
<path fill-rule="evenodd" clip-rule="evenodd" d="M55.4171 16.8553C55.4171 18.4038 54.161 19.6598 52.6109 19.6598C51.0607 19.6598 49.8047 18.4038 49.8047 16.8553C49.8047 15.3068 51.0607 14.0508 52.6109 14.0508C54.161 14.0508 55.4171 15.3068 55.4171 16.8553Z" fill="#471CDA"/>
<path fill-rule="evenodd" clip-rule="evenodd" d="M55.4171 16.8553C55.4171 18.4038 54.161 19.6598 52.6109 19.6598C51.0607 19.6598 49.8047 18.4038 49.8047 16.8553C49.8047 15.3068 51.0607 14.0508 52.6109 14.0508C54.161 14.0508 55.4171 15.3068 55.4171 16.8553Z" fill="#2E1CDA"/>
<path fill-rule="evenodd" clip-rule="evenodd" d="M46.9118 56.6339C46.9118 57.7141 46.0361 58.5881 44.9559 58.5881C43.8757 58.5881 43 57.7124 43 56.6339C43 55.5554 43.8757 54.6797 44.9559 54.6797C46.0361 54.6797 46.9118 55.5554 46.9118 56.6339Z" fill="#3D13CB"/>
<path fill-rule="evenodd" clip-rule="evenodd" d="M20.3801 27.483C20.3801 28.3282 19.6954 29.0129 18.8502 29.0129C18.005 29.0129 17.3203 28.3282 17.3203 27.483C17.3203 26.6378 18.005 25.9531 18.8502 25.9531C19.6954 25.9531 20.3801 26.6378 20.3801 27.483Z" fill="#00EAE6"/>
<path fill-rule="evenodd" clip-rule="evenodd" d="M37.0497 38.0209C37.0497 38.9591 36.289 39.7215 35.3491 39.7215C34.4092 39.7215 33.6484 38.9608 33.6484 38.0209C33.6484 37.081 34.4092 36.3203 35.3491 36.3203C36.289 36.3203 37.0497 37.081 37.0497 38.0209Z" fill="#EFEFEF"/>
<path fill-rule="evenodd" clip-rule="evenodd" d="M25.8246 32.7513C25.8246 34.0665 24.7579 35.1315 23.4444 35.1315C22.1309 35.1315 21.0625 34.0665 21.0625 32.7513C21.0625 31.4361 22.1292 30.3711 23.4444 30.3711C24.7596 30.3711 25.8246 31.4361 25.8246 32.7513Z" fill="#471CDA"/>
<path fill-rule="evenodd" clip-rule="evenodd" d="M25.8246 32.7513C25.8246 34.0665 24.7579 35.1315 23.4444 35.1315C22.1309 35.1315 21.0625 34.0665 21.0625 32.7513C21.0625 31.4361 22.1292 30.3711 23.4444 30.3711C24.7596 30.3711 25.8246 31.4361 25.8246 32.7513Z" fill="#2E1CDA"/>
<path fill-rule="evenodd" clip-rule="evenodd" d="M7.45572 23.8294C7.45572 24.1574 7.18863 24.4245 6.86067 24.4245C6.53272 24.4245 6.26562 24.1574 6.26562 23.8294C6.26562 23.5015 6.53272 23.2344 6.86067 23.2344C7.18863 23.2344 7.45572 23.5015 7.45572 23.8294Z" fill="#3D13CB"/>
<path fill-rule="evenodd" clip-rule="evenodd" d="M17.6606 33.686C17.6606 33.921 17.4696 34.1103 17.2346 34.1103C16.9996 34.1103 16.8086 33.9193 16.8086 33.686C16.8086 33.4527 16.9996 33.2617 17.2346 33.2617C17.4696 33.2617 17.6606 33.4527 17.6606 33.686Z" fill="#00EAE6"/>
<path fill-rule="evenodd" clip-rule="evenodd" d="M15.7867 38.5301C15.7867 38.8124 15.5585 39.0406 15.2761 39.0406C14.9938 39.0406 14.7656 38.8124 14.7656 38.5301C14.7656 38.2477 14.9938 38.0195 15.2761 38.0195C15.5585 38.0195 15.7867 38.2477 15.7867 38.5301Z" fill="#EFEFEF"/>
<path fill-rule="evenodd" clip-rule="evenodd" d="M20.8904 37.0038C20.8904 37.3791 20.5861 37.6834 20.2108 37.6834C19.8355 37.6834 19.5312 37.3791 19.5312 37.0038C19.5312 36.6285 19.8355 36.3242 20.2108 36.3242C20.5861 36.3242 20.8904 36.6285 20.8904 37.0038Z" fill="#471CDA"/>
<path fill-rule="evenodd" clip-rule="evenodd" d="M20.8904 37.0038C20.8904 37.3791 20.5861 37.6834 20.2108 37.6834C19.8355 37.6834 19.5312 37.3791 19.5312 37.0038C19.5312 36.6285 19.8355 36.3242 20.2108 36.3242C20.5861 36.3242 20.8904 36.6285 20.8904 37.0038Z" fill="#2E1CDA"/>
<path fill-rule="evenodd" clip-rule="evenodd" d="M10.6851 17.9636C10.6851 18.246 10.4569 18.4742 10.1746 18.4742C9.89228 18.4742 9.66406 18.246 9.66406 17.9636C9.66406 17.6813 9.89228 17.4531 10.1746 17.4531C10.4569 17.4531 10.6851 17.6813 10.6851 17.9636Z" fill="#3D13CB"/>
<path fill-rule="evenodd" clip-rule="evenodd" d="M14.2564 34.5325C14.2564 35.0481 13.8371 35.4673 13.3216 35.4673C12.806 35.4673 12.3867 35.0481 12.3867 34.5325C12.3867 34.0169 12.806 33.5977 13.3216 33.5977C13.8371 33.5977 14.2564 34.0169 14.2564 34.5325Z" fill="#00EAE6"/>
<path fill-rule="evenodd" clip-rule="evenodd" d="M7.62544 29.7798C7.62544 30.0148 7.43441 30.2041 7.19944 30.2041C6.96446 30.2041 6.77344 30.0131 6.77344 29.7798C6.77344 29.5465 6.96446 29.3555 7.19944 29.3555C7.43441 29.3555 7.62544 29.5465 7.62544 29.7798Z" fill="#EFEFEF"/>
<path fill-rule="evenodd" clip-rule="evenodd" d="M24.2917 14.8177C24.2917 15.1457 24.0246 15.4128 23.6966 15.4128C23.3687 15.4128 23.1016 15.1457 23.1016 14.8177C23.1016 14.4898 23.3687 14.2227 23.6966 14.2227C24.0246 14.2227 24.2917 14.4898 24.2917 14.8177Z" fill="#471CDA"/>
<path fill-rule="evenodd" clip-rule="evenodd" d="M24.2917 14.8177C24.2917 15.1457 24.0246 15.4128 23.6966 15.4128C23.3687 15.4128 23.1016 15.1457 23.1016 14.8177C23.1016 14.4898 23.3687 14.2227 23.6966 14.2227C24.0246 14.2227 24.2917 14.4898 24.2917 14.8177Z" fill="#2E1CDA"/>
<path fill-rule="evenodd" clip-rule="evenodd" d="M20.0417 15.1575C20.0417 15.4855 19.7746 15.7526 19.4466 15.7526C19.1187 15.7526 18.8516 15.4855 18.8516 15.1575C18.8516 14.8296 19.1187 14.5625 19.4466 14.5625C19.7746 14.5625 20.0417 14.8296 20.0417 15.1575Z" fill="#3D13CB"/>
<path fill-rule="evenodd" clip-rule="evenodd" d="M15.9585 36.6629C15.9585 36.9452 15.7303 37.1734 15.448 37.1734C15.1657 37.1734 14.9375 36.9452 14.9375 36.6629C14.9375 36.3806 15.1657 36.1523 15.448 36.1523C15.7303 36.1523 15.9585 36.3806 15.9585 36.6629Z" fill="#00EAE6"/>
<path fill-rule="evenodd" clip-rule="evenodd" d="M38.2398 49.0691C38.2398 49.3514 38.0116 49.5796 37.7293 49.5796C37.447 49.5796 37.2188 49.3514 37.2188 49.0691C37.2188 48.7868 37.447 48.5586 37.7293 48.5586C38.0116 48.5586 38.2398 48.7868 38.2398 49.0691Z" fill="#EFEFEF"/>
<path fill-rule="evenodd" clip-rule="evenodd" d="M38.9183 10.9103C38.9183 11.3329 38.5751 11.6761 38.1525 11.6761C37.7299 11.6761 37.3867 11.3329 37.3867 10.9103C37.3867 10.4877 37.7299 10.1445 38.1525 10.1445C38.5751 10.1445 38.9183 10.4877 38.9183 10.9103Z" fill="#471CDA"/>
<path fill-rule="evenodd" clip-rule="evenodd" d="M38.9183 10.9103C38.9183 11.3329 38.5751 11.6761 38.1525 11.6761C37.7299 11.6761 37.3867 11.3329 37.3867 10.9103C37.3867 10.4877 37.7299 10.1445 38.1525 10.1445C38.5751 10.1445 38.9183 10.4877 38.9183 10.9103Z" fill="#2E1CDA"/>
<path fill-rule="evenodd" clip-rule="evenodd" d="M54.5627 58.4164C54.5627 60.0122 53.2678 61.3054 51.672 61.3054C50.0762 61.3054 48.7812 60.0122 48.7812 58.4164C48.7812 56.8206 50.0762 55.5273 51.672 55.5273C53.2678 55.5273 54.5627 56.8206 54.5627 58.4164Z" fill="#3D13CB"/>
<path fill-rule="evenodd" clip-rule="evenodd" d="M42.6577 40.4871C42.6577 41.7549 41.6299 42.7827 40.3621 42.7827C39.0942 42.7827 38.0664 41.7549 38.0664 40.4871C38.0664 39.2192 39.0942 38.1914 40.3621 38.1914C41.6299 38.1914 42.6577 39.2192 42.6577 40.4871Z" fill="#00EAE6"/>
<path fill-rule="evenodd" clip-rule="evenodd" d="M53.2034 55.3617C53.2034 56.7699 52.0607 57.911 50.6525 57.911C49.2443 57.911 48.1016 56.7699 48.1016 55.3617C48.1016 53.9536 49.2443 52.8125 50.6525 52.8125C52.0607 52.8125 53.2034 53.9536 53.2034 55.3617Z" fill="#EFEFEF"/>
<path fill-rule="evenodd" clip-rule="evenodd" d="M57.9676 51.027C57.9676 52.9508 56.4073 54.5111 54.4819 54.5111C52.5564 54.5111 50.9961 52.9508 50.9961 51.027C50.9961 49.1033 52.5564 47.543 54.4819 47.543C56.4073 47.543 57.9676 49.1033 57.9676 51.027Z" fill="#471CDA"/>
<path fill-rule="evenodd" clip-rule="evenodd" d="M57.9676 51.027C57.9676 52.9508 56.4073 54.5111 54.4819 54.5111C52.5564 54.5111 50.9961 52.9508 50.9961 51.027C50.9961 49.1033 52.5564 47.543 54.4819 47.543C56.4073 47.543 57.9676 49.1033 57.9676 51.027Z" fill="#2E1CDA"/>
<path fill-rule="evenodd" clip-rule="evenodd" d="M16.6372 52.2134C16.6372 52.4483 16.4461 52.6377 16.2112 52.6377C15.9762 52.6377 15.7852 52.4467 15.7852 52.2134C15.7852 51.9801 15.9762 51.7891 16.2112 51.7891C16.4461 51.7891 16.6372 51.9801 16.6372 52.2134Z" fill="#3D13CB"/>
<path fill-rule="evenodd" clip-rule="evenodd" d="M18.6796 40.5703C18.6796 40.7579 18.5274 40.91 18.3398 40.91C18.1521 40.91 18 40.7579 18 40.5703C18 40.3826 18.1521 40.2305 18.3398 40.2305C18.5274 40.2305 18.6796 40.3826 18.6796 40.5703Z" fill="#00EAE6"/>
<path fill-rule="evenodd" clip-rule="evenodd" d="M17.3191 52.7251C17.3191 52.9601 17.128 53.1494 16.8947 53.1494C16.6615 53.1494 16.4688 52.9584 16.4688 52.7251C16.4688 52.4918 16.6598 52.3008 16.8947 52.3008C17.1297 52.3008 17.3191 52.4918 17.3191 52.7251Z" fill="#EFEFEF"/>
<path fill-rule="evenodd" clip-rule="evenodd" d="M21.9117 41.5886C21.9117 41.871 21.6835 42.0992 21.4011 42.0992C21.1188 42.0992 20.8906 41.871 20.8906 41.5886C20.8906 41.3063 21.1188 41.0781 21.4011 41.0781C21.6835 41.0781 21.9117 41.3063 21.9117 41.5886Z" fill="#471CDA"/>
<path fill-rule="evenodd" clip-rule="evenodd" d="M21.9117 41.5886C21.9117 41.871 21.6835 42.0992 21.4011 42.0992C21.1188 42.0992 20.8906 41.871 20.8906 41.5886C20.8906 41.3063 21.1188 41.0781 21.4011 41.0781C21.6835 41.0781 21.9117 41.3063 21.9117 41.5886Z" fill="#2E1CDA"/>
<path fill-rule="evenodd" clip-rule="evenodd" d="M32.2854 18.9867C32.2854 20.3949 31.1427 21.536 29.7345 21.536C28.3264 21.536 27.1836 20.3949 27.1836 18.9867C27.1836 17.5786 28.3264 16.4375 29.7345 16.4375C31.1427 16.4375 32.2854 17.5786 32.2854 18.9867Z" fill="#3D13CB"/>
<path fill-rule="evenodd" clip-rule="evenodd" d="M34.8347 43.1185C34.8347 44.2444 33.9202 45.1589 32.7943 45.1589C31.6685 45.1589 30.7539 44.2461 30.7539 43.1185C30.7539 41.991 31.6685 41.0781 32.7943 41.0781C33.9202 41.0781 34.8347 41.991 34.8347 43.1185Z" fill="#00EAE6"/>
<path fill-rule="evenodd" clip-rule="evenodd" d="M48.6109 48.3074C48.6109 49.5752 47.5831 50.603 46.3152 50.603C45.0473 50.603 44.0195 49.5752 44.0195 48.3074C44.0195 47.0395 45.0473 46.0117 46.3152 46.0117C47.5831 46.0117 48.6109 47.0395 48.6109 48.3074Z" fill="#EFEFEF"/>
<path fill-rule="evenodd" clip-rule="evenodd" d="M48.6123 62.9255C48.6123 64.6617 47.2041 66.0698 45.4663 66.0698C43.7285 66.0698 42.3203 64.6617 42.3203 62.9255C42.3203 61.1894 43.7285 59.7812 45.4663 59.7812C47.2041 59.7812 48.6123 61.1894 48.6123 62.9255Z" fill="#471CDA"/>
<path fill-rule="evenodd" clip-rule="evenodd" d="M48.6123 62.9255C48.6123 64.6617 47.2041 66.0698 45.4663 66.0698C43.7285 66.0698 42.3203 64.6617 42.3203 62.9255C42.3203 61.1894 43.7285 59.7812 45.4663 59.7812C47.2041 59.7812 48.6123 61.1894 48.6123 62.9255Z" fill="#2E1CDA"/>
<path fill-rule="evenodd" clip-rule="evenodd" d="M26.3322 66.4962C26.3322 67.1065 25.8369 67.6018 25.2267 67.6018C24.6164 67.6018 24.1211 67.1065 24.1211 66.4962C24.1211 65.8859 24.6164 65.3906 25.2267 65.3906C25.8369 65.3906 26.3322 65.8859 26.3322 66.4962Z" fill="#3D13CB"/>
<path fill-rule="evenodd" clip-rule="evenodd" d="M6.26041 57.3138C6.26041 57.6417 5.99331 57.9088 5.66536 57.9088C5.33741 57.9088 5.07031 57.6417 5.07031 57.3138C5.07031 56.9858 5.33741 56.7188 5.66536 56.7188C5.99331 56.7188 6.26041 56.9858 6.26041 57.3138Z" fill="#00EAE6"/>
<path fill-rule="evenodd" clip-rule="evenodd" d="M9.66319 57.0584C9.66319 57.6213 9.20676 58.0778 8.64214 58.0778C8.07752 58.0778 7.62109 57.6213 7.62109 57.0584C7.62109 56.4955 8.07752 56.0391 8.64214 56.0391C9.20676 56.0391 9.66319 56.4955 9.66319 57.0584Z" fill="#EFEFEF"/>
<path fill-rule="evenodd" clip-rule="evenodd" d="M27.1826 41.5935C27.1826 42.3441 26.574 42.9527 25.8218 42.9527C25.0695 42.9527 24.4609 42.3441 24.4609 41.5935C24.4609 40.8429 25.0695 40.2344 25.8218 40.2344C26.574 40.2344 27.1826 40.8429 27.1826 41.5935Z" fill="#471CDA"/>
<path fill-rule="evenodd" clip-rule="evenodd" d="M27.1826 41.5935C27.1826 42.3441 26.574 42.9527 25.8218 42.9527C25.0695 42.9527 24.4609 42.3441 24.4609 41.5935C24.4609 40.8429 25.0695 40.2344 25.8218 40.2344C26.574 40.2344 27.1826 40.8429 27.1826 41.5935Z" fill="#2E1CDA"/>
<path fill-rule="evenodd" clip-rule="evenodd" d="M16.8072 56.638C16.8072 57.1536 16.3879 57.5728 15.8723 57.5728C15.3567 57.5728 14.9375 57.1536 14.9375 56.638C14.9375 56.1224 15.3567 55.7031 15.8723 55.7031C16.3879 55.7031 16.8072 56.1224 16.8072 56.638Z" fill="#3D13CB"/>
<path fill-rule="evenodd" clip-rule="evenodd" d="M21.2308 56.3802C21.2308 57.6954 20.1641 58.7604 18.8506 58.7604C17.5371 58.7604 16.4688 57.6954 16.4688 56.3802C16.4688 55.065 17.5354 54 18.8506 54C20.1658 54 21.2308 55.065 21.2308 56.3802Z" fill="#00EAE6"/>
<path fill-rule="evenodd" clip-rule="evenodd" d="M14.0873 53.4909C14.0873 53.9609 13.707 54.3412 13.237 54.3412C12.7671 54.3412 12.3867 53.9609 12.3867 53.4909C12.3867 53.021 12.7671 52.6406 13.237 52.6406C13.707 52.6406 14.0873 53.021 14.0873 53.4909Z" fill="#EFEFEF"/>
<path fill-rule="evenodd" clip-rule="evenodd" d="M24.9729 39.6368C24.9729 40.2471 24.4776 40.7424 23.8673 40.7424C23.257 40.7424 22.7617 40.2471 22.7617 39.6368C22.7617 39.0266 23.257 38.5312 23.8673 38.5312C24.4776 38.5312 24.9729 39.0266 24.9729 39.6368Z" fill="#471CDA"/>
<path fill-rule="evenodd" clip-rule="evenodd" d="M24.9729 39.6368C24.9729 40.2471 24.4776 40.7424 23.8673 40.7424C23.257 40.7424 22.7617 40.2471 22.7617 39.6368C22.7617 39.0266 23.257 38.5312 23.8673 38.5312C24.4776 38.5312 24.9729 39.0266 24.9729 39.6368Z" fill="#2E1CDA"/>
<path fill-rule="evenodd" clip-rule="evenodd" d="M42.6565 46.2657C42.6565 46.876 42.1611 47.3713 41.5509 47.3713C40.9406 47.3713 40.4453 46.876 40.4453 46.2657C40.4453 45.6555 40.9406 45.1602 41.5509 45.1602C42.1611 45.1602 42.6565 45.6555 42.6565 46.2657Z" fill="#3D13CB"/>
<path fill-rule="evenodd" clip-rule="evenodd" d="M12.8974 28.8396C12.8974 29.5902 12.2889 30.1988 11.5366 30.1988C10.7844 30.1988 10.1758 29.5902 10.1758 28.8396C10.1758 28.089 10.7844 27.4805 11.5366 27.4805C12.2889 27.4805 12.8974 28.089 12.8974 28.8396Z" fill="#00EAE6"/>
<path fill-rule="evenodd" clip-rule="evenodd" d="M41.6392 57.3176C41.6392 57.8332 41.22 58.2525 40.7044 58.2525C40.1888 58.2525 39.7695 57.8332 39.7695 57.3176C39.7695 56.8021 40.1888 56.3828 40.7044 56.3828C41.22 56.3828 41.6392 56.8021 41.6392 57.3176Z" fill="#EFEFEF"/>
<path fill-rule="evenodd" clip-rule="evenodd" d="M23.9521 55.1912C23.9521 55.9417 23.3436 56.5503 22.5913 56.5503C21.839 56.5503 21.2305 55.9417 21.2305 55.1912C21.2305 54.4406 21.839 53.832 22.5913 53.832C23.3436 53.832 23.9521 54.4406 23.9521 55.1912Z" fill="#471CDA"/>
<path fill-rule="evenodd" clip-rule="evenodd" d="M23.9521 55.1912C23.9521 55.9417 23.3436 56.5503 22.5913 56.5503C21.839 56.5503 21.2305 55.9417 21.2305 55.1912C21.2305 54.4406 21.839 53.832 22.5913 53.832C23.3436 53.832 23.9521 54.4406 23.9521 55.1912Z" fill="#2E1CDA"/>
</svg>
