<svg width="1366" height="706" viewBox="0 0 1366 706" fill="none" xmlns="http://www.w3.org/2000/svg">
<rect width="1366" height="706" fill="white"/>
<circle cx="564" cy="509" r="70" fill="#FF3A17"/>
<circle cx="944" cy="301" r="70" fill="#FF3A17"/>
<circle cx="984.739" cy="118.423" r="70" transform="rotate(-69.9732 984.739 118.423)" fill="#2B2B2B"/>
<circle cx="1142.93" cy="127.912" r="70" transform="rotate(-69.9732 1142.93 127.912)" fill="#FF3A17"/>
<circle cx="993.128" cy="613.017" r="70" transform="rotate(8.10322 993.128 613.017)" fill="#FF3A17"/>
<circle cx="754" cy="479" r="70" fill="#FF3A17"/>
<circle cx="1048.19" cy="102" r="70" fill="#FF3A17"/>
<circle cx="1296" cy="461" r="70" fill="#EEEEEE"/>
<circle cx="1216.74" cy="196.135" r="70" transform="rotate(-69.9732 1216.74 196.135)" fill="#ABABAB"/>
<circle cx="676" cy="398" r="70" fill="#2B2B2B"/>
<circle cx="834" cy="329" r="70" fill="#2B2B2B"/>
<circle cx="392.739" cy="106.912" r="70" transform="rotate(-69.9732 392.739 106.912)" fill="#2B2B2B"/>
<circle cx="1037.1" cy="138.912" r="70" transform="rotate(-69.9732 1037.1 138.912)" fill="#ABABAB"/>
<circle cx="172" cy="313" r="70" fill="#2B2B2B"/>
<circle cx="255" cy="496" r="70" fill="#ABABAB"/>
<circle cx="994.442" cy="543.168" r="70" transform="rotate(8.10322 994.442 543.168)" fill="#FF3A17"/>
<circle cx="205" cy="430" r="70" fill="#2B2B2B"/>
<circle cx="523" cy="198" r="70" fill="#FF3A17"/>
<circle cx="305" cy="208" r="70" fill="#FF3A17"/>
<circle cx="329" cy="555" r="70" fill="#ABABAB"/>
<circle cx="677" cy="229" r="70" fill="#2B2B2B"/>
<circle cx="70" cy="550" r="70" fill="#FF46ED"/>
<circle cx="662" cy="573" r="70" fill="#FF46ED"/>
<ellipse cx="504.014" cy="440" rx="69.0141" ry="70" fill="#FF3A17"/>
<ellipse cx="326.014" cy="445" rx="69.0141" ry="70" fill="#FF46ED"/>
<ellipse cx="79.0141" cy="283" rx="69.0141" ry="70" fill="#FF3A17"/>
<ellipse cx="1107.47" cy="538.029" rx="69.0141" ry="70" transform="rotate(8.10322 1107.47 538.029)" fill="#2B2B2B"/>
<ellipse cx="774.014" cy="390" rx="69.0141" ry="70" fill="#ABABAB"/>
<circle cx="600" cy="330" r="70" fill="#FF46ED"/>
<circle cx="692" cy="124" r="70" fill="#FF46ED"/>
<circle cx="80" cy="205" r="70" fill="#FF46ED"/>
<circle cx="1102.3" cy="402.168" r="70" transform="rotate(8.10322 1102.3 402.168)" fill="#FF46ED"/>
<circle cx="265" cy="290" r="70" fill="#FF46ED"/>
<circle cx="614" cy="163" r="70" fill="#ABABAB"/>
<circle cx="221" cy="163" r="70" fill="#FF3A17"/>
<circle cx="161" cy="437" r="70" fill="#FF3A17"/>
<circle cx="578" cy="244" r="70" fill="#FF46ED"/>
<circle cx="875" cy="163" r="70" fill="#FF3A17"/>
<circle cx="476.739" cy="90.1345" r="70" transform="rotate(-69.9732 476.739 90.1345)" fill="#FF3A17"/>
<circle cx="172" cy="205" r="70" fill="#ABABAB"/>
<circle cx="196" cy="558" r="70" fill="#FF46ED"/>
<circle cx="1057.41" cy="473.687" r="70" transform="rotate(8.10322 1057.41 473.687)" fill="#ABABAB"/>
<circle cx="1203.3" cy="548.81" r="70" transform="rotate(8.10322 1203.3 548.81)" fill="#FF3A17"/>
</svg>
