<?xml version="1.0" encoding="UTF-8"?><svg id="Layer_1" xmlns="http://www.w3.org/2000/svg" viewBox="0 0 1260 480"><path id="Spearhead" d="M470.37,241.41c23.8,0,47.92-11.9,47.92-36.19s-21.19-32.11-40.42-35.53l-15.48-2.77c-9.45-1.79-16.46-6.36-16.46-14.67,0-10.6,12.06-14.67,22.82-14.67s23.15,4.56,24.94,18.42h22.49c-1.14-22.66-22.01-37-46.46-37-21.84,0-47.11,10.43-47.11,34.23,0,20.54,16.14,30.48,35.37,34.23l15,2.77c12.55,2.28,21.84,6.03,21.84,16.14,0,12.71-13.2,16.46-23.63,16.46-14.02,0-26.08-5.22-28.69-22.49h-22.49c2.12,25.43,21.35,41.08,50.37,41.08Zm77.37,28.41v-41.61c5.54,9.62,15.97,13.2,25.1,13.2,20.86,0,38.3-17.93,38.3-45.97s-16.95-45.8-38.14-45.8c-11.08,0-20.54,5.05-25.27,13.2v-13.25h-22.49v120.22h22.49Zm19.72-45.68c-12.39,0-20.54-10.76-20.54-28.69s8.15-28.53,20.54-28.53c11.57,0,20.05,11.57,20.05,28.69s-8.48,28.52-20.05,28.52Zm91.55,17.28c23.8,0,36.67-14.51,41.4-27.55h-23.15c-4.56,7.66-11.57,10.11-18.42,10.11-10.59,0-21.03-7.34-22.17-22.33h64.71c.98-30.97-15.97-52-43.03-52s-44.01,19.4-44.01,45.48,16.46,46.29,44.66,46.29Zm19.56-55.26h-41.57c1.79-14.67,12.71-20.05,21.19-20.05,9.45,0,19.89,5.22,20.38,20.05Zm58.46,55.26c13.2,0,22.49-3.91,28.69-13.04,.33,4.24,.82,9.15,1.47,11.92h20.7c-1.63-7.34-2.61-16.16-2.61-30.01,0-2.3,.03-4.9,.07-7.5v-.92c.02-.15,.02-.31,.02-.46l.02-.91c.1-5.61,.22-10.81,.22-12.54,0-29.67-16.95-38.63-37.82-38.63-22.49,0-36.84,12.71-38.47,29.99h21.03c.49-9.62,7.66-14.18,16.3-14.18,9.13,0,16.46,4.73,16.46,18.26v1.47c-34.39,3.91-57.7,10.11-57.7,30.81,0,15.97,14.83,25.75,31.62,25.75Zm6.68-15.32c-10.11,0-15.16-5.22-15.16-11.57,0-9.78,10.11-12.71,35.21-15.32v6.52c0,12.71-6.03,20.38-20.05,20.38Zm76.23,13.2v-45.97c0-16.46,7.33-20.54,18.42-20.54,3.26,0,15.03,.16,18.29,.49v-21.19c-1.47-.16-12.42-.33-13.89-.33-10.11,0-18.09,4.4-23.15,15.16v-15.32h-22.17v87.69h22.49Zm54.88,1v-46.64c0-13.86,3.26-25.92,18.09-25.92,12.71,0,15.16,9.78,15.16,21.19v51.37h22.49v-56.26c0-21.52-9.29-34.39-30.32-34.39-10.76,0-20.38,4.73-25.43,13.53v-43.05h-22.49v120.18h22.49Zm106.71,1.12c23.8,0,36.68-14.51,41.4-27.55h-23.15c-4.56,7.66-11.57,10.11-18.42,10.11-10.6,0-21.03-7.34-22.17-22.33h64.71c.98-30.97-15.97-52-43.03-52s-44.01,19.4-44.01,45.48,16.46,46.29,44.66,46.29Zm19.56-55.26h-41.57c1.79-14.67,12.71-20.05,21.19-20.05,9.45,0,19.89,5.22,20.38,20.05Zm58.46,55.26c13.2,0,22.49-3.91,28.69-13.04,.33,4.24,.81,9.15,1.47,11.92h20.7c-1.63-7.34-2.61-16.16-2.61-30.01,0-2.3,.03-4.9,.07-7.5v-.92c.11-6.11,.26-12.03,.26-13.91,0-29.67-16.95-38.63-37.82-38.63-22.49,0-36.84,12.71-38.47,29.99h21.03c.49-9.62,7.66-14.18,16.3-14.18,9.13,0,16.46,4.73,16.46,18.26v1.47c-34.39,3.91-57.7,10.11-57.7,30.81,0,15.97,14.83,25.75,31.62,25.75Zm6.68-15.32c-10.11,0-15.16-5.22-15.16-11.57,0-9.78,10.11-12.71,35.21-15.32v6.52c0,12.71-6.03,20.38-20.05,20.38Zm86.17,15.32c9.13,0,19.72-3.59,25.27-13.2v12.08h22.49V120.12h-22.49v42.73c-4.73-8.15-14.18-13.2-25.27-13.2-21.19,0-38.14,18.26-38.14,45.8s17.28,45.97,38.14,45.97Zm5.54-17.28c-11.57,0-20.05-11.41-20.05-28.52s8.48-28.69,20.05-28.69c12.39,0,20.54,10.92,20.54,28.53s-8.15,28.69-20.54,28.69Z" style="fill:#efefef;"/><path id="InnovatingagainstAMR" d="M425.63,360v-60.18h-5.56v60.18h5.56Zm15.18,0v-24.82c0-9.46,5.81-15.94,13.53-15.94,9.05,0,11.21,5.64,11.21,14.03v26.73h5.15v-28.14c0-10.96-4.48-17.26-15.02-17.26-8.3,0-12.7,4.07-14.86,8.3v-7.55h-5.15v44.65h5.15Zm42.82,0v-24.82c0-9.46,5.81-15.94,13.53-15.94,9.05,0,11.2,5.64,11.2,14.03v26.73h5.15v-28.14c0-10.96-4.48-17.26-15.02-17.26-8.3,0-12.7,4.07-14.86,8.3v-7.55h-5.15v44.65h5.15Zm54.36,1.08c10.71,0,20.25-6.97,20.25-23.24s-9.54-23.24-20.25-23.24-20.17,6.97-20.17,23.24,9.46,23.24,20.17,23.24Zm0-4.73c-8.55,0-14.69-5.73-14.69-18.51s6.14-18.51,14.69-18.51,14.77,5.73,14.77,18.51-6.22,18.51-14.77,18.51Zm41.58,3.65l16.6-44.65h-5.56l-13.45,37.52-13.86-37.52h-5.81l17.1,44.65h4.98Zm30.37,1.08c8.3,0,13.86-3.15,16.77-7.89l.25,6.81h5.23c-.25-4.81-.5-9.21-.5-14.28,0-3.57,.08-7.64,.08-13.78,0-13.28-6.89-17.6-17.26-17.6s-17.1,5.81-18.26,14.61h5.39c.42-5.81,4.98-10.04,12.53-10.04,6.47,0,12.45,2.24,12.45,12.37v1.58c-21.5,2.16-31.46,5.89-31.46,16.02,0,7.39,6.47,12.2,14.77,12.2Zm1.16-4.57c-5.89,0-10.21-2.99-10.21-7.72,0-6.97,7.8-9.38,25.98-11.37v2.16c0,12.7-7.47,16.93-15.77,16.93Zm44.23,3.49v-4.65h-2.66c-5.88,0-6.14-1.13-6.14-6.7v-28.83s8.8,0,8.8,0v-4.48h-8.8v-10.04h-5.23v10.04h-7.39v4.48h7.39v29.55c0,8.69,1.78,10.58,9.49,10.62h4.54Zm10.7-51.96v-8.22h-5.15v8.22h5.15Zm0,51.96v-44.65h-5.15v44.65h5.15Zm14.27,0v-24.82c0-9.46,5.81-15.94,13.53-15.94,9.05,0,11.21,5.64,11.21,14.03v26.73h5.15v-28.14c0-10.96-4.48-17.26-15.02-17.26-8.3,0-12.7,4.07-14.86,8.3v-7.55h-5.15v44.65h5.15Zm53.86,15.6c10.62,0,18.92-5.23,18.92-17.18v-43.08h-5.23v7.72c-3.07-5.39-8.47-8.47-15.11-8.47-10.21,0-18.59,8.47-18.59,22.33s8.38,22.33,18.59,22.33c6.64,0,12.03-2.99,15.11-8.38v8.13c0,8.3-5.15,12.12-13.53,12.12-7.55,0-11.45-3.9-12.03-8.63h-5.4c.83,8.05,8.05,13.11,17.26,13.11Zm-.33-20.92c-8.3,0-14.11-6.72-14.11-17.76s5.81-17.68,14.11-17.68c6.81,0,14.44,5.39,14.44,17.68s-7.64,17.76-14.44,17.76Zm56.02,6.39c8.3,0,13.86-3.15,16.77-7.89l.25,6.81h5.23c-.25-4.81-.5-9.21-.5-14.28,0-3.57,.08-7.64,.08-13.78,0-13.28-6.89-17.6-17.26-17.6s-17.1,5.81-18.26,14.61h5.4c.41-5.81,4.98-10.04,12.53-10.04,6.47,0,12.45,2.24,12.45,12.37v1.58c-21.5,2.16-31.46,5.89-31.46,16.02,0,7.39,6.47,12.2,14.77,12.2Zm1.16-4.57c-5.89,0-10.21-2.99-10.21-7.72,0-6.97,7.8-9.38,25.98-11.37v2.16c0,12.7-7.47,16.93-15.77,16.93Zm44.32,19.09c10.62,0,18.92-5.23,18.92-17.18v-43.08h-5.23v7.72c-3.07-5.39-8.47-8.47-15.11-8.47-10.21,0-18.59,8.47-18.59,22.33s8.38,22.33,18.59,22.33c6.64,0,12.03-2.99,15.11-8.38v8.13c0,8.3-5.15,12.12-13.53,12.12-7.55,0-11.45-3.9-12.03-8.63h-5.4c.83,8.05,8.05,13.11,17.26,13.11Zm-.33-20.92c-8.3,0-14.11-6.72-14.11-17.76s5.81-17.68,14.11-17.68c6.81,0,14.44,5.39,14.44,17.68s-7.64,17.76-14.44,17.76Zm39.67,6.39c8.3,0,13.86-3.15,16.77-7.89l.25,6.81h5.23c-.25-4.81-.5-9.21-.5-14.28,0-3.57,.08-7.64,.08-13.78,0-13.28-6.89-17.6-17.26-17.6s-17.1,5.81-18.26,14.61h5.39c.42-5.81,4.98-10.04,12.53-10.04,6.47,0,12.45,2.24,12.45,12.37v1.58c-21.5,2.16-31.46,5.89-31.46,16.02,0,7.39,6.47,12.2,14.77,12.2Zm1.16-4.57c-5.89,0-10.21-2.99-10.21-7.72,0-6.97,7.8-9.38,25.98-11.37v2.16c0,12.7-7.47,16.93-15.77,16.93Zm33.28-48.47v-8.22h-5.15v8.22h5.15Zm0,51.96v-44.65h-5.15v44.65h5.15Zm14.27,0v-24.82c0-9.46,5.81-15.94,13.53-15.94,9.05,0,11.21,5.64,11.21,14.03v26.73h5.15v-28.14c0-10.96-4.48-17.26-15.02-17.26-8.3,0-12.7,4.07-14.86,8.3v-7.55h-5.15v44.65h5.15Zm53.12,1.08c9.71,0,17.76-4.73,17.76-13.61s-8.13-10.96-15.44-12.28l-6.31-1.16c-4.9-.91-8.38-3.24-8.38-7.64,0-5.4,6.47-7.3,11.37-7.3,6.31,0,11.21,3.15,12.28,8.47h5.4c-1.08-7.14-7.64-13.03-17.18-13.03-10.04,0-17.1,5.23-17.1,12.28s5.64,10.71,12.12,11.95l6.97,1.33c6.06,1.16,11.04,2.99,11.04,8.22,0,5.98-6.72,8.22-12.12,8.22-6.89,0-12.53-3.15-13.53-10.21h-5.4c1.33,10.21,9.3,14.77,18.51,14.77Zm40.58-1.08v-4.65h-2.66c-5.79,0-6.13-1.09-6.14-6.43v-29.09s8.8,0,8.8,0v-4.48h-8.8v-10.04h-5.23v10.04h-7.39v4.48h7.39v29.55c0,8.69,1.78,10.58,9.49,10.62h4.54Zm21.65,0l5.64-15.11h28.63l5.73,15.11h6.06l-22.91-60.18h-6.31l-22.83,60.18h5.98Zm32.29-20.25h-24.73l12.28-33.03,12.45,33.03Zm23.15,20.25v-54.86l20.42,54.86h5.64l20.42-54.86v54.86h5.56v-60.18h-8.88l-19.84,53.87-19.92-53.87h-8.96v60.18h5.56Zm68.55,0v-26.56h12.12c1.74,0,3.49,0,5.06-.17l14.19,26.73h6.22l-14.61-27.39c8.38-1.66,13.7-6.14,13.7-16.27,0-14.03-10.21-16.52-24.57-16.52h-17.68v60.18h5.56Zm13.18-31.62h-13.18s0-23.49,0-23.49h12.86c9.88,0,18.01,1,18.01,11.62s-7.96,11.84-17.69,11.87h0Z" style="fill:#efefef;"/><path id="Fill-1" d="M316.74,107.77c0,4.17-3.38,7.54-7.55,7.54s-7.55-3.38-7.55-7.54,3.38-7.54,7.55-7.54,7.55,3.38,7.55,7.54" style="fill:#3d13cb; fill-rule:evenodd;"/><path id="Fill-3" d="M300.64,83.63c0,4.72-3.83,8.55-8.55,8.55s-8.55-3.83-8.55-8.55,3.83-8.55,8.55-8.55,8.55,3.83,8.55,8.55" style="fill:#00eae6; fill-rule:evenodd;"/><g id="Fill-5"><path id="path-1" d="M50.13,314.92c0,2.5-2.03,4.53-4.53,4.53s-4.53-2.03-4.53-4.53,2.03-4.53,4.53-4.53,4.53,2.03,4.53,4.53" style="fill:#471cda; fill-rule:evenodd;"/><path id="path-1-2" d="M50.13,314.92c0,2.5-2.03,4.53-4.53,4.53s-4.53-2.03-4.53-4.53,2.03-4.53,4.53-4.53,4.53,2.03,4.53,4.53" style="fill:#2e1cda; fill-rule:evenodd;"/></g><path id="Fill-7" d="M325.79,109.27c0,2.22-1.8,4.02-4.02,4.02s-4.02-1.8-4.02-4.02,1.8-4.02,4.02-4.02,4.02,1.8,4.02,4.02" style="fill:#efefef; fill-rule:evenodd;"/><path id="Fill-9" d="M283.54,100.73c0,4.72-3.83,8.55-8.55,8.55s-8.55-3.83-8.55-8.55,3.83-8.55,8.55-8.55,8.55,3.83,8.55,8.55" style="fill:#3d13cb; fill-rule:evenodd;"/><path id="Fill-11" d="M272.47,87.15c0,13.88-11.26,25.14-25.15,25.14s-25.15-11.26-25.15-25.14,11.26-25.14,25.15-25.14,25.15,11.26,25.15,25.14" style="fill:#00eae6; fill-rule:evenodd;"/><path id="Fill-13" d="M301.65,117.32c0,3.33-2.7,6.03-6.04,6.03s-6.04-2.7-6.04-6.03,2.7-6.03,6.04-6.03,6.04,2.7,6.04,6.03" style="fill:#efefef; fill-rule:evenodd;"/><g id="Fill-15"><path id="path-2" d="M307.68,87.65c0,3.05-2.48,5.53-5.53,5.53s-5.53-2.48-5.53-5.53,2.48-5.53,5.53-5.53,5.53,2.48,5.53,5.53" style="fill:#471cda; fill-rule:evenodd;"/><path id="path-2-2" d="M307.68,87.65c0,3.05-2.48,5.53-5.53,5.53s-5.53-2.48-5.53-5.53,2.48-5.53,5.53-5.53,5.53,2.48,5.53,5.53" style="fill:#2e1cda; fill-rule:evenodd;"/></g><path id="Fill-17" d="M234.24,117.32c0,1.67-1.35,3.02-3.02,3.02s-3.02-1.35-3.02-3.02,1.35-3.02,3.02-3.02,3.02,1.35,3.02,3.02" style="fill:#3d13cb; fill-rule:evenodd;"/><path id="Fill-19" d="M238.26,92.68c0,3.05-2.48,5.53-5.53,5.53s-5.53-2.48-5.53-5.53,2.48-5.53,5.53-5.53,5.53,2.48,5.53,5.53" style="fill:#00eae6; fill-rule:evenodd;"/><path id="Fill-21" d="M252.35,132.91c0,4.17-3.38,7.54-7.55,7.54s-7.55-3.38-7.55-7.54,3.38-7.54,7.55-7.54,7.55,3.38,7.55,7.54" style="fill:#efefef; fill-rule:evenodd;"/><g id="Fill-23"><path id="path-3" d="M256.37,114.8c0,4.72-3.83,8.55-8.55,8.55s-8.55-3.83-8.55-8.55,3.83-8.55,8.55-8.55,8.55,3.83,8.55,8.55" style="fill:#471cda; fill-rule:evenodd;"/><path id="path-3-2" d="M256.37,114.8c0,4.72-3.83,8.55-8.55,8.55s-8.55-3.83-8.55-8.55,3.83-8.55,8.55-8.55,8.55,3.83,8.55,8.55" style="fill:#2e1cda; fill-rule:evenodd;"/></g><path id="Fill-25" d="M299.64,132.4c0,3.89-3.15,7.04-7.04,7.04s-7.04-3.15-7.04-7.04,3.15-7.04,7.04-7.04,7.04,3.15,7.04,7.04" style="fill:#3d13cb; fill-rule:evenodd;"/><path id="Fill-27" d="M279.51,132.91c0,6.94-5.63,12.57-12.58,12.57s-12.58-5.63-12.58-12.57,5.63-12.57,12.58-12.57,12.58,5.63,12.58,12.57" style="fill:#00eae6; fill-rule:evenodd;"/><path id="Fill-29" d="M291.59,142.46c0,5.55-4.5,10.06-10.06,10.06s-10.06-4.5-10.06-10.06,4.5-10.06,10.06-10.06,10.06,4.5,10.06,10.06" style="fill:#efefef; fill-rule:evenodd;"/><g id="Fill-31"><path id="path-4" d="M312.71,116.82c0,4.17-3.38,7.54-7.55,7.54s-7.55-3.38-7.55-7.54,3.38-7.54,7.55-7.54,7.55,3.38,7.55,7.54" style="fill:#471cda; fill-rule:evenodd;"/><path id="path-4-2" d="M312.71,116.82c0,4.17-3.38,7.54-7.55,7.54s-7.55-3.38-7.55-7.54,3.38-7.54,7.55-7.54,7.55,3.38,7.55,7.54" style="fill:#2e1cda; fill-rule:evenodd;"/></g><path id="Fill-33" d="M168.84,180.17c0,1.94-1.58,3.52-3.52,3.52s-3.52-1.58-3.52-3.52,1.58-3.52,3.52-3.52,3.52,1.58,3.52,3.52" style="fill:#3d13cb; fill-rule:evenodd;"/><path id="Fill-35" d="M214.12,132.4c0,1.11-.9,2.01-2.01,2.01s-2.01-.9-2.01-2.01,.9-2.01,2.01-2.01,2.01,.9,2.01,2.01" style="fill:#00eae6; fill-rule:evenodd;"/><path id="Fill-37" d="M162.81,172.63c0,2.78-2.25,5.03-5.03,5.03s-5.03-2.25-5.03-5.03,2.25-5.03,5.03-5.03,5.03,2.25,5.03,5.03" style="fill:#efefef; fill-rule:evenodd;"/><g id="Fill-39"><path id="path-5" d="M236.25,129.89c0,2.5-2.03,4.53-4.53,4.53s-4.53-2.03-4.53-4.53,2.03-4.53,4.53-4.53,4.53,2.03,4.53,4.53" style="fill:#471cda; fill-rule:evenodd;"/><path id="path-5-2" d="M236.25,129.89c0,2.5-2.03,4.53-4.53,4.53s-4.53-2.03-4.53-4.53,2.03-4.53,4.53-4.53,4.53,2.03,4.53,4.53" style="fill:#2e1cda; fill-rule:evenodd;"/></g><path id="Fill-41" d="M199.03,87.65c0,4.72-3.83,8.55-8.55,8.55s-8.55-3.83-8.55-8.55,3.83-8.55,8.55-8.55,8.55,3.83,8.55,8.55" style="fill:#3d13cb; fill-rule:evenodd;"/><path id="Fill-43" d="M173.88,144.47c0,3.89-3.15,7.04-7.04,7.04s-7.04-3.15-7.04-7.04,3.15-7.04,7.04-7.04,7.04,3.15,7.04,7.04" style="fill:#00eae6; fill-rule:evenodd;"/><path id="Fill-45" d="M222.17,104.25c0,5.55-4.5,10.06-10.06,10.06s-10.06-4.5-10.06-10.06,4.5-10.06,10.06-10.06,10.06,4.5,10.06,10.06" style="fill:#efefef; fill-rule:evenodd;"/><g id="Fill-47"><path id="path-6" d="M259.39,74.58c0,3.61-2.93,6.54-6.54,6.54s-6.54-2.93-6.54-6.54,2.93-6.54,6.54-6.54,6.54,2.93,6.54,6.54" style="fill:#471cda; fill-rule:evenodd;"/><path id="path-6-2" d="M259.39,74.58c0,3.61-2.93,6.54-6.54,6.54s-6.54-2.93-6.54-6.54,2.93-6.54,6.54-6.54,6.54,2.93,6.54,6.54" style="fill:#2e1cda; fill-rule:evenodd;"/></g><path id="Fill-49" d="M186.95,133.91c0,5.28-4.28,9.55-9.56,9.55s-9.56-4.28-9.56-9.55,4.28-9.55,9.56-9.55,9.56,4.28,9.56,9.55" style="fill:#3d13cb; fill-rule:evenodd;"/><path id="Fill-51" d="M175.89,113.3c0,1.67-1.35,3.02-3.02,3.02s-3.02-1.35-3.02-3.02,1.35-3.02,3.02-3.02,3.02,1.35,3.02,3.02" style="fill:#00eae6; fill-rule:evenodd;"/><path id="Fill-53" d="M162.81,153.52c0,3.89-3.15,7.04-7.04,7.04s-7.04-3.15-7.04-7.04,3.15-7.04,7.04-7.04,7.04,3.15,7.04,7.04" style="fill:#efefef; fill-rule:evenodd;"/><g id="Fill-55"><path id="path-7" d="M212.11,126.37c0,7.22-5.86,13.07-13.08,13.07s-13.08-5.85-13.08-13.07,5.86-13.07,13.08-13.07,13.08,5.85,13.08,13.07" style="fill:#471cda; fill-rule:evenodd;"/><path id="path-7-2" d="M212.11,126.37c0,7.22-5.86,13.07-13.08,13.07s-13.08-5.85-13.08-13.07,5.86-13.07,13.08-13.07,13.08,5.85,13.08,13.07" style="fill:#2e1cda; fill-rule:evenodd;"/></g><path id="Fill-57" d="M163.81,156.54c0,11.11-9.01,20.11-20.12,20.11s-20.12-9-20.12-20.11,9.01-20.11,20.12-20.11,20.12,9,20.12,20.11" style="fill:#3d13cb; fill-rule:evenodd;"/><path id="Fill-59" d="M303.66,251.56c0,13.61-11.04,24.64-24.65,24.64s-24.65-11.03-24.65-24.64,11.04-24.64,24.65-24.64,24.65,11.03,24.65,24.64" style="fill:#3d13cb; fill-rule:evenodd;"/><path id="Fill-61" d="M155.77,141.96c0,3.05-2.48,5.53-5.53,5.53s-5.53-2.48-5.53-5.53,2.48-5.53,5.53-5.53,5.53,2.48,5.53,5.53" style="fill:#00eae6; fill-rule:evenodd;"/><path id="Fill-63" d="M169.85,128.38c0,3.89-3.15,7.04-7.04,7.04s-7.04-3.15-7.04-7.04,3.15-7.04,7.04-7.04,7.04,3.15,7.04,7.04" style="fill:#efefef; fill-rule:evenodd;"/><path id="Fill-65" d="M245.31,87.65c0,6.39-5.18,11.56-11.57,11.56s-11.57-5.18-11.57-11.56,5.18-11.56,11.57-11.56,11.57,5.18,11.57,11.56" style="fill:#efefef; fill-rule:evenodd;"/><path id="Fill-67" d="M269.45,254.58c0,5.28-4.28,9.55-9.56,9.55s-9.56-4.28-9.56-9.55,4.28-9.55,9.56-9.55,9.56,4.28,9.56,9.55" style="fill:#3d13cb; fill-rule:evenodd;"/><path id="Fill-69" d="M203.05,118.83c0,10.83-8.78,19.61-19.62,19.61s-19.62-8.78-19.62-19.61,8.78-19.61,19.62-19.61,19.62,8.78,19.62,19.61" style="fill:#00eae6; fill-rule:evenodd;"/><path id="Fill-71" d="M130.61,127.88c0,5.83-4.73,10.56-10.56,10.56s-10.56-4.73-10.56-10.56,4.73-10.56,10.56-10.56,10.56,4.73,10.56,10.56" style="fill:#efefef; fill-rule:evenodd;"/><g id="Fill-73"><path id="path-8" d="M171.86,120.34c0,11.66-9.46,21.12-21.13,21.12s-21.13-9.45-21.13-21.12,9.46-21.12,21.13-21.12,21.13,9.45,21.13,21.12" style="fill:#471cda; fill-rule:evenodd;"/><path id="path-8-2" d="M171.86,120.34c0,11.66-9.46,21.12-21.13,21.12s-21.13-9.45-21.13-21.12,9.46-21.12,21.13-21.12,21.13,9.45,21.13,21.12" style="fill:#2e1cda; fill-rule:evenodd;"/></g><path id="Fill-75" d="M119.55,145.98c0,4.17-3.38,7.54-7.55,7.54s-7.55-3.38-7.55-7.54,3.38-7.54,7.55-7.54,7.55,3.38,7.55,7.54" style="fill:#3d13cb; fill-rule:evenodd;"/><path id="Fill-77" d="M123.57,106.26c0,3.33-2.7,6.03-6.04,6.03s-6.04-2.7-6.04-6.03,2.7-6.03,6.04-6.03,6.04,2.7,6.04,6.03" style="fill:#00eae6; fill-rule:evenodd;"/><path id="Fill-79" d="M140.67,162.57c0,3.89-3.15,7.04-7.04,7.04s-7.04-3.15-7.04-7.04,3.15-7.04,7.04-7.04,7.04,3.15,7.04,7.04" style="fill:#efefef; fill-rule:evenodd;"/><g id="Fill-81"><path id="path-9" d="M145.71,132.91c0,3.05-2.48,5.53-5.53,5.53s-5.53-2.48-5.53-5.53,2.48-5.53,5.53-5.53,5.53,2.48,5.53,5.53" style="fill:#471cda; fill-rule:evenodd;"/><path id="path-9-2" d="M145.71,132.91c0,3.05-2.48,5.53-5.53,5.53s-5.53-2.48-5.53-5.53,2.48-5.53,5.53-5.53,5.53,2.48,5.53,5.53" style="fill:#2e1cda; fill-rule:evenodd;"/></g><path id="Fill-83" d="M234.24,124.36c0,7.77-6.31,14.08-14.09,14.08s-14.09-6.3-14.09-14.08,6.31-14.08,14.09-14.08,14.09,6.3,14.09,14.08" style="fill:#3d13cb; fill-rule:evenodd;"/><path id="Fill-85" d="M139.67,362.68c0,2.22-1.8,4.02-4.02,4.02s-4.02-1.8-4.02-4.02,1.8-4.02,4.02-4.02,4.02,1.8,4.02,4.02" style="fill:#00eae6; fill-rule:evenodd;"/><path id="Fill-87" d="M95.4,183.18c0,3.05-2.48,5.53-5.53,5.53s-5.53-2.48-5.53-5.53,2.48-5.53,5.53-5.53,5.53,2.48,5.53,5.53" style="fill:#efefef; fill-rule:evenodd;"/><g id="Fill-89"><path id="path-10" d="M171.86,87.15c0,3.33-2.7,6.03-6.04,6.03s-6.04-2.7-6.04-6.03,2.7-6.03,6.04-6.03,6.04,2.7,6.04,6.03" style="fill:#471cda; fill-rule:evenodd;"/><path id="path-10-2" d="M171.86,87.15c0,3.33-2.7,6.03-6.04,6.03s-6.04-2.7-6.04-6.03,2.7-6.03,6.04-6.03,6.04,2.7,6.04,6.03" style="fill:#2e1cda; fill-rule:evenodd;"/></g><path id="Fill-91" d="M130.61,169.11c0,5.28-4.28,9.55-9.56,9.55s-9.56-4.28-9.56-9.55,4.28-9.55,9.56-9.55,9.56,4.28,9.56,9.55" style="fill:#3d13cb; fill-rule:evenodd;"/><path id="Fill-93" d="M137.66,179.16c0,4.17-3.38,7.54-7.55,7.54s-7.55-3.38-7.55-7.54,3.38-7.54,7.55-7.54,7.55,3.38,7.55,7.54" style="fill:#00eae6; fill-rule:evenodd;"/><path id="Fill-95" d="M169.85,204.3c0,5.28-4.28,9.55-9.56,9.55s-9.56-4.28-9.56-9.55,4.28-9.55,9.56-9.55,9.56,4.28,9.56,9.55" style="fill:#efefef; fill-rule:evenodd;"/><g id="Fill-97"><path id="path-11" d="M164.82,184.19c0,5.83-4.73,10.56-10.56,10.56s-10.56-4.73-10.56-10.56,4.73-10.56,10.56-10.56,10.56,4.73,10.56,10.56" style="fill:#471cda; fill-rule:evenodd;"/><path id="path-11-2" d="M164.82,184.19c0,5.83-4.73,10.56-10.56,10.56s-10.56-4.73-10.56-10.56,4.73-10.56,10.56-10.56,10.56,4.73,10.56,10.56" style="fill:#2e1cda; fill-rule:evenodd;"/></g><path id="Fill-99" d="M133.63,204.8c0,2.78-2.25,5.03-5.03,5.03s-5.03-2.25-5.03-5.03,2.25-5.03,5.03-5.03,5.03,2.25,5.03,5.03" style="fill:#3d13cb; fill-rule:evenodd;"/><path id="Fill-101" d="M308.69,277.21c0,3.33-2.7,6.03-6.04,6.03s-6.04-2.7-6.04-6.03,2.7-6.03,6.04-6.03,6.04,2.7,6.04,6.03" style="fill:#00eae6; fill-rule:evenodd;"/><path id="Fill-103" d="M214.12,223.41c0,13.05-10.59,23.63-23.64,23.63s-23.64-10.58-23.64-23.63,10.59-23.63,23.64-23.63,23.64,10.58,23.64,23.63" style="fill:#efefef; fill-rule:evenodd;"/><g id="Fill-105"><path id="path-12" d="M225.19,251.06c0,5-4.05,9.05-9.05,9.05s-9.05-4.05-9.05-9.05,4.05-9.05,9.05-9.05,9.05,4.05,9.05,9.05" style="fill:#471cda; fill-rule:evenodd;"/><path id="path-12-2" d="M225.19,251.06c0,5-4.05,9.05-9.05,9.05s-9.05-4.05-9.05-9.05,4.05-9.05,9.05-9.05,9.05,4.05,9.05,9.05" style="fill:#2e1cda; fill-rule:evenodd;"/></g><path id="Fill-107" d="M158.78,213.85c0,2.22-1.8,4.02-4.02,4.02s-4.02-1.8-4.02-4.02,1.8-4.02,4.02-4.02,4.02,1.8,4.02,4.02" style="fill:#3d13cb; fill-rule:evenodd;"/><path id="Fill-109" d="M159.79,201.79c0,2.22-1.8,4.02-4.02,4.02s-4.02-1.8-4.02-4.02,1.8-4.02,4.02-4.02,4.02,1.8,4.02,4.02" style="fill:#00eae6; fill-rule:evenodd;"/><path id="Fill-111" d="M177.9,242.01c0,2.78-2.25,5.03-5.03,5.03s-5.03-2.25-5.03-5.03,2.25-5.03,5.03-5.03,5.03,2.25,5.03,5.03" style="fill:#efefef; fill-rule:evenodd;"/><g id="Fill-113"><path id="path-13" d="M187.96,217.37c0,5.28-4.28,9.55-9.56,9.55s-9.56-4.28-9.56-9.55,4.28-9.55,9.56-9.55,9.56,4.28,9.56,9.55" style="fill:#471cda; fill-rule:evenodd;"/><path id="path-13-2" d="M187.96,217.37c0,5.28-4.28,9.55-9.56,9.55s-9.56-4.28-9.56-9.55,4.28-9.55,9.56-9.55,9.56,4.28,9.56,9.55" style="fill:#2e1cda; fill-rule:evenodd;"/></g><path id="Fill-115" d="M281.53,216.87c0,5.55-4.5,10.06-10.06,10.06s-10.06-4.5-10.06-10.06,4.5-10.06,10.06-10.06,10.06,4.5,10.06,10.06" style="fill:#3d13cb; fill-rule:evenodd;"/><path id="Fill-117" d="M187.96,197.77c0,6.66-5.41,12.07-12.07,12.07s-12.07-5.4-12.07-12.07,5.4-12.07,12.07-12.07,12.07,5.4,12.07,12.07" style="fill:#00eae6; fill-rule:evenodd;"/><path id="Fill-119" d="M299.64,230.45c0,3.05-2.48,5.53-5.53,5.53s-5.53-2.48-5.53-5.53,2.48-5.53,5.53-5.53,5.53,2.48,5.53,5.53" style="fill:#efefef; fill-rule:evenodd;"/><g id="Fill-121"><path id="path-14" d="M201.04,200.28c0,4.72-3.83,8.55-8.55,8.55s-8.55-3.83-8.55-8.55,3.83-8.55,8.55-8.55,8.55,3.83,8.55,8.55" style="fill:#471cda; fill-rule:evenodd;"/><path id="path-14-2" d="M201.04,200.28c0,4.72-3.83,8.55-8.55,8.55s-8.55-3.83-8.55-8.55,3.83-8.55,8.55-8.55,8.55,3.83,8.55,8.55" style="fill:#2e1cda; fill-rule:evenodd;"/></g><path id="Fill-123" d="M245.31,203.8c0,2.22-1.8,4.02-4.02,4.02s-4.02-1.8-4.02-4.02,1.8-4.02,4.02-4.02,4.02,1.8,4.02,4.02" style="fill:#3d13cb; fill-rule:evenodd;"/><path id="Fill-125" d="M227.2,208.83c0,2.22-1.8,4.02-4.02,4.02s-4.02-1.8-4.02-4.02,1.8-4.02,4.02-4.02,4.02,1.8,4.02,4.02" style="fill:#00eae6; fill-rule:evenodd;"/><path id="Fill-127" d="M243.29,250.06c0,2.22-1.8,4.02-4.02,4.02s-4.02-1.8-4.02-4.02,1.8-4.02,4.02-4.02,4.02,1.8,4.02,4.02" style="fill:#efefef; fill-rule:evenodd;"/><g id="Fill-129"><path id="path-15" d="M253.36,225.92c0,4.44-3.6,8.04-8.05,8.04s-8.05-3.6-8.05-8.04,3.6-8.04,8.05-8.04,8.05,3.6,8.05,8.04" style="fill:#471cda; fill-rule:evenodd;"/><path id="path-15-2" d="M253.36,225.92c0,4.44-3.6,8.04-8.05,8.04s-8.05-3.6-8.05-8.04,3.6-8.04,8.05-8.04,8.05,3.6,8.05,8.04" style="fill:#2e1cda; fill-rule:evenodd;"/></g><path id="Fill-131" d="M352.96,269.16c0,9.44-7.66,17.09-17.1,17.09s-17.1-7.65-17.1-17.09,7.66-17.09,17.1-17.09,17.1,7.65,17.1,17.09" style="fill:#3d13cb; fill-rule:evenodd;"/><path id="Fill-133" d="M239.27,211.84c0,8.89-7.21,16.09-16.1,16.09s-16.1-7.2-16.1-16.09,7.21-16.09,16.1-16.09,16.1,7.2,16.1,16.09" style="fill:#00eae6; fill-rule:evenodd;"/><path id="Fill-135" d="M360,298.83c0,8.05-6.53,14.58-14.59,14.58s-14.59-6.53-14.59-14.58,6.53-14.58,14.59-14.58,14.59,6.53,14.59,14.58" style="fill:#efefef; fill-rule:evenodd;"/><g id="Fill-137"><path id="path-16" d="M333.84,254.08c0,11.66-9.46,21.12-21.13,21.12s-21.13-9.45-21.13-21.12,9.46-21.12,21.13-21.12,21.13,9.45,21.13,21.12" style="fill:#471cda; fill-rule:evenodd;"/><path id="path-16-2" d="M333.84,254.08c0,11.66-9.46,21.12-21.13,21.12s-21.13-9.45-21.13-21.12,9.46-21.12,21.13-21.12,21.13,9.45,21.13,21.12" style="fill:#2e1cda; fill-rule:evenodd;"/></g><path id="Fill-139" d="M307.68,226.93c0,6.66-5.41,12.07-12.07,12.07s-12.07-5.4-12.07-12.07,5.41-12.07,12.07-12.07,12.07,5.4,12.07,12.07" style="fill:#00eae6; fill-rule:evenodd;"/><path id="Fill-141" d="M266.43,210.84c0,5.55-4.5,10.06-10.06,10.06s-10.06-4.5-10.06-10.06,4.5-10.06,10.06-10.06,10.06,4.5,10.06,10.06" style="fill:#00eae6; fill-rule:evenodd;"/><path id="Fill-143" d="M214.12,201.29c0,4.17-3.38,7.54-7.55,7.54s-7.55-3.38-7.55-7.54,3.38-7.54,7.55-7.54,7.55,3.38,7.55,7.54" style="fill:#efefef; fill-rule:evenodd;"/><g id="Fill-145"><path id="path-17" d="M292.59,227.93c0,5.55-4.5,10.06-10.06,10.06s-10.06-4.5-10.06-10.06,4.5-10.06,10.06-10.06,10.06,4.5,10.06,10.06" style="fill:#471cda; fill-rule:evenodd;"/><path id="path-17-2" d="M292.59,227.93c0,5.55-4.5,10.06-10.06,10.06s-10.06-4.5-10.06-10.06,4.5-10.06,10.06-10.06,10.06,4.5,10.06,10.06" style="fill:#2e1cda; fill-rule:evenodd;"/></g><path id="Fill-147" d="M299.64,281.73c0,4.72-3.83,8.55-8.55,8.55s-8.55-3.83-8.55-8.55,3.83-8.55,8.55-8.55,8.55,3.83,8.55,8.55" style="fill:#3d13cb; fill-rule:evenodd;"/><path id="Fill-149" d="M288.57,245.53c0,2.5-2.03,4.53-4.53,4.53s-4.53-2.03-4.53-4.53,2.03-4.53,4.53-4.53,4.53,2.03,4.53,4.53" style="fill:#00eae6; fill-rule:evenodd;"/><path id="Fill-151" d="M340.88,250.56c0,3.05-2.48,5.53-5.53,5.53s-5.53-2.48-5.53-5.53,2.48-5.53,5.53-5.53,5.53,2.48,5.53,5.53" style="fill:#efefef; fill-rule:evenodd;"/><path id="Fill-153" d="M271.47,128.88c0,6.39-5.18,11.56-11.57,11.56s-11.57-5.18-11.57-11.56,5.18-11.56,11.57-11.56,11.57,5.18,11.57,11.56" style="fill:#3d13cb; fill-rule:evenodd;"/><path id="Fill-155" d="M260.4,365.2c0,4.17-3.38,7.54-7.55,7.54s-7.55-3.38-7.55-7.54,3.38-7.54,7.55-7.54,7.55,3.38,7.55,7.54" style="fill:#3d13cb; fill-rule:evenodd;"/><path id="Fill-157" d="M317.74,359.16c0,3.05-2.48,5.53-5.53,5.53s-5.53-2.48-5.53-5.53,2.48-5.53,5.53-5.53,5.53,2.48,5.53,5.53" style="fill:#00eae6; fill-rule:evenodd;"/><path id="Fill-159" d="M296.62,340.06c0,3.61-2.93,6.54-6.54,6.54s-6.54-2.93-6.54-6.54,2.93-6.54,6.54-6.54,6.54,2.93,6.54,6.54" style="fill:#efefef; fill-rule:evenodd;"/><g id="Fill-161"><path id="path-18" d="M312.71,311.4c0,5-4.05,9.05-9.05,9.05s-9.05-4.05-9.05-9.05,4.05-9.05,9.05-9.05,9.05,4.05,9.05,9.05" style="fill:#471cda; fill-rule:evenodd;"/><path id="path-18-2" d="M312.71,311.4c0,5-4.05,9.05-9.05,9.05s-9.05-4.05-9.05-9.05,4.05-9.05,9.05-9.05,9.05,4.05,9.05,9.05" style="fill:#2e1cda; fill-rule:evenodd;"/></g><path id="Fill-163" d="M331.83,345.59c0,4.44-3.6,8.04-8.05,8.04s-8.05-3.6-8.05-8.04,3.6-8.04,8.05-8.04,8.05,3.6,8.05,8.04" style="fill:#3d13cb; fill-rule:evenodd;"/><path id="Fill-165" d="M330.82,304.36c0,2.78-2.25,5.03-5.03,5.03s-5.03-2.25-5.03-5.03,2.25-5.03,5.03-5.03,5.03,2.25,5.03,5.03" style="fill:#00eae6; fill-rule:evenodd;"/><path id="Fill-167" d="M342.9,361.68c0,3.89-3.15,7.04-7.04,7.04s-7.04-3.15-7.04-7.04,3.15-7.04,7.04-7.04,7.04,3.15,7.04,7.04" style="fill:#efefef; fill-rule:evenodd;"/><g id="Fill-169"><path id="path-19" d="M360,322.46c0,7.22-5.86,13.07-13.08,13.07s-13.08-5.85-13.08-13.07,5.86-13.07,13.08-13.07,13.08,5.85,13.08,13.07" style="fill:#471cda; fill-rule:evenodd;"/><path id="path-19-2" d="M360,322.46c0,7.22-5.86,13.07-13.08,13.07s-13.08-5.85-13.08-13.07,5.86-13.07,13.08-13.07,13.08,5.85,13.08,13.07" style="fill:#2e1cda; fill-rule:evenodd;"/></g><path id="Fill-171" d="M324.79,382.79c0,3.33-2.7,6.03-6.04,6.03s-6.04-2.7-6.04-6.03,2.7-6.03,6.04-6.03,6.04,2.7,6.04,6.03" style="fill:#3d13cb; fill-rule:evenodd;"/><path id="Fill-173" d="M351.95,344.58c0,8.89-7.21,16.09-16.1,16.09s-16.1-7.2-16.1-16.09,7.21-16.09,16.1-16.09,16.1,7.2,16.1,16.09" style="fill:#00eae6; fill-rule:evenodd;"/><path id="Fill-175" d="M307.68,368.21c0,5.83-4.73,10.56-10.56,10.56s-10.56-4.73-10.56-10.56,4.73-10.56,10.56-10.56,10.56,4.73,10.56,10.56" style="fill:#efefef; fill-rule:evenodd;"/><g id="Fill-177"><path id="path-20" d="M334.85,369.22c0,4.72-3.83,8.55-8.55,8.55s-8.55-3.83-8.55-8.55,3.83-8.55,8.55-8.55,8.55,3.83,8.55,8.55" style="fill:#471cda; fill-rule:evenodd;"/><path id="path-20-2" d="M334.85,369.22c0,4.72-3.83,8.55-8.55,8.55s-8.55-3.83-8.55-8.55,3.83-8.55,8.55-8.55,8.55,3.83,8.55,8.55" style="fill:#2e1cda; fill-rule:evenodd;"/></g><path id="Fill-179" d="M235.25,365.2c0,3.61-2.93,6.54-6.54,6.54s-6.54-2.93-6.54-6.54,2.93-6.54,6.54-6.54,6.54,2.93,6.54,6.54" style="fill:#00eae6; fill-rule:evenodd;"/><path id="Fill-181" d="M270.46,396.37c0,7.5-6.08,13.58-13.58,13.58s-13.58-6.08-13.58-13.58,6.08-13.58,13.58-13.58,13.58,6.08,13.58,13.58" style="fill:#efefef; fill-rule:evenodd;"/><g id="Fill-183"><path id="path-21" d="M285.55,357.15c0,3.61-2.93,6.54-6.54,6.54s-6.54-2.93-6.54-6.54,2.93-6.54,6.54-6.54,6.54,2.93,6.54,6.54" style="fill:#471cda; fill-rule:evenodd;"/><path id="path-21-2" d="M285.55,357.15c0,3.61-2.93,6.54-6.54,6.54s-6.54-2.93-6.54-6.54,2.93-6.54,6.54-6.54,6.54,2.93,6.54,6.54" style="fill:#2e1cda; fill-rule:evenodd;"/></g><path id="Fill-185" d="M240.28,399.39c0,5.83-4.73,10.56-10.56,10.56s-10.56-4.73-10.56-10.56,4.73-10.56,10.56-10.56,10.56,4.73,10.56,10.56" style="fill:#3d13cb; fill-rule:evenodd;"/><path id="Fill-187" d="M267.44,377.26c0,1.94-1.58,3.52-3.52,3.52s-3.52-1.58-3.52-3.52,1.58-3.52,3.52-3.52,3.52,1.58,3.52,3.52" style="fill:#00eae6; fill-rule:evenodd;"/><path id="Fill-189" d="M288.57,400.89c0,6.11-4.95,11.06-11.07,11.06s-11.07-4.95-11.07-11.06,4.96-11.06,11.07-11.06,11.07,4.95,11.07,11.06" style="fill:#00eae6; fill-rule:evenodd;"/><g id="Fill-191"><path id="path-22" d="M304.67,389.33c0,7.5-6.08,13.58-13.58,13.58s-13.58-6.08-13.58-13.58,6.08-13.58,13.58-13.58,13.58,6.08,13.58,13.58" style="fill:#471cda; fill-rule:evenodd;"/><path id="path-22-2" d="M304.67,389.33c0,7.5-6.08,13.58-13.58,13.58s-13.58-6.08-13.58-13.58,6.08-13.58,13.58-13.58,13.58,6.08,13.58,13.58" style="fill:#2e1cda; fill-rule:evenodd;"/></g><path id="Fill-193" d="M211.1,385.81c0,3.89-3.15,7.04-7.04,7.04s-7.04-3.15-7.04-7.04,3.15-7.04,7.04-7.04,7.04,3.15,7.04,7.04" style="fill:#3d13cb; fill-rule:evenodd;"/><path id="Fill-195" d="M159.79,396.37c0,2.5-2.03,4.53-4.53,4.53s-4.53-2.03-4.53-4.53,2.03-4.53,4.53-4.53,4.53,2.03,4.53,4.53" style="fill:#00eae6; fill-rule:evenodd;"/><path id="Fill-197" d="M210.09,412.46c0,4.17-3.38,7.54-7.55,7.54s-7.55-3.38-7.55-7.54,3.38-7.54,7.55-7.54,7.55,3.38,7.55,7.54" style="fill:#3d13cb; fill-rule:evenodd;"/><path id="Fill-199" d="M220.16,400.89c0,6.11-4.95,11.06-11.07,11.06s-11.07-4.95-11.07-11.06,4.95-11.06,11.07-11.06,11.07,4.95,11.07,11.06" style="fill:#00eae6; fill-rule:evenodd;"/><path id="Fill-201" d="M227.2,413.46c0,3.61-2.93,6.54-6.54,6.54s-6.54-2.93-6.54-6.54,2.93-6.54,6.54-6.54,6.54,2.93,6.54,6.54" style="fill:#efefef; fill-rule:evenodd;"/><g id="Fill-204"><path id="path-23" d="M244.3,407.43c0,4.17-3.38,7.54-7.55,7.54s-7.55-3.38-7.55-7.54,3.38-7.54,7.55-7.54,7.55,3.38,7.55,7.54" style="fill:#471cda; fill-rule:evenodd;"/><path id="path-23-2" d="M244.3,407.43c0,4.17-3.38,7.54-7.55,7.54s-7.55-3.38-7.55-7.54,3.38-7.54,7.55-7.54,7.55,3.38,7.55,7.54" style="fill:#2e1cda; fill-rule:evenodd;"/></g><path id="Fill-206" d="M171.86,407.43c0,4.72-3.83,8.55-8.55,8.55s-8.55-3.83-8.55-8.55,3.83-8.55,8.55-8.55,8.55,3.83,8.55,8.55" style="fill:#3d13cb; fill-rule:evenodd;"/><path id="Fill-208" d="M160.8,378.27c0,3.61-2.93,6.54-6.54,6.54s-6.54-2.93-6.54-6.54,2.93-6.54,6.54-6.54,6.54,2.93,6.54,6.54" style="fill:#00eae6; fill-rule:evenodd;"/><path id="Fill-210" d="M192.99,358.16c0,5.83-4.73,10.56-10.56,10.56s-10.56-4.73-10.56-10.56,4.73-10.56,10.56-10.56,10.56,4.73,10.56,10.56" style="fill:#efefef; fill-rule:evenodd;"/><g id="Fill-212"><path id="path-24" d="M188.97,388.32c0,4.17-3.38,7.54-7.55,7.54s-7.55-3.38-7.55-7.54,3.38-7.54,7.55-7.54,7.55,3.38,7.55,7.54" style="fill:#471cda; fill-rule:evenodd;"/><path id="path-24-2" d="M188.97,388.32c0,4.17-3.38,7.54-7.55,7.54s-7.55-3.38-7.55-7.54,3.38-7.54,7.55-7.54,7.55,3.38,7.55,7.54" style="fill:#2e1cda; fill-rule:evenodd;"/></g><path id="Fill-214" d="M170.86,370.22c0,15.27-12.39,27.65-27.67,27.65s-27.67-12.38-27.67-27.65,12.39-27.65,27.67-27.65,27.67,12.38,27.67,27.65" style="fill:#3d13cb; fill-rule:evenodd;"/><path id="Fill-216" d="M206.07,369.22c0,1.94-1.58,3.52-3.52,3.52s-3.52-1.58-3.52-3.52,1.58-3.52,3.52-3.52,3.52,1.58,3.52,3.52" style="fill:#00eae6; fill-rule:evenodd;"/><path id="Fill-218" d="M202.05,399.89c0,8.89-7.21,16.09-16.1,16.09s-16.1-7.2-16.1-16.09,7.21-16.09,16.1-16.09,16.1,7.2,16.1,16.09" style="fill:#efefef; fill-rule:evenodd;"/><path id="Fill-220" d="M189.97,81.62c0,11.94-9.68,21.62-21.63,21.62s-21.63-9.68-21.63-21.62,9.68-21.62,21.63-21.62,21.63,9.68,21.63,21.62" style="fill:#efefef; fill-rule:evenodd;"/><path id="Fill-222" d="M154.76,77.1c0,5-4.05,9.05-9.05,9.05s-9.05-4.05-9.05-9.05,4.05-9.05,9.05-9.05,9.05,4.05,9.05,9.05" style="fill:#efefef; fill-rule:evenodd;"/><path id="Fill-224" d="M114.52,358.66c0,9.44-7.66,17.09-17.1,17.09s-17.1-7.65-17.1-17.09,7.66-17.09,17.1-17.09,17.1,7.65,17.1,17.09" style="fill:#efefef; fill-rule:evenodd;"/><path id="Fill-226" d="M318.75,385.81c0,3.33-2.7,6.03-6.04,6.03s-6.04-2.7-6.04-6.03,2.7-6.03,6.04-6.03,6.04,2.7,6.04,6.03" style="fill:#3d13cb; fill-rule:evenodd;"/><path id="Fill-228" d="M120.55,389.83c0,4.44-3.6,8.04-8.05,8.04s-8.05-3.6-8.05-8.04,3.6-8.04,8.05-8.04,8.05,3.6,8.05,8.04" style="fill:#3d13cb; fill-rule:evenodd;"/><path id="Fill-230" d="M88.36,373.24c0,2.5-2.03,4.53-4.53,4.53s-4.53-2.03-4.53-4.53,2.03-4.53,4.53-4.53,4.53,2.03,4.53,4.53" style="fill:#00eae6; fill-rule:evenodd;"/><path id="Fill-232" d="M132.63,399.89c0,2.78-2.25,5.03-5.03,5.03s-5.03-2.25-5.03-5.03,2.25-5.03,5.03-5.03,5.03,2.25,5.03,5.03" style="fill:#efefef; fill-rule:evenodd;"/><g id="Fill-234"><path id="path-25" d="M101.44,381.28c0,3.05-2.48,5.53-5.53,5.53s-5.53-2.48-5.53-5.53,2.48-5.53,5.53-5.53,5.53,2.48,5.53,5.53" style="fill:#471cda; fill-rule:evenodd;"/><path id="path-25-2" d="M101.44,381.28c0,3.05-2.48,5.53-5.53,5.53s-5.53-2.48-5.53-5.53,2.48-5.53,5.53-5.53,5.53,2.48,5.53,5.53" style="fill:#2e1cda; fill-rule:evenodd;"/></g><path id="Fill-236" d="M82.32,362.18c0,4.72-3.83,8.55-8.55,8.55s-8.55-3.83-8.55-8.55,3.83-8.55,8.55-8.55,8.55,3.83,8.55,8.55" style="fill:#3d13cb; fill-rule:evenodd;"/><path id="Fill-238" d="M87.35,347.09c0,2.5-2.03,4.53-4.53,4.53s-4.53-2.03-4.53-4.53,2.03-4.53,4.53-4.53,4.53,2.03,4.53,4.53" style="fill:#00eae6; fill-rule:evenodd;"/><path id="Fill-240" d="M156.77,403.41c0,5.83-4.73,10.56-10.56,10.56s-10.56-4.73-10.56-10.56,4.73-10.56,10.56-10.56,10.56,4.73,10.56,10.56" style="fill:#efefef; fill-rule:evenodd;"/><path id="Fill-242" d="M149.73,397.88c0,6.66-5.41,12.07-12.07,12.07s-12.07-5.4-12.07-12.07,5.41-12.07,12.07-12.07,12.07,5.4,12.07,12.07" style="fill:#3d13cb; fill-rule:evenodd;"/><g id="Fill-244"><path id="path-26" d="M130.61,365.7c0,8.33-6.76,15.08-15.09,15.08s-15.09-6.75-15.09-15.08,6.76-15.08,15.09-15.08,15.09,6.75,15.09,15.08" style="fill:#471cda; fill-rule:evenodd;"/><path id="path-26-2" d="M130.61,365.7c0,8.33-6.76,15.08-15.09,15.08s-15.09-6.75-15.09-15.08,6.76-15.08,15.09-15.08,15.09,6.75,15.09,15.08" style="fill:#2e1cda; fill-rule:evenodd;"/></g><path id="Fill-246" d="M296.62,311.9c0,4.17-3.38,7.54-7.55,7.54s-7.55-3.38-7.55-7.54,3.38-7.54,7.55-7.54,7.55,3.38,7.55,7.54" style="fill:#3d13cb; fill-rule:evenodd;"/><path id="Fill-248" d="M106.47,116.82c0,5.28-4.28,9.55-9.56,9.55s-9.56-4.28-9.56-9.55,4.28-9.55,9.56-9.55,9.56,4.28,9.56,9.55" style="fill:#00eae6; fill-rule:evenodd;"/><path id="Fill-250" d="M94.4,152.01c0,3.61-2.93,6.54-6.54,6.54s-6.54-2.93-6.54-6.54,2.93-6.54,6.54-6.54,6.54,2.93,6.54,6.54" style="fill:#efefef; fill-rule:evenodd;"/><g id="Fill-252"><path id="path-27" d="M292.59,123.35c0,5-4.05,9.05-9.05,9.05s-9.05-4.05-9.05-9.05,4.05-9.05,9.05-9.05,9.05,4.05,9.05,9.05" style="fill:#471cda; fill-rule:evenodd;"/><path id="path-27-2" d="M292.59,123.35c0,5-4.05,9.05-9.05,9.05s-9.05-4.05-9.05-9.05,4.05-9.05,9.05-9.05,9.05,4.05,9.05,9.05" style="fill:#2e1cda; fill-rule:evenodd;"/></g><path id="Fill-254" d="M75.28,146.48c0,3.89-3.15,7.04-7.04,7.04s-7.04-3.15-7.04-7.04,3.15-7.04,7.04-7.04,7.04,3.15,7.04,7.04" style="fill:#3d13cb; fill-rule:evenodd;"/><path id="Fill-256" d="M101.44,86.65c0,1.94-1.58,3.52-3.52,3.52s-3.52-1.58-3.52-3.52,1.58-3.52,3.52-3.52,3.52,1.58,3.52,3.52" style="fill:#00eae6; fill-rule:evenodd;"/><path id="Fill-258" d="M236.25,380.28c0,5.28-4.28,9.55-9.56,9.55s-9.56-4.28-9.56-9.55,4.28-9.55,9.56-9.55,9.56,4.28,9.56,9.55" style="fill:#efefef; fill-rule:evenodd;"/><g id="Fill-260"><path id="path-28" d="M80.31,127.37c0,2.78-2.25,5.03-5.03,5.03s-5.03-2.25-5.03-5.03,2.25-5.03,5.03-5.03,5.03,2.25,5.03,5.03" style="fill:#471cda; fill-rule:evenodd;"/><path id="path-28-2" d="M80.31,127.37c0,2.78-2.25,5.03-5.03,5.03s-5.03-2.25-5.03-5.03,2.25-5.03,5.03-5.03,5.03,2.25,5.03,5.03" style="fill:#2e1cda; fill-rule:evenodd;"/></g><path id="Fill-262" d="M304.67,97.21c0,6.11-4.95,11.06-11.07,11.06s-11.07-4.95-11.07-11.06,4.96-11.06,11.07-11.06,11.07,4.95,11.07,11.06" style="fill:#3d13cb; fill-rule:evenodd;"/><path id="Fill-264" d="M140.67,348.6c0,5-4.05,9.05-9.05,9.05s-9.05-4.05-9.05-9.05,4.05-9.05,9.05-9.05,9.05,4.05,9.05,9.05" style="fill:#00eae6; fill-rule:evenodd;"/><path id="Fill-266" d="M128.6,318.44c0,5.55-4.5,10.06-10.06,10.06s-10.06-4.5-10.06-10.06,4.5-10.06,10.06-10.06,10.06,4.5,10.06,10.06" style="fill:#efefef; fill-rule:evenodd;"/><g id="Fill-268"><path id="path-29" d="M226.19,76.59c0,9.16-7.43,16.59-16.6,16.59s-16.6-7.43-16.6-16.59,7.43-16.59,16.6-16.59,16.6,7.43,16.6,16.59" style="fill:#471cda; fill-rule:evenodd;"/><path id="path-29-2" d="M226.19,76.59c0,9.16-7.43,16.59-16.6,16.59s-16.6-7.43-16.6-16.59,7.43-16.59,16.6-16.59,16.6,7.43,16.6,16.59" style="fill:#2e1cda; fill-rule:evenodd;"/></g><g id="Fill-271"><path id="path-30" d="M327.81,99.72c0,9.16-7.43,16.59-16.6,16.59s-16.6-7.43-16.6-16.59,7.43-16.59,16.6-16.59,16.6,7.43,16.6,16.59" style="fill:#471cda; fill-rule:evenodd;"/><path id="path-30-2" d="M327.81,99.72c0,9.16-7.43,16.59-16.6,16.59s-16.6-7.43-16.6-16.59,7.43-16.59,16.6-16.59,16.6,7.43,16.6,16.59" style="fill:#2e1cda; fill-rule:evenodd;"/></g><path id="Fill-273" d="M277.5,335.03c0,6.39-5.18,11.56-11.57,11.56s-11.57-5.18-11.57-11.56,5.18-11.56,11.57-11.56,11.57,5.18,11.57,11.56" style="fill:#3d13cb; fill-rule:evenodd;"/><path id="Fill-275" d="M120.55,162.57c0,5-4.05,9.05-9.05,9.05s-9.05-4.05-9.05-9.05,4.05-9.05,9.05-9.05,9.05,4.05,9.05,9.05" style="fill:#00eae6; fill-rule:evenodd;"/><path id="Fill-277" d="M219.15,224.92c0,5.55-4.5,10.06-10.06,10.06s-10.06-4.5-10.06-10.06,4.5-10.06,10.06-10.06,10.06,4.5,10.06,10.06" style="fill:#efefef; fill-rule:evenodd;"/><g id="Fill-279"><path id="path-31" d="M152.75,193.74c0,7.78-6.31,14.08-14.08,14.08s-14.09-6.3-14.09-14.08,6.31-14.08,14.09-14.08,14.08,6.3,14.08,14.08" style="fill:#471cda; fill-rule:evenodd;"/><path id="path-31-2" d="M152.75,193.74c0,7.78-6.31,14.08-14.08,14.08s-14.09-6.3-14.09-14.08,6.31-14.08,14.09-14.08,14.08,6.3,14.08,14.08" style="fill:#2e1cda; fill-rule:evenodd;"/></g><path id="Fill-281" d="M44.09,140.95c0,1.94-1.58,3.52-3.52,3.52s-3.52-1.58-3.52-3.52,1.58-3.52,3.52-3.52,3.52,1.58,3.52,3.52" style="fill:#3d13cb; fill-rule:evenodd;"/><path id="Fill-283" d="M104.46,199.27c0,1.39-1.13,2.51-2.52,2.51s-2.52-1.13-2.52-2.51,1.13-2.51,2.52-2.51,2.52,1.13,2.52,2.51" style="fill:#00eae6; fill-rule:evenodd;"/><path id="Fill-285" d="M93.39,227.93c0,1.67-1.35,3.02-3.02,3.02s-3.02-1.35-3.02-3.02,1.35-3.02,3.02-3.02,3.02,1.35,3.02,3.02" style="fill:#efefef; fill-rule:evenodd;"/><g id="Fill-287"><path id="path-32" d="M123.57,218.88c0,2.22-1.8,4.02-4.02,4.02s-4.02-1.8-4.02-4.02,1.8-4.02,4.02-4.02,4.02,1.8,4.02,4.02" style="fill:#471cda; fill-rule:evenodd;"/><path id="path-32-2" d="M123.57,218.88c0,2.22-1.8,4.02-4.02,4.02s-4.02-1.8-4.02-4.02,1.8-4.02,4.02-4.02,4.02,1.8,4.02,4.02" style="fill:#2e1cda; fill-rule:evenodd;"/></g><path id="Fill-289" d="M63.21,106.26c0,1.67-1.35,3.02-3.02,3.02s-3.02-1.35-3.02-3.02,1.35-3.02,3.02-3.02,3.02,1.35,3.02,3.02" style="fill:#3d13cb; fill-rule:evenodd;"/><path id="Fill-291" d="M84.33,204.3c0,3.05-2.48,5.53-5.53,5.53s-5.53-2.48-5.53-5.53,2.48-5.53,5.53-5.53,5.53,2.48,5.53,5.53" style="fill:#00eae6; fill-rule:evenodd;"/><path id="Fill-293" d="M45.1,176.15c0,1.39-1.13,2.51-2.52,2.51s-2.52-1.13-2.52-2.51,1.13-2.51,2.52-2.51,2.52,1.13,2.52,2.51" style="fill:#efefef; fill-rule:evenodd;"/><g id="Fill-295"><path id="path-33" d="M143.69,87.65c0,1.94-1.58,3.52-3.52,3.52s-3.52-1.58-3.52-3.52,1.58-3.52,3.52-3.52,3.52,1.58,3.52,3.52" style="fill:#471cda; fill-rule:evenodd;"/><path id="path-33-2" d="M143.69,87.65c0,1.94-1.58,3.52-3.52,3.52s-3.52-1.58-3.52-3.52,1.58-3.52,3.52-3.52,3.52,1.58,3.52,3.52" style="fill:#2e1cda; fill-rule:evenodd;"/></g><path id="Fill-297" d="M118.54,89.67c0,1.94-1.58,3.52-3.52,3.52s-3.52-1.58-3.52-3.52,1.58-3.52,3.52-3.52,3.52,1.58,3.52,3.52" style="fill:#3d13cb; fill-rule:evenodd;"/><path id="Fill-299" d="M94.4,216.87c0,1.67-1.35,3.02-3.02,3.02s-3.02-1.35-3.02-3.02,1.35-3.02,3.02-3.02,3.02,1.35,3.02,3.02" style="fill:#00eae6; fill-rule:evenodd;"/><path id="Fill-301" d="M226.19,290.28c0,1.67-1.35,3.02-3.02,3.02s-3.02-1.35-3.02-3.02,1.35-3.02,3.02-3.02,3.02,1.35,3.02,3.02" style="fill:#efefef; fill-rule:evenodd;"/><g id="Fill-303"><path id="path-34" d="M230.22,64.53c0,2.5-2.03,4.53-4.53,4.53s-4.53-2.03-4.53-4.53,2.03-4.53,4.53-4.53,4.53,2.03,4.53,4.53" style="fill:#471cda; fill-rule:evenodd;"/><path id="path-34-2" d="M230.22,64.53c0,2.5-2.03,4.53-4.53,4.53s-4.53-2.03-4.53-4.53,2.03-4.53,4.53-4.53,4.53,2.03,4.53,4.53" style="fill:#2e1cda; fill-rule:evenodd;"/></g><path id="Fill-305" d="M322.78,345.59c0,9.44-7.66,17.09-17.1,17.09s-17.1-7.65-17.1-17.09,7.66-17.09,17.1-17.09,17.1,7.65,17.1,17.09" style="fill:#3d13cb; fill-rule:evenodd;"/><path id="Fill-307" d="M252.35,239.5c0,7.5-6.08,13.58-13.58,13.58s-13.58-6.08-13.58-13.58,6.08-13.58,13.58-13.58,13.58,6.08,13.58,13.58" style="fill:#00eae6; fill-rule:evenodd;"/><path id="Fill-309" d="M314.73,327.49c0,8.33-6.76,15.08-15.09,15.08s-15.09-6.75-15.09-15.08,6.76-15.08,15.09-15.08,15.09,6.75,15.09,15.08" style="fill:#efefef; fill-rule:evenodd;"/><g id="Fill-311"><path id="path-35" d="M342.9,301.84c0,11.38-9.23,20.61-20.62,20.61s-20.62-9.23-20.62-20.61,9.23-20.61,20.62-20.61,20.62,9.23,20.62,20.61" style="fill:#471cda; fill-rule:evenodd;"/><path id="path-35-2" d="M342.9,301.84c0,11.38-9.23,20.61-20.62,20.61s-20.62-9.23-20.62-20.61,9.23-20.61,20.62-20.61,20.62,9.23,20.62,20.61" style="fill:#2e1cda; fill-rule:evenodd;"/></g><path id="Fill-313" d="M98.42,308.88c0,1.39-1.13,2.51-2.52,2.51s-2.52-1.13-2.52-2.51,1.13-2.51,2.52-2.51,2.52,1.13,2.52,2.51" style="fill:#3d13cb; fill-rule:evenodd;"/><path id="Fill-315" d="M110.49,240c0,1.11-.9,2.01-2.01,2.01s-2.01-.9-2.01-2.01,.9-2.01,2.01-2.01,2.01,.9,2.01,2.01" style="fill:#00eae6; fill-rule:evenodd;"/><path id="Fill-317" d="M102.44,311.9c0,1.39-1.13,2.51-2.51,2.51s-2.52-1.13-2.52-2.51,1.13-2.51,2.52-2.51,2.51,1.13,2.51,2.51" style="fill:#efefef; fill-rule:evenodd;"/><g id="Fill-319"><path id="path-36" d="M129.61,246.03c0,1.67-1.35,3.02-3.02,3.02s-3.02-1.35-3.02-3.02,1.35-3.02,3.02-3.02,3.02,1.35,3.02,3.02" style="fill:#471cda; fill-rule:evenodd;"/><path id="path-36-2" d="M129.61,246.03c0,1.67-1.35,3.02-3.02,3.02s-3.02-1.35-3.02-3.02,1.35-3.02,3.02-3.02,3.02,1.35,3.02,3.02" style="fill:#2e1cda; fill-rule:evenodd;"/></g><path id="Fill-321" d="M190.98,112.29c0,8.33-6.76,15.08-15.09,15.08s-15.09-6.75-15.09-15.08,6.76-15.08,15.09-15.08,15.09,6.75,15.09,15.08" style="fill:#3d13cb; fill-rule:evenodd;"/><path id="Fill-323" d="M206.07,255.08c0,6.66-5.41,12.07-12.07,12.07s-12.07-5.4-12.07-12.07,5.41-12.07,12.07-12.07,12.07,5.4,12.07,12.07" style="fill:#00eae6; fill-rule:evenodd;"/><path id="Fill-325" d="M287.56,285.75c0,7.5-6.08,13.58-13.58,13.58s-13.58-6.08-13.58-13.58,6.08-13.58,13.58-13.58,13.58,6.08,13.58,13.58" style="fill:#efefef; fill-rule:evenodd;"/><g id="Fill-327"><path id="path-37" d="M287.56,372.23c0,10.27-8.33,18.6-18.61,18.6s-18.61-8.33-18.61-18.6,8.33-18.6,18.61-18.6,18.61,8.33,18.61,18.6" style="fill:#471cda; fill-rule:evenodd;"/><path id="path-37-2" d="M287.56,372.23c0,10.27-8.33,18.6-18.61,18.6s-18.61-8.33-18.61-18.6,8.33-18.6,18.61-18.6,18.61,8.33,18.61,18.6" style="fill:#2e1cda; fill-rule:evenodd;"/></g><path id="Fill-329" d="M155.77,393.35c0,3.61-2.93,6.54-6.54,6.54s-6.54-2.93-6.54-6.54,2.93-6.54,6.54-6.54,6.54,2.93,6.54,6.54" style="fill:#3d13cb; fill-rule:evenodd;"/><path id="Fill-331" d="M37.04,339.05c0,1.94-1.58,3.52-3.52,3.52s-3.52-1.58-3.52-3.52,1.58-3.52,3.52-3.52,3.52,1.58,3.52,3.52" style="fill:#00eae6; fill-rule:evenodd;"/><path id="Fill-333" d="M57.17,337.54c0,3.33-2.7,6.03-6.04,6.03s-6.04-2.7-6.04-6.03,2.7-6.03,6.04-6.03,6.04,2.7,6.04,6.03" style="fill:#efefef; fill-rule:evenodd;"/><g id="Fill-335"><path id="path-38" d="M160.8,246.03c0,4.44-3.6,8.04-8.05,8.04s-8.05-3.6-8.05-8.04,3.6-8.04,8.05-8.04,8.05,3.6,8.05,8.04" style="fill:#471cda; fill-rule:evenodd;"/><path id="path-38-2" d="M160.8,246.03c0,4.44-3.6,8.04-8.05,8.04s-8.05-3.6-8.05-8.04,3.6-8.04,8.05-8.04,8.05,3.6,8.05,8.04" style="fill:#2e1cda; fill-rule:evenodd;"/></g><path id="Fill-337" d="M99.43,335.03c0,3.05-2.48,5.53-5.53,5.53s-5.53-2.48-5.53-5.53,2.48-5.53,5.53-5.53,5.53,2.48,5.53,5.53" style="fill:#3d13cb; fill-rule:evenodd;"/><path id="Fill-339" d="M125.58,333.52c0,7.78-6.31,14.08-14.08,14.08s-14.09-6.3-14.09-14.08,6.31-14.08,14.09-14.08,14.08,6.3,14.08,14.08" style="fill:#00eae6; fill-rule:evenodd;"/><path id="Fill-341" d="M83.33,316.42c0,2.78-2.25,5.03-5.03,5.03s-5.03-2.25-5.03-5.03,2.25-5.03,5.03-5.03,5.03,2.25,5.03,5.03" style="fill:#efefef; fill-rule:evenodd;"/><g id="Fill-343"><path id="path-39" d="M147.72,234.47c0,3.61-2.93,6.54-6.54,6.54s-6.54-2.93-6.54-6.54,2.93-6.54,6.54-6.54,6.54,2.93,6.54,6.54" style="fill:#471cda; fill-rule:evenodd;"/><path id="path-39-2" d="M147.72,234.47c0,3.61-2.93,6.54-6.54,6.54s-6.54-2.93-6.54-6.54,2.93-6.54,6.54-6.54,6.54,2.93,6.54,6.54" style="fill:#2e1cda; fill-rule:evenodd;"/></g><path id="Fill-345" d="M252.35,273.69c0,3.61-2.93,6.54-6.54,6.54s-6.54-2.93-6.54-6.54,2.93-6.54,6.54-6.54,6.54,2.93,6.54,6.54" style="fill:#3d13cb; fill-rule:evenodd;"/><path id="Fill-347" d="M76.29,170.61c0,4.44-3.6,8.04-8.05,8.04s-8.05-3.6-8.05-8.04,3.6-8.04,8.05-8.04,8.05,3.6,8.05,8.04" style="fill:#00eae6; fill-rule:evenodd;"/><path id="Fill-349" d="M246.31,339.05c0,3.05-2.48,5.53-5.53,5.53s-5.53-2.48-5.53-5.53,2.48-5.53,5.53-5.53,5.53,2.48,5.53,5.53" style="fill:#efefef; fill-rule:evenodd;"/><g id="Fill-351"><path id="path-40" d="M141.68,326.48c0,4.44-3.6,8.04-8.05,8.04s-8.05-3.6-8.05-8.04,3.6-8.04,8.05-8.04,8.05,3.6,8.05,8.04" style="fill:#471cda; fill-rule:evenodd;"/><path id="path-40-2" d="M141.68,326.48c0,4.44-3.6,8.04-8.05,8.04s-8.05-3.6-8.05-8.04,3.6-8.04,8.05-8.04,8.05,3.6,8.05,8.04" style="fill:#2e1cda; fill-rule:evenodd;"/></g><rect id="Rectangle" width="1260" height="480" style="fill:none;"/></svg>